G04*
G04 #@! TF.GenerationSoftware,Altium Limited,Altium Designer,20.0.2 (26)*
G04*
G04 Layer_Color=255*
%FSLAX25Y25*%
%MOIN*%
G70*
G01*
G75*
%ADD11R,0.03740X0.03543*%
%ADD12R,0.21654X0.11221*%
%ADD13R,0.03543X0.03740*%
%ADD14R,0.03937X0.03347*%
%ADD15R,0.02953X0.03701*%
%ADD26C,0.04724*%
%ADD27R,0.04724X0.04724*%
D11*
X675500Y261453D02*
D03*
Y255547D02*
D03*
X670634Y206453D02*
D03*
Y200547D02*
D03*
X664335Y206453D02*
D03*
Y200547D02*
D03*
X668449Y255547D02*
D03*
Y261453D02*
D03*
D12*
X597390Y85858D02*
D03*
Y118142D02*
D03*
X674669Y85858D02*
D03*
Y118142D02*
D03*
X634890Y85858D02*
D03*
Y118142D02*
D03*
D13*
X682713Y193453D02*
D03*
X676807D02*
D03*
X678953Y234500D02*
D03*
X673047D02*
D03*
X678953Y242000D02*
D03*
X673047D02*
D03*
D14*
X680500Y177453D02*
D03*
Y171547D02*
D03*
D15*
X682756Y187000D02*
D03*
X677244D02*
D03*
D26*
X690158Y179130D02*
D03*
Y187004D02*
D03*
Y194878D02*
D03*
Y202752D02*
D03*
Y210626D02*
D03*
Y218500D02*
D03*
Y226374D02*
D03*
Y234248D02*
D03*
Y242122D02*
D03*
Y249996D02*
D03*
Y257870D02*
D03*
X580000Y179130D02*
D03*
Y187004D02*
D03*
Y194878D02*
D03*
Y202752D02*
D03*
Y210626D02*
D03*
Y218500D02*
D03*
Y226374D02*
D03*
Y234248D02*
D03*
Y242122D02*
D03*
Y249996D02*
D03*
Y257870D02*
D03*
D27*
X690158Y265744D02*
D03*
X580000D02*
D03*
M02*
