G04*
G04 #@! TF.GenerationSoftware,Altium Limited,Altium Designer,20.0.2 (26)*
G04*
G04 Layer_Color=16711935*
%FSLAX25Y25*%
%MOIN*%
G70*
G01*
G75*
%ADD10C,0.00787*%
%ADD54C,0.00394*%
D10*
X643221Y261518D02*
Y297344D01*
Y261518D02*
X670780D01*
Y297344D01*
X643221D02*
X670780D01*
X643221Y160587D02*
Y196413D01*
Y160587D02*
X670780D01*
Y196413D01*
X643221D02*
X670780D01*
X600587Y161957D02*
X636413D01*
Y189516D01*
X600587D02*
X636413D01*
X600587Y161957D02*
Y189516D01*
X643221Y248638D02*
X670780D01*
Y212811D02*
Y248638D01*
X643221Y212811D02*
X670780D01*
X643221D02*
Y248638D01*
X601087Y265721D02*
Y293280D01*
X636913D01*
Y265721D02*
Y293280D01*
X601087Y265721D02*
X636913D01*
X600587Y214721D02*
Y242280D01*
X636413D01*
Y214721D02*
Y242280D01*
X600587Y214721D02*
X636413D01*
D54*
X673925Y255449D02*
X677075D01*
Y261551D01*
X673925D02*
X677075D01*
X673925Y255449D02*
Y261551D01*
X587055Y82315D02*
Y121685D01*
X607724D01*
Y82315D02*
Y121685D01*
X587055Y82315D02*
X607724D01*
X676709Y191878D02*
Y195028D01*
Y191878D02*
X682811D01*
Y195028D01*
X676709D02*
X682811D01*
X678827Y171398D02*
X682173D01*
Y177602D01*
X678827D02*
X682173D01*
X678827Y171398D02*
Y177602D01*
X676850Y185425D02*
X683150D01*
X676850D02*
Y188575D01*
X683150D01*
Y185425D02*
Y188575D01*
X695075Y135850D02*
Y142150D01*
X691925D02*
X695075D01*
X691925Y135850D02*
Y142150D01*
Y135850D02*
X695075D01*
X664335Y82315D02*
Y121685D01*
X685004D01*
Y82315D02*
Y121685D01*
X664335Y82315D02*
X685004D01*
X671925Y137287D02*
X675075D01*
Y130988D02*
Y137287D01*
X671925Y130988D02*
X675075D01*
X671925D02*
Y137287D01*
X596949Y195425D02*
Y198575D01*
X603051D01*
Y195425D02*
Y198575D01*
X596949Y195425D02*
X603051D01*
X596949Y202425D02*
Y205575D01*
X603051D01*
Y202425D02*
Y205575D01*
X596949Y202425D02*
X603051D01*
X589713Y237449D02*
X592862D01*
X589713D02*
Y243551D01*
X592862D01*
Y237449D02*
Y243551D01*
X589425Y226551D02*
X592575D01*
Y220449D02*
Y226551D01*
X589425Y220449D02*
X592575D01*
X589425D02*
Y226551D01*
X596949Y251925D02*
Y255075D01*
X603051D01*
Y251925D02*
Y255075D01*
X596949Y251925D02*
X603051D01*
X596949Y258425D02*
Y261575D01*
X603051D01*
Y258425D02*
Y261575D01*
X596949Y258425D02*
X603051D01*
X653315Y105150D02*
X656465D01*
Y98850D02*
Y105150D01*
X653315Y98850D02*
X656465D01*
X653315D02*
Y105150D01*
X612925Y105650D02*
X616075D01*
Y99350D02*
Y105650D01*
X612925Y99350D02*
X616075D01*
X612925D02*
Y105650D01*
X575925Y105150D02*
X579075D01*
Y98850D02*
Y105150D01*
X575925Y98850D02*
X579075D01*
X575925D02*
Y105150D01*
X688350Y127197D02*
X691894Y123654D01*
Y116173D02*
Y127197D01*
X678114Y116173D02*
X691894D01*
X678114D02*
Y127197D01*
X691894D01*
X677791Y136008D02*
X681531Y139748D01*
X677791D02*
X689209D01*
Y133252D02*
Y139748D01*
X677791Y133252D02*
X689209D01*
X677791D02*
Y139748D01*
X668075Y96095D02*
X670634Y98654D01*
X658823Y96095D02*
X670634D01*
X658823D02*
Y107905D01*
X670634D01*
Y96095D02*
Y107905D01*
X628295Y96095D02*
X630854Y98654D01*
X619043Y96095D02*
X630854D01*
X619043D02*
Y107905D01*
X630854D01*
Y96095D02*
Y107905D01*
X624555Y82315D02*
Y121685D01*
X645224D01*
Y82315D02*
Y121685D01*
X624555Y82315D02*
X645224D01*
X598839Y96925D02*
Y100075D01*
X604941D01*
Y96925D02*
Y100075D01*
X598839Y96925D02*
X604941D01*
X590795Y96095D02*
X593354Y98654D01*
X581543Y96095D02*
X593354D01*
X581543D02*
Y107905D01*
X593354D01*
Y96095D02*
Y107905D01*
X598839Y103925D02*
Y107075D01*
X604941D01*
Y103925D02*
Y107075D01*
X598839Y103925D02*
X604941D01*
X676339D02*
Y107075D01*
X682441D01*
Y103925D02*
Y107075D01*
X676339Y103925D02*
X682441D01*
X676291Y96925D02*
Y100075D01*
X682394D01*
Y96925D02*
Y100075D01*
X676291Y96925D02*
X682394D01*
X636339Y103925D02*
Y107075D01*
X642441D01*
Y103925D02*
Y107075D01*
X636339Y103925D02*
X642441D01*
X636339Y96925D02*
Y100075D01*
X642441D01*
Y96925D02*
Y100075D01*
X636339Y96925D02*
X642441D01*
X672209Y200449D02*
Y206551D01*
X669059Y200449D02*
X672209D01*
X669059D02*
Y206551D01*
X672209D01*
X665909Y200449D02*
Y206551D01*
X662760Y200449D02*
X665909D01*
X662760D02*
Y206551D01*
X665909D01*
X672949Y232925D02*
X679051D01*
X672949D02*
Y236075D01*
X679051D01*
Y232925D02*
Y236075D01*
X672949Y240425D02*
X679051D01*
X672949D02*
Y243575D01*
X679051D01*
Y240425D02*
Y243575D01*
X666874Y255449D02*
Y261551D01*
X670024D01*
Y255449D02*
Y261551D01*
X666874Y255449D02*
X670024D01*
X631701Y200508D02*
Y206807D01*
X644299D01*
Y200508D02*
Y206807D01*
X631701Y200508D02*
X644299D01*
X629201Y251925D02*
Y258224D01*
X641799D01*
Y251925D02*
Y258224D01*
X629201Y251925D02*
X641799D01*
X634201Y301850D02*
Y308150D01*
X646799D01*
Y301850D02*
Y308150D01*
X634201Y301850D02*
X646799D01*
X634201Y310850D02*
Y317150D01*
X646799D01*
Y310850D02*
Y317150D01*
X634201Y310850D02*
X646799D01*
X631201Y140634D02*
Y146933D01*
X643799D01*
Y140634D02*
Y146933D01*
X631201Y140634D02*
X643799D01*
X631201Y149350D02*
Y155650D01*
X643799D01*
Y149350D02*
Y155650D01*
X631201Y149350D02*
X643799D01*
X686221Y173913D02*
Y270961D01*
Y173913D02*
X694095D01*
Y270961D01*
X686221D02*
X694095D01*
X576063Y173913D02*
Y270961D01*
Y173913D02*
X583937D01*
Y270961D01*
X576063D02*
X583937D01*
M02*
