G04*
G04 #@! TF.GenerationSoftware,Altium Limited,Altium Designer,20.0.2 (26)*
G04*
G04 Layer_Physical_Order=2*
G04 Layer_Color=16711680*
%FSLAX25Y25*%
%MOIN*%
G70*
G01*
G75*
%ADD11R,0.03740X0.03543*%
%ADD13R,0.03543X0.03740*%
%ADD24C,0.03937*%
%ADD25C,0.02362*%
%ADD26C,0.04724*%
%ADD27R,0.04724X0.04724*%
%ADD28C,0.01575*%
%ADD29C,0.03150*%
%ADD30R,0.03347X0.04331*%
%ADD31R,0.05118X0.02756*%
%ADD32R,0.06693X0.04331*%
%ADD33R,0.04331X0.03347*%
%ADD34R,0.02756X0.05118*%
%ADD35R,0.04331X0.06693*%
%ADD36R,0.03701X0.02953*%
%ADD37R,0.07087X0.08858*%
%ADD38R,0.02362X0.03543*%
%ADD39R,0.01772X0.05709*%
%ADD40R,0.02441X0.07165*%
%ADD41C,0.03150*%
%ADD42C,0.01378*%
G36*
X622029Y324000D02*
X613644D01*
X613532Y336645D01*
X613884Y337000D01*
X622029D01*
Y324000D01*
D02*
G37*
G36*
X687500Y320000D02*
X699000D01*
Y296000D01*
X688531D01*
X683032Y290500D01*
X682811D01*
X682811Y273000D01*
X686823Y268988D01*
Y267859D01*
X687453Y267900D01*
X687650Y267957D01*
X687768Y268022D01*
X687807Y268094D01*
Y263394D01*
X687768Y263466D01*
X687650Y263531D01*
X687453Y263589D01*
X687177Y263638D01*
X686823Y263680D01*
X686590D01*
X682811Y259902D01*
X682811Y163520D01*
X658618Y139327D01*
X642319D01*
Y160500D01*
X644717Y163500D01*
X666173D01*
X670780Y169248D01*
X670780Y192220D01*
X669449Y193551D01*
X664562D01*
X664335Y193581D01*
X664107Y193551D01*
X644500D01*
X642000Y196051D01*
Y212144D01*
X644856Y215000D01*
X669059D01*
X671059Y217000D01*
Y244894D01*
X669953Y246000D01*
X644209D01*
X640213Y249996D01*
X640000D01*
Y260500D01*
X644000Y264500D01*
X668709D01*
X669000Y264209D01*
X671413Y266622D01*
X671500D01*
X671500Y291000D01*
X667567Y294933D01*
X645433Y294933D01*
X645000Y295112D01*
Y318173D01*
X659500D01*
X659720Y318173D01*
X666047Y324500D01*
X666076Y329282D01*
X666011Y336645D01*
X666122Y336757D01*
X666123Y336885D01*
X666111Y337138D01*
X666456Y337500D01*
X687500D01*
Y320000D01*
D02*
G37*
G36*
X659571Y289593D02*
X659642Y289537D01*
X659760Y289487D01*
X659925Y289444D01*
X660138Y289408D01*
X660397Y289378D01*
X661059Y289339D01*
X661909Y289326D01*
Y286964D01*
X659547Y286923D01*
Y289655D01*
X659571Y289593D01*
D02*
G37*
G36*
X611473Y276929D02*
X611441Y276858D01*
X611413Y276740D01*
X611389Y276575D01*
X611352Y276103D01*
X611323Y274591D01*
X608961D01*
X608959Y275040D01*
X608842Y276858D01*
X608811Y276929D01*
X608776Y276953D01*
X611508D01*
X611473Y276929D01*
D02*
G37*
G36*
X651677Y285500D02*
X665661D01*
Y269000D01*
X651677D01*
X639500Y267000D01*
X634201D01*
X634003Y291645D01*
X634355Y292000D01*
X639500D01*
X651677Y285500D01*
D02*
G37*
G36*
X606383Y261858D02*
X605914Y261373D01*
X605176Y260503D01*
X604908Y260118D01*
X604706Y259767D01*
X604572Y259450D01*
X604504Y259166D01*
X604502Y258916D01*
X604568Y258700D01*
X604700Y258517D01*
X601372Y261846D01*
X601554Y261714D01*
X601771Y261648D01*
X602021Y261649D01*
X602304Y261717D01*
X602622Y261852D01*
X602972Y262054D01*
X603357Y262322D01*
X603775Y262657D01*
X604712Y263528D01*
X606383Y261858D01*
D02*
G37*
G36*
X595288Y258142D02*
X595264Y258140D01*
X595193Y258138D01*
X592925Y258130D01*
Y260492D01*
X593374Y260504D01*
X593776Y260539D01*
X594130Y260598D01*
X594437Y260681D01*
X594697Y260787D01*
X594910Y260917D01*
X595075Y261071D01*
X595193Y261248D01*
X595264Y261449D01*
X595288Y261673D01*
Y258142D01*
D02*
G37*
G36*
X606579Y253008D02*
X606222Y253001D01*
X605622Y252946D01*
X605378Y252898D01*
X605171Y252837D01*
X605002Y252761D01*
X604871Y252672D01*
X604776Y252569D01*
X604720Y252453D01*
X604700Y252323D01*
X604712Y255358D01*
X604731Y255360D01*
X604787Y255362D01*
X606579Y255370D01*
Y253008D01*
D02*
G37*
G36*
X595288Y251642D02*
X595264Y251771D01*
X595193Y251886D01*
X595075Y251987D01*
X594910Y252075D01*
X594697Y252150D01*
X594437Y252211D01*
X594130Y252258D01*
X593776Y252292D01*
X592925Y252319D01*
Y254681D01*
X593374Y254688D01*
X594130Y254742D01*
X594437Y254789D01*
X594697Y254850D01*
X594910Y254925D01*
X595075Y255013D01*
X595193Y255114D01*
X595264Y255229D01*
X595288Y255358D01*
Y251642D01*
D02*
G37*
G36*
X583284Y251610D02*
X583108Y251427D01*
X582811Y251077D01*
X582691Y250910D01*
X582589Y250748D01*
X582506Y250592D01*
X582442Y250441D01*
X582397Y250295D01*
X582370Y250155D01*
X582362Y250020D01*
X580024Y252358D01*
X580159Y252366D01*
X580299Y252393D01*
X580445Y252438D01*
X580596Y252502D01*
X580752Y252585D01*
X580913Y252687D01*
X581080Y252807D01*
X581253Y252946D01*
X581614Y253280D01*
X583284Y251610D01*
D02*
G37*
G36*
X594816Y245212D02*
X594416Y244804D01*
X593525Y243779D01*
X593331Y243504D01*
X593188Y243264D01*
X593097Y243057D01*
X593058Y242883D01*
X593070Y242743D01*
X593133Y242637D01*
X590570Y245200D01*
X590676Y245137D01*
X590816Y245125D01*
X590990Y245164D01*
X591197Y245255D01*
X591437Y245398D01*
X591712Y245592D01*
X592020Y245837D01*
X592736Y246483D01*
X593146Y246883D01*
X594816Y245212D01*
D02*
G37*
G36*
X583284Y243736D02*
X583108Y243553D01*
X582811Y243203D01*
X582691Y243036D01*
X582589Y242874D01*
X582506Y242718D01*
X582442Y242567D01*
X582397Y242421D01*
X582370Y242281D01*
X582362Y242146D01*
X580024Y244484D01*
X580159Y244492D01*
X580299Y244519D01*
X580445Y244564D01*
X580596Y244628D01*
X580752Y244711D01*
X580913Y244813D01*
X581080Y244933D01*
X581253Y245072D01*
X581614Y245406D01*
X583284Y243736D01*
D02*
G37*
G36*
X661217Y240949D02*
X659547Y239147D01*
X657746Y240949D01*
X657775Y240953D01*
X657839Y240995D01*
X657935Y241071D01*
X658229Y241333D01*
X659547Y242619D01*
X661217Y240949D01*
D02*
G37*
G36*
X592508Y235788D02*
X592351Y235898D01*
X592160Y235946D01*
X591935Y235933D01*
X591678Y235858D01*
X591387Y235722D01*
X591062Y235524D01*
X590704Y235265D01*
X590312Y234944D01*
X589429Y234117D01*
X587759Y235788D01*
X588203Y236246D01*
X588907Y237062D01*
X589166Y237420D01*
X589364Y237745D01*
X589500Y238036D01*
X589575Y238294D01*
X589588Y238518D01*
X589539Y238709D01*
X589429Y238867D01*
X592508Y235788D01*
D02*
G37*
G36*
X581788Y235812D02*
X581906Y235732D01*
X582041Y235661D01*
X582193Y235599D01*
X582363Y235547D01*
X582549Y235505D01*
X582752Y235472D01*
X582972Y235448D01*
X583463Y235429D01*
Y233067D01*
X583209Y233062D01*
X582752Y233024D01*
X582549Y232991D01*
X582363Y232949D01*
X582193Y232897D01*
X582041Y232835D01*
X581906Y232765D01*
X581788Y232684D01*
X581687Y232594D01*
Y235902D01*
X581788Y235812D01*
D02*
G37*
G36*
X610825Y232960D02*
X610941Y231141D01*
X610973Y231071D01*
X611008Y231047D01*
X608276D01*
X608311Y231071D01*
X608342Y231141D01*
X608370Y231260D01*
X608394Y231425D01*
X608431Y231897D01*
X608461Y233409D01*
X610823D01*
X610825Y232960D01*
D02*
G37*
G36*
X581761Y227968D02*
X581880Y227889D01*
X582016Y227820D01*
X582168Y227760D01*
X582338Y227710D01*
X582524Y227668D01*
X582728Y227636D01*
X582948Y227613D01*
X583440Y227594D01*
X583485Y225232D01*
X583231Y225227D01*
X582775Y225189D01*
X582572Y225155D01*
X582386Y225111D01*
X582218Y225058D01*
X582066Y224995D01*
X581932Y224923D01*
X581814Y224841D01*
X581714Y224749D01*
X581659Y228055D01*
X581761Y227968D01*
D02*
G37*
G36*
X589142Y224693D02*
X589118Y224796D01*
X589047Y224887D01*
X588929Y224968D01*
X588764Y225038D01*
X588551Y225097D01*
X588292Y225146D01*
X587984Y225184D01*
X587228Y225227D01*
X586780Y225232D01*
Y227594D01*
X587228Y227601D01*
X588292Y227693D01*
X588551Y227749D01*
X588764Y227817D01*
X588929Y227897D01*
X589047Y227990D01*
X589118Y228095D01*
X589142Y228212D01*
Y224693D01*
D02*
G37*
G36*
X651677Y236500D02*
X665909D01*
Y220547D01*
X650404D01*
X639000Y216492D01*
X634000D01*
Y241000D01*
X639000D01*
X651677Y236500D01*
D02*
G37*
G36*
X592729Y218764D02*
X592614Y218693D01*
X592513Y218575D01*
X592425Y218410D01*
X592350Y218197D01*
X592289Y217937D01*
X592242Y217630D01*
X592208Y217276D01*
X592181Y216425D01*
X589819D01*
X589812Y216874D01*
X589758Y217630D01*
X589711Y217937D01*
X589650Y218197D01*
X589575Y218410D01*
X589487Y218575D01*
X589386Y218693D01*
X589271Y218764D01*
X589142Y218788D01*
X592858D01*
X592729Y218764D01*
D02*
G37*
G36*
X582370Y218341D02*
X582397Y218201D01*
X582442Y218055D01*
X582506Y217904D01*
X582589Y217748D01*
X582691Y217586D01*
X582811Y217420D01*
X582950Y217247D01*
X583284Y216886D01*
X581614Y215216D01*
X581431Y215392D01*
X581080Y215689D01*
X580913Y215809D01*
X580752Y215911D01*
X580596Y215994D01*
X580445Y216058D01*
X580299Y216103D01*
X580159Y216130D01*
X580024Y216138D01*
X582362Y218476D01*
X582370Y218341D01*
D02*
G37*
G36*
Y210467D02*
X582397Y210327D01*
X582442Y210181D01*
X582506Y210030D01*
X582589Y209874D01*
X582691Y209712D01*
X582811Y209545D01*
X582950Y209373D01*
X583284Y209012D01*
X581614Y207342D01*
X581431Y207518D01*
X581080Y207815D01*
X580913Y207935D01*
X580752Y208037D01*
X580596Y208120D01*
X580445Y208184D01*
X580299Y208229D01*
X580159Y208256D01*
X580024Y208264D01*
X582362Y210602D01*
X582370Y210467D01*
D02*
G37*
G36*
X604725Y205449D02*
X604797Y205248D01*
X604916Y205071D01*
X605082Y204917D01*
X605296Y204787D01*
X605557Y204681D01*
X605865Y204598D01*
X606221Y204539D01*
X606624Y204504D01*
X607075Y204492D01*
Y202130D01*
X604712Y202142D01*
X604700Y205673D01*
X604725Y205449D01*
D02*
G37*
G36*
X582367Y202464D02*
X582387Y202213D01*
X582422Y201973D01*
X582472Y201746D01*
X582537Y201531D01*
X582617Y201328D01*
X582712Y201137D01*
X582822Y200959D01*
X582947Y200793D01*
X583087Y200639D01*
X582113Y199665D01*
X581959Y199805D01*
X581793Y199930D01*
X581614Y200040D01*
X581424Y200135D01*
X581221Y200215D01*
X581006Y200280D01*
X580779Y200330D01*
X580539Y200365D01*
X580288Y200385D01*
X580024Y200390D01*
X582362Y202728D01*
X582367Y202464D01*
D02*
G37*
G36*
X697500Y97996D02*
X685004Y85500D01*
X573000D01*
Y205000D01*
X572962Y205038D01*
X573153Y205500D01*
X577315D01*
X577507Y205000D01*
X577077Y204440D01*
X576740Y203626D01*
X576625Y202752D01*
X576740Y201878D01*
X577077Y201064D01*
X577613Y200365D01*
X578312Y199829D01*
X579126Y199492D01*
X580000Y199377D01*
X580067Y199385D01*
X580239Y199382D01*
X580428Y199367D01*
X580599Y199343D01*
X580753Y199309D01*
X580891Y199267D01*
X581015Y199218D01*
X581126Y199163D01*
X581226Y199101D01*
X581277Y199063D01*
X582635Y197705D01*
X582304Y197328D01*
X581688Y197801D01*
X580874Y198138D01*
X580000Y198253D01*
X579126Y198138D01*
X578312Y197801D01*
X577613Y197265D01*
X577077Y196566D01*
X576740Y195752D01*
X576625Y194878D01*
X576740Y194004D01*
X577077Y193190D01*
X577613Y192491D01*
X578312Y191955D01*
X579126Y191618D01*
X580000Y191503D01*
X580067Y191511D01*
X580239Y191508D01*
X580428Y191493D01*
X580599Y191468D01*
X580753Y191435D01*
X580891Y191393D01*
X581015Y191344D01*
X581126Y191289D01*
X581226Y191227D01*
X581277Y191189D01*
X582635Y189831D01*
X582304Y189454D01*
X581688Y189927D01*
X580874Y190264D01*
X580000Y190379D01*
X579126Y190264D01*
X578312Y189927D01*
X577613Y189391D01*
X577077Y188692D01*
X576740Y187878D01*
X576625Y187004D01*
X576740Y186130D01*
X577077Y185316D01*
X577613Y184617D01*
X578312Y184081D01*
X579126Y183744D01*
X580000Y183629D01*
X580067Y183637D01*
X580239Y183634D01*
X580428Y183619D01*
X580599Y183594D01*
X580753Y183561D01*
X580891Y183519D01*
X581015Y183470D01*
X581126Y183414D01*
X581226Y183353D01*
X581277Y183315D01*
X584463Y180128D01*
Y125439D01*
X582388Y123364D01*
X582018Y122810D01*
X581888Y122158D01*
Y114598D01*
X581740D01*
Y107365D01*
X577500D01*
X576753Y107217D01*
X574665D01*
Y102295D01*
X576753D01*
X577500Y102147D01*
X584966D01*
X585964Y102345D01*
X586810Y102911D01*
X589294Y105394D01*
X589811Y106168D01*
X589878Y106210D01*
X590101Y106264D01*
X590379Y106290D01*
X592730Y103939D01*
X593446Y103460D01*
X594291Y103292D01*
X595526D01*
X595602Y103290D01*
X595895Y103262D01*
X596136Y103225D01*
X596181Y103214D01*
Y102646D01*
X597141D01*
X597177Y102638D01*
X597214Y102646D01*
X601587D01*
X601693Y102646D01*
X602087D01*
X602193Y102646D01*
X607598D01*
Y102993D01*
X608085Y103089D01*
X608932Y103655D01*
X609497Y104501D01*
X609696Y105500D01*
X609497Y106499D01*
X608932Y107345D01*
X608085Y107911D01*
X607598Y108007D01*
Y108354D01*
X602193D01*
X602087Y108354D01*
X601693D01*
X601587Y108354D01*
X597214D01*
X597177Y108362D01*
X597141Y108354D01*
X596181D01*
Y107786D01*
X596136Y107775D01*
X595907Y107740D01*
X595457Y107708D01*
X595206D01*
X594003Y108911D01*
Y110760D01*
X593835Y111605D01*
X593356Y112321D01*
X593157Y112454D01*
Y114598D01*
X590058D01*
Y115368D01*
X590712Y116022D01*
X604581D01*
X611522Y109081D01*
Y105256D01*
X611623Y104485D01*
X611665Y104383D01*
Y102795D01*
X612856D01*
X613011Y102677D01*
X613729Y102379D01*
X614500Y102278D01*
X615271Y102379D01*
X615917Y102647D01*
X622988D01*
X623986Y102845D01*
X624833Y103411D01*
X626416Y104994D01*
X626981Y105841D01*
X627180Y106839D01*
Y106921D01*
X627704D01*
X627734Y106876D01*
X630671Y103939D01*
X631387Y103460D01*
X632232Y103292D01*
X633026D01*
X633102Y103290D01*
X633395Y103262D01*
X633636Y103225D01*
X633681Y103214D01*
Y102646D01*
X634641D01*
X634677Y102638D01*
X634714Y102646D01*
X639087D01*
X639193Y102646D01*
X639587D01*
X639693Y102646D01*
X645098D01*
Y103010D01*
X645499Y103089D01*
X646345Y103655D01*
X646911Y104501D01*
X647109Y105500D01*
X646911Y106499D01*
X646345Y107345D01*
X645499Y107911D01*
X645098Y107990D01*
Y108354D01*
X639693D01*
X639587Y108354D01*
X639193D01*
X639087Y108354D01*
X634714D01*
X634677Y108362D01*
X634641Y108354D01*
X633681D01*
Y107786D01*
X633636Y107775D01*
X633407Y107740D01*
X633134Y107720D01*
X631503Y109352D01*
Y110760D01*
X631335Y111605D01*
X630856Y112321D01*
X630657Y112454D01*
Y114598D01*
X631036Y114891D01*
X648309D01*
X652281Y110919D01*
Y107774D01*
X652270Y107410D01*
X652254Y107217D01*
X652055D01*
Y106257D01*
X652048Y106220D01*
X652055Y106184D01*
Y102295D01*
X654143D01*
X654890Y102147D01*
X662824D01*
X663823Y102345D01*
X664669Y102911D01*
X666573Y104815D01*
X667139Y105662D01*
X667285Y106397D01*
X667828Y106562D01*
X670451Y103939D01*
X671167Y103460D01*
X672012Y103292D01*
X673026D01*
X673102Y103290D01*
X673395Y103262D01*
X673636Y103225D01*
X673681Y103214D01*
Y102646D01*
X674641D01*
X674677Y102638D01*
X674714Y102646D01*
X679087D01*
X679193Y102646D01*
X679587D01*
X679693Y102646D01*
X685098D01*
Y103016D01*
X685467Y103089D01*
X686313Y103655D01*
X686879Y104501D01*
X687078Y105500D01*
X686879Y106499D01*
X686313Y107345D01*
X685467Y107911D01*
X685098Y107984D01*
Y108354D01*
X679693D01*
X679587Y108354D01*
X679193D01*
X679087Y108354D01*
X674714D01*
X674677Y108362D01*
X674641Y108354D01*
X673681D01*
Y107786D01*
X673636Y107775D01*
X673407Y107740D01*
X672957Y107708D01*
X672926D01*
X671283Y109352D01*
Y110760D01*
X671114Y111605D01*
X670636Y112321D01*
X670437Y112454D01*
Y114599D01*
X668257D01*
X668065Y115060D01*
X672081Y119076D01*
X673343D01*
X673626Y119051D01*
X674014Y118987D01*
X674317Y118905D01*
X674532Y118818D01*
X674662Y118738D01*
X674723Y118682D01*
X674746Y118649D01*
X674759Y118611D01*
X674768Y118527D01*
Y116272D01*
X683823D01*
Y127099D01*
X682159D01*
X682135Y127137D01*
X682083Y127265D01*
X682029Y127466D01*
X681985Y127736D01*
X681968Y127928D01*
Y131185D01*
X681925Y131398D01*
Y133744D01*
X678627D01*
X678591Y133751D01*
X678554Y133744D01*
X678548D01*
X678513Y133748D01*
X678498Y133744D01*
X677595D01*
Y133439D01*
X676922Y133393D01*
X676916D01*
X676576Y133410D01*
X676335Y133437D01*
Y133843D01*
X675375D01*
X675338Y133850D01*
X675302Y133843D01*
X673418D01*
X673205Y133885D01*
X671737D01*
X671283Y134340D01*
Y139629D01*
X672317Y140664D01*
X672319Y140720D01*
X672373D01*
X677213Y145560D01*
X677674Y145314D01*
X677552Y144701D01*
Y142012D01*
X677595Y141799D01*
Y139256D01*
X681925D01*
Y141799D01*
X681968Y142012D01*
Y143786D01*
X684532Y146351D01*
X685032Y146144D01*
Y141884D01*
X685075Y141671D01*
Y139256D01*
X688373D01*
X688409Y139249D01*
X688446Y139256D01*
X689405D01*
Y139634D01*
X690062Y139676D01*
X690202D01*
X690665Y139641D01*
Y139295D01*
X691555D01*
X691562Y139293D01*
X691586Y139295D01*
X691625D01*
X691662Y139288D01*
X691698Y139295D01*
X696335D01*
Y144217D01*
X691698D01*
X691662Y144224D01*
X691625Y144217D01*
X691565D01*
X691551Y144218D01*
X691547Y144217D01*
X690665D01*
Y144132D01*
X690060Y144093D01*
X689988Y144095D01*
X689696Y144124D01*
X689459Y144162D01*
X689448Y144165D01*
Y147458D01*
X689651Y147761D01*
X689849Y148760D01*
X689651Y149758D01*
X689085Y150605D01*
X688239Y151170D01*
X687240Y151369D01*
X686242Y151170D01*
X685938Y150968D01*
X683819D01*
X683206Y150846D01*
X682960Y151306D01*
X686219Y154566D01*
Y158825D01*
X687061Y159667D01*
X687540Y160383D01*
X687708Y161228D01*
Y168198D01*
X687911Y168501D01*
X688109Y169500D01*
X687911Y170499D01*
X687345Y171345D01*
X686498Y171911D01*
X686219Y171966D01*
Y205499D01*
X686221Y205500D01*
X687473D01*
X687664Y205000D01*
X687234Y204440D01*
X686897Y203626D01*
X686782Y202752D01*
X686897Y201878D01*
X687234Y201064D01*
X687771Y200365D01*
X688470Y199829D01*
X689284Y199492D01*
X690158Y199377D01*
X691031Y199492D01*
X691845Y199829D01*
X692544Y200365D01*
X693081Y201064D01*
X693418Y201878D01*
X693533Y202752D01*
X693418Y203626D01*
X693081Y204440D01*
X692651Y205000D01*
X692842Y205500D01*
X697500D01*
Y97996D01*
D02*
G37*
G36*
X595288Y195338D02*
X595270Y195448D01*
X595217Y195547D01*
X595129Y195634D01*
X595006Y195709D01*
X594848Y195773D01*
X594654Y195825D01*
X594425Y195865D01*
X594161Y195894D01*
X593528Y195917D01*
Y198280D01*
X593862Y198285D01*
X594425Y198332D01*
X594654Y198372D01*
X594848Y198424D01*
X595006Y198488D01*
X595129Y198563D01*
X595217Y198650D01*
X595270Y198748D01*
X595288Y198858D01*
Y195338D01*
D02*
G37*
G36*
X604689Y197087D02*
X604718Y197005D01*
X604787Y196890D01*
X604895Y196741D01*
X605044Y196559D01*
X605727Y195810D01*
X606383Y195142D01*
X604712Y193472D01*
X604362Y193819D01*
X602849Y195136D01*
X602768Y195165D01*
X602720Y195154D01*
X604700Y197134D01*
X604689Y197087D01*
D02*
G37*
G36*
X582367Y194590D02*
X582387Y194339D01*
X582422Y194099D01*
X582472Y193872D01*
X582537Y193657D01*
X582617Y193454D01*
X582712Y193263D01*
X582822Y193085D01*
X582947Y192919D01*
X583087Y192765D01*
X582113Y191791D01*
X581959Y191931D01*
X581793Y192056D01*
X581614Y192166D01*
X581424Y192261D01*
X581221Y192341D01*
X581006Y192406D01*
X580779Y192456D01*
X580539Y192491D01*
X580288Y192511D01*
X580024Y192516D01*
X582362Y194854D01*
X582367Y194590D01*
D02*
G37*
G36*
X659571Y188689D02*
X659642Y188658D01*
X659760Y188630D01*
X659925Y188606D01*
X660397Y188569D01*
X661909Y188539D01*
Y186177D01*
X661460Y186175D01*
X659642Y186059D01*
X659571Y186027D01*
X659547Y185992D01*
Y188724D01*
X659571Y188689D01*
D02*
G37*
G36*
X582367Y186716D02*
X582387Y186465D01*
X582422Y186225D01*
X582472Y185998D01*
X582537Y185783D01*
X582617Y185580D01*
X582712Y185389D01*
X582822Y185211D01*
X582947Y185045D01*
X583087Y184891D01*
X582113Y183917D01*
X581959Y184057D01*
X581793Y184182D01*
X581614Y184292D01*
X581424Y184387D01*
X581221Y184467D01*
X581006Y184532D01*
X580779Y184582D01*
X580539Y184617D01*
X580288Y184637D01*
X580024Y184642D01*
X582362Y186980D01*
X582367Y186716D01*
D02*
G37*
G36*
X611008Y178283D02*
X608276D01*
X608372Y178307D01*
X608459Y178378D01*
X608535Y178496D01*
X608601Y178661D01*
X608657Y178874D01*
X608702Y179134D01*
X608738Y179441D01*
X608778Y180197D01*
X608783Y180646D01*
X611146D01*
X611008Y178283D01*
D02*
G37*
G36*
X651677Y184398D02*
X665909Y184398D01*
Y168000D01*
X651677Y168000D01*
X639390Y163500D01*
X633500D01*
Y187748D01*
X638500Y187748D01*
X651677Y184398D01*
D02*
G37*
G36*
X613000Y167284D02*
X612977Y167375D01*
X612906Y167456D01*
X612788Y167528D01*
X612622Y167591D01*
X612410Y167644D01*
X612150Y167687D01*
X611843Y167721D01*
X611087Y167759D01*
X610638Y167764D01*
Y170126D01*
X611087Y170131D01*
X612150Y170203D01*
X612410Y170246D01*
X612622Y170299D01*
X612788Y170361D01*
X612906Y170433D01*
X612977Y170515D01*
X613000Y170606D01*
Y167284D01*
D02*
G37*
G36*
X688433Y143637D02*
X688504Y143517D01*
X688622Y143411D01*
X688787Y143319D01*
X689000Y143242D01*
X689260Y143178D01*
X689567Y143129D01*
X689921Y143093D01*
X690076Y143088D01*
X691638Y143191D01*
X691662Y143220D01*
Y140292D01*
X691638Y140370D01*
X691567Y140440D01*
X691449Y140501D01*
X691284Y140555D01*
X691071Y140600D01*
X690811Y140637D01*
X690150Y140686D01*
X690138Y140687D01*
X689260Y140631D01*
X689000Y140590D01*
X688787Y140541D01*
X688622Y140482D01*
X688504Y140414D01*
X688433Y140338D01*
X688409Y140252D01*
Y143772D01*
X688433Y143637D01*
D02*
G37*
G36*
X605521Y337000D02*
X605521D01*
Y324000D01*
X611449Y318072D01*
X613572D01*
X613645Y318145D01*
X621500Y318145D01*
X639000Y337000D01*
X658000D01*
Y324000D01*
X642211D01*
X635925Y317075D01*
X636000Y317000D01*
Y300492D01*
X628787Y293280D01*
X628787Y266622D01*
X631201Y264209D01*
Y245153D01*
X628787Y242740D01*
Y214500D01*
X633500Y209787D01*
Y197610D01*
X628787Y192898D01*
Y160386D01*
X633000Y156173D01*
Y139327D01*
X621933D01*
X613500Y147760D01*
Y149760D01*
Y219700D01*
X613414Y219835D01*
X613292Y219953D01*
X613154Y220024D01*
X613000Y220047D01*
X613500D01*
X613500Y290500D01*
Y290949D01*
X605449Y299000D01*
X572000D01*
Y320537D01*
X583500D01*
Y337500D01*
X605521D01*
Y337000D01*
D02*
G37*
G36*
X675362Y132755D02*
X675433Y132673D01*
X675551Y132601D01*
X675716Y132539D01*
X675929Y132486D01*
X676189Y132443D01*
X676496Y132409D01*
X676929Y132387D01*
X678000Y132462D01*
X678213Y132503D01*
X678378Y132553D01*
X678496Y132610D01*
X678567Y132675D01*
X678591Y132748D01*
Y129228D01*
X678567Y129376D01*
X678496Y129508D01*
X678378Y129624D01*
X678213Y129725D01*
X678000Y129810D01*
X677740Y129880D01*
X677433Y129934D01*
X677079Y129973D01*
X676966Y129977D01*
X675338Y129918D01*
Y132846D01*
X675362Y132755D01*
D02*
G37*
G36*
X680953Y128013D02*
X680988Y127610D01*
X681047Y127254D01*
X681130Y126945D01*
X681236Y126684D01*
X681366Y126470D01*
X681520Y126304D01*
X681697Y126185D01*
X681898Y126114D01*
X682122Y126090D01*
X677398D01*
X677622Y126114D01*
X677823Y126185D01*
X678000Y126304D01*
X678154Y126470D01*
X678284Y126684D01*
X678390Y126945D01*
X678472Y127254D01*
X678532Y127610D01*
X678567Y128013D01*
X678579Y128464D01*
X680941D01*
X680953Y128013D01*
D02*
G37*
G36*
X675776Y118535D02*
X675744Y118835D01*
X675649Y119102D01*
X675491Y119339D01*
X675270Y119543D01*
X674986Y119717D01*
X674638Y119858D01*
X674227Y119968D01*
X673752Y120047D01*
X673215Y120095D01*
X672614Y120110D01*
Y123260D01*
X673215Y123276D01*
X673752Y123323D01*
X674227Y123402D01*
X674638Y123512D01*
X674986Y123654D01*
X675270Y123827D01*
X675491Y124031D01*
X675649Y124268D01*
X675744Y124536D01*
X675776Y124835D01*
Y118535D01*
D02*
G37*
G36*
X656467Y108772D02*
X656633Y106346D01*
X656678Y106252D01*
X656728Y106220D01*
X653051D01*
X653101Y106252D01*
X653146Y106346D01*
X653186Y106504D01*
X653220Y106724D01*
X653273Y107354D01*
X653312Y108772D01*
X653315Y109370D01*
X656465D01*
X656467Y108772D01*
D02*
G37*
G36*
X674677Y103642D02*
X674654Y103771D01*
X674583Y103886D01*
X674465Y103987D01*
X674299Y104075D01*
X674087Y104150D01*
X673827Y104211D01*
X673520Y104258D01*
X673166Y104292D01*
X672315Y104319D01*
Y106681D01*
X672764Y106688D01*
X673520Y106742D01*
X673827Y106789D01*
X674087Y106850D01*
X674299Y106925D01*
X674465Y107013D01*
X674583Y107114D01*
X674654Y107229D01*
X674677Y107358D01*
Y103642D01*
D02*
G37*
G36*
X634677D02*
X634654Y103771D01*
X634583Y103886D01*
X634465Y103987D01*
X634299Y104075D01*
X634087Y104150D01*
X633827Y104211D01*
X633520Y104258D01*
X633166Y104292D01*
X632315Y104319D01*
Y106681D01*
X632764Y106688D01*
X633520Y106742D01*
X633827Y106789D01*
X634087Y106850D01*
X634299Y106925D01*
X634465Y107013D01*
X634583Y107114D01*
X634654Y107229D01*
X634677Y107358D01*
Y103642D01*
D02*
G37*
G36*
X597177D02*
X597154Y103771D01*
X597083Y103886D01*
X596965Y103987D01*
X596799Y104075D01*
X596587Y104150D01*
X596327Y104211D01*
X596020Y104258D01*
X595666Y104292D01*
X594815Y104319D01*
Y106681D01*
X595264Y106688D01*
X596020Y106742D01*
X596327Y106789D01*
X596587Y106850D01*
X596799Y106925D01*
X596965Y107013D01*
X597083Y107114D01*
X597154Y107229D01*
X597177Y107358D01*
Y103642D01*
D02*
G37*
G36*
X686480Y59018D02*
X662878D01*
X662858Y59026D01*
Y83500D01*
X686480D01*
Y59018D01*
D02*
G37*
G36*
X609201Y59701D02*
Y58999D01*
X585579D01*
Y83000D01*
X609201D01*
Y59701D01*
D02*
G37*
G36*
X646799Y58999D02*
X623264Y58999D01*
X622911Y59353D01*
X622989Y83500D01*
X646799Y83500D01*
Y58999D01*
D02*
G37*
%LPC*%
G36*
X690158Y190379D02*
X689284Y190264D01*
X688470Y189927D01*
X687771Y189391D01*
X687234Y188692D01*
X686897Y187878D01*
X686782Y187004D01*
X686897Y186130D01*
X687234Y185316D01*
X687771Y184617D01*
X688470Y184081D01*
X689284Y183744D01*
X690158Y183629D01*
X691031Y183744D01*
X691845Y184081D01*
X692544Y184617D01*
X693081Y185316D01*
X693418Y186130D01*
X693533Y187004D01*
X693418Y187878D01*
X693081Y188692D01*
X692544Y189391D01*
X691845Y189927D01*
X691031Y190264D01*
X690158Y190379D01*
D02*
G37*
G36*
X689405Y133744D02*
X685075D01*
Y128232D01*
X689405D01*
Y133744D01*
D02*
G37*
G36*
X674630Y101362D02*
X674593Y101354D01*
X673634D01*
Y100786D01*
X673588Y100775D01*
X673360Y100740D01*
X672909Y100708D01*
X672012D01*
X671167Y100540D01*
X670451Y100061D01*
X667514Y97124D01*
X667483Y97079D01*
X666697D01*
Y89402D01*
X670437D01*
Y91546D01*
X670636Y91679D01*
X671114Y92395D01*
X671283Y93240D01*
Y94648D01*
X672926Y96292D01*
X672979D01*
X673055Y96290D01*
X673348Y96262D01*
X673588Y96225D01*
X673634Y96214D01*
Y95646D01*
X674593D01*
X674630Y95638D01*
X674667Y95646D01*
X679039D01*
X679146Y95646D01*
X679539D01*
X679646Y95646D01*
X685051D01*
Y96000D01*
X685499Y96089D01*
X686345Y96655D01*
X686911Y97501D01*
X687109Y98500D01*
X686911Y99498D01*
X686345Y100345D01*
X685499Y100911D01*
X685051Y100999D01*
Y101354D01*
X679646D01*
X679539Y101354D01*
X679146D01*
X679039Y101354D01*
X674667D01*
X674630Y101362D01*
D02*
G37*
G36*
X634677D02*
X634641Y101354D01*
X633681D01*
Y100707D01*
X633609Y100687D01*
X633391Y100649D01*
X632910Y100609D01*
X631783D01*
X630939Y100441D01*
X630222Y99963D01*
X627734Y97474D01*
X627470Y97079D01*
X626917D01*
Y89402D01*
X630657D01*
Y91546D01*
X630856Y91679D01*
X631335Y92395D01*
X631503Y93240D01*
Y94999D01*
X632698Y96194D01*
X633017D01*
X633424Y96169D01*
X633663Y96137D01*
X633681Y96134D01*
Y95646D01*
X634641D01*
X634677Y95638D01*
X634714Y95646D01*
X639087D01*
X639193Y95646D01*
X639587D01*
X639693Y95646D01*
X645098D01*
Y96029D01*
X645400Y96089D01*
X646246Y96655D01*
X646812Y97501D01*
X647011Y98500D01*
X646812Y99498D01*
X646246Y100345D01*
X645400Y100911D01*
X645098Y100971D01*
Y101354D01*
X639693D01*
X639587Y101354D01*
X639193D01*
X639087Y101354D01*
X634714D01*
X634677Y101362D01*
D02*
G37*
G36*
X597177D02*
X597141Y101354D01*
X596181D01*
Y100786D01*
X596136Y100775D01*
X595907Y100740D01*
X595457Y100708D01*
X594500D01*
X593655Y100540D01*
X592939Y100061D01*
X590234Y97356D01*
X590049Y97079D01*
X589417D01*
Y89402D01*
X593157D01*
Y91546D01*
X593356Y91679D01*
X593835Y92395D01*
X594003Y93240D01*
Y94881D01*
X595414Y96292D01*
X595526D01*
X595602Y96290D01*
X595895Y96262D01*
X596136Y96225D01*
X596181Y96214D01*
Y95646D01*
X597141D01*
X597177Y95638D01*
X597214Y95646D01*
X601587D01*
X601693Y95646D01*
X602087D01*
X602193Y95646D01*
X607598D01*
Y96029D01*
X607900Y96089D01*
X608746Y96655D01*
X609312Y97501D01*
X609511Y98500D01*
X609312Y99498D01*
X608746Y100345D01*
X607900Y100911D01*
X607598Y100971D01*
Y101354D01*
X602193D01*
X602087Y101354D01*
X601693D01*
X601587Y101354D01*
X597214D01*
X597177Y101362D01*
D02*
G37*
G36*
X662760Y97079D02*
X659020D01*
Y89402D01*
X662760D01*
Y97079D01*
D02*
G37*
G36*
X622980Y97079D02*
X619240D01*
Y89402D01*
X622980D01*
Y97079D01*
D02*
G37*
G36*
X585480D02*
X581740D01*
Y89402D01*
X585480D01*
Y97079D01*
D02*
G37*
%LPD*%
G36*
X674630Y96642D02*
X674607Y96771D01*
X674536Y96886D01*
X674417Y96987D01*
X674252Y97075D01*
X674040Y97150D01*
X673780Y97211D01*
X673473Y97258D01*
X673118Y97292D01*
X672268Y97319D01*
Y99681D01*
X672717Y99688D01*
X673473Y99742D01*
X673780Y99789D01*
X674040Y99850D01*
X674252Y99925D01*
X674417Y100013D01*
X674536Y100114D01*
X674607Y100229D01*
X674630Y100358D01*
Y96642D01*
D02*
G37*
G36*
X634677D02*
X634654Y96752D01*
X634583Y96850D01*
X634465Y96937D01*
X634299Y97012D01*
X634087Y97076D01*
X633827Y97128D01*
X633520Y97168D01*
X632764Y97215D01*
X632315Y97220D01*
Y99583D01*
X632764Y99590D01*
X633520Y99652D01*
X633827Y99707D01*
X634087Y99777D01*
X634299Y99862D01*
X634465Y99963D01*
X634583Y100079D01*
X634654Y100211D01*
X634677Y100358D01*
Y96642D01*
D02*
G37*
G36*
X597177D02*
X597154Y96771D01*
X597083Y96886D01*
X596965Y96987D01*
X596799Y97075D01*
X596587Y97150D01*
X596327Y97211D01*
X596020Y97258D01*
X595666Y97292D01*
X594815Y97319D01*
Y99681D01*
X595264Y99688D01*
X596020Y99742D01*
X596327Y99789D01*
X596587Y99850D01*
X596799Y99925D01*
X596965Y100013D01*
X597083Y100114D01*
X597154Y100229D01*
X597177Y100358D01*
Y96642D01*
D02*
G37*
D11*
X591287Y243453D02*
D03*
Y237547D02*
D03*
X591000Y220547D02*
D03*
Y226453D02*
D03*
D13*
X602953Y197000D02*
D03*
X597047D02*
D03*
X602953Y204000D02*
D03*
X597047D02*
D03*
X602953Y253500D02*
D03*
X597047D02*
D03*
X602953Y260000D02*
D03*
X597047D02*
D03*
X604843Y98500D02*
D03*
X598937D02*
D03*
X604843Y105500D02*
D03*
X598937D02*
D03*
X682342D02*
D03*
X676437D02*
D03*
X682295Y98500D02*
D03*
X676390D02*
D03*
X642343Y105500D02*
D03*
X636437D02*
D03*
X642343Y98500D02*
D03*
X636437D02*
D03*
D24*
X681016Y265744D02*
X690158D01*
X634007Y305000D02*
X634201D01*
X631701Y302694D02*
X634007Y305000D01*
X631701Y298500D02*
Y302694D01*
X626842Y87433D02*
X651110D01*
X654890Y91213D01*
Y99244D01*
X609248Y87433D02*
X614224Y92409D01*
X587545Y88455D02*
X588567Y87433D01*
X609248D01*
X684173Y87433D02*
X690713Y93972D01*
X666272Y87433D02*
X684173D01*
X665705Y88000D02*
X666272Y87433D01*
X614500Y105256D02*
Y110315D01*
X605815Y119000D02*
X614500Y110315D01*
X590000Y119000D02*
X605815D01*
X690713Y93972D02*
Y121685D01*
D25*
X657145Y288145D02*
X667036D01*
X665538Y271877D02*
X665661Y272000D01*
X663914Y271877D02*
X665538D01*
X667036Y288145D02*
X667181Y288000D01*
X657000Y288289D02*
X657145Y288145D01*
X663791Y271754D02*
X663914Y271877D01*
X673500Y136894D02*
X683500D01*
X684469D01*
X673697Y131185D02*
X679760D01*
X685500Y161228D02*
Y169500D01*
X669075Y144803D02*
X685500Y161228D01*
X669075Y133425D02*
Y144803D01*
X690158Y160158D02*
Y179130D01*
X673500Y143500D02*
X690158Y160158D01*
X673500Y136894D02*
Y143500D01*
X663791Y181407D02*
X666337D01*
X669075Y133425D02*
X670823Y131677D01*
X673205D01*
X673500Y131382D01*
X687240Y141884D02*
X693372D01*
X683819Y148760D02*
X687240D01*
X679760Y144701D02*
X683819Y148760D01*
X679760Y142012D02*
Y144701D01*
X663791Y234071D02*
X664070Y234349D01*
X665661D01*
X665812Y234500D01*
X657000Y239583D02*
X658181D01*
X660448Y241849D01*
X662952D01*
X663102Y242000D01*
X663204Y181407D02*
X663791D01*
X662764Y181846D02*
X663204Y181407D01*
X666337D02*
X666488Y181256D01*
X657000Y187358D02*
X662951D01*
X664335Y188742D01*
Y191000D01*
X580000Y210626D02*
X593528Y197098D01*
X597047D01*
X604843Y105500D02*
X607087D01*
X604843Y98500D02*
X606902D01*
X642343D02*
X644402D01*
X642343Y105500D02*
X644500D01*
X682295Y98500D02*
X684500D01*
X682342Y105500D02*
X684469D01*
X690000Y195035D02*
X690158Y194878D01*
X689518Y202752D02*
X690158D01*
X591795Y107996D02*
Y110760D01*
Y107996D02*
X594291Y105500D01*
X598937D01*
X591795Y93240D02*
Y95795D01*
X594500Y98500D01*
X598937D01*
X631783Y98402D02*
X636437D01*
X629295Y93240D02*
Y95913D01*
X631783Y98402D01*
X636437D02*
Y98500D01*
X629295Y108437D02*
Y110760D01*
Y108437D02*
X632232Y105500D01*
X636437D01*
X669075Y93240D02*
Y95563D01*
X672012Y98500D01*
X676390D01*
X669075Y108437D02*
Y110760D01*
Y108437D02*
X672012Y105500D01*
X676437D01*
X693370Y136244D02*
X693500D01*
X685118D02*
X693370D01*
X693075Y135949D02*
X693370Y136244D01*
X693075Y124047D02*
Y135949D01*
X690713Y121685D02*
X693075Y124047D01*
X679760Y122150D02*
Y130988D01*
X679295Y121685D02*
X679760Y122150D01*
X673500Y131382D02*
X673697Y131185D01*
X679760Y130988D02*
Y131185D01*
X687240Y141884D02*
Y142012D01*
X693372Y141884D02*
X693500Y141756D01*
X683500Y137862D02*
X684469Y136894D01*
X685118Y136244D01*
X683500Y137862D02*
Y142012D01*
X687240D02*
Y148760D01*
X615654Y263264D02*
Y272709D01*
X606579Y254189D02*
X615654Y263264D01*
X603543Y254189D02*
X606579D01*
X602953Y253598D02*
X603543Y254189D01*
X602953Y253500D02*
Y253598D01*
X610142Y267287D02*
Y279500D01*
X602953Y260098D02*
X610142Y267287D01*
X602953Y260000D02*
Y260098D01*
X609642Y228500D02*
Y241858D01*
X605000Y246500D02*
X609642Y241858D01*
X594433Y246500D02*
X605000D01*
X591386Y243453D02*
X594433Y246500D01*
X591287Y243453D02*
X591386D01*
X591189Y237547D02*
X591287D01*
X587890Y234248D02*
X591189Y237547D01*
X580000Y234248D02*
X587890D01*
X614992Y221547D02*
X615154Y221709D01*
X614992Y216492D02*
Y221547D01*
X609500Y211000D02*
X614992Y216492D01*
X594453Y211000D02*
X609500D01*
X591000Y214453D02*
X594453Y211000D01*
X591000Y214453D02*
Y220547D01*
X590961Y226413D02*
X591000Y226453D01*
X580039Y226413D02*
X590961D01*
X580000Y226374D02*
X580039Y226413D01*
X609055Y168945D02*
X615476D01*
X605709Y172291D02*
X609055Y168945D01*
X605709Y172291D02*
Y194146D01*
X602953Y196902D02*
X605709Y194146D01*
X602953Y196902D02*
Y197000D01*
X594402Y204098D02*
X597047D01*
X580000Y218500D02*
X594402Y204098D01*
X608189Y203311D02*
X609965Y201535D01*
Y175736D02*
Y201535D01*
X603543Y203311D02*
X608189D01*
X602953Y203902D02*
X603543Y203311D01*
X602953Y203902D02*
Y204000D01*
X597047Y197000D02*
Y197098D01*
Y204000D02*
Y204098D01*
X591378Y253500D02*
X597047D01*
X580000Y242122D02*
X591378Y253500D01*
X580000Y249996D02*
X589315Y259311D01*
X596457D01*
X597047Y259902D01*
Y260000D01*
D26*
X690158Y179130D02*
D03*
Y187004D02*
D03*
Y194878D02*
D03*
Y202752D02*
D03*
Y210626D02*
D03*
Y218500D02*
D03*
Y226374D02*
D03*
Y234248D02*
D03*
Y242122D02*
D03*
Y249996D02*
D03*
Y257870D02*
D03*
X580000Y179130D02*
D03*
Y187004D02*
D03*
Y194878D02*
D03*
Y202752D02*
D03*
Y210626D02*
D03*
Y218500D02*
D03*
Y226374D02*
D03*
Y234248D02*
D03*
Y242122D02*
D03*
Y249996D02*
D03*
Y257870D02*
D03*
D27*
X690158Y265744D02*
D03*
X580000D02*
D03*
D28*
X685038Y77953D02*
D03*
Y75590D02*
D03*
Y73228D02*
D03*
Y70866D02*
D03*
Y68504D02*
D03*
Y66142D02*
D03*
Y63779D02*
D03*
Y61417D02*
D03*
X682676Y77953D02*
D03*
Y75590D02*
D03*
Y73228D02*
D03*
Y70866D02*
D03*
Y68504D02*
D03*
Y66142D02*
D03*
Y63779D02*
D03*
Y61417D02*
D03*
X680314Y77953D02*
D03*
Y75590D02*
D03*
Y73228D02*
D03*
Y70866D02*
D03*
Y68504D02*
D03*
Y66142D02*
D03*
Y63779D02*
D03*
Y61417D02*
D03*
X677951Y77953D02*
D03*
Y75590D02*
D03*
Y73228D02*
D03*
Y70866D02*
D03*
Y68504D02*
D03*
Y66142D02*
D03*
Y63779D02*
D03*
Y61417D02*
D03*
X675589Y77953D02*
D03*
Y75590D02*
D03*
Y73228D02*
D03*
Y70866D02*
D03*
Y68504D02*
D03*
Y66142D02*
D03*
Y63779D02*
D03*
Y61417D02*
D03*
X673227Y77953D02*
D03*
Y75590D02*
D03*
Y73228D02*
D03*
Y70866D02*
D03*
Y68504D02*
D03*
Y66142D02*
D03*
Y63779D02*
D03*
Y61417D02*
D03*
X670865Y77953D02*
D03*
Y75590D02*
D03*
Y73228D02*
D03*
Y70866D02*
D03*
Y68504D02*
D03*
Y66142D02*
D03*
Y63779D02*
D03*
Y61417D02*
D03*
X668503Y77953D02*
D03*
Y75590D02*
D03*
Y73228D02*
D03*
Y70866D02*
D03*
Y68504D02*
D03*
Y66142D02*
D03*
Y63779D02*
D03*
Y61417D02*
D03*
X666140Y77953D02*
D03*
Y75590D02*
D03*
Y73228D02*
D03*
Y70866D02*
D03*
Y68504D02*
D03*
Y66142D02*
D03*
Y63779D02*
D03*
Y61417D02*
D03*
X663778Y77953D02*
D03*
Y75590D02*
D03*
Y73228D02*
D03*
Y70866D02*
D03*
Y68504D02*
D03*
Y66142D02*
D03*
Y63779D02*
D03*
Y61417D02*
D03*
X644881Y77953D02*
D03*
Y75590D02*
D03*
Y73228D02*
D03*
Y70866D02*
D03*
Y68504D02*
D03*
Y66142D02*
D03*
Y63779D02*
D03*
Y61417D02*
D03*
X642518Y77953D02*
D03*
Y75590D02*
D03*
Y73228D02*
D03*
Y70866D02*
D03*
Y68504D02*
D03*
Y66142D02*
D03*
Y63779D02*
D03*
Y61417D02*
D03*
X640156Y77953D02*
D03*
Y75590D02*
D03*
Y73228D02*
D03*
Y70866D02*
D03*
Y68504D02*
D03*
Y66142D02*
D03*
Y63779D02*
D03*
Y61417D02*
D03*
X637794Y77953D02*
D03*
Y75590D02*
D03*
Y73228D02*
D03*
Y70866D02*
D03*
Y68504D02*
D03*
Y66142D02*
D03*
Y63779D02*
D03*
Y61417D02*
D03*
X635432Y77953D02*
D03*
Y75590D02*
D03*
Y73228D02*
D03*
Y70866D02*
D03*
Y68504D02*
D03*
Y66142D02*
D03*
Y63779D02*
D03*
Y61417D02*
D03*
X633070Y77953D02*
D03*
Y75590D02*
D03*
Y73228D02*
D03*
Y70866D02*
D03*
Y68504D02*
D03*
Y66142D02*
D03*
Y63779D02*
D03*
Y61417D02*
D03*
X630707Y77953D02*
D03*
Y75590D02*
D03*
Y73228D02*
D03*
Y70866D02*
D03*
Y68504D02*
D03*
Y66142D02*
D03*
Y63779D02*
D03*
Y61417D02*
D03*
X628345Y77953D02*
D03*
Y75590D02*
D03*
Y73228D02*
D03*
Y70866D02*
D03*
Y68504D02*
D03*
Y66142D02*
D03*
Y63779D02*
D03*
Y61417D02*
D03*
X625983Y77953D02*
D03*
Y75590D02*
D03*
Y73228D02*
D03*
Y70866D02*
D03*
Y68504D02*
D03*
Y66142D02*
D03*
Y63779D02*
D03*
Y61417D02*
D03*
X607085Y77953D02*
D03*
Y75590D02*
D03*
Y73228D02*
D03*
Y70866D02*
D03*
Y68504D02*
D03*
Y66142D02*
D03*
Y63779D02*
D03*
Y61417D02*
D03*
X604723Y77953D02*
D03*
Y75590D02*
D03*
Y73228D02*
D03*
Y70866D02*
D03*
Y68504D02*
D03*
Y66142D02*
D03*
Y63779D02*
D03*
Y61417D02*
D03*
X602361Y77953D02*
D03*
Y75590D02*
D03*
Y73228D02*
D03*
Y70866D02*
D03*
Y68504D02*
D03*
Y66142D02*
D03*
Y63779D02*
D03*
Y61417D02*
D03*
X599999Y77953D02*
D03*
Y75590D02*
D03*
Y73228D02*
D03*
Y70866D02*
D03*
Y68504D02*
D03*
Y66142D02*
D03*
Y63779D02*
D03*
Y61417D02*
D03*
X597637Y77953D02*
D03*
Y75590D02*
D03*
Y73228D02*
D03*
Y70866D02*
D03*
Y68504D02*
D03*
Y66142D02*
D03*
Y63779D02*
D03*
Y61417D02*
D03*
X595274Y77953D02*
D03*
Y75590D02*
D03*
Y73228D02*
D03*
Y70866D02*
D03*
Y68504D02*
D03*
Y66142D02*
D03*
Y63779D02*
D03*
Y61417D02*
D03*
X592912Y77953D02*
D03*
Y75590D02*
D03*
Y73228D02*
D03*
Y70866D02*
D03*
Y68504D02*
D03*
Y66142D02*
D03*
Y63779D02*
D03*
Y61417D02*
D03*
X590550Y77953D02*
D03*
Y75590D02*
D03*
Y73228D02*
D03*
Y70866D02*
D03*
Y68504D02*
D03*
Y66142D02*
D03*
Y63779D02*
D03*
Y61417D02*
D03*
X588188Y77953D02*
D03*
Y75590D02*
D03*
Y73228D02*
D03*
Y70866D02*
D03*
Y68504D02*
D03*
Y66142D02*
D03*
Y63779D02*
D03*
Y61417D02*
D03*
X649615Y170000D02*
D03*
X651977D02*
D03*
X654340D02*
D03*
X656702D02*
D03*
X659064D02*
D03*
X661426D02*
D03*
X663788D02*
D03*
X649605Y172500D02*
D03*
X651967D02*
D03*
X654329D02*
D03*
X656692D02*
D03*
X659054D02*
D03*
X661416D02*
D03*
X663778D02*
D03*
X649500Y183500D02*
D03*
X651862D02*
D03*
X654224D02*
D03*
X656587D02*
D03*
X658949D02*
D03*
X661311D02*
D03*
X663673D02*
D03*
X649500Y181407D02*
D03*
X651862D02*
D03*
X654224D02*
D03*
X656587D02*
D03*
X658949D02*
D03*
X661311D02*
D03*
X663673D02*
D03*
X649500Y179500D02*
D03*
X651862D02*
D03*
X654224D02*
D03*
X656587D02*
D03*
X658949D02*
D03*
X661311D02*
D03*
X663673D02*
D03*
X663778Y177165D02*
D03*
Y174803D02*
D03*
X661416Y177165D02*
D03*
Y174803D02*
D03*
X659054Y177165D02*
D03*
Y174803D02*
D03*
X656692Y177165D02*
D03*
Y174803D02*
D03*
X654329Y177165D02*
D03*
Y174803D02*
D03*
X651967Y177165D02*
D03*
Y174803D02*
D03*
X649605Y177165D02*
D03*
Y174803D02*
D03*
X653992Y233858D02*
D03*
X656354D02*
D03*
X660974D02*
D03*
X658611D02*
D03*
X654329Y231496D02*
D03*
X656692D02*
D03*
X661311D02*
D03*
X658949D02*
D03*
X649500D02*
D03*
Y233858D02*
D03*
X651862Y231496D02*
D03*
Y233858D02*
D03*
X659054Y222138D02*
D03*
Y224500D02*
D03*
X661416Y222138D02*
D03*
Y224500D02*
D03*
X654329Y222047D02*
D03*
Y224409D02*
D03*
X656692Y222047D02*
D03*
Y224409D02*
D03*
X649615Y222047D02*
D03*
Y224409D02*
D03*
X651977Y222047D02*
D03*
Y224409D02*
D03*
X663778Y229133D02*
D03*
Y226771D02*
D03*
X661416Y229133D02*
D03*
Y226771D02*
D03*
X659054Y229133D02*
D03*
Y226771D02*
D03*
X656692Y229133D02*
D03*
Y226771D02*
D03*
X654329Y229133D02*
D03*
Y226771D02*
D03*
X651967Y229133D02*
D03*
Y226771D02*
D03*
X649605Y229133D02*
D03*
Y226771D02*
D03*
X647243Y233858D02*
D03*
Y231496D02*
D03*
Y229133D02*
D03*
Y226771D02*
D03*
Y224409D02*
D03*
Y222047D02*
D03*
X644881Y233858D02*
D03*
Y231496D02*
D03*
Y229133D02*
D03*
Y226771D02*
D03*
Y224409D02*
D03*
Y222047D02*
D03*
Y219685D02*
D03*
X658500Y271616D02*
D03*
X653808Y271732D02*
D03*
X658793Y273993D02*
D03*
X661079Y271616D02*
D03*
Y273978D02*
D03*
X656354Y271616D02*
D03*
Y273978D02*
D03*
X651677Y280963D02*
D03*
Y283325D02*
D03*
X653992Y280963D02*
D03*
Y283325D02*
D03*
X656354Y280963D02*
D03*
Y283325D02*
D03*
X658716Y281065D02*
D03*
Y283427D02*
D03*
X661079Y280963D02*
D03*
Y283325D02*
D03*
X663441Y280963D02*
D03*
Y283325D02*
D03*
X647072Y283515D02*
D03*
X651659Y271769D02*
D03*
X651829Y274030D02*
D03*
X663441Y278703D02*
D03*
Y276341D02*
D03*
X661079Y278703D02*
D03*
Y276341D02*
D03*
X658716Y278703D02*
D03*
Y276341D02*
D03*
X656354Y278703D02*
D03*
Y276341D02*
D03*
X653992Y278703D02*
D03*
Y276341D02*
D03*
X651630Y278703D02*
D03*
Y276341D02*
D03*
X649268Y278703D02*
D03*
Y276341D02*
D03*
X646906Y281065D02*
D03*
Y278703D02*
D03*
Y276341D02*
D03*
Y273978D02*
D03*
Y271616D02*
D03*
X644543Y281065D02*
D03*
Y278703D02*
D03*
Y276341D02*
D03*
Y273978D02*
D03*
Y271616D02*
D03*
X654329Y274015D02*
D03*
X649500Y271754D02*
D03*
X649268Y274030D02*
D03*
Y281000D02*
D03*
Y283362D02*
D03*
X645000Y283464D02*
D03*
X656692Y333070D02*
D03*
Y328346D02*
D03*
X655511Y335432D02*
D03*
X654329Y333070D02*
D03*
X655511Y330708D02*
D03*
X654329Y328346D02*
D03*
X655511Y325984D02*
D03*
X653148Y335432D02*
D03*
X651967Y333070D02*
D03*
X653148Y330708D02*
D03*
X651967Y328346D02*
D03*
X653148Y325984D02*
D03*
X650786Y335432D02*
D03*
X649605Y333070D02*
D03*
X650786Y330708D02*
D03*
X649605Y328346D02*
D03*
X650786Y325984D02*
D03*
X648424Y335432D02*
D03*
X647243Y333070D02*
D03*
X648424Y330708D02*
D03*
X647243Y328346D02*
D03*
X648424Y325984D02*
D03*
X646062Y335432D02*
D03*
X644881Y333070D02*
D03*
X646062Y330708D02*
D03*
X644881Y328346D02*
D03*
X646062Y325984D02*
D03*
X643700Y335432D02*
D03*
X642518Y333070D02*
D03*
X643700Y330708D02*
D03*
X642518Y328346D02*
D03*
X643700Y325984D02*
D03*
X641337Y335432D02*
D03*
Y330708D02*
D03*
Y325984D02*
D03*
X603542Y335432D02*
D03*
X602361Y333070D02*
D03*
X603542Y330708D02*
D03*
X602361Y328346D02*
D03*
X603542Y325984D02*
D03*
X602361Y323621D02*
D03*
X603542Y321259D02*
D03*
X602361Y318897D02*
D03*
X603542Y316535D02*
D03*
X602361Y314173D02*
D03*
X603542Y311810D02*
D03*
X602361Y309448D02*
D03*
X603542Y307086D02*
D03*
X602361Y304724D02*
D03*
X603542Y302362D02*
D03*
X602361Y299999D02*
D03*
X601180Y335432D02*
D03*
X599999Y333070D02*
D03*
X601180Y330708D02*
D03*
X599999Y328346D02*
D03*
X601180Y325984D02*
D03*
X599999Y323621D02*
D03*
X601180Y321259D02*
D03*
X599999Y318897D02*
D03*
X601180Y316535D02*
D03*
X599999Y314173D02*
D03*
X601180Y311810D02*
D03*
X599999Y309448D02*
D03*
X601180Y307086D02*
D03*
X599999Y304724D02*
D03*
X601180Y302362D02*
D03*
X599999Y299999D02*
D03*
X598818Y335432D02*
D03*
X597637Y333070D02*
D03*
X598818Y330708D02*
D03*
X597637Y328346D02*
D03*
X598818Y325984D02*
D03*
X597637Y323621D02*
D03*
X598818Y321259D02*
D03*
X597637Y318897D02*
D03*
X598818Y316535D02*
D03*
X597637Y314173D02*
D03*
X598818Y311810D02*
D03*
X597637Y309448D02*
D03*
X598818Y307086D02*
D03*
X597637Y304724D02*
D03*
X598818Y302362D02*
D03*
X597637Y299999D02*
D03*
X596455Y335432D02*
D03*
X595274Y333070D02*
D03*
X596455Y330708D02*
D03*
X595274Y328346D02*
D03*
X596455Y325984D02*
D03*
X595274Y323621D02*
D03*
X596455Y321259D02*
D03*
X595274Y318897D02*
D03*
X596455Y316535D02*
D03*
X595274Y314173D02*
D03*
X596455Y311810D02*
D03*
X595274Y309448D02*
D03*
X596455Y307086D02*
D03*
X595274Y304724D02*
D03*
X596455Y302362D02*
D03*
X595274Y299999D02*
D03*
X594093Y335432D02*
D03*
X592912Y333070D02*
D03*
X594093Y330708D02*
D03*
X592912Y328346D02*
D03*
X594093Y325984D02*
D03*
X592912Y323621D02*
D03*
X594093Y321259D02*
D03*
X592912Y318897D02*
D03*
X594093Y316535D02*
D03*
X592912Y314173D02*
D03*
X594093Y311810D02*
D03*
X592912Y309448D02*
D03*
X594093Y307086D02*
D03*
X592912Y304724D02*
D03*
X594093Y302362D02*
D03*
X592912Y299999D02*
D03*
X591731Y335432D02*
D03*
X590550Y333070D02*
D03*
X591731Y330708D02*
D03*
X590550Y328346D02*
D03*
X591731Y325984D02*
D03*
X590550Y323621D02*
D03*
X591731Y321259D02*
D03*
X590550Y318897D02*
D03*
X591731Y316535D02*
D03*
X590550Y314173D02*
D03*
X591731Y311810D02*
D03*
X590550Y309448D02*
D03*
X591731Y307086D02*
D03*
X590550Y304724D02*
D03*
X591731Y302362D02*
D03*
X590550Y299999D02*
D03*
X589369Y335432D02*
D03*
X588188Y333070D02*
D03*
X589369Y330708D02*
D03*
X588188Y328346D02*
D03*
X589369Y325984D02*
D03*
X588188Y323621D02*
D03*
X589369Y321259D02*
D03*
X588188Y318897D02*
D03*
X589369Y316535D02*
D03*
X588188Y314173D02*
D03*
X589369Y311810D02*
D03*
X588188Y309448D02*
D03*
X589369Y307086D02*
D03*
X588188Y304724D02*
D03*
X589369Y302362D02*
D03*
X588188Y299999D02*
D03*
X587007Y335432D02*
D03*
X585826Y333070D02*
D03*
X587007Y330708D02*
D03*
X585826Y328346D02*
D03*
X587007Y325984D02*
D03*
X585826Y323621D02*
D03*
X587007Y321259D02*
D03*
X585826Y318897D02*
D03*
X587007Y316535D02*
D03*
X585826Y314173D02*
D03*
X587007Y311810D02*
D03*
X585826Y309448D02*
D03*
X587007Y307086D02*
D03*
X585826Y304724D02*
D03*
X587007Y302362D02*
D03*
X585826Y299999D02*
D03*
X584645Y335432D02*
D03*
Y330708D02*
D03*
Y325984D02*
D03*
Y321259D02*
D03*
X583463Y318897D02*
D03*
X584645Y316535D02*
D03*
X583463Y314173D02*
D03*
X584645Y311810D02*
D03*
X583463Y309448D02*
D03*
X584645Y307086D02*
D03*
X583463Y304724D02*
D03*
X584645Y302362D02*
D03*
X583463Y299999D02*
D03*
X581101Y318897D02*
D03*
X582282Y316535D02*
D03*
X581101Y314173D02*
D03*
X582282Y311810D02*
D03*
X581101Y309448D02*
D03*
X582282Y307086D02*
D03*
X581101Y304724D02*
D03*
X582282Y302362D02*
D03*
X581101Y299999D02*
D03*
X578739Y318897D02*
D03*
X579920Y316535D02*
D03*
X578739Y314173D02*
D03*
X579920Y311810D02*
D03*
X578739Y309448D02*
D03*
X579920Y307086D02*
D03*
X578739Y304724D02*
D03*
X579920Y302362D02*
D03*
X578739Y299999D02*
D03*
X576377Y318897D02*
D03*
X577558Y316535D02*
D03*
X576377Y314173D02*
D03*
X577558Y311810D02*
D03*
X576377Y309448D02*
D03*
X577558Y307086D02*
D03*
X576377Y304724D02*
D03*
X577558Y302362D02*
D03*
X576377Y299999D02*
D03*
X574015Y318897D02*
D03*
X575196Y316535D02*
D03*
X574015Y314173D02*
D03*
X575196Y311810D02*
D03*
X574015Y309448D02*
D03*
X575196Y307086D02*
D03*
X574015Y304724D02*
D03*
X575196Y302362D02*
D03*
X574015Y299999D02*
D03*
X696802Y318897D02*
D03*
X697983Y316535D02*
D03*
X696802Y314173D02*
D03*
X697983Y311810D02*
D03*
X696802Y309448D02*
D03*
X697983Y307086D02*
D03*
X696802Y304724D02*
D03*
X697983Y302362D02*
D03*
X696802Y299999D02*
D03*
X694439Y318897D02*
D03*
X695620Y316535D02*
D03*
X694439Y314173D02*
D03*
X695620Y311810D02*
D03*
X694439Y309448D02*
D03*
X695620Y307086D02*
D03*
X694439Y304724D02*
D03*
X695620Y302362D02*
D03*
X694439Y299999D02*
D03*
X692077Y318897D02*
D03*
X693258Y316535D02*
D03*
X692077Y314173D02*
D03*
X693258Y311810D02*
D03*
X692077Y309448D02*
D03*
X693258Y307086D02*
D03*
X692077Y304724D02*
D03*
X693258Y302362D02*
D03*
X692077Y299999D02*
D03*
X689715Y318897D02*
D03*
X690896Y316535D02*
D03*
X689715Y314173D02*
D03*
X690896Y311810D02*
D03*
X689715Y309448D02*
D03*
X690896Y307086D02*
D03*
X689715Y304724D02*
D03*
X690896Y302362D02*
D03*
X689715Y299999D02*
D03*
X687353Y318897D02*
D03*
X688534Y316535D02*
D03*
X687353Y314173D02*
D03*
X688534Y311810D02*
D03*
X687353Y309448D02*
D03*
X688534Y307086D02*
D03*
X687353Y304724D02*
D03*
X688534Y302362D02*
D03*
X687353Y299999D02*
D03*
X684991Y318897D02*
D03*
X686172Y316535D02*
D03*
X684991Y314173D02*
D03*
X686172Y311810D02*
D03*
X684991Y309448D02*
D03*
X686172Y307086D02*
D03*
X684991Y304724D02*
D03*
X686172Y302362D02*
D03*
X684991Y299999D02*
D03*
X682628Y318897D02*
D03*
X683810Y316535D02*
D03*
X682628Y314173D02*
D03*
X683810Y311810D02*
D03*
X682628Y309448D02*
D03*
X683810Y307086D02*
D03*
X682628Y304724D02*
D03*
X683810Y302362D02*
D03*
X682628Y299999D02*
D03*
X680266Y318897D02*
D03*
X681447Y316535D02*
D03*
X680266Y314173D02*
D03*
X681447Y311810D02*
D03*
X680266Y309448D02*
D03*
X681447Y307086D02*
D03*
X680266Y304724D02*
D03*
X681447Y302362D02*
D03*
X680266Y299999D02*
D03*
X677904Y318897D02*
D03*
X679085Y316535D02*
D03*
X677904Y314173D02*
D03*
X679085Y311810D02*
D03*
X677904Y309448D02*
D03*
X679085Y307086D02*
D03*
X677904Y304724D02*
D03*
X679085Y302362D02*
D03*
X677904Y299999D02*
D03*
X675542Y318897D02*
D03*
X676723Y316535D02*
D03*
X675542Y314173D02*
D03*
X676723Y311810D02*
D03*
X675542Y309448D02*
D03*
X676723Y307086D02*
D03*
X675542Y304724D02*
D03*
X676723Y302362D02*
D03*
X674361Y335432D02*
D03*
X673180Y333070D02*
D03*
X674361Y330708D02*
D03*
X673180Y328346D02*
D03*
X674361Y325984D02*
D03*
X673180Y318897D02*
D03*
X674361Y316535D02*
D03*
X673180Y314173D02*
D03*
X674361Y311810D02*
D03*
X673180Y309448D02*
D03*
X674361Y307086D02*
D03*
X673180Y304724D02*
D03*
X671999Y335432D02*
D03*
X670817Y333070D02*
D03*
X671999Y330708D02*
D03*
X670817Y328346D02*
D03*
X671999Y325984D02*
D03*
X670817Y318897D02*
D03*
X671999Y316535D02*
D03*
X670817Y314173D02*
D03*
X671999Y311810D02*
D03*
X670817Y309448D02*
D03*
X671999Y307086D02*
D03*
X669636Y335432D02*
D03*
X668455Y333070D02*
D03*
X669636Y330708D02*
D03*
X668455Y328346D02*
D03*
X669636Y325984D02*
D03*
X668455Y318897D02*
D03*
X669636Y316535D02*
D03*
X668455Y314173D02*
D03*
X669636Y311810D02*
D03*
X668455Y309448D02*
D03*
X669636Y307086D02*
D03*
X667274Y335432D02*
D03*
Y330708D02*
D03*
Y325984D02*
D03*
X666093Y318897D02*
D03*
X667274Y316535D02*
D03*
X666093Y314173D02*
D03*
X667274Y311810D02*
D03*
X666093Y309448D02*
D03*
X667274Y307086D02*
D03*
X663731Y318897D02*
D03*
X664912Y316535D02*
D03*
X663731Y314173D02*
D03*
X664912Y311810D02*
D03*
X663731Y309448D02*
D03*
X664912Y307086D02*
D03*
X662550Y316535D02*
D03*
X661369Y314173D02*
D03*
X662550Y311810D02*
D03*
X661369Y309448D02*
D03*
X662550Y307086D02*
D03*
X660187Y316535D02*
D03*
X659006Y314173D02*
D03*
X660187Y311810D02*
D03*
X659006Y309448D02*
D03*
X660187Y307086D02*
D03*
X657825Y316535D02*
D03*
X656644Y314173D02*
D03*
X657825Y311810D02*
D03*
X656644Y309448D02*
D03*
X657825Y307086D02*
D03*
X655463Y316535D02*
D03*
Y311810D02*
D03*
X654282Y309448D02*
D03*
X655463Y307086D02*
D03*
X620030Y335432D02*
D03*
X618849Y333070D02*
D03*
X620030Y330708D02*
D03*
X618849Y328346D02*
D03*
X620030Y325984D02*
D03*
X617668Y335432D02*
D03*
X616487Y333070D02*
D03*
X617668Y330708D02*
D03*
X616487Y328346D02*
D03*
X617668Y325984D02*
D03*
X614890Y335500D02*
D03*
X696849Y318897D02*
D03*
X698030Y316535D02*
D03*
X696849Y314173D02*
D03*
X698030Y311810D02*
D03*
X696849Y309448D02*
D03*
X698030Y307086D02*
D03*
X696849Y304724D02*
D03*
X698030Y302362D02*
D03*
X696849Y299999D02*
D03*
X694487Y318897D02*
D03*
X695668Y316535D02*
D03*
X694487Y314173D02*
D03*
X695668Y311810D02*
D03*
X694487Y309448D02*
D03*
X695668Y307086D02*
D03*
X694487Y304724D02*
D03*
X695668Y302362D02*
D03*
X694487Y299999D02*
D03*
X692125Y318897D02*
D03*
X693306Y316535D02*
D03*
X692125Y314173D02*
D03*
X693306Y311810D02*
D03*
X692125Y309448D02*
D03*
X693306Y307086D02*
D03*
X692125Y304724D02*
D03*
X693306Y302362D02*
D03*
X692125Y299999D02*
D03*
X689762Y318897D02*
D03*
X690943Y316535D02*
D03*
X689762Y314173D02*
D03*
X690943Y311810D02*
D03*
X689762Y309448D02*
D03*
X690943Y307086D02*
D03*
X689762Y304724D02*
D03*
X690943Y302362D02*
D03*
X689762Y299999D02*
D03*
X687400Y318897D02*
D03*
X688581Y316535D02*
D03*
X687400Y314173D02*
D03*
X688581Y311810D02*
D03*
X687400Y309448D02*
D03*
X688581Y307086D02*
D03*
X687400Y304724D02*
D03*
X688581Y302362D02*
D03*
X687400Y299999D02*
D03*
X685038Y318897D02*
D03*
X686219Y316535D02*
D03*
X685038Y314173D02*
D03*
X686219Y311810D02*
D03*
X685038Y309448D02*
D03*
X686219Y307086D02*
D03*
X685038Y304724D02*
D03*
X686219Y302362D02*
D03*
X685038Y299999D02*
D03*
X682676Y318897D02*
D03*
X683857Y316535D02*
D03*
X682676Y314173D02*
D03*
X683857Y311810D02*
D03*
X682676Y309448D02*
D03*
X683857Y307086D02*
D03*
X682676Y304724D02*
D03*
X683857Y302362D02*
D03*
X682676Y299999D02*
D03*
X680314Y318897D02*
D03*
X681495Y316535D02*
D03*
X680314Y314173D02*
D03*
X681495Y311810D02*
D03*
X680314Y309448D02*
D03*
X681495Y307086D02*
D03*
X680314Y304724D02*
D03*
X681495Y302362D02*
D03*
X680314Y299999D02*
D03*
X677951Y318897D02*
D03*
X679133Y316535D02*
D03*
X677951Y314173D02*
D03*
X679133Y311810D02*
D03*
X677951Y309448D02*
D03*
X679133Y307086D02*
D03*
X677951Y304724D02*
D03*
X679133Y302362D02*
D03*
X677951Y299999D02*
D03*
X675589Y318897D02*
D03*
X676770Y316535D02*
D03*
X675589Y314173D02*
D03*
X676770Y311810D02*
D03*
X675589Y309448D02*
D03*
X676770Y307086D02*
D03*
X675589Y304724D02*
D03*
X676770Y302362D02*
D03*
X674408Y335432D02*
D03*
X673227Y333070D02*
D03*
X674408Y330708D02*
D03*
X673227Y328346D02*
D03*
X674408Y325984D02*
D03*
X673227Y318897D02*
D03*
X674408Y316535D02*
D03*
X673227Y314173D02*
D03*
X674408Y311810D02*
D03*
X673227Y309448D02*
D03*
X674408Y307086D02*
D03*
X673227Y304724D02*
D03*
X672046Y335432D02*
D03*
X670865Y333070D02*
D03*
X672046Y330708D02*
D03*
X670865Y328346D02*
D03*
X672046Y325984D02*
D03*
X670865Y318897D02*
D03*
X672046Y316535D02*
D03*
X670865Y314173D02*
D03*
X672046Y311810D02*
D03*
X670865Y309448D02*
D03*
X672046Y307086D02*
D03*
X670865Y304724D02*
D03*
X669684Y335432D02*
D03*
X668503Y333070D02*
D03*
X669684Y330708D02*
D03*
X668503Y328346D02*
D03*
X669684Y325984D02*
D03*
X668503Y318897D02*
D03*
X669684Y316535D02*
D03*
X668503Y314173D02*
D03*
X669684Y311810D02*
D03*
X668503Y309448D02*
D03*
X669684Y307086D02*
D03*
X668503Y304724D02*
D03*
X667321Y335432D02*
D03*
Y330708D02*
D03*
Y325984D02*
D03*
X666140Y318897D02*
D03*
X667321Y316535D02*
D03*
X666140Y314173D02*
D03*
X667321Y311810D02*
D03*
X666140Y309448D02*
D03*
X667321Y307086D02*
D03*
X666140Y304724D02*
D03*
X663778Y318897D02*
D03*
X664959Y316535D02*
D03*
X663778Y314173D02*
D03*
X664959Y311810D02*
D03*
X663778Y309448D02*
D03*
X664959Y307086D02*
D03*
X663778Y304724D02*
D03*
X661416Y318897D02*
D03*
X662597Y316535D02*
D03*
X661416Y314173D02*
D03*
X662597Y311810D02*
D03*
X661416Y309448D02*
D03*
X662597Y307086D02*
D03*
X661416Y304724D02*
D03*
X660235Y316535D02*
D03*
X659054Y314173D02*
D03*
X660235Y311810D02*
D03*
X659054Y309448D02*
D03*
X660235Y307086D02*
D03*
X659054Y304724D02*
D03*
X657873Y316535D02*
D03*
X656692Y314173D02*
D03*
X657873Y311810D02*
D03*
X656692Y309448D02*
D03*
X657873Y307086D02*
D03*
X656692Y304724D02*
D03*
X655511Y316535D02*
D03*
Y311810D02*
D03*
X654329Y309448D02*
D03*
X655511Y307086D02*
D03*
X654329Y304724D02*
D03*
D29*
X665661Y272000D02*
D03*
X667181Y288000D02*
D03*
X631701Y298500D02*
D03*
X685500Y169500D02*
D03*
X665812Y234500D02*
D03*
X663102Y242000D02*
D03*
X666488Y181256D02*
D03*
X664335Y191000D02*
D03*
X607087Y105500D02*
D03*
X606902Y98500D02*
D03*
X644402D02*
D03*
X644500Y105500D02*
D03*
X684500Y98500D02*
D03*
X684469Y105500D02*
D03*
X687240Y148760D02*
D03*
D30*
X650209Y282778D02*
D03*
X654736D02*
D03*
X659264D02*
D03*
X663791D02*
D03*
X650209Y271754D02*
D03*
X654736D02*
D03*
X659264D02*
D03*
X663791D02*
D03*
X650209Y181846D02*
D03*
X654736D02*
D03*
X659264D02*
D03*
X663791D02*
D03*
X650209Y170823D02*
D03*
X654736D02*
D03*
X659264D02*
D03*
X663791D02*
D03*
Y223047D02*
D03*
X659264D02*
D03*
X654736D02*
D03*
X650209D02*
D03*
X663791Y234071D02*
D03*
X659264D02*
D03*
X654736D02*
D03*
X650209D02*
D03*
D31*
X657000Y288289D02*
D03*
Y187358D02*
D03*
Y239583D02*
D03*
D32*
X648339Y261715D02*
D03*
X657000D02*
D03*
X665661D02*
D03*
X648339Y297148D02*
D03*
X657000D02*
D03*
X665661D02*
D03*
X648339Y160784D02*
D03*
X657000D02*
D03*
X665661D02*
D03*
X648339Y196216D02*
D03*
X657000D02*
D03*
X665661D02*
D03*
Y248441D02*
D03*
X657000D02*
D03*
X648339D02*
D03*
X665661Y213008D02*
D03*
X657000D02*
D03*
X648339D02*
D03*
D33*
X615154Y168945D02*
D03*
Y173472D02*
D03*
Y178000D02*
D03*
Y182528D02*
D03*
X626177Y168945D02*
D03*
Y173472D02*
D03*
Y178000D02*
D03*
Y182528D02*
D03*
X626677Y286291D02*
D03*
Y281764D02*
D03*
Y277236D02*
D03*
Y272709D02*
D03*
X615654Y286291D02*
D03*
Y281764D02*
D03*
Y277236D02*
D03*
Y272709D02*
D03*
X626177Y235291D02*
D03*
Y230764D02*
D03*
Y226236D02*
D03*
Y221709D02*
D03*
X615154Y235291D02*
D03*
Y230764D02*
D03*
Y226236D02*
D03*
Y221709D02*
D03*
D34*
X609642Y175736D02*
D03*
X610142Y279500D02*
D03*
X609642Y228500D02*
D03*
D35*
X636217Y167075D02*
D03*
Y175736D02*
D03*
Y184398D02*
D03*
X600783Y167075D02*
D03*
Y175736D02*
D03*
Y184398D02*
D03*
X601284Y288161D02*
D03*
Y279500D02*
D03*
Y270839D02*
D03*
X636717Y288161D02*
D03*
Y279500D02*
D03*
Y270839D02*
D03*
X600783Y237161D02*
D03*
Y228500D02*
D03*
Y219839D02*
D03*
X636216Y237161D02*
D03*
Y228500D02*
D03*
Y219839D02*
D03*
D36*
X693500Y136244D02*
D03*
Y141756D02*
D03*
X673500Y131382D02*
D03*
Y136894D02*
D03*
X654890Y99244D02*
D03*
Y104756D02*
D03*
X614500Y99744D02*
D03*
Y105256D02*
D03*
X577500Y99244D02*
D03*
Y104756D02*
D03*
D37*
X679295Y121685D02*
D03*
X690713D02*
D03*
D38*
X679760Y130988D02*
D03*
X687240D02*
D03*
Y142012D02*
D03*
X683500D02*
D03*
X679760D02*
D03*
D39*
X668567Y110760D02*
D03*
X666008D02*
D03*
X663449D02*
D03*
X660890D02*
D03*
Y93240D02*
D03*
X663449D02*
D03*
X666008D02*
D03*
X668567D02*
D03*
X628787Y110760D02*
D03*
X626228D02*
D03*
X623669D02*
D03*
X621110D02*
D03*
Y93240D02*
D03*
X623669D02*
D03*
X626228D02*
D03*
X628787D02*
D03*
X591287Y110760D02*
D03*
X588728D02*
D03*
X586169D02*
D03*
X583610D02*
D03*
Y93240D02*
D03*
X586169D02*
D03*
X588728D02*
D03*
X591287D02*
D03*
D40*
X644299Y203657D02*
D03*
X631701D02*
D03*
X641799Y255075D02*
D03*
X629201D02*
D03*
X646799Y305000D02*
D03*
X634201D02*
D03*
X646799Y314000D02*
D03*
X634201D02*
D03*
X643799Y143783D02*
D03*
X631201D02*
D03*
X643799Y152500D02*
D03*
X631201D02*
D03*
D41*
X665106Y88599D02*
Y93240D01*
Y96405D01*
X624949Y89719D02*
Y93240D01*
Y97899D01*
X587449Y88551D02*
Y93240D01*
Y96761D01*
X624571Y106839D02*
Y113925D01*
X587449Y107239D02*
Y116449D01*
X664728Y106660D02*
Y115413D01*
X624949Y89719D02*
X626842Y87827D01*
X665106Y88599D02*
X665705Y88000D01*
X587449Y116449D02*
X590000Y119000D01*
X584966Y104756D02*
X587449Y107239D01*
X577500Y104756D02*
X584966D01*
X587449Y88551D02*
X587545Y88455D01*
X584966Y99244D02*
X587449Y96761D01*
X577500Y99244D02*
X584966D01*
X622988Y105256D02*
X624571Y106839D01*
X614500Y105256D02*
X622988D01*
X623104Y99744D02*
X624949Y97899D01*
X614500Y99744D02*
X623104D01*
X614323D02*
X614500D01*
X614224Y99646D02*
X614323Y99744D01*
X614224Y92409D02*
Y99646D01*
X662267Y99244D02*
X665106Y96405D01*
X654890Y99244D02*
X662267D01*
X662824Y104756D02*
X664728Y106660D01*
Y115413D02*
X671000Y121685D01*
X679295D01*
X654890Y104756D02*
X662824D01*
X654890D02*
Y112000D01*
X649390Y117500D02*
X654890Y112000D01*
X628146Y117500D02*
X649390D01*
X624571Y113925D02*
X628146Y117500D01*
D42*
X621110Y110760D02*
Y121890D01*
X590500Y152500D02*
X621110Y121890D01*
X622425Y128575D02*
X649325D01*
X595004Y155996D02*
X622425Y128575D01*
X595004Y155996D02*
Y187748D01*
X583595Y110760D02*
X583595Y110760D01*
Y122158D01*
X586169Y124732D01*
Y180835D01*
X580000Y187004D02*
X586169Y180835D01*
X580000Y202752D02*
X595004Y187748D01*
X649325Y128575D02*
X660874Y117026D01*
Y110776D02*
Y117026D01*
Y110776D02*
X660890Y110760D01*
X580000Y194878D02*
X590500Y184378D01*
Y152500D02*
Y184378D01*
M02*
