M48
;Layer_Color=9474304
;FILE_FORMAT=2:5
INCH,LZ
;TYPE=PLATED
T1F00S00C0.01181
T2F00S00C0.01378
T3F00S00C0.03150
%
T01
X0588188Y0061417
X059055
X0592912
X0595274
X0597637
X0599999
X0602361
X0604723
X0607085
Y0063779
Y0066142
Y0068504
Y0070866
Y0073228
Y007559
Y0077953
X0604723
Y007559
Y0073228
Y0070866
Y0068504
Y0066142
Y0063779
X0602361
Y0066142
Y0068504
Y0070866
Y0073228
Y007559
Y0077953
X0599999
Y007559
Y0073228
Y0070866
Y0068504
Y0066142
Y0063779
X0597637
Y0066142
Y0068504
Y0070866
Y0073228
Y007559
Y0077953
X0595274
Y007559
Y0073228
Y0070866
Y0068504
Y0066142
Y0063779
X0592912
Y0066142
Y0068504
Y0070866
Y0073228
Y007559
Y0077953
X059055
Y007559
Y0073228
Y0070866
Y0068504
Y0066142
Y0063779
X0588188
Y0066142
Y0068504
Y0070866
Y0073228
Y007559
Y0077953
X0625983
X0628345
X0630707
X063307
X0635432
X0637794
X0640156
X0642518
X0644881
Y007559
Y0073228
Y0070866
Y0068504
Y0066142
Y0063779
Y0061417
X0642518
Y0063779
Y0066142
Y0068504
Y0070866
Y0073228
Y007559
X0640156
Y0073228
Y0070866
Y0068504
Y0066142
Y0063779
Y0061417
X0637794
Y0063779
Y0066142
Y0068504
Y0070866
Y0073228
Y007559
X0635432
Y0073228
Y0070866
Y0068504
Y0066142
Y0063779
Y0061417
X063307
Y0063779
Y0066142
Y0068504
Y0070866
Y0073228
Y007559
X0630707
Y0073228
Y0070866
Y0068504
Y0066142
Y0063779
Y0061417
X0628345
Y0063779
Y0066142
Y0068504
Y0070866
Y0073228
Y007559
X0625983
Y0073228
Y0070866
Y0068504
Y0066142
Y0063779
Y0061417
X0663778
X066614
X0668503
X0670865
X0673227
X0675589
X0677951
X0680314
X0682676
X0685038
Y0063779
Y0066142
Y0068504
Y0070866
Y0073228
Y007559
Y0077953
X0682676
Y007559
Y0073228
Y0070866
Y0068504
Y0066142
Y0063779
X0680314
Y0066142
Y0068504
Y0070866
Y0073228
Y007559
Y0077953
X0677951
Y007559
Y0073228
Y0070866
Y0068504
Y0066142
Y0063779
X0675589
Y0066142
Y0068504
Y0070866
Y0073228
Y007559
Y0077953
X0673227
Y007559
Y0073228
Y0070866
Y0068504
Y0066142
Y0063779
X0670865
Y0066142
Y0068504
Y0070866
Y0073228
Y007559
Y0077953
X0668503
Y007559
Y0073228
Y0070866
Y0068504
Y0066142
Y0063779
X066614
Y0066142
Y0068504
Y0070866
Y0073228
Y007559
Y0077953
X0663778
Y007559
Y0073228
Y0070866
Y0068504
Y0066142
Y0063779
X0663788Y017
X0661426
X0659064
X0656702
X065434
X0651977
X0649615
X0649605Y01725
Y0174803
X0651967
Y01725
X0654329
Y0174803
X0656692
Y01725
X0659054
Y0174803
X0661416
Y01725
X0663778
Y0174803
Y0177165
X0661416
X0659054
X0656692
X0654329
X0651967
X0649605
X06495Y01795
Y0181407
Y01835
X0651862
Y0181407
Y01795
X0654224
Y0181407
Y01835
X0656587
Y0181407
Y01795
X0658949
Y0181407
Y01835
X0661311
Y0181407
Y01795
X0663673
Y0181407
Y01835
X0661416Y0222138
X0659054
Y02245
Y0226771
X0661416
Y02245
X0663778Y0226771
Y0229133
X0661416
X0659054
X0656692
Y0231496
X0658949
X0661311
X0660974Y0233858
X0658611
X0656354
X0653992
X0651862
X06495
X0647243
Y0231496
X06495
X0651862
X0654329
Y0229133
Y0226771
Y0224409
X0651977
X0649615
Y0222047
X0651977
X0654329
X0656692
Y0224409
Y0226771
X0651967
Y0229133
X0649605
Y0226771
X0647243
Y0229133
X0644881
Y0231496
Y0233858
Y0226771
Y0224409
X0647243
Y0222047
X0644881
Y0219685
X0644543Y0271616
X0646906
Y0273978
Y0276341
X0649268
Y027403
X06495Y0271754
X0651659Y0271769
X0653808Y0271732
X0656354Y0271616
X06585
X0661079
Y0273978
X0658793Y0273993
X0658716Y0276341
X0661079
X0663441
Y0278703
Y0280963
X0661079
Y0278703
X0658716
Y0281065
Y0283427
X0656354Y0283325
X0653992
X0651677
Y0280963
X065163Y0278703
X0653992
Y0280963
X0656354
Y0278703
Y0276341
Y0273978
X0654329Y0274015
X0651829Y027403
X065163Y0276341
X0653992
X0649268Y0278703
Y0281
Y0283362
X0647072Y0283515
X0645Y0283464
X0644543Y0281065
X0646906
Y0278703
X0644543
Y0276341
Y0273978
X0661079Y0283325
X0663441
X0663778Y0304724
X066614
X0668503
X0670865
X067318
X0673227
X0675542
X0675589
X0677904
X0677951
X0680266
X0680314
X0682628
X0682676
X0684991
X0685038
X0687353
X06874
X0689715
X0689762
X0692077
X0692125
X0694439
X0694487
X0696802
X0696849
X0697983Y0307086
X069803
X0695668
X069562
X0693306
X0693258
X0690943
X0690896
X0688581
X0688534
X0686219
X0686172
X0683857
X068381
X0681495
X0681447
X0679133
X0679085
X067677
X0676723
X0674408
X0674361
X0672046
X0671999
X0669684
X0669636
X0667321
X0667274
X0664959
X0664912
X0662597
X066255
X0660235
X0660187
X0657873
X0657825
X0655511
X0655463
X0654329Y0309448
X0654282
X0656644
X0656692
X0659006
X0659054
X0661369
X0661416
X0663731
X0663778
X0666093
X066614
X0668455
X0668503
X0670817
X0670865
X067318
X0673227
X0675542
X0675589
X0677904
X0677951
X0680266
X0680314
X0682628
X0682676
X0684991
X0685038
X0687353
X06874
X0689715
X0689762
X0692077
X0692125
X0694439
X0694487
X0696802
X0696849
X0697983Y031181
X069803
X0695668
X069562
X0693306
X0693258
X0690943
X0690896
X0688581
X0688534
X0686219
X0686172
X0683857
X068381
X0681495
X0681447
X0679133
X0679085
X067677
X0676723
X0674408
X0674361
X0672046
X0671999
X0669684
X0669636
X0667321
X0667274
X0664959
X0664912
X0662597
X066255
X0660235
X0660187
X0657873
X0657825
X0655511
X0655463
X0654329Y0304724
X0656692
X0659054
X0661416
X0676723Y0302362
X067677
X0679085
X0679133
X0681447
X0681495
X068381
X0683857
X0686172
X0686219
X0688534
X0688581
X0690896
X0690943
X0693258
X0693306
X069562
X0695668
X0697983
X069803
X0696849Y0299999
X0696802
X0694487
X0694439
X0692125
X0692077
X0689762
X0689715
X06874
X0687353
X0685038
X0684991
X0682676
X0682628
X0680314
X0680266
X0677951
X0677904
X0602361
X0599999
X0597637
X0595274
X0592912
X059055
X0588188
X0585826
X0583463
X0581101
X0578739
X0576377
X0574015
X0575196Y0302362
X0577558
X057992
X0582282
X0584645
X0587007
X0589369
X0591731
X0594093
X0596455
X0598818
X060118
X0603542
X0602361Y0304724
X0599999
X0597637
X0595274
X0592912
X059055
X0588188
X0585826
X0583463
X0581101
X0578739
X0576377
X0574015
X0575196Y0307086
X0577558
X057992
X0582282
X0584645
X0587007
X0589369
X0591731
X0594093
X0596455
X0598818
X060118
X0603542
X0602361Y0309448
X0599999
X0597637
X0595274
X0592912
X059055
X0588188
X0585826
X0583463
X0581101
X0578739
X0576377
X0574015
X0575196Y031181
X0577558
X057992
X0582282
X0584645
X0587007
X0589369
X0591731
X0594093
X0596455
X0598818
X060118
X0603542
X0602361Y0314173
X0599999
X0597637
X0595274
X0592912
X059055
X0588188
X0585826
X0583463
X0581101
X0578739
X0576377
X0574015
X0575196Y0316535
X0577558
X057992
X0582282
X0584645
X0587007
X0589369
X0591731
X0594093
X0596455
X0598818
X060118
X0603542
X0602361Y0318897
X0599999
X0597637
X0595274
X0592912
X059055
X0588188
X0585826
X0583463
X0581101
X0578739
X0576377
X0574015
X0584645Y0321259
X0587007
X0589369
X0591731
X0594093
X0596455
X0598818
X060118
X0603542
X0602361Y0323621
X0599999
X0597637
X0595274
X0592912
X059055
X0588188
X0585826
X0587007Y0325984
X0589369
X0591731
X0594093
X0596455
X0598818
X060118
X0603542
X0602361Y0328346
X0599999
X0597637
X0595274
X0592912
X059055
X0588188
X0585826
X0587007Y0330708
X0589369
X0591731
X0594093
X0596455
X0598818
X060118
X0603542
X0602361Y033307
X0599999
X0597637
X0595274
X0592912
X059055
X0588188
X0585826
X0587007Y0335432
X0589369
X0591731
X0594093
X0596455
X0598818
X060118
X0603542
X061489Y03355
X0617668Y0335432
X062003
X0618849Y033307
X0616487
X0617668Y0330708
X062003
X0618849Y0328346
X0616487
X0617668Y0325984
X062003
X0584645
Y0330708
Y0335432
X0641337
X06437
X0646062
X0648424
X0650786
X0653148
X0655511
X0656692Y033307
X0654329
X0651967
X0649605
X0647243
X0644881
X0642518
X06437Y0330708
X0646062
X0648424
X0650786
X0653148
X0655511
X0656692Y0328346
X0654329
X0651967
X0649605
X0647243
X0644881
X0642518
X06437Y0325984
X0646062
X0648424
X0650786
X0653148
X0655511
Y0316535
X0655463
X0657825
X0657873
X0660187
X0660235
X066255
X0662597
X0664912
X0664959
X0667274
X0667321
X0669636
X0669684
X0671999
X0672046
X0674361
X0674408
X0676723
X067677
X0679085
X0679133
X0681447
X0681495
X068381
X0683857
X0686172
X0686219
X0688534
X0688581
X0690896
X0690943
X0693258
X0693306
X069562
X0695668
X0697983
X069803
X0696849Y0318897
X0696802
X0694487
X0694439
X0692125
X0692077
X0689762
X0689715
X06874
X0687353
X0685038
X0684991
X0682676
X0682628
X0680314
X0680266
X0677951
X0677904
X0675589
X0675542
X0673227
X067318
X0670865
X0670817
X0668503
X0668455
X066614
X0666093
X0663778
X0663731
X0661416
Y0314173
X0661369
X0659054
X0659006
X0656692
X0656644
X0663731
X0663778
X0666093
X066614
X0668455
X0668503
X0670817
X0670865
X067318
X0673227
X0675542
X0675589
X0677904
X0677951
X0680266
X0680314
X0682628
X0682676
X0684991
X0685038
X0687353
X06874
X0689715
X0689762
X0692077
X0692125
X0694439
X0694487
X0696802
X0696849
X0674408Y0325984
X0674361
X0672046
X0671999
X0669684
X0669636
X0667321
X0667274
X0668455Y0328346
X0668503
X0670817
X0670865
X067318
X0673227
X0674361Y0330708
X0674408
X0672046
X0671999
X0669684
X0669636
X0667321
X0667274
X0668455Y033307
X0668503
X0670817
X0670865
X067318
X0673227
X0674361Y0335432
X0674408
X0672046
X0671999
X0669684
X0669636
X0667321
X0667274
X0641337Y0330708
Y0325984
T02
X0606902Y00985
X0607087Y01055
X06445
X0644402Y00985
X06845
X0684469Y01055
X068724Y014876
X06855Y01695
X0666488Y0181256
X0664335Y0191
X0665812Y02345
X0663102Y0242
X0665661Y0272
X0667181Y0288
X0631701Y02985
T03
X0690158Y017913
Y0187004
Y0194878
Y0202752
Y0210626
Y02185
Y0226374
Y0234248
Y0242122
Y0249996
Y025787
Y0265744
X058
Y025787
Y0249996
Y0242122
Y0234248
Y0226374
Y02185
Y0210626
Y0202752
Y0194878
Y0187004
Y017913
M30
