G04*
G04 #@! TF.GenerationSoftware,Altium Limited,Altium Designer,20.0.2 (26)*
G04*
G04 Layer_Color=255*
%FSLAX25Y25*%
%MOIN*%
G70*
G01*
G75*
%ADD11R,0.03740X0.03543*%
%ADD13R,0.03543X0.03740*%
%ADD26C,0.04724*%
%ADD27R,0.04724X0.04724*%
%ADD30R,0.03347X0.04331*%
%ADD31R,0.05118X0.02756*%
%ADD32R,0.06693X0.04331*%
%ADD33R,0.04331X0.03347*%
%ADD34R,0.02756X0.05118*%
%ADD35R,0.04331X0.06693*%
%ADD36R,0.03701X0.02953*%
%ADD37R,0.07087X0.08858*%
%ADD38R,0.02362X0.03543*%
%ADD39R,0.01772X0.05709*%
%ADD40R,0.02441X0.07165*%
D11*
X591287Y243453D02*
D03*
Y237547D02*
D03*
X591000Y220547D02*
D03*
Y226453D02*
D03*
D13*
X602953Y197000D02*
D03*
X597047D02*
D03*
X602953Y204000D02*
D03*
X597047D02*
D03*
X602953Y253500D02*
D03*
X597047D02*
D03*
X602953Y260000D02*
D03*
X597047D02*
D03*
X604843Y98500D02*
D03*
X598937D02*
D03*
X604843Y105500D02*
D03*
X598937D02*
D03*
X682342D02*
D03*
X676437D02*
D03*
X682295Y98500D02*
D03*
X676390D02*
D03*
X642343Y105500D02*
D03*
X636437D02*
D03*
X642343Y98500D02*
D03*
X636437D02*
D03*
D26*
X690158Y179130D02*
D03*
Y187004D02*
D03*
Y194878D02*
D03*
Y202752D02*
D03*
Y210626D02*
D03*
Y218500D02*
D03*
Y226374D02*
D03*
Y234248D02*
D03*
Y242122D02*
D03*
Y249996D02*
D03*
Y257870D02*
D03*
X580000Y179130D02*
D03*
Y187004D02*
D03*
Y194878D02*
D03*
Y202752D02*
D03*
Y210626D02*
D03*
Y218500D02*
D03*
Y226374D02*
D03*
Y234248D02*
D03*
Y242122D02*
D03*
Y249996D02*
D03*
Y257870D02*
D03*
D27*
X690158Y265744D02*
D03*
X580000D02*
D03*
D30*
X650209Y282778D02*
D03*
X654736D02*
D03*
X659264D02*
D03*
X663791D02*
D03*
X650209Y271754D02*
D03*
X654736D02*
D03*
X659264D02*
D03*
X663791D02*
D03*
X650209Y181846D02*
D03*
X654736D02*
D03*
X659264D02*
D03*
X663791D02*
D03*
X650209Y170823D02*
D03*
X654736D02*
D03*
X659264D02*
D03*
X663791D02*
D03*
Y223047D02*
D03*
X659264D02*
D03*
X654736D02*
D03*
X650209D02*
D03*
X663791Y234071D02*
D03*
X659264D02*
D03*
X654736D02*
D03*
X650209D02*
D03*
D31*
X657000Y288289D02*
D03*
Y187358D02*
D03*
Y239583D02*
D03*
D32*
X648339Y261715D02*
D03*
X657000D02*
D03*
X665661D02*
D03*
X648339Y297148D02*
D03*
X657000D02*
D03*
X665661D02*
D03*
X648339Y160784D02*
D03*
X657000D02*
D03*
X665661D02*
D03*
X648339Y196216D02*
D03*
X657000D02*
D03*
X665661D02*
D03*
Y248441D02*
D03*
X657000D02*
D03*
X648339D02*
D03*
X665661Y213008D02*
D03*
X657000D02*
D03*
X648339D02*
D03*
D33*
X615154Y168945D02*
D03*
Y173472D02*
D03*
Y178000D02*
D03*
Y182528D02*
D03*
X626177Y168945D02*
D03*
Y173472D02*
D03*
Y178000D02*
D03*
Y182528D02*
D03*
X626677Y286291D02*
D03*
Y281764D02*
D03*
Y277236D02*
D03*
Y272709D02*
D03*
X615654Y286291D02*
D03*
Y281764D02*
D03*
Y277236D02*
D03*
Y272709D02*
D03*
X626177Y235291D02*
D03*
Y230764D02*
D03*
Y226236D02*
D03*
Y221709D02*
D03*
X615154Y235291D02*
D03*
Y230764D02*
D03*
Y226236D02*
D03*
Y221709D02*
D03*
D34*
X609642Y175736D02*
D03*
X610142Y279500D02*
D03*
X609642Y228500D02*
D03*
D35*
X636217Y167075D02*
D03*
Y175736D02*
D03*
Y184398D02*
D03*
X600783Y167075D02*
D03*
Y175736D02*
D03*
Y184398D02*
D03*
X601284Y288161D02*
D03*
Y279500D02*
D03*
Y270839D02*
D03*
X636717Y288161D02*
D03*
Y279500D02*
D03*
Y270839D02*
D03*
X600783Y237161D02*
D03*
Y228500D02*
D03*
Y219839D02*
D03*
X636216Y237161D02*
D03*
Y228500D02*
D03*
Y219839D02*
D03*
D36*
X693500Y136244D02*
D03*
Y141756D02*
D03*
X673500Y131382D02*
D03*
Y136894D02*
D03*
X654890Y99244D02*
D03*
Y104756D02*
D03*
X614500Y99744D02*
D03*
Y105256D02*
D03*
X577500Y99244D02*
D03*
Y104756D02*
D03*
D37*
X679295Y121685D02*
D03*
X690713D02*
D03*
D38*
X679760Y130988D02*
D03*
X687240D02*
D03*
Y142012D02*
D03*
X683500D02*
D03*
X679760D02*
D03*
D39*
X668567Y110760D02*
D03*
X666008D02*
D03*
X663449D02*
D03*
X660890D02*
D03*
Y93240D02*
D03*
X663449D02*
D03*
X666008D02*
D03*
X668567D02*
D03*
X628787Y110760D02*
D03*
X626228D02*
D03*
X623669D02*
D03*
X621110D02*
D03*
Y93240D02*
D03*
X623669D02*
D03*
X626228D02*
D03*
X628787D02*
D03*
X591287Y110760D02*
D03*
X588728D02*
D03*
X586169D02*
D03*
X583610D02*
D03*
Y93240D02*
D03*
X586169D02*
D03*
X588728D02*
D03*
X591287D02*
D03*
D40*
X644299Y203657D02*
D03*
X631701D02*
D03*
X641799Y255075D02*
D03*
X629201D02*
D03*
X646799Y305000D02*
D03*
X634201D02*
D03*
X646799Y314000D02*
D03*
X634201D02*
D03*
X643799Y143783D02*
D03*
X631201D02*
D03*
X643799Y152500D02*
D03*
X631201D02*
D03*
M02*
