G04*
G04 #@! TF.GenerationSoftware,Altium Limited,Altium Designer,20.0.2 (26)*
G04*
G04 Layer_Color=65535*
%FSLAX25Y25*%
%MOIN*%
G70*
G01*
G75*
%ADD10C,0.00787*%
G36*
X618575Y322615D02*
X619618D01*
Y322176D01*
X618575D01*
Y321122D01*
X618131D01*
Y322176D01*
X617087D01*
Y322615D01*
X618131D01*
Y323658D01*
X618575D01*
Y322615D01*
D02*
G37*
G36*
X607266Y321154D02*
X605807D01*
Y321626D01*
X607266D01*
Y321154D01*
D02*
G37*
G36*
X649605Y321692D02*
X648145D01*
Y322164D01*
X649605D01*
Y321692D01*
D02*
G37*
G36*
X670457Y321615D02*
X671500D01*
Y321176D01*
X670457D01*
Y320122D01*
X670013D01*
Y321176D01*
X668969D01*
Y321615D01*
X670013D01*
Y322658D01*
X670457D01*
Y321615D01*
D02*
G37*
G36*
X688680Y199919D02*
X688674Y199913D01*
X688663Y199902D01*
X688641Y199880D01*
X688619Y199847D01*
X688585Y199808D01*
X688541Y199763D01*
X688497Y199708D01*
X688447Y199641D01*
X688397Y199575D01*
X688336Y199497D01*
X688274Y199408D01*
X688213Y199319D01*
X688147Y199220D01*
X688080Y199114D01*
X688014Y198997D01*
X687947Y198881D01*
X687942Y198875D01*
X687930Y198853D01*
X687914Y198820D01*
X687886Y198770D01*
X687858Y198709D01*
X687825Y198642D01*
X687786Y198565D01*
X687747Y198476D01*
X687703Y198376D01*
X687653Y198276D01*
X687609Y198165D01*
X687564Y198048D01*
X687475Y197810D01*
X687392Y197555D01*
Y197549D01*
X687387Y197532D01*
X687381Y197504D01*
X687370Y197471D01*
X687359Y197427D01*
X687348Y197371D01*
X687331Y197310D01*
X687320Y197244D01*
X687303Y197166D01*
X687287Y197083D01*
X687259Y196905D01*
X687231Y196711D01*
X687215Y196500D01*
X686732D01*
Y196505D01*
Y196522D01*
Y196544D01*
X686737Y196578D01*
Y196622D01*
X686743Y196678D01*
X686748Y196739D01*
X686754Y196805D01*
X686765Y196883D01*
X686776Y196961D01*
X686793Y197055D01*
X686809Y197149D01*
X686826Y197249D01*
X686848Y197360D01*
X686904Y197588D01*
Y197593D01*
X686909Y197616D01*
X686920Y197649D01*
X686937Y197699D01*
X686954Y197754D01*
X686976Y197821D01*
X686998Y197899D01*
X687031Y197982D01*
X687065Y198076D01*
X687098Y198171D01*
X687181Y198381D01*
X687281Y198603D01*
X687392Y198826D01*
X687398Y198831D01*
X687409Y198853D01*
X687425Y198881D01*
X687448Y198925D01*
X687475Y198975D01*
X687514Y199036D01*
X687553Y199103D01*
X687598Y199175D01*
X687703Y199336D01*
X687814Y199503D01*
X687942Y199675D01*
X688075Y199836D01*
X686193D01*
Y200291D01*
X688680D01*
Y199919D01*
D02*
G37*
G36*
X684950Y196500D02*
X684478D01*
Y199503D01*
X684473Y199497D01*
X684445Y199475D01*
X684412Y199442D01*
X684356Y199403D01*
X684295Y199353D01*
X684218Y199297D01*
X684129Y199236D01*
X684029Y199175D01*
X684023D01*
X684018Y199170D01*
X683984Y199147D01*
X683929Y199120D01*
X683862Y199086D01*
X683785Y199048D01*
X683701Y199009D01*
X683618Y198970D01*
X683535Y198936D01*
Y199392D01*
X683540D01*
X683552Y199403D01*
X683574Y199408D01*
X683602Y199425D01*
X683635Y199442D01*
X683674Y199464D01*
X683768Y199519D01*
X683879Y199580D01*
X683990Y199658D01*
X684106Y199747D01*
X684223Y199841D01*
X684229Y199847D01*
X684234Y199852D01*
X684251Y199869D01*
X684273Y199885D01*
X684323Y199941D01*
X684389Y200008D01*
X684456Y200085D01*
X684528Y200174D01*
X684589Y200263D01*
X684645Y200357D01*
X684950D01*
Y196500D01*
D02*
G37*
G36*
X681326Y200335D02*
X681376D01*
X681493Y200329D01*
X681614Y200313D01*
X681748Y200296D01*
X681870Y200269D01*
X681931Y200252D01*
X681981Y200235D01*
X681986D01*
X681992Y200230D01*
X682025Y200213D01*
X682075Y200191D01*
X682136Y200152D01*
X682203Y200102D01*
X682275Y200035D01*
X682342Y199958D01*
X682408Y199869D01*
Y199863D01*
X682414Y199858D01*
X682436Y199825D01*
X682458Y199769D01*
X682491Y199697D01*
X682519Y199614D01*
X682547Y199514D01*
X682564Y199408D01*
X682569Y199292D01*
Y199286D01*
Y199275D01*
Y199253D01*
X682564Y199225D01*
Y199186D01*
X682558Y199147D01*
X682536Y199053D01*
X682503Y198942D01*
X682458Y198826D01*
X682392Y198709D01*
X682347Y198653D01*
X682303Y198598D01*
X682297Y198592D01*
X682292Y198587D01*
X682275Y198570D01*
X682253Y198554D01*
X682225Y198531D01*
X682192Y198509D01*
X682147Y198481D01*
X682103Y198448D01*
X682048Y198420D01*
X681986Y198393D01*
X681920Y198359D01*
X681848Y198331D01*
X681764Y198309D01*
X681681Y198282D01*
X681587Y198265D01*
X681487Y198248D01*
X681498Y198243D01*
X681520Y198232D01*
X681554Y198209D01*
X681598Y198187D01*
X681698Y198126D01*
X681748Y198087D01*
X681792Y198054D01*
X681803Y198043D01*
X681831Y198015D01*
X681875Y197971D01*
X681931Y197915D01*
X681992Y197838D01*
X682064Y197754D01*
X682136Y197654D01*
X682214Y197543D01*
X682874Y196500D01*
X682242D01*
X681737Y197299D01*
Y197305D01*
X681726Y197316D01*
X681714Y197333D01*
X681698Y197355D01*
X681659Y197416D01*
X681609Y197494D01*
X681548Y197577D01*
X681487Y197666D01*
X681426Y197749D01*
X681370Y197826D01*
X681365Y197832D01*
X681348Y197854D01*
X681320Y197888D01*
X681282Y197926D01*
X681198Y198010D01*
X681154Y198048D01*
X681110Y198082D01*
X681104Y198087D01*
X681093Y198093D01*
X681071Y198104D01*
X681037Y198121D01*
X681004Y198137D01*
X680965Y198154D01*
X680876Y198182D01*
X680871D01*
X680860Y198187D01*
X680838D01*
X680810Y198193D01*
X680771Y198198D01*
X680727D01*
X680665Y198204D01*
X680011D01*
Y196500D01*
X679500D01*
Y200341D01*
X681282D01*
X681326Y200335D01*
D02*
G37*
G36*
X682388Y166218D02*
X682382Y166174D01*
Y166124D01*
X682377Y166007D01*
X682360Y165885D01*
X682343Y165752D01*
X682316Y165630D01*
X682299Y165569D01*
X682282Y165519D01*
Y165514D01*
X682277Y165508D01*
X682260Y165475D01*
X682238Y165425D01*
X682199Y165364D01*
X682149Y165297D01*
X682083Y165225D01*
X682005Y165158D01*
X681916Y165092D01*
X681911D01*
X681905Y165086D01*
X681872Y165064D01*
X681816Y165042D01*
X681744Y165008D01*
X681661Y164981D01*
X681561Y164953D01*
X681455Y164936D01*
X681339Y164931D01*
X681333D01*
X681322D01*
X681300D01*
X681272Y164936D01*
X681233D01*
X681195Y164942D01*
X681100Y164964D01*
X680989Y164997D01*
X680873Y165042D01*
X680756Y165108D01*
X680701Y165153D01*
X680645Y165197D01*
X680640Y165203D01*
X680634Y165208D01*
X680617Y165225D01*
X680601Y165247D01*
X680579Y165275D01*
X680556Y165308D01*
X680529Y165353D01*
X680495Y165397D01*
X680468Y165453D01*
X680440Y165514D01*
X680407Y165580D01*
X680379Y165652D01*
X680357Y165736D01*
X680329Y165819D01*
X680312Y165913D01*
X680296Y166013D01*
X680290Y166002D01*
X680279Y165980D01*
X680257Y165946D01*
X680234Y165902D01*
X680173Y165802D01*
X680134Y165752D01*
X680101Y165708D01*
X680090Y165697D01*
X680062Y165669D01*
X680018Y165625D01*
X679962Y165569D01*
X679885Y165508D01*
X679802Y165436D01*
X679702Y165364D01*
X679591Y165286D01*
X678547Y164626D01*
Y165258D01*
X679346Y165763D01*
X679352D01*
X679363Y165775D01*
X679380Y165786D01*
X679402Y165802D01*
X679463Y165841D01*
X679541Y165891D01*
X679624Y165952D01*
X679713Y166013D01*
X679796Y166074D01*
X679874Y166130D01*
X679879Y166135D01*
X679901Y166152D01*
X679935Y166180D01*
X679974Y166218D01*
X680057Y166302D01*
X680096Y166346D01*
X680129Y166391D01*
X680134Y166396D01*
X680140Y166407D01*
X680151Y166429D01*
X680168Y166463D01*
X680185Y166496D01*
X680201Y166535D01*
X680229Y166624D01*
Y166629D01*
X680234Y166640D01*
Y166662D01*
X680240Y166690D01*
X680245Y166729D01*
Y166773D01*
X680251Y166834D01*
Y167489D01*
X678547D01*
Y168000D01*
X682388D01*
Y166218D01*
D02*
G37*
G36*
X681439Y163960D02*
X681450Y163949D01*
X681455Y163926D01*
X681472Y163899D01*
X681489Y163865D01*
X681511Y163826D01*
X681566Y163732D01*
X681628Y163621D01*
X681705Y163510D01*
X681794Y163393D01*
X681888Y163277D01*
X681894Y163271D01*
X681899Y163266D01*
X681916Y163249D01*
X681933Y163227D01*
X681988Y163177D01*
X682055Y163110D01*
X682132Y163044D01*
X682221Y162972D01*
X682310Y162911D01*
X682405Y162855D01*
Y162550D01*
X678547D01*
Y163022D01*
X681550D01*
X681544Y163027D01*
X681522Y163055D01*
X681489Y163088D01*
X681450Y163144D01*
X681400Y163205D01*
X681344Y163283D01*
X681283Y163371D01*
X681222Y163471D01*
Y163477D01*
X681217Y163482D01*
X681195Y163516D01*
X681167Y163571D01*
X681134Y163638D01*
X681095Y163715D01*
X681056Y163799D01*
X681017Y163882D01*
X680984Y163965D01*
X681439D01*
Y163960D01*
D02*
G37*
G36*
X680445Y161357D02*
X680523D01*
X680612Y161351D01*
X680717Y161340D01*
X680834Y161329D01*
X680962Y161312D01*
X681089Y161290D01*
X681228Y161262D01*
X681361Y161229D01*
X681494Y161190D01*
X681622Y161140D01*
X681744Y161085D01*
X681861Y161024D01*
X681960Y160951D01*
X681966Y160946D01*
X681977Y160935D01*
X681999Y160913D01*
X682033Y160885D01*
X682066Y160852D01*
X682099Y160807D01*
X682144Y160752D01*
X682183Y160696D01*
X682221Y160630D01*
X682266Y160557D01*
X682299Y160474D01*
X682338Y160391D01*
X682366Y160297D01*
X682388Y160197D01*
X682399Y160091D01*
X682405Y159980D01*
Y159936D01*
X682399Y159903D01*
Y159864D01*
X682393Y159819D01*
X682371Y159714D01*
X682343Y159597D01*
X682299Y159475D01*
X682232Y159353D01*
X682194Y159292D01*
X682149Y159237D01*
X682144Y159231D01*
X682138Y159225D01*
X682121Y159209D01*
X682105Y159192D01*
X682077Y159164D01*
X682044Y159142D01*
X681966Y159081D01*
X681866Y159020D01*
X681744Y158965D01*
X681605Y158915D01*
X681450Y158881D01*
X681411Y159353D01*
X681417D01*
X681422Y159359D01*
X681455Y159364D01*
X681505Y159381D01*
X681566Y159403D01*
X681633Y159425D01*
X681700Y159458D01*
X681761Y159497D01*
X681811Y159536D01*
X681822Y159547D01*
X681844Y159570D01*
X681877Y159608D01*
X681916Y159664D01*
X681949Y159736D01*
X681983Y159814D01*
X682005Y159908D01*
X682016Y160008D01*
Y160047D01*
X682010Y160091D01*
X681999Y160141D01*
X681983Y160208D01*
X681960Y160274D01*
X681933Y160341D01*
X681888Y160408D01*
X681883Y160419D01*
X681861Y160447D01*
X681822Y160485D01*
X681766Y160535D01*
X681700Y160591D01*
X681622Y160652D01*
X681522Y160707D01*
X681411Y160763D01*
X681405D01*
X681394Y160768D01*
X681378Y160774D01*
X681355Y160785D01*
X681322Y160791D01*
X681283Y160802D01*
X681239Y160813D01*
X681183Y160824D01*
X681122Y160840D01*
X681056Y160852D01*
X680984Y160863D01*
X680906Y160868D01*
X680817Y160879D01*
X680728Y160885D01*
X680628Y160890D01*
X680529D01*
X680534Y160885D01*
X680567Y160863D01*
X680612Y160824D01*
X680667Y160774D01*
X680734Y160718D01*
X680795Y160646D01*
X680856Y160569D01*
X680911Y160480D01*
Y160474D01*
X680917Y160469D01*
X680934Y160435D01*
X680950Y160385D01*
X680978Y160319D01*
X681000Y160241D01*
X681017Y160152D01*
X681034Y160058D01*
X681039Y159958D01*
Y159914D01*
X681034Y159880D01*
X681028Y159836D01*
X681023Y159792D01*
X681011Y159736D01*
X680995Y159680D01*
X680956Y159553D01*
X680928Y159486D01*
X680889Y159420D01*
X680851Y159353D01*
X680806Y159281D01*
X680751Y159214D01*
X680689Y159153D01*
X680684Y159148D01*
X680673Y159137D01*
X680656Y159120D01*
X680628Y159103D01*
X680590Y159076D01*
X680551Y159048D01*
X680501Y159020D01*
X680445Y158987D01*
X680384Y158953D01*
X680318Y158926D01*
X680240Y158898D01*
X680162Y158870D01*
X680079Y158854D01*
X679985Y158837D01*
X679890Y158826D01*
X679790Y158820D01*
X679785D01*
X679774D01*
X679757D01*
X679729D01*
X679696Y158826D01*
X679663D01*
X679574Y158843D01*
X679468Y158859D01*
X679357Y158887D01*
X679235Y158926D01*
X679119Y158981D01*
X679113D01*
X679108Y158987D01*
X679091Y158998D01*
X679069Y159009D01*
X679013Y159042D01*
X678941Y159092D01*
X678864Y159153D01*
X678786Y159225D01*
X678708Y159314D01*
X678642Y159409D01*
Y159414D01*
X678636Y159420D01*
X678625Y159436D01*
X678619Y159458D01*
X678592Y159514D01*
X678564Y159586D01*
X678531Y159680D01*
X678508Y159786D01*
X678486Y159903D01*
X678481Y160030D01*
Y160058D01*
X678486Y160086D01*
Y160130D01*
X678492Y160180D01*
X678503Y160236D01*
X678519Y160302D01*
X678536Y160369D01*
X678558Y160447D01*
X678586Y160524D01*
X678619Y160602D01*
X678664Y160685D01*
X678714Y160763D01*
X678769Y160840D01*
X678836Y160918D01*
X678913Y160990D01*
X678919Y160996D01*
X678936Y161007D01*
X678958Y161024D01*
X678997Y161046D01*
X679047Y161079D01*
X679102Y161107D01*
X679174Y161140D01*
X679252Y161173D01*
X679346Y161212D01*
X679452Y161246D01*
X679568Y161273D01*
X679696Y161301D01*
X679840Y161329D01*
X679996Y161346D01*
X680162Y161357D01*
X680340Y161362D01*
X680345D01*
X680351D01*
X680368D01*
X680390D01*
X680445Y161357D01*
D02*
G37*
G36*
X670772Y196194D02*
X670844D01*
X670927Y196188D01*
X671010Y196177D01*
X671199Y196160D01*
X671399Y196133D01*
X671588Y196094D01*
X671682Y196066D01*
X671765Y196038D01*
X671771D01*
X671782Y196033D01*
X671804Y196022D01*
X671837Y196011D01*
X671871Y195994D01*
X671915Y195972D01*
X672009Y195916D01*
X672115Y195850D01*
X672226Y195772D01*
X672331Y195672D01*
X672426Y195561D01*
Y195555D01*
X672437Y195545D01*
X672448Y195528D01*
X672459Y195506D01*
X672476Y195472D01*
X672498Y195439D01*
X672520Y195395D01*
X672537Y195350D01*
X672581Y195245D01*
X672620Y195117D01*
X672642Y194978D01*
X672653Y194823D01*
Y194779D01*
X672648Y194751D01*
Y194712D01*
X672642Y194668D01*
X672620Y194562D01*
X672592Y194446D01*
X672548Y194324D01*
X672487Y194201D01*
X672448Y194140D01*
X672403Y194085D01*
X672398Y194079D01*
X672392Y194074D01*
X672376Y194057D01*
X672359Y194040D01*
X672331Y194018D01*
X672298Y193991D01*
X672220Y193935D01*
X672120Y193879D01*
X671998Y193824D01*
X671860Y193780D01*
X671699Y193746D01*
X671660Y194201D01*
X671665D01*
X671676Y194207D01*
X671688D01*
X671710Y194212D01*
X671771Y194229D01*
X671837Y194251D01*
X671915Y194279D01*
X671993Y194318D01*
X672065Y194362D01*
X672126Y194418D01*
X672131Y194423D01*
X672148Y194446D01*
X672170Y194484D01*
X672193Y194529D01*
X672220Y194590D01*
X672242Y194662D01*
X672259Y194745D01*
X672265Y194834D01*
Y194873D01*
X672259Y194912D01*
X672254Y194962D01*
X672242Y195023D01*
X672226Y195084D01*
X672204Y195150D01*
X672170Y195211D01*
X672165Y195217D01*
X672154Y195239D01*
X672131Y195273D01*
X672098Y195306D01*
X672059Y195350D01*
X672015Y195395D01*
X671965Y195439D01*
X671904Y195483D01*
X671898Y195489D01*
X671871Y195500D01*
X671832Y195522D01*
X671782Y195545D01*
X671715Y195572D01*
X671638Y195600D01*
X671549Y195628D01*
X671449Y195655D01*
X671443D01*
X671438Y195661D01*
X671421D01*
X671399Y195667D01*
X671343Y195678D01*
X671271Y195694D01*
X671182Y195705D01*
X671088Y195717D01*
X670983Y195722D01*
X670872Y195728D01*
X670866D01*
X670850D01*
X670822D01*
X670777D01*
X670788Y195722D01*
X670816Y195700D01*
X670855Y195667D01*
X670911Y195628D01*
X670966Y195572D01*
X671027Y195506D01*
X671088Y195428D01*
X671144Y195339D01*
X671149Y195328D01*
X671166Y195295D01*
X671188Y195245D01*
X671210Y195184D01*
X671238Y195100D01*
X671260Y195012D01*
X671277Y194912D01*
X671282Y194806D01*
Y194762D01*
X671277Y194729D01*
X671271Y194684D01*
X671266Y194640D01*
X671255Y194584D01*
X671238Y194529D01*
X671199Y194401D01*
X671171Y194334D01*
X671138Y194268D01*
X671099Y194196D01*
X671049Y194129D01*
X670999Y194063D01*
X670938Y194001D01*
X670933Y193996D01*
X670922Y193985D01*
X670905Y193974D01*
X670877Y193952D01*
X670838Y193924D01*
X670799Y193896D01*
X670750Y193868D01*
X670694Y193841D01*
X670633Y193807D01*
X670566Y193780D01*
X670489Y193752D01*
X670411Y193724D01*
X670322Y193702D01*
X670228Y193691D01*
X670133Y193680D01*
X670028Y193674D01*
X670022D01*
X670000D01*
X669973D01*
X669934Y193680D01*
X669884Y193685D01*
X669823Y193691D01*
X669762Y193702D01*
X669690Y193719D01*
X669545Y193757D01*
X669467Y193785D01*
X669384Y193818D01*
X669307Y193857D01*
X669234Y193907D01*
X669157Y193957D01*
X669090Y194018D01*
X669085Y194024D01*
X669073Y194035D01*
X669057Y194052D01*
X669035Y194079D01*
X669007Y194113D01*
X668974Y194157D01*
X668946Y194201D01*
X668907Y194257D01*
X668874Y194312D01*
X668846Y194379D01*
X668785Y194529D01*
X668763Y194606D01*
X668746Y194695D01*
X668735Y194784D01*
X668729Y194878D01*
Y194917D01*
X668735Y194945D01*
Y194973D01*
X668741Y195012D01*
X668757Y195106D01*
X668779Y195211D01*
X668818Y195328D01*
X668868Y195445D01*
X668935Y195561D01*
Y195567D01*
X668946Y195572D01*
X668957Y195589D01*
X668974Y195611D01*
X669018Y195667D01*
X669079Y195739D01*
X669162Y195811D01*
X669262Y195894D01*
X669379Y195966D01*
X669512Y196033D01*
X669518D01*
X669529Y196038D01*
X669551Y196049D01*
X669579Y196061D01*
X669617Y196072D01*
X669667Y196088D01*
X669723Y196099D01*
X669784Y196116D01*
X669856Y196133D01*
X669939Y196149D01*
X670028Y196160D01*
X670122Y196172D01*
X670228Y196183D01*
X670339Y196194D01*
X670461Y196199D01*
X670589D01*
X670594D01*
X670622D01*
X670661D01*
X670711D01*
X670772Y196194D01*
D02*
G37*
G36*
X672587Y192742D02*
X671787Y192237D01*
X671782D01*
X671771Y192226D01*
X671754Y192215D01*
X671732Y192198D01*
X671671Y192159D01*
X671593Y192109D01*
X671510Y192048D01*
X671421Y191987D01*
X671338Y191926D01*
X671260Y191870D01*
X671255Y191865D01*
X671232Y191848D01*
X671199Y191820D01*
X671160Y191781D01*
X671077Y191698D01*
X671038Y191654D01*
X671005Y191610D01*
X670999Y191604D01*
X670994Y191593D01*
X670983Y191571D01*
X670966Y191537D01*
X670949Y191504D01*
X670933Y191465D01*
X670905Y191376D01*
Y191371D01*
X670899Y191360D01*
Y191338D01*
X670894Y191310D01*
X670888Y191271D01*
Y191226D01*
X670883Y191165D01*
Y190511D01*
X672587D01*
Y190000D01*
X668746D01*
Y191781D01*
X668752Y191826D01*
Y191876D01*
X668757Y191992D01*
X668774Y192115D01*
X668790Y192248D01*
X668818Y192370D01*
X668835Y192431D01*
X668852Y192481D01*
Y192486D01*
X668857Y192492D01*
X668874Y192525D01*
X668896Y192575D01*
X668935Y192636D01*
X668985Y192703D01*
X669051Y192775D01*
X669129Y192842D01*
X669218Y192908D01*
X669223D01*
X669229Y192914D01*
X669262Y192936D01*
X669318Y192958D01*
X669390Y192991D01*
X669473Y193019D01*
X669573Y193047D01*
X669678Y193064D01*
X669795Y193069D01*
X669801D01*
X669812D01*
X669834D01*
X669862Y193064D01*
X669900D01*
X669939Y193058D01*
X670034Y193036D01*
X670145Y193002D01*
X670261Y192958D01*
X670378Y192892D01*
X670433Y192847D01*
X670489Y192803D01*
X670494Y192797D01*
X670500Y192792D01*
X670516Y192775D01*
X670533Y192753D01*
X670555Y192725D01*
X670577Y192692D01*
X670605Y192647D01*
X670639Y192603D01*
X670666Y192548D01*
X670694Y192486D01*
X670727Y192420D01*
X670755Y192348D01*
X670777Y192264D01*
X670805Y192181D01*
X670822Y192087D01*
X670838Y191987D01*
X670844Y191998D01*
X670855Y192020D01*
X670877Y192053D01*
X670899Y192098D01*
X670961Y192198D01*
X670999Y192248D01*
X671033Y192292D01*
X671044Y192303D01*
X671071Y192331D01*
X671116Y192375D01*
X671171Y192431D01*
X671249Y192492D01*
X671332Y192564D01*
X671432Y192636D01*
X671543Y192714D01*
X672587Y193374D01*
Y192742D01*
D02*
G37*
G36*
X667201Y230248D02*
X667251D01*
X667367Y230243D01*
X667489Y230226D01*
X667623Y230210D01*
X667745Y230182D01*
X667806Y230165D01*
X667856Y230149D01*
X667861D01*
X667867Y230143D01*
X667900Y230126D01*
X667950Y230104D01*
X668011Y230065D01*
X668078Y230015D01*
X668150Y229949D01*
X668217Y229871D01*
X668283Y229782D01*
Y229777D01*
X668289Y229771D01*
X668311Y229738D01*
X668333Y229682D01*
X668366Y229610D01*
X668394Y229527D01*
X668422Y229427D01*
X668439Y229322D01*
X668444Y229205D01*
Y229200D01*
Y229188D01*
Y229166D01*
X668439Y229138D01*
Y229100D01*
X668433Y229061D01*
X668411Y228966D01*
X668377Y228855D01*
X668333Y228739D01*
X668266Y228622D01*
X668222Y228567D01*
X668178Y228511D01*
X668172Y228506D01*
X668167Y228500D01*
X668150Y228484D01*
X668128Y228467D01*
X668100Y228445D01*
X668067Y228422D01*
X668022Y228395D01*
X667978Y228361D01*
X667922Y228334D01*
X667861Y228306D01*
X667795Y228273D01*
X667723Y228245D01*
X667639Y228223D01*
X667556Y228195D01*
X667462Y228178D01*
X667362Y228162D01*
X667373Y228156D01*
X667395Y228145D01*
X667428Y228123D01*
X667473Y228101D01*
X667573Y228040D01*
X667623Y228001D01*
X667667Y227967D01*
X667678Y227956D01*
X667706Y227928D01*
X667750Y227884D01*
X667806Y227829D01*
X667867Y227751D01*
X667939Y227668D01*
X668011Y227568D01*
X668089Y227457D01*
X668749Y226413D01*
X668117D01*
X667612Y227213D01*
Y227218D01*
X667600Y227229D01*
X667589Y227246D01*
X667573Y227268D01*
X667534Y227329D01*
X667484Y227407D01*
X667423Y227490D01*
X667362Y227579D01*
X667301Y227662D01*
X667245Y227740D01*
X667240Y227745D01*
X667223Y227768D01*
X667195Y227801D01*
X667157Y227840D01*
X667073Y227923D01*
X667029Y227962D01*
X666985Y227995D01*
X666979Y228001D01*
X666968Y228006D01*
X666946Y228017D01*
X666912Y228034D01*
X666879Y228051D01*
X666840Y228067D01*
X666751Y228095D01*
X666746D01*
X666735Y228101D01*
X666713D01*
X666685Y228106D01*
X666646Y228112D01*
X666602D01*
X666540Y228117D01*
X665886D01*
Y226413D01*
X665375D01*
Y230254D01*
X667157D01*
X667201Y230248D01*
D02*
G37*
G36*
X670381Y230265D02*
X670426Y230259D01*
X670475Y230254D01*
X670531Y230248D01*
X670586Y230232D01*
X670720Y230199D01*
X670853Y230149D01*
X670919Y230115D01*
X670986Y230076D01*
X671047Y230026D01*
X671108Y229977D01*
X671114Y229971D01*
X671119Y229965D01*
X671136Y229949D01*
X671158Y229926D01*
X671180Y229893D01*
X671208Y229860D01*
X671264Y229777D01*
X671319Y229671D01*
X671369Y229549D01*
X671408Y229410D01*
X671413Y229338D01*
X671419Y229260D01*
Y229255D01*
Y229249D01*
Y229216D01*
X671413Y229166D01*
X671402Y229105D01*
X671386Y229027D01*
X671358Y228950D01*
X671325Y228872D01*
X671275Y228794D01*
X671269Y228783D01*
X671247Y228761D01*
X671214Y228728D01*
X671169Y228683D01*
X671108Y228633D01*
X671036Y228583D01*
X670953Y228534D01*
X670853Y228489D01*
X670858D01*
X670869Y228484D01*
X670886Y228478D01*
X670908Y228467D01*
X670975Y228439D01*
X671053Y228400D01*
X671136Y228345D01*
X671225Y228284D01*
X671308Y228206D01*
X671386Y228117D01*
Y228112D01*
X671391Y228106D01*
X671413Y228073D01*
X671447Y228017D01*
X671480Y227945D01*
X671513Y227856D01*
X671547Y227751D01*
X671569Y227634D01*
X671574Y227507D01*
Y227501D01*
Y227484D01*
Y227457D01*
X671569Y227424D01*
X671563Y227385D01*
X671558Y227335D01*
X671547Y227279D01*
X671530Y227218D01*
X671491Y227091D01*
X671463Y227018D01*
X671424Y226952D01*
X671386Y226880D01*
X671341Y226813D01*
X671286Y226746D01*
X671225Y226680D01*
X671219Y226674D01*
X671208Y226663D01*
X671191Y226646D01*
X671164Y226630D01*
X671125Y226602D01*
X671086Y226574D01*
X671036Y226547D01*
X670981Y226513D01*
X670919Y226480D01*
X670847Y226452D01*
X670770Y226425D01*
X670692Y226397D01*
X670603Y226380D01*
X670509Y226363D01*
X670414Y226352D01*
X670309Y226347D01*
X670253D01*
X670215Y226352D01*
X670165Y226358D01*
X670109Y226363D01*
X670048Y226375D01*
X669981Y226391D01*
X669832Y226430D01*
X669754Y226458D01*
X669682Y226485D01*
X669604Y226524D01*
X669526Y226569D01*
X669454Y226619D01*
X669388Y226680D01*
X669382Y226685D01*
X669371Y226696D01*
X669354Y226713D01*
X669332Y226741D01*
X669310Y226774D01*
X669277Y226813D01*
X669249Y226857D01*
X669216Y226913D01*
X669182Y226968D01*
X669155Y227035D01*
X669099Y227174D01*
X669077Y227257D01*
X669060Y227340D01*
X669049Y227429D01*
X669043Y227518D01*
Y227523D01*
Y227535D01*
Y227557D01*
X669049Y227579D01*
Y227612D01*
X669055Y227651D01*
X669066Y227740D01*
X669088Y227840D01*
X669121Y227940D01*
X669171Y228045D01*
X669232Y228145D01*
Y228151D01*
X669243Y228156D01*
X669266Y228184D01*
X669310Y228228D01*
X669371Y228284D01*
X669449Y228339D01*
X669543Y228400D01*
X669649Y228450D01*
X669776Y228489D01*
X669771D01*
X669765Y228495D01*
X669748Y228500D01*
X669726Y228511D01*
X669676Y228534D01*
X669610Y228567D01*
X669537Y228611D01*
X669465Y228667D01*
X669399Y228728D01*
X669338Y228794D01*
X669332Y228805D01*
X669315Y228828D01*
X669293Y228872D01*
X669271Y228927D01*
X669243Y229000D01*
X669221Y229083D01*
X669205Y229177D01*
X669199Y229277D01*
Y229283D01*
Y229294D01*
Y229316D01*
X669205Y229349D01*
X669210Y229383D01*
X669216Y229427D01*
X669238Y229521D01*
X669271Y229632D01*
X669327Y229749D01*
X669360Y229810D01*
X669399Y229871D01*
X669449Y229926D01*
X669499Y229982D01*
X669504Y229988D01*
X669515Y229993D01*
X669532Y230010D01*
X669554Y230026D01*
X669582Y230049D01*
X669621Y230071D01*
X669665Y230099D01*
X669709Y230126D01*
X669765Y230154D01*
X669826Y230182D01*
X669893Y230204D01*
X669965Y230226D01*
X670120Y230259D01*
X670209Y230265D01*
X670298Y230271D01*
X670348D01*
X670381Y230265D01*
D02*
G37*
G36*
X665200Y259872D02*
X665195Y259866D01*
X665183Y259855D01*
X665161Y259833D01*
X665139Y259799D01*
X665106Y259761D01*
X665061Y259716D01*
X665017Y259661D01*
X664967Y259594D01*
X664917Y259527D01*
X664856Y259450D01*
X664795Y259361D01*
X664734Y259272D01*
X664667Y259172D01*
X664601Y259067D01*
X664534Y258950D01*
X664468Y258834D01*
X664462Y258828D01*
X664451Y258806D01*
X664434Y258773D01*
X664406Y258723D01*
X664379Y258662D01*
X664346Y258595D01*
X664307Y258517D01*
X664268Y258429D01*
X664223Y258329D01*
X664173Y258229D01*
X664129Y258118D01*
X664085Y258001D01*
X663996Y257763D01*
X663913Y257507D01*
Y257502D01*
X663907Y257485D01*
X663902Y257457D01*
X663890Y257424D01*
X663879Y257380D01*
X663868Y257324D01*
X663851Y257263D01*
X663840Y257196D01*
X663824Y257119D01*
X663807Y257035D01*
X663779Y256858D01*
X663752Y256664D01*
X663735Y256453D01*
X663252D01*
Y256458D01*
Y256475D01*
Y256497D01*
X663258Y256530D01*
Y256575D01*
X663263Y256630D01*
X663269Y256691D01*
X663274Y256758D01*
X663285Y256836D01*
X663297Y256913D01*
X663313Y257008D01*
X663330Y257102D01*
X663346Y257202D01*
X663369Y257313D01*
X663424Y257541D01*
Y257546D01*
X663430Y257568D01*
X663441Y257602D01*
X663457Y257652D01*
X663474Y257707D01*
X663496Y257774D01*
X663518Y257851D01*
X663552Y257935D01*
X663585Y258029D01*
X663618Y258123D01*
X663702Y258334D01*
X663802Y258556D01*
X663913Y258778D01*
X663918Y258784D01*
X663929Y258806D01*
X663946Y258834D01*
X663968Y258878D01*
X663996Y258928D01*
X664035Y258989D01*
X664074Y259056D01*
X664118Y259128D01*
X664223Y259289D01*
X664334Y259455D01*
X664462Y259627D01*
X664595Y259788D01*
X662714D01*
Y260243D01*
X665200D01*
Y259872D01*
D02*
G37*
G36*
X660832Y260288D02*
X660882D01*
X660999Y260282D01*
X661121Y260266D01*
X661254Y260249D01*
X661376Y260221D01*
X661437Y260205D01*
X661487Y260188D01*
X661493D01*
X661498Y260182D01*
X661532Y260166D01*
X661582Y260143D01*
X661643Y260105D01*
X661709Y260055D01*
X661781Y259988D01*
X661848Y259910D01*
X661915Y259822D01*
Y259816D01*
X661920Y259810D01*
X661942Y259777D01*
X661965Y259722D01*
X661998Y259650D01*
X662026Y259566D01*
X662053Y259466D01*
X662070Y259361D01*
X662076Y259244D01*
Y259239D01*
Y259228D01*
Y259206D01*
X662070Y259178D01*
Y259139D01*
X662064Y259100D01*
X662042Y259006D01*
X662009Y258895D01*
X661965Y258778D01*
X661898Y258662D01*
X661854Y258606D01*
X661809Y258551D01*
X661804Y258545D01*
X661798Y258540D01*
X661781Y258523D01*
X661759Y258506D01*
X661731Y258484D01*
X661698Y258462D01*
X661654Y258434D01*
X661609Y258401D01*
X661554Y258373D01*
X661493Y258345D01*
X661426Y258312D01*
X661354Y258284D01*
X661271Y258262D01*
X661188Y258234D01*
X661093Y258218D01*
X660993Y258201D01*
X661004Y258195D01*
X661027Y258184D01*
X661060Y258162D01*
X661104Y258140D01*
X661204Y258079D01*
X661254Y258040D01*
X661299Y258007D01*
X661310Y257996D01*
X661337Y257968D01*
X661382Y257924D01*
X661437Y257868D01*
X661498Y257790D01*
X661571Y257707D01*
X661643Y257607D01*
X661720Y257496D01*
X662381Y256453D01*
X661748D01*
X661243Y257252D01*
Y257258D01*
X661232Y257269D01*
X661221Y257285D01*
X661204Y257308D01*
X661165Y257368D01*
X661115Y257446D01*
X661054Y257529D01*
X660993Y257618D01*
X660932Y257701D01*
X660877Y257779D01*
X660871Y257785D01*
X660854Y257807D01*
X660827Y257840D01*
X660788Y257879D01*
X660705Y257962D01*
X660660Y258001D01*
X660616Y258034D01*
X660610Y258040D01*
X660599Y258046D01*
X660577Y258057D01*
X660544Y258073D01*
X660510Y258090D01*
X660472Y258107D01*
X660383Y258134D01*
X660377D01*
X660366Y258140D01*
X660344D01*
X660316Y258145D01*
X660277Y258151D01*
X660233D01*
X660172Y258157D01*
X659517D01*
Y256453D01*
X659006D01*
Y260293D01*
X660788D01*
X660832Y260288D01*
D02*
G37*
G36*
X665286Y196188D02*
X665330Y196183D01*
X665380Y196172D01*
X665436Y196160D01*
X665497Y196149D01*
X665630Y196105D01*
X665702Y196072D01*
X665768Y196038D01*
X665841Y195994D01*
X665913Y195944D01*
X665985Y195889D01*
X666052Y195822D01*
X666057Y195816D01*
X666068Y195805D01*
X666085Y195783D01*
X666107Y195755D01*
X666135Y195722D01*
X666163Y195678D01*
X666196Y195628D01*
X666224Y195567D01*
X666257Y195506D01*
X666290Y195433D01*
X666318Y195361D01*
X666346Y195278D01*
X666368Y195189D01*
X666385Y195095D01*
X666396Y195001D01*
X666401Y194895D01*
Y194845D01*
X666396Y194812D01*
X666390Y194767D01*
X666385Y194718D01*
X666373Y194662D01*
X666362Y194601D01*
X666329Y194468D01*
X666274Y194329D01*
X666240Y194257D01*
X666201Y194190D01*
X666152Y194124D01*
X666102Y194057D01*
X666096Y194052D01*
X666085Y194040D01*
X666068Y194024D01*
X666046Y194007D01*
X666018Y193979D01*
X665979Y193952D01*
X665941Y193918D01*
X665891Y193885D01*
X665835Y193852D01*
X665780Y193818D01*
X665646Y193757D01*
X665491Y193707D01*
X665408Y193691D01*
X665319Y193680D01*
X665258Y194151D01*
X665264D01*
X665275Y194157D01*
X665297Y194162D01*
X665324Y194168D01*
X665358Y194174D01*
X665397Y194185D01*
X665480Y194212D01*
X665580Y194251D01*
X665674Y194301D01*
X665763Y194357D01*
X665841Y194423D01*
X665846Y194434D01*
X665868Y194457D01*
X665896Y194501D01*
X665924Y194556D01*
X665957Y194623D01*
X665985Y194706D01*
X666007Y194801D01*
X666013Y194901D01*
Y194934D01*
X666007Y194956D01*
X666002Y195017D01*
X665985Y195095D01*
X665957Y195184D01*
X665918Y195278D01*
X665863Y195372D01*
X665785Y195461D01*
X665774Y195472D01*
X665741Y195500D01*
X665691Y195533D01*
X665624Y195578D01*
X665541Y195622D01*
X665447Y195655D01*
X665336Y195683D01*
X665213Y195694D01*
X665208D01*
X665197D01*
X665180D01*
X665158Y195689D01*
X665097Y195683D01*
X665025Y195667D01*
X664936Y195644D01*
X664847Y195606D01*
X664758Y195550D01*
X664675Y195478D01*
X664664Y195467D01*
X664642Y195439D01*
X664609Y195395D01*
X664570Y195334D01*
X664531Y195256D01*
X664498Y195161D01*
X664475Y195056D01*
X664464Y194939D01*
Y194890D01*
X664470Y194851D01*
X664475Y194801D01*
X664487Y194745D01*
X664498Y194679D01*
X664514Y194606D01*
X664098Y194662D01*
Y194690D01*
X664104Y194712D01*
Y194784D01*
X664092Y194845D01*
X664081Y194917D01*
X664065Y195001D01*
X664037Y195095D01*
X663998Y195184D01*
X663948Y195278D01*
Y195284D01*
X663943Y195289D01*
X663920Y195317D01*
X663881Y195356D01*
X663832Y195400D01*
X663759Y195445D01*
X663676Y195483D01*
X663582Y195511D01*
X663526Y195522D01*
X663465D01*
X663460D01*
X663454D01*
X663421D01*
X663377Y195511D01*
X663315Y195500D01*
X663249Y195478D01*
X663177Y195450D01*
X663104Y195406D01*
X663038Y195345D01*
X663032Y195339D01*
X663010Y195311D01*
X662982Y195273D01*
X662949Y195223D01*
X662921Y195156D01*
X662894Y195078D01*
X662871Y194990D01*
X662866Y194890D01*
Y194845D01*
X662877Y194795D01*
X662888Y194729D01*
X662910Y194656D01*
X662938Y194584D01*
X662982Y194507D01*
X663038Y194434D01*
X663043Y194429D01*
X663071Y194407D01*
X663110Y194373D01*
X663166Y194334D01*
X663238Y194296D01*
X663327Y194257D01*
X663432Y194224D01*
X663554Y194201D01*
X663471Y193730D01*
X663465D01*
X663449Y193735D01*
X663426Y193741D01*
X663393Y193746D01*
X663354Y193757D01*
X663310Y193774D01*
X663204Y193807D01*
X663082Y193863D01*
X662960Y193929D01*
X662844Y194013D01*
X662738Y194118D01*
X662733Y194124D01*
X662727Y194135D01*
X662716Y194151D01*
X662699Y194174D01*
X662677Y194201D01*
X662655Y194240D01*
X662633Y194279D01*
X662605Y194329D01*
X662561Y194440D01*
X662516Y194568D01*
X662489Y194718D01*
X662477Y194795D01*
Y194934D01*
X662483Y194995D01*
X662494Y195067D01*
X662511Y195156D01*
X662538Y195256D01*
X662572Y195356D01*
X662616Y195456D01*
Y195461D01*
X662622Y195467D01*
X662638Y195500D01*
X662672Y195550D01*
X662711Y195606D01*
X662766Y195672D01*
X662827Y195739D01*
X662899Y195805D01*
X662982Y195861D01*
X662993Y195866D01*
X663021Y195883D01*
X663071Y195905D01*
X663132Y195933D01*
X663204Y195961D01*
X663288Y195983D01*
X663382Y196000D01*
X663476Y196005D01*
X663487D01*
X663521D01*
X663565Y196000D01*
X663626Y195988D01*
X663698Y195972D01*
X663776Y195944D01*
X663854Y195911D01*
X663932Y195866D01*
X663943Y195861D01*
X663965Y195844D01*
X664004Y195811D01*
X664048Y195766D01*
X664098Y195711D01*
X664153Y195644D01*
X664203Y195567D01*
X664253Y195472D01*
Y195478D01*
X664259Y195489D01*
X664264Y195506D01*
X664270Y195528D01*
X664292Y195589D01*
X664326Y195667D01*
X664370Y195755D01*
X664425Y195844D01*
X664498Y195927D01*
X664581Y196005D01*
X664592Y196011D01*
X664625Y196033D01*
X664681Y196066D01*
X664753Y196099D01*
X664842Y196133D01*
X664947Y196166D01*
X665069Y196188D01*
X665202Y196194D01*
X665208D01*
X665225D01*
X665252D01*
X665286Y196188D01*
D02*
G37*
G36*
X666335Y192742D02*
X665535Y192237D01*
X665530D01*
X665519Y192226D01*
X665502Y192215D01*
X665480Y192198D01*
X665419Y192159D01*
X665341Y192109D01*
X665258Y192048D01*
X665169Y191987D01*
X665086Y191926D01*
X665008Y191870D01*
X665003Y191865D01*
X664980Y191848D01*
X664947Y191820D01*
X664908Y191781D01*
X664825Y191698D01*
X664786Y191654D01*
X664753Y191610D01*
X664747Y191604D01*
X664742Y191593D01*
X664731Y191571D01*
X664714Y191537D01*
X664697Y191504D01*
X664681Y191465D01*
X664653Y191376D01*
Y191371D01*
X664647Y191360D01*
Y191338D01*
X664642Y191310D01*
X664636Y191271D01*
Y191226D01*
X664631Y191165D01*
Y190511D01*
X666335D01*
Y190000D01*
X662494D01*
Y191781D01*
X662500Y191826D01*
Y191876D01*
X662505Y191992D01*
X662522Y192115D01*
X662538Y192248D01*
X662566Y192370D01*
X662583Y192431D01*
X662600Y192481D01*
Y192486D01*
X662605Y192492D01*
X662622Y192525D01*
X662644Y192575D01*
X662683Y192636D01*
X662733Y192703D01*
X662799Y192775D01*
X662877Y192842D01*
X662966Y192908D01*
X662971D01*
X662977Y192914D01*
X663010Y192936D01*
X663066Y192958D01*
X663138Y192991D01*
X663221Y193019D01*
X663321Y193047D01*
X663426Y193064D01*
X663543Y193069D01*
X663549D01*
X663560D01*
X663582D01*
X663610Y193064D01*
X663648D01*
X663687Y193058D01*
X663782Y193036D01*
X663893Y193002D01*
X664009Y192958D01*
X664126Y192892D01*
X664181Y192847D01*
X664237Y192803D01*
X664242Y192797D01*
X664248Y192792D01*
X664264Y192775D01*
X664281Y192753D01*
X664303Y192725D01*
X664326Y192692D01*
X664353Y192647D01*
X664387Y192603D01*
X664414Y192548D01*
X664442Y192486D01*
X664475Y192420D01*
X664503Y192348D01*
X664525Y192264D01*
X664553Y192181D01*
X664570Y192087D01*
X664586Y191987D01*
X664592Y191998D01*
X664603Y192020D01*
X664625Y192053D01*
X664647Y192098D01*
X664709Y192198D01*
X664747Y192248D01*
X664781Y192292D01*
X664792Y192303D01*
X664819Y192331D01*
X664864Y192375D01*
X664919Y192431D01*
X664997Y192492D01*
X665080Y192564D01*
X665180Y192636D01*
X665291Y192714D01*
X666335Y193374D01*
Y192742D01*
D02*
G37*
G36*
X668539Y244852D02*
X668584Y244846D01*
X668639Y244841D01*
X668700Y244830D01*
X668761Y244818D01*
X668906Y244780D01*
X669050Y244724D01*
X669122Y244691D01*
X669194Y244652D01*
X669261Y244602D01*
X669322Y244547D01*
X669327Y244541D01*
X669339Y244535D01*
X669350Y244513D01*
X669372Y244491D01*
X669400Y244463D01*
X669427Y244424D01*
X669455Y244386D01*
X669488Y244336D01*
X669544Y244230D01*
X669599Y244097D01*
X669622Y244030D01*
X669633Y243953D01*
X669644Y243875D01*
X669649Y243792D01*
Y243780D01*
Y243753D01*
X669644Y243708D01*
X669638Y243647D01*
X669627Y243581D01*
X669605Y243503D01*
X669583Y243420D01*
X669550Y243337D01*
X669544Y243325D01*
X669533Y243298D01*
X669511Y243253D01*
X669477Y243192D01*
X669433Y243126D01*
X669378Y243042D01*
X669311Y242959D01*
X669233Y242865D01*
X669222Y242854D01*
X669194Y242820D01*
X669167Y242793D01*
X669139Y242765D01*
X669105Y242732D01*
X669061Y242687D01*
X669017Y242643D01*
X668961Y242593D01*
X668906Y242537D01*
X668839Y242476D01*
X668767Y242415D01*
X668689Y242343D01*
X668601Y242271D01*
X668512Y242193D01*
X668506Y242188D01*
X668495Y242177D01*
X668473Y242160D01*
X668445Y242138D01*
X668412Y242104D01*
X668373Y242071D01*
X668284Y241999D01*
X668190Y241916D01*
X668101Y241832D01*
X668023Y241760D01*
X667990Y241733D01*
X667962Y241705D01*
X667957Y241699D01*
X667940Y241683D01*
X667918Y241660D01*
X667890Y241627D01*
X667862Y241588D01*
X667829Y241549D01*
X667762Y241455D01*
X669655D01*
Y241000D01*
X667107D01*
Y241005D01*
Y241028D01*
Y241061D01*
X667113Y241106D01*
X667119Y241155D01*
X667130Y241211D01*
X667141Y241266D01*
X667163Y241327D01*
Y241333D01*
X667169Y241338D01*
X667180Y241372D01*
X667202Y241422D01*
X667235Y241488D01*
X667280Y241566D01*
X667335Y241655D01*
X667396Y241744D01*
X667474Y241838D01*
Y241844D01*
X667485Y241849D01*
X667513Y241882D01*
X667563Y241932D01*
X667635Y242005D01*
X667718Y242088D01*
X667823Y242188D01*
X667951Y242299D01*
X668090Y242415D01*
X668095Y242421D01*
X668118Y242437D01*
X668151Y242465D01*
X668190Y242498D01*
X668240Y242543D01*
X668301Y242593D01*
X668362Y242648D01*
X668434Y242709D01*
X668573Y242843D01*
X668711Y242976D01*
X668778Y243042D01*
X668839Y243109D01*
X668895Y243170D01*
X668939Y243231D01*
Y243237D01*
X668950Y243242D01*
X668961Y243259D01*
X668972Y243281D01*
X669011Y243342D01*
X669056Y243414D01*
X669094Y243503D01*
X669133Y243597D01*
X669156Y243703D01*
X669167Y243803D01*
Y243808D01*
Y243814D01*
X669161Y243847D01*
X669156Y243903D01*
X669139Y243964D01*
X669117Y244041D01*
X669078Y244119D01*
X669028Y244197D01*
X668961Y244274D01*
X668950Y244286D01*
X668922Y244308D01*
X668884Y244336D01*
X668822Y244374D01*
X668745Y244408D01*
X668656Y244441D01*
X668550Y244463D01*
X668434Y244469D01*
X668401D01*
X668378Y244463D01*
X668312Y244458D01*
X668234Y244441D01*
X668151Y244419D01*
X668056Y244380D01*
X667968Y244330D01*
X667884Y244263D01*
X667873Y244252D01*
X667851Y244225D01*
X667818Y244180D01*
X667785Y244113D01*
X667746Y244036D01*
X667712Y243936D01*
X667690Y243825D01*
X667679Y243697D01*
X667196Y243747D01*
Y243753D01*
X667202Y243770D01*
Y243797D01*
X667207Y243836D01*
X667218Y243881D01*
X667230Y243930D01*
X667246Y243991D01*
X667263Y244053D01*
X667307Y244186D01*
X667374Y244319D01*
X667413Y244386D01*
X667463Y244452D01*
X667513Y244513D01*
X667568Y244569D01*
X667574Y244574D01*
X667585Y244580D01*
X667601Y244596D01*
X667629Y244613D01*
X667662Y244635D01*
X667701Y244657D01*
X667746Y244685D01*
X667801Y244713D01*
X667862Y244741D01*
X667929Y244768D01*
X668001Y244791D01*
X668079Y244813D01*
X668162Y244830D01*
X668251Y244846D01*
X668345Y244852D01*
X668445Y244857D01*
X668501D01*
X668539Y244852D01*
D02*
G37*
G36*
X665326Y244835D02*
X665376D01*
X665492Y244830D01*
X665615Y244813D01*
X665748Y244796D01*
X665870Y244768D01*
X665931Y244752D01*
X665981Y244735D01*
X665986D01*
X665992Y244730D01*
X666025Y244713D01*
X666075Y244691D01*
X666136Y244652D01*
X666203Y244602D01*
X666275Y244535D01*
X666342Y244458D01*
X666408Y244369D01*
Y244363D01*
X666414Y244358D01*
X666436Y244324D01*
X666458Y244269D01*
X666491Y244197D01*
X666519Y244113D01*
X666547Y244014D01*
X666564Y243908D01*
X666569Y243792D01*
Y243786D01*
Y243775D01*
Y243753D01*
X666564Y243725D01*
Y243686D01*
X666558Y243647D01*
X666536Y243553D01*
X666503Y243442D01*
X666458Y243325D01*
X666392Y243209D01*
X666347Y243153D01*
X666303Y243098D01*
X666297Y243092D01*
X666292Y243087D01*
X666275Y243070D01*
X666253Y243054D01*
X666225Y243031D01*
X666192Y243009D01*
X666147Y242981D01*
X666103Y242948D01*
X666047Y242920D01*
X665986Y242893D01*
X665920Y242859D01*
X665848Y242831D01*
X665764Y242809D01*
X665681Y242782D01*
X665587Y242765D01*
X665487Y242748D01*
X665498Y242743D01*
X665520Y242732D01*
X665554Y242709D01*
X665598Y242687D01*
X665698Y242626D01*
X665748Y242587D01*
X665792Y242554D01*
X665803Y242543D01*
X665831Y242515D01*
X665875Y242471D01*
X665931Y242415D01*
X665992Y242338D01*
X666064Y242254D01*
X666136Y242154D01*
X666214Y242043D01*
X666874Y241000D01*
X666242D01*
X665737Y241799D01*
Y241805D01*
X665726Y241816D01*
X665715Y241832D01*
X665698Y241855D01*
X665659Y241916D01*
X665609Y241993D01*
X665548Y242077D01*
X665487Y242165D01*
X665426Y242249D01*
X665370Y242326D01*
X665365Y242332D01*
X665348Y242354D01*
X665320Y242388D01*
X665281Y242426D01*
X665198Y242510D01*
X665154Y242548D01*
X665109Y242582D01*
X665104Y242587D01*
X665093Y242593D01*
X665071Y242604D01*
X665037Y242621D01*
X665004Y242637D01*
X664965Y242654D01*
X664876Y242682D01*
X664871D01*
X664860Y242687D01*
X664838D01*
X664810Y242693D01*
X664771Y242698D01*
X664727D01*
X664666Y242704D01*
X664011D01*
Y241000D01*
X663500D01*
Y244841D01*
X665281D01*
X665326Y244835D01*
D02*
G37*
G36*
X684403Y256500D02*
X683931D01*
Y259503D01*
X683926Y259497D01*
X683898Y259475D01*
X683864Y259441D01*
X683809Y259403D01*
X683748Y259353D01*
X683670Y259297D01*
X683581Y259236D01*
X683482Y259175D01*
X683476D01*
X683470Y259170D01*
X683437Y259147D01*
X683382Y259120D01*
X683315Y259086D01*
X683237Y259047D01*
X683154Y259009D01*
X683071Y258970D01*
X682988Y258937D01*
Y259392D01*
X682993D01*
X683004Y259403D01*
X683027Y259408D01*
X683054Y259425D01*
X683087Y259441D01*
X683126Y259464D01*
X683221Y259519D01*
X683332Y259580D01*
X683443Y259658D01*
X683559Y259747D01*
X683676Y259841D01*
X683681Y259847D01*
X683687Y259852D01*
X683704Y259869D01*
X683726Y259886D01*
X683776Y259941D01*
X683842Y260008D01*
X683909Y260085D01*
X683981Y260174D01*
X684042Y260263D01*
X684098Y260357D01*
X684403D01*
Y256500D01*
D02*
G37*
G36*
X680779Y260335D02*
X680829D01*
X680945Y260330D01*
X681067Y260313D01*
X681201Y260296D01*
X681323Y260268D01*
X681384Y260252D01*
X681434Y260235D01*
X681439D01*
X681445Y260230D01*
X681478Y260213D01*
X681528Y260191D01*
X681589Y260152D01*
X681656Y260102D01*
X681728Y260035D01*
X681794Y259958D01*
X681861Y259869D01*
Y259863D01*
X681867Y259858D01*
X681889Y259824D01*
X681911Y259769D01*
X681944Y259697D01*
X681972Y259613D01*
X682000Y259514D01*
X682016Y259408D01*
X682022Y259292D01*
Y259286D01*
Y259275D01*
Y259253D01*
X682016Y259225D01*
Y259186D01*
X682011Y259147D01*
X681989Y259053D01*
X681955Y258942D01*
X681911Y258825D01*
X681844Y258709D01*
X681800Y258653D01*
X681755Y258598D01*
X681750Y258592D01*
X681744Y258587D01*
X681728Y258570D01*
X681706Y258554D01*
X681678Y258531D01*
X681644Y258509D01*
X681600Y258481D01*
X681556Y258448D01*
X681500Y258420D01*
X681439Y258393D01*
X681373Y258359D01*
X681300Y258331D01*
X681217Y258309D01*
X681134Y258282D01*
X681040Y258265D01*
X680940Y258248D01*
X680951Y258243D01*
X680973Y258232D01*
X681006Y258209D01*
X681051Y258187D01*
X681151Y258126D01*
X681201Y258087D01*
X681245Y258054D01*
X681256Y258043D01*
X681284Y258015D01*
X681328Y257971D01*
X681384Y257915D01*
X681445Y257838D01*
X681517Y257754D01*
X681589Y257654D01*
X681667Y257543D01*
X682327Y256500D01*
X681695D01*
X681189Y257299D01*
Y257305D01*
X681178Y257316D01*
X681167Y257332D01*
X681151Y257355D01*
X681112Y257416D01*
X681062Y257493D01*
X681001Y257577D01*
X680940Y257665D01*
X680879Y257749D01*
X680823Y257826D01*
X680818Y257832D01*
X680801Y257854D01*
X680773Y257888D01*
X680734Y257926D01*
X680651Y258010D01*
X680607Y258049D01*
X680562Y258082D01*
X680557Y258087D01*
X680546Y258093D01*
X680523Y258104D01*
X680490Y258121D01*
X680457Y258137D01*
X680418Y258154D01*
X680329Y258182D01*
X680324D01*
X680312Y258187D01*
X680290D01*
X680263Y258193D01*
X680224Y258198D01*
X680179D01*
X680118Y258204D01*
X679463D01*
Y256500D01*
X678953D01*
Y260341D01*
X680734D01*
X680779Y260335D01*
D02*
G37*
G36*
X683124Y184620D02*
X683175D01*
X683236Y184615D01*
X683302Y184604D01*
X683380Y184592D01*
X683541Y184565D01*
X683707Y184520D01*
X683874Y184459D01*
X683952Y184420D01*
X684029Y184376D01*
X684035Y184370D01*
X684046Y184365D01*
X684068Y184348D01*
X684090Y184326D01*
X684124Y184304D01*
X684162Y184271D01*
X684207Y184232D01*
X684251Y184187D01*
X684296Y184137D01*
X684345Y184087D01*
X684445Y183960D01*
X684540Y183810D01*
X684623Y183643D01*
Y183638D01*
X684634Y183621D01*
X684640Y183593D01*
X684656Y183560D01*
X684667Y183516D01*
X684684Y183460D01*
X684706Y183399D01*
X684723Y183333D01*
X684740Y183260D01*
X684762Y183177D01*
X684790Y183005D01*
X684812Y182811D01*
X684823Y182611D01*
Y182606D01*
Y182583D01*
Y182550D01*
X684817Y182511D01*
Y182456D01*
X684812Y182400D01*
X684806Y182328D01*
X684795Y182256D01*
X684767Y182095D01*
X684728Y181917D01*
X684673Y181740D01*
X684595Y181568D01*
X684590Y181562D01*
X684584Y181545D01*
X684573Y181523D01*
X684551Y181495D01*
X684529Y181457D01*
X684501Y181412D01*
X684429Y181312D01*
X684334Y181201D01*
X684223Y181090D01*
X684096Y180979D01*
X683946Y180885D01*
X683940Y180879D01*
X683924Y180874D01*
X683902Y180863D01*
X683874Y180846D01*
X683829Y180830D01*
X683785Y180813D01*
X683730Y180791D01*
X683668Y180769D01*
X683602Y180746D01*
X683530Y180724D01*
X683374Y180691D01*
X683197Y180663D01*
X683013Y180652D01*
X682958D01*
X682919Y180657D01*
X682869Y180663D01*
X682808Y180669D01*
X682747Y180674D01*
X682675Y180691D01*
X682525Y180724D01*
X682359Y180774D01*
X682275Y180807D01*
X682198Y180846D01*
X682120Y180896D01*
X682042Y180946D01*
X682037Y180952D01*
X682026Y180957D01*
X682003Y180974D01*
X681976Y181002D01*
X681948Y181029D01*
X681909Y181068D01*
X681870Y181113D01*
X681826Y181157D01*
X681781Y181212D01*
X681737Y181279D01*
X681687Y181346D01*
X681643Y181418D01*
X681604Y181501D01*
X681559Y181584D01*
X681526Y181673D01*
X681493Y181773D01*
X681992Y181890D01*
Y181884D01*
X681998Y181873D01*
X682009Y181851D01*
X682020Y181823D01*
X682031Y181790D01*
X682048Y181745D01*
X682092Y181657D01*
X682148Y181557D01*
X682214Y181457D01*
X682298Y181362D01*
X682386Y181279D01*
X682398Y181268D01*
X682431Y181246D01*
X682486Y181218D01*
X682558Y181179D01*
X682653Y181146D01*
X682758Y181113D01*
X682886Y181090D01*
X683025Y181085D01*
X683069D01*
X683097Y181090D01*
X683136D01*
X683180Y181096D01*
X683286Y181113D01*
X683402Y181135D01*
X683524Y181174D01*
X683652Y181229D01*
X683768Y181301D01*
X683774D01*
X683779Y181312D01*
X683818Y181340D01*
X683868Y181385D01*
X683929Y181451D01*
X684001Y181534D01*
X684068Y181629D01*
X684129Y181745D01*
X684185Y181873D01*
Y181878D01*
X684190Y181890D01*
X684196Y181906D01*
X684201Y181934D01*
X684212Y181967D01*
X684223Y182006D01*
X684240Y182100D01*
X684262Y182211D01*
X684284Y182334D01*
X684296Y182467D01*
X684301Y182611D01*
Y182617D01*
Y182633D01*
Y182661D01*
Y182694D01*
X684296Y182733D01*
Y182783D01*
X684290Y182839D01*
X684284Y182900D01*
X684268Y183033D01*
X684240Y183177D01*
X684207Y183321D01*
X684162Y183466D01*
Y183471D01*
X684157Y183482D01*
X684146Y183499D01*
X684135Y183527D01*
X684101Y183593D01*
X684051Y183671D01*
X683990Y183760D01*
X683913Y183854D01*
X683824Y183938D01*
X683718Y184015D01*
X683713D01*
X683702Y184021D01*
X683685Y184032D01*
X683663Y184043D01*
X683635Y184054D01*
X683602Y184071D01*
X683524Y184104D01*
X683424Y184137D01*
X683313Y184165D01*
X683191Y184187D01*
X683064Y184193D01*
X683025D01*
X682991Y184187D01*
X682952D01*
X682914Y184182D01*
X682814Y184160D01*
X682697Y184132D01*
X682581Y184087D01*
X682458Y184026D01*
X682398Y183993D01*
X682342Y183949D01*
X682336Y183943D01*
X682331Y183938D01*
X682314Y183921D01*
X682292Y183904D01*
X682270Y183877D01*
X682242Y183843D01*
X682209Y183810D01*
X682181Y183765D01*
X682148Y183715D01*
X682109Y183660D01*
X682076Y183605D01*
X682042Y183538D01*
X682015Y183466D01*
X681987Y183388D01*
X681959Y183305D01*
X681937Y183216D01*
X681426Y183344D01*
Y183349D01*
X681432Y183371D01*
X681443Y183405D01*
X681460Y183449D01*
X681476Y183499D01*
X681498Y183560D01*
X681526Y183627D01*
X681559Y183699D01*
X681637Y183854D01*
X681737Y184010D01*
X681798Y184087D01*
X681859Y184165D01*
X681926Y184232D01*
X682003Y184298D01*
X682009Y184304D01*
X682020Y184315D01*
X682048Y184326D01*
X682076Y184348D01*
X682120Y184376D01*
X682164Y184404D01*
X682225Y184432D01*
X682287Y184459D01*
X682359Y184493D01*
X682436Y184520D01*
X682520Y184548D01*
X682608Y184576D01*
X682703Y184598D01*
X682803Y184609D01*
X682908Y184620D01*
X683019Y184626D01*
X683080D01*
X683124Y184620D01*
D02*
G37*
G36*
X679689Y181557D02*
X679695Y181562D01*
X679722Y181584D01*
X679756Y181618D01*
X679811Y181657D01*
X679872Y181706D01*
X679950Y181762D01*
X680039Y181823D01*
X680139Y181884D01*
X680144D01*
X680150Y181890D01*
X680183Y181912D01*
X680238Y181939D01*
X680305Y181973D01*
X680383Y182012D01*
X680466Y182051D01*
X680549Y182089D01*
X680633Y182123D01*
Y181668D01*
X680627D01*
X680616Y181657D01*
X680594Y181651D01*
X680566Y181634D01*
X680533Y181618D01*
X680494Y181595D01*
X680400Y181540D01*
X680289Y181479D01*
X680177Y181401D01*
X680061Y181312D01*
X679944Y181218D01*
X679939Y181212D01*
X679933Y181207D01*
X679917Y181190D01*
X679894Y181174D01*
X679845Y181118D01*
X679778Y181052D01*
X679711Y180974D01*
X679639Y180885D01*
X679578Y180796D01*
X679523Y180702D01*
X679217D01*
Y184559D01*
X679689D01*
Y181557D01*
D02*
G37*
G36*
X676848Y184620D02*
X676892Y184615D01*
X676947Y184604D01*
X677008Y184592D01*
X677075Y184576D01*
X677142Y184554D01*
X677214Y184531D01*
X677286Y184498D01*
X677358Y184459D01*
X677430Y184415D01*
X677502Y184359D01*
X677569Y184298D01*
X677630Y184232D01*
X677636Y184226D01*
X677647Y184210D01*
X677663Y184182D01*
X677691Y184137D01*
X677719Y184087D01*
X677747Y184021D01*
X677785Y183943D01*
X677819Y183854D01*
X677852Y183754D01*
X677885Y183638D01*
X677919Y183510D01*
X677946Y183366D01*
X677974Y183211D01*
X677991Y183044D01*
X678002Y182861D01*
X678007Y182667D01*
Y182661D01*
Y182639D01*
Y182600D01*
Y182556D01*
X678002Y182494D01*
Y182428D01*
X677996Y182356D01*
X677991Y182273D01*
X677974Y182100D01*
X677946Y181917D01*
X677913Y181734D01*
X677891Y181651D01*
X677869Y181568D01*
Y181562D01*
X677863Y181551D01*
X677852Y181529D01*
X677841Y181501D01*
X677830Y181462D01*
X677808Y181423D01*
X677763Y181329D01*
X677708Y181229D01*
X677636Y181124D01*
X677552Y181018D01*
X677452Y180929D01*
X677447D01*
X677441Y180918D01*
X677425Y180907D01*
X677402Y180896D01*
X677375Y180874D01*
X677341Y180857D01*
X677258Y180813D01*
X677158Y180774D01*
X677042Y180735D01*
X676903Y180713D01*
X676753Y180702D01*
X676703D01*
X676642Y180707D01*
X676570Y180719D01*
X676487Y180735D01*
X676398Y180757D01*
X676304Y180785D01*
X676215Y180830D01*
X676209D01*
X676204Y180835D01*
X676176Y180852D01*
X676131Y180879D01*
X676076Y180918D01*
X676015Y180974D01*
X675948Y181035D01*
X675887Y181107D01*
X675826Y181190D01*
X675821Y181201D01*
X675799Y181229D01*
X675776Y181279D01*
X675737Y181351D01*
X675704Y181435D01*
X675660Y181529D01*
X675621Y181640D01*
X675588Y181762D01*
Y181767D01*
X675582Y181779D01*
X675576Y181795D01*
X675571Y181823D01*
X675565Y181856D01*
X675560Y181895D01*
X675549Y181945D01*
X675543Y182001D01*
X675532Y182062D01*
X675527Y182128D01*
X675521Y182206D01*
X675510Y182284D01*
X675504Y182372D01*
Y182461D01*
X675499Y182561D01*
Y182667D01*
Y182672D01*
Y182694D01*
Y182733D01*
Y182778D01*
X675504Y182839D01*
Y182905D01*
X675510Y182977D01*
X675516Y183055D01*
X675532Y183233D01*
X675560Y183416D01*
X675593Y183593D01*
X675615Y183677D01*
X675643Y183760D01*
Y183765D01*
X675649Y183777D01*
X675660Y183799D01*
X675671Y183826D01*
X675682Y183865D01*
X675704Y183904D01*
X675749Y183999D01*
X675804Y184098D01*
X675876Y184210D01*
X675959Y184309D01*
X676059Y184404D01*
X676065D01*
X676070Y184415D01*
X676087Y184426D01*
X676109Y184437D01*
X676137Y184454D01*
X676165Y184476D01*
X676248Y184515D01*
X676348Y184554D01*
X676465Y184592D01*
X676603Y184615D01*
X676753Y184626D01*
X676809D01*
X676848Y184620D01*
D02*
G37*
G36*
X577126Y275321D02*
Y275315D01*
Y275299D01*
Y275277D01*
Y275243D01*
X577120Y275199D01*
Y275154D01*
X577109Y275049D01*
X577098Y274927D01*
X577076Y274799D01*
X577042Y274683D01*
X577003Y274572D01*
Y274566D01*
X576998Y274561D01*
X576981Y274527D01*
X576954Y274483D01*
X576915Y274422D01*
X576859Y274361D01*
X576798Y274294D01*
X576721Y274228D01*
X576632Y274172D01*
X576621Y274167D01*
X576587Y274150D01*
X576537Y274128D01*
X576465Y274106D01*
X576376Y274078D01*
X576276Y274056D01*
X576165Y274039D01*
X576043Y274033D01*
X575993D01*
X575960Y274039D01*
X575916Y274044D01*
X575871Y274050D01*
X575755Y274072D01*
X575633Y274106D01*
X575505Y274155D01*
X575438Y274189D01*
X575377Y274228D01*
X575322Y274272D01*
X575266Y274322D01*
X575261Y274328D01*
X575255Y274333D01*
X575244Y274355D01*
X575227Y274377D01*
X575205Y274405D01*
X575183Y274444D01*
X575161Y274488D01*
X575133Y274538D01*
X575111Y274594D01*
X575089Y274661D01*
X575067Y274727D01*
X575044Y274805D01*
X575033Y274888D01*
X575017Y274983D01*
X575011Y275077D01*
Y275182D01*
X575472Y275249D01*
Y275243D01*
Y275232D01*
Y275210D01*
X575477Y275177D01*
X575483Y275143D01*
Y275105D01*
X575499Y275010D01*
X575516Y274910D01*
X575549Y274810D01*
X575583Y274722D01*
X575605Y274683D01*
X575633Y274649D01*
X575638Y274644D01*
X575661Y274627D01*
X575694Y274600D01*
X575738Y274572D01*
X575799Y274538D01*
X575866Y274516D01*
X575949Y274494D01*
X576038Y274488D01*
X576071D01*
X576104Y274494D01*
X576154Y274500D01*
X576204Y274511D01*
X576260Y274522D01*
X576315Y274544D01*
X576371Y274572D01*
X576376Y274577D01*
X576393Y274588D01*
X576415Y274611D01*
X576448Y274633D01*
X576476Y274672D01*
X576510Y274710D01*
X576537Y274755D01*
X576560Y274810D01*
Y274816D01*
X576571Y274838D01*
X576576Y274877D01*
X576587Y274927D01*
X576598Y274994D01*
X576604Y275077D01*
X576615Y275177D01*
Y275293D01*
Y277941D01*
X577126D01*
Y275321D01*
D02*
G37*
G36*
X579129Y277952D02*
X579174Y277946D01*
X579229Y277941D01*
X579290Y277929D01*
X579351Y277918D01*
X579495Y277880D01*
X579640Y277824D01*
X579712Y277791D01*
X579784Y277752D01*
X579851Y277702D01*
X579912Y277646D01*
X579917Y277641D01*
X579928Y277635D01*
X579940Y277613D01*
X579962Y277591D01*
X579989Y277563D01*
X580017Y277524D01*
X580045Y277485D01*
X580078Y277436D01*
X580134Y277330D01*
X580189Y277197D01*
X580211Y277130D01*
X580223Y277053D01*
X580234Y276975D01*
X580239Y276892D01*
Y276881D01*
Y276853D01*
X580234Y276808D01*
X580228Y276747D01*
X580217Y276681D01*
X580195Y276603D01*
X580173Y276520D01*
X580139Y276436D01*
X580134Y276426D01*
X580123Y276398D01*
X580100Y276353D01*
X580067Y276292D01*
X580023Y276226D01*
X579967Y276142D01*
X579901Y276059D01*
X579823Y275965D01*
X579812Y275954D01*
X579784Y275920D01*
X579756Y275893D01*
X579729Y275865D01*
X579695Y275832D01*
X579651Y275787D01*
X579606Y275743D01*
X579551Y275693D01*
X579495Y275637D01*
X579429Y275576D01*
X579357Y275515D01*
X579279Y275443D01*
X579190Y275371D01*
X579102Y275293D01*
X579096Y275288D01*
X579085Y275277D01*
X579063Y275260D01*
X579035Y275238D01*
X579002Y275204D01*
X578963Y275171D01*
X578874Y275099D01*
X578780Y275016D01*
X578691Y274933D01*
X578613Y274860D01*
X578580Y274833D01*
X578552Y274805D01*
X578546Y274799D01*
X578530Y274783D01*
X578508Y274760D01*
X578480Y274727D01*
X578452Y274688D01*
X578419Y274649D01*
X578352Y274555D01*
X580245D01*
Y274100D01*
X577697D01*
Y274106D01*
Y274128D01*
Y274161D01*
X577703Y274205D01*
X577708Y274255D01*
X577719Y274311D01*
X577731Y274366D01*
X577753Y274427D01*
Y274433D01*
X577758Y274439D01*
X577769Y274472D01*
X577792Y274522D01*
X577825Y274588D01*
X577869Y274666D01*
X577925Y274755D01*
X577986Y274844D01*
X578064Y274938D01*
Y274944D01*
X578075Y274949D01*
X578102Y274983D01*
X578152Y275032D01*
X578225Y275105D01*
X578308Y275188D01*
X578413Y275288D01*
X578541Y275399D01*
X578680Y275515D01*
X578685Y275521D01*
X578707Y275537D01*
X578741Y275565D01*
X578780Y275599D01*
X578829Y275643D01*
X578891Y275693D01*
X578952Y275748D01*
X579024Y275809D01*
X579163Y275943D01*
X579301Y276076D01*
X579368Y276142D01*
X579429Y276209D01*
X579484Y276270D01*
X579529Y276331D01*
Y276337D01*
X579540Y276342D01*
X579551Y276359D01*
X579562Y276381D01*
X579601Y276442D01*
X579645Y276514D01*
X579684Y276603D01*
X579723Y276697D01*
X579745Y276803D01*
X579756Y276903D01*
Y276908D01*
Y276914D01*
X579751Y276947D01*
X579745Y277003D01*
X579729Y277064D01*
X579706Y277141D01*
X579668Y277219D01*
X579618Y277297D01*
X579551Y277375D01*
X579540Y277386D01*
X579512Y277408D01*
X579473Y277436D01*
X579412Y277474D01*
X579335Y277508D01*
X579246Y277541D01*
X579140Y277563D01*
X579024Y277569D01*
X578990D01*
X578968Y277563D01*
X578902Y277558D01*
X578824Y277541D01*
X578741Y277519D01*
X578646Y277480D01*
X578557Y277430D01*
X578474Y277363D01*
X578463Y277352D01*
X578441Y277325D01*
X578408Y277280D01*
X578374Y277214D01*
X578336Y277136D01*
X578302Y277036D01*
X578280Y276925D01*
X578269Y276797D01*
X577786Y276847D01*
Y276853D01*
X577792Y276870D01*
Y276897D01*
X577797Y276936D01*
X577808Y276980D01*
X577819Y277030D01*
X577836Y277091D01*
X577853Y277152D01*
X577897Y277286D01*
X577964Y277419D01*
X578003Y277485D01*
X578053Y277552D01*
X578102Y277613D01*
X578158Y277669D01*
X578163Y277674D01*
X578175Y277680D01*
X578191Y277696D01*
X578219Y277713D01*
X578252Y277735D01*
X578291Y277758D01*
X578336Y277785D01*
X578391Y277813D01*
X578452Y277841D01*
X578519Y277868D01*
X578591Y277891D01*
X578668Y277913D01*
X578752Y277929D01*
X578841Y277946D01*
X578935Y277952D01*
X579035Y277957D01*
X579090D01*
X579129Y277952D01*
D02*
G37*
G36*
X687226Y275321D02*
Y275315D01*
Y275299D01*
Y275277D01*
Y275243D01*
X687220Y275199D01*
Y275154D01*
X687209Y275049D01*
X687198Y274927D01*
X687176Y274799D01*
X687142Y274683D01*
X687104Y274572D01*
Y274566D01*
X687098Y274561D01*
X687081Y274527D01*
X687054Y274483D01*
X687015Y274422D01*
X686959Y274361D01*
X686898Y274294D01*
X686821Y274228D01*
X686732Y274172D01*
X686721Y274167D01*
X686687Y274150D01*
X686637Y274128D01*
X686565Y274106D01*
X686476Y274078D01*
X686376Y274056D01*
X686266Y274039D01*
X686143Y274033D01*
X686094D01*
X686060Y274039D01*
X686016Y274044D01*
X685971Y274050D01*
X685855Y274072D01*
X685733Y274106D01*
X685605Y274155D01*
X685538Y274189D01*
X685477Y274228D01*
X685422Y274272D01*
X685366Y274322D01*
X685361Y274328D01*
X685355Y274333D01*
X685344Y274355D01*
X685327Y274377D01*
X685305Y274405D01*
X685283Y274444D01*
X685261Y274488D01*
X685233Y274538D01*
X685211Y274594D01*
X685189Y274661D01*
X685167Y274727D01*
X685144Y274805D01*
X685133Y274888D01*
X685117Y274983D01*
X685111Y275077D01*
Y275182D01*
X685572Y275249D01*
Y275243D01*
Y275232D01*
Y275210D01*
X685577Y275177D01*
X685583Y275143D01*
Y275105D01*
X685600Y275010D01*
X685616Y274910D01*
X685649Y274810D01*
X685683Y274722D01*
X685705Y274683D01*
X685733Y274649D01*
X685738Y274644D01*
X685760Y274627D01*
X685794Y274600D01*
X685838Y274572D01*
X685899Y274538D01*
X685966Y274516D01*
X686049Y274494D01*
X686138Y274488D01*
X686171D01*
X686204Y274494D01*
X686254Y274500D01*
X686304Y274511D01*
X686360Y274522D01*
X686415Y274544D01*
X686471Y274572D01*
X686476Y274577D01*
X686493Y274588D01*
X686515Y274611D01*
X686549Y274633D01*
X686576Y274672D01*
X686610Y274710D01*
X686637Y274755D01*
X686660Y274810D01*
Y274816D01*
X686671Y274838D01*
X686676Y274877D01*
X686687Y274927D01*
X686698Y274994D01*
X686704Y275077D01*
X686715Y275177D01*
Y275293D01*
Y277941D01*
X687226D01*
Y275321D01*
D02*
G37*
G36*
X689640Y274100D02*
X689168D01*
Y277103D01*
X689163Y277097D01*
X689135Y277075D01*
X689102Y277042D01*
X689046Y277003D01*
X688985Y276953D01*
X688907Y276897D01*
X688819Y276836D01*
X688719Y276775D01*
X688713D01*
X688707Y276769D01*
X688674Y276747D01*
X688619Y276720D01*
X688552Y276686D01*
X688474Y276647D01*
X688391Y276609D01*
X688308Y276570D01*
X688225Y276536D01*
Y276992D01*
X688230D01*
X688241Y277003D01*
X688264Y277008D01*
X688291Y277025D01*
X688324Y277042D01*
X688363Y277064D01*
X688458Y277119D01*
X688569Y277180D01*
X688680Y277258D01*
X688796Y277347D01*
X688913Y277441D01*
X688918Y277447D01*
X688924Y277452D01*
X688941Y277469D01*
X688963Y277485D01*
X689013Y277541D01*
X689079Y277608D01*
X689146Y277685D01*
X689218Y277774D01*
X689279Y277863D01*
X689335Y277957D01*
X689640D01*
Y274100D01*
D02*
G37*
G36*
X598466Y101324D02*
X598505D01*
X598549Y101319D01*
X598655Y101296D01*
X598771Y101269D01*
X598893Y101224D01*
X599015Y101158D01*
X599076Y101119D01*
X599132Y101074D01*
X599137Y101069D01*
X599143Y101063D01*
X599160Y101047D01*
X599176Y101030D01*
X599204Y101002D01*
X599226Y100969D01*
X599287Y100891D01*
X599348Y100791D01*
X599404Y100669D01*
X599454Y100531D01*
X599487Y100375D01*
X599015Y100336D01*
Y100342D01*
X599010Y100347D01*
X599004Y100381D01*
X598988Y100431D01*
X598965Y100492D01*
X598943Y100558D01*
X598910Y100625D01*
X598871Y100686D01*
X598832Y100736D01*
X598821Y100747D01*
X598799Y100769D01*
X598760Y100802D01*
X598704Y100841D01*
X598632Y100875D01*
X598555Y100908D01*
X598460Y100930D01*
X598360Y100941D01*
X598322D01*
X598277Y100936D01*
X598227Y100925D01*
X598161Y100908D01*
X598094Y100886D01*
X598027Y100858D01*
X597961Y100813D01*
X597950Y100808D01*
X597922Y100786D01*
X597883Y100747D01*
X597833Y100691D01*
X597778Y100625D01*
X597717Y100547D01*
X597661Y100447D01*
X597606Y100336D01*
Y100331D01*
X597600Y100320D01*
X597594Y100303D01*
X597583Y100281D01*
X597578Y100247D01*
X597567Y100209D01*
X597556Y100164D01*
X597545Y100109D01*
X597528Y100048D01*
X597517Y99981D01*
X597506Y99909D01*
X597500Y99831D01*
X597489Y99742D01*
X597483Y99654D01*
X597478Y99554D01*
Y99454D01*
X597483Y99459D01*
X597506Y99493D01*
X597545Y99537D01*
X597594Y99593D01*
X597650Y99659D01*
X597722Y99720D01*
X597800Y99781D01*
X597889Y99837D01*
X597894D01*
X597900Y99842D01*
X597933Y99859D01*
X597983Y99876D01*
X598050Y99903D01*
X598127Y99926D01*
X598216Y99942D01*
X598311Y99959D01*
X598410Y99964D01*
X598455D01*
X598488Y99959D01*
X598532Y99953D01*
X598577Y99948D01*
X598632Y99937D01*
X598688Y99920D01*
X598815Y99881D01*
X598882Y99853D01*
X598949Y99814D01*
X599015Y99776D01*
X599087Y99731D01*
X599154Y99676D01*
X599215Y99615D01*
X599221Y99609D01*
X599232Y99598D01*
X599248Y99581D01*
X599265Y99554D01*
X599293Y99515D01*
X599321Y99476D01*
X599348Y99426D01*
X599382Y99370D01*
X599415Y99309D01*
X599443Y99243D01*
X599470Y99165D01*
X599498Y99088D01*
X599515Y99004D01*
X599532Y98910D01*
X599543Y98816D01*
X599548Y98716D01*
Y98710D01*
Y98699D01*
Y98682D01*
Y98655D01*
X599543Y98621D01*
Y98588D01*
X599526Y98499D01*
X599509Y98394D01*
X599481Y98283D01*
X599443Y98161D01*
X599387Y98044D01*
Y98039D01*
X599382Y98033D01*
X599370Y98016D01*
X599359Y97994D01*
X599326Y97939D01*
X599276Y97866D01*
X599215Y97789D01*
X599143Y97711D01*
X599054Y97633D01*
X598960Y97567D01*
X598954D01*
X598949Y97561D01*
X598932Y97550D01*
X598910Y97545D01*
X598854Y97517D01*
X598782Y97489D01*
X598688Y97456D01*
X598582Y97434D01*
X598466Y97411D01*
X598338Y97406D01*
X598311D01*
X598283Y97411D01*
X598238D01*
X598188Y97417D01*
X598133Y97428D01*
X598066Y97445D01*
X598000Y97461D01*
X597922Y97483D01*
X597844Y97511D01*
X597767Y97545D01*
X597683Y97589D01*
X597606Y97639D01*
X597528Y97694D01*
X597450Y97761D01*
X597378Y97839D01*
X597372Y97844D01*
X597361Y97861D01*
X597345Y97883D01*
X597323Y97922D01*
X597289Y97972D01*
X597261Y98027D01*
X597228Y98100D01*
X597195Y98177D01*
X597156Y98272D01*
X597123Y98377D01*
X597095Y98494D01*
X597067Y98621D01*
X597040Y98766D01*
X597023Y98921D01*
X597012Y99088D01*
X597006Y99265D01*
Y99271D01*
Y99276D01*
Y99293D01*
Y99315D01*
X597012Y99370D01*
Y99448D01*
X597017Y99537D01*
X597028Y99642D01*
X597040Y99759D01*
X597056Y99887D01*
X597078Y100014D01*
X597106Y100153D01*
X597139Y100286D01*
X597178Y100419D01*
X597228Y100547D01*
X597284Y100669D01*
X597345Y100786D01*
X597417Y100886D01*
X597423Y100891D01*
X597434Y100902D01*
X597456Y100925D01*
X597483Y100958D01*
X597517Y100991D01*
X597561Y101024D01*
X597617Y101069D01*
X597672Y101108D01*
X597739Y101146D01*
X597811Y101191D01*
X597894Y101224D01*
X597977Y101263D01*
X598072Y101291D01*
X598172Y101313D01*
X598277Y101324D01*
X598388Y101330D01*
X598433D01*
X598466Y101324D01*
D02*
G37*
G36*
X595180Y101307D02*
X595230D01*
X595347Y101302D01*
X595469Y101285D01*
X595602Y101269D01*
X595724Y101241D01*
X595785Y101224D01*
X595835Y101208D01*
X595841D01*
X595846Y101202D01*
X595880Y101185D01*
X595929Y101163D01*
X595991Y101124D01*
X596057Y101074D01*
X596129Y101008D01*
X596196Y100930D01*
X596263Y100841D01*
Y100836D01*
X596268Y100830D01*
X596290Y100797D01*
X596313Y100741D01*
X596346Y100669D01*
X596374Y100586D01*
X596401Y100486D01*
X596418Y100381D01*
X596423Y100264D01*
Y100259D01*
Y100247D01*
Y100225D01*
X596418Y100198D01*
Y100159D01*
X596412Y100120D01*
X596390Y100025D01*
X596357Y99914D01*
X596313Y99798D01*
X596246Y99681D01*
X596202Y99626D01*
X596157Y99570D01*
X596151Y99565D01*
X596146Y99559D01*
X596129Y99543D01*
X596107Y99526D01*
X596079Y99504D01*
X596046Y99481D01*
X596002Y99454D01*
X595957Y99420D01*
X595902Y99393D01*
X595841Y99365D01*
X595774Y99332D01*
X595702Y99304D01*
X595619Y99282D01*
X595536Y99254D01*
X595441Y99237D01*
X595341Y99221D01*
X595352Y99215D01*
X595374Y99204D01*
X595408Y99182D01*
X595452Y99160D01*
X595552Y99099D01*
X595602Y99060D01*
X595646Y99026D01*
X595658Y99015D01*
X595685Y98988D01*
X595730Y98943D01*
X595785Y98888D01*
X595846Y98810D01*
X595918Y98727D01*
X595991Y98627D01*
X596068Y98516D01*
X596729Y97472D01*
X596096D01*
X595591Y98272D01*
Y98277D01*
X595580Y98288D01*
X595569Y98305D01*
X595552Y98327D01*
X595513Y98388D01*
X595463Y98466D01*
X595402Y98549D01*
X595341Y98638D01*
X595280Y98721D01*
X595225Y98799D01*
X595219Y98804D01*
X595202Y98827D01*
X595175Y98860D01*
X595136Y98899D01*
X595053Y98982D01*
X595008Y99021D01*
X594964Y99054D01*
X594958Y99060D01*
X594947Y99065D01*
X594925Y99076D01*
X594892Y99093D01*
X594858Y99110D01*
X594819Y99126D01*
X594731Y99154D01*
X594725D01*
X594714Y99160D01*
X594692D01*
X594664Y99165D01*
X594625Y99171D01*
X594581D01*
X594520Y99176D01*
X593865D01*
Y97472D01*
X593354D01*
Y101313D01*
X595136D01*
X595180Y101307D01*
D02*
G37*
G36*
X637356Y98009D02*
X637878D01*
Y97576D01*
X637356D01*
Y96655D01*
X636884D01*
Y97576D01*
X635214D01*
Y98009D01*
X636973Y100496D01*
X637356D01*
Y98009D01*
D02*
G37*
G36*
X633527Y100490D02*
X633577D01*
X633693Y100485D01*
X633815Y100468D01*
X633949Y100451D01*
X634071Y100424D01*
X634132Y100407D01*
X634182Y100390D01*
X634187D01*
X634193Y100385D01*
X634226Y100368D01*
X634276Y100346D01*
X634337Y100307D01*
X634404Y100257D01*
X634476Y100190D01*
X634542Y100113D01*
X634609Y100024D01*
Y100018D01*
X634615Y100013D01*
X634637Y99980D01*
X634659Y99924D01*
X634692Y99852D01*
X634720Y99769D01*
X634748Y99669D01*
X634764Y99563D01*
X634770Y99447D01*
Y99441D01*
Y99430D01*
Y99408D01*
X634764Y99380D01*
Y99341D01*
X634759Y99302D01*
X634737Y99208D01*
X634703Y99097D01*
X634659Y98980D01*
X634592Y98864D01*
X634548Y98808D01*
X634504Y98753D01*
X634498Y98747D01*
X634492Y98742D01*
X634476Y98725D01*
X634454Y98708D01*
X634426Y98686D01*
X634392Y98664D01*
X634348Y98636D01*
X634304Y98603D01*
X634248Y98575D01*
X634187Y98548D01*
X634121Y98514D01*
X634048Y98487D01*
X633965Y98464D01*
X633882Y98437D01*
X633788Y98420D01*
X633688Y98403D01*
X633699Y98398D01*
X633721Y98387D01*
X633754Y98364D01*
X633799Y98342D01*
X633899Y98281D01*
X633949Y98242D01*
X633993Y98209D01*
X634004Y98198D01*
X634032Y98170D01*
X634076Y98126D01*
X634132Y98070D01*
X634193Y97993D01*
X634265Y97909D01*
X634337Y97809D01*
X634415Y97698D01*
X635075Y96655D01*
X634443D01*
X633937Y97454D01*
Y97460D01*
X633926Y97471D01*
X633915Y97487D01*
X633899Y97510D01*
X633860Y97571D01*
X633810Y97649D01*
X633749Y97732D01*
X633688Y97821D01*
X633627Y97904D01*
X633571Y97982D01*
X633566Y97987D01*
X633549Y98009D01*
X633521Y98043D01*
X633482Y98081D01*
X633399Y98165D01*
X633355Y98203D01*
X633310Y98237D01*
X633305Y98242D01*
X633294Y98248D01*
X633271Y98259D01*
X633238Y98276D01*
X633205Y98292D01*
X633166Y98309D01*
X633077Y98337D01*
X633072D01*
X633061Y98342D01*
X633038D01*
X633011Y98348D01*
X632972Y98353D01*
X632927D01*
X632866Y98359D01*
X632211D01*
Y96655D01*
X631701D01*
Y100496D01*
X633482D01*
X633527Y100490D01*
D02*
G37*
G36*
X675538Y100861D02*
X674001D01*
X673796Y99823D01*
X673801Y99828D01*
X673812Y99834D01*
X673829Y99845D01*
X673857Y99862D01*
X673890Y99879D01*
X673929Y99901D01*
X674018Y99945D01*
X674129Y99989D01*
X674251Y100028D01*
X674384Y100056D01*
X674451Y100067D01*
X674573D01*
X674606Y100062D01*
X674650Y100056D01*
X674700Y100050D01*
X674756Y100039D01*
X674817Y100023D01*
X674950Y99984D01*
X675022Y99956D01*
X675094Y99917D01*
X675167Y99879D01*
X675239Y99834D01*
X675305Y99779D01*
X675372Y99717D01*
X675378Y99712D01*
X675389Y99701D01*
X675405Y99684D01*
X675427Y99656D01*
X675455Y99618D01*
X675483Y99579D01*
X675516Y99529D01*
X675550Y99473D01*
X675577Y99412D01*
X675610Y99346D01*
X675638Y99268D01*
X675666Y99190D01*
X675688Y99107D01*
X675705Y99013D01*
X675716Y98918D01*
X675722Y98818D01*
Y98813D01*
Y98796D01*
Y98769D01*
X675716Y98730D01*
X675710Y98685D01*
X675705Y98635D01*
X675694Y98574D01*
X675683Y98513D01*
X675649Y98369D01*
X675594Y98219D01*
X675561Y98141D01*
X675516Y98069D01*
X675472Y97992D01*
X675416Y97919D01*
X675411Y97914D01*
X675400Y97897D01*
X675378Y97875D01*
X675350Y97847D01*
X675311Y97814D01*
X675266Y97769D01*
X675211Y97731D01*
X675150Y97686D01*
X675083Y97642D01*
X675006Y97603D01*
X674922Y97564D01*
X674834Y97525D01*
X674739Y97497D01*
X674634Y97475D01*
X674523Y97459D01*
X674406Y97453D01*
X674356D01*
X674317Y97459D01*
X674273Y97464D01*
X674223Y97470D01*
X674162Y97475D01*
X674101Y97492D01*
X673962Y97525D01*
X673823Y97575D01*
X673751Y97609D01*
X673679Y97647D01*
X673613Y97692D01*
X673546Y97742D01*
X673540Y97747D01*
X673529Y97753D01*
X673518Y97775D01*
X673496Y97797D01*
X673468Y97825D01*
X673441Y97858D01*
X673407Y97903D01*
X673379Y97953D01*
X673346Y98003D01*
X673313Y98064D01*
X673252Y98197D01*
X673202Y98352D01*
X673185Y98435D01*
X673174Y98524D01*
X673668Y98563D01*
Y98558D01*
Y98546D01*
X673674Y98530D01*
X673679Y98502D01*
X673696Y98441D01*
X673718Y98358D01*
X673751Y98274D01*
X673796Y98180D01*
X673851Y98097D01*
X673918Y98019D01*
X673929Y98014D01*
X673951Y97992D01*
X673995Y97964D01*
X674056Y97930D01*
X674123Y97897D01*
X674206Y97869D01*
X674301Y97847D01*
X674406Y97842D01*
X674439D01*
X674462Y97847D01*
X674528Y97853D01*
X674606Y97875D01*
X674700Y97903D01*
X674795Y97947D01*
X674895Y98014D01*
X674939Y98053D01*
X674983Y98097D01*
X674989Y98102D01*
X674995Y98108D01*
X675006Y98125D01*
X675022Y98141D01*
X675061Y98202D01*
X675105Y98280D01*
X675144Y98374D01*
X675183Y98491D01*
X675211Y98630D01*
X675222Y98702D01*
Y98780D01*
Y98785D01*
Y98796D01*
Y98818D01*
X675216Y98846D01*
Y98879D01*
X675211Y98918D01*
X675194Y99007D01*
X675167Y99113D01*
X675128Y99218D01*
X675072Y99318D01*
X674995Y99412D01*
Y99418D01*
X674983Y99423D01*
X674956Y99451D01*
X674906Y99490D01*
X674839Y99534D01*
X674750Y99573D01*
X674650Y99612D01*
X674534Y99640D01*
X674467Y99651D01*
X674362D01*
X674317Y99645D01*
X674262Y99640D01*
X674195Y99623D01*
X674129Y99607D01*
X674056Y99579D01*
X673984Y99546D01*
X673979Y99540D01*
X673957Y99529D01*
X673923Y99501D01*
X673879Y99473D01*
X673835Y99435D01*
X673790Y99384D01*
X673740Y99335D01*
X673701Y99274D01*
X673257Y99335D01*
X673629Y101310D01*
X675538D01*
Y100861D01*
D02*
G37*
G36*
X671326Y101355D02*
X671376D01*
X671492Y101349D01*
X671615Y101333D01*
X671748Y101316D01*
X671870Y101288D01*
X671931Y101271D01*
X671981Y101255D01*
X671986D01*
X671992Y101249D01*
X672025Y101233D01*
X672075Y101210D01*
X672136Y101172D01*
X672203Y101122D01*
X672275Y101055D01*
X672342Y100977D01*
X672408Y100889D01*
Y100883D01*
X672414Y100877D01*
X672436Y100844D01*
X672458Y100789D01*
X672491Y100716D01*
X672519Y100633D01*
X672547Y100533D01*
X672564Y100428D01*
X672569Y100311D01*
Y100306D01*
Y100295D01*
Y100273D01*
X672564Y100245D01*
Y100206D01*
X672558Y100167D01*
X672536Y100073D01*
X672503Y99962D01*
X672458Y99845D01*
X672392Y99729D01*
X672347Y99673D01*
X672303Y99618D01*
X672297Y99612D01*
X672292Y99607D01*
X672275Y99590D01*
X672253Y99573D01*
X672225Y99551D01*
X672192Y99529D01*
X672147Y99501D01*
X672103Y99468D01*
X672048Y99440D01*
X671986Y99412D01*
X671920Y99379D01*
X671848Y99351D01*
X671764Y99329D01*
X671681Y99301D01*
X671587Y99285D01*
X671487Y99268D01*
X671498Y99262D01*
X671520Y99251D01*
X671554Y99229D01*
X671598Y99207D01*
X671698Y99146D01*
X671748Y99107D01*
X671792Y99074D01*
X671803Y99063D01*
X671831Y99035D01*
X671875Y98990D01*
X671931Y98935D01*
X671992Y98857D01*
X672064Y98774D01*
X672136Y98674D01*
X672214Y98563D01*
X672874Y97520D01*
X672242D01*
X671737Y98319D01*
Y98325D01*
X671726Y98336D01*
X671714Y98352D01*
X671698Y98374D01*
X671659Y98435D01*
X671609Y98513D01*
X671548Y98596D01*
X671487Y98685D01*
X671426Y98769D01*
X671370Y98846D01*
X671365Y98852D01*
X671348Y98874D01*
X671320Y98907D01*
X671281Y98946D01*
X671198Y99029D01*
X671154Y99068D01*
X671109Y99102D01*
X671104Y99107D01*
X671093Y99113D01*
X671071Y99124D01*
X671037Y99140D01*
X671004Y99157D01*
X670965Y99174D01*
X670876Y99201D01*
X670871D01*
X670860Y99207D01*
X670838D01*
X670810Y99212D01*
X670771Y99218D01*
X670727D01*
X670666Y99224D01*
X670011D01*
Y97520D01*
X669500D01*
Y101360D01*
X671281D01*
X671326Y101355D01*
D02*
G37*
%LPC*%
G36*
X681220Y199913D02*
X680011D01*
Y198642D01*
X681154D01*
X681220Y198648D01*
X681298Y198653D01*
X681387Y198659D01*
X681476Y198670D01*
X681565Y198687D01*
X681642Y198709D01*
X681653Y198714D01*
X681676Y198725D01*
X681709Y198742D01*
X681753Y198764D01*
X681803Y198798D01*
X681853Y198837D01*
X681903Y198887D01*
X681942Y198942D01*
X681948Y198948D01*
X681959Y198970D01*
X681975Y199003D01*
X681997Y199048D01*
X682014Y199097D01*
X682031Y199153D01*
X682042Y199220D01*
X682048Y199286D01*
Y199292D01*
Y199297D01*
X682042Y199330D01*
X682036Y199380D01*
X682025Y199447D01*
X681997Y199514D01*
X681964Y199591D01*
X681914Y199663D01*
X681848Y199736D01*
X681837Y199741D01*
X681809Y199763D01*
X681764Y199791D01*
X681692Y199825D01*
X681609Y199858D01*
X681498Y199885D01*
X681370Y199908D01*
X681220Y199913D01*
D02*
G37*
G36*
X681960Y167489D02*
X680689D01*
Y166346D01*
X680695Y166279D01*
X680701Y166202D01*
X680706Y166113D01*
X680717Y166024D01*
X680734Y165935D01*
X680756Y165858D01*
X680762Y165847D01*
X680773Y165824D01*
X680789Y165791D01*
X680812Y165747D01*
X680845Y165697D01*
X680884Y165647D01*
X680934Y165597D01*
X680989Y165558D01*
X680995Y165552D01*
X681017Y165541D01*
X681050Y165525D01*
X681095Y165503D01*
X681145Y165486D01*
X681200Y165469D01*
X681267Y165458D01*
X681333Y165453D01*
X681339D01*
X681344D01*
X681378Y165458D01*
X681428Y165464D01*
X681494Y165475D01*
X681561Y165503D01*
X681639Y165536D01*
X681711Y165586D01*
X681783Y165652D01*
X681788Y165663D01*
X681811Y165691D01*
X681838Y165736D01*
X681872Y165808D01*
X681905Y165891D01*
X681933Y166002D01*
X681955Y166130D01*
X681960Y166279D01*
Y167489D01*
D02*
G37*
G36*
X679790Y160818D02*
X679779D01*
X679752D01*
X679702Y160813D01*
X679641Y160807D01*
X679568Y160796D01*
X679491Y160774D01*
X679408Y160752D01*
X679324Y160718D01*
X679313Y160713D01*
X679285Y160696D01*
X679247Y160674D01*
X679197Y160641D01*
X679147Y160602D01*
X679086Y160552D01*
X679036Y160496D01*
X678986Y160430D01*
X678980Y160419D01*
X678969Y160397D01*
X678947Y160358D01*
X678930Y160308D01*
X678908Y160252D01*
X678886Y160186D01*
X678875Y160113D01*
X678869Y160036D01*
Y160008D01*
X678875Y159986D01*
X678880Y159930D01*
X678897Y159858D01*
X678930Y159780D01*
X678969Y159692D01*
X679030Y159603D01*
X679063Y159558D01*
X679108Y159520D01*
X679113D01*
X679119Y159509D01*
X679152Y159486D01*
X679208Y159453D01*
X679280Y159409D01*
X679374Y159370D01*
X679485Y159336D01*
X679613Y159314D01*
X679763Y159303D01*
X679768D01*
X679779D01*
X679802D01*
X679829Y159309D01*
X679863D01*
X679901Y159314D01*
X679990Y159331D01*
X680090Y159353D01*
X680196Y159392D01*
X680296Y159448D01*
X680390Y159520D01*
X680401Y159531D01*
X680429Y159558D01*
X680462Y159603D01*
X680506Y159664D01*
X680551Y159742D01*
X680584Y159830D01*
X680612Y159936D01*
X680623Y160052D01*
Y160086D01*
X680617Y160108D01*
X680612Y160163D01*
X680595Y160241D01*
X680567Y160324D01*
X680523Y160419D01*
X680468Y160508D01*
X680390Y160596D01*
X680379Y160607D01*
X680351Y160630D01*
X680301Y160669D01*
X680229Y160707D01*
X680146Y160746D01*
X680040Y160785D01*
X679924Y160807D01*
X679790Y160818D01*
D02*
G37*
G36*
X670006Y195678D02*
X670000D01*
X669989D01*
X669967D01*
X669939Y195672D01*
X669900D01*
X669862Y195667D01*
X669773Y195650D01*
X669667Y195628D01*
X669556Y195589D01*
X669451Y195533D01*
X669356Y195461D01*
X669351D01*
X669345Y195450D01*
X669318Y195422D01*
X669279Y195378D01*
X669234Y195317D01*
X669196Y195239D01*
X669157Y195150D01*
X669129Y195051D01*
X669118Y194995D01*
Y194906D01*
X669123Y194884D01*
X669129Y194823D01*
X669151Y194751D01*
X669179Y194662D01*
X669229Y194568D01*
X669290Y194473D01*
X669334Y194429D01*
X669379Y194385D01*
X669384D01*
X669390Y194373D01*
X669407Y194362D01*
X669423Y194351D01*
X669479Y194312D01*
X669556Y194273D01*
X669651Y194229D01*
X669767Y194190D01*
X669900Y194168D01*
X670045Y194157D01*
X670050D01*
X670061D01*
X670078D01*
X670106Y194162D01*
X670139D01*
X670172Y194168D01*
X670256Y194185D01*
X670350Y194212D01*
X670450Y194246D01*
X670550Y194301D01*
X670639Y194373D01*
X670650Y194385D01*
X670672Y194412D01*
X670711Y194462D01*
X670750Y194523D01*
X670794Y194606D01*
X670833Y194701D01*
X670855Y194806D01*
X670866Y194923D01*
Y194956D01*
X670861Y194978D01*
X670855Y195039D01*
X670838Y195112D01*
X670811Y195200D01*
X670772Y195289D01*
X670716Y195378D01*
X670639Y195461D01*
X670627Y195472D01*
X670594Y195494D01*
X670544Y195528D01*
X670472Y195572D01*
X670383Y195611D01*
X670278Y195644D01*
X670150Y195667D01*
X670006Y195678D01*
D02*
G37*
G36*
X669801Y192548D02*
X669795D01*
X669789D01*
X669756Y192542D01*
X669706Y192536D01*
X669640Y192525D01*
X669573Y192498D01*
X669495Y192464D01*
X669423Y192414D01*
X669351Y192348D01*
X669345Y192337D01*
X669323Y192309D01*
X669296Y192264D01*
X669262Y192192D01*
X669229Y192109D01*
X669201Y191998D01*
X669179Y191870D01*
X669173Y191720D01*
Y190511D01*
X670444D01*
Y191654D01*
X670439Y191720D01*
X670433Y191798D01*
X670428Y191887D01*
X670417Y191976D01*
X670400Y192065D01*
X670378Y192142D01*
X670372Y192153D01*
X670361Y192176D01*
X670344Y192209D01*
X670322Y192253D01*
X670289Y192303D01*
X670250Y192353D01*
X670200Y192403D01*
X670145Y192442D01*
X670139Y192448D01*
X670117Y192459D01*
X670084Y192475D01*
X670039Y192498D01*
X669989Y192514D01*
X669934Y192531D01*
X669867Y192542D01*
X669801Y192548D01*
D02*
G37*
G36*
X667096Y229827D02*
X665886D01*
Y228556D01*
X667029D01*
X667096Y228561D01*
X667173Y228567D01*
X667262Y228572D01*
X667351Y228583D01*
X667440Y228600D01*
X667517Y228622D01*
X667528Y228628D01*
X667551Y228639D01*
X667584Y228656D01*
X667628Y228678D01*
X667678Y228711D01*
X667728Y228750D01*
X667778Y228800D01*
X667817Y228855D01*
X667823Y228861D01*
X667834Y228883D01*
X667850Y228916D01*
X667872Y228961D01*
X667889Y229011D01*
X667906Y229066D01*
X667917Y229133D01*
X667922Y229200D01*
Y229205D01*
Y229211D01*
X667917Y229244D01*
X667911Y229294D01*
X667900Y229360D01*
X667872Y229427D01*
X667839Y229505D01*
X667789Y229577D01*
X667723Y229649D01*
X667711Y229655D01*
X667684Y229677D01*
X667639Y229704D01*
X667567Y229738D01*
X667484Y229771D01*
X667373Y229799D01*
X667245Y229821D01*
X667096Y229827D01*
D02*
G37*
G36*
X670309Y229882D02*
X670264D01*
X670215Y229871D01*
X670148Y229860D01*
X670076Y229838D01*
X669998Y229810D01*
X669926Y229766D01*
X669854Y229704D01*
X669848Y229699D01*
X669826Y229677D01*
X669798Y229638D01*
X669771Y229588D01*
X669737Y229527D01*
X669709Y229455D01*
X669687Y229377D01*
X669682Y229288D01*
Y229283D01*
Y229277D01*
X669687Y229244D01*
X669693Y229194D01*
X669704Y229133D01*
X669726Y229061D01*
X669754Y228989D01*
X669798Y228911D01*
X669854Y228844D01*
X669859Y228839D01*
X669887Y228817D01*
X669926Y228789D01*
X669976Y228761D01*
X670043Y228728D01*
X670120Y228700D01*
X670209Y228678D01*
X670309Y228672D01*
X670320D01*
X670353Y228678D01*
X670403Y228683D01*
X670470Y228694D01*
X670542Y228717D01*
X670614Y228744D01*
X670692Y228789D01*
X670758Y228844D01*
X670764Y228850D01*
X670786Y228878D01*
X670814Y228911D01*
X670847Y228961D01*
X670881Y229022D01*
X670908Y229094D01*
X670930Y229177D01*
X670936Y229266D01*
Y229272D01*
Y229277D01*
Y229310D01*
X670925Y229360D01*
X670914Y229421D01*
X670892Y229488D01*
X670858Y229560D01*
X670814Y229632D01*
X670753Y229704D01*
X670747Y229710D01*
X670720Y229732D01*
X670681Y229760D01*
X670631Y229793D01*
X670564Y229827D01*
X670492Y229854D01*
X670403Y229877D01*
X670309Y229882D01*
D02*
G37*
G36*
X670292Y228289D02*
X670259D01*
X670237Y228284D01*
X670176Y228278D01*
X670098Y228261D01*
X670009Y228234D01*
X669920Y228195D01*
X669826Y228139D01*
X669743Y228067D01*
X669732Y228056D01*
X669709Y228028D01*
X669676Y227978D01*
X669637Y227917D01*
X669593Y227834D01*
X669560Y227740D01*
X669537Y227634D01*
X669526Y227518D01*
Y227507D01*
Y227484D01*
X669532Y227446D01*
X669537Y227396D01*
X669549Y227335D01*
X669565Y227268D01*
X669587Y227202D01*
X669615Y227129D01*
X669621Y227124D01*
X669632Y227096D01*
X669654Y227063D01*
X669687Y227024D01*
X669726Y226974D01*
X669776Y226924D01*
X669832Y226880D01*
X669898Y226835D01*
X669909Y226830D01*
X669932Y226818D01*
X669970Y226802D01*
X670020Y226785D01*
X670081Y226769D01*
X670154Y226752D01*
X670231Y226741D01*
X670309Y226735D01*
X670342D01*
X670364Y226741D01*
X670431Y226746D01*
X670509Y226763D01*
X670598Y226791D01*
X670692Y226824D01*
X670781Y226880D01*
X670869Y226952D01*
X670881Y226963D01*
X670903Y226991D01*
X670942Y227041D01*
X670981Y227102D01*
X671019Y227179D01*
X671058Y227274D01*
X671080Y227385D01*
X671092Y227501D01*
Y227507D01*
Y227518D01*
Y227535D01*
X671086Y227557D01*
X671080Y227618D01*
X671064Y227701D01*
X671036Y227784D01*
X670997Y227879D01*
X670942Y227973D01*
X670864Y228062D01*
X670853Y228073D01*
X670825Y228095D01*
X670775Y228134D01*
X670709Y228178D01*
X670625Y228217D01*
X670525Y228256D01*
X670414Y228278D01*
X670292Y228289D01*
D02*
G37*
G36*
X660727Y259866D02*
X659517D01*
Y258595D01*
X660660D01*
X660727Y258601D01*
X660805Y258606D01*
X660893Y258612D01*
X660982Y258623D01*
X661071Y258640D01*
X661149Y258662D01*
X661160Y258667D01*
X661182Y258678D01*
X661215Y258695D01*
X661260Y258717D01*
X661310Y258751D01*
X661360Y258789D01*
X661410Y258839D01*
X661448Y258895D01*
X661454Y258900D01*
X661465Y258923D01*
X661482Y258956D01*
X661504Y259000D01*
X661520Y259050D01*
X661537Y259106D01*
X661548Y259172D01*
X661554Y259239D01*
Y259244D01*
Y259250D01*
X661548Y259283D01*
X661543Y259333D01*
X661532Y259400D01*
X661504Y259466D01*
X661471Y259544D01*
X661421Y259616D01*
X661354Y259688D01*
X661343Y259694D01*
X661315Y259716D01*
X661271Y259744D01*
X661199Y259777D01*
X661115Y259810D01*
X661004Y259838D01*
X660877Y259860D01*
X660727Y259866D01*
D02*
G37*
G36*
X663549Y192548D02*
X663543D01*
X663537D01*
X663504Y192542D01*
X663454Y192536D01*
X663388Y192525D01*
X663321Y192498D01*
X663243Y192464D01*
X663171Y192414D01*
X663099Y192348D01*
X663093Y192337D01*
X663071Y192309D01*
X663043Y192264D01*
X663010Y192192D01*
X662977Y192109D01*
X662949Y191998D01*
X662927Y191870D01*
X662921Y191720D01*
Y190511D01*
X664192D01*
Y191654D01*
X664187Y191720D01*
X664181Y191798D01*
X664176Y191887D01*
X664165Y191976D01*
X664148Y192065D01*
X664126Y192142D01*
X664120Y192153D01*
X664109Y192176D01*
X664092Y192209D01*
X664070Y192253D01*
X664037Y192303D01*
X663998Y192353D01*
X663948Y192403D01*
X663893Y192442D01*
X663887Y192448D01*
X663865Y192459D01*
X663832Y192475D01*
X663787Y192498D01*
X663737Y192514D01*
X663682Y192531D01*
X663615Y192542D01*
X663549Y192548D01*
D02*
G37*
G36*
X665220Y244413D02*
X664011D01*
Y243142D01*
X665154D01*
X665220Y243148D01*
X665298Y243153D01*
X665387Y243159D01*
X665476Y243170D01*
X665565Y243187D01*
X665642Y243209D01*
X665653Y243214D01*
X665676Y243226D01*
X665709Y243242D01*
X665753Y243264D01*
X665803Y243298D01*
X665853Y243337D01*
X665903Y243387D01*
X665942Y243442D01*
X665947Y243448D01*
X665959Y243470D01*
X665975Y243503D01*
X665998Y243547D01*
X666014Y243597D01*
X666031Y243653D01*
X666042Y243720D01*
X666047Y243786D01*
Y243792D01*
Y243797D01*
X666042Y243830D01*
X666036Y243881D01*
X666025Y243947D01*
X665998Y244014D01*
X665964Y244091D01*
X665914Y244163D01*
X665848Y244236D01*
X665836Y244241D01*
X665809Y244263D01*
X665764Y244291D01*
X665692Y244324D01*
X665609Y244358D01*
X665498Y244386D01*
X665370Y244408D01*
X665220Y244413D01*
D02*
G37*
G36*
X680673Y259913D02*
X679463D01*
Y258642D01*
X680607D01*
X680673Y258648D01*
X680751Y258653D01*
X680840Y258659D01*
X680929Y258670D01*
X681017Y258687D01*
X681095Y258709D01*
X681106Y258714D01*
X681128Y258726D01*
X681162Y258742D01*
X681206Y258764D01*
X681256Y258798D01*
X681306Y258837D01*
X681356Y258887D01*
X681395Y258942D01*
X681400Y258948D01*
X681411Y258970D01*
X681428Y259003D01*
X681450Y259047D01*
X681467Y259097D01*
X681484Y259153D01*
X681495Y259220D01*
X681500Y259286D01*
Y259292D01*
Y259297D01*
X681495Y259331D01*
X681489Y259381D01*
X681478Y259447D01*
X681450Y259514D01*
X681417Y259591D01*
X681367Y259664D01*
X681300Y259736D01*
X681289Y259741D01*
X681262Y259763D01*
X681217Y259791D01*
X681145Y259824D01*
X681062Y259858D01*
X680951Y259886D01*
X680823Y259908D01*
X680673Y259913D01*
D02*
G37*
G36*
X676753Y184237D02*
X676720D01*
X676698Y184232D01*
X676642Y184221D01*
X676564Y184198D01*
X676481Y184160D01*
X676387Y184104D01*
X676342Y184071D01*
X676298Y184026D01*
X676254Y183982D01*
X676209Y183926D01*
Y183921D01*
X676198Y183910D01*
X676187Y183893D01*
X676176Y183865D01*
X676154Y183826D01*
X676137Y183777D01*
X676115Y183721D01*
X676093Y183654D01*
X676076Y183571D01*
X676054Y183482D01*
X676032Y183377D01*
X676015Y183266D01*
X676004Y183133D01*
X675993Y182994D01*
X675982Y182839D01*
Y182667D01*
Y182661D01*
Y182656D01*
Y182628D01*
Y182578D01*
X675987Y182511D01*
Y182439D01*
X675993Y182350D01*
X675998Y182256D01*
X676009Y182150D01*
X676037Y181939D01*
X676054Y181834D01*
X676076Y181734D01*
X676098Y181640D01*
X676131Y181551D01*
X676165Y181473D01*
X676204Y181407D01*
Y181401D01*
X676215Y181396D01*
X676226Y181379D01*
X676242Y181357D01*
X676293Y181307D01*
X676354Y181246D01*
X676437Y181190D01*
X676531Y181140D01*
X676581Y181118D01*
X676637Y181102D01*
X676698Y181096D01*
X676759Y181090D01*
X676792D01*
X676814Y181096D01*
X676875Y181107D01*
X676947Y181124D01*
X677031Y181157D01*
X677119Y181207D01*
X677164Y181240D01*
X677208Y181273D01*
X677247Y181318D01*
X677286Y181368D01*
Y181373D01*
X677297Y181385D01*
X677308Y181407D01*
X677325Y181435D01*
X677341Y181479D01*
X677364Y181529D01*
X677380Y181590D01*
X677402Y181662D01*
X677425Y181745D01*
X677447Y181840D01*
X677469Y181945D01*
X677486Y182062D01*
X677502Y182195D01*
X677514Y182339D01*
X677519Y182494D01*
X677525Y182667D01*
Y182678D01*
Y182705D01*
Y182755D01*
X677519Y182822D01*
Y182894D01*
X677514Y182983D01*
X677508Y183077D01*
X677497Y183177D01*
X677469Y183394D01*
X677452Y183499D01*
X677430Y183599D01*
X677408Y183693D01*
X677375Y183782D01*
X677341Y183860D01*
X677303Y183926D01*
Y183932D01*
X677291Y183938D01*
X677264Y183976D01*
X677214Y184026D01*
X677153Y184082D01*
X677070Y184137D01*
X676975Y184187D01*
X676870Y184226D01*
X676814Y184232D01*
X676753Y184237D01*
D02*
G37*
G36*
X598316Y99548D02*
X598283D01*
X598260Y99543D01*
X598205Y99537D01*
X598127Y99520D01*
X598044Y99493D01*
X597950Y99448D01*
X597861Y99393D01*
X597772Y99315D01*
X597761Y99304D01*
X597739Y99276D01*
X597700Y99226D01*
X597661Y99154D01*
X597622Y99071D01*
X597583Y98965D01*
X597561Y98849D01*
X597550Y98716D01*
Y98704D01*
Y98677D01*
X597556Y98627D01*
X597561Y98566D01*
X597572Y98494D01*
X597594Y98416D01*
X597617Y98333D01*
X597650Y98249D01*
X597656Y98238D01*
X597672Y98211D01*
X597694Y98172D01*
X597728Y98122D01*
X597767Y98072D01*
X597817Y98011D01*
X597872Y97961D01*
X597939Y97911D01*
X597950Y97905D01*
X597972Y97894D01*
X598011Y97872D01*
X598061Y97855D01*
X598116Y97833D01*
X598183Y97811D01*
X598255Y97800D01*
X598333Y97794D01*
X598360D01*
X598383Y97800D01*
X598438Y97805D01*
X598510Y97822D01*
X598588Y97855D01*
X598677Y97894D01*
X598766Y97955D01*
X598810Y97989D01*
X598849Y98033D01*
Y98039D01*
X598860Y98044D01*
X598882Y98077D01*
X598915Y98133D01*
X598960Y98205D01*
X598999Y98299D01*
X599032Y98410D01*
X599054Y98538D01*
X599065Y98688D01*
Y98693D01*
Y98704D01*
Y98727D01*
X599060Y98755D01*
Y98788D01*
X599054Y98827D01*
X599038Y98915D01*
X599015Y99015D01*
X598977Y99121D01*
X598921Y99221D01*
X598849Y99315D01*
X598838Y99326D01*
X598810Y99354D01*
X598766Y99387D01*
X598704Y99432D01*
X598627Y99476D01*
X598538Y99509D01*
X598433Y99537D01*
X598316Y99548D01*
D02*
G37*
G36*
X595075Y100886D02*
X593865D01*
Y99615D01*
X595008D01*
X595075Y99620D01*
X595153Y99626D01*
X595241Y99631D01*
X595330Y99642D01*
X595419Y99659D01*
X595497Y99681D01*
X595508Y99687D01*
X595530Y99698D01*
X595563Y99715D01*
X595608Y99737D01*
X595658Y99770D01*
X595708Y99809D01*
X595757Y99859D01*
X595796Y99914D01*
X595802Y99920D01*
X595813Y99942D01*
X595830Y99976D01*
X595852Y100020D01*
X595868Y100070D01*
X595885Y100125D01*
X595896Y100192D01*
X595902Y100259D01*
Y100264D01*
Y100270D01*
X595896Y100303D01*
X595891Y100353D01*
X595880Y100419D01*
X595852Y100486D01*
X595819Y100564D01*
X595769Y100636D01*
X595702Y100708D01*
X595691Y100714D01*
X595663Y100736D01*
X595619Y100764D01*
X595547Y100797D01*
X595463Y100830D01*
X595352Y100858D01*
X595225Y100880D01*
X595075Y100886D01*
D02*
G37*
G36*
X636884Y99730D02*
X635675Y98009D01*
X636884D01*
Y99730D01*
D02*
G37*
G36*
X633421Y100068D02*
X632211D01*
Y98797D01*
X633355D01*
X633421Y98803D01*
X633499Y98808D01*
X633588Y98814D01*
X633677Y98825D01*
X633765Y98842D01*
X633843Y98864D01*
X633854Y98870D01*
X633876Y98881D01*
X633910Y98897D01*
X633954Y98919D01*
X634004Y98953D01*
X634054Y98992D01*
X634104Y99041D01*
X634143Y99097D01*
X634148Y99103D01*
X634159Y99125D01*
X634176Y99158D01*
X634198Y99203D01*
X634215Y99252D01*
X634232Y99308D01*
X634243Y99375D01*
X634248Y99441D01*
Y99447D01*
Y99452D01*
X634243Y99485D01*
X634237Y99536D01*
X634226Y99602D01*
X634198Y99669D01*
X634165Y99746D01*
X634115Y99818D01*
X634048Y99891D01*
X634037Y99896D01*
X634010Y99918D01*
X633965Y99946D01*
X633893Y99980D01*
X633810Y100013D01*
X633699Y100040D01*
X633571Y100063D01*
X633421Y100068D01*
D02*
G37*
G36*
X671220Y100933D02*
X670011D01*
Y99662D01*
X671154D01*
X671220Y99668D01*
X671298Y99673D01*
X671387Y99679D01*
X671476Y99690D01*
X671565Y99706D01*
X671642Y99729D01*
X671653Y99734D01*
X671676Y99745D01*
X671709Y99762D01*
X671753Y99784D01*
X671803Y99817D01*
X671853Y99856D01*
X671903Y99906D01*
X671942Y99962D01*
X671947Y99967D01*
X671959Y99989D01*
X671975Y100023D01*
X671997Y100067D01*
X672014Y100117D01*
X672031Y100173D01*
X672042Y100239D01*
X672048Y100306D01*
Y100311D01*
Y100317D01*
X672042Y100350D01*
X672036Y100400D01*
X672025Y100467D01*
X671997Y100533D01*
X671964Y100611D01*
X671914Y100683D01*
X671848Y100755D01*
X671837Y100761D01*
X671809Y100783D01*
X671764Y100811D01*
X671692Y100844D01*
X671609Y100877D01*
X671498Y100905D01*
X671370Y100927D01*
X671220Y100933D01*
D02*
G37*
%LPD*%
D10*
X587449Y102000D02*
X607331D01*
X664728Y102000D02*
X684610D01*
X624949Y102000D02*
X644831D01*
X694095Y173913D02*
Y265744D01*
X686221Y173913D02*
X694095D01*
X686221D02*
Y270961D01*
X690158D01*
X583937Y173913D02*
Y265744D01*
X576063Y173913D02*
X583937D01*
X576063D02*
Y270961D01*
X580000D01*
M02*
