G04*
G04 #@! TF.GenerationSoftware,Altium Limited,Altium Designer,20.0.2 (26)*
G04*
G04 Layer_Color=32768*
%FSLAX25Y25*%
%MOIN*%
G70*
G01*
G75*
%ADD54C,0.00394*%
%ADD56C,0.00197*%
D54*
X639284Y255612D02*
Y303250D01*
Y255612D02*
X674717D01*
Y303250D01*
X639284D02*
X674717D01*
X639284Y154681D02*
Y202319D01*
Y154681D02*
X674717D01*
Y202319D01*
X639284D02*
X674717D01*
X594681Y158020D02*
X642319D01*
Y193453D01*
X594681D02*
X642319D01*
X594681Y158020D02*
Y193453D01*
X639284Y254543D02*
X674717D01*
Y206906D02*
Y254543D01*
X639284Y206906D02*
X674717D01*
X639284D02*
Y254543D01*
X595181Y261784D02*
Y297217D01*
X642819D01*
Y261784D02*
Y297217D01*
X595181Y261784D02*
X642819D01*
X594681Y210784D02*
Y246217D01*
X642319D01*
Y210784D02*
Y246217D01*
X594681Y210784D02*
X642319D01*
D56*
X672547Y252791D02*
X678453D01*
Y264209D01*
X672547D02*
X678453D01*
X672547Y252791D02*
Y264209D01*
X585579Y79264D02*
Y124736D01*
X609201D01*
Y79264D02*
Y124736D01*
X585579Y79264D02*
X609201D01*
X674051Y190500D02*
Y196405D01*
Y190500D02*
X685468D01*
Y196405D01*
X674051D02*
X685468D01*
X677547Y168890D02*
X683453D01*
Y180110D01*
X677547D02*
X683453D01*
X677547Y168890D02*
Y180110D01*
X675177Y184559D02*
X684823D01*
X675177D02*
Y189441D01*
X684823D01*
Y184559D02*
Y189441D01*
X695941Y134177D02*
Y143823D01*
X691059D02*
X695941D01*
X691059Y134177D02*
Y143823D01*
Y134177D02*
X695941D01*
X662858Y79264D02*
Y124736D01*
X686480D01*
Y79264D02*
Y124736D01*
X662858Y79264D02*
X686480D01*
X671059Y138961D02*
X675941D01*
Y129315D02*
Y138961D01*
X671059Y129315D02*
X675941D01*
X671059D02*
Y138961D01*
X594291Y194047D02*
Y199953D01*
X605709D01*
Y194047D02*
Y199953D01*
X594291Y194047D02*
X605709D01*
X594291Y201047D02*
Y206953D01*
X605709D01*
Y201047D02*
Y206953D01*
X594291Y201047D02*
X605709D01*
X588335Y234791D02*
X594240D01*
X588335D02*
Y246209D01*
X594240D01*
Y234791D02*
Y246209D01*
X588047Y229209D02*
X593953D01*
Y217791D02*
Y229209D01*
X588047Y217791D02*
X593953D01*
X588047D02*
Y229209D01*
X594291Y250547D02*
Y256453D01*
X605709D01*
Y250547D02*
Y256453D01*
X594291Y250547D02*
X605709D01*
X594291Y257047D02*
Y262953D01*
X605709D01*
Y257047D02*
Y262953D01*
X594291Y257047D02*
X605709D01*
X652449Y106823D02*
X657331D01*
Y97177D02*
Y106823D01*
X652449Y97177D02*
X657331D01*
X652449D02*
Y106823D01*
X612059Y107323D02*
X616941D01*
Y97677D02*
Y107323D01*
X612059Y97677D02*
X616941D01*
X612059D02*
Y107323D01*
X575059Y106823D02*
X579941D01*
Y97177D02*
Y106823D01*
X575059Y97177D02*
X579941D01*
X575059D02*
Y106823D01*
X695240Y114795D02*
Y128575D01*
X674768Y114795D02*
X695240D01*
X674768D02*
Y128575D01*
X695240D01*
X676413Y144768D02*
X690587D01*
Y128232D02*
Y144768D01*
X676413Y128232D02*
X690587D01*
X676413D02*
Y144768D01*
X657445Y89402D02*
X672012D01*
X657445D02*
Y114599D01*
X672012D01*
Y89402D02*
Y114599D01*
X617665Y89402D02*
X632232D01*
X617665D02*
Y114598D01*
X632232D01*
Y89402D02*
Y114598D01*
X623079Y79264D02*
Y124736D01*
X646701D01*
Y79264D02*
Y124736D01*
X623079Y79264D02*
X646701D01*
X596181Y95547D02*
Y101453D01*
X607598D01*
Y95547D02*
Y101453D01*
X596181Y95547D02*
X607598D01*
X580165Y89402D02*
X594732D01*
X580165D02*
Y114598D01*
X594732D01*
Y89402D02*
Y114598D01*
X596181Y102547D02*
Y108453D01*
X607598D01*
Y102547D02*
Y108453D01*
X596181Y102547D02*
X607598D01*
X673681D02*
Y108453D01*
X685098D01*
Y102547D02*
Y108453D01*
X673681Y102547D02*
X685098D01*
X673634Y95547D02*
Y101453D01*
X685051D01*
Y95547D02*
Y101453D01*
X673634Y95547D02*
X685051D01*
X633681Y102547D02*
Y108453D01*
X645098D01*
Y102547D02*
Y108453D01*
X633681Y102547D02*
X645098D01*
X633681Y95547D02*
Y101453D01*
X645098D01*
Y95547D02*
Y101453D01*
X633681Y95547D02*
X645098D01*
X673587Y197791D02*
Y209209D01*
X667681Y197791D02*
X673587D01*
X667681D02*
Y209209D01*
X673587D01*
X667287Y197791D02*
Y209209D01*
X661382Y197791D02*
X667287D01*
X661382D02*
Y209209D01*
X667287D01*
X670291Y231547D02*
X681709D01*
X670291D02*
Y237453D01*
X681709D01*
Y231547D02*
Y237453D01*
X670291Y239047D02*
X681709D01*
X670291D02*
Y244953D01*
X681709D01*
Y239047D02*
Y244953D01*
X665496Y252791D02*
Y264209D01*
X671402D01*
Y252791D02*
Y264209D01*
X665496Y252791D02*
X671402D01*
X629890Y199484D02*
Y207831D01*
X646110D01*
Y199484D02*
Y207831D01*
X629890Y199484D02*
X646110D01*
X627390Y250902D02*
Y259248D01*
X643610D01*
Y250902D02*
Y259248D01*
X627390Y250902D02*
X643610D01*
X632390Y300827D02*
Y309173D01*
X648610D01*
Y300827D02*
Y309173D01*
X632390Y300827D02*
X648610D01*
X632390Y309827D02*
Y318173D01*
X648610D01*
Y309827D02*
Y318173D01*
X632390Y309827D02*
X648610D01*
X629390Y139610D02*
Y147957D01*
X645610D01*
Y139610D02*
Y147957D01*
X629390Y139610D02*
X645610D01*
X629390Y148327D02*
Y156673D01*
X645610D01*
Y148327D02*
Y156673D01*
X629390Y148327D02*
X645610D01*
X685236Y172929D02*
Y271945D01*
Y172929D02*
X695079D01*
Y271945D01*
X685236D02*
X695079D01*
X575079Y172929D02*
Y271945D01*
Y172929D02*
X584921D01*
Y271945D01*
X575079D02*
X584921D01*
M02*
