G04*
G04 #@! TF.GenerationSoftware,Altium Limited,Altium Designer,22.10.1 (41)*
G04*
G04 Layer_Color=255*
%FSLAX25Y25*%
%MOIN*%
G70*
G04*
G04 #@! TF.SameCoordinates,59214271-F8BB-42CD-AB19-65BC4A0A980D*
G04*
G04*
G04 #@! TF.FilePolarity,Positive*
G04*
G01*
G75*
%ADD13C,0.01000*%
%ADD14R,0.02559X0.02520*%
%ADD15R,0.03347X0.03937*%
%ADD16R,0.01772X0.05709*%
%ADD17R,0.02756X0.03543*%
%ADD18R,0.05158X0.02165*%
%ADD19R,0.01181X0.02756*%
G04:AMPARAMS|DCode=20|XSize=11.81mil|YSize=23.62mil|CornerRadius=4.13mil|HoleSize=0mil|Usage=FLASHONLY|Rotation=180.000|XOffset=0mil|YOffset=0mil|HoleType=Round|Shape=RoundedRectangle|*
%AMROUNDEDRECTD20*
21,1,0.01181,0.01535,0,0,180.0*
21,1,0.00354,0.02362,0,0,180.0*
1,1,0.00827,-0.00177,0.00768*
1,1,0.00827,0.00177,0.00768*
1,1,0.00827,0.00177,-0.00768*
1,1,0.00827,-0.00177,-0.00768*
%
%ADD20ROUNDEDRECTD20*%
%ADD21O,0.01181X0.02362*%
%ADD22R,0.06693X0.04331*%
%ADD23R,0.05118X0.02756*%
%ADD24R,0.03347X0.04331*%
%ADD25R,0.04331X0.06693*%
%ADD26R,0.02756X0.05118*%
%ADD27R,0.04331X0.03347*%
%ADD28R,0.02441X0.07165*%
%ADD29R,0.02520X0.02559*%
%ADD30R,0.03543X0.02756*%
%ADD58C,0.04724*%
%ADD59R,0.04724X0.04724*%
D13*
X127953Y0D02*
Y236221D01*
X5906Y0D02*
X127953D01*
X5906D02*
Y236221D01*
X127953D01*
D14*
X119488Y99016D02*
D03*
X123031D02*
D03*
X119783Y68307D02*
D03*
X116240D02*
D03*
D15*
X117815Y92618D02*
D03*
X123721D02*
D03*
D16*
X30610Y48130D02*
D03*
Y30610D02*
D03*
X33169D02*
D03*
X35728D02*
D03*
X38287D02*
D03*
Y48130D02*
D03*
X35728D02*
D03*
X33169D02*
D03*
X65059Y30610D02*
D03*
X67618D02*
D03*
X70177D02*
D03*
X72736D02*
D03*
Y48130D02*
D03*
X70177D02*
D03*
X67618D02*
D03*
X65059D02*
D03*
X97539Y30610D02*
D03*
X100098D02*
D03*
X102657D02*
D03*
X105217D02*
D03*
Y48130D02*
D03*
X102657D02*
D03*
X100098D02*
D03*
X97539D02*
D03*
D17*
X118209Y86811D02*
D03*
X124114D02*
D03*
X34449Y123031D02*
D03*
X28543D02*
D03*
X34449Y172244D02*
D03*
X28543D02*
D03*
D18*
X114173Y75984D02*
D03*
D19*
X116142Y72835D02*
D03*
X114173D02*
D03*
X112205D02*
D03*
Y79134D02*
D03*
X114173D02*
D03*
X116142D02*
D03*
D20*
X28543Y179134D02*
D03*
X29626Y165354D02*
D03*
Y116142D02*
D03*
D21*
X31398Y179134D02*
D03*
X32480Y165354D02*
D03*
Y116142D02*
D03*
D22*
X75984Y216535D02*
D03*
X84646D02*
D03*
X93307D02*
D03*
X75984Y181102D02*
D03*
X84646D02*
D03*
X93307D02*
D03*
X75984Y169291D02*
D03*
X84646D02*
D03*
X93307D02*
D03*
X75984Y133858D02*
D03*
X84646D02*
D03*
X93307D02*
D03*
X75984Y122047D02*
D03*
X84646D02*
D03*
X93307D02*
D03*
X75984Y86614D02*
D03*
X84646D02*
D03*
X93307D02*
D03*
D23*
X84646Y207677D02*
D03*
Y160433D02*
D03*
Y113189D02*
D03*
D24*
X77854Y191142D02*
D03*
X82382D02*
D03*
X86910D02*
D03*
X91437D02*
D03*
X77854Y202165D02*
D03*
X82382D02*
D03*
X86910D02*
D03*
X91437D02*
D03*
X77854Y143898D02*
D03*
X82382D02*
D03*
X86910D02*
D03*
X91437D02*
D03*
X77854Y154921D02*
D03*
X82382D02*
D03*
X86910D02*
D03*
X91437D02*
D03*
X77854Y96653D02*
D03*
X82382D02*
D03*
X86910D02*
D03*
X91437D02*
D03*
X77854Y107677D02*
D03*
X82382D02*
D03*
X86910D02*
D03*
X91437D02*
D03*
D25*
X29724Y190453D02*
D03*
Y199114D02*
D03*
Y207776D02*
D03*
X65158Y190453D02*
D03*
Y199114D02*
D03*
Y207776D02*
D03*
X29528Y140157D02*
D03*
Y148819D02*
D03*
Y157480D02*
D03*
X64961Y140157D02*
D03*
Y148819D02*
D03*
Y157480D02*
D03*
X29528Y91043D02*
D03*
Y99705D02*
D03*
Y108366D02*
D03*
X64961Y91043D02*
D03*
Y99705D02*
D03*
Y108366D02*
D03*
D26*
X38583Y199114D02*
D03*
X38386Y148819D02*
D03*
X38386Y99705D02*
D03*
D27*
X55118Y192323D02*
D03*
Y196850D02*
D03*
Y201378D02*
D03*
Y205906D02*
D03*
X44094Y192323D02*
D03*
Y196850D02*
D03*
Y201378D02*
D03*
Y205906D02*
D03*
X54921Y142027D02*
D03*
Y146555D02*
D03*
Y151083D02*
D03*
Y155610D02*
D03*
X43898Y142027D02*
D03*
Y146555D02*
D03*
Y151083D02*
D03*
Y155610D02*
D03*
X54921Y92913D02*
D03*
Y97441D02*
D03*
Y101969D02*
D03*
Y106496D02*
D03*
X43898Y92913D02*
D03*
Y97441D02*
D03*
Y101969D02*
D03*
Y106496D02*
D03*
D28*
X67323Y219488D02*
D03*
X54724D02*
D03*
X67323Y228346D02*
D03*
X54724D02*
D03*
X67323Y179134D02*
D03*
X54724D02*
D03*
X67323Y169291D02*
D03*
X54724D02*
D03*
X68307Y128937D02*
D03*
X55709D02*
D03*
X68307Y121063D02*
D03*
X55709D02*
D03*
D29*
X108268Y73032D02*
D03*
Y76575D02*
D03*
X122047Y76968D02*
D03*
Y80512D02*
D03*
X112205Y36811D02*
D03*
Y40354D02*
D03*
X78740Y37598D02*
D03*
Y41142D02*
D03*
X45276Y37598D02*
D03*
Y41142D02*
D03*
D30*
X23622Y187992D02*
D03*
Y193898D02*
D03*
D58*
X122047Y110236D02*
D03*
Y118110D02*
D03*
Y125984D02*
D03*
Y133858D02*
D03*
Y141732D02*
D03*
Y149606D02*
D03*
Y157480D02*
D03*
Y165354D02*
D03*
Y173228D02*
D03*
Y181102D02*
D03*
Y188976D02*
D03*
X11811Y110236D02*
D03*
Y118110D02*
D03*
Y125984D02*
D03*
Y133858D02*
D03*
Y141732D02*
D03*
Y149606D02*
D03*
Y157480D02*
D03*
Y165354D02*
D03*
Y173228D02*
D03*
Y181102D02*
D03*
Y188976D02*
D03*
D59*
X122047Y196850D02*
D03*
X11811D02*
D03*
M02*
