M48
;Layer_Color=9474304
;FILE_FORMAT=2:5
INCH,LZ
;TYPE=PLATED
T1F00S00C0.01378
T2F00S00C0.02800
T3F00S00C0.03150
%
T01
X0015354Y0003149
X0017716
X0020078
X002244
X0024803
X0027165
X0029527
X0031889
Y0005511
Y0007874
Y0010236
Y0012598
Y001496
X0029527
Y0012598
Y0010236
Y0007874
Y0005511
X0027165
Y0007874
Y0010236
Y0012598
Y001496
X0024803
Y0012598
Y0010236
Y0007874
Y0005511
X002244
Y0007874
Y0010236
Y0012598
Y001496
X0020078
Y0012598
Y0010236
Y0007874
Y0005511
X0017716
Y0007874
Y0010236
Y0012598
Y001496
X0015354
Y0012598
Y0010236
Y0007874
Y0005511
Y0017322
Y0019685
X0017716
X0020078
X002244
X0024803
X0027165
X0029527
X0031889
Y0017322
X0029527
X0027165
X0024803
X002244
X0020078
X0017716
X0023524Y0035335
Y0043602
X0057087Y004311
Y0035138
X0057873Y0019685
X0055511
X0053149
X0050787
X0048425
Y0017322
X0050787
X0053149
X0055511
X0057873
X0060236
Y0019685
X0062598
X006496
X0067322
Y0017322
X006496
X0062598
Y001496
X006496
X0067322
Y0012598
Y0010236
Y0007874
Y0005511
Y0003149
X006496
Y0005511
Y0007874
Y0010236
Y0012598
X0062598
Y0010236
Y0007874
Y0005511
Y0003149
X0060236
Y0005511
Y0007874
Y0010236
Y0012598
Y001496
X0057873
Y0012598
Y0010236
Y0007874
Y0005511
Y0003149
X0055511
Y0005511
Y0007874
Y0010236
Y0012598
Y001496
X0053149
Y0012598
Y0010236
Y0007874
Y0005511
Y0003149
X0050787
Y0005511
Y0007874
Y0010236
Y0012598
Y001496
X0048425
Y0012598
Y0010236
Y0007874
Y0005511
Y0003149
X0081495
X0083858
X008622
X0088582
X0090944
X0093306
X0095669
X0098031
X0100393
Y0005511
Y0007874
Y0010236
Y0012598
Y001496
Y0017322
Y0019685
X0098031
X0095669
X0093306
X0090944
X0088582
X008622
X0083858
X0081495
Y0017322
X0083858
X008622
X0088582
X0090944
X0093306
X0095669
X0098031
Y001496
Y0012598
Y0010236
Y0007874
Y0005511
X0095669
Y0007874
Y0010236
Y0012598
Y001496
X0093306
Y0012598
Y0010236
Y0007874
Y0005511
X0090944
Y0007874
Y0010236
Y0012598
Y001496
X0088582
Y0012598
Y0010236
Y0007874
Y0005511
X008622
Y0007874
Y0010236
Y0012598
Y001496
X0083858
Y0012598
Y0010236
Y0007874
Y0005511
X0081495
Y0007874
Y0010236
Y0012598
Y001496
X0090354Y0034744
X0090453Y0043602
X0110728Y0067126
X0123425Y0065551
X0114469Y0084547
X0114862Y0098917
X0090944Y0099999
Y0097637
X0088582
X008622
X0083858
X0081495
X0079133
Y0099999
X0081495
X0083858
X008622
X0088582
Y0102362
X0090944
X009055Y0104723
X0088187
X0085825
X0083463
X0081101
X0078739
X0078739Y0107086
Y0109055
X0081102
Y0107086
X0083464
Y0109055
X0085826
Y0107086
X0088188
Y0109055
X008622Y0102362
X0083858
X0081495
X0079133
Y0095275
X0081495
X0083858
X008622
X0088582
X0090944
X0088582Y0142519
X008622
X0083858
X0081495
X0079133
X0076771
Y0144881
Y0147243
X0079133
Y0144881
X0081495
X0083858
X008622
X0088582
Y0147243
X008622
X0083858
X0081495
Y0149606
Y0151968
X0079133
X0076771
Y0149606
X0079133
X0083858
Y0151968
X008622
X0088582
Y0149606
X008622
X0085826Y015433
X0083464
X0081102
X0078739
X0076377
X0074409
Y0151968
Y0149606
Y0147243
Y0144881
X0072047
Y0147243
Y0149606
Y0151968
Y015433
X0069684
Y0151968
Y0149606
Y0147243
Y0144881
Y0142519
X0072047
X0074409Y0142519
X0088188Y015433
X0088976Y0189468
X0086613
X0084251
X0081889
X0079527
X0079428Y0192027
X0081791
X0084153
X0086515
X0088877
X0088779Y0194487
X0086417
X0084054
X0081692
X0081495Y019685
X0083858
X008622
X0088582
X0090944
X0090747Y0199113
X0088385
X0086023
X0083661
X0081298
X0079133Y0199212
X0076771
X0074409
Y0201574
X0076672Y0201476
X0078838Y0201574
X0081102Y0201476
X0083464
X0085826
X0088188
X009055
X0091141Y0194487
X0079133Y0194487
X0079133Y019685
X0076771
X0074409
Y0194487
X0076672
X0076869Y0192125
X0074409Y0192125
X0072047
Y0194487
Y019685
Y0199212
Y0201574
X0069684
Y0199212
Y019685
Y0194487
Y0192125
Y0189763
X0072047
X0074409
X0076968Y0189665
X0076771Y022992
X0079133
X0081495
X0083858
X008622
X0088582
Y0232283
X008622
X0083858
X0081495
X0079133
X0076771
X0074409
Y022992
X0072047
Y0232283
X0038976Y0225196
Y0222834
Y0220472
X0036614Y0222834
Y0225196
Y0227558
X0034251
Y022992
X0031889
Y0232283
X0029527
Y022992
Y0227558
X0031889
Y0225196
X0034251
Y0222834
X0031889
X0029527
Y0225196
X0027165
Y0227558
Y022992
Y0232283
X0024803
Y022992
Y0227558
Y0225196
Y0222834
X0027165
X002244
Y0225196
Y0227558
Y022992
Y0232283
X0020078
Y022992
Y0227558
Y0225196
Y0222834
X0017716
Y0225196
Y0227558
Y022992
Y0232283
X0015354
Y022992
Y0227558
Y0225196
Y0222834
X0012991
Y0225196
Y0227558
Y022992
Y0232283
X0010629
Y022992
Y0227558
Y0225196
Y0222834
X0055118Y0208268
X0116928Y0218109
X011929
X0121653
X0124015
X0126377
Y0220472
Y0222834
Y0225196
Y0227558
Y022992
Y0232283
X0124015
Y022992
Y0227558
Y0225196
Y0222834
Y0220472
X0121653
Y0222834
Y0225196
Y0227558
Y022992
Y0232283
X011929
Y022992
Y0227558
Y0225196
Y0222834
Y0220472
X0116928
Y0222834
Y0225196
Y0227558
Y022992
Y0232283
T02
X0091535Y0107283
X0093504Y0115157
X0123622Y0081201
X0091535Y0153543
X0093504Y0161417
X0091535Y0190945
X0095472Y0208661
T03
X0011811Y0110236
Y011811
X0122047
Y0110236
Y0125984
Y0133858
Y0141732
Y0149606
Y015748
Y0165354
Y0173228
Y0181102
Y0188976
Y019685
X0011811
Y0188976
Y0181102
Y0173228
Y0165354
Y015748
Y0149606
Y0141732
Y0133858
Y0125984
M30
