G04*
G04 #@! TF.GenerationSoftware,Altium Limited,Altium Designer,22.10.1 (41)*
G04*
G04 Layer_Color=8388736*
%FSLAX25Y25*%
%MOIN*%
G70*
G04*
G04 #@! TF.SameCoordinates,59214271-F8BB-42CD-AB19-65BC4A0A980D*
G04*
G04*
G04 #@! TF.FilePolarity,Negative*
G04*
G01*
G75*
%ADD13C,0.01000*%
%ADD31R,0.03359X0.03320*%
%ADD32R,0.04147X0.04737*%
%ADD33R,0.02572X0.06509*%
%ADD34R,0.03556X0.04343*%
%ADD35R,0.05958X0.02965*%
%ADD36R,0.01981X0.03556*%
G04:AMPARAMS|DCode=37|XSize=19.81mil|YSize=31.62mil|CornerRadius=8.13mil|HoleSize=0mil|Usage=FLASHONLY|Rotation=180.000|XOffset=0mil|YOffset=0mil|HoleType=Round|Shape=RoundedRectangle|*
%AMROUNDEDRECTD37*
21,1,0.01981,0.01535,0,0,180.0*
21,1,0.00354,0.03162,0,0,180.0*
1,1,0.01627,-0.00177,0.00768*
1,1,0.01627,0.00177,0.00768*
1,1,0.01627,0.00177,-0.00768*
1,1,0.01627,-0.00177,-0.00768*
%
%ADD37ROUNDEDRECTD37*%
%ADD38O,0.01981X0.03162*%
%ADD39R,0.07493X0.05131*%
%ADD40R,0.05918X0.03556*%
%ADD41R,0.04147X0.05131*%
%ADD42R,0.05131X0.07493*%
%ADD43R,0.03556X0.05918*%
%ADD44R,0.05131X0.04147*%
%ADD45R,0.03241X0.07965*%
%ADD46R,0.03320X0.03359*%
%ADD47R,0.04343X0.03556*%
%ADD48C,0.05524*%
%ADD49R,0.05524X0.05524*%
%ADD50C,0.03162*%
%ADD51C,0.03600*%
%ADD52C,0.05800*%
G36*
X35827Y234252D02*
Y220472D01*
X7874Y220472D01*
Y234252D01*
X35827Y234252D01*
D02*
G37*
G36*
X96063Y218504D02*
X70472D01*
Y234252D01*
X96063D01*
Y218504D01*
D02*
G37*
G36*
X127953Y214961D02*
X127559Y215354D01*
X113779D01*
Y234252D01*
X127953D01*
Y214961D01*
D02*
G37*
G36*
X57874Y213386D02*
X57480Y212992D01*
X40945D01*
Y215354D01*
X57874D01*
Y213386D01*
D02*
G37*
G36*
Y158661D02*
X41339D01*
Y189370D01*
X57874D01*
Y158661D01*
D02*
G37*
G36*
X58661Y109449D02*
X40945D01*
X41339Y138976D01*
X58661D01*
Y109449D01*
D02*
G37*
G36*
X112205Y90945D02*
X101969Y80709D01*
X70866D01*
Y87008D01*
X97638D01*
X98425Y87795D01*
Y124803D01*
X72441Y124803D01*
X66535Y118898D01*
X66535Y131496D01*
X96457Y131496D01*
X98819Y133858D01*
Y169685D01*
X67323D01*
Y181102D01*
X98425D01*
Y216142D01*
X112205D01*
Y90945D01*
D02*
G37*
G36*
X102362Y787D02*
X78740D01*
Y23228D01*
X102362D01*
Y787D01*
D02*
G37*
G36*
X68898D02*
X45276D01*
Y22835D01*
X68898D01*
Y787D01*
D02*
G37*
G36*
X35039Y394D02*
X12205D01*
Y22835D01*
X35039D01*
Y394D01*
D02*
G37*
D13*
X127953Y0D02*
Y236221D01*
X5906Y0D02*
X127953D01*
X5906D02*
Y236221D01*
X127953D01*
D31*
X119488Y99016D02*
D03*
X123031D02*
D03*
X119783Y68307D02*
D03*
X116240D02*
D03*
D32*
X117815Y92618D02*
D03*
X123721D02*
D03*
D33*
X30610Y48130D02*
D03*
Y30610D02*
D03*
X33169D02*
D03*
X35728D02*
D03*
X38287D02*
D03*
Y48130D02*
D03*
X35728D02*
D03*
X33169D02*
D03*
X65059Y30610D02*
D03*
X67618D02*
D03*
X70177D02*
D03*
X72736D02*
D03*
Y48130D02*
D03*
X70177D02*
D03*
X67618D02*
D03*
X65059D02*
D03*
X97539Y30610D02*
D03*
X100098D02*
D03*
X102657D02*
D03*
X105217D02*
D03*
Y48130D02*
D03*
X102657D02*
D03*
X100098D02*
D03*
X97539D02*
D03*
D34*
X118209Y86811D02*
D03*
X124114D02*
D03*
X34449Y123031D02*
D03*
X28543D02*
D03*
X34449Y172244D02*
D03*
X28543D02*
D03*
D35*
X114173Y75984D02*
D03*
D36*
X116142Y72835D02*
D03*
X114173D02*
D03*
X112205D02*
D03*
Y79134D02*
D03*
X114173D02*
D03*
X116142D02*
D03*
D37*
X28543Y179134D02*
D03*
X29626Y165354D02*
D03*
Y116142D02*
D03*
D38*
X31398Y179134D02*
D03*
X32480Y165354D02*
D03*
Y116142D02*
D03*
D39*
X75984Y216535D02*
D03*
X84646D02*
D03*
X93307D02*
D03*
X75984Y181102D02*
D03*
X84646D02*
D03*
X93307D02*
D03*
X75984Y169291D02*
D03*
X84646D02*
D03*
X93307D02*
D03*
X75984Y133858D02*
D03*
X84646D02*
D03*
X93307D02*
D03*
X75984Y122047D02*
D03*
X84646D02*
D03*
X93307D02*
D03*
X75984Y86614D02*
D03*
X84646D02*
D03*
X93307D02*
D03*
D40*
X84646Y207677D02*
D03*
Y160433D02*
D03*
Y113189D02*
D03*
D41*
X77854Y191142D02*
D03*
X82382D02*
D03*
X86910D02*
D03*
X91437D02*
D03*
X77854Y202165D02*
D03*
X82382D02*
D03*
X86910D02*
D03*
X91437D02*
D03*
X77854Y143898D02*
D03*
X82382D02*
D03*
X86910D02*
D03*
X91437D02*
D03*
X77854Y154921D02*
D03*
X82382D02*
D03*
X86910D02*
D03*
X91437D02*
D03*
X77854Y96653D02*
D03*
X82382D02*
D03*
X86910D02*
D03*
X91437D02*
D03*
X77854Y107677D02*
D03*
X82382D02*
D03*
X86910D02*
D03*
X91437D02*
D03*
D42*
X29724Y190453D02*
D03*
Y199114D02*
D03*
Y207776D02*
D03*
X65158Y190453D02*
D03*
Y199114D02*
D03*
Y207776D02*
D03*
X29528Y140157D02*
D03*
Y148819D02*
D03*
Y157480D02*
D03*
X64961Y140157D02*
D03*
Y148819D02*
D03*
Y157480D02*
D03*
X29528Y91043D02*
D03*
Y99705D02*
D03*
Y108366D02*
D03*
X64961Y91043D02*
D03*
Y99705D02*
D03*
Y108366D02*
D03*
D43*
X38583Y199114D02*
D03*
X38386Y148819D02*
D03*
X38386Y99705D02*
D03*
D44*
X55118Y192323D02*
D03*
Y196850D02*
D03*
Y201378D02*
D03*
Y205906D02*
D03*
X44094Y192323D02*
D03*
Y196850D02*
D03*
Y201378D02*
D03*
Y205906D02*
D03*
X54921Y142027D02*
D03*
Y146555D02*
D03*
Y151083D02*
D03*
Y155610D02*
D03*
X43898Y142027D02*
D03*
Y146555D02*
D03*
Y151083D02*
D03*
Y155610D02*
D03*
X54921Y92913D02*
D03*
Y97441D02*
D03*
Y101969D02*
D03*
Y106496D02*
D03*
X43898Y92913D02*
D03*
Y97441D02*
D03*
Y101969D02*
D03*
Y106496D02*
D03*
D45*
X67323Y219488D02*
D03*
X54724D02*
D03*
X67323Y228346D02*
D03*
X54724D02*
D03*
X67323Y179134D02*
D03*
X54724D02*
D03*
X67323Y169291D02*
D03*
X54724D02*
D03*
X68307Y128937D02*
D03*
X55709D02*
D03*
X68307Y121063D02*
D03*
X55709D02*
D03*
D46*
X108268Y73032D02*
D03*
Y76575D02*
D03*
X122047Y76968D02*
D03*
Y80512D02*
D03*
X112205Y36811D02*
D03*
Y40354D02*
D03*
X78740Y37598D02*
D03*
Y41142D02*
D03*
X45276Y37598D02*
D03*
Y41142D02*
D03*
D47*
X23622Y187992D02*
D03*
Y193898D02*
D03*
D48*
X122047Y110236D02*
D03*
Y118110D02*
D03*
Y125984D02*
D03*
Y133858D02*
D03*
Y141732D02*
D03*
Y149606D02*
D03*
Y157480D02*
D03*
Y165354D02*
D03*
Y173228D02*
D03*
Y181102D02*
D03*
Y188976D02*
D03*
X11811Y110236D02*
D03*
Y118110D02*
D03*
Y125984D02*
D03*
Y133858D02*
D03*
Y141732D02*
D03*
Y149606D02*
D03*
Y157480D02*
D03*
Y165354D02*
D03*
Y173228D02*
D03*
Y181102D02*
D03*
Y188976D02*
D03*
D49*
X122047Y196850D02*
D03*
X11811D02*
D03*
D50*
X38976Y225196D02*
D03*
Y222834D02*
D03*
Y220472D02*
D03*
X36614Y227558D02*
D03*
Y225196D02*
D03*
Y222834D02*
D03*
X34251Y229920D02*
D03*
Y227558D02*
D03*
Y225196D02*
D03*
Y222834D02*
D03*
X31889Y232283D02*
D03*
Y229920D02*
D03*
Y227558D02*
D03*
Y225196D02*
D03*
Y222834D02*
D03*
X29527Y232283D02*
D03*
Y229920D02*
D03*
Y227558D02*
D03*
Y225196D02*
D03*
Y222834D02*
D03*
X27165Y232283D02*
D03*
Y229920D02*
D03*
Y227558D02*
D03*
Y225196D02*
D03*
Y222834D02*
D03*
X24803Y232283D02*
D03*
Y229920D02*
D03*
Y227558D02*
D03*
Y225196D02*
D03*
Y222834D02*
D03*
X22440Y232283D02*
D03*
Y229920D02*
D03*
Y227558D02*
D03*
Y225196D02*
D03*
Y222834D02*
D03*
X20078Y232283D02*
D03*
Y229920D02*
D03*
Y227558D02*
D03*
Y225196D02*
D03*
Y222834D02*
D03*
X17716Y232283D02*
D03*
Y229920D02*
D03*
Y227558D02*
D03*
Y225196D02*
D03*
Y222834D02*
D03*
X15354Y232283D02*
D03*
Y229920D02*
D03*
Y227558D02*
D03*
Y225196D02*
D03*
Y222834D02*
D03*
X12991Y232283D02*
D03*
Y229920D02*
D03*
Y227558D02*
D03*
Y225196D02*
D03*
Y222834D02*
D03*
X10629Y232283D02*
D03*
Y229920D02*
D03*
Y227558D02*
D03*
Y225196D02*
D03*
Y222834D02*
D03*
X126377Y232283D02*
D03*
Y229920D02*
D03*
Y227558D02*
D03*
Y225196D02*
D03*
Y222834D02*
D03*
Y220472D02*
D03*
Y218109D02*
D03*
X124015Y232283D02*
D03*
Y229920D02*
D03*
Y227558D02*
D03*
Y225196D02*
D03*
Y222834D02*
D03*
Y220472D02*
D03*
Y218109D02*
D03*
X121653Y232283D02*
D03*
Y229920D02*
D03*
Y227558D02*
D03*
Y225196D02*
D03*
Y222834D02*
D03*
Y220472D02*
D03*
Y218109D02*
D03*
X119290Y232283D02*
D03*
Y229920D02*
D03*
Y227558D02*
D03*
Y225196D02*
D03*
Y222834D02*
D03*
Y220472D02*
D03*
Y218109D02*
D03*
X116928Y232283D02*
D03*
Y229920D02*
D03*
Y227558D02*
D03*
Y225196D02*
D03*
Y222834D02*
D03*
Y220472D02*
D03*
Y218109D02*
D03*
X88582Y232283D02*
D03*
Y229920D02*
D03*
X86220Y232283D02*
D03*
Y229920D02*
D03*
X83858Y232283D02*
D03*
Y229920D02*
D03*
X81495Y232283D02*
D03*
Y229920D02*
D03*
X79133Y232283D02*
D03*
Y229920D02*
D03*
X76771Y232283D02*
D03*
Y229920D02*
D03*
X74409Y232283D02*
D03*
Y229920D02*
D03*
X72047Y232283D02*
D03*
Y229920D02*
D03*
X55118Y208268D02*
D03*
X81495Y19685D02*
D03*
X83858D02*
D03*
X86220D02*
D03*
X88582D02*
D03*
X90944D02*
D03*
X93306D02*
D03*
X95669D02*
D03*
X98031D02*
D03*
X100393D02*
D03*
X81495Y17322D02*
D03*
X83858D02*
D03*
X86220D02*
D03*
X88582D02*
D03*
X90944D02*
D03*
X93306D02*
D03*
X95669D02*
D03*
X98031D02*
D03*
X100393D02*
D03*
Y14960D02*
D03*
Y12598D02*
D03*
Y10236D02*
D03*
Y7874D02*
D03*
Y5511D02*
D03*
Y3149D02*
D03*
X98031Y14960D02*
D03*
Y12598D02*
D03*
Y10236D02*
D03*
Y7874D02*
D03*
Y5511D02*
D03*
Y3149D02*
D03*
X95669Y14960D02*
D03*
Y12598D02*
D03*
Y10236D02*
D03*
Y7874D02*
D03*
Y5511D02*
D03*
Y3149D02*
D03*
X93306Y14960D02*
D03*
Y12598D02*
D03*
Y10236D02*
D03*
Y7874D02*
D03*
Y5511D02*
D03*
Y3149D02*
D03*
X90944Y14960D02*
D03*
Y12598D02*
D03*
Y10236D02*
D03*
Y7874D02*
D03*
Y5511D02*
D03*
Y3149D02*
D03*
X88582Y14960D02*
D03*
Y12598D02*
D03*
Y10236D02*
D03*
Y7874D02*
D03*
Y5511D02*
D03*
Y3149D02*
D03*
X86220Y14960D02*
D03*
Y12598D02*
D03*
Y10236D02*
D03*
Y7874D02*
D03*
Y5511D02*
D03*
Y3149D02*
D03*
X83858Y14960D02*
D03*
Y12598D02*
D03*
Y10236D02*
D03*
Y7874D02*
D03*
Y5511D02*
D03*
Y3149D02*
D03*
X81495Y14960D02*
D03*
Y12598D02*
D03*
Y10236D02*
D03*
Y7874D02*
D03*
Y5511D02*
D03*
Y3149D02*
D03*
X48425Y19685D02*
D03*
X50787D02*
D03*
X53149D02*
D03*
X55511D02*
D03*
X57873D02*
D03*
X60236D02*
D03*
X62598D02*
D03*
X64960D02*
D03*
X67322D02*
D03*
X48425Y17322D02*
D03*
X50787D02*
D03*
X53149D02*
D03*
X55511D02*
D03*
X57873D02*
D03*
X60236D02*
D03*
X62598D02*
D03*
X64960D02*
D03*
X67322D02*
D03*
Y14960D02*
D03*
Y12598D02*
D03*
Y10236D02*
D03*
Y7874D02*
D03*
Y5511D02*
D03*
Y3149D02*
D03*
X64960Y14960D02*
D03*
Y12598D02*
D03*
Y10236D02*
D03*
Y7874D02*
D03*
Y5511D02*
D03*
Y3149D02*
D03*
X62598Y14960D02*
D03*
Y12598D02*
D03*
Y10236D02*
D03*
Y7874D02*
D03*
Y5511D02*
D03*
Y3149D02*
D03*
X60236Y14960D02*
D03*
Y12598D02*
D03*
Y10236D02*
D03*
Y7874D02*
D03*
Y5511D02*
D03*
Y3149D02*
D03*
X57873Y14960D02*
D03*
Y12598D02*
D03*
Y10236D02*
D03*
Y7874D02*
D03*
Y5511D02*
D03*
Y3149D02*
D03*
X55511Y14960D02*
D03*
Y12598D02*
D03*
Y10236D02*
D03*
Y7874D02*
D03*
Y5511D02*
D03*
Y3149D02*
D03*
X53149Y14960D02*
D03*
Y12598D02*
D03*
Y10236D02*
D03*
Y7874D02*
D03*
Y5511D02*
D03*
Y3149D02*
D03*
X50787Y14960D02*
D03*
Y12598D02*
D03*
Y10236D02*
D03*
Y7874D02*
D03*
Y5511D02*
D03*
Y3149D02*
D03*
X48425Y14960D02*
D03*
Y12598D02*
D03*
Y10236D02*
D03*
Y7874D02*
D03*
Y5511D02*
D03*
Y3149D02*
D03*
X15354Y19685D02*
D03*
X17716D02*
D03*
X20078D02*
D03*
X22440D02*
D03*
X24803D02*
D03*
X27165D02*
D03*
X29527D02*
D03*
X31889D02*
D03*
X15354Y17322D02*
D03*
X17716D02*
D03*
X20078D02*
D03*
X22440D02*
D03*
X24803D02*
D03*
X27165D02*
D03*
X29527D02*
D03*
X31889D02*
D03*
Y14960D02*
D03*
Y12598D02*
D03*
Y10236D02*
D03*
Y7874D02*
D03*
Y5511D02*
D03*
Y3149D02*
D03*
X29527Y14960D02*
D03*
Y12598D02*
D03*
Y10236D02*
D03*
Y7874D02*
D03*
Y5511D02*
D03*
Y3149D02*
D03*
X27165Y14960D02*
D03*
Y12598D02*
D03*
Y10236D02*
D03*
Y7874D02*
D03*
Y5511D02*
D03*
Y3149D02*
D03*
X24803Y14960D02*
D03*
Y12598D02*
D03*
Y10236D02*
D03*
Y7874D02*
D03*
Y5511D02*
D03*
Y3149D02*
D03*
X22440Y14960D02*
D03*
Y12598D02*
D03*
Y10236D02*
D03*
Y7874D02*
D03*
Y5511D02*
D03*
Y3149D02*
D03*
X20078Y14960D02*
D03*
Y12598D02*
D03*
Y10236D02*
D03*
Y7874D02*
D03*
Y5511D02*
D03*
Y3149D02*
D03*
X17716Y14960D02*
D03*
Y12598D02*
D03*
Y10236D02*
D03*
Y7874D02*
D03*
Y5511D02*
D03*
Y3149D02*
D03*
X15354Y14960D02*
D03*
Y12598D02*
D03*
Y10236D02*
D03*
Y7874D02*
D03*
Y5511D02*
D03*
Y3149D02*
D03*
X78739Y109055D02*
D03*
X81102D02*
D03*
X83464D02*
D03*
X85826D02*
D03*
X88188D02*
D03*
X78739Y107086D02*
D03*
X81102D02*
D03*
X83464D02*
D03*
X85826D02*
D03*
X88188D02*
D03*
X90550Y104723D02*
D03*
X88187D02*
D03*
X85825D02*
D03*
X83463D02*
D03*
X81101D02*
D03*
X78739D02*
D03*
X90944Y95275D02*
D03*
X88582D02*
D03*
X86220D02*
D03*
X83858D02*
D03*
X81495D02*
D03*
X79133D02*
D03*
X90944Y97637D02*
D03*
X88582D02*
D03*
X86220D02*
D03*
X83858D02*
D03*
X81495D02*
D03*
X79133D02*
D03*
X90944Y99999D02*
D03*
X88582D02*
D03*
X86220D02*
D03*
X83858D02*
D03*
X81495D02*
D03*
X79133D02*
D03*
X90944Y102362D02*
D03*
X88582D02*
D03*
X86220D02*
D03*
X83858D02*
D03*
X81495D02*
D03*
X79133D02*
D03*
X74409Y142519D02*
D03*
X76771D02*
D03*
Y144881D02*
D03*
Y147243D02*
D03*
Y151968D02*
D03*
X76377Y154330D02*
D03*
X78739D02*
D03*
X81102D02*
D03*
X83464D02*
D03*
X85826D02*
D03*
X88188D02*
D03*
X79133Y151968D02*
D03*
X81495D02*
D03*
X83858D02*
D03*
X86220D02*
D03*
X88582D02*
D03*
X79133Y142519D02*
D03*
X81495D02*
D03*
X83858D02*
D03*
X86220D02*
D03*
X88582D02*
D03*
X79133Y144881D02*
D03*
X81495D02*
D03*
X83858D02*
D03*
X86220D02*
D03*
X88582D02*
D03*
X79133Y147243D02*
D03*
X81495D02*
D03*
X83858D02*
D03*
X86220D02*
D03*
X88582D02*
D03*
Y149606D02*
D03*
X86220D02*
D03*
X83858D02*
D03*
X81495D02*
D03*
X79133D02*
D03*
X76771D02*
D03*
X74409Y154330D02*
D03*
Y151968D02*
D03*
Y149606D02*
D03*
Y147243D02*
D03*
Y144881D02*
D03*
X72047Y154330D02*
D03*
Y151968D02*
D03*
Y149606D02*
D03*
Y147243D02*
D03*
Y144881D02*
D03*
Y142519D02*
D03*
X69684Y154330D02*
D03*
Y151968D02*
D03*
Y149606D02*
D03*
Y147243D02*
D03*
Y144881D02*
D03*
Y142519D02*
D03*
X114862Y98917D02*
D03*
X123425Y65551D02*
D03*
X110728Y67126D02*
D03*
X90354Y34744D02*
D03*
X90453Y43602D02*
D03*
X57087Y35138D02*
D03*
X23524Y43602D02*
D03*
Y35335D02*
D03*
X57087Y43110D02*
D03*
X114469Y84547D02*
D03*
X90550Y201476D02*
D03*
X90747Y199113D02*
D03*
X88385D02*
D03*
X88188Y201476D02*
D03*
X86023Y199113D02*
D03*
X90944Y196850D02*
D03*
X88582D02*
D03*
X86220D02*
D03*
X85826Y201476D02*
D03*
X83464D02*
D03*
X81102D02*
D03*
X78838Y201574D02*
D03*
X83858Y196850D02*
D03*
X83661Y199113D02*
D03*
X81495Y196850D02*
D03*
X81298Y199113D02*
D03*
X79133Y199212D02*
D03*
X79133Y196850D02*
D03*
X76672Y201476D02*
D03*
X74409Y201574D02*
D03*
X76771Y199212D02*
D03*
X74409D02*
D03*
X72047D02*
D03*
Y201574D02*
D03*
X74409Y196850D02*
D03*
X76771D02*
D03*
X76672Y194487D02*
D03*
X74409D02*
D03*
X72047Y192125D02*
D03*
Y194487D02*
D03*
X74409Y192125D02*
D03*
X69684Y201574D02*
D03*
X72047Y196850D02*
D03*
X69684Y199212D02*
D03*
Y192125D02*
D03*
Y196850D02*
D03*
Y194487D02*
D03*
X72047Y189763D02*
D03*
X74409D02*
D03*
X69684D02*
D03*
X76968Y189665D02*
D03*
X76869Y192125D02*
D03*
X79527Y189468D02*
D03*
X81889D02*
D03*
X84251D02*
D03*
X86613D02*
D03*
X88976D02*
D03*
X79428Y192027D02*
D03*
X81791D02*
D03*
X84153D02*
D03*
X86515D02*
D03*
X88877D02*
D03*
X81692Y194487D02*
D03*
X84054D02*
D03*
X86417D02*
D03*
X88779D02*
D03*
X91141D02*
D03*
X79133Y194487D02*
D03*
D51*
X123622Y81201D02*
D03*
D52*
X91535Y190945D02*
D03*
X95472Y208661D02*
D03*
X93504Y115157D02*
D03*
X91535Y107283D02*
D03*
Y153543D02*
D03*
X93504Y161417D02*
D03*
M02*
