G04*
G04 #@! TF.GenerationSoftware,Altium Limited,Altium Designer,22.10.1 (41)*
G04*
G04 Layer_Color=16711935*
%FSLAX25Y25*%
%MOIN*%
G70*
G04*
G04 #@! TF.SameCoordinates,59214271-F8BB-42CD-AB19-65BC4A0A980D*
G04*
G04*
G04 #@! TF.FilePolarity,Negative*
G04*
G01*
G75*
%ADD13C,0.01000*%
%ADD34R,0.03556X0.04343*%
G04:AMPARAMS|DCode=37|XSize=19.81mil|YSize=31.62mil|CornerRadius=8.13mil|HoleSize=0mil|Usage=FLASHONLY|Rotation=180.000|XOffset=0mil|YOffset=0mil|HoleType=Round|Shape=RoundedRectangle|*
%AMROUNDEDRECTD37*
21,1,0.01981,0.01535,0,0,180.0*
21,1,0.00354,0.03162,0,0,180.0*
1,1,0.01627,-0.00177,0.00768*
1,1,0.01627,0.00177,0.00768*
1,1,0.01627,0.00177,-0.00768*
1,1,0.01627,-0.00177,-0.00768*
%
%ADD37ROUNDEDRECTD37*%
%ADD38O,0.01981X0.03162*%
%ADD47R,0.04343X0.03556*%
%ADD48C,0.05524*%
%ADD49R,0.05524X0.05524*%
%ADD50C,0.03162*%
%ADD51C,0.03600*%
%ADD52C,0.05800*%
%ADD67R,0.22453X0.12020*%
%ADD68R,0.07887X0.09658*%
G36*
X58268Y227559D02*
X44488D01*
Y234252D01*
X58268D01*
Y227559D01*
D02*
G37*
G36*
X20866Y220472D02*
X20866Y220472D01*
X7874D01*
X7874Y234252D01*
X20866D01*
Y220472D01*
D02*
G37*
G36*
X107087Y234646D02*
Y220079D01*
X96063D01*
X95669Y219685D01*
X95669Y234646D01*
X107087D01*
X107087Y234646D01*
X107087Y234646D01*
D02*
G37*
G36*
X93504Y140748D02*
X69095D01*
X68504Y141339D01*
X65354Y138189D01*
Y86221D01*
X64961Y85827D01*
X68898Y81890D01*
Y51181D01*
X45276D01*
Y81890D01*
X49213Y85827D01*
Y143307D01*
X62008Y156102D01*
Y157480D01*
X93504D01*
Y140748D01*
D02*
G37*
G36*
Y204724D02*
Y189604D01*
X91892Y187992D01*
X43504D01*
X36614Y181102D01*
Y86614D01*
X35039Y85039D01*
X35433Y84646D01*
Y51181D01*
X11811D01*
Y61024D01*
X11024Y61811D01*
Y88976D01*
X20866Y98819D01*
Y187402D01*
X38583Y205118D01*
X40551D01*
X93504Y204724D01*
D02*
G37*
G36*
Y85630D02*
X93307Y85433D01*
X100000Y78740D01*
X102362D01*
Y50000D01*
X101969Y49606D01*
X78740D01*
Y57480D01*
X77559Y58661D01*
Y79921D01*
X75787Y81693D01*
Y110236D01*
X93504D01*
Y85630D01*
D02*
G37*
G36*
X102362Y787D02*
X78740D01*
Y23228D01*
X102362D01*
Y787D01*
D02*
G37*
G36*
X68898D02*
X45276D01*
Y22835D01*
X68898D01*
Y787D01*
D02*
G37*
G36*
X35039Y394D02*
X12205D01*
Y22835D01*
X35039D01*
Y394D01*
D02*
G37*
D13*
X127953Y0D02*
Y236221D01*
X5906Y0D02*
X127953D01*
X5906D02*
Y236221D01*
X127953D01*
D34*
X101378Y163386D02*
D03*
X107283D02*
D03*
D37*
X96555Y108268D02*
D03*
X101476Y154528D02*
D03*
X96457Y187008D02*
D03*
D38*
X99410Y108268D02*
D03*
X104331Y154528D02*
D03*
X99311Y187008D02*
D03*
D47*
X103347Y123031D02*
D03*
Y128937D02*
D03*
X104331Y202756D02*
D03*
Y196850D02*
D03*
D48*
X122047Y110236D02*
D03*
Y118110D02*
D03*
Y125984D02*
D03*
Y133858D02*
D03*
Y141732D02*
D03*
Y149606D02*
D03*
Y157480D02*
D03*
Y165354D02*
D03*
Y173228D02*
D03*
Y181102D02*
D03*
Y188976D02*
D03*
X11811Y110236D02*
D03*
Y118110D02*
D03*
Y125984D02*
D03*
Y133858D02*
D03*
Y141732D02*
D03*
Y149606D02*
D03*
Y157480D02*
D03*
Y165354D02*
D03*
Y173228D02*
D03*
Y181102D02*
D03*
Y188976D02*
D03*
D49*
X122047Y196850D02*
D03*
X11811D02*
D03*
D50*
X38976Y225196D02*
D03*
Y222834D02*
D03*
Y220472D02*
D03*
X36614Y227558D02*
D03*
Y225196D02*
D03*
Y222834D02*
D03*
X34251Y229920D02*
D03*
Y227558D02*
D03*
Y225196D02*
D03*
Y222834D02*
D03*
X31889Y232283D02*
D03*
Y229920D02*
D03*
Y227558D02*
D03*
Y225196D02*
D03*
Y222834D02*
D03*
X29527Y232283D02*
D03*
Y229920D02*
D03*
Y227558D02*
D03*
Y225196D02*
D03*
Y222834D02*
D03*
X27165Y232283D02*
D03*
Y229920D02*
D03*
Y227558D02*
D03*
Y225196D02*
D03*
Y222834D02*
D03*
X24803Y232283D02*
D03*
Y229920D02*
D03*
Y227558D02*
D03*
Y225196D02*
D03*
Y222834D02*
D03*
X22440Y232283D02*
D03*
Y229920D02*
D03*
Y227558D02*
D03*
Y225196D02*
D03*
Y222834D02*
D03*
X20078Y232283D02*
D03*
Y229920D02*
D03*
Y227558D02*
D03*
Y225196D02*
D03*
Y222834D02*
D03*
X17716Y232283D02*
D03*
Y229920D02*
D03*
Y227558D02*
D03*
Y225196D02*
D03*
Y222834D02*
D03*
X15354Y232283D02*
D03*
Y229920D02*
D03*
Y227558D02*
D03*
Y225196D02*
D03*
Y222834D02*
D03*
X12991Y232283D02*
D03*
Y229920D02*
D03*
Y227558D02*
D03*
Y225196D02*
D03*
Y222834D02*
D03*
X10629Y232283D02*
D03*
Y229920D02*
D03*
Y227558D02*
D03*
Y225196D02*
D03*
Y222834D02*
D03*
X126377Y232283D02*
D03*
Y229920D02*
D03*
Y227558D02*
D03*
Y225196D02*
D03*
Y222834D02*
D03*
Y220472D02*
D03*
Y218109D02*
D03*
X124015Y232283D02*
D03*
Y229920D02*
D03*
Y227558D02*
D03*
Y225196D02*
D03*
Y222834D02*
D03*
Y220472D02*
D03*
Y218109D02*
D03*
X121653Y232283D02*
D03*
Y229920D02*
D03*
Y227558D02*
D03*
Y225196D02*
D03*
Y222834D02*
D03*
Y220472D02*
D03*
Y218109D02*
D03*
X119290Y232283D02*
D03*
Y229920D02*
D03*
Y227558D02*
D03*
Y225196D02*
D03*
Y222834D02*
D03*
Y220472D02*
D03*
Y218109D02*
D03*
X116928Y232283D02*
D03*
Y229920D02*
D03*
Y227558D02*
D03*
Y225196D02*
D03*
Y222834D02*
D03*
Y220472D02*
D03*
Y218109D02*
D03*
X88582Y232283D02*
D03*
Y229920D02*
D03*
X86220Y232283D02*
D03*
Y229920D02*
D03*
X83858Y232283D02*
D03*
Y229920D02*
D03*
X81495Y232283D02*
D03*
Y229920D02*
D03*
X79133Y232283D02*
D03*
Y229920D02*
D03*
X76771Y232283D02*
D03*
Y229920D02*
D03*
X74409Y232283D02*
D03*
Y229920D02*
D03*
X72047Y232283D02*
D03*
Y229920D02*
D03*
X55118Y208268D02*
D03*
X81495Y19685D02*
D03*
X83858D02*
D03*
X86220D02*
D03*
X88582D02*
D03*
X90944D02*
D03*
X93306D02*
D03*
X95669D02*
D03*
X98031D02*
D03*
X100393D02*
D03*
X81495Y17322D02*
D03*
X83858D02*
D03*
X86220D02*
D03*
X88582D02*
D03*
X90944D02*
D03*
X93306D02*
D03*
X95669D02*
D03*
X98031D02*
D03*
X100393D02*
D03*
Y14960D02*
D03*
Y12598D02*
D03*
Y10236D02*
D03*
Y7874D02*
D03*
Y5511D02*
D03*
Y3149D02*
D03*
X98031Y14960D02*
D03*
Y12598D02*
D03*
Y10236D02*
D03*
Y7874D02*
D03*
Y5511D02*
D03*
Y3149D02*
D03*
X95669Y14960D02*
D03*
Y12598D02*
D03*
Y10236D02*
D03*
Y7874D02*
D03*
Y5511D02*
D03*
Y3149D02*
D03*
X93306Y14960D02*
D03*
Y12598D02*
D03*
Y10236D02*
D03*
Y7874D02*
D03*
Y5511D02*
D03*
Y3149D02*
D03*
X90944Y14960D02*
D03*
Y12598D02*
D03*
Y10236D02*
D03*
Y7874D02*
D03*
Y5511D02*
D03*
Y3149D02*
D03*
X88582Y14960D02*
D03*
Y12598D02*
D03*
Y10236D02*
D03*
Y7874D02*
D03*
Y5511D02*
D03*
Y3149D02*
D03*
X86220Y14960D02*
D03*
Y12598D02*
D03*
Y10236D02*
D03*
Y7874D02*
D03*
Y5511D02*
D03*
Y3149D02*
D03*
X83858Y14960D02*
D03*
Y12598D02*
D03*
Y10236D02*
D03*
Y7874D02*
D03*
Y5511D02*
D03*
Y3149D02*
D03*
X81495Y14960D02*
D03*
Y12598D02*
D03*
Y10236D02*
D03*
Y7874D02*
D03*
Y5511D02*
D03*
Y3149D02*
D03*
X48425Y19685D02*
D03*
X50787D02*
D03*
X53149D02*
D03*
X55511D02*
D03*
X57873D02*
D03*
X60236D02*
D03*
X62598D02*
D03*
X64960D02*
D03*
X67322D02*
D03*
X48425Y17322D02*
D03*
X50787D02*
D03*
X53149D02*
D03*
X55511D02*
D03*
X57873D02*
D03*
X60236D02*
D03*
X62598D02*
D03*
X64960D02*
D03*
X67322D02*
D03*
Y14960D02*
D03*
Y12598D02*
D03*
Y10236D02*
D03*
Y7874D02*
D03*
Y5511D02*
D03*
Y3149D02*
D03*
X64960Y14960D02*
D03*
Y12598D02*
D03*
Y10236D02*
D03*
Y7874D02*
D03*
Y5511D02*
D03*
Y3149D02*
D03*
X62598Y14960D02*
D03*
Y12598D02*
D03*
Y10236D02*
D03*
Y7874D02*
D03*
Y5511D02*
D03*
Y3149D02*
D03*
X60236Y14960D02*
D03*
Y12598D02*
D03*
Y10236D02*
D03*
Y7874D02*
D03*
Y5511D02*
D03*
Y3149D02*
D03*
X57873Y14960D02*
D03*
Y12598D02*
D03*
Y10236D02*
D03*
Y7874D02*
D03*
Y5511D02*
D03*
Y3149D02*
D03*
X55511Y14960D02*
D03*
Y12598D02*
D03*
Y10236D02*
D03*
Y7874D02*
D03*
Y5511D02*
D03*
Y3149D02*
D03*
X53149Y14960D02*
D03*
Y12598D02*
D03*
Y10236D02*
D03*
Y7874D02*
D03*
Y5511D02*
D03*
Y3149D02*
D03*
X50787Y14960D02*
D03*
Y12598D02*
D03*
Y10236D02*
D03*
Y7874D02*
D03*
Y5511D02*
D03*
Y3149D02*
D03*
X48425Y14960D02*
D03*
Y12598D02*
D03*
Y10236D02*
D03*
Y7874D02*
D03*
Y5511D02*
D03*
Y3149D02*
D03*
X15354Y19685D02*
D03*
X17716D02*
D03*
X20078D02*
D03*
X22440D02*
D03*
X24803D02*
D03*
X27165D02*
D03*
X29527D02*
D03*
X31889D02*
D03*
X15354Y17322D02*
D03*
X17716D02*
D03*
X20078D02*
D03*
X22440D02*
D03*
X24803D02*
D03*
X27165D02*
D03*
X29527D02*
D03*
X31889D02*
D03*
Y14960D02*
D03*
Y12598D02*
D03*
Y10236D02*
D03*
Y7874D02*
D03*
Y5511D02*
D03*
Y3149D02*
D03*
X29527Y14960D02*
D03*
Y12598D02*
D03*
Y10236D02*
D03*
Y7874D02*
D03*
Y5511D02*
D03*
Y3149D02*
D03*
X27165Y14960D02*
D03*
Y12598D02*
D03*
Y10236D02*
D03*
Y7874D02*
D03*
Y5511D02*
D03*
Y3149D02*
D03*
X24803Y14960D02*
D03*
Y12598D02*
D03*
Y10236D02*
D03*
Y7874D02*
D03*
Y5511D02*
D03*
Y3149D02*
D03*
X22440Y14960D02*
D03*
Y12598D02*
D03*
Y10236D02*
D03*
Y7874D02*
D03*
Y5511D02*
D03*
Y3149D02*
D03*
X20078Y14960D02*
D03*
Y12598D02*
D03*
Y10236D02*
D03*
Y7874D02*
D03*
Y5511D02*
D03*
Y3149D02*
D03*
X17716Y14960D02*
D03*
Y12598D02*
D03*
Y10236D02*
D03*
Y7874D02*
D03*
Y5511D02*
D03*
Y3149D02*
D03*
X15354Y14960D02*
D03*
Y12598D02*
D03*
Y10236D02*
D03*
Y7874D02*
D03*
Y5511D02*
D03*
Y3149D02*
D03*
X78739Y109055D02*
D03*
X81102D02*
D03*
X83464D02*
D03*
X85826D02*
D03*
X88188D02*
D03*
X78739Y107086D02*
D03*
X81102D02*
D03*
X83464D02*
D03*
X85826D02*
D03*
X88188D02*
D03*
X90550Y104723D02*
D03*
X88187D02*
D03*
X85825D02*
D03*
X83463D02*
D03*
X81101D02*
D03*
X78739D02*
D03*
X90944Y95275D02*
D03*
X88582D02*
D03*
X86220D02*
D03*
X83858D02*
D03*
X81495D02*
D03*
X79133D02*
D03*
X90944Y97637D02*
D03*
X88582D02*
D03*
X86220D02*
D03*
X83858D02*
D03*
X81495D02*
D03*
X79133D02*
D03*
X90944Y99999D02*
D03*
X88582D02*
D03*
X86220D02*
D03*
X83858D02*
D03*
X81495D02*
D03*
X79133D02*
D03*
X90944Y102362D02*
D03*
X88582D02*
D03*
X86220D02*
D03*
X83858D02*
D03*
X81495D02*
D03*
X79133D02*
D03*
X74409Y142519D02*
D03*
X76771D02*
D03*
Y144881D02*
D03*
Y147243D02*
D03*
Y151968D02*
D03*
X76377Y154330D02*
D03*
X78739D02*
D03*
X81102D02*
D03*
X83464D02*
D03*
X85826D02*
D03*
X88188D02*
D03*
X79133Y151968D02*
D03*
X81495D02*
D03*
X83858D02*
D03*
X86220D02*
D03*
X88582D02*
D03*
X79133Y142519D02*
D03*
X81495D02*
D03*
X83858D02*
D03*
X86220D02*
D03*
X88582D02*
D03*
X79133Y144881D02*
D03*
X81495D02*
D03*
X83858D02*
D03*
X86220D02*
D03*
X88582D02*
D03*
X79133Y147243D02*
D03*
X81495D02*
D03*
X83858D02*
D03*
X86220D02*
D03*
X88582D02*
D03*
Y149606D02*
D03*
X86220D02*
D03*
X83858D02*
D03*
X81495D02*
D03*
X79133D02*
D03*
X76771D02*
D03*
X74409Y154330D02*
D03*
Y151968D02*
D03*
Y149606D02*
D03*
Y147243D02*
D03*
Y144881D02*
D03*
X72047Y154330D02*
D03*
Y151968D02*
D03*
Y149606D02*
D03*
Y147243D02*
D03*
Y144881D02*
D03*
Y142519D02*
D03*
X69684Y154330D02*
D03*
Y151968D02*
D03*
Y149606D02*
D03*
Y147243D02*
D03*
Y144881D02*
D03*
Y142519D02*
D03*
X114862Y98917D02*
D03*
X123425Y65551D02*
D03*
X110728Y67126D02*
D03*
X90354Y34744D02*
D03*
X90453Y43602D02*
D03*
X57087Y35138D02*
D03*
X23524Y43602D02*
D03*
Y35335D02*
D03*
X57087Y43110D02*
D03*
X114469Y84547D02*
D03*
X90550Y201476D02*
D03*
X90747Y199113D02*
D03*
X88385D02*
D03*
X88188Y201476D02*
D03*
X86023Y199113D02*
D03*
X90944Y196850D02*
D03*
X88582D02*
D03*
X86220D02*
D03*
X85826Y201476D02*
D03*
X83464D02*
D03*
X81102D02*
D03*
X78838Y201574D02*
D03*
X83858Y196850D02*
D03*
X83661Y199113D02*
D03*
X81495Y196850D02*
D03*
X81298Y199113D02*
D03*
X79133Y199212D02*
D03*
X79133Y196850D02*
D03*
X76672Y201476D02*
D03*
X74409Y201574D02*
D03*
X76771Y199212D02*
D03*
X74409D02*
D03*
X72047D02*
D03*
Y201574D02*
D03*
X74409Y196850D02*
D03*
X76771D02*
D03*
X76672Y194487D02*
D03*
X74409D02*
D03*
X72047Y192125D02*
D03*
Y194487D02*
D03*
X74409Y192125D02*
D03*
X69684Y201574D02*
D03*
X72047Y196850D02*
D03*
X69684Y199212D02*
D03*
Y192125D02*
D03*
Y196850D02*
D03*
Y194487D02*
D03*
X72047Y189763D02*
D03*
X74409D02*
D03*
X69684D02*
D03*
X76968Y189665D02*
D03*
X76869Y192125D02*
D03*
X79527Y189468D02*
D03*
X81889D02*
D03*
X84251D02*
D03*
X86613D02*
D03*
X88976D02*
D03*
X79428Y192027D02*
D03*
X81791D02*
D03*
X84153D02*
D03*
X86515D02*
D03*
X88877D02*
D03*
X81692Y194487D02*
D03*
X84054D02*
D03*
X86417D02*
D03*
X88779D02*
D03*
X91141D02*
D03*
X79133Y194487D02*
D03*
D51*
X123622Y81201D02*
D03*
D52*
X91535Y190945D02*
D03*
X95472Y208661D02*
D03*
X93504Y115157D02*
D03*
X91535Y107283D02*
D03*
Y153543D02*
D03*
X93504Y161417D02*
D03*
D67*
X23622Y23228D02*
D03*
Y55512D02*
D03*
X57087Y55512D02*
D03*
Y23228D02*
D03*
X90551Y55512D02*
D03*
Y23228D02*
D03*
D68*
X121850Y59055D02*
D03*
X110433D02*
D03*
M02*
