G04*
G04 #@! TF.GenerationSoftware,Altium Limited,Altium Designer,22.10.1 (41)*
G04*
G04 Layer_Color=255*
%FSLAX25Y25*%
%MOIN*%
G70*
G04*
G04 #@! TF.SameCoordinates,59214271-F8BB-42CD-AB19-65BC4A0A980D*
G04*
G04*
G04 #@! TF.FilePolarity,Positive*
G04*
G01*
G75*
%ADD13C,0.01000*%
%ADD17R,0.02756X0.03543*%
G04:AMPARAMS|DCode=20|XSize=11.81mil|YSize=23.62mil|CornerRadius=4.13mil|HoleSize=0mil|Usage=FLASHONLY|Rotation=180.000|XOffset=0mil|YOffset=0mil|HoleType=Round|Shape=RoundedRectangle|*
%AMROUNDEDRECTD20*
21,1,0.01181,0.01535,0,0,180.0*
21,1,0.00354,0.02362,0,0,180.0*
1,1,0.00827,-0.00177,0.00768*
1,1,0.00827,0.00177,0.00768*
1,1,0.00827,0.00177,-0.00768*
1,1,0.00827,-0.00177,-0.00768*
%
%ADD20ROUNDEDRECTD20*%
%ADD21O,0.01181X0.02362*%
%ADD30R,0.03543X0.02756*%
%ADD58C,0.04724*%
%ADD59R,0.04724X0.04724*%
%ADD63R,0.21654X0.11221*%
%ADD64R,0.07087X0.08858*%
D13*
X127953Y0D02*
Y236221D01*
X5906Y0D02*
X127953D01*
X5906D02*
Y236221D01*
X127953D01*
D17*
X101378Y163386D02*
D03*
X107283D02*
D03*
D20*
X96555Y108268D02*
D03*
X101476Y154528D02*
D03*
X96457Y187008D02*
D03*
D21*
X99410Y108268D02*
D03*
X104331Y154528D02*
D03*
X99311Y187008D02*
D03*
D30*
X103347Y123031D02*
D03*
Y128937D02*
D03*
X104331Y202756D02*
D03*
Y196850D02*
D03*
D58*
X122047Y110236D02*
D03*
Y118110D02*
D03*
Y125984D02*
D03*
Y133858D02*
D03*
Y141732D02*
D03*
Y149606D02*
D03*
Y157480D02*
D03*
Y165354D02*
D03*
Y173228D02*
D03*
Y181102D02*
D03*
Y188976D02*
D03*
X11811Y110236D02*
D03*
Y118110D02*
D03*
Y125984D02*
D03*
Y133858D02*
D03*
Y141732D02*
D03*
Y149606D02*
D03*
Y157480D02*
D03*
Y165354D02*
D03*
Y173228D02*
D03*
Y181102D02*
D03*
Y188976D02*
D03*
D59*
X122047Y196850D02*
D03*
X11811D02*
D03*
D63*
X23622Y23228D02*
D03*
Y55512D02*
D03*
X57087Y55512D02*
D03*
Y23228D02*
D03*
X90551Y55512D02*
D03*
Y23228D02*
D03*
D64*
X121850Y59055D02*
D03*
X110433D02*
D03*
M02*
