G04*
G04 #@! TF.GenerationSoftware,Altium Limited,Altium Designer,22.10.1 (41)*
G04*
G04 Layer_Physical_Order=2*
G04 Layer_Color=16711680*
%FSLAX25Y25*%
%MOIN*%
G70*
G04*
G04 #@! TF.SameCoordinates,59214271-F8BB-42CD-AB19-65BC4A0A980D*
G04*
G04*
G04 #@! TF.FilePolarity,Positive*
G04*
G01*
G75*
%ADD10C,0.00984*%
%ADD13C,0.01000*%
%ADD17R,0.02756X0.03543*%
G04:AMPARAMS|DCode=20|XSize=11.81mil|YSize=23.62mil|CornerRadius=4.13mil|HoleSize=0mil|Usage=FLASHONLY|Rotation=180.000|XOffset=0mil|YOffset=0mil|HoleType=Round|Shape=RoundedRectangle|*
%AMROUNDEDRECTD20*
21,1,0.01181,0.01535,0,0,180.0*
21,1,0.00354,0.02362,0,0,180.0*
1,1,0.00827,-0.00177,0.00768*
1,1,0.00827,0.00177,0.00768*
1,1,0.00827,0.00177,-0.00768*
1,1,0.00827,-0.00177,-0.00768*
%
%ADD20ROUNDEDRECTD20*%
%ADD21O,0.01181X0.02362*%
%ADD30R,0.03543X0.02756*%
%ADD53C,0.02362*%
%ADD56C,0.01500*%
%ADD57C,0.03150*%
%ADD58C,0.04724*%
%ADD59R,0.04724X0.04724*%
%ADD60C,0.02362*%
%ADD61C,0.02800*%
%ADD62C,0.05000*%
%ADD63R,0.21654X0.11221*%
%ADD64R,0.07087X0.08858*%
%ADD65C,0.15748*%
%ADD66C,0.23622*%
G36*
X98131Y115589D02*
X95685Y113936D01*
X94917Y117220D01*
X94971Y117200D01*
X95042Y117205D01*
X95130Y117233D01*
X95233Y117286D01*
X95353Y117363D01*
X95490Y117464D01*
X95811Y117739D01*
X96198Y118111D01*
X98131Y115589D01*
D02*
G37*
G36*
X122024Y115748D02*
X121889Y115740D01*
X121748Y115713D01*
X121603Y115668D01*
X121452Y115604D01*
X121295Y115521D01*
X121134Y115419D01*
X120967Y115299D01*
X120794Y115160D01*
X120434Y114826D01*
X118763Y116497D01*
X118940Y116680D01*
X119236Y117030D01*
X119357Y117197D01*
X119458Y117358D01*
X119541Y117515D01*
X119605Y117666D01*
X119650Y117811D01*
X119677Y117952D01*
X119685Y118087D01*
X122024Y115748D01*
D02*
G37*
G36*
X99410Y107087D02*
X96555D01*
Y109449D01*
X99410D01*
Y107087D01*
D02*
G37*
G36*
X93504Y93504D02*
X75787D01*
Y110236D01*
X93504D01*
Y93504D01*
D02*
G37*
G36*
X65443Y85118D02*
X48730D01*
X48821Y85446D01*
X48904Y86236D01*
X49039Y89203D01*
X49213Y109197D01*
X64961D01*
X65443Y85118D01*
D02*
G37*
G36*
X124614Y65156D02*
X124676Y64491D01*
X124730Y64221D01*
X124800Y63992D01*
X124885Y63805D01*
X124986Y63659D01*
X125102Y63555D01*
X125234Y63493D01*
X125382Y63472D01*
X121346Y63460D01*
X121517Y63482D01*
X121669Y63545D01*
X121804Y63650D01*
X121921Y63796D01*
X122020Y63984D01*
X122100Y64214D01*
X122163Y64486D01*
X122208Y64799D01*
X122235Y65154D01*
X122244Y65551D01*
X124606D01*
X124614Y65156D01*
D02*
G37*
G36*
X111626Y65383D02*
X111661Y64980D01*
X111721Y64624D01*
X111803Y64315D01*
X111909Y64054D01*
X112039Y63840D01*
X112193Y63674D01*
X112370Y63555D01*
X112571Y63484D01*
X112795Y63460D01*
X108071D01*
X108295Y63484D01*
X108496Y63555D01*
X108673Y63674D01*
X108827Y63840D01*
X108957Y64054D01*
X109063Y64315D01*
X109146Y64624D01*
X109205Y64980D01*
X109240Y65383D01*
X109252Y65834D01*
X111614D01*
X111626Y65383D01*
D02*
G37*
G36*
X102362Y51181D02*
X78740D01*
Y62491D01*
X78726Y62527D01*
X78469Y63630D01*
X78251Y65047D01*
X77934Y68827D01*
X77756Y76858D01*
X78740D01*
Y78740D01*
X102362D01*
Y51181D01*
D02*
G37*
G36*
X68898D02*
X45276D01*
Y72835D01*
X68898D01*
Y51181D01*
D02*
G37*
G36*
X35433D02*
X11811D01*
Y76772D01*
X35433D01*
Y51181D01*
D02*
G37*
G36*
X92689Y49890D02*
X92488Y49819D01*
X92311Y49701D01*
X92158Y49536D01*
X92027Y49323D01*
X91921Y49063D01*
X91839Y48756D01*
X91780Y48402D01*
X91744Y48000D01*
X91732Y47551D01*
X89370D01*
X89358Y48000D01*
X89323Y48402D01*
X89264Y48756D01*
X89181Y49063D01*
X89075Y49323D01*
X88945Y49536D01*
X88791Y49701D01*
X88614Y49819D01*
X88413Y49890D01*
X88189Y49914D01*
X92913D01*
X92689Y49890D01*
D02*
G37*
G36*
X25760D02*
X25559Y49819D01*
X25382Y49701D01*
X25228Y49536D01*
X25098Y49323D01*
X24992Y49063D01*
X24909Y48756D01*
X24850Y48402D01*
X24815Y48000D01*
X24803Y47551D01*
X22441D01*
X22429Y48000D01*
X22394Y48402D01*
X22335Y48756D01*
X22252Y49063D01*
X22146Y49323D01*
X22016Y49536D01*
X21862Y49701D01*
X21685Y49819D01*
X21484Y49890D01*
X21260Y49914D01*
X25984D01*
X25760Y49890D01*
D02*
G37*
G36*
X59224Y49890D02*
X59024Y49819D01*
X58846Y49701D01*
X58693Y49536D01*
X58563Y49323D01*
X58457Y49063D01*
X58374Y48756D01*
X58315Y48402D01*
X58280Y48000D01*
X58268Y47551D01*
X55905D01*
X55894Y48000D01*
X55858Y48402D01*
X55799Y48756D01*
X55717Y49063D01*
X55610Y49323D01*
X55480Y49536D01*
X55327Y49701D01*
X55150Y49819D01*
X54949Y49890D01*
X54724Y49914D01*
X59449D01*
X59224Y49890D01*
D02*
G37*
G36*
X91744Y30738D02*
X91780Y30334D01*
X91839Y29978D01*
X91921Y29669D01*
X92027Y29408D01*
X92158Y29195D01*
X92311Y29028D01*
X92488Y28910D01*
X92689Y28838D01*
X92913Y28815D01*
X88189D01*
X88413Y28838D01*
X88614Y28910D01*
X88791Y29028D01*
X88945Y29195D01*
X89075Y29408D01*
X89181Y29669D01*
X89264Y29978D01*
X89323Y30334D01*
X89358Y30738D01*
X89370Y31189D01*
X91732D01*
X91744Y30738D01*
D02*
G37*
G36*
X24815D02*
X24850Y30334D01*
X24909Y29978D01*
X24992Y29669D01*
X25098Y29408D01*
X25228Y29195D01*
X25382Y29028D01*
X25559Y28910D01*
X25760Y28838D01*
X25984Y28815D01*
X21260D01*
X21484Y28838D01*
X21685Y28910D01*
X21862Y29028D01*
X22016Y29195D01*
X22146Y29408D01*
X22252Y29669D01*
X22335Y29978D01*
X22394Y30334D01*
X22429Y30738D01*
X22441Y31189D01*
X24803D01*
X24815Y30738D01*
D02*
G37*
G36*
X58280Y30738D02*
X58315Y30334D01*
X58374Y29978D01*
X58457Y29669D01*
X58563Y29408D01*
X58693Y29194D01*
X58846Y29028D01*
X59024Y28910D01*
X59224Y28838D01*
X59449Y28815D01*
X54724D01*
X54949Y28838D01*
X55150Y28910D01*
X55327Y29028D01*
X55480Y29194D01*
X55610Y29408D01*
X55717Y29669D01*
X55799Y29978D01*
X55858Y30334D01*
X55894Y30738D01*
X55905Y31189D01*
X58268D01*
X58280Y30738D01*
D02*
G37*
G36*
X102362Y787D02*
X78740D01*
Y23228D01*
X102362D01*
Y787D01*
D02*
G37*
G36*
X68898D02*
X45276D01*
Y22835D01*
X68898D01*
Y787D01*
D02*
G37*
G36*
X35039Y394D02*
X12205D01*
Y22835D01*
X35039D01*
Y394D01*
D02*
G37*
G36*
X92126Y227559D02*
X44488D01*
Y234252D01*
X92126D01*
Y227559D01*
D02*
G37*
G36*
X107087Y220079D02*
X103937Y216929D01*
X39764Y216929D01*
X36220Y220472D01*
X7874D01*
X7874Y234252D01*
X33858Y234252D01*
X42126Y225984D01*
X95669Y225984D01*
Y234646D01*
X107087Y234646D01*
X107087Y220079D01*
D02*
G37*
G36*
X127953Y215354D02*
X114173D01*
X113779Y215748D01*
Y234252D01*
X127953D01*
Y215354D01*
D02*
G37*
G36*
X103041Y205339D02*
X103891Y204622D01*
X104270Y204358D01*
X104620Y204158D01*
X104938Y204022D01*
X105227Y203949D01*
X105486Y203939D01*
X105714Y203993D01*
X105912Y204110D01*
X102571Y201390D01*
X102554Y201608D01*
X102504Y201839D01*
X102421Y202082D01*
X102304Y202337D01*
X102154Y202604D01*
X101970Y202883D01*
X101753Y203174D01*
X101218Y203794D01*
X100901Y204122D01*
X102571Y205792D01*
X103041Y205339D01*
D02*
G37*
G36*
X105980Y195461D02*
X105882Y195390D01*
X105795Y195272D01*
X105720Y195106D01*
X105657Y194894D01*
X105604Y194634D01*
X105564Y194327D01*
X105518Y193571D01*
X105512Y193122D01*
X103150D01*
X103144Y193571D01*
X103057Y194634D01*
X103005Y194894D01*
X102941Y195106D01*
X102866Y195272D01*
X102779Y195390D01*
X102681Y195461D01*
X102571Y195484D01*
X106090D01*
X105980Y195461D01*
D02*
G37*
G36*
X120617Y192084D02*
X120967Y191787D01*
X121134Y191667D01*
X121295Y191566D01*
X121452Y191483D01*
X121603Y191419D01*
X121748Y191373D01*
X121889Y191347D01*
X122024Y191339D01*
X119685Y189000D01*
X119677Y189135D01*
X119650Y189275D01*
X119605Y189421D01*
X119541Y189572D01*
X119458Y189728D01*
X119357Y189890D01*
X119236Y190057D01*
X119097Y190229D01*
X118763Y190590D01*
X120434Y192260D01*
X120617Y192084D01*
D02*
G37*
G36*
X93504Y190082D02*
X93971Y190379D01*
X93946Y190221D01*
X93944Y190059D01*
X93965Y189893D01*
X94009Y189723D01*
X94076Y189550D01*
X94166Y189373D01*
X94280Y189192D01*
X94416Y189008D01*
X94575Y188820D01*
X94757Y188628D01*
X92659Y187385D01*
X92468Y187571D01*
X91974Y187992D01*
X62992D01*
Y204724D01*
X93504D01*
Y190082D01*
D02*
G37*
G36*
X99311Y185827D02*
X96457D01*
Y188189D01*
X99311D01*
Y185827D01*
D02*
G37*
G36*
X120360Y179449D02*
X120259Y179539D01*
X120141Y179619D01*
X120006Y179690D01*
X119854Y179751D01*
X119685Y179803D01*
X119499Y179846D01*
X119296Y179879D01*
X119075Y179902D01*
X118584Y179921D01*
Y182283D01*
X118838Y182288D01*
X119296Y182326D01*
X119499Y182359D01*
X119685Y182402D01*
X119854Y182454D01*
X120006Y182515D01*
X120141Y182586D01*
X120259Y182666D01*
X120360Y182756D01*
Y179449D01*
D02*
G37*
G36*
Y171575D02*
X120259Y171665D01*
X120141Y171745D01*
X120006Y171816D01*
X119854Y171877D01*
X119685Y171929D01*
X119499Y171972D01*
X119296Y172005D01*
X119075Y172028D01*
X118584Y172047D01*
Y174409D01*
X118838Y174414D01*
X119296Y174452D01*
X119499Y174485D01*
X119685Y174528D01*
X119854Y174580D01*
X120006Y174641D01*
X120141Y174712D01*
X120259Y174792D01*
X120360Y174882D01*
Y171575D01*
D02*
G37*
G36*
X108673Y165036D02*
X108744Y164937D01*
X108862Y164850D01*
X109027Y164775D01*
X109240Y164712D01*
X109500Y164660D01*
X109807Y164619D01*
X110563Y164573D01*
X111012Y164567D01*
Y162205D01*
X110563Y162199D01*
X109500Y162112D01*
X109240Y162060D01*
X109027Y161996D01*
X108862Y161921D01*
X108744Y161835D01*
X108673Y161736D01*
X108649Y161626D01*
Y165146D01*
X108673Y165036D01*
D02*
G37*
G36*
X100012Y161626D02*
X99988Y161736D01*
X99918Y161835D01*
X99799Y161921D01*
X99634Y161996D01*
X99422Y162060D01*
X99162Y162112D01*
X98855Y162153D01*
X98099Y162199D01*
X97650Y162205D01*
Y164567D01*
X98099Y164573D01*
X99162Y164660D01*
X99422Y164712D01*
X99634Y164775D01*
X99799Y164850D01*
X99918Y164937D01*
X99988Y165036D01*
X100012Y165146D01*
Y161626D01*
D02*
G37*
G36*
X120360Y155827D02*
X120259Y155917D01*
X120141Y155997D01*
X120006Y156068D01*
X119854Y156129D01*
X119685Y156181D01*
X119499Y156224D01*
X119296Y156257D01*
X119075Y156280D01*
X118584Y156299D01*
Y158661D01*
X118838Y158666D01*
X119296Y158704D01*
X119499Y158737D01*
X119685Y158780D01*
X119854Y158832D01*
X120006Y158893D01*
X120141Y158964D01*
X120259Y159044D01*
X120360Y159134D01*
Y155827D01*
D02*
G37*
G36*
X104331Y153347D02*
X101476D01*
Y155709D01*
X104331D01*
Y153347D01*
D02*
G37*
G36*
X93504Y155743D02*
X93682Y155732D01*
X95333Y155709D01*
X95528Y153347D01*
X95262Y153339D01*
X95017Y153318D01*
X94796Y153283D01*
X94596Y153233D01*
X94419Y153169D01*
X94264Y153091D01*
X94131Y152999D01*
X94020Y152893D01*
X93932Y152772D01*
X93866Y152638D01*
X93561Y153349D01*
X93528Y153344D01*
X93504Y153338D01*
Y140748D01*
X62008D01*
Y157480D01*
X93504D01*
Y155743D01*
D02*
G37*
G36*
X120360Y147953D02*
X120332Y147968D01*
X120276Y147981D01*
X120194Y147993D01*
X119949Y148012D01*
X119139Y148031D01*
X118869Y148031D01*
Y151181D01*
X120360Y151260D01*
Y147953D01*
D02*
G37*
G36*
Y140079D02*
X120332Y140094D01*
X120276Y140107D01*
X120194Y140119D01*
X119949Y140138D01*
X119139Y140157D01*
X118869Y140157D01*
Y143307D01*
X120360Y143386D01*
Y140079D01*
D02*
G37*
G36*
X104923Y132854D02*
X105071Y130334D01*
X105106Y130303D01*
X101587D01*
X101622Y130334D01*
X101653Y130429D01*
X101681Y130586D01*
X101705Y130807D01*
X101755Y131846D01*
X101772Y133453D01*
X104921D01*
X104923Y132854D01*
D02*
G37*
G36*
X105106Y121666D02*
X104913Y121643D01*
X104694Y121576D01*
X104447Y121465D01*
X104175Y121309D01*
X103876Y121109D01*
X103550Y120864D01*
X102818Y120240D01*
X101980Y119438D01*
X99360Y121272D01*
X99783Y121704D01*
X100785Y122841D01*
X101030Y123167D01*
X101231Y123466D01*
X101386Y123739D01*
X101498Y123985D01*
X101565Y124205D01*
X101587Y124397D01*
X105106Y121666D01*
D02*
G37*
%LPC*%
G36*
X93504Y153482D02*
Y153427D01*
X93545Y153386D01*
X93504Y153482D01*
D02*
G37*
%LPD*%
D10*
X57087Y55512D02*
Y62992D01*
D13*
X127953Y0D02*
Y236221D01*
X5906Y0D02*
X127953D01*
X5906D02*
Y236221D01*
X127953D01*
D17*
X101378Y163386D02*
D03*
X107283D02*
D03*
D20*
X96555Y108268D02*
D03*
X101476Y154528D02*
D03*
X96457Y187008D02*
D03*
D21*
X99410Y108268D02*
D03*
X104331Y154528D02*
D03*
X99311Y187008D02*
D03*
D30*
X103347Y123031D02*
D03*
Y128937D02*
D03*
X104331Y202756D02*
D03*
Y196850D02*
D03*
D53*
X111854Y199170D02*
Y201167D01*
X99890Y213130D02*
X111854Y201167D01*
X71004Y213130D02*
X99890D01*
X68504Y210630D02*
X71004Y213130D01*
X55118Y208268D02*
X57480Y210630D01*
X68504D01*
X111854Y199170D02*
X122047Y188976D01*
X115650Y103051D02*
X123622Y95079D01*
Y81201D02*
Y95079D01*
X115650Y103051D02*
Y111713D01*
X122047Y118110D01*
X123425Y60630D02*
Y65551D01*
X121850Y59055D02*
X123425Y60630D01*
X110433Y66831D02*
X110728Y67126D01*
X110433Y59055D02*
Y66831D01*
X90551Y23228D02*
Y34547D01*
X90354Y34744D02*
X90551Y34547D01*
X90453Y43602D02*
X90551Y43701D01*
Y55512D01*
X57087Y23228D02*
Y35138D01*
X23622Y43701D02*
Y55512D01*
X23524Y43602D02*
X23622Y43701D01*
Y23228D02*
Y35236D01*
X23524Y35335D02*
X23622Y35236D01*
X57087Y43110D02*
Y55512D01*
X91535Y107283D02*
X92040Y107788D01*
X93894D01*
X94374Y108268D01*
X96555D01*
X113189Y154528D02*
X116142Y157480D01*
X104331Y154528D02*
X113189D01*
X116142Y157480D02*
X122047D01*
X93467Y154528D02*
X101476D01*
X121408Y165354D02*
X122047D01*
X119439Y163386D02*
X121408Y165354D01*
X107283Y163386D02*
X119439D01*
X94218Y161417D02*
X96186Y163386D01*
X93504Y161417D02*
X94218D01*
X96186Y163386D02*
X101378D01*
X99410Y187008D02*
X113189Y173228D01*
X122047D01*
X99311Y187008D02*
X99410D01*
X94707D02*
X96457D01*
X91535Y190179D02*
X94707Y187008D01*
X104331Y189961D02*
Y196850D01*
Y189961D02*
X113189Y181102D01*
X122047D01*
X95472Y208661D02*
X95977Y208157D01*
X98536D01*
X103937Y202756D01*
X104331D01*
D56*
X23622Y23228D02*
X23819Y23425D01*
X91535Y153543D02*
X92483D01*
X93467Y154528D01*
X91535Y190179D02*
Y190945D01*
D57*
X109252Y117126D02*
Y138779D01*
X100394Y108268D02*
X109252Y117126D01*
X93504Y115157D02*
X93858Y115512D01*
X95827D01*
X103347Y123031D01*
X112205Y149606D02*
X122047D01*
X103347Y140748D02*
X112205Y149606D01*
X103347Y128937D02*
Y140748D01*
X109252Y138779D02*
X112205Y141732D01*
X122047D01*
X99410Y108268D02*
X100394D01*
D58*
X122047Y110236D02*
D03*
Y118110D02*
D03*
Y125984D02*
D03*
Y133858D02*
D03*
Y141732D02*
D03*
Y149606D02*
D03*
Y157480D02*
D03*
Y165354D02*
D03*
Y173228D02*
D03*
Y181102D02*
D03*
Y188976D02*
D03*
X11811Y110236D02*
D03*
Y118110D02*
D03*
Y125984D02*
D03*
Y133858D02*
D03*
Y141732D02*
D03*
Y149606D02*
D03*
Y157480D02*
D03*
Y165354D02*
D03*
Y173228D02*
D03*
Y181102D02*
D03*
Y188976D02*
D03*
D59*
X122047Y196850D02*
D03*
X11811D02*
D03*
D60*
X38976Y225196D02*
D03*
Y222834D02*
D03*
Y220472D02*
D03*
X36614Y227558D02*
D03*
Y225196D02*
D03*
Y222834D02*
D03*
X34251Y229920D02*
D03*
Y227558D02*
D03*
Y225196D02*
D03*
Y222834D02*
D03*
X31889Y232283D02*
D03*
Y229920D02*
D03*
Y227558D02*
D03*
Y225196D02*
D03*
Y222834D02*
D03*
X29527Y232283D02*
D03*
Y229920D02*
D03*
Y227558D02*
D03*
Y225196D02*
D03*
Y222834D02*
D03*
X27165Y232283D02*
D03*
Y229920D02*
D03*
Y227558D02*
D03*
Y225196D02*
D03*
Y222834D02*
D03*
X24803Y232283D02*
D03*
Y229920D02*
D03*
Y227558D02*
D03*
Y225196D02*
D03*
Y222834D02*
D03*
X22440Y232283D02*
D03*
Y229920D02*
D03*
Y227558D02*
D03*
Y225196D02*
D03*
Y222834D02*
D03*
X20078Y232283D02*
D03*
Y229920D02*
D03*
Y227558D02*
D03*
Y225196D02*
D03*
Y222834D02*
D03*
X17716Y232283D02*
D03*
Y229920D02*
D03*
Y227558D02*
D03*
Y225196D02*
D03*
Y222834D02*
D03*
X15354Y232283D02*
D03*
Y229920D02*
D03*
Y227558D02*
D03*
Y225196D02*
D03*
Y222834D02*
D03*
X12991Y232283D02*
D03*
Y229920D02*
D03*
Y227558D02*
D03*
Y225196D02*
D03*
Y222834D02*
D03*
X10629Y232283D02*
D03*
Y229920D02*
D03*
Y227558D02*
D03*
Y225196D02*
D03*
Y222834D02*
D03*
X126377Y232283D02*
D03*
Y229920D02*
D03*
Y227558D02*
D03*
Y225196D02*
D03*
Y222834D02*
D03*
Y220472D02*
D03*
Y218109D02*
D03*
X124015Y232283D02*
D03*
Y229920D02*
D03*
Y227558D02*
D03*
Y225196D02*
D03*
Y222834D02*
D03*
Y220472D02*
D03*
Y218109D02*
D03*
X121653Y232283D02*
D03*
Y229920D02*
D03*
Y227558D02*
D03*
Y225196D02*
D03*
Y222834D02*
D03*
Y220472D02*
D03*
Y218109D02*
D03*
X119290Y232283D02*
D03*
Y229920D02*
D03*
Y227558D02*
D03*
Y225196D02*
D03*
Y222834D02*
D03*
Y220472D02*
D03*
Y218109D02*
D03*
X116928Y232283D02*
D03*
Y229920D02*
D03*
Y227558D02*
D03*
Y225196D02*
D03*
Y222834D02*
D03*
Y220472D02*
D03*
Y218109D02*
D03*
X88582Y232283D02*
D03*
Y229920D02*
D03*
X86220Y232283D02*
D03*
Y229920D02*
D03*
X83858Y232283D02*
D03*
Y229920D02*
D03*
X81495Y232283D02*
D03*
Y229920D02*
D03*
X79133Y232283D02*
D03*
Y229920D02*
D03*
X76771Y232283D02*
D03*
Y229920D02*
D03*
X74409Y232283D02*
D03*
Y229920D02*
D03*
X72047Y232283D02*
D03*
Y229920D02*
D03*
X55118Y208268D02*
D03*
X81495Y19685D02*
D03*
X83858D02*
D03*
X86220D02*
D03*
X88582D02*
D03*
X90944D02*
D03*
X93306D02*
D03*
X95669D02*
D03*
X98031D02*
D03*
X100393D02*
D03*
X81495Y17322D02*
D03*
X83858D02*
D03*
X86220D02*
D03*
X88582D02*
D03*
X90944D02*
D03*
X93306D02*
D03*
X95669D02*
D03*
X98031D02*
D03*
X100393D02*
D03*
Y14960D02*
D03*
Y12598D02*
D03*
Y10236D02*
D03*
Y7874D02*
D03*
Y5511D02*
D03*
Y3149D02*
D03*
X98031Y14960D02*
D03*
Y12598D02*
D03*
Y10236D02*
D03*
Y7874D02*
D03*
Y5511D02*
D03*
Y3149D02*
D03*
X95669Y14960D02*
D03*
Y12598D02*
D03*
Y10236D02*
D03*
Y7874D02*
D03*
Y5511D02*
D03*
Y3149D02*
D03*
X93306Y14960D02*
D03*
Y12598D02*
D03*
Y10236D02*
D03*
Y7874D02*
D03*
Y5511D02*
D03*
Y3149D02*
D03*
X90944Y14960D02*
D03*
Y12598D02*
D03*
Y10236D02*
D03*
Y7874D02*
D03*
Y5511D02*
D03*
Y3149D02*
D03*
X88582Y14960D02*
D03*
Y12598D02*
D03*
Y10236D02*
D03*
Y7874D02*
D03*
Y5511D02*
D03*
Y3149D02*
D03*
X86220Y14960D02*
D03*
Y12598D02*
D03*
Y10236D02*
D03*
Y7874D02*
D03*
Y5511D02*
D03*
Y3149D02*
D03*
X83858Y14960D02*
D03*
Y12598D02*
D03*
Y10236D02*
D03*
Y7874D02*
D03*
Y5511D02*
D03*
Y3149D02*
D03*
X81495Y14960D02*
D03*
Y12598D02*
D03*
Y10236D02*
D03*
Y7874D02*
D03*
Y5511D02*
D03*
Y3149D02*
D03*
X48425Y19685D02*
D03*
X50787D02*
D03*
X53149D02*
D03*
X55511D02*
D03*
X57873D02*
D03*
X60236D02*
D03*
X62598D02*
D03*
X64960D02*
D03*
X67322D02*
D03*
X48425Y17322D02*
D03*
X50787D02*
D03*
X53149D02*
D03*
X55511D02*
D03*
X57873D02*
D03*
X60236D02*
D03*
X62598D02*
D03*
X64960D02*
D03*
X67322D02*
D03*
Y14960D02*
D03*
Y12598D02*
D03*
Y10236D02*
D03*
Y7874D02*
D03*
Y5511D02*
D03*
Y3149D02*
D03*
X64960Y14960D02*
D03*
Y12598D02*
D03*
Y10236D02*
D03*
Y7874D02*
D03*
Y5511D02*
D03*
Y3149D02*
D03*
X62598Y14960D02*
D03*
Y12598D02*
D03*
Y10236D02*
D03*
Y7874D02*
D03*
Y5511D02*
D03*
Y3149D02*
D03*
X60236Y14960D02*
D03*
Y12598D02*
D03*
Y10236D02*
D03*
Y7874D02*
D03*
Y5511D02*
D03*
Y3149D02*
D03*
X57873Y14960D02*
D03*
Y12598D02*
D03*
Y10236D02*
D03*
Y7874D02*
D03*
Y5511D02*
D03*
Y3149D02*
D03*
X55511Y14960D02*
D03*
Y12598D02*
D03*
Y10236D02*
D03*
Y7874D02*
D03*
Y5511D02*
D03*
Y3149D02*
D03*
X53149Y14960D02*
D03*
Y12598D02*
D03*
Y10236D02*
D03*
Y7874D02*
D03*
Y5511D02*
D03*
Y3149D02*
D03*
X50787Y14960D02*
D03*
Y12598D02*
D03*
Y10236D02*
D03*
Y7874D02*
D03*
Y5511D02*
D03*
Y3149D02*
D03*
X48425Y14960D02*
D03*
Y12598D02*
D03*
Y10236D02*
D03*
Y7874D02*
D03*
Y5511D02*
D03*
Y3149D02*
D03*
X15354Y19685D02*
D03*
X17716D02*
D03*
X20078D02*
D03*
X22440D02*
D03*
X24803D02*
D03*
X27165D02*
D03*
X29527D02*
D03*
X31889D02*
D03*
X15354Y17322D02*
D03*
X17716D02*
D03*
X20078D02*
D03*
X22440D02*
D03*
X24803D02*
D03*
X27165D02*
D03*
X29527D02*
D03*
X31889D02*
D03*
Y14960D02*
D03*
Y12598D02*
D03*
Y10236D02*
D03*
Y7874D02*
D03*
Y5511D02*
D03*
Y3149D02*
D03*
X29527Y14960D02*
D03*
Y12598D02*
D03*
Y10236D02*
D03*
Y7874D02*
D03*
Y5511D02*
D03*
Y3149D02*
D03*
X27165Y14960D02*
D03*
Y12598D02*
D03*
Y10236D02*
D03*
Y7874D02*
D03*
Y5511D02*
D03*
Y3149D02*
D03*
X24803Y14960D02*
D03*
Y12598D02*
D03*
Y10236D02*
D03*
Y7874D02*
D03*
Y5511D02*
D03*
Y3149D02*
D03*
X22440Y14960D02*
D03*
Y12598D02*
D03*
Y10236D02*
D03*
Y7874D02*
D03*
Y5511D02*
D03*
Y3149D02*
D03*
X20078Y14960D02*
D03*
Y12598D02*
D03*
Y10236D02*
D03*
Y7874D02*
D03*
Y5511D02*
D03*
Y3149D02*
D03*
X17716Y14960D02*
D03*
Y12598D02*
D03*
Y10236D02*
D03*
Y7874D02*
D03*
Y5511D02*
D03*
Y3149D02*
D03*
X15354Y14960D02*
D03*
Y12598D02*
D03*
Y10236D02*
D03*
Y7874D02*
D03*
Y5511D02*
D03*
Y3149D02*
D03*
X78739Y109055D02*
D03*
X81102D02*
D03*
X83464D02*
D03*
X85826D02*
D03*
X88188D02*
D03*
X78739Y107086D02*
D03*
X81102D02*
D03*
X83464D02*
D03*
X85826D02*
D03*
X88188D02*
D03*
X90550Y104723D02*
D03*
X88187D02*
D03*
X85825D02*
D03*
X83463D02*
D03*
X81101D02*
D03*
X78739D02*
D03*
X90944Y95275D02*
D03*
X88582D02*
D03*
X86220D02*
D03*
X83858D02*
D03*
X81495D02*
D03*
X79133D02*
D03*
X90944Y97637D02*
D03*
X88582D02*
D03*
X86220D02*
D03*
X83858D02*
D03*
X81495D02*
D03*
X79133D02*
D03*
X90944Y99999D02*
D03*
X88582D02*
D03*
X86220D02*
D03*
X83858D02*
D03*
X81495D02*
D03*
X79133D02*
D03*
X90944Y102362D02*
D03*
X88582D02*
D03*
X86220D02*
D03*
X83858D02*
D03*
X81495D02*
D03*
X79133D02*
D03*
X74409Y142519D02*
D03*
X76771D02*
D03*
Y144881D02*
D03*
Y147243D02*
D03*
Y151968D02*
D03*
X76377Y154330D02*
D03*
X78739D02*
D03*
X81102D02*
D03*
X83464D02*
D03*
X85826D02*
D03*
X88188D02*
D03*
X79133Y151968D02*
D03*
X81495D02*
D03*
X83858D02*
D03*
X86220D02*
D03*
X88582D02*
D03*
X79133Y142519D02*
D03*
X81495D02*
D03*
X83858D02*
D03*
X86220D02*
D03*
X88582D02*
D03*
X79133Y144881D02*
D03*
X81495D02*
D03*
X83858D02*
D03*
X86220D02*
D03*
X88582D02*
D03*
X79133Y147243D02*
D03*
X81495D02*
D03*
X83858D02*
D03*
X86220D02*
D03*
X88582D02*
D03*
Y149606D02*
D03*
X86220D02*
D03*
X83858D02*
D03*
X81495D02*
D03*
X79133D02*
D03*
X76771D02*
D03*
X74409Y154330D02*
D03*
Y151968D02*
D03*
Y149606D02*
D03*
Y147243D02*
D03*
Y144881D02*
D03*
X72047Y154330D02*
D03*
Y151968D02*
D03*
Y149606D02*
D03*
Y147243D02*
D03*
Y144881D02*
D03*
Y142519D02*
D03*
X69684Y154330D02*
D03*
Y151968D02*
D03*
Y149606D02*
D03*
Y147243D02*
D03*
Y144881D02*
D03*
Y142519D02*
D03*
X114862Y98917D02*
D03*
X123425Y65551D02*
D03*
X110728Y67126D02*
D03*
X90354Y34744D02*
D03*
X90453Y43602D02*
D03*
X57087Y35138D02*
D03*
X23524Y43602D02*
D03*
Y35335D02*
D03*
X57087Y43110D02*
D03*
X114469Y84547D02*
D03*
X90550Y201476D02*
D03*
X90747Y199113D02*
D03*
X88385D02*
D03*
X88188Y201476D02*
D03*
X86023Y199113D02*
D03*
X90944Y196850D02*
D03*
X88582D02*
D03*
X86220D02*
D03*
X85826Y201476D02*
D03*
X83464D02*
D03*
X81102D02*
D03*
X78838Y201574D02*
D03*
X83858Y196850D02*
D03*
X83661Y199113D02*
D03*
X81495Y196850D02*
D03*
X81298Y199113D02*
D03*
X79133Y199212D02*
D03*
X79133Y196850D02*
D03*
X76672Y201476D02*
D03*
X74409Y201574D02*
D03*
X76771Y199212D02*
D03*
X74409D02*
D03*
X72047D02*
D03*
Y201574D02*
D03*
X74409Y196850D02*
D03*
X76771D02*
D03*
X76672Y194487D02*
D03*
X74409D02*
D03*
X72047Y192125D02*
D03*
Y194487D02*
D03*
X74409Y192125D02*
D03*
X69684Y201574D02*
D03*
X72047Y196850D02*
D03*
X69684Y199212D02*
D03*
Y192125D02*
D03*
Y196850D02*
D03*
Y194487D02*
D03*
X72047Y189763D02*
D03*
X74409D02*
D03*
X69684D02*
D03*
X76968Y189665D02*
D03*
X76869Y192125D02*
D03*
X79527Y189468D02*
D03*
X81889D02*
D03*
X84251D02*
D03*
X86613D02*
D03*
X88976D02*
D03*
X79428Y192027D02*
D03*
X81791D02*
D03*
X84153D02*
D03*
X86515D02*
D03*
X88877D02*
D03*
X81692Y194487D02*
D03*
X84054D02*
D03*
X86417D02*
D03*
X88779D02*
D03*
X91141D02*
D03*
X79133Y194487D02*
D03*
D61*
X123622Y81201D02*
D03*
D62*
X91535Y190945D02*
D03*
X95472Y208661D02*
D03*
X93504Y115157D02*
D03*
X91535Y107283D02*
D03*
Y153543D02*
D03*
X93504Y161417D02*
D03*
D63*
X23622Y23228D02*
D03*
Y55512D02*
D03*
X57087Y55512D02*
D03*
Y23228D02*
D03*
X90551Y55512D02*
D03*
Y23228D02*
D03*
D64*
X121850Y59055D02*
D03*
X110433D02*
D03*
D65*
X28543Y89567D02*
Y184055D01*
X23031Y84055D02*
X28543Y89567D01*
Y184055D02*
X41339Y196850D01*
X85630Y60433D02*
Y81819D01*
Y60433D02*
X87598Y58465D01*
X85630Y81819D02*
X93583Y73866D01*
X85630Y81819D02*
Y101378D01*
X57087Y76772D02*
Y140381D01*
X87598Y57776D02*
Y58465D01*
X41339Y196850D02*
X66929D01*
X66312Y149606D02*
X68898D01*
X57087Y140381D02*
X66312Y149606D01*
D66*
X23031Y63583D02*
Y84055D01*
X57087Y62992D02*
Y76772D01*
M02*
