G04*
G04 #@! TF.GenerationSoftware,Altium Limited,Altium Designer,22.10.1 (41)*
G04*
G04 Layer_Color=32896*
%FSLAX25Y25*%
%MOIN*%
G70*
G04*
G04 #@! TF.SameCoordinates,59214271-F8BB-42CD-AB19-65BC4A0A980D*
G04*
G04*
G04 #@! TF.FilePolarity,Positive*
G04*
G01*
G75*
%ADD11C,0.00787*%
%ADD13C,0.01000*%
G36*
X10294Y216894D02*
X10338D01*
X10443Y216883D01*
X10560Y216866D01*
X10682Y216838D01*
X10815Y216805D01*
X10943Y216761D01*
X10948D01*
X10960Y216755D01*
X10976Y216750D01*
X10998Y216738D01*
X11059Y216705D01*
X11137Y216666D01*
X11220Y216611D01*
X11309Y216544D01*
X11392Y216472D01*
X11470Y216383D01*
X11481Y216372D01*
X11503Y216339D01*
X11537Y216289D01*
X11581Y216217D01*
X11626Y216128D01*
X11675Y216017D01*
X11725Y215895D01*
X11764Y215756D01*
X11304Y215634D01*
Y215639D01*
X11298Y215645D01*
X11293Y215662D01*
X11287Y215684D01*
X11270Y215734D01*
X11248Y215800D01*
X11215Y215878D01*
X11176Y215950D01*
X11137Y216028D01*
X11087Y216095D01*
X11082Y216100D01*
X11065Y216122D01*
X11032Y216150D01*
X10993Y216189D01*
X10943Y216233D01*
X10876Y216278D01*
X10804Y216322D01*
X10721Y216361D01*
X10710Y216367D01*
X10682Y216378D01*
X10632Y216394D01*
X10565Y216417D01*
X10488Y216433D01*
X10399Y216450D01*
X10299Y216461D01*
X10194Y216466D01*
X10132D01*
X10105Y216461D01*
X10071D01*
X9988Y216455D01*
X9894Y216439D01*
X9788Y216422D01*
X9689Y216394D01*
X9589Y216355D01*
X9578Y216350D01*
X9544Y216339D01*
X9500Y216311D01*
X9444Y216283D01*
X9378Y216239D01*
X9306Y216195D01*
X9239Y216139D01*
X9178Y216078D01*
X9172Y216072D01*
X9150Y216050D01*
X9122Y216011D01*
X9089Y215967D01*
X9050Y215911D01*
X9011Y215845D01*
X8973Y215773D01*
X8934Y215695D01*
Y215689D01*
X8928Y215678D01*
X8923Y215662D01*
X8912Y215634D01*
X8900Y215601D01*
X8889Y215562D01*
X8873Y215517D01*
X8862Y215467D01*
X8834Y215351D01*
X8812Y215218D01*
X8795Y215079D01*
X8789Y214924D01*
Y214918D01*
Y214901D01*
Y214874D01*
X8795Y214840D01*
Y214796D01*
X8800Y214740D01*
X8806Y214685D01*
X8812Y214624D01*
X8834Y214485D01*
X8862Y214341D01*
X8906Y214196D01*
X8962Y214058D01*
Y214052D01*
X8973Y214041D01*
X8978Y214024D01*
X8995Y214002D01*
X9034Y213941D01*
X9095Y213863D01*
X9167Y213780D01*
X9256Y213697D01*
X9361Y213619D01*
X9478Y213547D01*
X9483D01*
X9494Y213542D01*
X9511Y213530D01*
X9539Y213519D01*
X9566Y213508D01*
X9605Y213497D01*
X9694Y213464D01*
X9805Y213436D01*
X9927Y213408D01*
X10060Y213386D01*
X10199Y213381D01*
X10255D01*
X10288Y213386D01*
X10321D01*
X10405Y213397D01*
X10504Y213408D01*
X10610Y213431D01*
X10726Y213464D01*
X10843Y213503D01*
X10848D01*
X10860Y213508D01*
X10871Y213514D01*
X10893Y213525D01*
X10954Y213553D01*
X11021Y213586D01*
X11098Y213625D01*
X11181Y213669D01*
X11259Y213719D01*
X11326Y213775D01*
Y214496D01*
X10194D01*
Y214951D01*
X11825D01*
Y213525D01*
X11820Y213519D01*
X11809Y213514D01*
X11786Y213497D01*
X11759Y213475D01*
X11725Y213453D01*
X11687Y213425D01*
X11637Y213392D01*
X11587Y213358D01*
X11470Y213286D01*
X11337Y213209D01*
X11198Y213136D01*
X11048Y213075D01*
X11043D01*
X11032Y213070D01*
X11009Y213064D01*
X10982Y213053D01*
X10943Y213042D01*
X10898Y213025D01*
X10848Y213014D01*
X10798Y213003D01*
X10676Y212976D01*
X10538Y212948D01*
X10388Y212931D01*
X10232Y212926D01*
X10177D01*
X10138Y212931D01*
X10088D01*
X10027Y212937D01*
X9961Y212948D01*
X9888Y212953D01*
X9727Y212987D01*
X9555Y213025D01*
X9378Y213087D01*
X9289Y213120D01*
X9200Y213164D01*
X9195Y213170D01*
X9178Y213175D01*
X9156Y213192D01*
X9122Y213209D01*
X9084Y213236D01*
X9045Y213264D01*
X8939Y213342D01*
X8828Y213442D01*
X8712Y213564D01*
X8601Y213703D01*
X8501Y213863D01*
Y213869D01*
X8490Y213886D01*
X8479Y213908D01*
X8462Y213947D01*
X8445Y213986D01*
X8429Y214041D01*
X8406Y214097D01*
X8384Y214163D01*
X8362Y214235D01*
X8340Y214319D01*
X8323Y214402D01*
X8307Y214491D01*
X8279Y214685D01*
X8268Y214890D01*
Y214896D01*
Y214918D01*
Y214946D01*
X8273Y214985D01*
Y215035D01*
X8279Y215096D01*
X8290Y215157D01*
X8296Y215229D01*
X8312Y215306D01*
X8323Y215390D01*
X8368Y215567D01*
X8423Y215751D01*
X8501Y215934D01*
X8506Y215939D01*
X8512Y215956D01*
X8523Y215978D01*
X8545Y216011D01*
X8567Y216056D01*
X8595Y216100D01*
X8673Y216206D01*
X8767Y216328D01*
X8884Y216444D01*
X9017Y216561D01*
X9095Y216611D01*
X9172Y216661D01*
X9178Y216666D01*
X9195Y216672D01*
X9217Y216683D01*
X9250Y216700D01*
X9295Y216716D01*
X9344Y216738D01*
X9400Y216761D01*
X9466Y216783D01*
X9539Y216805D01*
X9616Y216822D01*
X9700Y216844D01*
X9788Y216861D01*
X9983Y216888D01*
X10083Y216899D01*
X10260D01*
X10294Y216894D01*
D02*
G37*
G36*
X15594Y212992D02*
X15067D01*
X13057Y216006D01*
Y212992D01*
X12569D01*
Y216833D01*
X13091D01*
X15105Y213813D01*
Y216833D01*
X15594D01*
Y212992D01*
D02*
G37*
G36*
X18025Y216827D02*
X18136Y216822D01*
X18247Y216810D01*
X18358Y216794D01*
X18452Y216777D01*
X18458D01*
X18469Y216772D01*
X18485D01*
X18507Y216761D01*
X18568Y216744D01*
X18646Y216716D01*
X18735Y216677D01*
X18829Y216627D01*
X18924Y216572D01*
X19013Y216500D01*
X19018Y216494D01*
X19024Y216489D01*
X19040Y216472D01*
X19062Y216455D01*
X19118Y216400D01*
X19185Y216322D01*
X19257Y216228D01*
X19334Y216117D01*
X19407Y215989D01*
X19468Y215845D01*
Y215839D01*
X19473Y215828D01*
X19484Y215806D01*
X19490Y215773D01*
X19507Y215734D01*
X19518Y215689D01*
X19529Y215639D01*
X19545Y215578D01*
X19562Y215517D01*
X19573Y215445D01*
X19601Y215290D01*
X19617Y215118D01*
X19623Y214929D01*
Y214924D01*
Y214912D01*
Y214885D01*
Y214857D01*
X19617Y214818D01*
Y214774D01*
X19612Y214668D01*
X19595Y214546D01*
X19579Y214419D01*
X19551Y214285D01*
X19518Y214152D01*
Y214146D01*
X19512Y214135D01*
X19507Y214119D01*
X19501Y214097D01*
X19479Y214036D01*
X19445Y213958D01*
X19412Y213869D01*
X19368Y213780D01*
X19312Y213686D01*
X19257Y213597D01*
X19251Y213586D01*
X19229Y213558D01*
X19196Y213519D01*
X19151Y213469D01*
X19101Y213414D01*
X19040Y213358D01*
X18979Y213297D01*
X18907Y213247D01*
X18896Y213242D01*
X18874Y213225D01*
X18835Y213203D01*
X18779Y213175D01*
X18713Y213142D01*
X18635Y213114D01*
X18546Y213081D01*
X18446Y213053D01*
X18435D01*
X18419Y213048D01*
X18402Y213042D01*
X18347Y213036D01*
X18269Y213025D01*
X18180Y213014D01*
X18075Y213003D01*
X17958Y212998D01*
X17830Y212992D01*
X16448D01*
Y216833D01*
X17925D01*
X18025Y216827D01*
D02*
G37*
G36*
X119736Y210333D02*
X119214D01*
X117199Y213352D01*
Y210333D01*
X116711D01*
Y214173D01*
X117238D01*
X119247Y211160D01*
Y214173D01*
X119736D01*
Y210333D01*
D02*
G37*
G36*
X125202D02*
X124647D01*
X123648Y213124D01*
Y213130D01*
X123643Y213141D01*
X123637Y213158D01*
X123626Y213180D01*
X123621Y213213D01*
X123609Y213246D01*
X123582Y213330D01*
X123548Y213424D01*
X123515Y213529D01*
X123449Y213751D01*
Y213746D01*
X123443Y213735D01*
X123438Y213718D01*
X123432Y213696D01*
X123415Y213635D01*
X123388Y213552D01*
X123360Y213457D01*
X123327Y213352D01*
X123288Y213241D01*
X123243Y213124D01*
X122200Y210333D01*
X121684D01*
X123182Y214173D01*
X123715D01*
X125202Y210333D01*
D02*
G37*
G36*
X121140D02*
X120629D01*
Y214173D01*
X121140D01*
Y210333D01*
D02*
G37*
G36*
X97585Y68138D02*
X97690Y68127D01*
X97790Y68105D01*
X97885Y68077D01*
X97968Y68038D01*
X98051Y68005D01*
X98123Y67961D01*
X98190Y67922D01*
X98246Y67883D01*
X98301Y67839D01*
X98345Y67805D01*
X98379Y67772D01*
X98406Y67739D01*
X98429Y67716D01*
X98440Y67705D01*
X98445Y67700D01*
X98517Y67600D01*
X98579Y67483D01*
X98634Y67361D01*
X98684Y67234D01*
X98723Y67101D01*
X98756Y66967D01*
X98784Y66829D01*
X98806Y66701D01*
X98823Y66573D01*
X98834Y66457D01*
X98845Y66351D01*
X98850Y66262D01*
Y66185D01*
X98856Y66129D01*
Y66107D01*
Y66090D01*
Y66085D01*
Y66079D01*
X98850Y65902D01*
X98839Y65735D01*
X98823Y65580D01*
X98795Y65435D01*
X98767Y65308D01*
X98739Y65191D01*
X98706Y65086D01*
X98667Y64991D01*
X98634Y64914D01*
X98601Y64842D01*
X98573Y64786D01*
X98540Y64736D01*
X98517Y64697D01*
X98501Y64675D01*
X98490Y64658D01*
X98484Y64653D01*
X98412Y64575D01*
X98334Y64509D01*
X98257Y64453D01*
X98179Y64403D01*
X98096Y64359D01*
X98018Y64325D01*
X97940Y64298D01*
X97862Y64275D01*
X97796Y64259D01*
X97729Y64242D01*
X97674Y64231D01*
X97624Y64226D01*
X97579D01*
X97552Y64220D01*
X97524D01*
X97396Y64226D01*
X97280Y64248D01*
X97174Y64270D01*
X97080Y64303D01*
X97008Y64331D01*
X96952Y64359D01*
X96930Y64364D01*
X96913Y64375D01*
X96908Y64381D01*
X96902D01*
X96808Y64448D01*
X96719Y64525D01*
X96647Y64603D01*
X96586Y64681D01*
X96536Y64753D01*
X96503Y64808D01*
X96492Y64830D01*
X96481Y64847D01*
X96475Y64853D01*
Y64858D01*
X96420Y64975D01*
X96381Y65097D01*
X96353Y65208D01*
X96336Y65313D01*
X96320Y65402D01*
Y65435D01*
X96314Y65469D01*
Y65496D01*
Y65513D01*
Y65524D01*
Y65530D01*
X96320Y65630D01*
X96331Y65724D01*
X96347Y65818D01*
X96364Y65902D01*
X96392Y65979D01*
X96420Y66057D01*
X96447Y66124D01*
X96481Y66185D01*
X96514Y66240D01*
X96542Y66290D01*
X96569Y66329D01*
X96597Y66368D01*
X96614Y66396D01*
X96630Y66412D01*
X96641Y66423D01*
X96647Y66429D01*
X96708Y66490D01*
X96775Y66545D01*
X96847Y66590D01*
X96913Y66629D01*
X96980Y66668D01*
X97047Y66695D01*
X97174Y66734D01*
X97230Y66751D01*
X97285Y66762D01*
X97330Y66768D01*
X97374Y66773D01*
X97407Y66779D01*
X97452D01*
X97552Y66773D01*
X97646Y66756D01*
X97735Y66740D01*
X97813Y66717D01*
X97879Y66690D01*
X97929Y66673D01*
X97962Y66657D01*
X97968Y66651D01*
X97974D01*
X98062Y66595D01*
X98140Y66534D01*
X98212Y66473D01*
X98268Y66407D01*
X98318Y66351D01*
X98356Y66307D01*
X98379Y66273D01*
X98384Y66268D01*
Y66368D01*
X98379Y66468D01*
X98373Y66557D01*
X98362Y66645D01*
X98356Y66723D01*
X98345Y66795D01*
X98334Y66862D01*
X98318Y66923D01*
X98307Y66978D01*
X98295Y67023D01*
X98284Y67062D01*
X98279Y67095D01*
X98268Y67117D01*
X98262Y67134D01*
X98257Y67145D01*
Y67150D01*
X98201Y67261D01*
X98146Y67361D01*
X98084Y67439D01*
X98029Y67506D01*
X97979Y67561D01*
X97940Y67600D01*
X97913Y67622D01*
X97901Y67628D01*
X97835Y67672D01*
X97768Y67700D01*
X97702Y67722D01*
X97635Y67739D01*
X97585Y67750D01*
X97541Y67755D01*
X97502D01*
X97402Y67744D01*
X97307Y67722D01*
X97230Y67689D01*
X97158Y67655D01*
X97102Y67617D01*
X97063Y67583D01*
X97041Y67561D01*
X97030Y67550D01*
X96991Y67500D01*
X96952Y67439D01*
X96919Y67372D01*
X96897Y67306D01*
X96875Y67245D01*
X96858Y67195D01*
X96852Y67162D01*
X96847Y67156D01*
Y67150D01*
X96375Y67189D01*
X96408Y67345D01*
X96458Y67483D01*
X96514Y67606D01*
X96575Y67705D01*
X96636Y67783D01*
X96658Y67816D01*
X96686Y67844D01*
X96703Y67861D01*
X96719Y67878D01*
X96725Y67883D01*
X96730Y67889D01*
X96786Y67933D01*
X96847Y67972D01*
X96969Y68038D01*
X97091Y68083D01*
X97208Y68111D01*
X97313Y68133D01*
X97357Y68138D01*
X97396D01*
X97430Y68144D01*
X97474D01*
X97585Y68138D01*
D02*
G37*
G36*
X102508Y64287D02*
X101997D01*
Y65991D01*
X101342D01*
X101281Y65985D01*
X101237D01*
X101198Y65979D01*
X101170Y65974D01*
X101148D01*
X101137Y65968D01*
X101131D01*
X101043Y65940D01*
X101004Y65924D01*
X100970Y65907D01*
X100937Y65891D01*
X100915Y65879D01*
X100904Y65874D01*
X100898Y65868D01*
X100854Y65835D01*
X100810Y65796D01*
X100726Y65713D01*
X100688Y65674D01*
X100660Y65641D01*
X100643Y65619D01*
X100637Y65613D01*
X100582Y65535D01*
X100521Y65452D01*
X100460Y65363D01*
X100399Y65280D01*
X100349Y65202D01*
X100310Y65141D01*
X100293Y65119D01*
X100282Y65102D01*
X100271Y65091D01*
Y65086D01*
X99766Y64287D01*
X99133D01*
X99794Y65330D01*
X99872Y65441D01*
X99944Y65541D01*
X100016Y65624D01*
X100077Y65702D01*
X100133Y65757D01*
X100177Y65802D01*
X100205Y65829D01*
X100216Y65841D01*
X100260Y65874D01*
X100310Y65913D01*
X100410Y65974D01*
X100454Y65996D01*
X100488Y66018D01*
X100510Y66029D01*
X100521Y66035D01*
X100421Y66052D01*
X100327Y66068D01*
X100243Y66096D01*
X100160Y66118D01*
X100088Y66146D01*
X100022Y66179D01*
X99960Y66207D01*
X99905Y66235D01*
X99861Y66268D01*
X99816Y66296D01*
X99783Y66318D01*
X99755Y66340D01*
X99733Y66357D01*
X99716Y66373D01*
X99711Y66379D01*
X99705Y66385D01*
X99661Y66440D01*
X99616Y66496D01*
X99550Y66612D01*
X99505Y66729D01*
X99472Y66840D01*
X99450Y66934D01*
X99444Y66973D01*
Y67012D01*
X99439Y67039D01*
Y67062D01*
Y67073D01*
Y67078D01*
X99444Y67195D01*
X99461Y67300D01*
X99489Y67400D01*
X99516Y67483D01*
X99550Y67556D01*
X99572Y67611D01*
X99594Y67644D01*
X99600Y67650D01*
Y67655D01*
X99666Y67744D01*
X99733Y67822D01*
X99805Y67889D01*
X99872Y67939D01*
X99933Y67977D01*
X99983Y68000D01*
X100016Y68016D01*
X100022Y68022D01*
X100027D01*
X100077Y68038D01*
X100138Y68055D01*
X100260Y68083D01*
X100393Y68099D01*
X100515Y68116D01*
X100632Y68122D01*
X100682D01*
X100726Y68127D01*
X102508D01*
Y64287D01*
D02*
G37*
G36*
X65250Y66101D02*
X64806Y66040D01*
X64768Y66101D01*
X64718Y66151D01*
X64673Y66201D01*
X64629Y66240D01*
X64584Y66268D01*
X64551Y66296D01*
X64529Y66307D01*
X64524Y66312D01*
X64451Y66346D01*
X64379Y66373D01*
X64313Y66390D01*
X64246Y66407D01*
X64191Y66412D01*
X64146Y66418D01*
X64041D01*
X63974Y66407D01*
X63858Y66379D01*
X63758Y66340D01*
X63669Y66301D01*
X63602Y66257D01*
X63552Y66218D01*
X63525Y66190D01*
X63513Y66185D01*
Y66179D01*
X63436Y66085D01*
X63380Y65985D01*
X63341Y65879D01*
X63314Y65774D01*
X63297Y65685D01*
X63291Y65646D01*
Y65613D01*
X63286Y65585D01*
Y65563D01*
Y65552D01*
Y65547D01*
Y65469D01*
X63297Y65397D01*
X63325Y65258D01*
X63363Y65141D01*
X63402Y65047D01*
X63447Y64969D01*
X63486Y64908D01*
X63502Y64892D01*
X63513Y64875D01*
X63519Y64869D01*
X63525Y64864D01*
X63569Y64819D01*
X63613Y64781D01*
X63713Y64714D01*
X63807Y64670D01*
X63902Y64642D01*
X63980Y64620D01*
X64046Y64614D01*
X64068Y64609D01*
X64102D01*
X64207Y64614D01*
X64302Y64636D01*
X64385Y64664D01*
X64451Y64697D01*
X64512Y64731D01*
X64557Y64758D01*
X64579Y64781D01*
X64590Y64786D01*
X64657Y64864D01*
X64712Y64947D01*
X64757Y65041D01*
X64790Y65125D01*
X64812Y65208D01*
X64829Y65269D01*
X64834Y65297D01*
X64840Y65313D01*
Y65324D01*
Y65330D01*
X65334Y65291D01*
X65323Y65202D01*
X65306Y65119D01*
X65256Y64964D01*
X65195Y64830D01*
X65162Y64770D01*
X65128Y64719D01*
X65101Y64670D01*
X65067Y64625D01*
X65040Y64592D01*
X65012Y64564D01*
X64990Y64542D01*
X64979Y64520D01*
X64968Y64514D01*
X64962Y64509D01*
X64895Y64459D01*
X64829Y64414D01*
X64757Y64375D01*
X64684Y64342D01*
X64546Y64292D01*
X64407Y64259D01*
X64346Y64242D01*
X64285Y64237D01*
X64235Y64231D01*
X64191Y64226D01*
X64152Y64220D01*
X64102D01*
X63985Y64226D01*
X63874Y64242D01*
X63769Y64264D01*
X63674Y64292D01*
X63586Y64331D01*
X63502Y64370D01*
X63425Y64409D01*
X63358Y64453D01*
X63297Y64498D01*
X63241Y64536D01*
X63197Y64581D01*
X63158Y64614D01*
X63130Y64642D01*
X63108Y64664D01*
X63097Y64681D01*
X63092Y64686D01*
X63036Y64758D01*
X62992Y64836D01*
X62947Y64908D01*
X62914Y64986D01*
X62858Y65136D01*
X62825Y65280D01*
X62814Y65341D01*
X62803Y65402D01*
X62797Y65452D01*
X62792Y65496D01*
X62786Y65535D01*
Y65563D01*
Y65580D01*
Y65585D01*
X62792Y65685D01*
X62803Y65780D01*
X62820Y65874D01*
X62842Y65957D01*
X62870Y66035D01*
X62897Y66113D01*
X62931Y66179D01*
X62958Y66240D01*
X62992Y66296D01*
X63025Y66346D01*
X63053Y66385D01*
X63081Y66423D01*
X63103Y66451D01*
X63119Y66468D01*
X63130Y66479D01*
X63136Y66484D01*
X63203Y66545D01*
X63269Y66601D01*
X63341Y66645D01*
X63414Y66684D01*
X63486Y66723D01*
X63558Y66751D01*
X63691Y66790D01*
X63752Y66806D01*
X63807Y66817D01*
X63858Y66823D01*
X63902Y66829D01*
X63935Y66834D01*
X64057D01*
X64124Y66823D01*
X64257Y66795D01*
X64379Y66756D01*
X64490Y66712D01*
X64579Y66668D01*
X64618Y66645D01*
X64651Y66629D01*
X64679Y66612D01*
X64696Y66601D01*
X64707Y66595D01*
X64712Y66590D01*
X64507Y67628D01*
X62969D01*
Y68077D01*
X64879D01*
X65250Y66101D01*
D02*
G37*
G36*
X69008Y64287D02*
X68497D01*
Y65991D01*
X67842D01*
X67781Y65985D01*
X67737D01*
X67698Y65979D01*
X67670Y65974D01*
X67648D01*
X67637Y65968D01*
X67632D01*
X67543Y65940D01*
X67504Y65924D01*
X67471Y65907D01*
X67437Y65891D01*
X67415Y65879D01*
X67404Y65874D01*
X67398Y65868D01*
X67354Y65835D01*
X67310Y65796D01*
X67226Y65713D01*
X67188Y65674D01*
X67160Y65641D01*
X67143Y65619D01*
X67137Y65613D01*
X67082Y65535D01*
X67021Y65452D01*
X66960Y65363D01*
X66899Y65280D01*
X66849Y65202D01*
X66810Y65141D01*
X66793Y65119D01*
X66782Y65102D01*
X66771Y65091D01*
Y65086D01*
X66266Y64287D01*
X65633D01*
X66294Y65330D01*
X66372Y65441D01*
X66444Y65541D01*
X66516Y65624D01*
X66577Y65702D01*
X66632Y65757D01*
X66677Y65802D01*
X66705Y65829D01*
X66716Y65841D01*
X66760Y65874D01*
X66810Y65913D01*
X66910Y65974D01*
X66954Y65996D01*
X66988Y66018D01*
X67010Y66029D01*
X67021Y66035D01*
X66921Y66052D01*
X66827Y66068D01*
X66743Y66096D01*
X66660Y66118D01*
X66588Y66146D01*
X66522Y66179D01*
X66460Y66207D01*
X66405Y66235D01*
X66360Y66268D01*
X66316Y66296D01*
X66283Y66318D01*
X66255Y66340D01*
X66233Y66357D01*
X66216Y66373D01*
X66211Y66379D01*
X66205Y66385D01*
X66161Y66440D01*
X66116Y66496D01*
X66050Y66612D01*
X66005Y66729D01*
X65972Y66840D01*
X65950Y66934D01*
X65944Y66973D01*
Y67012D01*
X65939Y67039D01*
Y67062D01*
Y67073D01*
Y67078D01*
X65944Y67195D01*
X65961Y67300D01*
X65989Y67400D01*
X66016Y67483D01*
X66050Y67556D01*
X66072Y67611D01*
X66094Y67644D01*
X66100Y67650D01*
Y67655D01*
X66166Y67744D01*
X66233Y67822D01*
X66305Y67889D01*
X66372Y67939D01*
X66433Y67977D01*
X66483Y68000D01*
X66516Y68016D01*
X66522Y68022D01*
X66527D01*
X66577Y68038D01*
X66638Y68055D01*
X66760Y68083D01*
X66893Y68099D01*
X67015Y68116D01*
X67132Y68122D01*
X67182D01*
X67226Y68127D01*
X69008D01*
Y64287D01*
D02*
G37*
G36*
X35508Y64187D02*
X34997D01*
Y65891D01*
X34342D01*
X34281Y65885D01*
X34237D01*
X34198Y65879D01*
X34170Y65874D01*
X34148D01*
X34137Y65868D01*
X34132D01*
X34043Y65841D01*
X34004Y65824D01*
X33970Y65807D01*
X33937Y65791D01*
X33915Y65780D01*
X33904Y65774D01*
X33898Y65768D01*
X33854Y65735D01*
X33810Y65696D01*
X33726Y65613D01*
X33687Y65574D01*
X33660Y65541D01*
X33643Y65519D01*
X33637Y65513D01*
X33582Y65435D01*
X33521Y65352D01*
X33460Y65263D01*
X33399Y65180D01*
X33349Y65102D01*
X33310Y65041D01*
X33293Y65019D01*
X33282Y65003D01*
X33271Y64991D01*
Y64986D01*
X32766Y64187D01*
X32133D01*
X32794Y65230D01*
X32872Y65341D01*
X32944Y65441D01*
X33016Y65524D01*
X33077Y65602D01*
X33132Y65657D01*
X33177Y65702D01*
X33205Y65729D01*
X33216Y65741D01*
X33260Y65774D01*
X33310Y65813D01*
X33410Y65874D01*
X33454Y65896D01*
X33488Y65918D01*
X33510Y65929D01*
X33521Y65935D01*
X33421Y65952D01*
X33327Y65968D01*
X33244Y65996D01*
X33160Y66018D01*
X33088Y66046D01*
X33022Y66079D01*
X32960Y66107D01*
X32905Y66135D01*
X32860Y66168D01*
X32816Y66196D01*
X32783Y66218D01*
X32755Y66240D01*
X32733Y66257D01*
X32716Y66273D01*
X32711Y66279D01*
X32705Y66285D01*
X32661Y66340D01*
X32616Y66395D01*
X32550Y66512D01*
X32505Y66629D01*
X32472Y66740D01*
X32450Y66834D01*
X32444Y66873D01*
Y66912D01*
X32439Y66939D01*
Y66962D01*
Y66973D01*
Y66978D01*
X32444Y67095D01*
X32461Y67200D01*
X32489Y67300D01*
X32516Y67383D01*
X32550Y67456D01*
X32572Y67511D01*
X32594Y67544D01*
X32600Y67550D01*
Y67555D01*
X32666Y67644D01*
X32733Y67722D01*
X32805Y67789D01*
X32872Y67839D01*
X32933Y67877D01*
X32983Y67900D01*
X33016Y67916D01*
X33022Y67922D01*
X33027D01*
X33077Y67938D01*
X33138Y67955D01*
X33260Y67983D01*
X33393Y68000D01*
X33515Y68016D01*
X33632Y68022D01*
X33682D01*
X33726Y68027D01*
X35508D01*
Y64187D01*
D02*
G37*
G36*
X31995Y65541D02*
Y65108D01*
X30324D01*
Y64187D01*
X29852D01*
Y65108D01*
X29331D01*
Y65541D01*
X29852D01*
Y68027D01*
X30235D01*
X31995Y65541D01*
D02*
G37*
G36*
X101006Y136817D02*
X101156Y136789D01*
X101284Y136745D01*
X101395Y136700D01*
X101445Y136673D01*
X101483Y136651D01*
X101522Y136628D01*
X101550Y136606D01*
X101572Y136590D01*
X101589Y136578D01*
X101600Y136573D01*
X101605Y136567D01*
X101711Y136462D01*
X101794Y136345D01*
X101861Y136223D01*
X101916Y136101D01*
X101950Y135996D01*
X101966Y135951D01*
X101977Y135912D01*
X101983Y135879D01*
X101988Y135857D01*
X101994Y135840D01*
Y135835D01*
X101522Y135751D01*
X101500Y135873D01*
X101467Y135979D01*
X101428Y136068D01*
X101389Y136140D01*
X101350Y136195D01*
X101317Y136234D01*
X101295Y136262D01*
X101289Y136268D01*
X101217Y136323D01*
X101139Y136367D01*
X101067Y136395D01*
X100995Y136417D01*
X100928Y136428D01*
X100879Y136440D01*
X100834D01*
X100734Y136434D01*
X100645Y136412D01*
X100568Y136384D01*
X100501Y136356D01*
X100451Y136323D01*
X100412Y136295D01*
X100384Y136273D01*
X100379Y136268D01*
X100318Y136201D01*
X100274Y136129D01*
X100246Y136057D01*
X100224Y135990D01*
X100213Y135929D01*
X100201Y135885D01*
Y135851D01*
Y135846D01*
Y135840D01*
Y135779D01*
X100213Y135724D01*
X100240Y135629D01*
X100279Y135546D01*
X100323Y135474D01*
X100368Y135424D01*
X100407Y135385D01*
X100435Y135363D01*
X100440Y135357D01*
X100446D01*
X100540Y135307D01*
X100629Y135269D01*
X100723Y135241D01*
X100806Y135224D01*
X100879Y135213D01*
X100940Y135202D01*
X101012D01*
X101034Y135207D01*
X101062D01*
X101117Y134791D01*
X101045Y134808D01*
X100978Y134819D01*
X100923Y134830D01*
X100873Y134836D01*
X100834Y134841D01*
X100784D01*
X100668Y134830D01*
X100562Y134808D01*
X100468Y134775D01*
X100390Y134736D01*
X100329Y134697D01*
X100285Y134664D01*
X100257Y134641D01*
X100246Y134630D01*
X100174Y134547D01*
X100118Y134458D01*
X100079Y134370D01*
X100057Y134281D01*
X100040Y134209D01*
X100035Y134148D01*
X100029Y134125D01*
Y134109D01*
Y134098D01*
Y134092D01*
X100040Y133970D01*
X100068Y133859D01*
X100101Y133765D01*
X100146Y133681D01*
X100190Y133615D01*
X100224Y133565D01*
X100251Y133531D01*
X100262Y133520D01*
X100351Y133443D01*
X100446Y133387D01*
X100540Y133348D01*
X100629Y133320D01*
X100706Y133304D01*
X100768Y133298D01*
X100790Y133293D01*
X100823D01*
X100923Y133298D01*
X101017Y133320D01*
X101101Y133348D01*
X101167Y133382D01*
X101223Y133409D01*
X101267Y133437D01*
X101289Y133459D01*
X101300Y133465D01*
X101367Y133543D01*
X101422Y133631D01*
X101472Y133726D01*
X101511Y133826D01*
X101539Y133909D01*
X101550Y133948D01*
X101556Y133981D01*
X101561Y134009D01*
X101567Y134031D01*
X101572Y134042D01*
Y134048D01*
X102044Y133986D01*
X102033Y133898D01*
X102016Y133815D01*
X101966Y133659D01*
X101905Y133526D01*
X101872Y133470D01*
X101839Y133415D01*
X101805Y133365D01*
X101772Y133326D01*
X101744Y133287D01*
X101716Y133259D01*
X101700Y133237D01*
X101683Y133221D01*
X101672Y133210D01*
X101667Y133204D01*
X101600Y133154D01*
X101533Y133104D01*
X101467Y133065D01*
X101395Y133032D01*
X101256Y132976D01*
X101123Y132943D01*
X101062Y132932D01*
X101006Y132921D01*
X100956Y132915D01*
X100912Y132910D01*
X100879Y132904D01*
X100829D01*
X100723Y132910D01*
X100629Y132921D01*
X100534Y132938D01*
X100446Y132960D01*
X100362Y132987D01*
X100290Y133015D01*
X100218Y133049D01*
X100157Y133082D01*
X100096Y133110D01*
X100046Y133143D01*
X100002Y133171D01*
X99968Y133198D01*
X99941Y133221D01*
X99918Y133237D01*
X99907Y133248D01*
X99902Y133254D01*
X99835Y133320D01*
X99780Y133393D01*
X99730Y133465D01*
X99685Y133537D01*
X99652Y133604D01*
X99619Y133676D01*
X99574Y133809D01*
X99563Y133870D01*
X99552Y133925D01*
X99541Y133975D01*
X99535Y134020D01*
X99530Y134053D01*
Y134081D01*
Y134098D01*
Y134103D01*
X99535Y134236D01*
X99558Y134358D01*
X99591Y134464D01*
X99624Y134553D01*
X99657Y134625D01*
X99691Y134680D01*
X99713Y134714D01*
X99718Y134725D01*
X99796Y134808D01*
X99879Y134880D01*
X99968Y134936D01*
X100057Y134980D01*
X100135Y135013D01*
X100196Y135036D01*
X100218Y135041D01*
X100235Y135047D01*
X100246Y135052D01*
X100251D01*
X100157Y135102D01*
X100079Y135152D01*
X100013Y135207D01*
X99957Y135257D01*
X99913Y135302D01*
X99879Y135341D01*
X99863Y135363D01*
X99857Y135374D01*
X99813Y135452D01*
X99780Y135529D01*
X99752Y135607D01*
X99735Y135679D01*
X99724Y135740D01*
X99718Y135785D01*
Y135818D01*
Y135829D01*
X99724Y135924D01*
X99741Y136018D01*
X99763Y136101D01*
X99791Y136173D01*
X99818Y136234D01*
X99841Y136284D01*
X99857Y136312D01*
X99863Y136323D01*
X99918Y136406D01*
X99985Y136478D01*
X100051Y136539D01*
X100118Y136595D01*
X100174Y136634D01*
X100224Y136667D01*
X100257Y136684D01*
X100262Y136689D01*
X100268D01*
X100368Y136734D01*
X100468Y136767D01*
X100568Y136795D01*
X100656Y136811D01*
X100729Y136823D01*
X100790Y136828D01*
X100928D01*
X101006Y136817D01*
D02*
G37*
G36*
X105724Y132971D02*
X105213D01*
Y134675D01*
X104558D01*
X104497Y134669D01*
X104453D01*
X104414Y134664D01*
X104386Y134658D01*
X104364D01*
X104353Y134652D01*
X104347D01*
X104258Y134625D01*
X104220Y134608D01*
X104186Y134591D01*
X104153Y134575D01*
X104131Y134564D01*
X104120Y134558D01*
X104114Y134553D01*
X104070Y134519D01*
X104025Y134481D01*
X103942Y134397D01*
X103903Y134358D01*
X103876Y134325D01*
X103859Y134303D01*
X103853Y134297D01*
X103798Y134220D01*
X103737Y134136D01*
X103676Y134048D01*
X103615Y133964D01*
X103565Y133887D01*
X103526Y133826D01*
X103509Y133803D01*
X103498Y133787D01*
X103487Y133776D01*
Y133770D01*
X102982Y132971D01*
X102349D01*
X103010Y134014D01*
X103087Y134125D01*
X103159Y134225D01*
X103232Y134308D01*
X103293Y134386D01*
X103348Y134442D01*
X103393Y134486D01*
X103420Y134514D01*
X103431Y134525D01*
X103476Y134558D01*
X103526Y134597D01*
X103626Y134658D01*
X103670Y134680D01*
X103703Y134703D01*
X103726Y134714D01*
X103737Y134719D01*
X103637Y134736D01*
X103542Y134752D01*
X103459Y134780D01*
X103376Y134802D01*
X103304Y134830D01*
X103237Y134863D01*
X103176Y134891D01*
X103121Y134919D01*
X103076Y134952D01*
X103032Y134980D01*
X102999Y135002D01*
X102971Y135024D01*
X102949Y135041D01*
X102932Y135058D01*
X102926Y135063D01*
X102921Y135069D01*
X102876Y135124D01*
X102832Y135180D01*
X102766Y135296D01*
X102721Y135413D01*
X102688Y135524D01*
X102666Y135618D01*
X102660Y135657D01*
Y135696D01*
X102655Y135724D01*
Y135746D01*
Y135757D01*
Y135763D01*
X102660Y135879D01*
X102677Y135985D01*
X102704Y136084D01*
X102732Y136168D01*
X102766Y136240D01*
X102788Y136295D01*
X102810Y136329D01*
X102815Y136334D01*
Y136340D01*
X102882Y136428D01*
X102949Y136506D01*
X103021Y136573D01*
X103087Y136623D01*
X103148Y136662D01*
X103198Y136684D01*
X103232Y136700D01*
X103237Y136706D01*
X103243D01*
X103293Y136723D01*
X103354Y136739D01*
X103476Y136767D01*
X103609Y136784D01*
X103731Y136800D01*
X103848Y136806D01*
X103898D01*
X103942Y136811D01*
X105724D01*
Y132971D01*
D02*
G37*
G36*
X100694Y171570D02*
X100789Y171564D01*
X100877Y171548D01*
X100961Y171531D01*
X101038Y171509D01*
X101110Y171487D01*
X101177Y171459D01*
X101238Y171431D01*
X101294Y171403D01*
X101338Y171376D01*
X101377Y171353D01*
X101410Y171331D01*
X101438Y171315D01*
X101455Y171298D01*
X101466Y171292D01*
X101471Y171287D01*
X101527Y171231D01*
X101577Y171170D01*
X101627Y171104D01*
X101665Y171037D01*
X101732Y170904D01*
X101777Y170771D01*
X101793Y170710D01*
X101810Y170649D01*
X101821Y170599D01*
X101832Y170554D01*
X101838Y170515D01*
Y170488D01*
X101843Y170471D01*
Y170465D01*
X101360Y170415D01*
X101349Y170543D01*
X101327Y170654D01*
X101294Y170754D01*
X101255Y170832D01*
X101222Y170898D01*
X101188Y170943D01*
X101166Y170970D01*
X101155Y170982D01*
X101072Y171048D01*
X100983Y171098D01*
X100889Y171137D01*
X100805Y171159D01*
X100727Y171176D01*
X100661Y171181D01*
X100639Y171187D01*
X100605D01*
X100489Y171181D01*
X100383Y171159D01*
X100295Y171126D01*
X100217Y171092D01*
X100156Y171054D01*
X100117Y171026D01*
X100089Y171004D01*
X100078Y170993D01*
X100012Y170915D01*
X99962Y170837D01*
X99923Y170759D01*
X99901Y170682D01*
X99884Y170621D01*
X99878Y170565D01*
X99873Y170532D01*
Y170526D01*
Y170521D01*
X99884Y170421D01*
X99906Y170316D01*
X99945Y170221D01*
X99984Y170132D01*
X100028Y170060D01*
X100067Y169999D01*
X100078Y169977D01*
X100089Y169960D01*
X100100Y169955D01*
Y169949D01*
X100145Y169888D01*
X100200Y169827D01*
X100261Y169761D01*
X100328Y169694D01*
X100467Y169561D01*
X100605Y169428D01*
X100678Y169367D01*
X100739Y169311D01*
X100800Y169261D01*
X100850Y169217D01*
X100889Y169183D01*
X100922Y169156D01*
X100944Y169139D01*
X100950Y169133D01*
X101088Y169017D01*
X101216Y168906D01*
X101321Y168806D01*
X101405Y168723D01*
X101477Y168650D01*
X101527Y168601D01*
X101555Y168567D01*
X101566Y168562D01*
Y168556D01*
X101643Y168462D01*
X101704Y168373D01*
X101760Y168284D01*
X101804Y168207D01*
X101838Y168140D01*
X101860Y168090D01*
X101871Y168057D01*
X101876Y168051D01*
Y168046D01*
X101899Y167984D01*
X101910Y167929D01*
X101921Y167874D01*
X101926Y167824D01*
X101932Y167779D01*
Y167746D01*
Y167724D01*
Y167718D01*
X99384D01*
Y168173D01*
X101277D01*
X101210Y168268D01*
X101177Y168306D01*
X101149Y168345D01*
X101122Y168379D01*
X101099Y168401D01*
X101083Y168417D01*
X101077Y168423D01*
X101049Y168451D01*
X101016Y168479D01*
X100938Y168551D01*
X100850Y168634D01*
X100755Y168717D01*
X100666Y168789D01*
X100628Y168823D01*
X100594Y168856D01*
X100567Y168878D01*
X100544Y168895D01*
X100533Y168906D01*
X100528Y168911D01*
X100439Y168989D01*
X100350Y169061D01*
X100272Y169133D01*
X100200Y169194D01*
X100134Y169255D01*
X100078Y169311D01*
X100023Y169361D01*
X99978Y169405D01*
X99934Y169450D01*
X99901Y169483D01*
X99873Y169511D01*
X99845Y169538D01*
X99817Y169572D01*
X99806Y169583D01*
X99729Y169677D01*
X99662Y169761D01*
X99606Y169844D01*
X99562Y169910D01*
X99529Y169971D01*
X99506Y170016D01*
X99495Y170044D01*
X99490Y170055D01*
X99457Y170138D01*
X99434Y170221D01*
X99412Y170299D01*
X99401Y170366D01*
X99396Y170426D01*
X99390Y170471D01*
Y170499D01*
Y170510D01*
X99396Y170593D01*
X99407Y170671D01*
X99418Y170748D01*
X99440Y170815D01*
X99495Y170948D01*
X99551Y171054D01*
X99584Y171104D01*
X99612Y171142D01*
X99640Y171181D01*
X99668Y171209D01*
X99690Y171231D01*
X99701Y171254D01*
X99712Y171259D01*
X99717Y171265D01*
X99778Y171320D01*
X99845Y171370D01*
X99917Y171409D01*
X99989Y171442D01*
X100134Y171498D01*
X100278Y171537D01*
X100339Y171548D01*
X100400Y171559D01*
X100456Y171564D01*
X100500Y171570D01*
X100539Y171575D01*
X100594D01*
X100694Y171570D01*
D02*
G37*
G36*
X105539Y167718D02*
X105029D01*
Y169422D01*
X104374D01*
X104313Y169416D01*
X104268D01*
X104230Y169411D01*
X104202Y169405D01*
X104180D01*
X104168Y169400D01*
X104163D01*
X104074Y169372D01*
X104035Y169355D01*
X104002Y169339D01*
X103969Y169322D01*
X103946Y169311D01*
X103935Y169305D01*
X103930Y169300D01*
X103885Y169267D01*
X103841Y169228D01*
X103758Y169144D01*
X103719Y169106D01*
X103691Y169072D01*
X103675Y169050D01*
X103669Y169045D01*
X103613Y168967D01*
X103552Y168884D01*
X103491Y168795D01*
X103430Y168712D01*
X103380Y168634D01*
X103342Y168573D01*
X103325Y168551D01*
X103314Y168534D01*
X103303Y168523D01*
Y168517D01*
X102798Y167718D01*
X102165D01*
X102825Y168762D01*
X102903Y168872D01*
X102975Y168972D01*
X103047Y169056D01*
X103109Y169133D01*
X103164Y169189D01*
X103208Y169233D01*
X103236Y169261D01*
X103247Y169272D01*
X103292Y169305D01*
X103342Y169344D01*
X103442Y169405D01*
X103486Y169428D01*
X103519Y169450D01*
X103541Y169461D01*
X103552Y169466D01*
X103453Y169483D01*
X103358Y169500D01*
X103275Y169527D01*
X103192Y169550D01*
X103120Y169577D01*
X103053Y169611D01*
X102992Y169638D01*
X102936Y169666D01*
X102892Y169700D01*
X102848Y169727D01*
X102814Y169749D01*
X102787Y169772D01*
X102764Y169788D01*
X102748Y169805D01*
X102742Y169810D01*
X102737Y169816D01*
X102692Y169871D01*
X102648Y169927D01*
X102581Y170044D01*
X102537Y170160D01*
X102504Y170271D01*
X102481Y170366D01*
X102476Y170404D01*
Y170443D01*
X102470Y170471D01*
Y170493D01*
Y170504D01*
Y170510D01*
X102476Y170626D01*
X102492Y170732D01*
X102520Y170832D01*
X102548Y170915D01*
X102581Y170987D01*
X102603Y171043D01*
X102626Y171076D01*
X102631Y171081D01*
Y171087D01*
X102698Y171176D01*
X102764Y171254D01*
X102837Y171320D01*
X102903Y171370D01*
X102964Y171409D01*
X103014Y171431D01*
X103047Y171448D01*
X103053Y171453D01*
X103059D01*
X103109Y171470D01*
X103170Y171487D01*
X103292Y171514D01*
X103425Y171531D01*
X103547Y171548D01*
X103664Y171553D01*
X103713D01*
X103758Y171559D01*
X105539D01*
Y167718D01*
D02*
G37*
G36*
X101634Y210497D02*
X101695Y210408D01*
X101768Y210319D01*
X101834Y210241D01*
X101901Y210175D01*
X101951Y210119D01*
X101973Y210103D01*
X101989Y210086D01*
X101995Y210081D01*
X102001Y210075D01*
X102117Y209981D01*
X102234Y209892D01*
X102345Y209814D01*
X102456Y209753D01*
X102550Y209698D01*
X102589Y209675D01*
X102622Y209659D01*
X102650Y209642D01*
X102672Y209636D01*
X102683Y209625D01*
X102689D01*
Y209170D01*
X102605Y209204D01*
X102522Y209243D01*
X102439Y209281D01*
X102361Y209320D01*
X102295Y209353D01*
X102239Y209381D01*
X102206Y209403D01*
X102200Y209409D01*
X102195D01*
X102095Y209470D01*
X102006Y209531D01*
X101928Y209587D01*
X101867Y209636D01*
X101812Y209675D01*
X101779Y209709D01*
X101751Y209731D01*
X101745Y209736D01*
Y206734D01*
X101274D01*
Y210591D01*
X101579D01*
X101634Y210497D01*
D02*
G37*
G36*
X106724Y206734D02*
X106213D01*
Y208438D01*
X105558D01*
X105497Y208432D01*
X105453D01*
X105414Y208427D01*
X105386Y208421D01*
X105364D01*
X105353Y208416D01*
X105347D01*
X105258Y208388D01*
X105220Y208371D01*
X105186Y208354D01*
X105153Y208338D01*
X105131Y208327D01*
X105120Y208321D01*
X105114Y208316D01*
X105070Y208282D01*
X105025Y208243D01*
X104942Y208160D01*
X104903Y208121D01*
X104876Y208088D01*
X104859Y208066D01*
X104853Y208060D01*
X104798Y207983D01*
X104737Y207899D01*
X104676Y207811D01*
X104615Y207727D01*
X104565Y207650D01*
X104526Y207589D01*
X104509Y207566D01*
X104498Y207550D01*
X104487Y207539D01*
Y207533D01*
X103982Y206734D01*
X103349D01*
X104010Y207777D01*
X104087Y207888D01*
X104159Y207988D01*
X104232Y208071D01*
X104293Y208149D01*
X104348Y208205D01*
X104393Y208249D01*
X104420Y208277D01*
X104431Y208288D01*
X104476Y208321D01*
X104526Y208360D01*
X104626Y208421D01*
X104670Y208443D01*
X104703Y208466D01*
X104726Y208476D01*
X104737Y208482D01*
X104637Y208499D01*
X104543Y208515D01*
X104459Y208543D01*
X104376Y208565D01*
X104304Y208593D01*
X104237Y208626D01*
X104176Y208654D01*
X104121Y208682D01*
X104076Y208715D01*
X104032Y208743D01*
X103999Y208765D01*
X103971Y208787D01*
X103949Y208804D01*
X103932Y208821D01*
X103926Y208826D01*
X103921Y208832D01*
X103876Y208887D01*
X103832Y208943D01*
X103765Y209059D01*
X103721Y209176D01*
X103688Y209287D01*
X103666Y209381D01*
X103660Y209420D01*
Y209459D01*
X103655Y209487D01*
Y209509D01*
Y209520D01*
Y209525D01*
X103660Y209642D01*
X103677Y209748D01*
X103704Y209847D01*
X103732Y209931D01*
X103765Y210003D01*
X103788Y210058D01*
X103810Y210092D01*
X103815Y210097D01*
Y210103D01*
X103882Y210191D01*
X103949Y210269D01*
X104021Y210336D01*
X104087Y210386D01*
X104148Y210425D01*
X104198Y210447D01*
X104232Y210464D01*
X104237Y210469D01*
X104243D01*
X104293Y210486D01*
X104354Y210502D01*
X104476Y210530D01*
X104609Y210547D01*
X104731Y210563D01*
X104848Y210569D01*
X104898D01*
X104942Y210574D01*
X106724D01*
Y206734D01*
D02*
G37*
G36*
X114120Y53211D02*
X114225Y53199D01*
X114325Y53189D01*
X114419Y53166D01*
X114508Y53139D01*
X114591Y53111D01*
X114669Y53083D01*
X114741Y53050D01*
X114802Y53022D01*
X114863Y52994D01*
X114908Y52966D01*
X114952Y52939D01*
X114980Y52917D01*
X115007Y52905D01*
X115019Y52894D01*
X115024Y52889D01*
X115102Y52822D01*
X115168Y52756D01*
X115229Y52678D01*
X115290Y52600D01*
X115390Y52445D01*
X115468Y52289D01*
X115501Y52217D01*
X115529Y52151D01*
X115551Y52090D01*
X115568Y52040D01*
X115585Y51995D01*
X115596Y51962D01*
X115601Y51940D01*
Y51934D01*
X115091Y51806D01*
X115068Y51895D01*
X115041Y51978D01*
X115013Y52056D01*
X114985Y52128D01*
X114952Y52195D01*
X114919Y52250D01*
X114880Y52306D01*
X114847Y52356D01*
X114819Y52400D01*
X114786Y52434D01*
X114758Y52467D01*
X114735Y52495D01*
X114713Y52511D01*
X114697Y52528D01*
X114691Y52534D01*
X114686Y52539D01*
X114630Y52583D01*
X114569Y52617D01*
X114447Y52678D01*
X114330Y52722D01*
X114214Y52750D01*
X114114Y52772D01*
X114075Y52778D01*
X114036D01*
X114003Y52783D01*
X113964D01*
X113836Y52778D01*
X113714Y52756D01*
X113603Y52728D01*
X113503Y52694D01*
X113426Y52661D01*
X113392Y52645D01*
X113365Y52634D01*
X113342Y52622D01*
X113326Y52611D01*
X113315Y52606D01*
X113309D01*
X113204Y52528D01*
X113115Y52445D01*
X113037Y52350D01*
X112976Y52262D01*
X112926Y52184D01*
X112893Y52117D01*
X112882Y52090D01*
X112871Y52073D01*
X112865Y52062D01*
Y52056D01*
X112821Y51912D01*
X112787Y51768D01*
X112760Y51623D01*
X112743Y51490D01*
X112738Y51429D01*
X112732Y51374D01*
Y51324D01*
X112726Y51285D01*
Y51252D01*
Y51224D01*
Y51207D01*
Y51201D01*
X112732Y51057D01*
X112743Y50924D01*
X112765Y50802D01*
X112787Y50691D01*
X112804Y50597D01*
X112815Y50558D01*
X112826Y50524D01*
X112832Y50497D01*
X112837Y50480D01*
X112843Y50469D01*
Y50463D01*
X112899Y50336D01*
X112960Y50219D01*
X113026Y50125D01*
X113098Y50042D01*
X113159Y49975D01*
X113209Y49931D01*
X113248Y49903D01*
X113254Y49892D01*
X113259D01*
X113376Y49820D01*
X113503Y49764D01*
X113626Y49725D01*
X113742Y49703D01*
X113847Y49686D01*
X113892Y49681D01*
X113931D01*
X113959Y49675D01*
X114003D01*
X114142Y49681D01*
X114269Y49703D01*
X114375Y49736D01*
X114469Y49770D01*
X114541Y49808D01*
X114597Y49836D01*
X114630Y49858D01*
X114641Y49869D01*
X114730Y49953D01*
X114813Y50047D01*
X114880Y50147D01*
X114935Y50247D01*
X114980Y50336D01*
X114996Y50380D01*
X115007Y50414D01*
X115019Y50441D01*
X115030Y50463D01*
X115035Y50475D01*
Y50480D01*
X115535Y50363D01*
X115501Y50264D01*
X115468Y50175D01*
X115424Y50092D01*
X115385Y50008D01*
X115340Y49936D01*
X115290Y49869D01*
X115246Y49803D01*
X115202Y49747D01*
X115157Y49703D01*
X115119Y49659D01*
X115080Y49620D01*
X115052Y49592D01*
X115024Y49564D01*
X115002Y49548D01*
X114991Y49542D01*
X114985Y49536D01*
X114908Y49487D01*
X114830Y49437D01*
X114752Y49398D01*
X114669Y49365D01*
X114502Y49315D01*
X114353Y49281D01*
X114280Y49265D01*
X114219Y49259D01*
X114158Y49253D01*
X114108Y49248D01*
X114069Y49242D01*
X114014D01*
X113831Y49253D01*
X113653Y49281D01*
X113498Y49315D01*
X113426Y49337D01*
X113359Y49359D01*
X113298Y49381D01*
X113243Y49403D01*
X113198Y49420D01*
X113154Y49437D01*
X113126Y49453D01*
X113104Y49464D01*
X113087Y49470D01*
X113082Y49475D01*
X112932Y49570D01*
X112804Y49681D01*
X112693Y49792D01*
X112599Y49903D01*
X112527Y50003D01*
X112499Y50047D01*
X112477Y50086D01*
X112454Y50114D01*
X112443Y50136D01*
X112438Y50153D01*
X112432Y50158D01*
X112355Y50330D01*
X112299Y50508D01*
X112260Y50685D01*
X112232Y50846D01*
X112221Y50919D01*
X112216Y50991D01*
X112210Y51046D01*
Y51102D01*
X112205Y51140D01*
Y51174D01*
Y51196D01*
Y51201D01*
X112216Y51401D01*
X112238Y51596D01*
X112266Y51768D01*
X112288Y51851D01*
X112305Y51923D01*
X112321Y51990D01*
X112344Y52051D01*
X112360Y52106D01*
X112371Y52151D01*
X112388Y52184D01*
X112393Y52212D01*
X112405Y52228D01*
Y52234D01*
X112488Y52400D01*
X112582Y52550D01*
X112682Y52678D01*
X112732Y52728D01*
X112776Y52778D01*
X112821Y52822D01*
X112865Y52861D01*
X112904Y52894D01*
X112937Y52917D01*
X112960Y52939D01*
X112982Y52955D01*
X112993Y52961D01*
X112998Y52966D01*
X113076Y53011D01*
X113154Y53050D01*
X113320Y53111D01*
X113487Y53155D01*
X113648Y53183D01*
X113725Y53194D01*
X113792Y53205D01*
X113853Y53211D01*
X113903D01*
X113947Y53216D01*
X114008D01*
X114120Y53211D01*
D02*
G37*
G36*
X117105Y52939D02*
X117133Y52744D01*
X117161Y52567D01*
X117177Y52484D01*
X117194Y52406D01*
X117205Y52339D01*
X117222Y52278D01*
X117233Y52223D01*
X117244Y52178D01*
X117255Y52145D01*
X117261Y52117D01*
X117266Y52101D01*
Y52095D01*
X117350Y51840D01*
X117438Y51601D01*
X117483Y51485D01*
X117527Y51374D01*
X117577Y51274D01*
X117622Y51174D01*
X117660Y51085D01*
X117699Y51007D01*
X117733Y50941D01*
X117760Y50880D01*
X117788Y50830D01*
X117805Y50796D01*
X117816Y50774D01*
X117821Y50769D01*
X117888Y50652D01*
X117955Y50536D01*
X118021Y50430D01*
X118088Y50330D01*
X118149Y50241D01*
X118210Y50153D01*
X118271Y50075D01*
X118321Y50008D01*
X118371Y49942D01*
X118415Y49886D01*
X118460Y49842D01*
X118493Y49803D01*
X118515Y49770D01*
X118537Y49747D01*
X118548Y49736D01*
X118554Y49731D01*
Y49359D01*
X116068D01*
Y49814D01*
X117949D01*
X117816Y49975D01*
X117688Y50147D01*
X117577Y50314D01*
X117472Y50475D01*
X117427Y50547D01*
X117388Y50613D01*
X117350Y50674D01*
X117322Y50724D01*
X117300Y50769D01*
X117283Y50796D01*
X117272Y50819D01*
X117266Y50824D01*
X117155Y51046D01*
X117055Y51268D01*
X116972Y51479D01*
X116939Y51573D01*
X116906Y51668D01*
X116872Y51751D01*
X116850Y51829D01*
X116828Y51895D01*
X116811Y51951D01*
X116795Y52001D01*
X116783Y52034D01*
X116778Y52056D01*
Y52062D01*
X116722Y52289D01*
X116700Y52400D01*
X116684Y52500D01*
X116667Y52595D01*
X116650Y52689D01*
X116639Y52767D01*
X116628Y52844D01*
X116622Y52911D01*
X116617Y52972D01*
X116611Y53027D01*
Y53072D01*
X116606Y53105D01*
Y53127D01*
Y53144D01*
Y53150D01*
X117089D01*
X117105Y52939D01*
D02*
G37*
%LPC*%
G36*
X17847Y216378D02*
X16959D01*
Y213447D01*
X17869D01*
X17908Y213453D01*
X17991Y213458D01*
X18086Y213464D01*
X18186Y213475D01*
X18285Y213492D01*
X18369Y213514D01*
X18380Y213519D01*
X18408Y213525D01*
X18446Y213542D01*
X18496Y213564D01*
X18552Y213597D01*
X18607Y213630D01*
X18663Y213669D01*
X18718Y213714D01*
X18724Y213725D01*
X18746Y213747D01*
X18779Y213786D01*
X18818Y213841D01*
X18863Y213913D01*
X18913Y213997D01*
X18957Y214091D01*
X18996Y214196D01*
Y214202D01*
X19001Y214213D01*
X19007Y214230D01*
X19013Y214252D01*
X19018Y214280D01*
X19029Y214319D01*
X19040Y214357D01*
X19051Y214402D01*
X19068Y214513D01*
X19085Y214640D01*
X19096Y214785D01*
X19101Y214940D01*
Y214946D01*
Y214968D01*
Y214996D01*
X19096Y215040D01*
Y215090D01*
X19090Y215145D01*
X19085Y215212D01*
X19079Y215279D01*
X19051Y215429D01*
X19018Y215584D01*
X18968Y215728D01*
X18935Y215800D01*
X18902Y215862D01*
Y215867D01*
X18890Y215878D01*
X18879Y215895D01*
X18868Y215917D01*
X18824Y215972D01*
X18768Y216039D01*
X18696Y216111D01*
X18613Y216183D01*
X18519Y216244D01*
X18419Y216294D01*
X18408Y216300D01*
X18380Y216305D01*
X18330Y216322D01*
X18258Y216339D01*
X18169Y216350D01*
X18058Y216367D01*
X17991Y216372D01*
X17919D01*
X17847Y216378D01*
D02*
G37*
G36*
X97579Y66362D02*
X97546D01*
X97430Y66351D01*
X97324Y66324D01*
X97235Y66290D01*
X97158Y66246D01*
X97097Y66201D01*
X97052Y66168D01*
X97025Y66140D01*
X97013Y66129D01*
X96941Y66035D01*
X96886Y65935D01*
X96847Y65829D01*
X96825Y65730D01*
X96808Y65641D01*
X96803Y65602D01*
Y65569D01*
X96797Y65541D01*
Y65519D01*
Y65508D01*
Y65502D01*
X96808Y65352D01*
X96830Y65225D01*
X96864Y65114D01*
X96902Y65019D01*
X96947Y64947D01*
X96980Y64892D01*
X97002Y64858D01*
X97013Y64853D01*
Y64847D01*
X97052Y64803D01*
X97097Y64770D01*
X97185Y64708D01*
X97274Y64670D01*
X97352Y64636D01*
X97424Y64620D01*
X97480Y64614D01*
X97502Y64609D01*
X97530D01*
X97607Y64614D01*
X97679Y64625D01*
X97746Y64647D01*
X97802Y64670D01*
X97851Y64686D01*
X97890Y64708D01*
X97913Y64719D01*
X97924Y64725D01*
X97990Y64775D01*
X98046Y64825D01*
X98096Y64886D01*
X98134Y64936D01*
X98168Y64986D01*
X98190Y65025D01*
X98207Y65052D01*
X98212Y65064D01*
X98246Y65147D01*
X98268Y65230D01*
X98290Y65308D01*
X98301Y65380D01*
X98307Y65441D01*
X98312Y65491D01*
Y65519D01*
Y65530D01*
X98301Y65663D01*
X98279Y65780D01*
X98240Y65885D01*
X98201Y65968D01*
X98162Y66040D01*
X98123Y66090D01*
X98101Y66118D01*
X98090Y66129D01*
X98001Y66207D01*
X97913Y66262D01*
X97818Y66307D01*
X97735Y66335D01*
X97657Y66351D01*
X97602Y66357D01*
X97579Y66362D01*
D02*
G37*
G36*
X101997Y67700D02*
X100787D01*
X100637Y67694D01*
X100510Y67672D01*
X100399Y67644D01*
X100316Y67611D01*
X100243Y67578D01*
X100199Y67550D01*
X100171Y67528D01*
X100160Y67522D01*
X100094Y67450D01*
X100044Y67378D01*
X100010Y67300D01*
X99983Y67234D01*
X99971Y67167D01*
X99966Y67117D01*
X99960Y67084D01*
Y67078D01*
Y67073D01*
X99966Y67006D01*
X99977Y66940D01*
X99994Y66884D01*
X100010Y66834D01*
X100033Y66790D01*
X100049Y66756D01*
X100060Y66734D01*
X100066Y66729D01*
X100105Y66673D01*
X100155Y66623D01*
X100205Y66584D01*
X100255Y66551D01*
X100299Y66529D01*
X100332Y66512D01*
X100355Y66501D01*
X100366Y66496D01*
X100443Y66473D01*
X100532Y66457D01*
X100621Y66446D01*
X100710Y66440D01*
X100787Y66435D01*
X100854Y66429D01*
X101997D01*
Y67700D01*
D02*
G37*
G36*
X68497D02*
X67287D01*
X67137Y67694D01*
X67010Y67672D01*
X66899Y67644D01*
X66816Y67611D01*
X66743Y67578D01*
X66699Y67550D01*
X66671Y67528D01*
X66660Y67522D01*
X66594Y67450D01*
X66544Y67378D01*
X66510Y67300D01*
X66483Y67234D01*
X66471Y67167D01*
X66466Y67117D01*
X66460Y67084D01*
Y67078D01*
Y67073D01*
X66466Y67006D01*
X66477Y66940D01*
X66494Y66884D01*
X66510Y66834D01*
X66533Y66790D01*
X66549Y66756D01*
X66560Y66734D01*
X66566Y66729D01*
X66605Y66673D01*
X66655Y66623D01*
X66705Y66584D01*
X66755Y66551D01*
X66799Y66529D01*
X66832Y66512D01*
X66855Y66501D01*
X66866Y66496D01*
X66943Y66473D01*
X67032Y66457D01*
X67121Y66446D01*
X67210Y66440D01*
X67287Y66435D01*
X67354Y66429D01*
X68497D01*
Y67700D01*
D02*
G37*
G36*
X34997Y67600D02*
X33787D01*
X33637Y67594D01*
X33510Y67572D01*
X33399Y67544D01*
X33316Y67511D01*
X33244Y67478D01*
X33199Y67450D01*
X33171Y67428D01*
X33160Y67422D01*
X33094Y67350D01*
X33044Y67278D01*
X33010Y67200D01*
X32983Y67134D01*
X32972Y67067D01*
X32966Y67017D01*
X32960Y66984D01*
Y66978D01*
Y66973D01*
X32966Y66906D01*
X32977Y66839D01*
X32994Y66784D01*
X33010Y66734D01*
X33033Y66690D01*
X33049Y66656D01*
X33060Y66634D01*
X33066Y66629D01*
X33105Y66573D01*
X33155Y66523D01*
X33205Y66484D01*
X33255Y66451D01*
X33299Y66429D01*
X33332Y66412D01*
X33354Y66401D01*
X33366Y66395D01*
X33443Y66373D01*
X33532Y66357D01*
X33621Y66346D01*
X33710Y66340D01*
X33787Y66334D01*
X33854Y66329D01*
X34997D01*
Y67600D01*
D02*
G37*
G36*
X30324Y67261D02*
Y65541D01*
X31534D01*
X30324Y67261D01*
D02*
G37*
G36*
X105213Y136384D02*
X104003D01*
X103853Y136379D01*
X103726Y136356D01*
X103615Y136329D01*
X103531Y136295D01*
X103459Y136262D01*
X103415Y136234D01*
X103387Y136212D01*
X103376Y136206D01*
X103309Y136134D01*
X103259Y136062D01*
X103226Y135985D01*
X103198Y135918D01*
X103187Y135851D01*
X103182Y135801D01*
X103176Y135768D01*
Y135763D01*
Y135757D01*
X103182Y135690D01*
X103193Y135624D01*
X103209Y135568D01*
X103226Y135518D01*
X103248Y135474D01*
X103265Y135441D01*
X103276Y135418D01*
X103282Y135413D01*
X103321Y135357D01*
X103370Y135307D01*
X103420Y135269D01*
X103470Y135235D01*
X103515Y135213D01*
X103548Y135196D01*
X103570Y135185D01*
X103581Y135180D01*
X103659Y135158D01*
X103748Y135141D01*
X103837Y135130D01*
X103925Y135124D01*
X104003Y135119D01*
X104070Y135113D01*
X105213D01*
Y136384D01*
D02*
G37*
G36*
X105029Y171131D02*
X103819D01*
X103669Y171126D01*
X103541Y171104D01*
X103430Y171076D01*
X103347Y171043D01*
X103275Y171009D01*
X103231Y170982D01*
X103203Y170959D01*
X103192Y170954D01*
X103125Y170882D01*
X103075Y170809D01*
X103042Y170732D01*
X103014Y170665D01*
X103003Y170599D01*
X102998Y170549D01*
X102992Y170515D01*
Y170510D01*
Y170504D01*
X102998Y170438D01*
X103009Y170371D01*
X103025Y170316D01*
X103042Y170266D01*
X103064Y170221D01*
X103081Y170188D01*
X103092Y170166D01*
X103097Y170160D01*
X103136Y170105D01*
X103186Y170055D01*
X103236Y170016D01*
X103286Y169983D01*
X103331Y169960D01*
X103364Y169944D01*
X103386Y169933D01*
X103397Y169927D01*
X103475Y169905D01*
X103564Y169888D01*
X103652Y169877D01*
X103741Y169871D01*
X103819Y169866D01*
X103885Y169860D01*
X105029D01*
Y171131D01*
D02*
G37*
G36*
X106213Y210147D02*
X105003D01*
X104853Y210142D01*
X104726Y210119D01*
X104615Y210092D01*
X104531Y210058D01*
X104459Y210025D01*
X104415Y209997D01*
X104387Y209975D01*
X104376Y209969D01*
X104309Y209897D01*
X104259Y209825D01*
X104226Y209748D01*
X104198Y209681D01*
X104187Y209614D01*
X104182Y209564D01*
X104176Y209531D01*
Y209525D01*
Y209520D01*
X104182Y209453D01*
X104193Y209387D01*
X104209Y209331D01*
X104226Y209281D01*
X104248Y209237D01*
X104265Y209204D01*
X104276Y209181D01*
X104282Y209176D01*
X104321Y209120D01*
X104370Y209070D01*
X104420Y209032D01*
X104470Y208998D01*
X104515Y208976D01*
X104548Y208959D01*
X104570Y208948D01*
X104581Y208943D01*
X104659Y208921D01*
X104748Y208904D01*
X104837Y208893D01*
X104925Y208887D01*
X105003Y208882D01*
X105070Y208876D01*
X106213D01*
Y210147D01*
D02*
G37*
%LPD*%
D11*
X13681Y39370D02*
X33563D01*
X47146Y39370D02*
X67027D01*
X80610Y39370D02*
X100492D01*
X109252Y64567D02*
X123031D01*
X106890Y53543D02*
X123031D01*
X104724Y125197D02*
Y126772D01*
X101969Y125197D02*
Y126772D01*
X103543Y162008D02*
X105118D01*
X103543Y164764D02*
X105118D01*
X102953Y199016D02*
Y200591D01*
X105709Y199016D02*
Y200591D01*
D13*
X111221Y151652D02*
X107222Y147653D01*
X111221D02*
X107222Y151652D01*
X111221Y149653D02*
X107222D01*
X109221Y147653D02*
Y151652D01*
X100602Y116801D02*
X96604Y112802D01*
X100602D02*
X96604Y116801D01*
X100602Y114801D02*
X96604D01*
X98603Y112802D02*
Y116801D01*
X100420Y195543D02*
X96421Y191545D01*
X100420D02*
X96421Y195543D01*
X100420Y193544D02*
X96421D01*
X98420Y191545D02*
Y195543D01*
X127953Y0D02*
Y236221D01*
X5906Y0D02*
X127953D01*
X5906D02*
Y236221D01*
X127953D01*
M02*
