%FSTAX23Y23*%
%MOIN*%
%SFA1B1*%

%IPPOS*%
%AMD20*
4,1,8,-0.001800,-0.011800,0.001800,-0.011800,0.005900,-0.007700,0.005900,0.007700,0.001800,0.011800,-0.001800,0.011800,-0.005900,0.007700,-0.005900,-0.007700,-0.001800,-0.011800,0.0*
1,1,0.008260,-0.001800,-0.007700*
1,1,0.008260,0.001800,-0.007700*
1,1,0.008260,0.001800,0.007700*
1,1,0.008260,-0.001800,0.007700*
%
%ADD10C,0.009840*%
%ADD13C,0.010000*%
%ADD14R,0.025590X0.025200*%
%ADD15R,0.033470X0.039370*%
%ADD16R,0.017720X0.057090*%
%ADD17R,0.027560X0.035430*%
%ADD18R,0.051580X0.021650*%
%ADD19R,0.011810X0.027560*%
G04~CAMADD=20~8~0.0~0.0~118.1~236.2~41.3~0.0~15~0.0~0.0~0.0~0.0~0~0.0~0.0~0.0~0.0~0~0.0~0.0~0.0~180.0~118.0~237.0*
%ADD20D20*%
%ADD21O,0.011810X0.023620*%
%ADD22R,0.066930X0.043310*%
%ADD23R,0.051180X0.027560*%
%ADD24R,0.033470X0.043310*%
%ADD25R,0.043310X0.066930*%
%ADD26R,0.027560X0.051180*%
%ADD27R,0.043310X0.033470*%
%ADD28R,0.024410X0.071650*%
%ADD29R,0.025200X0.025590*%
%ADD30R,0.035430X0.027560*%
%ADD53C,0.023620*%
%ADD54C,0.005910*%
%ADD55C,0.039370*%
%ADD56C,0.015000*%
%ADD57C,0.031500*%
%ADD58C,0.047240*%
%ADD59R,0.047240X0.047240*%
%ADD60C,0.023620*%
%ADD61C,0.028000*%
%ADD62C,0.050000*%
%LNpcb1-1*%
%LPD*%
G36*
X00945Y02063D02*
X00944Y02063D01*
X00942Y02064*
X00941Y02064*
X00933Y02064*
X00916Y02064*
X00914Y02088*
X00917Y02088*
X00919Y02088*
X00922Y02089*
X00924Y02089*
X00925Y0209*
X00927Y02091*
X00928Y02092*
X00929Y02093*
X0093Y02094*
X00931Y02095*
X00945Y02063*
G37*
G36*
X00872Y0209D02*
X00872Y02089D01*
X00874Y02089*
X00875Y02089*
X0088Y02088*
X00895Y02088*
Y02064*
X00891Y02064*
X00872Y02063*
X00872Y02063*
X00871Y02063*
Y0209*
X00872Y0209*
G37*
G36*
X00399Y01965D02*
X00397Y01965D01*
X00395Y01965*
X00392Y01964*
X0039Y01963*
X00387Y01961*
X00384Y01959*
X00381Y01957*
X00375Y01952*
X00372Y01948*
X00355Y01965*
X0036Y0197*
X00367Y01978*
X00369Y01982*
X00371Y01986*
X00373Y01989*
X00373Y01992*
X00374Y01994*
X00373Y01997*
X00372Y01999*
X00399Y01965*
G37*
G36*
X01202Y02014D02*
X01212Y02005D01*
X01217Y02002*
X01222Y01998*
X01227Y01996*
X01231Y01994*
X01235Y01993*
X0124Y01992*
X01243Y01992*
X01196Y01945*
X01196Y01948*
X01195Y01953*
X01194Y01957*
X01192Y01961*
X0119Y01966*
X01186Y01971*
X01183Y01976*
X01179Y01981*
X01169Y01992*
X01196Y02019*
X01202Y02014*
G37*
G36*
X00252Y01925D02*
X0025Y01926D01*
X00247Y01927*
X00245Y01926*
X00242Y01926*
X00239Y01924*
X00235Y01922*
X00231Y0192*
X00227Y01917*
X00223Y01913*
X00218Y01908*
X00201Y01925*
X00205Y01928*
X0021Y01934*
X00212Y01937*
X00214Y0194*
X00215Y01943*
X00217Y01945*
X00217Y01948*
X00218Y0195*
X00218Y01952*
X00252Y01925*
G37*
G36*
X00777Y02047D02*
X00935D01*
Y01889*
X00757*
X00738Y0187*
X00629*
Y02116*
X00708*
X00777Y02047*
G37*
G36*
X0015Y01827D02*
X00149Y01825D01*
X00146Y01821*
X00145Y0182*
X00144Y01818*
X00143Y01816*
X00142Y01815*
X00142Y01814*
X00141Y01812*
X00141Y01811*
X00118Y01834*
X00119Y01834*
X00121Y01834*
X00122Y01835*
X00124Y01836*
X00125Y01836*
X00127Y01837*
X00128Y01839*
X0013Y0184*
X00134Y01843*
X0015Y01827*
G37*
G36*
X00313Y01779D02*
X00285D01*
Y01803*
X00313*
Y01779*
G37*
G36*
X00151Y01742D02*
X00149Y0174D01*
X00145Y01735*
X00144Y01734*
X00142Y01731*
X00142Y0173*
X00141Y01729*
X00141Y01728*
X00122Y01755*
X00124Y01755*
X00125Y01755*
X00127Y01755*
X00128Y01756*
X0013Y01756*
X00131Y01757*
X00133Y01758*
X00135Y0176*
X00137Y01761*
X00138Y01763*
X00151Y01742*
G37*
G36*
X00271Y01704D02*
X00271Y01705D01*
X0027Y01706*
X00269Y01707*
X00267Y01708*
X00265Y01709*
X00263Y01709*
X0026Y0171*
X00252Y0171*
X00248Y0171*
Y01734*
X00252Y01734*
X00263Y01735*
X00265Y01735*
X00267Y01736*
X00269Y01737*
X0027Y01737*
X00271Y01738*
X00271Y0174*
Y01704*
G37*
G36*
X00356Y01736D02*
X00356Y01733D01*
X00356Y01731*
X00357Y01728*
X00358Y01725*
X0036Y01721*
X00363Y01718*
X00366Y01713*
X0037Y01709*
X00374Y01704*
X00358Y01688*
X00354Y01691*
X00348Y01696*
X00345Y01698*
X00342Y017*
X0034Y01702*
X00337Y01703*
X00335Y01704*
X00333Y01704*
X0033Y01704*
X00358Y01738*
X00356Y01736*
G37*
G36*
X00275Y01665D02*
X00276Y01665D01*
X00277Y01665*
X00285Y01665*
X00296Y01665*
X00324*
Y01641*
X00296*
X00275Y01641*
Y01666*
X00275Y01665*
G37*
G36*
X00925Y01591D02*
X00924Y01591D01*
X00923Y01591*
X00922Y01591*
X00919Y01592*
X00915Y01592*
X00907Y01592*
X00895Y01615*
Y01592*
X00891Y01592*
X00872Y01591*
X00872Y01591*
X00871Y0159*
Y01617*
X00872Y01617*
X00872Y01617*
X00874Y01617*
X00875Y01616*
X0088Y01616*
X00895Y01616*
X00897Y01616*
X009Y01616*
X00902Y01616*
X00904Y01617*
X00906Y01617*
X00907Y01618*
X00909Y01619*
X0091Y0162*
X00911Y01621*
X00911Y01623*
X00925Y01591*
G37*
G36*
X00135Y01591D02*
X00135Y01591D01*
X00136Y0159*
X00139Y0159*
X00147Y0159*
X00149Y0159*
Y01559*
X00134Y01558*
Y01591*
X00135Y01591*
G37*
G36*
X00395Y01532D02*
X00396Y01514D01*
X00397Y01513*
X00397Y01513*
X0037*
X0037Y01513*
X0037Y01514*
X00371Y01515*
X00371Y01517*
X00371Y01522*
X00372Y01537*
X00395*
X00395Y01532*
G37*
G36*
X00135Y01511D02*
X00137Y0151D01*
X00138Y0151*
X0014Y01509*
X00141Y01509*
X00143Y01508*
X00145Y01508*
X00147Y01508*
X00152Y01507*
Y01484*
X0015Y01484*
X00145Y01483*
X00143Y01483*
X00141Y01483*
X0014Y01482*
X00138Y01481*
X00137Y01481*
X00135Y0148*
X00134Y01479*
Y01512*
X00135Y01511*
G37*
G36*
Y01432D02*
X00137Y01432D01*
X00138Y01431*
X0014Y0143*
X00141Y0143*
X00143Y01429*
X00145Y01429*
X00147Y01429*
X00152Y01429*
Y01405*
X0015Y01405*
X00145Y01405*
X00143Y01404*
X00141Y01404*
X0014Y01403*
X00138Y01403*
X00137Y01402*
X00135Y01401*
X00134Y014*
Y01433*
X00135Y01432*
G37*
G36*
X00757Y01574D02*
X00935D01*
Y01417*
X00748*
X00698Y01368*
X0062*
Y01624*
X00708*
X00757Y01574*
G37*
G36*
X00141Y01341D02*
X00142Y0134D01*
X00142Y01339*
X00143Y01337*
X00144Y01336*
X00146Y01333*
X00148Y01331*
X00151Y01328*
X00138Y01307*
X00137Y01309*
X00133Y01312*
X00131Y01313*
X0013Y01314*
X00128Y01314*
X00127Y01315*
X00125Y01315*
X00124Y01315*
X00122Y01315*
X00141Y01342*
X00141Y01341*
G37*
G36*
X0122Y01314D02*
X01217Y01314D01*
X01215Y01314*
X01213Y01314*
X0121Y01313*
X01208Y01313*
X01206Y01312*
X01204Y01311*
X01203Y0131*
X01201Y01308*
X01199Y01307*
X01189Y01318*
X0119Y01319*
X01192Y01321*
X01193Y01323*
X01194Y01324*
X01195Y01326*
X01195Y01329*
X01196Y01331*
X01196Y01333*
X01196Y01335*
X01196Y01338*
X0122Y01314*
G37*
G36*
X00297Y01267D02*
X00298Y01248D01*
X00298Y01248*
X00299Y01247*
X00271*
X00272Y01248*
X00272Y01248*
X00272Y0125*
X00272Y01251*
X00273Y01256*
X00273Y01271*
X00297*
X00297Y01267*
G37*
G36*
X00141Y01254D02*
X00141Y01253D01*
X00141Y01251*
X00142Y0125*
X00142Y01248*
X00143Y01246*
X00144Y01245*
X00146Y01243*
X00147Y01241*
X00149Y01239*
X00129Y01226*
X00127Y01228*
X00122Y01232*
X00121Y01233*
X00119Y01234*
X00118Y01235*
X00117Y01235*
X00115Y01236*
X00114Y01236*
X00141Y01255*
X00141Y01254*
G37*
G36*
X00324Y01149D02*
X00296D01*
Y01173*
X00324*
Y01149*
G37*
G36*
X00141Y01179D02*
X00142Y01178D01*
X00142Y01176*
X00143Y01175*
X00144Y01173*
X00145Y01171*
X00146Y0117*
X00147Y01168*
X0015Y01164*
X00134Y01148*
X00132Y0115*
X00128Y01152*
X00127Y01154*
X00125Y01155*
X00124Y01156*
X00122Y01156*
X00121Y01157*
X00119Y01157*
X00118Y01157*
X00141Y0118*
X00141Y01179*
G37*
G36*
X00133Y01084D02*
X00132Y01083D01*
X00132Y01081*
X00131Y0108*
X00131Y01078*
X0013Y01076*
X0013Y01074*
X0013Y01072*
X00129Y01067*
X00106*
X00106Y0107*
X00105Y01074*
X00105Y01076*
X00105Y01078*
X00104Y0108*
X00103Y01081*
X00103Y01083*
X00102Y01084*
X00101Y01085*
X00134*
X00133Y01084*
G37*
G36*
X00397Y01022D02*
X0037D01*
X00371Y01022*
X00372Y01023*
X00373Y01024*
X00374Y01026*
X00374Y01028*
X00375Y01031*
X00375Y01034*
X00376Y01041*
X00376Y01046*
X00399*
X00397Y01022*
G37*
G36*
X0058Y00905D02*
X00413D01*
Y00915*
X00411Y00916*
X00408Y00916*
X00405Y00916*
X00398Y00917*
X00393Y00917*
Y0094*
X00398Y0094*
X00408Y00941*
X00411Y00942*
X00413Y00942*
Y01406*
X00411Y01407*
X00408Y01407*
X00405Y01408*
X00398Y01408*
X00393Y01408*
Y01432*
X00398Y01432*
X00408Y01432*
X00411Y01433*
X00413Y01433*
Y0191*
X0041Y0191*
X00407Y0191*
X004Y01911*
X00395Y01911*
Y01935*
X004Y01935*
X0041Y01935*
X00413Y01936*
Y02145*
X00354Y02204*
X00078*
Y02342*
X0058*
Y00905*
G37*
G36*
X0125Y00906D02*
X01249Y00906D01*
X01248Y00905*
X01247Y00905*
X01247Y00904*
X01246Y00903*
X01246Y00901*
X01246Y009*
X01246Y00898*
X01246Y00896*
X01236*
X01236Y00898*
X01236Y009*
X01235Y00901*
X01235Y00903*
X01234Y00904*
X01234Y00905*
X01233Y00905*
X01233Y00906*
X01232Y00906*
X01231Y00906*
X0125*
X0125Y00906*
G37*
G36*
X01246Y00893D02*
X01246Y00891D01*
X01246Y0089*
X01246Y00889*
X01247Y00888*
X01247Y00887*
X01248Y00886*
X01249Y00885*
X0125Y00885*
X0125Y00885*
X01231*
X01232Y00885*
X01233Y00885*
X01233Y00886*
X01234Y00887*
X01234Y00888*
X01235Y00889*
X01235Y0089*
X01236Y00891*
X01236Y00893*
X01236Y00895*
X01246*
X01246Y00893*
G37*
G36*
X00757Y01102D02*
X00935D01*
Y00944*
X00748*
X00679Y00875*
X00629*
Y01122*
X00738*
X00757Y01102*
G37*
G36*
X01271Y00275D02*
X01068D01*
Y00342*
X01035*
Y00275*
X00992*
Y00334*
X00992Y00334*
X00992Y00334*
Y00342*
X00988*
Y00359*
X00988Y0036*
X00988Y00361*
X0099Y00363*
X00991Y00367*
Y00418*
X0099Y00421*
X00988Y00424*
X00986Y00425*
Y00444*
X00999*
X01003Y0044*
X01006Y00436*
X01053Y00389*
X01059Y00385*
X01067Y00383*
X01101*
Y00382*
X01109*
X01109Y00382*
X01109Y00382*
X01142*
Y00424*
X01142*
Y00656*
X01141Y00657*
X01146Y00662*
X01183*
Y00703*
X01178*
X01175Y00706*
Y00714*
X01175Y00714*
X01175Y00714*
Y0075*
X01108*
Y00741*
X01103*
Y0075*
X0107*
X0107Y00751*
X0107Y0075*
X01062*
Y00785*
X01175Y00898*
X01202*
Y00953*
X01162*
Y00977*
X01158Y00977*
Y01001*
X01162Y01001*
Y01063*
X01167Y01065*
X01213Y01018*
Y0101*
X01209*
Y00969*
X01214*
Y00953*
X01212*
Y00898*
X01219*
X01219Y00893*
Y00842*
X01262*
Y00893*
X01262*
X01261Y00898*
Y00953*
X01245*
Y00969*
X0125*
Y0101*
X01245*
Y01025*
X01244Y01031*
X0124Y01036*
X01178Y01099*
Y01271*
X01271*
Y00275*
G37*
G36*
X01279Y02338D02*
Y02153D01*
X01122*
Y00905*
X01023Y00807*
X00708*
Y00875*
X00984*
Y0122*
X00673*
Y01334*
X00674Y01338*
X00984*
Y01692*
X00669*
Y01811*
X00984*
Y02072*
X00986Y02078*
X00987Y02086*
X00986Y02095*
X00984Y02101*
Y02153*
X00977Y02152*
X00974Y02151*
X00972Y02151*
X0097Y0215*
X00968Y02148*
X00967Y02147*
X00966Y02145*
X00966Y02143*
Y02165*
X00669*
Y02342*
X01275*
X01279Y02338*
G37*
G36*
X01116Y00718D02*
X01116Y00719D01*
X01115Y0072*
X01115Y00721*
X01114Y00721*
X01113Y00722*
X01112Y00722*
X01111Y00722*
X01109Y00723*
X01108Y00723*
X01106Y00723*
Y00733*
X01108Y00733*
X01109Y00733*
X01111Y00733*
X01112Y00734*
X01113Y00734*
X01114Y00735*
X01115Y00735*
X01115Y00736*
X01116Y00737*
X01116Y00738*
Y00718*
G37*
G36*
X01095Y00737D02*
X01095Y00736D01*
X01096Y00735*
X01096Y00735*
X01097Y00734*
X01098Y00734*
X01099Y00733*
X01101Y00733*
X01103Y00733*
X01105Y00733*
Y00723*
X01103Y00723*
X01101Y00723*
X01099Y00722*
X01098Y00722*
X01097Y00722*
X01096Y00721*
X01096Y00721*
X01095Y0072*
X01095Y00719*
X01095Y00718*
Y00738*
X01095Y00737*
G37*
G36*
X01167Y00714D02*
X01167Y00714D01*
X01167Y00713*
X01166Y00712*
X01166Y00705*
X01166Y00703*
X01167Y00701*
X01167Y007*
X01167Y00699*
X01168Y00698*
X01168Y00697*
X01169Y00696*
X01169Y00695*
X0117Y00695*
X01171Y00695*
X01152*
X01153Y00695*
X01153Y00695*
X01154Y00696*
X01155Y00697*
X01155Y00698*
X01156Y00699*
X01156Y007*
X01156Y00701*
X01156Y00703*
X01156Y00705*
X01156Y00706*
X01156Y00713*
X01156Y00713*
X01156Y00714*
X01155Y00714*
X01155Y00714*
X01167*
X01167Y00714*
G37*
G36*
X0107Y00717D02*
X01095D01*
X01095Y00695*
X01071*
X01071Y00699*
X0107Y00717*
X0107Y00717*
X0107Y00718*
X01069Y0072*
X01068Y00721*
X01067Y00722*
X01066Y00722*
X01064Y00723*
X01062Y00723*
X0106Y00724*
X01058Y00724*
X01055Y00724*
Y00739*
X01058Y00739*
X01064Y0074*
X01066Y0074*
X01067Y0074*
X01068Y00741*
X01069Y00741*
X0107Y00742*
X0107Y00742*
Y00717*
G37*
G36*
X01057Y00517D02*
X01057Y00517D01*
X0106*
X01059Y00516*
X01059Y00515*
X01058Y00513*
X01058Y00511*
X01058Y00511*
X01058Y0051*
X01059Y0051*
X0106Y00509*
X0106Y00509*
X01058*
X01057Y00509*
X01057Y00503*
X01057Y00495*
X01057Y00491*
X01047*
X01047Y00495*
X01046Y00509*
X01046Y00509*
X01043*
X01044Y00509*
X01044Y0051*
X01045Y0051*
X01045Y00511*
X01045Y00511*
X01045Y00513*
X01045Y00515*
X01044Y00516*
X01043Y00517*
X01047*
X01047Y00517*
X01047Y00519*
X01057*
X01057Y00517*
G37*
G36*
X00387D02*
X00388Y00515D01*
X00391*
X0039Y00514*
X00389Y00513*
X00389Y00511*
X00389Y00511*
X00389Y0051*
X0039Y0051*
X0039Y00509*
X00391Y00509*
X00389*
X00389Y00509*
X00388Y00507*
X00388Y00501*
X00387Y00493*
X00387Y00489*
X00377*
X00377Y00493*
X00377Y00507*
X00376Y00509*
X00376Y00509*
X00374*
X00374Y00509*
X00375Y0051*
X00376Y0051*
X00376Y00511*
X00376Y00511*
X00375Y00513*
X00375Y00514*
X00374Y00515*
X00377*
X00377Y00516*
X00377Y00517*
X00377Y00519*
X00387*
X00387Y00517*
G37*
G36*
X00732D02*
X00732Y00514D01*
X00732Y00513*
X00735*
X00735Y00512*
X00734Y00511*
X00734Y0051*
X00734Y0051*
X00735Y00509*
X00736Y00509*
X00734*
X00733Y00509*
X00733Y00507*
X00733Y00505*
X00732Y00499*
X00732Y00491*
X00732Y00487*
X00722*
X00722Y00491*
X00721Y00505*
X00721Y00507*
X0072Y00509*
X0072Y00509*
X00718*
X00719Y00509*
X0072Y0051*
X0072Y0051*
X0072Y00511*
X00719Y00512*
X00719Y00513*
X00721*
X00722Y00514*
X00722Y00516*
X00722Y00517*
X00722Y00519*
X00732*
X00732Y00517*
G37*
G36*
X00688Y00526D02*
X00706Y00511D01*
X00707Y0051*
X00709Y00509*
X0071Y00509*
X00693Y00472*
X00693Y00474*
X00693Y00477*
X00693Y0048*
X00691Y00484*
X00689Y00488*
X00686Y00492*
X00683Y00497*
X00673Y00508*
X00667Y00514*
X00684Y0053*
X00688Y00526*
G37*
G36*
X00982Y00452D02*
X00981Y00452D01*
X0098Y00452*
X0098Y00451*
X00979Y0045*
X00979Y00449*
X00978Y00448*
X00978Y00446*
X00978Y00444*
X00978Y00443*
X00968*
X00968Y00444*
X00968Y00449*
X00968Y0045*
X00967Y00451*
X00967Y00451*
X00967Y00452*
X00967Y00452*
X00966Y00452*
X00983Y00453*
X00982Y00452*
G37*
G36*
X00312D02*
X00311Y00452D01*
X0031Y00452*
X00309Y00451*
X00309Y0045*
X00308Y00449*
X00308Y00448*
X00308Y00446*
X00308Y00444*
X00308Y00443*
X00298*
X00298Y00444*
X00297Y00451*
X00297Y00452*
X00297Y00452*
X00297Y00452*
X00312Y00453*
X00312Y00452*
G37*
G36*
X00658Y00452D02*
X00657Y00452D01*
X00657Y00451*
X00656Y00451*
X00656Y0045*
X00656Y00449*
X00655Y00448*
X00655Y00446*
X00655Y00444*
X00655Y00443*
X00645*
X00645Y00444*
X00645Y00448*
X00645Y00449*
X00644Y0045*
X00644Y00451*
X00643Y00451*
X00643Y00452*
X00642Y00452*
X00641Y00452*
X00659*
X00658Y00452*
G37*
G36*
X00289Y00452D02*
X00289Y00452D01*
X00289Y00452*
Y00444*
X0029*
Y00433*
X00259*
X00255Y00436*
X00253Y00443*
X00249Y0045*
X00242Y00454*
X00235Y00456*
X00227Y00454*
X00221Y0045*
X00216Y00443*
X00215Y00436*
X00216Y00428*
X00215Y00426*
X00214Y00423*
Y00366*
X00215Y00363*
X00216Y0036*
X00215Y00353*
X00216Y00345*
X00221Y00339*
X00227Y00334*
X00235Y00333*
X00242Y00334*
X00249Y00339*
X00253Y00345*
X00255Y00353*
X00255Y00354*
X00262Y00362*
X00281*
X00293Y0035*
Y00342*
X00289*
Y00334*
X00289Y00334*
X00289Y00334*
Y00275*
X00078*
Y00511*
X00289*
Y00452*
G37*
G36*
X00958Y00453D02*
X00958Y00452D01*
X00958Y00452*
Y00444*
X0096*
Y00428*
X00957Y00425*
X00933*
X00924Y00434*
X00924Y00436*
X00923Y00443*
X00918Y0045*
X00912Y00454*
X00904Y00456*
X00896Y00454*
X0089Y0045*
X00885Y00443*
X00884Y00436*
X00885Y00428*
X0089Y00421*
X00896Y00417*
X00895Y00365*
X00889Y00361*
X00885Y00355*
X00883Y00347*
X00885Y00339*
X00889Y00333*
X00895Y00328*
X00903Y00327*
X00911Y00328*
X00917Y00333*
X00922Y00339*
X00923Y00347*
X00923Y00348*
X00932Y00358*
X00958*
X00962Y00353*
Y00342*
X00958*
Y00334*
X00958Y00334*
X00958Y00334*
Y00275*
X00744*
Y00342*
X0071*
Y00275*
X00667*
Y00334*
X00667Y00334*
X00667Y00334*
Y00342*
X00663*
Y00358*
X00662Y00363*
X00659Y00367*
X00656Y0037*
X00657Y0037*
X00657Y00374*
Y00413*
X00657Y00416*
X00656Y00416*
X00659Y00419*
X00662Y00424*
X00663Y00429*
Y00444*
X00673*
Y00425*
X00675Y00417*
X00679Y00411*
X00693Y00397*
X007Y00392*
X00707Y00391*
X00766*
Y0039*
X00774*
X00774Y0039*
X00775Y0039*
X00807*
Y00392*
X0082*
X00828Y00393*
X00835Y00398*
X00864Y00427*
X00868Y00434*
X00869Y00435*
X0087Y00441*
Y00492*
X00889Y00511*
X00958*
Y00453*
G37*
G36*
X00633Y00453D02*
X00633Y00452D01*
X00633Y00452*
Y00444*
X00637*
Y00434*
X00624Y00421*
X00595*
X0059Y00426*
X0059Y00431*
X00589Y00438*
X00585Y00445*
X00578Y00449*
X0057Y00451*
X00563Y00449*
X00556Y00445*
X00552Y00438*
X0055Y00431*
X00552Y00423*
X00556Y00416*
X00561Y00413*
X00561Y00413*
X00561Y0041*
X00562Y00408*
Y00374*
X00563Y0037*
X00563Y0037*
X00563Y00369*
X00556Y00365*
X00552Y00359*
X0055Y00351*
X00552Y00343*
X00556Y00337*
X00563Y00332*
X0057Y00331*
X00578Y00332*
X00585Y00337*
X00589Y00343*
X0059Y00351*
X0059Y00352*
X006Y00362*
X00627*
X00637Y00352*
Y00342*
X00633*
Y00334*
X00633Y00334*
X00633Y00334*
Y00275*
X00399*
Y00342*
X00366*
Y00275*
X00322*
Y00334*
X00322Y00334*
X00322Y00334*
Y00342*
X00319*
Y00356*
X00318Y00361*
X00315Y00365*
X00311Y00369*
X00311Y0037*
Y00414*
X00312Y00415*
X00315Y0042*
X00316Y00425*
Y00444*
X00326*
Y00427*
X00327Y00419*
X00332Y00412*
X00348Y00397*
X00354Y00392*
X00362Y00391*
X00432*
Y0039*
X0044*
X0044Y0039*
X0044Y0039*
X00473*
Y00392*
X00496*
X00503Y00393*
X0051Y00398*
X00539Y00427*
X00544Y00434*
X00545Y00441*
Y00465*
X00581Y005*
X00581*
X00589Y00502*
X00595Y00506*
X006Y00511*
X00633*
Y00453*
G37*
G36*
X00774Y00398D02*
X00774Y00398D01*
X00773Y00399*
X00772Y00399*
X00769Y00399*
X00751Y00399*
Y00423*
X00774Y00424*
Y00398*
G37*
G36*
X0044D02*
X0044Y00398D01*
X00439Y00399*
X00438Y00399*
X00434Y00399*
X00416Y00399*
Y00423*
X0044Y00424*
Y00398*
G37*
G36*
X01109Y0039D02*
X01109Y00391D01*
X01108Y00391*
X01107Y00391*
X01103Y00391*
X01085Y00391*
Y00415*
X01109Y00416*
Y0039*
G37*
G36*
X0098Y00342D02*
X0098Y00339D01*
X0098Y00338*
X00981Y00336*
X00981Y00336*
X00982Y00335*
X00982Y00334*
X00983Y00334*
X00984Y00334*
X00966*
X00967Y00334*
X00968Y00334*
X00968Y00335*
X00969Y00336*
X00969Y00336*
X00969Y00338*
X0097Y00339*
X0097Y0034*
X0097Y00342*
X0097Y00344*
X0098*
X0098Y00342*
G37*
G36*
X00311D02*
X00311Y00339D01*
X00311Y00338*
X00311Y00336*
X00312Y00336*
X00312Y00335*
X00313Y00334*
X00314Y00334*
X00314Y00334*
X00297*
X00298Y00334*
X00298Y00334*
X00299Y00335*
X00299Y00336*
X003Y00336*
X003Y00338*
X003Y00339*
X00301Y0034*
X00301Y00342*
X00301Y00344*
X00311*
X00311Y00342*
G37*
G36*
X00655D02*
X00655Y00339D01*
X00656Y00338*
X00656Y00336*
X00656Y00336*
X00657Y00335*
X00657Y00334*
X00658Y00334*
X00659Y00334*
X00641*
X00642Y00334*
X00643Y00334*
X00643Y00335*
X00644Y00336*
X00644Y00336*
X00645Y00338*
X00645Y00339*
X00645Y0034*
X00645Y00342*
X00645Y00344*
X00655*
X00655Y00342*
G37*
G36*
X00311Y00311D02*
X003D01*
X003Y00311*
X003Y00312*
X003Y00312*
X00301Y00323*
Y00326*
X00311*
X00311Y00311*
G37*
G36*
X01023Y00007D02*
X00787D01*
Y00232*
X01023*
Y00007*
G37*
G36*
X00688D02*
X00452D01*
Y00228*
X00688*
Y00007*
G37*
G36*
X0035Y00003D02*
X00122D01*
Y00228*
X0035*
Y00003*
G37*
%LNpcb1-2*%
%LPC*%
G36*
X0122Y01212D02*
X01212Y01211D01*
X01204Y01208*
X01198Y01203*
X01192Y01196*
X01189Y01189*
X01188Y01181*
X01189Y01172*
X01192Y01165*
X01198Y01158*
X01204Y01153*
X01212Y0115*
X0122Y01149*
X01228Y0115*
X01236Y01153*
X01242Y01158*
X01247Y01165*
X01251Y01172*
X01252Y01181*
X01251Y01189*
X01247Y01196*
X01242Y01203*
X01236Y01208*
X01228Y01211*
X0122Y01212*
G37*
G36*
X01236Y00834D02*
X01227Y00832D01*
X0122Y00827*
X01219Y00825*
X012*
Y00818*
X01187*
X01178Y00827*
X01174Y0083*
X01169Y00831*
X0113*
X01125Y0083*
X01121Y00827*
X01113Y00819*
X0111Y00815*
X0111Y00812*
X01108*
Y00769*
X01135*
Y0077*
X01131*
X01132Y0077*
X01133Y0077*
X01134Y00771*
X01135Y00772*
X01135Y00772*
X01135Y00773*
Y00791*
X01136Y00792*
Y00805*
X01147*
Y00773*
X01147Y00772*
X01148Y00772*
X01149Y00771*
X01149Y0077*
X0115Y0077*
X01151Y0077*
X01147*
Y00769*
X01175*
Y00788*
X01175Y00789*
X0118Y00792*
X01182Y00792*
X012*
Y00784*
X0124*
Y0079*
X01241Y0079*
X01244Y00791*
X01251Y00796*
X01256Y00803*
X01258Y00812*
X01256Y0082*
X01251Y00827*
X01244Y00832*
X01236Y00834*
G37*
%LNpcb1-3*%
%LPD*%
G36*
X01127Y00805D02*
X01117Y00804D01*
X01117Y00804*
X01117Y00805*
X01117Y00805*
X01117Y00805*
X01117Y00806*
X01118Y00807*
X01118Y0081*
X01127*
X01127Y00805*
G37*
G36*
X01176Y00804D02*
X01174Y00805D01*
X01173Y00806*
X01172Y00807*
X01171Y00808*
X0117Y00808*
X01169Y00808*
X01168Y00808*
X01167Y00808*
X01167Y00808*
X01167Y00805*
X01156Y00804*
X01156Y00804*
X01156Y00805*
X01156Y00805*
X01156Y00805*
X01157Y00806*
X01157Y00807*
X01157Y00808*
X01157Y0081*
X01157Y00811*
X01166*
X01169Y00818*
X01176Y00804*
G37*
G36*
X01208Y00795D02*
X01208Y00796D01*
X01207Y00797*
X01207Y00797*
X01206Y00798*
X01205Y00798*
X01204Y00799*
X01203Y00799*
X01201Y008*
X012Y008*
X01198Y008*
Y0081*
X012Y0081*
X01201Y0081*
X01203Y0081*
X01204Y0081*
X01205Y00811*
X01206Y00811*
X01207Y00812*
X01207Y00813*
X01208Y00814*
X01208Y00814*
Y00795*
G37*
G54D10*
X01052Y00481D02*
Y00525D01*
X01043Y00578D02*
X01047Y00574D01*
X00727Y00481D02*
Y00521D01*
X00382Y00481D02*
Y00523D01*
X00287Y00409D02*
X00303Y00425D01*
X00261Y00409D02*
X00287D01*
X00235Y00436D02*
X00261Y00409D01*
Y00379D02*
X00282D01*
X00235Y00353D02*
X00261Y00379D01*
X00282D02*
X00306Y00356D01*
X01237Y00926D02*
X01241Y00922D01*
Y00868D02*
Y00922D01*
X01144Y00845D02*
X01147Y00848D01*
X01162*
X01169Y00855*
X01173*
X01182Y00864*
Y00868*
X01162Y00811D02*
X01169Y00818D01*
X01162Y008D02*
Y00811D01*
X0113Y00818D02*
X01169D01*
X01182Y00805*
X0122*
X01122Y00791D02*
X01123Y00792D01*
Y0081D02*
X0113Y00818D01*
X01123Y00792D02*
Y0081D01*
X01231Y00658D02*
X01234Y00655D01*
X01222Y00658D02*
X01231D01*
X01198Y00683D02*
X01222Y00658D01*
X01197Y00683D02*
X01198D01*
X01197Y00746D02*
X0122Y00769D01*
Y00769*
X01197Y00683D02*
Y00746D01*
X01141Y00759D02*
Y00791D01*
X01082Y00765D02*
X01088Y00759D01*
X01161Y00683D02*
X01162Y00683D01*
X01161Y00683D02*
Y00727D01*
X01161Y00728D02*
X01161Y00727D01*
X00306Y00306D02*
Y00356D01*
X00303Y00425D02*
Y00478D01*
X00306Y00481*
X00632Y00375D02*
X0065Y00358D01*
X00595Y00375D02*
X00632D01*
X0065Y00306D02*
Y00358D01*
Y00429D02*
Y00481D01*
X00626Y00405D02*
X0065Y00429D01*
X00592Y00405D02*
X00626D01*
X0057Y00427D02*
X00592Y00405D01*
X0057Y00427D02*
Y00431D01*
Y00351D02*
X00595Y00375D01*
X00973Y00423D02*
Y00479D01*
X00962Y00412D02*
X00973Y00423D01*
X00928Y00412D02*
X00962D01*
X00973Y00479D02*
X00975Y00481D01*
X00927Y00371D02*
X00963D01*
X00903Y00347D02*
X00927Y00371D01*
X00963D02*
X00975Y00359D01*
Y00306D02*
Y00359D01*
X00904Y00436D02*
X00928Y00412D01*
X01084Y00728D02*
X01122D01*
G54D13*
X01279Y0D02*
Y02362D01*
X00059Y0D02*
X01279D01*
X00059D02*
Y02362D01*
X01279*
G54D14*
X01194Y0099D03*
X0123D03*
X01197Y00683D03*
X01162D03*
G54D15*
X01178Y00926D03*
X01237D03*
G54D16*
X00306Y00481D03*
Y00306D03*
X00331D03*
X00357D03*
X00382D03*
Y00481D03*
X00357D03*
X00331D03*
X0065Y00306D03*
X00676D03*
X00701D03*
X00727D03*
Y00481D03*
X00701D03*
X00676D03*
X0065D03*
X00975Y00306D03*
X01D03*
X01026D03*
X01052D03*
Y00481D03*
X01026D03*
X01D03*
X00975D03*
G54D17*
X01182Y00868D03*
X01241D03*
X00344Y0123D03*
X00285D03*
X00344Y01722D03*
X00285D03*
G54D18*
X01141Y00759D03*
G54D19*
X01161Y00728D03*
X01141D03*
X01122D03*
Y00791D03*
X01141D03*
X01161D03*
G54D20*
X00285Y01791D03*
X00296Y01653D03*
Y01161D03*
G54D21*
X00313Y01791D03*
X00324Y01653D03*
Y01161D03*
G54D22*
X00759Y02165D03*
X00846D03*
X00933D03*
X00759Y01811D03*
X00846D03*
X00933D03*
X00759Y01692D03*
X00846D03*
X00933D03*
X00759Y01338D03*
X00846D03*
X00933D03*
X00759Y0122D03*
X00846D03*
X00933D03*
X00759Y00866D03*
X00846D03*
X00933D03*
G54D23*
X00846Y02076D03*
Y01604D03*
Y01131D03*
G54D24*
X00778Y01911D03*
X00823D03*
X00869D03*
X00914D03*
X00778Y02021D03*
X00823D03*
X00869D03*
X00914D03*
X00778Y01438D03*
X00823D03*
X00869D03*
X00914D03*
X00778Y01549D03*
X00823D03*
X00869D03*
X00914D03*
X00778Y00966D03*
X00823D03*
X00869D03*
X00914D03*
X00778Y01076D03*
X00823D03*
X00869D03*
X00914D03*
G54D25*
X00297Y01904D03*
Y01991D03*
Y02077D03*
X00651Y01904D03*
Y01991D03*
Y02077D03*
X00295Y01401D03*
Y01488D03*
Y01574D03*
X00649Y01401D03*
Y01488D03*
Y01574D03*
X00295Y0091D03*
Y00997D03*
Y01083D03*
X00649Y0091D03*
Y00997D03*
Y01083D03*
G54D26*
X00385Y01991D03*
X00383Y01488D03*
Y00997D03*
G54D27*
X00551Y01923D03*
Y01968D03*
Y02013D03*
Y02059D03*
X0044Y01923D03*
Y01968D03*
Y02013D03*
Y02059D03*
X00549Y0142D03*
Y01465D03*
Y0151D03*
Y01556D03*
X00438Y0142D03*
Y01465D03*
Y0151D03*
Y01556D03*
X00549Y00929D03*
Y00974D03*
Y01019D03*
Y01064D03*
X00438Y00929D03*
Y00974D03*
Y01019D03*
Y01064D03*
G54D28*
X00673Y02194D03*
X00547D03*
X00673Y02283D03*
X00547D03*
X00673Y01791D03*
X00547D03*
X00673Y01692D03*
X00547D03*
X00683Y01289D03*
X00557D03*
X00683Y0121D03*
X00557D03*
G54D29*
X01082Y0073D03*
Y00765D03*
X0122Y00769D03*
Y00805D03*
X01122Y00368D03*
Y00403D03*
X00787Y00375D03*
Y00411D03*
X00452Y00375D03*
Y00411D03*
G54D30*
X00236Y01879D03*
Y01938D03*
G54D53*
X00188Y01154D02*
Y01183D01*
X00118Y01254D02*
X00188Y01183D01*
Y01154D02*
X00199Y01143D01*
X0022Y01179D02*
Y01196D01*
Y01179D02*
X00236Y01164D01*
X00251Y01194D02*
Y0122D01*
Y01194D02*
X00285Y01161D01*
X00236Y00882D02*
Y01164D01*
X01012Y00459D02*
Y00522D01*
X00693Y00425D02*
Y00504D01*
X00997Y00538D02*
X01012Y00522D01*
X00887Y00538D02*
X00997D01*
X00667Y00531D02*
X00693Y00504D01*
X00592Y00531D02*
X00667D01*
X00581Y0052D02*
X00592Y00531D01*
X00346Y00281D02*
Y00312D01*
X00323Y00257D02*
X00346Y00281D01*
X00229Y00257D02*
X00323D01*
X01013Y00255D02*
Y00343D01*
X00679Y00285D02*
X00688Y00295D01*
X00118Y00369D02*
X00229Y00257D01*
X00679Y00269D02*
Y00285D01*
X00667Y00257D02*
X00679Y00269D01*
X00619Y00257D02*
X00667D01*
X00608Y00268D02*
X00619Y00257D01*
X0056Y00268D02*
X00608D01*
X00689Y00345D02*
X0072Y00375D01*
X00946Y00255D02*
X01013D01*
X00827Y00375D02*
X00946Y00255D01*
X00199Y00834D02*
Y01143D01*
X00118Y01254D02*
Y01259D01*
X00184Y01233D02*
X0022Y01196D01*
X00216Y01255D02*
X00251Y0122D01*
X00216Y01255D02*
Y01377D01*
X00177Y01417D02*
X00216Y01377D01*
X00184Y01233D02*
Y01295D01*
X00165Y01313D02*
X00184Y01295D01*
X00149Y01313D02*
X00165D01*
X00124Y01338D02*
X00149Y01313D01*
X00251Y01317D02*
Y0139D01*
Y01317D02*
X00285Y01283D01*
X0023Y01411D02*
X00251Y0139D01*
X00236Y00882D02*
X00401Y00717D01*
X00285Y01161D02*
X00296D01*
X00342Y00964D02*
X00377Y00929D01*
X00438*
X00342Y00964D02*
Y01143D01*
X00324Y01161D02*
X00342Y01143D01*
X00381Y01909D02*
X00395Y01923D01*
X0044*
X00381Y01838D02*
Y01909D01*
X00334Y01791D02*
X00381Y01838D01*
X00313Y01791D02*
X00334D01*
X00338Y01456D02*
Y01639D01*
X00324Y01653D02*
X00338Y01639D01*
Y01456D02*
X00375Y0142D01*
X00438*
X01023Y02165D02*
X01082Y02106D01*
X01062D02*
X01082D01*
X01052Y00525D02*
Y00569D01*
X01047Y00574D02*
X01052Y00569D01*
X01035Y00586D02*
X01043Y00578D01*
X00737Y00586D02*
X01035D01*
X01122Y00403D02*
Y00656D01*
X01107Y00671D02*
X01122Y00656D01*
X01083Y00695D02*
X01107Y00671D01*
X00606Y00717D02*
X00737Y00586D01*
X00401Y00717D02*
X00606D01*
X00568Y0068D02*
X00727Y00521D01*
X00354Y0068D02*
X00568D01*
X00199Y00834D02*
X00354Y0068D01*
X00164Y00784D02*
Y01134D01*
Y00784D02*
X00382Y00565D01*
Y00523D02*
Y00565D01*
X00118Y00369D02*
Y01102D01*
Y01181D02*
X00164Y01134D01*
X00118Y01338D02*
X00124D01*
X00453Y00375D02*
X0056Y00268D01*
X01148Y00989D02*
X01148Y00989D01*
X01194*
X01194Y0099*
X01205Y00403D02*
Y00626D01*
X01234Y00655*
X0117Y00368D02*
X01205Y00403D01*
X01122Y00368D02*
X0117D01*
X01013Y00343D02*
X01038Y00368D01*
X01122*
X00788Y00375D02*
X00827D01*
X00787Y00375D02*
X00788Y00375D01*
X00787Y00375D02*
Y00375D01*
X0072D02*
X00787D01*
X00707Y00411D02*
X00787D01*
X00693Y00425D02*
X00707Y00411D01*
X00453Y00375D02*
X00453D01*
X00452Y00375D02*
X00453Y00375D01*
X00452Y00375D02*
Y00375D01*
X00346Y00312D02*
X00347Y00312D01*
Y00347*
X00375Y00375*
X00452*
X00346Y00427D02*
X00362Y00411D01*
X00346Y00427D02*
Y00478D01*
X00362Y00411D02*
X00452D01*
X00453Y00412D02*
X00496D01*
X00452Y00411D02*
X00453Y00412D01*
X00452Y00411D02*
Y00411D01*
X00496Y00412D02*
X00525Y00441D01*
Y00473*
X00572Y0052*
X00581*
X00788Y00412D02*
X0082D01*
X00787Y00411D02*
X00788Y00412D01*
X00787Y00411D02*
Y00411D01*
X0082Y00412D02*
X0085Y00441D01*
Y005*
X00887Y00538*
X01012Y00459D02*
X0102Y00451D01*
Y0045D02*
Y00451D01*
Y0045D02*
X01067Y00403D01*
X01122*
X01083Y00695D02*
Y00729D01*
X01082Y0073D02*
X01083Y00729D01*
X00118Y01417D02*
X00177D01*
X01235Y00812D02*
X01236D01*
X01229Y00806D02*
X01235Y00812D01*
X00947Y02086D02*
X00954D01*
X00937Y02076D02*
X00947Y02086D01*
X00846Y02076D02*
X00937D01*
X00925Y01604D02*
X00935Y01614D01*
X00846Y01604D02*
X00925D01*
X00275Y01722D02*
X00285D01*
X00275D02*
D01*
X00206D02*
X00275D01*
X00142Y01658D02*
X00206Y01722D01*
X00124Y01732D02*
X00183Y01791D01*
X00285*
X00265Y01653D02*
X00296D01*
X00933Y02165D02*
X01023D01*
X0023Y01411D02*
Y01462D01*
X00196Y01496D02*
X0023Y01462D01*
X00118Y01496D02*
X00196D01*
X00285Y0123D02*
Y01283D01*
X00383Y01488D02*
Y01679D01*
X00344Y01718D02*
X00383Y01679D01*
X00344Y01718D02*
Y01722D01*
X00375Y01206D02*
X00387Y01194D01*
X00364Y01206D02*
X00375D01*
X00344Y01226D02*
X00364Y01206D01*
X00344Y01226D02*
Y0123D01*
X0034Y01862D02*
Y01934D01*
X00266Y01849D02*
X00327D01*
X0034Y01862*
X00385Y01979D02*
Y01991D01*
X0034Y01934D02*
X00385Y01979D01*
X00253Y01862D02*
X00266Y01849D01*
X00253Y01862D02*
Y01866D01*
X0024Y01879D02*
X00253Y01866D01*
X00236Y01879D02*
X0024D01*
X00232Y01938D02*
X00236D01*
X00176Y01883D02*
X00232Y01938D01*
X00176Y01869D02*
Y01883D01*
X00118Y01811D02*
X00176Y01869D01*
X00385Y00997D02*
Y01008D01*
X00387Y0101*
Y01194*
X00118Y01732D02*
X00124D01*
X00118Y01653D02*
X00122Y01658D01*
X00142*
G54D54*
X01148Y00766D02*
X0115Y00764D01*
X01161Y00799D02*
X01162Y008D01*
X01141Y00759D02*
X01148Y00766D01*
X01083Y00729D02*
X01084Y00728D01*
X01161Y00791D02*
Y00799D01*
G54D55*
X01082Y02106D02*
X0122Y01968D01*
X00118Y01732D02*
X00119Y01733D01*
G54D56*
X01038Y00783D02*
X01178Y00923D01*
X01038Y00741D02*
Y00783D01*
X01047Y00731D02*
X01081D01*
X01038Y00741D02*
X01047Y00731D01*
X01081D02*
X01082Y0073D01*
X01178Y00923D02*
Y00926D01*
X01162Y01092D02*
Y0128D01*
Y01092D02*
X01229Y01025D01*
Y0099D02*
Y01025D01*
Y0099D02*
X0123Y0099D01*
Y00933D02*
X01237Y00926D01*
X0123Y00933D02*
Y0099D01*
X01162Y0128D02*
X0122Y01338D01*
X00305Y00306D02*
Y00326D01*
Y00306D02*
X00306Y00306D01*
X00914Y0191D02*
Y01911D01*
Y0191D02*
X00915Y01909D01*
Y01072D02*
Y01075D01*
X00914Y01076D02*
X00915Y01075D01*
G54D57*
X0093Y01151D02*
X00935D01*
X00912Y01133D02*
X0093Y01151D01*
X00848Y01133D02*
X00912D01*
X00846Y01131D02*
X00848Y01133D01*
X00246Y01624D02*
Y01633D01*
X00196Y01574D02*
X00246Y01624D01*
Y01633D02*
X00265Y01653D01*
X00383Y00995D02*
X00385Y00997D01*
X00118Y01574D02*
X00196D01*
G54D58*
X0122Y01102D03*
Y01181D03*
Y01259D03*
Y01338D03*
Y01417D03*
Y01496D03*
Y01574D03*
Y01653D03*
Y01732D03*
Y01811D03*
Y01889D03*
X00118Y01102D03*
Y01181D03*
Y01259D03*
Y01338D03*
Y01417D03*
Y01496D03*
Y01574D03*
Y01653D03*
Y01732D03*
Y01811D03*
Y01889D03*
G54D59*
X0122Y01968D03*
X00118D03*
G54D60*
X00389Y02251D03*
Y02228D03*
Y02204D03*
X00366Y02275D03*
Y02251D03*
Y02228D03*
X00342Y02299D03*
Y02275D03*
Y02251D03*
Y02228D03*
X00318Y02322D03*
Y02299D03*
Y02275D03*
Y02251D03*
Y02228D03*
X00295Y02322D03*
Y02299D03*
Y02275D03*
Y02251D03*
Y02228D03*
X00271Y02322D03*
Y02299D03*
Y02275D03*
Y02251D03*
Y02228D03*
X00248Y02322D03*
Y02299D03*
Y02275D03*
Y02251D03*
Y02228D03*
X00224Y02322D03*
Y02299D03*
Y02275D03*
Y02251D03*
Y02228D03*
X002Y02322D03*
Y02299D03*
Y02275D03*
Y02251D03*
Y02228D03*
X00177Y02322D03*
Y02299D03*
Y02275D03*
Y02251D03*
Y02228D03*
X00153Y02322D03*
Y02299D03*
Y02275D03*
Y02251D03*
Y02228D03*
X00129Y02322D03*
Y02299D03*
Y02275D03*
Y02251D03*
Y02228D03*
X00106Y02322D03*
Y02299D03*
Y02275D03*
Y02251D03*
Y02228D03*
X01263Y02322D03*
Y02299D03*
Y02275D03*
Y02251D03*
Y02228D03*
Y02204D03*
Y02181D03*
X0124Y02322D03*
Y02299D03*
Y02275D03*
Y02251D03*
Y02228D03*
Y02204D03*
Y02181D03*
X01216Y02322D03*
Y02299D03*
Y02275D03*
Y02251D03*
Y02228D03*
Y02204D03*
Y02181D03*
X01192Y02322D03*
Y02299D03*
Y02275D03*
Y02251D03*
Y02228D03*
Y02204D03*
Y02181D03*
X01169Y02322D03*
Y02299D03*
Y02275D03*
Y02251D03*
Y02228D03*
Y02204D03*
Y02181D03*
X00885Y02322D03*
Y02299D03*
X00862Y02322D03*
Y02299D03*
X00838Y02322D03*
Y02299D03*
X00814Y02322D03*
Y02299D03*
X00791Y02322D03*
Y02299D03*
X00767Y02322D03*
Y02299D03*
X00744Y02322D03*
Y02299D03*
X0072Y02322D03*
Y02299D03*
X00551Y02082D03*
X00814Y00196D03*
X00838D03*
X00862D03*
X00885D03*
X00909D03*
X00933D03*
X00956D03*
X0098D03*
X01003D03*
X00814Y00173D03*
X00838D03*
X00862D03*
X00885D03*
X00909D03*
X00933D03*
X00956D03*
X0098D03*
X01003D03*
Y00149D03*
Y00125D03*
Y00102D03*
Y00078D03*
Y00055D03*
Y00031D03*
X0098Y00149D03*
Y00125D03*
Y00102D03*
Y00078D03*
Y00055D03*
Y00031D03*
X00956Y00149D03*
Y00125D03*
Y00102D03*
Y00078D03*
Y00055D03*
Y00031D03*
X00933Y00149D03*
Y00125D03*
Y00102D03*
Y00078D03*
Y00055D03*
Y00031D03*
X00909Y00149D03*
Y00125D03*
Y00102D03*
Y00078D03*
Y00055D03*
Y00031D03*
X00885Y00149D03*
Y00125D03*
Y00102D03*
Y00078D03*
Y00055D03*
Y00031D03*
X00862Y00149D03*
Y00125D03*
Y00102D03*
Y00078D03*
Y00055D03*
Y00031D03*
X00838Y00149D03*
Y00125D03*
Y00102D03*
Y00078D03*
Y00055D03*
Y00031D03*
X00814Y00149D03*
Y00125D03*
Y00102D03*
Y00078D03*
Y00055D03*
Y00031D03*
X00484Y00196D03*
X00507D03*
X00531D03*
X00555D03*
X00578D03*
X00602D03*
X00625D03*
X00649D03*
X00673D03*
X00484Y00173D03*
X00507D03*
X00531D03*
X00555D03*
X00578D03*
X00602D03*
X00625D03*
X00649D03*
X00673D03*
Y00149D03*
Y00125D03*
Y00102D03*
Y00078D03*
Y00055D03*
Y00031D03*
X00649Y00149D03*
Y00125D03*
Y00102D03*
Y00078D03*
Y00055D03*
Y00031D03*
X00625Y00149D03*
Y00125D03*
Y00102D03*
Y00078D03*
Y00055D03*
Y00031D03*
X00602Y00149D03*
Y00125D03*
Y00102D03*
Y00078D03*
Y00055D03*
Y00031D03*
X00578Y00149D03*
Y00125D03*
Y00102D03*
Y00078D03*
Y00055D03*
Y00031D03*
X00555Y00149D03*
Y00125D03*
Y00102D03*
Y00078D03*
Y00055D03*
Y00031D03*
X00531Y00149D03*
Y00125D03*
Y00102D03*
Y00078D03*
Y00055D03*
Y00031D03*
X00507Y00149D03*
Y00125D03*
Y00102D03*
Y00078D03*
Y00055D03*
Y00031D03*
X00484Y00149D03*
Y00125D03*
Y00102D03*
Y00078D03*
Y00055D03*
Y00031D03*
X00153Y00196D03*
X00177D03*
X002D03*
X00224D03*
X00248D03*
X00271D03*
X00295D03*
X00318D03*
X00153Y00173D03*
X00177D03*
X002D03*
X00224D03*
X00248D03*
X00271D03*
X00295D03*
X00318D03*
Y00149D03*
Y00125D03*
Y00102D03*
Y00078D03*
Y00055D03*
Y00031D03*
X00295Y00149D03*
Y00125D03*
Y00102D03*
Y00078D03*
Y00055D03*
Y00031D03*
X00271Y00149D03*
Y00125D03*
Y00102D03*
Y00078D03*
Y00055D03*
Y00031D03*
X00248Y00149D03*
Y00125D03*
Y00102D03*
Y00078D03*
Y00055D03*
Y00031D03*
X00224Y00149D03*
Y00125D03*
Y00102D03*
Y00078D03*
Y00055D03*
Y00031D03*
X002Y00149D03*
Y00125D03*
Y00102D03*
Y00078D03*
Y00055D03*
Y00031D03*
X00177Y00149D03*
Y00125D03*
Y00102D03*
Y00078D03*
Y00055D03*
Y00031D03*
X00153Y00149D03*
Y00125D03*
Y00102D03*
Y00078D03*
Y00055D03*
Y00031D03*
X00787Y0109D03*
X00811D03*
X00834D03*
X00858D03*
X00881D03*
X00787Y0107D03*
X00811D03*
X00834D03*
X00858D03*
X00881D03*
X00905Y01047D03*
X00881D03*
X00858D03*
X00834D03*
X00811D03*
X00787D03*
X00909Y00952D03*
X00885D03*
X00862D03*
X00838D03*
X00814D03*
X00791D03*
X00909Y00976D03*
X00885D03*
X00862D03*
X00838D03*
X00814D03*
X00791D03*
X00909Y00999D03*
X00885D03*
X00862D03*
X00838D03*
X00814D03*
X00791D03*
X00909Y01023D03*
X00885D03*
X00862D03*
X00838D03*
X00814D03*
X00791D03*
X00744Y01425D03*
X00767D03*
Y01448D03*
Y01472D03*
Y01519D03*
X00763Y01543D03*
X00787D03*
X00811D03*
X00834D03*
X00858D03*
X00881D03*
X00791Y01519D03*
X00814D03*
X00838D03*
X00862D03*
X00885D03*
X00791Y01425D03*
X00814D03*
X00838D03*
X00862D03*
X00885D03*
X00791Y01448D03*
X00814D03*
X00838D03*
X00862D03*
X00885D03*
X00791Y01472D03*
X00814D03*
X00838D03*
X00862D03*
X00885D03*
Y01496D03*
X00862D03*
X00838D03*
X00814D03*
X00791D03*
X00767D03*
X00744Y01543D03*
Y01519D03*
Y01496D03*
Y01472D03*
Y01448D03*
X0072Y01543D03*
Y01519D03*
Y01496D03*
Y01472D03*
Y01448D03*
Y01425D03*
X00696Y01543D03*
Y01519D03*
Y01496D03*
Y01472D03*
Y01448D03*
Y01425D03*
X01148Y00989D03*
X01234Y00655D03*
X01107Y00671D03*
X00903Y00347D03*
X00904Y00436D03*
X0057Y00351D03*
X00235Y00436D03*
Y00353D03*
X0057Y00431D03*
X01144Y00845D03*
X00905Y02014D03*
X00907Y01991D03*
X00883D03*
X00881Y02014D03*
X0086Y01991D03*
X00909Y01968D03*
X00885D03*
X00862D03*
X00858Y02014D03*
X00834D03*
X00811D03*
X00788Y02015D03*
X00838Y01968D03*
X00836Y01991D03*
X00814Y01968D03*
X00812Y01991D03*
X00791Y01992D03*
Y01968D03*
X00766Y02014D03*
X00744Y02015D03*
X00767Y01992D03*
X00744D03*
X0072D03*
Y02015D03*
X00744Y01968D03*
X00767D03*
X00766Y01944D03*
X00744D03*
X0072Y01921D03*
Y01944D03*
X00744Y01921D03*
X00696Y02015D03*
X0072Y01968D03*
X00696Y01992D03*
Y01921D03*
Y01968D03*
Y01944D03*
X0072Y01897D03*
X00744D03*
X00696D03*
X00769Y01896D03*
X00768Y01921D03*
X00795Y01894D03*
X00818D03*
X00842D03*
X00866D03*
X00889D03*
X00794Y0192D03*
X00817D03*
X00841D03*
X00865D03*
X00888D03*
X00816Y01944D03*
X0084D03*
X00864D03*
X00887D03*
X00911D03*
X00791D03*
G54D61*
X01236Y00812D03*
G54D62*
X00915Y01909D03*
X00954Y02086D03*
X00935Y01151D03*
X00915Y01072D03*
Y01535D03*
X00935Y01614D03*
M02*