%FSTAX23Y23*%
%MOIN*%
%SFA1B1*%

%IPPOS*%
%ADD10C,0.009840*%
%ADD11C,0.007870*%
%ADD12C,0.003940*%
%ADD13C,0.010000*%
%LNpcb1-1*%
%LPD*%
G36*
X00806Y00802D02*
X00807D01*
X00807Y00802*
X00808Y00802*
X00809Y00801*
X00811Y00801*
X00812Y008*
X00812Y008*
X00813Y00799*
X00813Y00799*
X00813Y00799*
X00813Y00799*
X00813Y00799*
X00814Y00799*
X00814Y00798*
X00814Y00797*
X00815Y00796*
X00816Y00795*
X00816Y00794*
X00816Y00792*
X00812Y00792*
Y00792*
X00812Y00792*
X00812Y00792*
X00811Y00793*
X00811Y00793*
X00811Y00794*
X00811Y00795*
X0081Y00795*
X0081Y00796*
X0081Y00796*
X0081Y00796*
X00809Y00797*
X00809Y00797*
X00808Y00797*
X00807Y00798*
X00806Y00798*
X00805Y00798*
X00805*
X00804Y00798*
X00804Y00798*
X00803Y00798*
X00803Y00797*
X00802Y00797*
X00801Y00797*
X00801Y00797*
X00801Y00796*
X008Y00796*
X008Y00795*
X00799Y00795*
X00799Y00794*
X00798Y00793*
X00798Y00792*
Y00792*
X00798Y00792*
X00798Y00792*
X00797Y00791*
X00797Y00791*
X00797Y00791*
X00797Y0079*
X00797Y0079*
X00797Y00789*
X00797Y00788*
X00797Y00788*
X00797Y00787*
X00796Y00786*
X00796Y00785*
X00796Y00784*
Y00783*
X00796Y00783*
X00797Y00783*
X00797Y00784*
X00798Y00784*
X00798Y00785*
X00799Y00786*
X008Y00786*
X008Y00787*
X00801*
X00801Y00787*
X00801Y00787*
X00801Y00787*
X00802Y00788*
X00803Y00788*
X00804Y00788*
X00805Y00788*
X00806Y00788*
X00806*
X00806Y00788*
X00807Y00788*
X00807Y00788*
X00808Y00788*
X00808Y00788*
X0081Y00787*
X0081Y00787*
X00811Y00787*
X00812Y00786*
X00812Y00786*
X00813Y00785*
X00814Y00785*
X00814Y00785*
X00814Y00785*
X00814Y00784*
X00814Y00784*
X00815Y00784*
X00815Y00783*
X00815Y00783*
X00815Y00782*
X00816Y00782*
X00816Y00781*
X00816Y0078*
X00817Y00779*
X00817Y00779*
X00817Y00778*
X00817Y00777*
X00817Y00776*
Y00776*
Y00776*
Y00775*
Y00775*
X00817Y00775*
Y00774*
X00817Y00774*
X00817Y00772*
X00816Y00771*
X00816Y0077*
X00815Y00769*
Y00769*
X00815Y00769*
X00815Y00769*
X00815Y00769*
X00815Y00768*
X00814Y00767*
X00814Y00766*
X00813Y00766*
X00812Y00765*
X00811Y00764*
X00811*
X00811Y00764*
X00811Y00764*
X00811Y00764*
X0081Y00764*
X00809Y00763*
X00808Y00763*
X00807Y00763*
X00806Y00763*
X00805Y00763*
X00805*
X00804Y00763*
X00804*
X00803Y00763*
X00803Y00763*
X00802Y00763*
X00802Y00763*
X00801Y00763*
X008Y00764*
X00799Y00764*
X00798Y00764*
X00798Y00765*
X00797Y00766*
X00796Y00766*
X00795Y00767*
X00795Y00767*
X00795Y00767*
X00795Y00767*
X00795Y00768*
X00794Y00768*
X00794Y00769*
X00794Y0077*
X00794Y0077*
X00793Y00771*
X00793Y00772*
X00793Y00773*
X00792Y00775*
X00792Y00776*
X00792Y00778*
X00792Y00779*
X00792Y00781*
Y00781*
Y00781*
Y00781*
Y00782*
X00792Y00782*
Y00783*
X00792Y00784*
X00792Y00785*
X00792Y00786*
X00792Y00787*
X00792Y00789*
X00793Y0079*
X00793Y00791*
X00793Y00793*
X00794Y00794*
X00794Y00795*
X00795Y00796*
X00796Y00797*
X00796Y00797*
X00796Y00798*
X00796Y00798*
X00796Y00798*
X00797Y00798*
X00797Y00799*
X00798Y00799*
X00798Y008*
X00799Y008*
X008Y008*
X00801Y00801*
X00801Y00801*
X00802Y00801*
X00803Y00802*
X00804Y00802*
X00805Y00802*
X00806*
X00806Y00802*
G37*
G36*
X00498Y00763D02*
X00493D01*
X00485Y00793*
Y00793*
X00485Y00793*
X00485Y00793*
X00485Y00793*
X00485Y00794*
X00485Y00794*
X00484Y00795*
X00484Y00796*
X00484Y00797*
X00484Y00797*
X00484Y00797*
Y00797*
X00484Y00797*
X00484Y00797*
X00484Y00796*
X00484Y00795*
X00483Y00795*
X00483Y00794*
X00483Y00793*
X00483Y00793*
X00475Y00763*
X00469*
X00459Y00802*
X00465*
X0047Y00776*
Y00776*
X0047Y00776*
X0047Y00776*
X0047Y00776*
X00471Y00775*
X00471Y00775*
X00471Y00775*
X00471Y00774*
X00471Y00773*
X00471Y00771*
X00472Y0077*
X00472Y00769*
Y00769*
X00472Y00769*
X00472Y00769*
X00472Y0077*
X00472Y0077*
X00472Y00771*
X00473Y00772*
X00473Y00773*
X00473Y00774*
X00473Y00774*
X00473Y00775*
X00474Y00775*
X00474Y00775*
X00474Y00776*
X00481Y00802*
X00487*
X00493Y00782*
Y00782*
X00493Y00782*
X00493Y00781*
X00493Y00781*
X00493Y0078*
X00493Y0078*
X00494Y00779*
X00494Y00778*
X00494Y00777*
X00494Y00776*
X00495Y00773*
X00495Y00771*
X00496Y00769*
Y00769*
X00496Y00769*
Y00769*
X00496Y00769*
X00496Y0077*
X00496Y0077*
X00496Y00771*
X00496Y00771*
X00496Y00772*
X00497Y00774*
X00497Y00775*
X00498Y00777*
X00504Y00802*
X00509*
X00498Y00763*
G37*
G36*
X0087D02*
X00864D01*
X0085Y00802*
X00855*
X00865Y00774*
Y00774*
X00865Y00774*
X00865Y00773*
X00865Y00773*
X00865Y00773*
X00865Y00773*
X00866Y00772*
X00866Y00771*
X00866Y0077*
X00867Y00768*
Y00768*
X00867Y00768*
X00867Y00768*
X00867Y00768*
X00867Y00769*
X00868Y0077*
X00868Y0077*
X00868Y00771*
X00869Y00773*
X00869Y00774*
X0088Y00802*
X00885*
X0087Y00763*
G37*
G36*
X01026D02*
X0102D01*
X01015Y00775*
X00999*
X00995Y00763*
X0099*
X01004Y00802*
X0101*
X01026Y00763*
G37*
G36*
X00916Y00802D02*
X00916Y00802D01*
X00917Y00802*
X00918Y00802*
X00918Y00801*
X0092Y00801*
X00921Y00801*
X00922Y008*
X00923Y008*
X00923Y00799*
X00924Y00799*
X00924Y00799*
X00924Y00799*
X00924Y00798*
X00924Y00798*
X00925Y00798*
X00925Y00798*
X00925Y00797*
X00925Y00797*
X00926Y00796*
X00927Y00794*
X00927Y00794*
X00927Y00793*
X00927Y00792*
X00927Y00791*
Y00791*
Y00791*
X00927Y0079*
X00927Y0079*
X00927Y00789*
X00927Y00788*
X00926Y00787*
X00926Y00787*
X00926Y00787*
X00926Y00786*
X00926Y00786*
X00925Y00785*
X00925Y00785*
X00924Y00784*
X00924Y00783*
X00923Y00782*
X00923Y00782*
X00923Y00781*
X00922Y00781*
X00922Y00781*
X00922Y00781*
X00921Y0078*
X00921Y0078*
X0092Y00779*
X0092Y00779*
X00919Y00778*
X00918Y00777*
X00917Y00777*
X00917Y00776*
X00916Y00775*
X00916Y00775*
X00916Y00775*
X00915Y00775*
X00915Y00775*
X00915Y00774*
X00914Y00774*
X00913Y00773*
X00912Y00772*
X00912Y00772*
X00911Y00771*
X0091Y00771*
X0091Y0077*
X0091Y0077*
X0091Y0077*
X0091Y0077*
X00909Y0077*
X00909Y00769*
X00909Y00769*
X00908Y00768*
X00927*
Y00763*
X00902*
Y00763*
Y00764*
Y00764*
X00902Y00764*
X00902Y00765*
X00902Y00765*
X00902Y00766*
X00902Y00767*
Y00767*
X00902Y00767*
X00902Y00767*
X00903Y00768*
X00903Y00768*
X00903Y00769*
X00904Y0077*
X00905Y00771*
X00905Y00772*
Y00772*
X00905Y00772*
X00906Y00772*
X00906Y00773*
X00907Y00773*
X00908Y00774*
X00909Y00775*
X0091Y00776*
X00911Y00777*
X00912Y00777*
X00912Y00778*
X00912Y00778*
X00912Y00778*
X00913Y00779*
X00914Y00779*
X00914Y0078*
X00915Y0078*
X00916Y00782*
X00918Y00783*
X00918Y00784*
X00919Y00784*
X0092Y00785*
X0092Y00786*
Y00786*
X0092Y00786*
X0092Y00786*
X0092Y00786*
X00921Y00787*
X00921Y00787*
X00922Y00788*
X00922Y00789*
X00922Y0079*
X00922Y00791*
Y00791*
Y00791*
X00922Y00792*
X00922Y00792*
X00922Y00793*
X00922Y00794*
X00921Y00794*
X00921Y00795*
X0092Y00796*
X0092Y00796*
X0092Y00796*
X00919Y00797*
X00919Y00797*
X00918Y00797*
X00917Y00798*
X00916Y00798*
X00915Y00798*
X00915*
X00914Y00798*
X00914Y00798*
X00913Y00798*
X00912Y00797*
X00911Y00797*
X0091Y00797*
X00909Y00796*
X00909Y00796*
X00909Y00796*
X00909Y00795*
X00908Y00794*
X00908Y00794*
X00908Y00793*
X00907Y00792*
X00907Y0079*
X00903Y00791*
Y00791*
X00903Y00791*
Y00791*
X00903Y00792*
X00903Y00792*
X00903Y00793*
X00903Y00793*
X00903Y00794*
X00904Y00795*
X00904Y00796*
X00905Y00797*
X00905Y00798*
X00906Y00798*
X00906Y00799*
X00906Y00799*
X00906Y00799*
X00907Y00799*
X00907Y00799*
X00907Y008*
X00908Y008*
X00908Y008*
X00909Y008*
X00909Y00801*
X0091Y00801*
X00911Y00801*
X00911Y00801*
X00912Y00802*
X00913Y00802*
X00914Y00802*
X00915Y00802*
X00916*
X00916Y00802*
G37*
G36*
X00756Y00802D02*
X00757Y00802D01*
X00758Y00801*
X00759Y00801*
X0076Y00801*
X0076*
X0076Y00801*
X00761*
X00761Y00801*
X00761Y00801*
X00762Y00801*
X00763Y008*
X00764Y008*
X00765Y00799*
X00766Y00798*
X00766Y00798*
X00766Y00798*
X00766Y00798*
X00766Y00798*
X00767Y00797*
X00768Y00797*
X00768Y00796*
X00769Y00795*
X0077Y00793*
X0077Y00792*
Y00792*
X0077Y00792*
X00771Y00791*
X00771Y00791*
X00771Y00791*
X00771Y0079*
X00771Y0079*
X00771Y00789*
X00771Y00789*
X00771Y00788*
X00772Y00786*
X00772Y00785*
X00772Y00783*
Y00783*
Y00782*
Y00782*
Y00782*
X00772Y00782*
Y00781*
X00772Y0078*
X00772Y00779*
X00771Y00778*
X00771Y00776*
X00771Y00775*
Y00775*
X00771Y00775*
X00771Y00775*
X00771Y00774*
X0077Y00774*
X0077Y00773*
X0077Y00772*
X00769Y00771*
X00769Y0077*
X00768Y00769*
X00768Y00769*
X00768Y00769*
X00768Y00769*
X00767Y00768*
X00767Y00768*
X00766Y00767*
X00765Y00766*
X00765Y00766*
X00765Y00766*
X00764Y00766*
X00764Y00765*
X00763Y00765*
X00763Y00765*
X00762Y00765*
X00761Y00764*
X0076Y00764*
X0076*
X0076Y00764*
X0076Y00764*
X00759Y00764*
X00758Y00764*
X00757Y00764*
X00756Y00763*
X00755Y00763*
X00754Y00763*
X0074*
Y00802*
X00755*
X00756Y00802*
G37*
G36*
X0072D02*
X0072D01*
X00721Y00802*
X00723Y00801*
X00724Y00801*
X00725Y00801*
X00726Y00801*
X00726Y00801*
X00726*
X00726Y00801*
X00727Y008*
X00727Y008*
X00728Y008*
X00728Y00799*
X00729Y00799*
X0073Y00798*
X00731Y00797*
Y00797*
X00731Y00797*
X00731Y00797*
X00731Y00796*
X00731Y00795*
X00732Y00794*
X00732Y00793*
X00732Y00792*
X00732Y00791*
Y00791*
Y00791*
Y00791*
X00732Y00791*
Y0079*
X00732Y0079*
X00732Y00789*
X00731Y00788*
X00731Y00787*
X0073Y00785*
X0073Y00785*
X00729Y00784*
X00729Y00784*
X00729Y00784*
X00729Y00784*
X00729Y00784*
X00729Y00784*
X00728Y00783*
X00728Y00783*
X00727Y00783*
X00727Y00782*
X00726Y00782*
X00726Y00782*
X00725Y00782*
X00724Y00781*
X00723Y00781*
X00722Y00781*
X00721Y00781*
X00721Y00781*
X00722Y00781*
X00722Y0078*
X00722Y0078*
X00723Y0078*
X00724Y00779*
X00724Y00779*
X00724Y00779*
X00725Y00778*
X00725Y00778*
X00726Y00777*
X00726Y00777*
X00727Y00776*
X00728Y00775*
X00729Y00774*
X00735Y00763*
X00729*
X00724Y00771*
Y00771*
X00724Y00771*
X00724Y00772*
X00723Y00772*
X00723Y00772*
X00723Y00773*
X00722Y00774*
X00721Y00775*
X00721Y00776*
X0072Y00777*
X0072Y00777*
X0072Y00777*
X0072Y00777*
X00719Y00778*
X00718Y00778*
X00718Y00779*
X00718Y00779*
X00717Y00779*
X00717Y00779*
X00717Y00779*
X00717Y00779*
X00717Y0078*
X00716Y0078*
X00715Y0078*
X00715*
X00715Y0078*
X00715*
X00715Y0078*
X00714Y0078*
X00714*
X00713Y0078*
X00707*
Y00763*
X00701*
Y00802*
X00719*
X0072Y00802*
G37*
G36*
X00697Y00763D02*
X00692D01*
X00687Y00775*
X00671*
X00667Y00763*
X00661*
X00676Y00802*
X00682*
X00697Y00763*
G37*
G36*
X00603Y00802D02*
X00604D01*
X00605Y00802*
X00606Y00801*
X00607Y00801*
X00608Y00801*
X00609Y00801*
X00609*
X00609Y008*
X0061Y008*
X0061Y008*
X00611Y008*
X00611Y00799*
X00612Y00799*
X00613Y00798*
X00613Y00797*
X00613Y00797*
X00614Y00796*
X00614Y00796*
X00614Y00795*
X00614Y00795*
X00615Y00794*
X00615Y00793*
X00615Y00792*
Y00792*
Y00791*
X00615Y00791*
X00615Y0079*
X00615Y0079*
X00614Y00789*
X00614Y00788*
X00614Y00787*
X00614Y00787*
X00613Y00787*
X00613Y00786*
X00613Y00786*
X00612Y00785*
X00611Y00785*
X00611Y00784*
X0061Y00784*
X0061*
X0061Y00784*
X0061Y00784*
X0061Y00784*
X00611Y00783*
X00612Y00783*
X00612Y00782*
X00613Y00782*
X00614Y00781*
X00615Y0078*
X00615Y0078*
X00615Y0078*
X00616Y00779*
X00616Y00779*
X00616Y00778*
X00617Y00777*
X00617Y00776*
X00617Y00774*
Y00774*
Y00774*
Y00774*
X00617Y00773*
X00617Y00773*
X00617Y00772*
X00616Y00771*
X00616Y0077*
X00616Y00769*
X00616Y00769*
X00615Y00769*
X00615Y00769*
X00615Y00768*
X00614Y00768*
X00614Y00767*
X00613Y00766*
X00613Y00766*
X00613Y00766*
X00613Y00766*
X00612Y00765*
X00612Y00765*
X00611Y00765*
X0061Y00764*
X0061Y00764*
X00609Y00764*
X00609*
X00608Y00764*
X00608Y00764*
X00607Y00764*
X00606Y00764*
X00605Y00763*
X00604Y00763*
X00603Y00763*
X00588*
Y00802*
X00603*
X00603Y00802*
G37*
G36*
X00568D02*
X00568D01*
X00569Y00802*
X00571Y00801*
X00572Y00801*
X00573Y00801*
X00574Y00801*
X00574Y00801*
X00574*
X00574Y00801*
X00575Y008*
X00575Y008*
X00576Y008*
X00576Y00799*
X00577Y00799*
X00578Y00798*
X00578Y00797*
Y00797*
X00579Y00797*
X00579Y00797*
X00579Y00796*
X00579Y00795*
X0058Y00794*
X0058Y00793*
X0058Y00792*
X0058Y00791*
Y00791*
Y00791*
Y00791*
X0058Y00791*
Y0079*
X0058Y0079*
X0058Y00789*
X00579Y00788*
X00579Y00787*
X00578Y00785*
X00578Y00785*
X00577Y00784*
X00577Y00784*
X00577Y00784*
X00577Y00784*
X00577Y00784*
X00577Y00784*
X00576Y00783*
X00576Y00783*
X00575Y00783*
X00575Y00782*
X00574Y00782*
X00574Y00782*
X00573Y00782*
X00572Y00781*
X00571Y00781*
X0057Y00781*
X00569Y00781*
X00569Y00781*
X0057Y00781*
X0057Y0078*
X0057Y0078*
X00571Y0078*
X00572Y00779*
X00572Y00779*
X00572Y00779*
X00573Y00778*
X00573Y00778*
X00574Y00777*
X00574Y00777*
X00575Y00776*
X00576Y00775*
X00577Y00774*
X00583Y00763*
X00577*
X00572Y00771*
Y00771*
X00572Y00771*
X00572Y00772*
X00571Y00772*
X00571Y00772*
X0057Y00773*
X0057Y00774*
X00569Y00775*
X00569Y00776*
X00568Y00777*
X00568Y00777*
X00568Y00777*
X00568Y00777*
X00567Y00778*
X00566Y00778*
X00566Y00779*
X00565Y00779*
X00565Y00779*
X00565Y00779*
X00565Y00779*
X00565Y00779*
X00564Y0078*
X00564Y0078*
X00563Y0078*
X00563*
X00563Y0078*
X00563*
X00562Y0078*
X00562Y0078*
X00562*
X00561Y0078*
X00554*
Y00763*
X00549*
Y00802*
X00567*
X00568Y00802*
G37*
G36*
X00541Y00797D02*
X00519D01*
Y00785*
X0054*
Y00781*
X00519*
Y00768*
X00542*
Y00763*
X00514*
Y00802*
X00541*
Y00797*
G37*
G36*
X00402Y00802D02*
X00403Y00802D01*
X00404Y00802*
X00405Y00801*
X00406Y00801*
X00406*
X00406Y00801*
X00407Y00801*
X00407Y00801*
X00408Y00801*
X00409Y008*
X0041Y008*
X0041Y00799*
X0041Y00799*
X00411Y00799*
X00411Y00799*
X00411Y00799*
X00412Y00798*
X00412Y00797*
X00413Y00797*
X00413Y00796*
X00414Y00796*
X00414Y00795*
X00414Y00795*
X00414Y00794*
X00414Y00793*
X00414Y00793*
X00415Y00792*
X00415Y00791*
Y0079*
Y0079*
Y0079*
X00415Y0079*
X00415Y00789*
X00414Y00789*
X00414Y00788*
X00414Y00788*
X00414Y00786*
X00414Y00786*
X00413Y00785*
X00413Y00784*
X00413Y00784*
X00412Y00783*
X00411Y00782*
X00411Y00782*
X00411Y00782*
X00411Y00782*
X00411Y00782*
X00411Y00781*
X0041Y00781*
X0041Y00781*
X00409Y00781*
X00408Y0078*
X00407Y0078*
X00406Y0078*
X00405Y00779*
X00404Y00779*
X00403Y00779*
X00402Y00779*
X004Y00779*
X0039*
Y00763*
X00385*
Y00802*
X00401*
X00402Y00802*
G37*
G36*
X00976Y00802D02*
X00976Y00802D01*
X00977Y00802*
X00978Y00801*
X00979Y00801*
X0098Y00801*
X0098*
X0098Y00801*
X0098Y008*
X00981Y008*
X00981Y008*
X00982Y00799*
X00983Y00799*
X00983Y00798*
X00984Y00797*
X00984Y00797*
X00984Y00797*
X00984Y00796*
X00985Y00795*
X00985Y00795*
X00986Y00794*
X00986Y00792*
X00986Y00791*
Y00791*
X00986Y00791*
X00986Y00791*
X00986Y00791*
X00986Y0079*
X00987Y0079*
X00987Y00789*
X00987Y00789*
X00987Y00788*
X00987Y00788*
X00987Y00787*
X00987Y00786*
X00987Y00785*
Y00784*
X00987Y00783*
Y00782*
Y00782*
Y00782*
Y00782*
Y00781*
X00987Y0078*
Y0078*
X00987Y00779*
X00987Y00778*
X00987Y00777*
X00987Y00775*
X00986Y00773*
X00986Y00772*
X00986Y00771*
Y00771*
X00986Y00771*
X00986Y00771*
X00985Y00771*
X00985Y0077*
X00985Y0077*
X00985Y00769*
X00984Y00768*
X00983Y00767*
X00983Y00766*
X00982Y00765*
X00981*
X00981Y00765*
X00981Y00765*
X00981Y00765*
X00981Y00764*
X0098Y00764*
X0098Y00764*
X00979Y00763*
X00977Y00763*
X00976Y00763*
X00975Y00763*
X00974*
X00974Y00763*
X00973Y00763*
X00973Y00763*
X00972Y00763*
X00971Y00763*
X00971Y00763*
X0097Y00764*
X00969Y00764*
X00969Y00764*
X00968Y00765*
X00967Y00765*
X00966Y00766*
X00966Y00767*
X00966Y00767*
X00966Y00767*
X00965Y00767*
X00965Y00768*
X00965Y00768*
X00965Y00769*
X00964Y00769*
X00964Y0077*
X00964Y00771*
X00963Y00772*
X00963Y00774*
X00963Y00775*
X00962Y00777*
X00962Y00778*
X00962Y0078*
X00962Y00782*
Y00782*
Y00782*
Y00783*
Y00783*
X00962Y00784*
Y00785*
X00962Y00785*
X00962Y00786*
X00962Y00788*
X00963Y0079*
X00963Y00792*
X00963Y00792*
X00963Y00793*
Y00793*
X00963Y00793*
X00964Y00794*
X00964Y00794*
X00964Y00794*
X00964Y00795*
X00964Y00796*
X00965Y00797*
X00966Y00798*
X00967Y00799*
X00968Y008*
X00968*
X00968Y008*
X00968Y008*
X00968Y008*
X00968Y008*
X00969Y008*
X0097Y00801*
X00971Y00801*
X00972Y00802*
X00973Y00802*
X00975Y00802*
X00975*
X00976Y00802*
G37*
G36*
X00946D02*
X00947Y00802D01*
X00947Y00802*
X00948Y00801*
X00949Y00801*
X0095Y00801*
X0095*
X0095Y00801*
X0095Y008*
X00951Y008*
X00951Y008*
X00952Y00799*
X00953Y00799*
X00953Y00798*
X00954Y00797*
X00954Y00797*
X00954Y00797*
X00954Y00796*
X00955Y00795*
X00955Y00795*
X00956Y00794*
X00956Y00792*
X00956Y00791*
Y00791*
X00956Y00791*
X00956Y00791*
X00957Y00791*
X00957Y0079*
X00957Y0079*
X00957Y00789*
X00957Y00789*
X00957Y00788*
X00957Y00788*
X00957Y00787*
X00957Y00786*
X00957Y00785*
Y00784*
X00957Y00783*
Y00782*
Y00782*
Y00782*
Y00782*
Y00781*
X00957Y0078*
Y0078*
X00957Y00779*
X00957Y00778*
X00957Y00777*
X00957Y00775*
X00956Y00773*
X00956Y00772*
X00956Y00771*
Y00771*
X00956Y00771*
X00956Y00771*
X00956Y00771*
X00955Y0077*
X00955Y0077*
X00955Y00769*
X00954Y00768*
X00953Y00767*
X00953Y00766*
X00952Y00765*
X00952*
X00952Y00765*
X00951Y00765*
X00951Y00765*
X00951Y00764*
X00951Y00764*
X0095Y00764*
X00949Y00763*
X00948Y00763*
X00946Y00763*
X00945Y00763*
X00944*
X00944Y00763*
X00943Y00763*
X00943Y00763*
X00942Y00763*
X00941Y00763*
X00941Y00763*
X0094Y00764*
X00939Y00764*
X00939Y00764*
X00938Y00765*
X00937Y00765*
X00937Y00766*
X00936Y00767*
X00936Y00767*
X00936Y00767*
X00936Y00767*
X00935Y00768*
X00935Y00768*
X00935Y00769*
X00934Y00769*
X00934Y0077*
X00934Y00771*
X00933Y00772*
X00933Y00774*
X00933Y00775*
X00933Y00777*
X00932Y00778*
X00932Y0078*
X00932Y00782*
Y00782*
Y00782*
Y00783*
Y00783*
X00932Y00784*
Y00785*
X00932Y00785*
X00932Y00786*
X00933Y00788*
X00933Y0079*
X00933Y00792*
X00933Y00792*
X00934Y00793*
Y00793*
X00934Y00793*
X00934Y00794*
X00934Y00794*
X00934Y00794*
X00934Y00795*
X00935Y00796*
X00935Y00797*
X00936Y00798*
X00937Y00799*
X00938Y008*
X00938*
X00938Y008*
X00938Y008*
X00938Y008*
X00939Y008*
X00939Y008*
X0094Y00801*
X00941Y00801*
X00942Y00802*
X00943Y00802*
X00945Y00802*
X00945*
X00946Y00802*
G37*
G36*
X00835D02*
X00836Y00802D01*
X00837Y00802*
X00838Y00801*
X00839Y00801*
X0084Y00801*
X0084*
X0084Y00801*
X0084Y008*
X0084Y008*
X00841Y008*
X00842Y00799*
X00842Y00799*
X00843Y00798*
X00844Y00797*
X00844Y00797*
X00844Y00797*
X00844Y00796*
X00844Y00795*
X00845Y00795*
X00845Y00794*
X00846Y00792*
X00846Y00791*
Y00791*
X00846Y00791*
X00846Y00791*
X00846Y00791*
X00846Y0079*
X00846Y0079*
X00846Y00789*
X00846Y00789*
X00846Y00788*
X00847Y00788*
X00847Y00787*
X00847Y00786*
X00847Y00785*
Y00784*
X00847Y00783*
Y00782*
Y00782*
Y00782*
Y00782*
Y00781*
X00847Y0078*
Y0078*
X00847Y00779*
X00847Y00778*
X00846Y00777*
X00846Y00775*
X00846Y00773*
X00846Y00772*
X00845Y00771*
Y00771*
X00845Y00771*
X00845Y00771*
X00845Y00771*
X00845Y0077*
X00845Y0077*
X00844Y00769*
X00844Y00768*
X00843Y00767*
X00842Y00766*
X00841Y00765*
X00841*
X00841Y00765*
X00841Y00765*
X00841Y00765*
X0084Y00764*
X0084Y00764*
X00839Y00764*
X00838Y00763*
X00837Y00763*
X00836Y00763*
X00834Y00763*
X00834*
X00833Y00763*
X00833Y00763*
X00832Y00763*
X00832Y00763*
X00831Y00763*
X0083Y00763*
X0083Y00764*
X00829Y00764*
X00828Y00764*
X00828Y00765*
X00827Y00765*
X00826Y00766*
X00826Y00767*
X00825Y00767*
X00825Y00767*
X00825Y00767*
X00825Y00768*
X00825Y00768*
X00824Y00769*
X00824Y00769*
X00824Y0077*
X00823Y00771*
X00823Y00772*
X00823Y00774*
X00822Y00775*
X00822Y00777*
X00822Y00778*
X00822Y0078*
X00822Y00782*
Y00782*
Y00782*
Y00783*
Y00783*
X00822Y00784*
Y00785*
X00822Y00785*
X00822Y00786*
X00822Y00788*
X00822Y0079*
X00823Y00792*
X00823Y00792*
X00823Y00793*
Y00793*
X00823Y00793*
X00823Y00794*
X00823Y00794*
X00824Y00794*
X00824Y00795*
X00824Y00796*
X00825Y00797*
X00825Y00798*
X00826Y00799*
X00827Y008*
X00827*
X00827Y008*
X00828Y008*
X00828Y008*
X00828Y008*
X00828Y008*
X00829Y00801*
X0083Y00801*
X00831Y00802*
X00833Y00802*
X00834Y00802*
X00835*
X00835Y00802*
G37*
G36*
X00642Y00802D02*
X00642D01*
X00643Y00802*
X00643Y00802*
X00644Y00802*
X00645Y00802*
X00647Y00801*
X00649Y00801*
X00649Y008*
X0065Y008*
X0065Y008*
X0065Y008*
X00651Y008*
X00651Y00799*
X00651Y00799*
X00652Y00799*
X00653Y00798*
X00654Y00797*
X00655Y00796*
X00656Y00794*
X00657Y00793*
Y00793*
X00657Y00792*
X00657Y00792*
X00657Y00792*
X00657Y00791*
X00658Y00791*
X00658Y0079*
X00658Y0079*
X00658Y00789*
X00658Y00788*
X00659Y00787*
X00659Y00786*
X00659Y00784*
X00659Y00782*
Y00782*
Y00782*
Y00782*
X00659Y00781*
Y00781*
X00659Y0078*
X00659Y0078*
X00659Y00779*
X00659Y00777*
X00658Y00775*
X00657Y00774*
X00657Y00773*
X00657Y00772*
Y00772*
X00657Y00772*
X00656Y00771*
X00656Y00771*
X00656Y00771*
X00656Y0077*
X00655Y00769*
X00654Y00768*
X00653Y00767*
X00652Y00766*
X0065Y00765*
X0065*
X0065Y00765*
X0065Y00765*
X00649Y00765*
X00649Y00764*
X00648Y00764*
X00648Y00764*
X00647Y00764*
X00647Y00764*
X00646Y00763*
X00644Y00763*
X00643Y00763*
X00641Y00763*
X0064*
X0064Y00763*
X00639*
X00639Y00763*
X00638Y00763*
X00637Y00763*
X00636Y00763*
X00634Y00764*
X00633Y00764*
X00632Y00765*
X00631Y00765*
X00631Y00765*
X00631Y00765*
X00631Y00766*
X0063Y00766*
X0063Y00766*
X0063Y00766*
X00629Y00767*
X00628Y00768*
X00626Y00769*
X00625Y00771*
X00624Y00772*
Y00772*
X00624Y00773*
X00624Y00773*
X00624Y00773*
X00624Y00774*
X00624Y00774*
X00624Y00775*
X00623Y00775*
X00623Y00776*
X00623Y00777*
X00623Y00778*
X00622Y0078*
X00622Y00782*
Y00782*
Y00782*
Y00782*
X00622Y00783*
Y00784*
X00622Y00784*
X00623Y00785*
X00623Y00786*
X00623Y00787*
X00623Y00789*
X00624Y0079*
X00624Y00791*
X00624Y00792*
X00625Y00794*
X00626Y00795*
X00627Y00796*
X00627Y00797*
X00627Y00797*
X00628Y00797*
X00628Y00797*
X00628Y00798*
X00629Y00798*
X00629Y00799*
X0063Y00799*
X00631Y008*
X00632Y008*
X00633Y00801*
X00634Y00801*
X00635Y00802*
X00636Y00802*
X00638Y00802*
X00639Y00802*
X00641Y00802*
X00641*
X00642Y00802*
G37*
G36*
X00439D02*
X00439D01*
X0044Y00802*
X0044Y00802*
X00441Y00802*
X00443Y00802*
X00444Y00801*
X00446Y00801*
X00447Y008*
X00448Y008*
X00448Y008*
X00448Y008*
X00448Y008*
X00448Y00799*
X00449Y00799*
X00449Y00799*
X0045Y00798*
X00451Y00797*
X00452Y00796*
X00453Y00794*
X00454Y00793*
Y00793*
X00454Y00792*
X00454Y00792*
X00454Y00792*
X00455Y00791*
X00455Y00791*
X00455Y0079*
X00455Y0079*
X00455Y00789*
X00456Y00788*
X00456Y00787*
X00456Y00786*
X00456Y00784*
X00456Y00782*
Y00782*
Y00782*
Y00782*
X00456Y00781*
Y00781*
X00456Y0078*
X00456Y0078*
X00456Y00779*
X00456Y00777*
X00455Y00775*
X00455Y00774*
X00454Y00773*
X00454Y00772*
Y00772*
X00454Y00772*
X00454Y00771*
X00453Y00771*
X00453Y00771*
X00453Y0077*
X00452Y00769*
X00451Y00768*
X0045Y00767*
X00449Y00766*
X00447Y00765*
X00447*
X00447Y00765*
X00447Y00765*
X00446Y00765*
X00446Y00764*
X00446Y00764*
X00445Y00764*
X00444Y00764*
X00444Y00764*
X00443Y00763*
X00441Y00763*
X0044Y00763*
X00438Y00763*
X00437*
X00437Y00763*
X00437*
X00436Y00763*
X00435Y00763*
X00435Y00763*
X00433Y00763*
X00432Y00764*
X0043Y00764*
X00429Y00765*
X00428Y00765*
X00428Y00765*
X00428Y00765*
X00428Y00766*
X00428Y00766*
X00427Y00766*
X00427Y00766*
X00426Y00767*
X00425Y00768*
X00424Y00769*
X00423Y00771*
X00422Y00772*
Y00772*
X00422Y00773*
X00422Y00773*
X00421Y00773*
X00421Y00774*
X00421Y00774*
X00421Y00775*
X00421Y00775*
X0042Y00776*
X0042Y00777*
X0042Y00778*
X0042Y0078*
X0042Y00782*
Y00782*
Y00782*
Y00782*
X0042Y00783*
Y00784*
X0042Y00784*
X0042Y00785*
X0042Y00786*
X0042Y00787*
X0042Y00789*
X00421Y0079*
X00421Y00791*
X00422Y00792*
X00422Y00794*
X00423Y00795*
X00424Y00796*
X00425Y00797*
X00425Y00797*
X00425Y00797*
X00425Y00797*
X00426Y00798*
X00426Y00798*
X00427Y00799*
X00427Y00799*
X00428Y008*
X00429Y008*
X0043Y00801*
X00431Y00801*
X00432Y00802*
X00434Y00802*
X00435Y00802*
X00436Y00802*
X00438Y00802*
X00438*
X00439Y00802*
G37*
G36*
X01169Y00963D02*
X01151D01*
X01151Y00963*
X0115*
X01149Y00963*
X01148Y00963*
X01146Y00964*
X01145Y00964*
X01144Y00964*
X01144Y00964*
X01144*
X01144Y00964*
X01144Y00964*
X01143Y00965*
X01142Y00965*
X01142Y00965*
X01141Y00966*
X0114Y00967*
X0114Y00968*
Y00968*
X0114Y00968*
X01139Y00968*
X01139Y00969*
X01139Y0097*
X01139Y0097*
X01138Y00971*
X01138Y00972*
X01138Y00974*
Y00974*
Y00974*
Y00974*
X01138Y00974*
Y00975*
X01138Y00975*
X01138Y00976*
X01139Y00977*
X01139Y00978*
X0114Y00979*
X0114Y0098*
X01141Y0098*
X01141Y00981*
X01141Y00981*
X01141Y00981*
X01141Y00981*
X01142Y00981*
X01142Y00981*
X01142Y00982*
X01143Y00982*
X01143Y00982*
X01144Y00983*
X01145Y00983*
X01145Y00983*
X01146Y00983*
X01147Y00984*
X01148Y00984*
X01149Y00984*
X01149Y00984*
X01149Y00984*
X01148Y00984*
X01148Y00985*
X01147Y00985*
X01146Y00986*
X01146Y00986*
X01146Y00986*
X01145Y00986*
X01145Y00987*
X01144Y00987*
X01144Y00988*
X01143Y00989*
X01142Y0099*
X01142Y00991*
X01135Y01001*
X01141*
X01146Y00993*
Y00993*
X01147Y00993*
X01147Y00993*
X01147Y00993*
X01147Y00992*
X01148Y00992*
X01148Y00991*
X01149Y0099*
X0115Y00989*
X0115Y00988*
X0115Y00988*
X0115Y00988*
X01151Y00988*
X01151Y00987*
X01152Y00986*
X01152Y00986*
X01153Y00986*
X01153Y00986*
X01153Y00986*
X01153Y00985*
X01153Y00985*
X01154Y00985*
X01154Y00985*
X01155Y00985*
X01155*
X01155Y00985*
X01155*
X01156Y00985*
X01156Y00984*
X01157*
X01157Y00984*
X01164*
Y01001*
X01169*
Y00963*
G37*
G36*
X01119Y00971D02*
X01119Y00972D01*
X01119Y00972*
X0112Y00972*
X0112Y00972*
X01121Y00973*
X01122Y00974*
X01123Y00974*
X01124Y00975*
X01124*
X01124Y00975*
X01124Y00975*
X01125Y00975*
X01125Y00976*
X01126Y00976*
X01127Y00976*
X01128Y00977*
X01128Y00977*
Y00973*
X01128*
X01128Y00972*
X01128Y00972*
X01128Y00972*
X01127Y00972*
X01127Y00972*
X01126Y00971*
X01125Y00971*
X01124Y0097*
X01123Y00969*
X01122Y00968*
X01122Y00968*
X01121Y00968*
X01121Y00968*
X01121Y00968*
X01121Y00967*
X0112Y00966*
X01119Y00966*
X01119Y00965*
X01118Y00964*
X01117Y00963*
X01114*
Y01001*
X01119*
Y00971*
G37*
G36*
X01091Y01002D02*
X01091Y01002D01*
X01092Y01002*
X01092Y01002*
X01093Y01002*
X01094Y01001*
X01094Y01001*
X01095Y01001*
X01096Y01*
X01096Y01*
X01097Y00999*
X01098Y00999*
X01098Y00998*
X01098Y00998*
X01099Y00998*
X01099Y00998*
X01099Y00997*
X01099Y00997*
X011Y00996*
X011Y00995*
X011Y00994*
X01101Y00993*
X01101Y00992*
X01101Y00991*
X01102Y0099*
X01102Y00988*
X01102Y00986*
X01102Y00984*
X01102Y00983*
Y00982*
Y00982*
Y00982*
Y00981*
X01102Y00981*
Y0098*
X01102Y00979*
X01102Y00979*
X01102Y00977*
X01102Y00975*
X01101Y00973*
X01101Y00972*
X01101Y00972*
Y00972*
X01101Y00971*
X01101Y00971*
X01101Y00971*
X011Y00971*
X011Y0097*
X011Y00969*
X01099Y00968*
X01098Y00967*
X01098Y00966*
X01097Y00965*
X01097*
X01097Y00965*
X01096Y00965*
X01096Y00965*
X01096Y00965*
X01096Y00964*
X01095Y00964*
X01094Y00964*
X01093Y00963*
X01091Y00963*
X0109Y00963*
X01089*
X01089Y00963*
X01088Y00963*
X01087Y00963*
X01086Y00963*
X01085Y00964*
X01084Y00964*
X01084*
X01084Y00964*
X01084Y00964*
X01083Y00965*
X01083Y00965*
X01082Y00966*
X01082Y00966*
X01081Y00967*
X0108Y00968*
X0108Y00968*
X0108Y00968*
X0108Y00969*
X01079Y00969*
X01079Y0097*
X01079Y00971*
X01078Y00972*
X01078Y00974*
Y00974*
X01078Y00974*
X01078Y00974*
X01078Y00974*
X01078Y00974*
X01078Y00975*
X01078Y00975*
X01078Y00976*
X01077Y00976*
X01077Y00977*
X01077Y00978*
X01077Y00979*
X01077Y0098*
Y0098*
X01077Y00981*
Y00983*
Y00983*
Y00983*
Y00983*
Y00984*
X01077Y00984*
Y00985*
X01077Y00986*
X01077Y00986*
X01077Y00988*
X01078Y0099*
X01078Y00992*
X01078Y00993*
X01079Y00993*
Y00994*
X01079Y00994*
X01079Y00994*
X01079Y00994*
X01079Y00995*
X01079Y00995*
X0108Y00996*
X0108Y00997*
X01081Y00998*
X01082Y00999*
X01083Y01*
X01083*
X01083Y01*
X01083Y01*
X01083Y01*
X01083Y01*
X01084Y01001*
X01085Y01001*
X01086Y01001*
X01087Y01002*
X01088Y01002*
X0109Y01002*
X0109*
X01091Y01002*
G37*
G36*
X01219Y00825D02*
X0121D01*
X01209Y00825*
X01209*
X01209Y00825*
X01208Y00825*
X01207Y00825*
X01207Y00825*
X01206Y00825*
X01206Y00825*
X01206*
X01206Y00825*
X01206Y00826*
X01205Y00826*
X01205Y00826*
X01205Y00826*
X01204Y00826*
X01204Y00827*
X01204Y00827*
Y00827*
X01204Y00827*
X01204Y00828*
X01203Y00828*
X01203Y00828*
X01203Y00829*
X01203Y00829*
X01203Y0083*
X01203Y0083*
Y0083*
Y0083*
Y00831*
X01203Y00831*
Y00831*
X01203Y00831*
X01203Y00832*
X01203Y00832*
X01203Y00833*
X01204Y00833*
X01204Y00834*
X01204Y00834*
X01204Y00834*
X01204Y00834*
X01204Y00834*
X01205Y00834*
X01205Y00834*
X01205Y00834*
X01205Y00835*
X01205Y00835*
X01206Y00835*
X01206Y00835*
X01206Y00835*
X01207Y00835*
X01207Y00835*
X01208Y00836*
X01208Y00836*
X01209Y00836*
X01209Y00836*
X01208Y00836*
X01208Y00836*
X01208Y00836*
X01207Y00836*
X01207Y00837*
X01207Y00837*
X01207Y00837*
X01207Y00837*
X01207Y00837*
X01206Y00838*
X01206Y00838*
X01206Y00838*
X01205Y00839*
X01205Y0084*
X01201Y00845*
X01205*
X01207Y00841*
Y00841*
X01207Y00841*
X01207Y00841*
X01207Y0084*
X01208Y0084*
X01208Y0084*
X01208Y00839*
X01209Y00839*
X01209Y00838*
X01209Y00838*
X01209Y00838*
X01209Y00838*
X01209Y00838*
X0121Y00837*
X0121Y00837*
X0121Y00837*
X01211Y00837*
X01211Y00837*
X01211Y00837*
X01211Y00837*
X01211Y00836*
X01211Y00836*
X01211Y00836*
X01212Y00836*
X01212*
X01212Y00836*
X01212*
X01212Y00836*
X01212Y00836*
X01213*
X01213Y00836*
X01216*
Y00845*
X01219*
Y00825*
G37*
G36*
X01193Y00829D02*
X01193Y00829D01*
X01193Y00829*
X01193Y0083*
X01194Y0083*
X01194Y0083*
X01194Y0083*
X01195Y00831*
X01195Y00831*
X01195*
X01195Y00831*
X01195Y00831*
X01196Y00831*
X01196Y00831*
X01197Y00832*
X01197Y00832*
X01197Y00832*
X01198Y00832*
Y0083*
X01198*
X01198Y0083*
X01198Y0083*
X01197Y0083*
X01197Y0083*
X01197Y00829*
X01197Y00829*
X01196Y00829*
X01195Y00828*
X01195Y00828*
X01194Y00827*
X01194Y00827*
X01194Y00827*
X01194Y00827*
X01194Y00827*
X01194Y00827*
X01193Y00827*
X01193Y00826*
X01193Y00826*
X01192Y00825*
X01192Y00825*
X0119*
Y00845*
X01193*
Y00829*
G37*
G36*
X01177D02*
X01177Y00829D01*
X01177Y00829*
X01178Y0083*
X01178Y0083*
X01178Y0083*
X01179Y0083*
X01179Y00831*
X0118Y00831*
X0118*
X0118Y00831*
X0118Y00831*
X0118Y00831*
X0118Y00831*
X01181Y00832*
X01181Y00832*
X01182Y00832*
X01182Y00832*
Y0083*
X01182*
X01182Y0083*
X01182Y0083*
X01182Y0083*
X01182Y0083*
X01181Y00829*
X01181Y00829*
X0118Y00829*
X0118Y00828*
X01179Y00828*
X01179Y00827*
X01179Y00827*
X01179Y00827*
X01178Y00827*
X01178Y00827*
X01178Y00827*
X01178Y00827*
X01177Y00826*
X01177Y00826*
X01177Y00825*
X01176Y00825*
X01175*
Y00845*
X01177*
Y00829*
G37*
G36*
X01153Y0105D02*
X01153D01*
X01154Y0105*
X01155Y0105*
X01155Y0105*
X01157Y0105*
X01159Y01049*
X0116Y01049*
X01161Y01048*
X01162Y01048*
X01162Y01048*
X01162Y01048*
X01162Y01048*
X01162Y01047*
X01163Y01047*
X01163Y01047*
X01164Y01046*
X01164Y01046*
X01165Y01045*
X01165Y01045*
X01166Y01044*
X01167Y01042*
X01168Y01041*
Y0104*
X01168Y0104*
X01168Y0104*
X01168Y0104*
X01168Y01039*
X01168Y01039*
X01169Y01038*
X01169Y01037*
X01169Y01037*
X01169Y01036*
X01169Y01034*
X0117Y01032*
X0117Y0103*
Y0103*
Y0103*
Y0103*
X0117Y01029*
Y01029*
X0117Y01028*
X0117Y01027*
X0117Y01027*
X01169Y01025*
X01169Y01023*
X01168Y01022*
X01168Y0102*
X01167Y0102*
X01167Y0102*
X01167Y01019*
X01167Y01019*
X01167Y01019*
X01167Y01018*
X01166Y01017*
X01165Y01016*
X01164Y01015*
X01163Y01014*
X01161Y01013*
X01161Y01013*
X01161Y01013*
X01161Y01013*
X0116Y01013*
X0116Y01012*
X01159Y01012*
X01159Y01012*
X01158Y01012*
X01158Y01012*
X01157Y01011*
X01155Y01011*
X01154Y01011*
X01152Y01011*
X01151*
X01151Y01011*
X0115Y01011*
X0115Y01011*
X01149Y01011*
X01148Y01011*
X01147Y01011*
X01145Y01012*
X01144Y01012*
X01144Y01013*
X01143Y01013*
X01142Y01014*
X01142Y01014*
X01142Y01014*
X01142Y01014*
X01141Y01014*
X01141Y01014*
X01141Y01015*
X0114Y01015*
X0114Y01016*
X01139Y01016*
X01139Y01017*
X01138Y01018*
X01138Y01018*
X01138Y01019*
X01137Y0102*
X01137Y01021*
X01136Y01022*
X01141Y01023*
Y01023*
X01142Y01023*
X01142Y01023*
X01142Y01022*
X01142Y01022*
X01142Y01022*
X01142Y01021*
X01143Y0102*
X01144Y01019*
X01145Y01018*
X01145Y01017*
X01146Y01017*
X01146Y01017*
X01146Y01016*
X01147Y01016*
X01148Y01016*
X01149Y01015*
X0115Y01015*
X01152Y01015*
X01152*
X01153Y01015*
X01153*
X01153Y01015*
X01154Y01015*
X01156Y01015*
X01157Y01016*
X01158Y01016*
X01159Y01017*
X01159*
X01159Y01017*
X0116Y01018*
X0116Y01018*
X01161Y01019*
X01162Y01019*
X01162Y0102*
X01163Y01022*
X01163Y01023*
Y01023*
X01163Y01023*
X01164Y01023*
X01164Y01023*
X01164Y01024*
X01164Y01024*
X01164Y01025*
X01164Y01026*
X01164Y01027*
X01165Y01029*
X01165Y0103*
Y0103*
Y0103*
Y01031*
Y01031*
X01165Y01031*
Y01032*
X01164Y01032*
X01164Y01033*
X01164Y01034*
X01164Y01036*
X01164Y01037*
X01163Y01039*
Y01039*
X01163Y01039*
X01163Y01039*
X01163Y01039*
X01163Y0104*
X01162Y01041*
X01161Y01042*
X01161Y01043*
X0116Y01043*
X01159Y01044*
X01159*
X01159Y01044*
X01158Y01044*
X01158Y01045*
X01158Y01045*
X01158Y01045*
X01157Y01045*
X01156Y01045*
X01155Y01046*
X01153Y01046*
X01152Y01046*
X01152*
X01151Y01046*
X01151*
X01151Y01046*
X0115Y01046*
X01149Y01045*
X01147Y01045*
X01146Y01044*
X01146Y01044*
X01145Y01044*
X01145Y01044*
X01145Y01043*
X01145Y01043*
X01144Y01043*
X01144Y01043*
X01144Y01043*
X01144Y01042*
X01143Y01042*
X01143Y01041*
X01143Y01041*
X01142Y0104*
X01142Y01039*
X01142Y01039*
X01141Y01038*
X01141Y01037*
X01141Y01036*
X01136Y01038*
Y01038*
X01136Y01038*
X01136Y01038*
X01136Y01039*
X01136Y01039*
X01137Y0104*
X01137Y0104*
X01137Y01041*
X01138Y01043*
X01139Y01044*
X0114Y01045*
X0114Y01046*
X01141Y01046*
X01142Y01047*
X01142Y01047*
X01142Y01047*
X01142Y01047*
X01142Y01048*
X01143Y01048*
X01143Y01048*
X01144Y01048*
X01144Y01049*
X01145Y01049*
X01146Y01049*
X01147Y0105*
X01148Y0105*
X01149Y0105*
X0115Y0105*
X01151Y0105*
X01152Y0105*
X01152*
X01153Y0105*
G37*
G36*
X01087Y0104D02*
X01103D01*
Y01036*
X01086Y01011*
X01082*
Y01036*
X01077*
Y0104*
X01082*
Y0105*
X01087*
Y0104*
G37*
G36*
X01118Y0102D02*
X01118Y0102D01*
X01119Y0102*
X01119Y0102*
X0112Y01021*
X0112Y01021*
X01121Y01022*
X01122Y01022*
X01123Y01023*
X01123*
X01123Y01023*
X01123Y01023*
X01124Y01024*
X01125Y01024*
X01125Y01024*
X01126Y01025*
X01127Y01025*
X01128Y01025*
Y01021*
X01128*
X01128Y01021*
X01127Y01021*
X01127Y0102*
X01127Y0102*
X01126Y0102*
X01126Y0102*
X01124Y01019*
X01123Y01018*
X01122Y01017*
X01121Y01016*
X01121Y01016*
X01121Y01016*
X01121Y01016*
X0112Y01016*
X0112Y01015*
X01119Y01015*
X01119Y01014*
X01118Y01013*
X01117Y01012*
X01117Y01011*
X01114*
Y0105*
X01118*
Y0102*
G37*
G36*
X01094Y00865D02*
X01095Y00865D01*
X01095Y00865*
X01096Y00865*
X01097Y00865*
X01098Y00865*
X011Y00864*
X01101Y00864*
X01101Y00863*
X01102Y00863*
X01103Y00862*
X01103Y00862*
X01103Y00862*
X01103Y00862*
X01104Y00862*
X01104Y00862*
X01104Y00861*
X01105Y00861*
X01105Y0086*
X01106Y0086*
X01106Y00859*
X01106Y00858*
X01107Y00858*
X01107Y00857*
X01108Y00856*
X01108Y00855*
X01108Y00854*
X01103Y00853*
Y00853*
X01103Y00853*
X01103Y00853*
X01103Y00854*
X01103Y00854*
X01103Y00854*
X01102Y00855*
X01102Y00856*
X01101Y00857*
X011Y00858*
X01099Y00859*
X01099Y00859*
X01099Y00859*
X01098Y0086*
X01098Y0086*
X01097Y0086*
X01096Y00861*
X01094Y00861*
X01093Y00861*
X01093*
X01092Y00861*
X01092*
X01092Y00861*
X0109Y00861*
X01089Y00861*
X01088Y0086*
X01087Y0086*
X01086Y00859*
X01086*
X01086Y00859*
X01085Y00858*
X01085Y00858*
X01084Y00857*
X01083Y00857*
X01083Y00856*
X01082Y00854*
X01081Y00853*
Y00853*
X01081Y00853*
X01081Y00853*
X01081Y00853*
X01081Y00852*
X01081Y00852*
X01081Y00851*
X01081Y0085*
X0108Y00849*
X0108Y00847*
X0108Y00846*
Y00846*
Y00846*
Y00845*
Y00845*
X0108Y00845*
Y00844*
X0108Y00843*
X0108Y00843*
X01081Y00842*
X01081Y0084*
X01081Y00839*
X01082Y00837*
Y00837*
X01082Y00837*
X01082Y00837*
X01082Y00837*
X01082Y00836*
X01083Y00835*
X01083Y00834*
X01084Y00833*
X01085Y00832*
X01086Y00832*
X01086*
X01086Y00832*
X01086Y00832*
X01087Y00831*
X01087Y00831*
X01087Y00831*
X01088Y00831*
X01089Y0083*
X0109Y0083*
X01091Y0083*
X01093Y0083*
X01093*
X01093Y0083*
X01094*
X01094Y0083*
X01095Y0083*
X01096Y00831*
X01098Y00831*
X01099Y00832*
X01099Y00832*
X011Y00832*
X011Y00832*
X011Y00832*
X011Y00833*
X011Y00833*
X01101Y00833*
X01101Y00833*
X01101Y00834*
X01102Y00834*
X01102Y00835*
X01102Y00835*
X01103Y00836*
X01103Y00836*
X01103Y00837*
X01103Y00838*
X01104Y00839*
X01104Y0084*
X01109Y00838*
Y00838*
X01109Y00838*
X01109Y00838*
X01109Y00837*
X01109Y00837*
X01108Y00836*
X01108Y00836*
X01108Y00835*
X01107Y00833*
X01106Y00832*
X01105Y00831*
X01105Y0083*
X01104Y0083*
X01103Y00829*
X01103Y00829*
X01103Y00829*
X01103Y00829*
X01103Y00828*
X01102Y00828*
X01102Y00828*
X01101Y00828*
X011Y00827*
X011Y00827*
X01099Y00827*
X01098Y00826*
X01097Y00826*
X01096Y00826*
X01095Y00826*
X01094Y00826*
X01093Y00826*
X01093*
X01092Y00826*
X01092*
X01091Y00826*
X0109Y00826*
X0109Y00826*
X01088Y00826*
X01086Y00827*
X01085Y00827*
X01084Y00828*
X01083Y00828*
X01083Y00828*
X01083Y00828*
X01083Y00828*
X01082Y00829*
X01082Y00829*
X01082Y00829*
X01081Y0083*
X01081Y0083*
X0108Y0083*
X0108Y00831*
X01079Y00832*
X01078Y00834*
X01077Y00835*
Y00835*
X01077Y00836*
X01077Y00836*
X01077Y00836*
X01077Y00837*
X01076Y00837*
X01076Y00838*
X01076Y00839*
X01076Y00839*
X01076Y0084*
X01075Y00842*
X01075Y00844*
X01075Y00846*
Y00846*
Y00846*
Y00846*
X01075Y00847*
Y00847*
X01075Y00848*
X01075Y00849*
X01075Y00849*
X01076Y00851*
X01076Y00853*
X01077Y00854*
X01077Y00856*
X01077Y00856*
X01077Y00856*
X01078Y00857*
X01078Y00857*
X01078Y00857*
X01078Y00858*
X01079Y00859*
X0108Y0086*
X01081Y00861*
X01082Y00862*
X01084Y00863*
X01084Y00863*
X01084Y00863*
X01084Y00863*
X01085Y00863*
X01085Y00864*
X01085Y00864*
X01086Y00864*
X01087Y00864*
X01087Y00864*
X01088Y00865*
X0109Y00865*
X01091Y00865*
X01093Y00865*
X01094*
X01094Y00865*
G37*
G36*
X01133Y0084D02*
X01138D01*
Y00835*
X01133*
Y00826*
X01128*
Y00835*
X01112*
Y0084*
X01129Y00865*
X01133*
Y0084*
G37*
G36*
X01068Y00826D02*
X01062D01*
Y00865*
X01068*
Y00826*
G37*
G36*
X0114Y00663D02*
X0114Y00662D01*
X01141Y00662*
X01141Y00662*
X01142Y00662*
X01144Y00662*
X01145Y00661*
X01146Y00661*
X01147Y00661*
X01148Y0066*
X01148Y0066*
X01148Y0066*
X01149Y0066*
X01149Y00659*
X01149Y00659*
X01149Y00659*
X0115Y00658*
X0115Y00658*
X01151Y00658*
X01151Y00657*
X01151Y00656*
X01152Y00656*
X01152Y00655*
X01153Y00654*
X01153Y00653*
X01154Y00652*
X01154Y00651*
X01149Y0065*
Y0065*
X01149Y0065*
X01149Y00651*
X01149Y00651*
X01148Y00651*
X01148Y00652*
X01148Y00653*
X01147Y00654*
X01147Y00655*
X01146Y00655*
X01145Y00656*
X01145Y00656*
X01144Y00657*
X01144Y00657*
X01143Y00657*
X01142Y00658*
X01141Y00658*
X0114Y00658*
X01139Y00658*
X01138*
X01138Y00658*
X01137*
X01137Y00658*
X01136Y00658*
X01135Y00658*
X01134Y00657*
X01132Y00657*
X01131Y00656*
X01131*
X01131Y00656*
X01131Y00656*
X0113Y00655*
X0113Y00655*
X01129Y00654*
X01128Y00653*
X01128Y00652*
X01127Y0065*
Y0065*
X01127Y0065*
X01127Y0065*
X01127Y0065*
X01127Y00649*
X01127Y00649*
X01126Y00648*
X01126Y00647*
X01126Y00646*
X01126Y00644*
X01126Y00643*
Y00643*
Y00643*
Y00643*
Y00642*
X01126Y00642*
Y00641*
X01126Y00641*
X01126Y0064*
X01126Y00639*
X01126Y00637*
X01127Y00636*
X01127Y00634*
Y00634*
X01127Y00634*
X01127Y00634*
X01127Y00634*
X01128Y00633*
X01128Y00632*
X01129Y00632*
X0113Y00631*
X01131Y0063*
X01132Y00629*
X01132*
X01132Y00629*
X01132Y00629*
X01132Y00629*
X01132Y00629*
X01133Y00628*
X01134Y00628*
X01135Y00628*
X01136Y00627*
X01137Y00627*
X01138Y00627*
X01139*
X01139Y00627*
X01139*
X0114Y00627*
X01141Y00628*
X01142Y00628*
X01143Y00628*
X01144Y00629*
X01145Y00629*
X01145Y0063*
X01145Y0063*
X01145Y0063*
X01146Y0063*
X01146Y0063*
X01146Y0063*
X01146Y00631*
X01147Y00631*
X01147Y00631*
X01147Y00632*
X01148Y00633*
X01148Y00633*
X01148Y00634*
X01149Y00634*
X01149Y00635*
X01149Y00636*
X01149Y00637*
X01155Y00636*
Y00636*
X01154Y00635*
X01154Y00635*
X01154Y00635*
X01154Y00634*
X01154Y00634*
X01154Y00633*
X01153Y00632*
X01152Y00631*
X01151Y00629*
X01151Y00628*
X0115Y00627*
X0115Y00627*
X01149Y00626*
X01149Y00626*
X01149Y00626*
X01148Y00626*
X01148Y00626*
X01148Y00625*
X01147Y00625*
X01147Y00625*
X01146Y00625*
X01145Y00624*
X01144Y00624*
X01144Y00624*
X01143Y00623*
X01142Y00623*
X01141Y00623*
X0114Y00623*
X01139Y00623*
X01138*
X01138Y00623*
X01137*
X01136Y00623*
X01136Y00623*
X01135Y00623*
X01133Y00623*
X01132Y00624*
X0113Y00625*
X01129Y00625*
X01129Y00625*
X01128Y00625*
X01128Y00625*
X01128Y00626*
X01128Y00626*
X01128Y00626*
X01127Y00626*
X01127Y00627*
X01126Y00627*
X01126Y00628*
X01125Y00628*
X01124Y0063*
X01123Y00631*
X01123Y00633*
Y00633*
X01122Y00633*
X01122Y00633*
X01122Y00634*
X01122Y00634*
X01122Y00635*
X01122Y00635*
X01122Y00636*
X01121Y00637*
X01121Y00637*
X01121Y00639*
X01121Y00641*
X01121Y00643*
Y00643*
Y00643*
Y00644*
X01121Y00644*
Y00645*
X01121Y00645*
X01121Y00646*
X01121Y00647*
X01121Y00648*
X01122Y0065*
X01122Y00652*
X01123Y00653*
X01123Y00653*
X01123Y00654*
X01123Y00654*
X01123Y00654*
X01124Y00655*
X01124Y00655*
X01125Y00656*
X01125Y00657*
X01127Y00658*
X01128Y00659*
X01129Y0066*
X01129Y0066*
X0113Y0066*
X0113Y0066*
X0113Y00661*
X01131Y00661*
X01131Y00661*
X01132Y00661*
X01132Y00661*
X01133Y00662*
X01134Y00662*
X01135Y00662*
X01137Y00662*
X01139Y00663*
X01139*
X0114Y00663*
G37*
G36*
X01202Y00662D02*
X01203Y00662D01*
X01204Y00662*
X01205Y00661*
X01206Y00661*
X01207Y00661*
X01207*
X01207Y00661*
X01207Y0066*
X01207Y0066*
X01208Y0066*
X01209Y00659*
X01209Y00659*
X0121Y00658*
X01211Y00657*
X01211Y00657*
X01211Y00657*
X01211Y00656*
X01211Y00656*
X01212Y00655*
X01212Y00654*
X01212Y00653*
X01212Y00652*
Y00652*
Y00652*
X01212Y00651*
X01212Y00651*
X01212Y0065*
X01211Y00649*
X01211Y00648*
X01211Y00648*
X01211Y00647*
X0121Y00647*
X0121Y00647*
X0121Y00646*
X01209Y00646*
X01208Y00645*
X01208Y00645*
X01207Y00644*
X01207*
X01207Y00644*
X01207Y00644*
X01207Y00644*
X01208Y00644*
X01209Y00644*
X0121Y00643*
X0121Y00643*
X01211Y00642*
X01212Y00641*
X01212Y00641*
X01212Y00641*
X01213Y0064*
X01213Y00639*
X01213Y00638*
X01214Y00637*
X01214Y00636*
X01214Y00635*
Y00635*
Y00635*
Y00634*
X01214Y00634*
X01214Y00634*
X01214Y00633*
X01214Y00633*
X01213Y00632*
X01213Y00631*
X01213Y0063*
X01212Y00629*
X01212Y00628*
X01211Y00628*
X01211Y00627*
X0121Y00626*
X0121Y00626*
X0121Y00626*
X0121Y00626*
X0121Y00626*
X01209Y00626*
X01209Y00625*
X01208Y00625*
X01208Y00625*
X01207Y00624*
X01206Y00624*
X01206Y00624*
X01205Y00623*
X01204Y00623*
X01203Y00623*
X01202Y00623*
X01201Y00623*
X012*
X012Y00623*
X012Y00623*
X01199Y00623*
X01199Y00623*
X01198Y00623*
X01197Y00624*
X01195Y00624*
X01195Y00624*
X01194Y00625*
X01193Y00625*
X01193Y00626*
X01192Y00626*
X01192Y00626*
X01192Y00626*
X01192Y00626*
X01192Y00627*
X01191Y00627*
X01191Y00627*
X01191Y00628*
X0119Y00629*
X0119Y00629*
X0119Y0063*
X01189Y00632*
X01189Y00633*
X01189Y00634*
X01193Y00634*
Y00634*
X01194Y00634*
X01194Y00634*
X01194Y00634*
X01194Y00633*
X01194Y00633*
X01194Y00632*
X01194Y00631*
X01195Y0063*
X01196Y00629*
X01196Y00628*
X01196Y00628*
X01197Y00628*
X01197Y00628*
X01198Y00628*
X01198Y00627*
X01199Y00627*
X012Y00627*
X01201Y00627*
X01201*
X01202Y00627*
X01202Y00627*
X01203Y00627*
X01204Y00627*
X01205Y00628*
X01206Y00628*
X01207Y00629*
X01207Y00629*
X01207Y00629*
X01207Y0063*
X01208Y00631*
X01208Y00631*
X01209Y00632*
X01209Y00634*
X01209Y00635*
Y00635*
Y00635*
Y00635*
X01209Y00635*
X01209Y00636*
X01209Y00637*
X01208Y00638*
X01208Y00638*
X01207Y00639*
X01207Y0064*
X01207Y0064*
X01206Y0064*
X01206Y00641*
X01205Y00641*
X01205Y00642*
X01204Y00642*
X01203Y00642*
X01201Y00642*
X01201*
X012Y00642*
X012Y00642*
X01199Y00642*
X01199Y00642*
X01198Y00642*
X01199Y00646*
X01199*
X01199Y00646*
X012*
X012Y00646*
X01201Y00646*
X01202Y00646*
X01203Y00646*
X01204Y00647*
X01205Y00647*
X01205*
X01205Y00647*
X01205Y00648*
X01206Y00648*
X01206Y00649*
X01206Y00649*
X01207Y0065*
X01207Y00651*
X01207Y00652*
Y00652*
Y00652*
Y00652*
Y00653*
X01207Y00653*
X01207Y00654*
X01207Y00654*
X01206Y00655*
X01206Y00656*
X01205Y00656*
X01205Y00657*
X01205Y00657*
X01205Y00657*
X01204Y00657*
X01204Y00658*
X01203Y00658*
X01202Y00658*
X01201Y00658*
X012*
X012Y00658*
X01199Y00658*
X01199Y00658*
X01198Y00657*
X01197Y00657*
X01196Y00656*
X01196Y00656*
X01196Y00656*
X01196Y00656*
X01195Y00655*
X01195Y00654*
X01195Y00654*
X01194Y00653*
X01194Y00651*
X01189Y00652*
Y00652*
X01189Y00652*
X01189Y00653*
X01189Y00653*
X0119Y00653*
X0119Y00654*
X0119Y00655*
X01191Y00656*
X01191Y00657*
X01192Y00658*
X01193Y00659*
X01193Y0066*
X01193Y0066*
X01193Y0066*
X01194Y0066*
X01194Y0066*
X01194Y0066*
X01195Y00661*
X01195Y00661*
X01196Y00661*
X01198Y00662*
X01199Y00662*
X012Y00662*
X01201*
X01202Y00662*
G37*
G36*
X01177Y00624D02*
X01172D01*
Y00654*
X01172Y00653*
X01172Y00653*
X01171Y00653*
X01171Y00653*
X0117Y00652*
X01169Y00651*
X01168Y00651*
X01167Y0065*
X01167*
X01167Y0065*
X01167Y0065*
X01166Y0065*
X01166Y00649*
X01165Y00649*
X01164Y00649*
X01163Y00648*
X01162Y00648*
Y00652*
X01163*
X01163Y00653*
X01163Y00653*
X01163Y00653*
X01163Y00653*
X01164Y00653*
X01165Y00654*
X01166Y00654*
X01167Y00655*
X01168Y00656*
X01169Y00657*
X01169Y00657*
X01169Y00657*
X0117Y00657*
X0117Y00657*
X0117Y00658*
X01171Y00659*
X01172Y00659*
X01172Y0066*
X01173Y00661*
X01174Y00662*
X01177*
Y00624*
G37*
G36*
X00236Y01249D02*
X00236D01*
X00237Y01249*
X00238Y01248*
X00239Y01248*
X0024Y01248*
X00241Y01247*
X00242Y01247*
X00242*
X00242Y01247*
X00242Y01246*
X00243Y01246*
X00243Y01246*
X00244Y01245*
X00245Y01244*
X00245Y01243*
X00246Y01242*
X00247Y01241*
Y01241*
X00247Y01241*
X00247Y0124*
X00247Y0124*
X00247Y0124*
X00247Y01239*
X00248Y01239*
X00248Y01238*
X00248Y01237*
X00248Y01237*
X00248Y01236*
X00248Y01235*
X00248Y01234*
X00248Y01233*
X00249Y01231*
Y0123*
Y0123*
Y0123*
Y01229*
Y01229*
X00248Y01228*
Y01228*
X00248Y01227*
X00248Y01226*
X00248Y01224*
X00248Y01222*
X00247Y0122*
X00247Y01219*
X00247Y01218*
Y01218*
X00247Y01218*
X00247Y01218*
X00247Y01218*
X00246Y01217*
X00246Y01217*
X00246Y01216*
X00245Y01215*
X00244Y01214*
X00243Y01213*
X00242Y01212*
X00242*
X00242Y01212*
X00242Y01212*
X00242Y01211*
X00241Y01211*
X00241Y01211*
X0024Y01211*
X0024Y01211*
X00239Y0121*
X00238Y0121*
X00236Y0121*
X00235Y01209*
X00234*
X00234Y0121*
X00234*
X00233Y0121*
X00232Y0121*
X00231Y0121*
X0023Y01211*
X00229Y01211*
X00228Y01212*
X00227Y01212*
X00227Y01212*
X00227Y01212*
X00227Y01212*
X00227Y01212*
X00227Y01213*
X00226Y01213*
X00226Y01214*
X00225Y01215*
X00225Y01216*
X00224Y01217*
X00224Y01219*
X00229Y01219*
Y01219*
X00229Y01219*
Y01219*
X00229Y01219*
X00229Y01218*
X00229Y01218*
X00229Y01217*
X0023Y01216*
X0023Y01215*
X00231Y01215*
X00231Y01215*
X00231Y01215*
X00231Y01214*
X00232Y01214*
X00232Y01214*
X00233Y01214*
X00234Y01213*
X00235Y01213*
X00235*
X00236Y01213*
X00236Y01213*
X00237Y01214*
X00237Y01214*
X00238Y01214*
X00239Y01214*
X00239Y01214*
X00239Y01214*
X00239Y01215*
X0024Y01215*
X0024Y01215*
X0024Y01216*
X00241Y01216*
X00241Y01217*
X00241Y01217*
X00242Y01217*
X00242Y01218*
X00242Y01218*
X00242Y01219*
X00243Y0122*
X00243Y01221*
X00243Y01222*
Y01222*
X00243Y01222*
Y01222*
X00243Y01222*
X00243Y01223*
X00243Y01223*
X00244Y01224*
X00244Y01225*
X00244Y01226*
X00244Y01227*
Y01227*
Y01228*
Y01228*
Y01228*
X00244Y01228*
X00244Y01228*
X00243Y01227*
X00243Y01227*
X00242Y01226*
X00242Y01226*
X00241Y01225*
X0024Y01225*
X0024Y01225*
X00239Y01224*
X00239Y01224*
X00238Y01224*
X00238Y01224*
X00237Y01223*
X00236Y01223*
X00235Y01223*
X00234*
X00234Y01223*
X00233Y01223*
X00233Y01223*
X00232Y01223*
X00232Y01224*
X00231Y01224*
X0023Y01224*
X00229Y01225*
X00228Y01225*
X00228Y01226*
X00227Y01226*
X00227Y01227*
X00226Y01227*
X00226Y01227*
X00226Y01227*
X00226Y01227*
X00226Y01228*
X00225Y01228*
X00225Y01229*
X00225Y01229*
X00225Y0123*
X00224Y0123*
X00224Y01231*
X00224Y01232*
X00224Y01233*
X00223Y01234*
X00223Y01235*
X00223Y01236*
Y01236*
Y01236*
Y01236*
X00223Y01237*
X00223Y01237*
X00223Y01238*
X00224Y01238*
X00224Y01239*
X00224Y01241*
X00224Y01241*
X00225Y01242*
X00225Y01243*
X00226Y01244*
X00226Y01244*
X00227Y01245*
X00227Y01245*
X00227Y01245*
X00227Y01245*
X00227Y01246*
X00228Y01246*
X00228Y01246*
X00229Y01247*
X00229Y01247*
X0023Y01247*
X0023Y01248*
X00232Y01248*
X00233Y01248*
X00233Y01249*
X00234Y01249*
X00235Y01249*
X00236*
X00236Y01249*
G37*
G36*
X00205Y01248D02*
X00205D01*
X00206Y01248*
X00208Y01248*
X00209Y01248*
X0021Y01248*
X00211Y01248*
X00211Y01247*
X00211*
X00211Y01247*
X00212Y01247*
X00212Y01247*
X00213Y01247*
X00214Y01246*
X00214Y01245*
X00215Y01245*
X00216Y01244*
Y01244*
X00216Y01244*
X00216Y01243*
X00216Y01243*
X00216Y01242*
X00217Y01241*
X00217Y0124*
X00217Y01239*
X00217Y01238*
Y01238*
Y01238*
Y01238*
X00217Y01237*
Y01237*
X00217Y01237*
X00217Y01236*
X00217Y01235*
X00216Y01233*
X00215Y01232*
X00215Y01232*
X00215Y01231*
X00214Y01231*
X00214Y01231*
X00214Y01231*
X00214Y01231*
X00214Y0123*
X00213Y0123*
X00213Y0123*
X00213Y0123*
X00212Y01229*
X00211Y01229*
X00211Y01229*
X0021Y01228*
X00209Y01228*
X00208Y01228*
X00207Y01228*
X00206Y01228*
X00206Y01228*
X00207Y01227*
X00207Y01227*
X00207Y01227*
X00208Y01226*
X00209Y01226*
X00209Y01226*
X0021Y01226*
X0021Y01225*
X0021Y01225*
X00211Y01224*
X00211Y01224*
X00212Y01223*
X00213Y01222*
X00214Y01221*
X0022Y0121*
X00214*
X00209Y01218*
Y01218*
X00209Y01218*
X00209Y01218*
X00208Y01219*
X00208Y01219*
X00208Y0122*
X00207Y01221*
X00206Y01222*
X00206Y01223*
X00205Y01223*
X00205Y01223*
X00205Y01224*
X00205Y01224*
X00204Y01224*
X00203Y01225*
X00203Y01226*
X00203Y01226*
X00203Y01226*
X00202Y01226*
X00202Y01226*
X00202Y01226*
X00202Y01227*
X00201Y01227*
X002Y01227*
X002*
X002Y01227*
X002*
X002Y01227*
X00199Y01227*
X00199*
X00198Y01227*
X00192*
Y0121*
X00187*
Y01249*
X00204*
X00205Y01248*
G37*
G36*
X00392Y0176D02*
X00392D01*
X00393Y0176*
X00395Y0176*
X00396Y0176*
X00397Y0176*
X00398Y01759*
X00398Y01759*
X00398*
X00398Y01759*
X00399Y01759*
X00399Y01759*
X004Y01758*
X00401Y01758*
X00401Y01757*
X00402Y01757*
X00403Y01756*
Y01756*
X00403Y01756*
X00403Y01755*
X00403Y01755*
X00403Y01754*
X00404Y01753*
X00404Y01752*
X00404Y01751*
X00404Y0175*
Y0175*
Y0175*
Y01749*
X00404Y01749*
Y01749*
X00404Y01748*
X00404Y01747*
X00404Y01746*
X00403Y01745*
X00402Y01744*
X00402Y01743*
X00402Y01743*
X00401Y01743*
X00401Y01743*
X00401Y01743*
X00401Y01742*
X00401Y01742*
X004Y01742*
X004Y01742*
X004Y01741*
X00399Y01741*
X00398Y01741*
X00398Y01741*
X00397Y0174*
X00396Y0174*
X00395Y0174*
X00394Y0174*
X00393Y01739*
X00394Y01739*
X00394Y01739*
X00394Y01739*
X00395Y01739*
X00395Y01738*
X00396Y01738*
X00396Y01737*
X00397Y01737*
X00397Y01737*
X00397Y01737*
X00398Y01736*
X00398Y01735*
X00399Y01734*
X004Y01733*
X00401Y01732*
X00407Y01722*
X00401*
X00396Y0173*
Y0173*
X00396Y0173*
X00396Y0173*
X00395Y0173*
X00395Y01731*
X00395Y01732*
X00394Y01733*
X00393Y01734*
X00393Y01734*
X00392Y01735*
X00392Y01735*
X00392Y01735*
X00392Y01736*
X00391Y01736*
X00391Y01737*
X0039Y01737*
X0039Y01738*
X0039Y01738*
X00389Y01738*
X00389Y01738*
X00389Y01738*
X00389Y01738*
X00388Y01738*
X00387Y01739*
X00387*
X00387Y01739*
X00387*
X00387Y01739*
X00386Y01739*
X00386*
X00385Y01739*
X00379*
Y01722*
X00374*
Y0176*
X00391*
X00392Y0176*
G37*
G36*
X00424Y0176D02*
X00424Y0176D01*
X00425Y0176*
X00425Y0176*
X00426Y0176*
X00427Y0176*
X00428Y01759*
X00429Y01759*
X0043Y01759*
X0043Y01758*
X00431Y01758*
X00431Y01758*
X00431Y01757*
X00431Y01757*
X00431Y01757*
X00432Y01757*
X00432Y01756*
X00432Y01756*
X00433Y01755*
X00433Y01753*
X00434Y01752*
X00434Y01751*
X00434Y0175*
Y0175*
Y0175*
Y0175*
X00434Y01749*
X00434Y01749*
X00434Y01748*
X00433Y01747*
X00433Y01747*
X00433Y01746*
X00432Y01746*
X00432Y01745*
X00432Y01745*
X00431Y01745*
X00431Y01744*
X0043Y01744*
X00429Y01743*
X00428Y01743*
X00428*
X00428Y01743*
X00429Y01743*
X00429Y01742*
X0043Y01742*
X0043Y01742*
X00431Y01741*
X00432Y01741*
X00433Y0174*
X00434Y01739*
Y01739*
X00434Y01739*
X00434Y01739*
X00434Y01738*
X00435Y01737*
X00435Y01736*
X00435Y01735*
X00435Y01734*
X00436Y01733*
Y01733*
Y01733*
Y01732*
X00435Y01732*
X00435Y01732*
X00435Y01731*
X00435Y01731*
X00435Y0173*
X00435Y01729*
X00434Y01728*
X00434Y01727*
X00434Y01727*
X00433Y01726*
X00433Y01725*
X00432Y01725*
X00432Y01725*
X00432Y01724*
X00432Y01724*
X00431Y01724*
X00431Y01724*
X00431Y01724*
X0043Y01723*
X0043Y01723*
X00429Y01723*
X00428Y01722*
X00427Y01722*
X00427Y01722*
X00426Y01722*
X00425Y01721*
X00424Y01721*
X00423Y01721*
X00422*
X00422Y01721*
X00421Y01721*
X00421Y01721*
X0042Y01722*
X0042Y01722*
X00418Y01722*
X00417Y01722*
X00417Y01723*
X00416Y01723*
X00415Y01723*
X00414Y01724*
X00414Y01725*
X00414Y01725*
X00413Y01725*
X00413Y01725*
X00413Y01725*
X00413Y01726*
X00413Y01726*
X00412Y01726*
X00412Y01727*
X00412Y01727*
X00411Y01728*
X00411Y0173*
X00411Y0173*
X0041Y01731*
X0041Y01732*
X0041Y01733*
Y01733*
Y01733*
Y01733*
X0041Y01734*
Y01734*
X0041Y01734*
X0041Y01735*
X00411Y01736*
X00411Y01737*
X00411Y01738*
X00412Y01739*
Y01739*
X00412Y01739*
X00412Y0174*
X00413Y0174*
X00413Y01741*
X00414Y01741*
X00415Y01742*
X00416Y01742*
X00418Y01743*
X00417*
X00417Y01743*
X00417Y01743*
X00417Y01743*
X00417Y01743*
X00416Y01743*
X00415Y01744*
X00414Y01744*
X00414Y01745*
X00413Y01746*
X00413Y01746*
X00413Y01746*
X00413Y01747*
X00412Y01747*
X00412Y01748*
X00412Y01749*
X00412Y0175*
X00412Y01751*
Y01751*
Y01751*
Y01751*
X00412Y01751*
X00412Y01752*
X00412Y01752*
X00412Y01753*
X00412Y01754*
X00413Y01755*
X00413Y01756*
X00414Y01757*
X00414Y01757*
X00415Y01758*
X00415Y01758*
X00415Y01758*
X00415Y01758*
X00415Y01758*
X00416Y01758*
X00416Y01759*
X00416Y01759*
X00417Y01759*
X00417Y01759*
X00418Y0176*
X00419Y0176*
X00419Y0176*
X00421Y0176*
X00422Y0176*
X00423Y01761*
X00423*
X00424Y0176*
G37*
G36*
X00314Y01999D02*
X00313Y01999D01*
Y01998*
X00313Y01997*
X00313Y01996*
X00313Y01995*
X00313Y01994*
X00313Y01993*
X00312Y01992*
Y01992*
X00312Y01992*
X00312Y01992*
X00312Y01991*
X00312Y01991*
X00311Y0199*
X0031Y01989*
X0031Y01989*
X00309Y01988*
X00309*
X00309Y01988*
X00308Y01988*
X00308Y01988*
X00307Y01987*
X00306Y01987*
X00305Y01987*
X00304Y01987*
X00303Y01987*
X00303*
X00303*
X00303*
X00302Y01987*
X00302*
X00302Y01987*
X00301Y01987*
X003Y01987*
X00298Y01988*
X00297Y01988*
X00297Y01989*
X00296Y01989*
X00296Y01989*
X00296Y01989*
X00296Y01989*
X00296Y0199*
X00295Y0199*
X00295Y0199*
X00295Y01991*
X00295Y01991*
X00294Y01992*
X00294Y01992*
X00294Y01993*
X00293Y01994*
X00293Y01995*
X00293Y01995*
X00293Y01996*
X00293Y01997*
X00293Y01997*
X00292Y01997*
X00292Y01997*
X00292Y01996*
X00291Y01995*
X00291Y01995*
X00291Y01994*
X00291Y01994*
X0029Y01994*
X0029Y01993*
X00289Y01993*
X00288Y01992*
X00288Y01992*
X00287Y01991*
X00286Y0199*
X00275Y01983*
Y0199*
X00283Y01995*
X00283*
X00283Y01995*
X00283Y01995*
X00284Y01995*
X00284Y01996*
X00285Y01996*
X00286Y01997*
X00287Y01997*
X00288Y01998*
X00288Y01999*
X00288Y01999*
X00289Y01999*
X00289Y01999*
X00289Y01999*
X0029Y02*
X00291Y02001*
X00291Y02001*
X00291Y02001*
X00291Y02001*
X00291Y02002*
X00291Y02002*
X00291Y02002*
X00292Y02003*
X00292Y02003*
Y02004*
X00292Y02004*
Y02004*
X00292Y02004*
X00292Y02005*
Y02005*
X00292Y02006*
Y02012*
X00275*
Y02017*
X00314*
Y01999*
G37*
G36*
X00313Y01955D02*
X00309D01*
X00309Y01955*
X00309Y01955*
X00309Y01956*
X00309Y01956*
X00308Y01956*
X00308Y01957*
X00307Y01957*
X00307Y01958*
X00306Y01958*
X00305Y01959*
X00304Y01959*
X00303Y0196*
X00302Y01961*
X00301Y01961*
X003Y01962*
X00299Y01963*
X00299Y01963*
X00299Y01963*
X00298Y01963*
X00298Y01963*
X00297Y01963*
X00297Y01964*
X00296Y01964*
X00295Y01965*
X00294Y01965*
X00293Y01966*
X00292Y01966*
X00291Y01966*
X00288Y01967*
X00286Y01968*
X00286*
X00285Y01968*
X00285Y01968*
X00285Y01968*
X00284Y01968*
X00284Y01969*
X00283Y01969*
X00283Y01969*
X00282Y01969*
X00281Y01969*
X00279Y01969*
X00277Y0197*
X00275Y0197*
Y01975*
X00275*
X00275*
X00276*
X00276Y01975*
X00276*
X00277Y01975*
X00277Y01975*
X00278Y01975*
X00279Y01974*
X0028Y01974*
X00281Y01974*
X00282Y01974*
X00283Y01974*
X00284Y01974*
X00286Y01973*
X00286*
X00286Y01973*
X00287Y01973*
X00287Y01973*
X00288Y01973*
X00288Y01972*
X00289Y01972*
X0029Y01972*
X00291Y01971*
X00292Y01971*
X00294Y0197*
X00296Y01969*
X00298Y01968*
X00298Y01968*
X00299Y01968*
X00299Y01968*
X00299Y01968*
X003Y01967*
X003Y01967*
X00301Y01967*
X00302Y01966*
X00303Y01965*
X00305Y01964*
X00307Y01963*
X00308Y01961*
Y0198*
X00313*
Y01955*
G37*
G36*
X0043Y01212D02*
X0043D01*
X0043Y01212*
X00431Y01212*
X00433Y01212*
X00434Y01211*
X00435Y01211*
X00436Y0121*
X00436Y0121*
X00436Y0121*
X00436Y0121*
X00436Y01209*
X00437Y01209*
X00437Y01209*
X00437Y01209*
X00438Y01208*
X00438Y01207*
X00439Y01206*
X00439Y01204*
X0044Y01203*
X00435Y01202*
Y01202*
X00435Y01202*
X00435Y01203*
X00435Y01203*
X00435Y01204*
X00434Y01205*
X00434Y01205*
X00434Y01206*
X00433Y01206*
X00433Y01206*
X00433Y01207*
X00432Y01207*
X00432Y01207*
X00431Y01208*
X0043Y01208*
X00429Y01208*
X00428Y01208*
X00428*
X00428Y01208*
X00427Y01208*
X00426Y01208*
X00426Y01208*
X00425Y01208*
X00424Y01207*
X00424Y01207*
X00424Y01207*
X00424Y01206*
X00423Y01206*
X00423Y01205*
X00422Y01204*
X00421Y01203*
X00421Y01202*
Y01202*
X00421Y01202*
X00421Y01202*
X00421Y01202*
X00421Y01201*
X00421Y01201*
X0042Y01201*
X0042Y012*
X0042Y01199*
X0042Y01199*
X0042Y01198*
X0042Y01197*
X0042Y01196*
X0042Y01196*
X0042Y01195*
Y01194*
X0042Y01194*
X0042Y01194*
X0042Y01194*
X00421Y01195*
X00421Y01196*
X00422Y01196*
X00423Y01197*
X00424Y01197*
X00424*
X00424Y01197*
X00424Y01198*
X00425Y01198*
X00425Y01198*
X00426Y01198*
X00427Y01198*
X00428Y01199*
X00429Y01199*
X00429*
X0043Y01199*
X0043Y01199*
X00431Y01198*
X00431Y01198*
X00432Y01198*
X00433Y01198*
X00434Y01198*
X00434Y01197*
X00435Y01197*
X00436Y01196*
X00436Y01196*
X00437Y01195*
X00437Y01195*
X00437Y01195*
X00437Y01195*
X00438Y01195*
X00438Y01194*
X00438Y01194*
X00438Y01193*
X00439Y01193*
X00439Y01192*
X00439Y01191*
X0044Y01191*
X0044Y0119*
X0044Y01189*
X0044Y01188*
X0044Y01187*
X0044Y01186*
Y01186*
Y01186*
Y01186*
Y01186*
X0044Y01185*
Y01185*
X0044Y01184*
X0044Y01183*
X0044Y01182*
X00439Y01181*
X00439Y01179*
Y01179*
X00439Y01179*
X00439Y01179*
X00438Y01179*
X00438Y01178*
X00438Y01178*
X00437Y01177*
X00436Y01176*
X00435Y01175*
X00434Y01175*
X00434*
X00434Y01175*
X00434Y01174*
X00434Y01174*
X00433Y01174*
X00433Y01174*
X00432Y01174*
X00431Y01173*
X0043Y01173*
X00428Y01173*
X00428*
X00428Y01173*
X00427*
X00427Y01173*
X00426Y01173*
X00426Y01173*
X00425Y01174*
X00424Y01174*
X00423Y01174*
X00423Y01174*
X00422Y01175*
X00421Y01175*
X0042Y01176*
X00419Y01177*
X00419Y01177*
X00419Y01177*
X00418Y01178*
X00418Y01178*
X00418Y01178*
X00418Y01179*
X00417Y01179*
X00417Y0118*
X00417Y01181*
X00416Y01182*
X00416Y01183*
X00416Y01184*
X00416Y01185*
X00415Y01187*
X00415Y01188*
X00415Y0119*
X00415Y01192*
Y01192*
Y01192*
Y01192*
Y01192*
X00415Y01193*
Y01193*
X00415Y01194*
X00415Y01195*
X00415Y01197*
X00415Y01198*
X00416Y01199*
X00416Y01201*
X00416Y01202*
X00417Y01203*
X00417Y01204*
X00418Y01206*
X00418Y01207*
X00419Y01208*
X00419Y01208*
X00419Y01208*
X00419Y01208*
X0042Y01209*
X0042Y01209*
X0042Y01209*
X00421Y0121*
X00422Y0121*
X00422Y0121*
X00423Y01211*
X00424Y01211*
X00425Y01212*
X00426Y01212*
X00427Y01212*
X00428Y01212*
X00429Y01212*
X00429*
X0043Y01212*
G37*
G36*
X00393Y01213D02*
X00393D01*
X00394Y01213*
X00394Y01213*
X00395Y01212*
X00397Y01212*
X00398Y01212*
X004Y01211*
X00401Y01211*
X00401Y0121*
X00402Y0121*
X00402Y0121*
X00402Y0121*
X00402Y0121*
X00403Y0121*
X00403Y01209*
X00404Y01208*
X00405Y01207*
X00406Y01206*
X00407Y01205*
X00408Y01203*
Y01203*
X00408Y01203*
X00408Y01203*
X00408Y01202*
X00409Y01202*
X00409Y01201*
X00409Y01201*
X00409Y012*
X00409Y01199*
X0041Y01199*
X0041Y01198*
X0041Y01197*
X0041Y01195*
X0041Y01193*
Y01193*
Y01193*
Y01192*
Y01192*
X0041Y01192*
Y01191*
X0041Y01191*
X0041Y0119*
X0041Y01189*
X0041Y01187*
X00409Y01186*
X00409Y01184*
Y01184*
X00409Y01184*
X00409Y01184*
X00409Y01184*
X00408Y01183*
X00408Y01183*
X00408Y01182*
X00407Y01181*
X00406Y0118*
X00405Y01179*
X00404Y01178*
X00405*
X00405Y01178*
X00405Y01178*
X00405Y01177*
X00405Y01177*
X00406Y01177*
X00407Y01176*
X00408Y01176*
X00409Y01175*
X0041Y01175*
X00411Y01174*
X00409Y01171*
X00409*
X00409Y01171*
X00409Y01171*
X00409Y01171*
X00408Y01171*
X00408Y01171*
X00407Y01172*
X00407Y01172*
X00406Y01173*
X00404Y01173*
X00403Y01174*
X00401Y01175*
X00401*
X00401Y01175*
X00401Y01175*
X004Y01175*
X004Y01175*
X004Y01175*
X00399Y01174*
X00398Y01174*
X00398Y01174*
X00397Y01174*
X00395Y01173*
X00394Y01173*
X00393Y01173*
X00392Y01173*
X00391*
X00391Y01173*
X0039*
X0039Y01173*
X00389Y01173*
X00389Y01173*
X00387Y01174*
X00386Y01174*
X00384Y01175*
X00383Y01175*
X00382Y01176*
X00382Y01176*
X00382Y01176*
X00382Y01176*
X00382Y01176*
X00381Y01176*
X00381Y01177*
X0038Y01177*
X00379Y01178*
X00378Y0118*
X00377Y01181*
X00376Y01183*
Y01183*
X00376Y01183*
X00376Y01183*
X00375Y01183*
X00375Y01184*
X00375Y01184*
X00375Y01185*
X00375Y01186*
X00374Y01186*
X00374Y01187*
X00374Y01188*
X00374Y01189*
X00374Y01191*
X00374Y01193*
Y01193*
Y01193*
Y01193*
X00374Y01194*
Y01194*
X00374Y01195*
X00374Y01196*
X00374Y01196*
X00374Y01198*
X00374Y012*
X00375Y01201*
X00376Y01203*
X00376Y01203*
X00376Y01203*
X00376Y01204*
X00376Y01204*
X00376Y01204*
X00377Y01205*
X00378Y01206*
X00378Y01207*
X0038Y01208*
X00381Y01209*
X00382Y0121*
X00382Y0121*
X00383Y0121*
X00383Y01211*
X00383Y01211*
X00384Y01211*
X00384Y01211*
X00385Y01211*
X00385Y01212*
X00386Y01212*
X00387Y01212*
X00388Y01212*
X0039Y01213*
X00391Y01213*
X00392*
X00393Y01213*
G37*
G36*
X00478Y01698D02*
X00463D01*
X00461Y01688*
X00461Y01688*
X00461Y01688*
X00461Y01688*
X00461Y01688*
X00462Y01688*
X00462Y01689*
X00463Y01689*
X00464Y0169*
X00465Y0169*
X00467Y0169*
X00467Y0169*
X00469*
X00469Y0169*
X00469Y0169*
X0047Y0169*
X0047Y0169*
X00471Y0169*
X00472Y0169*
X00473Y01689*
X00474Y01689*
X00474Y01688*
X00475Y01688*
X00476Y01687*
X00476Y01687*
X00477Y01687*
X00477Y01687*
X00477Y01687*
X00477Y01686*
X00477Y01686*
X00478Y01685*
X00478Y01685*
X00478Y01684*
X00479Y01684*
X00479Y01683*
X00479Y01682*
X00479Y01682*
X0048Y01681*
X0048Y0168*
X0048Y01679*
X0048Y01678*
Y01678*
Y01678*
Y01677*
X0048Y01677*
X0048Y01677*
X0048Y01676*
X0048Y01675*
X0048Y01675*
X00479Y01673*
X00479Y01672*
X00478Y01671*
X00478Y0167*
X00477Y0167*
X00477Y01669*
X00477Y01669*
X00477Y01669*
X00477Y01668*
X00476Y01668*
X00476Y01668*
X00475Y01667*
X00475Y01667*
X00474Y01667*
X00474Y01666*
X00473Y01666*
X00472Y01665*
X00471Y01665*
X0047Y01665*
X00469Y01664*
X00468Y01664*
X00467Y01664*
X00466*
X00466Y01664*
X00466Y01664*
X00465Y01664*
X00464Y01664*
X00464Y01665*
X00462Y01665*
X00461Y01665*
X0046Y01666*
X0046Y01666*
X00459Y01667*
X00458Y01667*
X00458Y01667*
X00458Y01667*
X00458Y01667*
X00458Y01668*
X00457Y01668*
X00457Y01668*
X00457Y01669*
X00457Y01669*
X00456Y0167*
X00456Y0167*
X00455Y01672*
X00455Y01673*
X00455Y01674*
X00455Y01675*
X00459Y01675*
Y01675*
Y01675*
X0046Y01675*
X0046Y01675*
X0046Y01674*
X0046Y01673*
X0046Y01672*
X00461Y01671*
X00461Y01671*
X00462Y0167*
X00462Y0167*
X00462Y0167*
X00463Y01669*
X00463Y01669*
X00464Y01669*
X00465Y01668*
X00466Y01668*
X00467Y01668*
X00467*
X00467Y01668*
X00468Y01668*
X00469Y01668*
X0047Y01669*
X00471Y01669*
X00472Y0167*
X00472Y0167*
X00473Y01671*
X00473Y01671*
X00473Y01671*
X00473Y01671*
X00473Y01671*
X00473Y01672*
X00474Y01672*
X00474Y01673*
X00475Y01675*
X00475Y01676*
X00475Y01677*
Y01677*
Y01678*
Y01678*
Y01678*
X00475Y01678*
Y01678*
X00475Y01679*
X00475Y0168*
X00474Y01681*
X00474Y01682*
X00473Y01683*
X00473Y01684*
Y01684*
X00473Y01684*
X00472Y01684*
X00472Y01685*
X00471Y01685*
X0047Y01685*
X00469Y01686*
X00468Y01686*
X00467Y01686*
X00466*
X00466Y01686*
X00465Y01686*
X00465Y01686*
X00464Y01686*
X00463Y01685*
X00463Y01685*
X00463Y01685*
X00462Y01685*
X00462Y01685*
X00462Y01684*
X00461Y01684*
X00461Y01684*
X0046Y01683*
X0046Y01682*
X00455Y01683*
X00459Y01703*
X00478*
Y01698*
G37*
G36*
X00432Y01704D02*
X00433D01*
X00433Y01704*
X00434Y01704*
X00434Y01704*
X00436Y01703*
X00438Y01703*
X00439Y01702*
X0044Y01702*
X00441Y01701*
X00441Y01701*
X00441Y01701*
X00441Y01701*
X00442Y01701*
X00442Y01701*
X00442Y017*
X00443Y017*
X00444Y01699*
X00445Y01697*
X00446Y01696*
X00447Y01694*
Y01694*
X00447Y01694*
X00448Y01694*
X00448Y01693*
X00448Y01693*
X00448Y01693*
X00448Y01692*
X00449Y01691*
X00449Y01691*
X00449Y0169*
X00449Y01689*
X00449Y01688*
X0045Y01686*
X0045Y01684*
Y01684*
Y01684*
Y01684*
Y01683*
X0045Y01683*
Y01682*
X0045Y01682*
X00449Y01681*
X00449Y0168*
X00449Y01678*
X00449Y01677*
X00448Y01676*
Y01675*
X00448Y01675*
X00448Y01675*
X00448Y01675*
X00448Y01675*
X00448Y01674*
X00447Y01673*
X00447Y01672*
X00446Y01671*
X00445Y0167*
X00444Y01669*
X00444*
X00444Y01669*
X00444Y01669*
X00444Y01669*
X00445Y01668*
X00445Y01668*
X00446Y01668*
X00447Y01667*
X00448Y01666*
X00449Y01666*
X0045Y01665*
X00449Y01662*
X00449*
X00449Y01662*
X00448Y01662*
X00448Y01662*
X00448Y01662*
X00447Y01663*
X00447Y01663*
X00446Y01663*
X00445Y01664*
X00444Y01664*
X00442Y01665*
X00441Y01667*
X00441*
X0044Y01666*
X0044Y01666*
X0044Y01666*
X00439Y01666*
X00439Y01666*
X00438Y01666*
X00438Y01665*
X00437Y01665*
X00436Y01665*
X00435Y01665*
X00433Y01664*
X00432Y01664*
X00431Y01664*
X00431*
X0043Y01664*
X0043*
X00429Y01664*
X00429Y01664*
X00428Y01665*
X00427Y01665*
X00425Y01665*
X00423Y01666*
X00422Y01666*
X00422Y01667*
X00422Y01667*
X00421Y01667*
X00421Y01667*
X00421Y01667*
X00421Y01667*
X0042Y01668*
X00419Y01669*
X00418Y0167*
X00417Y01671*
X00416Y01672*
X00415Y01674*
Y01674*
X00415Y01674*
X00415Y01674*
X00415Y01675*
X00415Y01675*
X00414Y01675*
X00414Y01676*
X00414Y01677*
X00414Y01677*
X00414Y01678*
X00413Y01679*
X00413Y0168*
X00413Y01682*
X00413Y01684*
Y01684*
Y01684*
Y01685*
X00413Y01685*
Y01685*
X00413Y01686*
X00413Y01687*
X00413Y01687*
X00413Y01689*
X00414Y01691*
X00414Y01693*
X00415Y01694*
X00415Y01694*
X00415Y01695*
X00415Y01695*
X00416Y01695*
X00416Y01696*
X00416Y01696*
X00417Y01697*
X00418Y01698*
X00419Y01699*
X0042Y017*
X00422Y01701*
X00422Y01702*
X00422Y01702*
X00422Y01702*
X00422Y01702*
X00423Y01702*
X00423Y01702*
X00424Y01702*
X00424Y01703*
X00425Y01703*
X00426Y01703*
X00428Y01704*
X00429Y01704*
X0043Y01704*
X00432*
X00432Y01704*
G37*
G36*
X00555Y02201D02*
X0056D01*
Y02197*
X00555*
Y02187*
X0055*
Y02197*
X00534*
Y02201*
X00551Y02226*
X00555*
Y02201*
G37*
G36*
X00513Y02227D02*
X00513D01*
X00514Y02226*
X00515Y02226*
X00515Y02226*
X00517Y02226*
X00518Y02226*
X0052Y02225*
X00521Y02224*
X00522Y02224*
X00522Y02224*
X00522Y02224*
X00522Y02224*
X00522Y02224*
X00523Y02223*
X00523Y02223*
X00524Y02222*
X00525Y02221*
X00526Y0222*
X00527Y02219*
X00528Y02217*
Y02217*
X00528Y02217*
X00528Y02216*
X00528Y02216*
X00529Y02216*
X00529Y02215*
X00529Y02215*
X00529Y02214*
X00529Y02213*
X0053Y02212*
X0053Y02212*
X0053Y02211*
X0053Y02209*
X0053Y02207*
Y02207*
Y02206*
Y02206*
Y02206*
X0053Y02205*
Y02205*
X0053Y02204*
X0053Y02204*
X0053Y02203*
X0053Y02201*
X00529Y022*
X00529Y02198*
Y02198*
X00529Y02198*
X00529Y02198*
X00529Y02198*
X00528Y02197*
X00528Y02197*
X00528Y02196*
X00527Y02195*
X00526Y02194*
X00526Y02193*
X00525Y02192*
X00525*
X00525Y02191*
X00525Y02191*
X00525Y02191*
X00525Y02191*
X00526Y02191*
X00527Y0219*
X00528Y0219*
X00529Y02189*
X0053Y02188*
X00531Y02188*
X0053Y02184*
X0053*
X00529Y02185*
X00529Y02185*
X00529Y02185*
X00528Y02185*
X00528Y02185*
X00528Y02185*
X00527Y02186*
X00526Y02186*
X00524Y02187*
X00523Y02188*
X00521Y02189*
X00521*
X00521Y02189*
X00521Y02189*
X00521Y02189*
X0052Y02189*
X0052Y02188*
X00519Y02188*
X00519Y02188*
X00518Y02188*
X00517Y02188*
X00516Y02187*
X00514Y02187*
X00513Y02187*
X00512Y02187*
X00511*
X00511Y02187*
X00511*
X0051Y02187*
X00509Y02187*
X00509Y02187*
X00507Y02187*
X00506Y02188*
X00504Y02188*
X00503Y02189*
X00502Y02189*
X00502Y02189*
X00502Y02189*
X00502Y0219*
X00502Y0219*
X00501Y0219*
X00501Y0219*
X005Y02191*
X00499Y02192*
X00498Y02193*
X00497Y02195*
X00496Y02196*
Y02196*
X00496Y02197*
X00496Y02197*
X00496Y02197*
X00495Y02198*
X00495Y02198*
X00495Y02199*
X00495Y02199*
X00495Y022*
X00494Y02201*
X00494Y02202*
X00494Y02203*
X00494Y02205*
X00494Y02207*
Y02207*
Y02207*
Y02207*
X00494Y02208*
Y02208*
X00494Y02209*
X00494Y02209*
X00494Y0221*
X00494Y02212*
X00495Y02213*
X00495Y02215*
X00496Y02217*
X00496Y02217*
X00496Y02217*
X00496Y02217*
X00496Y02218*
X00497Y02218*
X00497Y02219*
X00498Y0222*
X00498Y02221*
X005Y02222*
X00501Y02223*
X00502Y02224*
X00502Y02224*
X00503Y02224*
X00503Y02224*
X00503Y02225*
X00504Y02225*
X00504Y02225*
X00505Y02225*
X00505Y02225*
X00506Y02226*
X00507Y02226*
X00508Y02226*
X0051Y02226*
X00511Y02227*
X00512*
X00513Y02227*
G37*
G36*
X01058Y0114D02*
X01059Y0114D01*
X0106Y0114*
X01061Y0114*
X01062Y01139*
X01063Y01139*
X01063*
X01063Y01139*
X01063Y01139*
X01064Y01138*
X01064Y01138*
X01065Y01138*
X01066Y01137*
X01066Y01136*
X01067Y01135*
X01067Y01135*
X01067Y01135*
X01067Y01135*
X01068Y01134*
X01068Y01133*
X01068Y01132*
X01068Y01131*
X01068Y0113*
Y0113*
Y0113*
X01068Y0113*
X01068Y01129*
X01068Y01128*
X01068Y01127*
X01067Y01127*
X01067Y01126*
X01067Y01126*
X01067Y01126*
X01066Y01125*
X01066Y01125*
X01065Y01124*
X01065Y01124*
X01064Y01123*
X01063Y01123*
X01063*
X01063Y01123*
X01063Y01123*
X01064Y01123*
X01064Y01122*
X01065Y01122*
X01066Y01122*
X01067Y01121*
X01068Y0112*
X01068Y01119*
X01068Y01119*
X01069Y01119*
X01069Y01118*
X01069Y01118*
X0107Y01117*
X0107Y01116*
X0107Y01115*
X0107Y01113*
Y01113*
Y01113*
Y01113*
X0107Y01112*
X0107Y01112*
X0107Y01111*
X0107Y01111*
X0107Y0111*
X01069Y01109*
X01069Y01108*
X01069Y01108*
X01068Y01107*
X01068Y01106*
X01067Y01105*
X01067Y01105*
X01066Y01105*
X01066Y01105*
X01066Y01104*
X01066Y01104*
X01066Y01104*
X01065Y01104*
X01065Y01103*
X01064Y01103*
X01063Y01103*
X01063Y01102*
X01062Y01102*
X01061Y01102*
X0106Y01102*
X01059Y01101*
X01058Y01101*
X01057Y01101*
X01057*
X01056Y01101*
X01056Y01101*
X01056Y01101*
X01055Y01101*
X01054Y01102*
X01053Y01102*
X01052Y01102*
X01051Y01103*
X0105Y01103*
X0105Y01104*
X01049Y01104*
X01049Y01104*
X01049Y01104*
X01049Y01105*
X01048Y01105*
X01048Y01105*
X01048Y01105*
X01048Y01106*
X01047Y01106*
X01047Y01107*
X01047Y01107*
X01046Y01109*
X01045Y0111*
X01045Y01111*
X01045Y01112*
X0105Y01113*
Y01113*
X0105Y01112*
X0105Y01112*
X0105Y01112*
X0105Y01112*
X0105Y01111*
X0105Y0111*
X01051Y01109*
X01051Y01108*
X01052Y01108*
X01053Y01107*
X01053Y01107*
X01053Y01107*
X01053Y01106*
X01054Y01106*
X01055Y01106*
X01055Y01105*
X01056Y01105*
X01057Y01105*
X01058*
X01058Y01105*
X01058Y01105*
X01059Y01105*
X0106Y01106*
X01061Y01106*
X01062Y01107*
X01063Y01107*
X01063Y01107*
X01063Y01108*
X01064Y01108*
X01064Y01109*
X01065Y0111*
X01065Y01111*
X01065Y01112*
X01065Y01113*
Y01113*
Y01113*
Y01113*
X01065Y01114*
X01065Y01114*
X01065Y01115*
X01065Y01116*
X01064Y01117*
X01064Y01118*
X01063Y01118*
X01063Y01119*
X01063Y01119*
X01062Y01119*
X01062Y0112*
X01061Y0112*
X0106Y0112*
X01059Y0112*
X01058Y01121*
X01057*
X01057Y01121*
X01056Y0112*
X01056Y0112*
X01055Y0112*
X01054Y0112*
X01055Y01124*
X01055*
X01055Y01124*
X01056*
X01057Y01124*
X01057Y01124*
X01058Y01125*
X01059Y01125*
X0106Y01125*
X01061Y01126*
X01061*
X01061Y01126*
X01061Y01126*
X01062Y01126*
X01062Y01127*
X01063Y01128*
X01063Y01128*
X01063Y01129*
X01064Y0113*
Y01131*
Y01131*
Y01131*
Y01131*
X01063Y01131*
X01063Y01132*
X01063Y01133*
X01063Y01133*
X01062Y01134*
X01062Y01135*
X01062Y01135*
X01061Y01135*
X01061Y01135*
X01061Y01136*
X0106Y01136*
X01059Y01136*
X01058Y01136*
X01057Y01137*
X01057*
X01056Y01136*
X01056Y01136*
X01055Y01136*
X01054Y01136*
X01053Y01135*
X01053Y01135*
X01053Y01135*
X01052Y01135*
X01052Y01134*
X01052Y01134*
X01051Y01133*
X01051Y01132*
X01051Y01131*
X0105Y0113*
X01046Y01131*
Y01131*
X01046Y01131*
X01046Y01131*
X01046Y01131*
X01046Y01132*
X01046Y01132*
X01046Y01133*
X01047Y01134*
X01048Y01136*
X01048Y01137*
X0105Y01138*
X0105Y01138*
X0105Y01138*
X0105Y01138*
X0105Y01138*
X0105Y01138*
X01051Y01139*
X01051Y01139*
X01052Y01139*
X01053Y0114*
X01054Y0114*
X01056Y0114*
X01056Y0114*
X01058*
X01058Y0114*
G37*
G36*
X01023Y01141D02*
X01023D01*
X01024Y01141*
X01024Y01141*
X01025Y01141*
X01026Y0114*
X01028Y0114*
X0103Y01139*
X01031Y01139*
X01031Y01138*
X01031Y01138*
X01032Y01138*
X01032Y01138*
X01032Y01138*
X01032Y01138*
X01033Y01137*
X01034Y01137*
X01035Y01136*
X01036Y01134*
X01037Y01133*
X01038Y01131*
Y01131*
X01038Y01131*
X01038Y01131*
X01038Y01131*
X01038Y0113*
X01039Y0113*
X01039Y01129*
X01039Y01128*
X01039Y01128*
X01039Y01127*
X0104Y01126*
X0104Y01125*
X0104Y01123*
X0104Y01121*
Y01121*
Y01121*
Y01121*
Y0112*
X0104Y0112*
Y01119*
X0104Y01119*
X0104Y01118*
X0104Y01117*
X0104Y01115*
X01039Y01114*
X01039Y01113*
Y01112*
X01039Y01112*
X01039Y01112*
X01038Y01112*
X01038Y01112*
X01038Y01111*
X01038Y0111*
X01037Y01109*
X01036Y01108*
X01035Y01107*
X01034Y01106*
X01034*
X01035Y01106*
X01035Y01106*
X01035Y01106*
X01035Y01105*
X01036Y01105*
X01037Y01105*
X01038Y01104*
X01039Y01103*
X0104Y01103*
X01041Y01102*
X01039Y01099*
X01039*
X01039Y01099*
X01039Y01099*
X01039Y01099*
X01038Y01099*
X01038Y011*
X01037Y011*
X01037Y011*
X01036Y01101*
X01034Y01101*
X01033Y01102*
X01031Y01104*
X01031*
X01031Y01103*
X01031Y01103*
X0103Y01103*
X0103Y01103*
X0103Y01103*
X01029Y01103*
X01028Y01102*
X01028Y01102*
X01027Y01102*
X01025Y01102*
X01024Y01101*
X01023Y01101*
X01022Y01101*
X01021*
X01021Y01101*
X0102*
X0102Y01101*
X01019Y01101*
X01019Y01102*
X01017Y01102*
X01015Y01102*
X01014Y01103*
X01013Y01103*
X01012Y01104*
X01012Y01104*
X01012Y01104*
X01012Y01104*
X01012Y01104*
X01011Y01104*
X01011Y01105*
X0101Y01106*
X01009Y01107*
X01008Y01108*
X01007Y01109*
X01006Y01111*
Y01111*
X01006Y01111*
X01005Y01111*
X01005Y01112*
X01005Y01112*
X01005Y01112*
X01005Y01113*
X01005Y01114*
X01004Y01114*
X01004Y01115*
X01004Y01116*
X01004Y01117*
X01004Y01119*
X01003Y01121*
Y01121*
Y01121*
Y01122*
X01003Y01122*
Y01122*
X01004Y01123*
X01004Y01124*
X01004Y01124*
X01004Y01126*
X01004Y01128*
X01005Y0113*
X01006Y01131*
X01006Y01131*
X01006Y01132*
X01006Y01132*
X01006Y01132*
X01006Y01133*
X01007Y01133*
X01007Y01134*
X01008Y01135*
X01009Y01136*
X01011Y01137*
X01012Y01138*
X01012Y01139*
X01012Y01139*
X01013Y01139*
X01013Y01139*
X01013Y01139*
X01014Y01139*
X01014Y01139*
X01015Y0114*
X01016Y0114*
X01016Y0114*
X01018Y01141*
X0102Y01141*
X01021Y01141*
X01022*
X01023Y01141*
G37*
G36*
X01078Y01495D02*
X01079Y01495D01*
X01079Y01495*
X0108Y01494*
X01081Y01494*
X01082Y01494*
X01084Y01493*
X01084Y01493*
X01085Y01493*
X01086Y01492*
X01086Y01492*
X01086Y01492*
X01086Y01492*
X01087Y01491*
X01087Y01491*
X01087Y01491*
X01087Y0149*
X01088Y0149*
X01088Y0149*
X01088Y01488*
X01089Y01487*
X01089Y01487*
X01089Y01486*
X01089Y01485*
X0109Y01484*
Y01484*
Y01484*
X01089Y01483*
X01089Y01483*
X01089Y01482*
X01089Y01481*
X01089Y0148*
X01089Y0148*
X01088Y01479*
X01088Y01479*
X01088Y01479*
X01088Y01478*
X01087Y01477*
X01087Y01477*
X01086Y01476*
X01085Y01475*
X01085Y01475*
X01085Y01474*
X01085Y01474*
X01084Y01474*
X01084Y01474*
X01084Y01473*
X01083Y01473*
X01083Y01472*
X01082Y01472*
X01081Y01471*
X01081Y0147*
X0108Y0147*
X01079Y01469*
X01078Y01468*
X01078Y01468*
X01078Y01468*
X01078Y01468*
X01077Y01468*
X01077Y01467*
X01077Y01467*
X01076Y01466*
X01075Y01465*
X01074Y01465*
X01073Y01464*
X01073Y01464*
X01073Y01463*
X01073Y01463*
X01072Y01463*
X01072Y01463*
X01072Y01462*
X01072Y01462*
X01071Y01462*
X01071Y01461*
X0109*
Y01456*
X01064*
Y01456*
Y01456*
Y01457*
X01064Y01457*
X01064Y01458*
X01064Y01458*
X01064Y01459*
X01065Y01459*
Y0146*
X01065Y0146*
X01065Y0146*
X01065Y0146*
X01065Y01461*
X01066Y01462*
X01066Y01463*
X01067Y01464*
X01068Y01465*
Y01465*
X01068Y01465*
X01068Y01465*
X01069Y01466*
X01069Y01466*
X0107Y01467*
X01071Y01468*
X01073Y01469*
X01074Y0147*
X01074Y0147*
X01074Y01471*
X01075Y01471*
X01075Y01471*
X01075Y01472*
X01076Y01472*
X01077Y01473*
X01077Y01473*
X01079Y01475*
X0108Y01476*
X01081Y01477*
X01081Y01477*
X01082Y01478*
X01082Y01479*
Y01479*
X01083Y01479*
X01083Y01479*
X01083Y01479*
X01083Y0148*
X01084Y0148*
X01084Y01481*
X01084Y01482*
X01085Y01483*
X01085Y01484*
Y01484*
Y01484*
X01085Y01485*
X01085Y01485*
X01084Y01486*
X01084Y01487*
X01084Y01487*
X01083Y01488*
X01083Y01489*
X01083Y01489*
X01082Y01489*
X01082Y0149*
X01081Y0149*
X0108Y0149*
X0108Y01491*
X01079Y01491*
X01077Y01491*
X01077*
X01077Y01491*
X01076Y01491*
X01075Y01491*
X01075Y0149*
X01074Y0149*
X01073Y01489*
X01072Y01489*
X01072Y01489*
X01072Y01488*
X01071Y01488*
X01071Y01487*
X0107Y01487*
X0107Y01486*
X0107Y01484*
X0107Y01483*
X01065Y01484*
Y01484*
X01065Y01484*
Y01484*
X01065Y01485*
X01065Y01485*
X01065Y01486*
X01065Y01486*
X01066Y01487*
X01066Y01488*
X01067Y01489*
X01067Y0149*
X01068Y01491*
X01068Y01491*
X01069Y01492*
X01069Y01492*
X01069Y01492*
X01069Y01492*
X01069Y01492*
X0107Y01493*
X0107Y01493*
X0107Y01493*
X01071Y01493*
X01072Y01494*
X01072Y01494*
X01073Y01494*
X01074Y01494*
X01075Y01494*
X01076Y01495*
X01076Y01495*
X01077Y01495*
X01078*
X01078Y01495*
G37*
G36*
X01042Y01495D02*
X01043D01*
X01043Y01495*
X01044Y01495*
X01045Y01495*
X01046Y01495*
X01048Y01494*
X01049Y01494*
X0105Y01493*
X01051Y01493*
X01051Y01493*
X01051Y01493*
X01051Y01492*
X01052Y01492*
X01052Y01492*
X01053Y01492*
X01054Y01491*
X01055Y0149*
X01056Y01489*
X01057Y01487*
X01058Y01486*
Y01486*
X01058Y01485*
X01058Y01485*
X01058Y01485*
X01058Y01484*
X01058Y01484*
X01059Y01483*
X01059Y01483*
X01059Y01482*
X01059Y01481*
X01059Y0148*
X0106Y01479*
X0106Y01477*
X0106Y01475*
Y01475*
Y01475*
Y01475*
Y01475*
X0106Y01474*
Y01474*
X0106Y01473*
X0106Y01473*
X0106Y01471*
X01059Y0147*
X01059Y01468*
X01058Y01467*
Y01467*
X01058Y01467*
X01058Y01466*
X01058Y01466*
X01058Y01466*
X01058Y01466*
X01057Y01465*
X01057Y01464*
X01056Y01462*
X01055Y01461*
X01054Y0146*
X01054*
X01054Y0146*
X01054Y0146*
X01055Y0146*
X01055Y0146*
X01055Y01459*
X01056Y01459*
X01057Y01458*
X01058Y01458*
X01059Y01457*
X01061Y01457*
X01059Y01453*
X01059*
X01059Y01453*
X01059Y01453*
X01058Y01453*
X01058Y01454*
X01058Y01454*
X01057Y01454*
X01056Y01454*
X01055Y01455*
X01054Y01456*
X01052Y01457*
X01051Y01458*
X01051*
X01051Y01458*
X0105Y01458*
X0105Y01458*
X0105Y01457*
X01049Y01457*
X01049Y01457*
X01048Y01457*
X01047Y01457*
X01047Y01456*
X01045Y01456*
X01043Y01456*
X01042Y01456*
X01041Y01456*
X01041*
X0104Y01456*
X0104*
X01039Y01456*
X01039Y01456*
X01038Y01456*
X01037Y01456*
X01035Y01457*
X01034Y01457*
X01033Y01458*
X01032Y01458*
X01032Y01458*
X01032Y01458*
X01032Y01458*
X01031Y01458*
X01031Y01459*
X0103Y01459*
X0103Y0146*
X01028Y01461*
X01027Y01462*
X01026Y01463*
X01025Y01465*
Y01465*
X01025Y01465*
X01025Y01466*
X01025Y01466*
X01025Y01466*
X01025Y01467*
X01024Y01467*
X01024Y01468*
X01024Y01469*
X01024Y0147*
X01024Y0147*
X01023Y01471*
X01023Y01473*
X01023Y01475*
Y01475*
Y01476*
Y01476*
X01023Y01476*
Y01477*
X01023Y01477*
X01023Y01478*
X01023Y01479*
X01024Y0148*
X01024Y01482*
X01025Y01484*
X01025Y01486*
X01025Y01486*
X01026Y01486*
X01026Y01486*
X01026Y01487*
X01026Y01487*
X01026Y01487*
X01027Y01488*
X01028Y01489*
X01029Y01491*
X0103Y01492*
X01032Y01493*
X01032Y01493*
X01032Y01493*
X01032Y01493*
X01033Y01493*
X01033Y01493*
X01034Y01494*
X01034Y01494*
X01035Y01494*
X01035Y01494*
X01036Y01494*
X01038Y01495*
X0104Y01495*
X0104Y01495*
X01042*
X01042Y01495*
G37*
G36*
X01083Y02165D02*
X01078D01*
Y02195*
X01078Y02195*
X01077Y02195*
X01077Y02194*
X01077Y02194*
X01076Y02193*
X01075Y02193*
X01074Y02192*
X01073Y02192*
X01073*
X01073Y02192*
X01073Y02191*
X01072Y02191*
X01072Y02191*
X01071Y0219*
X0107Y0219*
X01069Y0219*
X01068Y02189*
Y02194*
X01068*
X01069Y02194*
X01069Y02194*
X01069Y02194*
X01069Y02194*
X0107Y02194*
X01071Y02195*
X01072Y02196*
X01073Y02196*
X01074Y02197*
X01075Y02198*
X01075Y02198*
X01075Y02198*
X01076Y02199*
X01076Y02199*
X01076Y02199*
X01077Y022*
X01078Y02201*
X01078Y02202*
X01079Y02202*
X01079Y02203*
X01083*
Y02165*
G37*
G36*
X01042Y02204D02*
X01043D01*
X01043Y02204*
X01044Y02204*
X01045Y02204*
X01046Y02203*
X01048Y02203*
X01049Y02202*
X0105Y02202*
X01051Y02201*
X01051Y02201*
X01051Y02201*
X01051Y02201*
X01052Y02201*
X01052Y02201*
X01053Y022*
X01054Y022*
X01055Y02199*
X01056Y02197*
X01057Y02196*
X01058Y02194*
Y02194*
X01058Y02194*
X01058Y02194*
X01058Y02193*
X01058Y02193*
X01058Y02193*
X01059Y02192*
X01059Y02191*
X01059Y02191*
X01059Y0219*
X01059Y02189*
X0106Y02188*
X0106Y02186*
X0106Y02184*
Y02184*
Y02184*
Y02184*
Y02183*
X0106Y02183*
Y02182*
X0106Y02182*
X0106Y02181*
X0106Y0218*
X01059Y02178*
X01059Y02177*
X01058Y02176*
Y02175*
X01058Y02175*
X01058Y02175*
X01058Y02175*
X01058Y02175*
X01058Y02174*
X01057Y02173*
X01057Y02172*
X01056Y02171*
X01055Y0217*
X01054Y02169*
X01054*
X01054Y02169*
X01054Y02169*
X01055Y02169*
X01055Y02168*
X01055Y02168*
X01056Y02168*
X01057Y02167*
X01058Y02166*
X01059Y02166*
X01061Y02165*
X01059Y02162*
X01059*
X01059Y02162*
X01059Y02162*
X01058Y02162*
X01058Y02162*
X01058Y02163*
X01057Y02163*
X01056Y02163*
X01055Y02164*
X01054Y02164*
X01052Y02165*
X01051Y02167*
X01051*
X01051Y02166*
X0105Y02166*
X0105Y02166*
X0105Y02166*
X01049Y02166*
X01049Y02166*
X01048Y02165*
X01047Y02165*
X01047Y02165*
X01045Y02165*
X01043Y02164*
X01042Y02164*
X01041Y02164*
X01041*
X0104Y02164*
X0104*
X01039Y02164*
X01039Y02164*
X01038Y02165*
X01037Y02165*
X01035Y02165*
X01034Y02166*
X01033Y02166*
X01032Y02167*
X01032Y02167*
X01032Y02167*
X01032Y02167*
X01031Y02167*
X01031Y02167*
X0103Y02168*
X0103Y02169*
X01028Y0217*
X01027Y02171*
X01026Y02172*
X01025Y02174*
Y02174*
X01025Y02174*
X01025Y02174*
X01025Y02175*
X01025Y02175*
X01025Y02175*
X01024Y02176*
X01024Y02177*
X01024Y02177*
X01024Y02178*
X01024Y02179*
X01023Y0218*
X01023Y02182*
X01023Y02184*
Y02184*
Y02184*
Y02185*
X01023Y02185*
Y02185*
X01023Y02186*
X01023Y02187*
X01023Y02187*
X01024Y02189*
X01024Y02191*
X01025Y02193*
X01025Y02194*
X01025Y02194*
X01026Y02195*
X01026Y02195*
X01026Y02195*
X01026Y02196*
X01026Y02196*
X01027Y02197*
X01028Y02198*
X01029Y02199*
X0103Y022*
X01032Y02201*
X01032Y02202*
X01032Y02202*
X01032Y02202*
X01033Y02202*
X01033Y02202*
X01034Y02202*
X01034Y02202*
X01035Y02203*
X01035Y02203*
X01036Y02203*
X01038Y02204*
X0104Y02204*
X0104Y02204*
X01042*
X01042Y02204*
G37*
G36*
X00089Y02064D02*
Y02064D01*
Y02063*
Y02063*
Y02063*
X00089Y02062*
Y02062*
X00089Y02061*
X00089Y0206*
X00088Y02058*
X00088Y02057*
X00088Y02056*
Y02056*
X00088Y02056*
X00087Y02056*
X00087Y02055*
X00087Y02055*
X00086Y02054*
X00086Y02053*
X00085Y02053*
X00084Y02052*
X00084Y02052*
X00083Y02052*
X00083Y02052*
X00082Y02051*
X00081Y02051*
X0008Y02051*
X00079Y02051*
X00078Y02051*
X00078*
X00077Y02051*
X00077Y02051*
X00076Y02051*
X00075Y02051*
X00074Y02051*
X00073Y02052*
X00072Y02052*
X00071Y02053*
X00071Y02053*
X0007Y02054*
X0007Y02054*
X0007Y02054*
X0007Y02054*
X0007Y02054*
X0007Y02054*
X00069Y02055*
X00069Y02055*
X00069Y02056*
X00069Y02056*
X00068Y02057*
X00068Y02058*
X00068Y02058*
X00068Y02059*
X00068Y0206*
X00068Y02061*
Y02062*
X00072Y02063*
Y02063*
Y02063*
Y02062*
X00072Y02062*
X00072Y02062*
Y02061*
X00073Y0206*
X00073Y02059*
X00073Y02058*
X00073Y02058*
X00074Y02057*
X00074Y02057*
X00074Y02057*
X00074Y02057*
X00075Y02056*
X00075Y02056*
X00076Y02056*
X00076Y02056*
X00077Y02055*
X00078Y02055*
X00078*
X00079Y02055*
X00079Y02055*
X0008Y02055*
X0008Y02056*
X00081Y02056*
X00081Y02056*
X00081Y02056*
X00082Y02056*
X00082Y02056*
X00082Y02057*
X00082Y02057*
X00083Y02057*
X00083Y02058*
X00083Y02058*
Y02059*
X00083Y02059*
X00083Y02059*
X00083Y0206*
X00084Y0206*
X00084Y02061*
X00084Y02062*
Y02063*
Y0209*
X00089*
Y02064*
G37*
G36*
X00109Y0209D02*
X00109Y0209D01*
X0011Y0209*
X0011Y0209*
X00111Y0209*
X00113Y02089*
X00114Y02089*
X00115Y02088*
X00115Y02088*
X00116Y02087*
X00117Y02087*
X00117Y02087*
X00117Y02087*
X00117Y02087*
X00117Y02086*
X00117Y02086*
X00118Y02086*
X00118Y02085*
X00118Y02085*
X00119Y02084*
X00119Y02082*
X0012Y02082*
X0012Y02081*
X0012Y0208*
X0012Y02079*
Y02079*
Y02079*
X0012Y02078*
X0012Y02078*
X0012Y02077*
X0012Y02076*
X00119Y02076*
X00119Y02075*
X00119Y02075*
X00119Y02074*
X00119Y02074*
X00118Y02073*
X00118Y02073*
X00117Y02072*
X00117Y02071*
X00116Y0207*
X00116Y0207*
X00115Y0207*
X00115Y02069*
X00115Y02069*
X00115Y02069*
X00114Y02068*
X00114Y02068*
X00113Y02067*
X00113Y02067*
X00112Y02066*
X00111Y02066*
X0011Y02065*
X00109Y02064*
X00109Y02063*
X00109Y02063*
X00108Y02063*
X00108Y02063*
X00108Y02063*
X00108Y02062*
X00107Y02062*
X00106Y02061*
X00105Y02061*
X00104Y0206*
X00104Y02059*
X00103Y02059*
X00103Y02058*
X00103Y02058*
X00103Y02058*
X00103Y02058*
X00102Y02058*
X00102Y02057*
X00102Y02057*
X00101Y02056*
X0012*
Y02051*
X00095*
Y02051*
Y02052*
Y02052*
X00095Y02052*
X00095Y02053*
X00095Y02053*
X00095Y02054*
X00095Y02055*
Y02055*
X00095Y02055*
X00095Y02055*
X00096Y02056*
X00096Y02056*
X00096Y02057*
X00097Y02058*
X00097Y02059*
X00098Y0206*
Y0206*
X00098Y0206*
X00099Y0206*
X00099Y02061*
X001Y02061*
X00101Y02062*
X00102Y02063*
X00103Y02064*
X00104Y02066*
X00104Y02066*
X00105Y02066*
X00105Y02066*
X00105Y02066*
X00106Y02067*
X00106Y02067*
X00107Y02068*
X00108Y02068*
X00109Y0207*
X00111Y02071*
X00111Y02072*
X00112Y02072*
X00112Y02073*
X00113Y02074*
Y02074*
X00113Y02074*
X00113Y02074*
X00113Y02074*
X00114Y02075*
X00114Y02076*
X00114Y02076*
X00115Y02077*
X00115Y02078*
X00115Y02079*
Y02079*
Y0208*
X00115Y0208*
X00115Y0208*
X00115Y02081*
X00115Y02082*
X00114Y02083*
X00114Y02083*
X00113Y02084*
X00113Y02084*
X00113Y02084*
X00112Y02085*
X00112Y02085*
X00111Y02085*
X0011Y02086*
X00109Y02086*
X00108Y02086*
X00107*
X00107Y02086*
X00107Y02086*
X00106Y02086*
X00105Y02086*
X00104Y02085*
X00103Y02085*
X00102Y02084*
X00102Y02084*
X00102Y02084*
X00102Y02083*
X00101Y02083*
X00101Y02082*
X00101Y02081*
X001Y0208*
X001Y02078*
X00095Y02079*
Y02079*
X00096Y02079*
Y02079*
X00096Y0208*
X00096Y0208*
X00096Y02081*
X00096Y02081*
X00096Y02082*
X00097Y02083*
X00097Y02085*
X00098Y02085*
X00098Y02086*
X00099Y02087*
X00099Y02087*
X00099Y02087*
X00099Y02087*
X00099Y02087*
X001Y02088*
X001Y02088*
X001Y02088*
X00101Y02088*
X00101Y02089*
X00102Y02089*
X00103Y02089*
X00103Y02089*
X00104Y02089*
X00105Y0209*
X00106Y0209*
X00107Y0209*
X00108Y0209*
X00108*
X00109Y0209*
G37*
G36*
X01191Y02064D02*
Y02064D01*
Y02063*
Y02063*
Y02063*
X01191Y02062*
Y02062*
X01191Y02061*
X01191Y0206*
X0119Y02058*
X0119Y02057*
X0119Y02056*
Y02056*
X0119Y02056*
X01189Y02056*
X01189Y02055*
X01189Y02055*
X01188Y02054*
X01188Y02053*
X01187Y02053*
X01186Y02052*
X01186Y02052*
X01185Y02052*
X01185Y02052*
X01184Y02051*
X01183Y02051*
X01182Y02051*
X01181Y02051*
X0118Y02051*
X0118*
X01179Y02051*
X01179Y02051*
X01178Y02051*
X01177Y02051*
X01176Y02051*
X01175Y02052*
X01174Y02052*
X01173Y02053*
X01173Y02053*
X01172Y02054*
X01172Y02054*
X01172Y02054*
X01172Y02054*
X01172Y02054*
X01172Y02054*
X01171Y02055*
X01171Y02055*
X01171Y02056*
X01171Y02056*
X0117Y02057*
X0117Y02058*
X0117Y02058*
X0117Y02059*
X0117Y0206*
X0117Y02061*
Y02062*
X01174Y02063*
Y02063*
Y02063*
Y02062*
X01174Y02062*
X01174Y02062*
Y02061*
X01175Y0206*
X01175Y02059*
X01175Y02058*
X01175Y02058*
X01176Y02057*
X01176Y02057*
X01176Y02057*
X01176Y02057*
X01177Y02056*
X01177Y02056*
X01178Y02056*
X01178Y02056*
X01179Y02055*
X0118Y02055*
X0118*
X01181Y02055*
X01181Y02055*
X01182Y02055*
X01182Y02056*
X01183Y02056*
X01183Y02056*
X01183Y02056*
X01184Y02056*
X01184Y02056*
X01184Y02057*
X01184Y02057*
X01185Y02057*
X01185Y02058*
X01185Y02058*
Y02059*
X01185Y02059*
X01185Y02059*
X01185Y0206*
X01186Y0206*
X01186Y02061*
X01186Y02062*
Y02063*
Y0209*
X01191*
Y02064*
G37*
G36*
X01215Y02051D02*
X0121D01*
Y02081*
X0121Y02081*
X0121Y02081*
X0121Y02081*
X01209Y0208*
X01208Y0208*
X01208Y02079*
X01207Y02079*
X01206Y02078*
X01206*
X01206Y02078*
X01205Y02078*
X01205Y02078*
X01204Y02077*
X01203Y02077*
X01202Y02076*
X01202Y02076*
X01201Y02076*
Y0208*
X01201*
X01201Y0208*
X01201Y0208*
X01201Y02081*
X01202Y02081*
X01202Y02081*
X01203Y02082*
X01204Y02082*
X01205Y02083*
X01207Y02084*
X01208Y02085*
X01208Y02085*
X01208Y02085*
X01208Y02085*
X01208Y02085*
X01209Y02086*
X01209Y02086*
X0121Y02087*
X01211Y02088*
X01211Y02089*
X01212Y0209*
X01215*
Y02051*
G37*
G36*
X00971Y00579D02*
X00972Y00579D01*
X00972Y00579*
X00973Y00579*
X00974Y00579*
X00975Y00579*
X00977Y00578*
X00978Y00578*
X00978Y00578*
X00979Y00577*
X0098Y00577*
X0098Y00576*
X0098Y00576*
X0098Y00576*
X00981Y00576*
X00981Y00576*
X00981Y00575*
X00982Y00575*
X00982Y00574*
X00983Y00574*
X00983Y00573*
X00984Y00573*
X00984Y00572*
X00984Y00571*
X00985Y0057*
X00985Y00569*
X00985Y00568*
X0098Y00567*
Y00567*
X0098Y00567*
X0098Y00567*
X0098Y00568*
X0098Y00568*
X0098Y00569*
X00979Y00569*
X00979Y0057*
X00978Y00571*
X00977Y00572*
X00977Y00573*
X00976Y00573*
X00976Y00574*
X00976Y00574*
X00975Y00574*
X00974Y00575*
X00973Y00575*
X00972Y00575*
X0097Y00575*
X0097*
X00969Y00575*
X00969*
X00969Y00575*
X00968Y00575*
X00966Y00575*
X00965Y00574*
X00964Y00574*
X00963Y00573*
X00963*
X00963Y00573*
X00962Y00573*
X00962Y00572*
X00961Y00571*
X0096Y00571*
X0096Y0057*
X00959Y00569*
X00959Y00567*
Y00567*
X00959Y00567*
X00958Y00567*
X00958Y00567*
X00958Y00566*
X00958Y00566*
X00958Y00565*
X00958Y00564*
X00958Y00563*
X00957Y00561*
X00957Y0056*
Y0056*
Y0056*
Y00559*
Y00559*
X00957Y00559*
Y00558*
X00958Y00558*
X00958Y00557*
X00958Y00556*
X00958Y00554*
X00958Y00553*
X00959Y00551*
Y00551*
X00959Y00551*
X00959Y00551*
X00959Y00551*
X00959Y0055*
X0096Y00549*
X00961Y00548*
X00961Y00547*
X00962Y00547*
X00963Y00546*
X00963*
X00963Y00546*
X00964Y00546*
X00964Y00546*
X00964Y00545*
X00964Y00545*
X00965Y00545*
X00966Y00545*
X00967Y00544*
X00968Y00544*
X0097Y00544*
X0097*
X0097Y00544*
X00971*
X00971Y00544*
X00972Y00544*
X00973Y00545*
X00975Y00545*
X00976Y00546*
X00976Y00546*
X00977Y00546*
X00977Y00547*
X00977Y00547*
X00977Y00547*
X00977Y00547*
X00978Y00547*
X00978Y00548*
X00978Y00548*
X00979Y00548*
X00979Y00549*
X00979Y00549*
X0098Y0055*
X0098Y00551*
X0098Y00551*
X00981Y00552*
X00981Y00553*
X00981Y00554*
X00986Y00553*
Y00552*
X00986Y00552*
X00986Y00552*
X00986Y00551*
X00986Y00551*
X00985Y0055*
X00985Y0055*
X00985Y00549*
X00984Y00547*
X00983Y00546*
X00982Y00545*
X00982Y00544*
X00981Y00544*
X0098Y00543*
X0098Y00543*
X0098Y00543*
X0098Y00543*
X0098Y00542*
X00979Y00542*
X00979Y00542*
X00978Y00542*
X00978Y00541*
X00977Y00541*
X00976Y00541*
X00975Y0054*
X00974Y0054*
X00973Y0054*
X00972Y0054*
X00971Y0054*
X0097Y0054*
X0097*
X00969Y0054*
X00969*
X00968Y0054*
X00967Y0054*
X00967Y0054*
X00965Y0054*
X00963Y00541*
X00962Y00541*
X00961Y00542*
X0096Y00542*
X0096Y00542*
X0096Y00542*
X0096Y00542*
X0096Y00543*
X00959Y00543*
X00959Y00543*
X00958Y00544*
X00958Y00544*
X00957Y00545*
X00957Y00545*
X00956Y00546*
X00955Y00548*
X00954Y0055*
Y0055*
X00954Y0055*
X00954Y0055*
X00954Y0055*
X00954Y00551*
X00954Y00551*
X00953Y00552*
X00953Y00553*
X00953Y00553*
X00953Y00554*
X00953Y00556*
X00952Y00558*
X00952Y0056*
Y0056*
Y0056*
Y0056*
X00952Y00561*
Y00561*
X00952Y00562*
X00952Y00563*
X00952Y00563*
X00953Y00565*
X00953Y00567*
X00954Y00569*
X00954Y0057*
X00955Y0057*
X00955Y00571*
X00955Y00571*
X00955Y00571*
X00955Y00571*
X00955Y00572*
X00956Y00573*
X00957Y00574*
X00958Y00575*
X00959Y00576*
X00961Y00577*
X00961Y00577*
X00961Y00577*
X00961Y00577*
X00962Y00578*
X00962Y00578*
X00963Y00578*
X00963Y00578*
X00964Y00578*
X00964Y00578*
X00965Y00579*
X00967Y00579*
X00968Y00579*
X0097Y00579*
X00971*
X00971Y00579*
G37*
G36*
X01004Y00579D02*
X01004Y00579D01*
X01005Y00579*
X01006Y00578*
X01007Y00578*
X01008Y00578*
X01008*
X01008Y00578*
X01009Y00577*
X01009Y00577*
X0101Y00577*
X0101Y00576*
X01011Y00575*
X01012Y00575*
X01012Y00574*
X01012Y00574*
X01013Y00574*
X01013Y00573*
X01013Y00572*
X01013Y00572*
X01014Y00571*
X01014Y0057*
X01014Y00569*
Y00569*
Y00569*
X01014Y00568*
X01014Y00567*
X01013Y00567*
X01013Y00566*
X01013Y00565*
X01012Y00564*
X01012Y00564*
X01012Y00564*
X01012Y00564*
X01011Y00563*
X01011Y00563*
X0101Y00562*
X01009Y00562*
X01008Y00561*
X01009*
X01009Y00561*
X01009Y00561*
X01009Y00561*
X0101Y00561*
X0101Y0056*
X01011Y0056*
X01012Y00559*
X01013Y00559*
X01014Y00558*
X01014Y00558*
X01014Y00557*
X01014Y00557*
X01015Y00556*
X01015Y00555*
X01015Y00554*
X01016Y00553*
X01016Y00552*
Y00552*
Y00551*
Y00551*
X01016Y00551*
X01016Y0055*
X01015Y0055*
X01015Y00549*
X01015Y00549*
X01015Y00547*
X01014Y00547*
X01014Y00546*
X01014Y00545*
X01013Y00545*
X01013Y00544*
X01012Y00543*
X01012Y00543*
X01012Y00543*
X01012Y00543*
X01011Y00543*
X01011Y00542*
X01011Y00542*
X0101Y00542*
X01009Y00541*
X01009Y00541*
X01008Y00541*
X01007Y00541*
X01007Y0054*
X01006Y0054*
X01005Y0054*
X01004Y0054*
X01003Y0054*
X01002*
X01002Y0054*
X01001Y0054*
X01001Y0054*
X01Y0054*
X01Y0054*
X00998Y0054*
X00997Y00541*
X00996Y00541*
X00996Y00542*
X00995Y00542*
X00994Y00543*
X00994Y00543*
X00994Y00543*
X00994Y00543*
X00994Y00543*
X00994Y00544*
X00993Y00544*
X00993Y00544*
X00993Y00545*
X00992Y00545*
X00992Y00546*
X00991Y00547*
X00991Y00549*
X00991Y0055*
X00991Y00551*
X00995Y00551*
Y00551*
X00995Y00551*
X00995Y00551*
X00995Y0055*
X00995Y0055*
X00996Y0055*
X00996Y00549*
X00996Y00548*
X00997Y00547*
X00997Y00546*
X00998Y00545*
X00998Y00545*
X00998Y00545*
X00999Y00545*
X00999Y00544*
X01Y00544*
X01001Y00544*
X01002Y00544*
X01003Y00544*
X01003*
X01003Y00544*
X01004Y00544*
X01005Y00544*
X01006Y00544*
X01007Y00545*
X01007Y00545*
X01008Y00546*
X01008Y00546*
X01009Y00546*
X01009Y00547*
X0101Y00547*
X0101Y00548*
X0101Y00549*
X01011Y0055*
X01011Y00552*
Y00552*
Y00552*
Y00552*
X01011Y00552*
X01011Y00553*
X0101Y00553*
X0101Y00554*
X0101Y00555*
X01009Y00556*
X01009Y00557*
X01008Y00557*
X01008Y00557*
X01008Y00558*
X01007Y00558*
X01006Y00558*
X01005Y00559*
X01004Y00559*
X01003Y00559*
X01003*
X01002Y00559*
X01002Y00559*
X01001Y00559*
X01001Y00559*
X01Y00559*
X01Y00563*
X01001*
X01001Y00563*
X01002*
X01002Y00563*
X01003Y00563*
X01004Y00563*
X01005Y00563*
X01006Y00564*
X01007Y00564*
X01007*
X01007Y00564*
X01007Y00565*
X01007Y00565*
X01008Y00565*
X01008Y00566*
X01009Y00567*
X01009Y00568*
X01009Y00568*
Y00569*
Y00569*
Y00569*
Y0057*
X01009Y0057*
X01009Y00571*
X01009Y00571*
X01008Y00572*
X01008Y00573*
X01007Y00573*
X01007Y00573*
X01007Y00574*
X01006Y00574*
X01006Y00574*
X01005Y00575*
X01005Y00575*
X01004Y00575*
X01003Y00575*
X01002*
X01002Y00575*
X01001Y00575*
X01Y00575*
X01Y00574*
X00999Y00574*
X00998Y00573*
X00998Y00573*
X00998Y00573*
X00997Y00573*
X00997Y00572*
X00997Y00571*
X00996Y0057*
X00996Y00569*
X00996Y00568*
X00991Y00569*
Y00569*
X00991Y00569*
X00991Y00569*
X00991Y0057*
X00991Y0057*
X00991Y00571*
X00992Y00572*
X00992Y00573*
X00993Y00574*
X00994Y00575*
X00995Y00576*
X00995Y00576*
X00995Y00576*
X00995Y00577*
X00995Y00577*
X00996Y00577*
X00996Y00577*
X00997Y00577*
X00997Y00578*
X00998Y00578*
X00999Y00579*
X01001Y00579*
X01002Y00579*
X01003*
X01004Y00579*
G37*
G36*
X00945Y0054D02*
X0094D01*
Y00579*
X00945*
Y0054*
G37*
G36*
X00646Y00579D02*
X00647Y00579D01*
X00647Y00579*
X00648Y00579*
X00649Y00579*
X0065Y00579*
X00652Y00578*
X00653Y00578*
X00653Y00578*
X00654Y00577*
X00655Y00577*
X00655Y00576*
X00655Y00576*
X00655Y00576*
X00656Y00576*
X00656Y00576*
X00656Y00575*
X00657Y00575*
X00657Y00574*
X00658Y00574*
X00658Y00573*
X00659Y00573*
X00659Y00572*
X00659Y00571*
X0066Y0057*
X0066Y00569*
X0066Y00568*
X00655Y00567*
Y00567*
X00655Y00567*
X00655Y00567*
X00655Y00568*
X00655Y00568*
X00655Y00569*
X00654Y00569*
X00654Y0057*
X00653Y00571*
X00652Y00572*
X00652Y00573*
X00651Y00573*
X00651Y00574*
X00651Y00574*
X0065Y00574*
X00649Y00575*
X00648Y00575*
X00647Y00575*
X00645Y00575*
X00645*
X00644Y00575*
X00644*
X00644Y00575*
X00643Y00575*
X00641Y00575*
X0064Y00574*
X00639Y00574*
X00638Y00573*
X00638*
X00638Y00573*
X00637Y00573*
X00637Y00572*
X00636Y00571*
X00635Y00571*
X00635Y0057*
X00634Y00569*
X00634Y00567*
Y00567*
X00634Y00567*
X00633Y00567*
X00633Y00567*
X00633Y00566*
X00633Y00566*
X00633Y00565*
X00633Y00564*
X00633Y00563*
X00632Y00561*
X00632Y0056*
Y0056*
Y0056*
Y00559*
Y00559*
X00632Y00559*
Y00558*
X00633Y00558*
X00633Y00557*
X00633Y00556*
X00633Y00554*
X00633Y00553*
X00634Y00551*
Y00551*
X00634Y00551*
X00634Y00551*
X00634Y00551*
X00634Y0055*
X00635Y00549*
X00636Y00548*
X00636Y00547*
X00637Y00547*
X00638Y00546*
X00638*
X00638Y00546*
X00639Y00546*
X00639Y00546*
X00639Y00545*
X00639Y00545*
X0064Y00545*
X00641Y00545*
X00642Y00544*
X00643Y00544*
X00645Y00544*
X00645*
X00645Y00544*
X00646*
X00646Y00544*
X00647Y00544*
X00648Y00545*
X0065Y00545*
X00651Y00546*
X00651Y00546*
X00652Y00546*
X00652Y00547*
X00652Y00547*
X00652Y00547*
X00652Y00547*
X00653Y00547*
X00653Y00548*
X00653Y00548*
X00654Y00548*
X00654Y00549*
X00654Y00549*
X00655Y0055*
X00655Y00551*
X00655Y00551*
X00656Y00552*
X00656Y00553*
X00656Y00554*
X00661Y00553*
Y00552*
X00661Y00552*
X00661Y00552*
X00661Y00551*
X00661Y00551*
X0066Y0055*
X0066Y0055*
X0066Y00549*
X00659Y00547*
X00658Y00546*
X00657Y00545*
X00657Y00544*
X00656Y00544*
X00655Y00543*
X00655Y00543*
X00655Y00543*
X00655Y00543*
X00655Y00542*
X00654Y00542*
X00654Y00542*
X00653Y00542*
X00653Y00541*
X00652Y00541*
X00651Y00541*
X0065Y0054*
X00649Y0054*
X00648Y0054*
X00647Y0054*
X00646Y0054*
X00645Y0054*
X00645*
X00644Y0054*
X00644*
X00643Y0054*
X00642Y0054*
X00642Y0054*
X0064Y0054*
X00638Y00541*
X00637Y00541*
X00636Y00542*
X00635Y00542*
X00635Y00542*
X00635Y00542*
X00635Y00542*
X00635Y00543*
X00634Y00543*
X00634Y00543*
X00633Y00544*
X00633Y00544*
X00632Y00545*
X00632Y00545*
X00631Y00546*
X0063Y00548*
X00629Y0055*
Y0055*
X00629Y0055*
X00629Y0055*
X00629Y0055*
X00629Y00551*
X00629Y00551*
X00628Y00552*
X00628Y00553*
X00628Y00553*
X00628Y00554*
X00628Y00556*
X00627Y00558*
X00627Y0056*
Y0056*
Y0056*
Y0056*
X00627Y00561*
Y00561*
X00627Y00562*
X00627Y00563*
X00627Y00563*
X00628Y00565*
X00628Y00567*
X00629Y00569*
X00629Y0057*
X0063Y0057*
X0063Y00571*
X0063Y00571*
X0063Y00571*
X0063Y00571*
X0063Y00572*
X00631Y00573*
X00632Y00574*
X00633Y00575*
X00634Y00576*
X00636Y00577*
X00636Y00577*
X00636Y00577*
X00636Y00577*
X00637Y00578*
X00637Y00578*
X00638Y00578*
X00638Y00578*
X00639Y00578*
X00639Y00578*
X0064Y00579*
X00642Y00579*
X00643Y00579*
X00645Y00579*
X00646*
X00646Y00579*
G37*
G36*
X00679Y00579D02*
X0068Y00579D01*
X0068Y00579*
X00681Y00579*
X00681Y00579*
X00683Y00578*
X00684Y00578*
X00685Y00577*
X00686Y00577*
X00686Y00576*
X00687Y00576*
X00687Y00576*
X00687Y00576*
X00687Y00576*
X00687Y00575*
X00688Y00575*
X00688Y00575*
X00688Y00574*
X00689Y00574*
X00689Y00573*
X0069Y00571*
X0069Y00571*
X0069Y0057*
X0069Y00569*
X0069Y00568*
Y00568*
Y00568*
X0069Y00567*
X0069Y00567*
X0069Y00566*
X0069Y00565*
X0069Y00565*
X00689Y00564*
X00689Y00564*
X00689Y00563*
X00689Y00563*
X00689Y00562*
X00688Y00562*
X00688Y00561*
X00687Y0056*
X00686Y00559*
X00686Y00559*
X00686Y00559*
X00685Y00558*
X00685Y00558*
X00685Y00558*
X00684Y00557*
X00684Y00557*
X00683Y00556*
X00683Y00556*
X00682Y00555*
X00681Y00555*
X00681Y00554*
X0068Y00553*
X00679Y00552*
X00679Y00552*
X00679Y00552*
X00678Y00552*
X00678Y00552*
X00678Y00551*
X00677Y00551*
X00677Y0055*
X00676Y0055*
X00675Y00549*
X00674Y00548*
X00674Y00548*
X00673Y00547*
X00673Y00547*
X00673Y00547*
X00673Y00547*
X00673Y00547*
X00672Y00546*
X00672Y00546*
X00671Y00545*
X0069*
Y0054*
X00665*
Y0054*
Y00541*
Y00541*
X00665Y00541*
X00665Y00542*
X00665Y00542*
X00665Y00543*
X00665Y00544*
Y00544*
X00665Y00544*
X00666Y00544*
X00666Y00545*
X00666Y00545*
X00667Y00546*
X00667Y00547*
X00668Y00548*
X00668Y00549*
Y00549*
X00669Y00549*
X00669Y00549*
X00669Y0055*
X0067Y0055*
X00671Y00551*
X00672Y00552*
X00673Y00553*
X00675Y00555*
X00675Y00555*
X00675Y00555*
X00675Y00555*
X00676Y00555*
X00676Y00556*
X00677Y00556*
X00677Y00557*
X00678Y00557*
X00679Y00559*
X00681Y0056*
X00682Y00561*
X00682Y00561*
X00683Y00562*
X00683Y00563*
Y00563*
X00683Y00563*
X00683Y00563*
X00683Y00563*
X00684Y00564*
X00684Y00565*
X00685Y00565*
X00685Y00566*
X00685Y00567*
X00685Y00568*
Y00568*
Y00569*
X00685Y00569*
X00685Y00569*
X00685Y0057*
X00685Y00571*
X00685Y00572*
X00684Y00572*
X00683Y00573*
X00683Y00573*
X00683Y00573*
X00683Y00574*
X00682Y00574*
X00681Y00574*
X0068Y00575*
X00679Y00575*
X00678Y00575*
X00678*
X00678Y00575*
X00677Y00575*
X00676Y00575*
X00675Y00575*
X00674Y00574*
X00673Y00574*
X00673Y00573*
X00672Y00573*
X00672Y00573*
X00672Y00572*
X00672Y00572*
X00671Y00571*
X00671Y0057*
X00671Y00569*
X00671Y00567*
X00666Y00568*
Y00568*
X00666Y00568*
Y00568*
X00666Y00569*
X00666Y00569*
X00666Y0057*
X00666Y0057*
X00666Y00571*
X00667Y00572*
X00667Y00574*
X00668Y00574*
X00668Y00575*
X00669Y00576*
X00669Y00576*
X00669Y00576*
X0067Y00576*
X0067Y00576*
X0067Y00577*
X0067Y00577*
X00671Y00577*
X00671Y00577*
X00672Y00578*
X00672Y00578*
X00673Y00578*
X00674Y00578*
X00675Y00578*
X00675Y00579*
X00676Y00579*
X00677Y00579*
X00678Y00579*
X00679*
X00679Y00579*
G37*
G36*
X0062Y0054D02*
X00615D01*
Y00579*
X0062*
Y0054*
G37*
G36*
X00302Y00579D02*
X00302Y00579D01*
X00303Y00579*
X00303Y00579*
X00304Y00579*
X00306Y00579*
X00307Y00578*
X00308Y00578*
X00309Y00578*
X0031Y00577*
X0031Y00577*
X00311Y00576*
X00311Y00576*
X00311Y00576*
X00311Y00576*
X00311Y00576*
X00312Y00575*
X00312Y00575*
X00313Y00574*
X00313Y00574*
X00314Y00573*
X00314Y00573*
X00314Y00572*
X00315Y00571*
X00315Y0057*
X00316Y00569*
X00316Y00568*
X00311Y00567*
Y00567*
X00311Y00567*
X00311Y00567*
X00311Y00568*
X00311Y00568*
X0031Y00569*
X0031Y00569*
X00309Y0057*
X00309Y00571*
X00308Y00572*
X00307Y00573*
X00307Y00573*
X00307Y00574*
X00306Y00574*
X00305Y00574*
X00304Y00575*
X00303Y00575*
X00302Y00575*
X00301Y00575*
X003*
X003Y00575*
X003*
X00299Y00575*
X00298Y00575*
X00297Y00575*
X00296Y00574*
X00294Y00574*
X00293Y00573*
X00293*
X00293Y00573*
X00293Y00573*
X00292Y00572*
X00292Y00571*
X00291Y00571*
X0029Y0057*
X0029Y00569*
X00289Y00567*
Y00567*
X00289Y00567*
X00289Y00567*
X00289Y00567*
X00289Y00566*
X00289Y00566*
X00289Y00565*
X00288Y00564*
X00288Y00563*
X00288Y00561*
X00288Y0056*
Y0056*
Y0056*
Y00559*
Y00559*
X00288Y00559*
Y00558*
X00288Y00558*
X00288Y00557*
X00288Y00556*
X00289Y00554*
X00289Y00553*
X00289Y00551*
Y00551*
X00289Y00551*
X00289Y00551*
X0029Y00551*
X0029Y0055*
X0029Y00549*
X00291Y00548*
X00292Y00547*
X00293Y00547*
X00294Y00546*
X00294*
X00294Y00546*
X00294Y00546*
X00294Y00546*
X00295Y00545*
X00295Y00545*
X00296Y00545*
X00297Y00545*
X00298Y00544*
X00299Y00544*
X003Y00544*
X00301*
X00301Y00544*
X00301*
X00302Y00544*
X00303Y00544*
X00304Y00545*
X00305Y00545*
X00306Y00546*
X00307Y00546*
X00307Y00546*
X00308Y00547*
X00308Y00547*
X00308Y00547*
X00308Y00547*
X00308Y00547*
X00308Y00548*
X00309Y00548*
X00309Y00548*
X00309Y00549*
X0031Y00549*
X0031Y0055*
X0031Y00551*
X00311Y00551*
X00311Y00552*
X00311Y00553*
X00312Y00554*
X00317Y00553*
Y00552*
X00317Y00552*
X00316Y00552*
X00316Y00551*
X00316Y00551*
X00316Y0055*
X00316Y0055*
X00315Y00549*
X00315Y00547*
X00314Y00546*
X00313Y00545*
X00312Y00544*
X00312Y00544*
X00311Y00543*
X00311Y00543*
X00311Y00543*
X0031Y00543*
X0031Y00542*
X0031Y00542*
X00309Y00542*
X00309Y00542*
X00308Y00541*
X00307Y00541*
X00307Y00541*
X00306Y0054*
X00305Y0054*
X00304Y0054*
X00303Y0054*
X00302Y0054*
X00301Y0054*
X003*
X003Y0054*
X00299*
X00299Y0054*
X00298Y0054*
X00297Y0054*
X00295Y0054*
X00294Y00541*
X00292Y00541*
X00291Y00542*
X00291Y00542*
X00291Y00542*
X0029Y00542*
X0029Y00542*
X0029Y00543*
X0029Y00543*
X00289Y00543*
X00289Y00544*
X00288Y00544*
X00288Y00545*
X00287Y00545*
X00286Y00546*
X00286Y00548*
X00285Y0055*
Y0055*
X00285Y0055*
X00285Y0055*
X00284Y0055*
X00284Y00551*
X00284Y00551*
X00284Y00552*
X00284Y00553*
X00284Y00553*
X00283Y00554*
X00283Y00556*
X00283Y00558*
X00283Y0056*
Y0056*
Y0056*
Y0056*
X00283Y00561*
Y00561*
X00283Y00562*
X00283Y00563*
X00283Y00563*
X00283Y00565*
X00284Y00567*
X00284Y00569*
X00285Y0057*
X00285Y0057*
X00285Y00571*
X00285Y00571*
X00285Y00571*
X00286Y00571*
X00286Y00572*
X00287Y00573*
X00288Y00574*
X00289Y00575*
X0029Y00576*
X00291Y00577*
X00292Y00577*
X00292Y00577*
X00292Y00577*
X00292Y00578*
X00293Y00578*
X00293Y00578*
X00294Y00578*
X00294Y00578*
X00295Y00578*
X00296Y00579*
X00297Y00579*
X00299Y00579*
X00301Y00579*
X00301*
X00302Y00579*
G37*
G36*
X00339Y0054D02*
X00334D01*
Y0057*
X00334Y0057*
X00334Y0057*
X00333Y0057*
X00333Y00569*
X00332Y00569*
X00331Y00568*
X00331Y00568*
X0033Y00567*
X00329*
X00329Y00567*
X00329Y00567*
X00329Y00567*
X00328Y00566*
X00327Y00566*
X00326Y00565*
X00325Y00565*
X00325Y00565*
Y00569*
X00325*
X00325Y00569*
X00325Y00569*
X00325Y0057*
X00326Y0057*
X00326Y0057*
X00327Y00571*
X00328Y00571*
X00329Y00572*
X0033Y00573*
X00331Y00574*
X00332Y00574*
X00332Y00574*
X00332Y00574*
X00332Y00574*
X00332Y00575*
X00333Y00575*
X00334Y00576*
X00335Y00577*
X00335Y00578*
X00336Y00579*
X00339*
Y0054*
G37*
G36*
X00275D02*
X0027D01*
Y00579*
X00275*
Y0054*
G37*
G36*
X01121Y00483D02*
X01122Y00482D01*
X01122Y00482*
X01123Y00482*
X01124Y00482*
X01125Y00482*
X01127Y00481*
X01128Y00481*
X01128Y00481*
X01129Y0048*
X0113Y0048*
X0113Y0048*
X0113Y0048*
X0113Y00479*
X01131Y00479*
X01131Y00479*
X01131Y00478*
X01132Y00478*
X01132Y00478*
X01133Y00477*
X01133Y00476*
X01134Y00476*
X01134Y00475*
X01134Y00474*
X01135Y00473*
X01135Y00472*
X01136Y00471*
X01131Y0047*
Y0047*
X0113Y0047*
X0113Y00471*
X0113Y00471*
X0113Y00471*
X0113Y00472*
X0113Y00473*
X01129Y00474*
X01128Y00475*
X01127Y00475*
X01127Y00476*
X01126Y00476*
X01126Y00477*
X01126Y00477*
X01125Y00477*
X01124Y00478*
X01123Y00478*
X01122Y00478*
X0112Y00478*
X0112*
X01119Y00478*
X01119*
X01119Y00478*
X01118Y00478*
X01116Y00478*
X01115Y00477*
X01114Y00477*
X01113Y00476*
X01113*
X01113Y00476*
X01112Y00476*
X01112Y00475*
X01111Y00475*
X0111Y00474*
X0111Y00473*
X01109Y00472*
X01109Y0047*
Y0047*
X01109Y0047*
X01108Y0047*
X01108Y0047*
X01108Y00469*
X01108Y00469*
X01108Y00468*
X01108Y00467*
X01108Y00466*
X01107Y00464*
X01107Y00463*
Y00463*
Y00463*
Y00462*
Y00462*
X01107Y00462*
Y00461*
X01108Y00461*
X01108Y0046*
X01108Y00459*
X01108Y00457*
X01108Y00456*
X01109Y00454*
Y00454*
X01109Y00454*
X01109Y00454*
X01109Y00454*
X01109Y00453*
X0111Y00452*
X01111Y00451*
X01111Y00451*
X01112Y0045*
X01113Y00449*
X01113*
X01113Y00449*
X01114Y00449*
X01114Y00449*
X01114Y00449*
X01114Y00448*
X01115Y00448*
X01116Y00448*
X01117Y00447*
X01119Y00447*
X0112Y00447*
X0112*
X01121Y00447*
X01121*
X01121Y00447*
X01122Y00447*
X01123Y00448*
X01125Y00448*
X01126Y00449*
X01126Y00449*
X01127Y0045*
X01127Y0045*
X01127Y0045*
X01127Y0045*
X01128Y0045*
X01128Y0045*
X01128Y00451*
X01128Y00451*
X01129Y00451*
X01129Y00452*
X01129Y00452*
X0113Y00453*
X0113Y00454*
X0113Y00454*
X01131Y00455*
X01131Y00456*
X01131Y00457*
X01136Y00456*
Y00456*
X01136Y00455*
X01136Y00455*
X01136Y00455*
X01136Y00454*
X01135Y00453*
X01135Y00453*
X01135Y00452*
X01134Y00451*
X01133Y00449*
X01132Y00448*
X01132Y00447*
X01131Y00447*
X0113Y00446*
X0113Y00446*
X0113Y00446*
X0113Y00446*
X0113Y00446*
X01129Y00445*
X01129Y00445*
X01128Y00445*
X01128Y00444*
X01127Y00444*
X01126Y00444*
X01125Y00444*
X01124Y00443*
X01123Y00443*
X01122Y00443*
X01121Y00443*
X0112Y00443*
X0112*
X01119Y00443*
X01119*
X01118Y00443*
X01117Y00443*
X01117Y00443*
X01115Y00443*
X01113Y00444*
X01112Y00444*
X01111Y00445*
X0111Y00445*
X0111Y00445*
X0111Y00445*
X0111Y00446*
X0111Y00446*
X01109Y00446*
X01109Y00446*
X01108Y00447*
X01108Y00447*
X01107Y00448*
X01107Y00448*
X01106Y00449*
X01105Y00451*
X01104Y00453*
Y00453*
X01104Y00453*
X01104Y00453*
X01104Y00453*
X01104Y00454*
X01104Y00454*
X01103Y00455*
X01103Y00456*
X01103Y00456*
X01103Y00457*
X01103Y00459*
X01102Y00461*
X01102Y00463*
Y00463*
Y00463*
Y00464*
X01102Y00464*
Y00465*
X01102Y00465*
X01102Y00466*
X01102Y00467*
X01103Y00468*
X01103Y0047*
X01104Y00472*
X01104Y00473*
X01105Y00473*
X01105Y00474*
X01105Y00474*
X01105Y00474*
X01105Y00475*
X01105Y00475*
X01106Y00476*
X01107Y00477*
X01108Y00478*
X01109Y00479*
X01111Y0048*
X01111Y0048*
X01111Y0048*
X01111Y0048*
X01112Y00481*
X01112Y00481*
X01113Y00481*
X01113Y00481*
X01114Y00481*
X01114Y00482*
X01115Y00482*
X01117Y00482*
X01118Y00482*
X0112Y00483*
X01121*
X01121Y00483*
G37*
G36*
X01158Y00443D02*
X01154D01*
Y00474*
X01153Y00473*
X01153Y00473*
X01153Y00473*
X01152Y00473*
X01152Y00472*
X01151Y00471*
X0115Y00471*
X01149Y0047*
X01149*
X01149Y0047*
X01149Y0047*
X01148Y0047*
X01147Y00469*
X01147Y00469*
X01146Y00469*
X01145Y00468*
X01144Y00468*
Y00472*
X01144*
X01144Y00473*
X01145Y00473*
X01145Y00473*
X01145Y00473*
X01146Y00473*
X01146Y00474*
X01148Y00474*
X01149Y00475*
X0115Y00476*
X01151Y00477*
X01151Y00477*
X01151Y00477*
X01151Y00477*
X01151Y00477*
X01152Y00478*
X01153Y00479*
X01153Y00479*
X01154Y0048*
X01155Y00481*
X01155Y00482*
X01158*
Y00443*
G37*
G36*
X01184Y00482D02*
X01185Y00482D01*
X01186Y00482*
X01186Y00482*
X01187Y00481*
X01188Y00481*
X01188*
X01188Y00481*
X01189Y00481*
X01189Y0048*
X0119Y0048*
X0119Y00479*
X01191Y00479*
X01192Y00478*
X01192Y00477*
X01192Y00477*
X01192Y00477*
X01193Y00476*
X01193Y00476*
X01193Y00475*
X01194Y00474*
X01194Y00473*
X01195Y00471*
Y00471*
X01195Y00471*
X01195Y00471*
X01195Y00471*
X01195Y00471*
X01195Y0047*
X01195Y0047*
X01195Y00469*
X01195Y00468*
X01195Y00468*
X01195Y00467*
X01195Y00466*
X01195Y00465*
Y00464*
X01195Y00463*
Y00462*
Y00462*
Y00462*
Y00462*
Y00461*
X01195Y00461*
Y0046*
X01195Y00459*
X01195Y00459*
X01195Y00457*
X01195Y00455*
X01195Y00453*
X01194Y00452*
X01194Y00451*
Y00451*
X01194Y00451*
X01194Y00451*
X01194Y00451*
X01194Y0045*
X01193Y0045*
X01193Y00449*
X01192Y00448*
X01192Y00447*
X01191Y00446*
X0119Y00445*
X0119*
X0119Y00445*
X0119Y00445*
X01189Y00445*
X01189Y00445*
X01189Y00444*
X01188Y00444*
X01187Y00444*
X01186Y00443*
X01184Y00443*
X01183Y00443*
X01182*
X01182Y00443*
X01182Y00443*
X01181Y00443*
X0118Y00443*
X0118Y00443*
X01179Y00444*
X01178Y00444*
X01178Y00444*
X01177Y00444*
X01176Y00445*
X01175Y00445*
X01175Y00446*
X01174Y00447*
X01174Y00447*
X01174Y00447*
X01174Y00447*
X01174Y00448*
X01173Y00448*
X01173Y00449*
X01173Y0045*
X01172Y00451*
X01172Y00452*
X01172Y00453*
X01171Y00454*
X01171Y00455*
X01171Y00457*
X01171Y00459*
X0117Y0046*
X0117Y00462*
Y00462*
Y00463*
Y00463*
Y00464*
X0117Y00464*
Y00465*
X0117Y00466*
X01171Y00466*
X01171Y00468*
X01171Y0047*
X01171Y00472*
X01172Y00473*
X01172Y00473*
Y00473*
X01172Y00474*
X01172Y00474*
X01172Y00474*
X01172Y00474*
X01172Y00475*
X01173Y00476*
X01173Y00477*
X01174Y00478*
X01175Y00479*
X01176Y0048*
X01176*
X01176Y0048*
X01176Y0048*
X01176Y0048*
X01177Y0048*
X01177Y00481*
X01178Y00481*
X01179Y00481*
X0118Y00482*
X01181Y00482*
X01183Y00482*
X01183*
X01184Y00482*
G37*
G36*
X01261Y00831D02*
X01262D01*
X01262Y00831*
X01263Y00831*
X01265Y0083*
X01267Y0083*
X01269Y0083*
X0127Y00829*
X01271Y00829*
X01271*
X01271Y00829*
X01271Y00829*
X01272Y00829*
X01272Y00829*
X01272Y00828*
X01273Y00828*
X01274Y00827*
X01275Y00826*
X01276Y00825*
X01277Y00824*
Y00824*
X01278Y00824*
X01278Y00824*
X01278Y00824*
X01278Y00823*
X01278Y00823*
X01278Y00823*
X01279Y00822*
X01279Y00821*
X01279Y0082*
X0128Y00819*
X0128Y00817*
Y00817*
X0128Y00816*
Y00816*
X0128Y00815*
X01279Y00814*
X01279Y00813*
X01279Y00812*
X01278Y00811*
X01278Y0081*
X01277Y0081*
X01277Y0081*
X01277Y0081*
X01277Y00809*
X01277Y00809*
X01276Y00809*
X01276Y00809*
X01275Y00808*
X01274Y00808*
X01273Y00807*
X01272Y00807*
X0127Y00806*
X0127Y00811*
X0127*
X0127Y00811*
X0127*
X0127Y00811*
X01271Y00811*
X01272Y00811*
X01272Y00812*
X01273Y00812*
X01274Y00812*
X01274Y00813*
X01274Y00813*
X01275Y00813*
X01275Y00814*
X01275Y00814*
X01275Y00815*
X01276Y00815*
X01276Y00816*
X01276Y00817*
Y00818*
X01276Y00818*
X01276Y00818*
X01276Y00819*
X01275Y0082*
X01275Y0082*
X01275Y00821*
X01275Y00821*
X01275Y00821*
X01274Y00822*
X01274Y00822*
X01274Y00822*
X01273Y00823*
X01273Y00823*
X01272Y00824*
X01272Y00824*
X01272Y00824*
X01271Y00824*
X01271Y00824*
X0127Y00824*
X0127Y00825*
X01269Y00825*
X01268Y00825*
X01268*
X01268Y00825*
X01267*
X01267Y00825*
X01267Y00826*
X01266Y00826*
X01265Y00826*
X01264Y00826*
X01263Y00826*
X01262Y00826*
X01262*
X01262*
X01261*
X01261*
X01261Y00826*
X01261Y00826*
X01262Y00825*
X01262Y00825*
X01263Y00824*
X01263Y00824*
X01264Y00823*
X01265Y00822*
X01265Y00822*
X01265Y00822*
X01265Y00821*
X01265Y00821*
X01266Y0082*
X01266Y00819*
X01266Y00818*
X01266Y00817*
Y00816*
X01266Y00816*
X01266Y00816*
X01266Y00815*
X01266Y00815*
X01266Y00814*
X01265Y00813*
X01265Y00812*
X01265Y00811*
X01264Y00811*
X01264Y0081*
X01263Y00809*
X01263Y00809*
X01262Y00809*
X01262Y00809*
X01262Y00809*
X01262Y00808*
X01262Y00808*
X01261Y00808*
X01261Y00807*
X0126Y00807*
X01259Y00807*
X01259Y00807*
X01258Y00806*
X01257Y00806*
X01256Y00806*
X01255Y00806*
X01255Y00806*
X01253Y00806*
X01253*
X01253*
X01253*
X01253Y00806*
X01252Y00806*
X01251Y00806*
X01251Y00806*
X0125Y00806*
X01249Y00806*
X01248Y00807*
X01247Y00807*
X01246Y00807*
X01246Y00808*
X01245Y00808*
X01244Y00809*
X01244Y00809*
X01244Y00809*
X01244Y00809*
X01244Y0081*
X01243Y0081*
X01243Y0081*
X01243Y00811*
X01242Y00811*
X01242Y00812*
X01242Y00813*
X01241Y00814*
X01241Y00815*
X01241Y00816*
X01241Y00817*
X0124Y00818*
Y00818*
X01241Y00818*
Y00819*
X01241Y00819*
X01241Y0082*
X01241Y00821*
X01241Y00822*
X01242Y00823*
X01243Y00824*
Y00824*
X01243Y00824*
X01243Y00825*
X01243Y00825*
X01243Y00825*
X01244Y00826*
X01245Y00827*
X01246Y00828*
X01247Y00828*
X01248Y00829*
X01248*
X01248Y00829*
X01249Y00829*
X01249Y00829*
X01249Y00829*
X0125Y0083*
X0125Y0083*
X01251Y0083*
X01252Y0083*
X01253Y0083*
X01253Y0083*
X01254Y0083*
X01255Y00831*
X01257Y00831*
X01258Y00831*
X01259*
X01259*
X01259*
X0126*
X0126*
X01261Y00831*
G37*
G36*
X01267Y00801D02*
X01267Y00801D01*
X01268Y00801*
X01268Y00801*
X01269Y008*
X0127Y008*
X0127Y008*
X01272Y00799*
X01274Y00798*
X01274Y00797*
X01275Y00797*
X01276Y00796*
X01276Y00795*
X01276Y00795*
X01277Y00795*
X01277Y00795*
X01277Y00795*
X01277Y00794*
X01277Y00794*
X01278Y00793*
X01278Y00793*
X01278Y00792*
X01279Y00791*
X01279Y0079*
X01279Y00789*
X01279Y00788*
X0128Y00787*
X0128Y00786*
X0128Y00785*
Y00785*
X0128Y00784*
Y00784*
X0128Y00783*
X01279Y00782*
X01279Y00782*
X01279Y0078*
X01279Y00778*
X01278Y00777*
X01278Y00776*
X01277Y00775*
X01277Y00775*
X01277Y00775*
X01277Y00775*
X01277Y00775*
X01276Y00774*
X01276Y00774*
X01276Y00773*
X01275Y00773*
X01275Y00772*
X01274Y00772*
X01273Y00771*
X01272Y0077*
X0127Y00769*
X0127*
X0127Y00769*
X01269Y00769*
X01269Y00769*
X01269Y00769*
X01268Y00769*
X01267Y00768*
X01267Y00768*
X01266Y00768*
X01265Y00768*
X01263Y00768*
X01262Y00767*
X0126Y00767*
X01259*
X01259*
X01259*
X01259Y00767*
X01258*
X01257Y00767*
X01257Y00767*
X01256Y00767*
X01254Y00768*
X01253Y00768*
X01251Y00769*
X01249Y00769*
X01249Y0077*
X01249Y0077*
X01249Y0077*
X01248Y0077*
X01248Y0077*
X01248Y0077*
X01247Y00771*
X01245Y00772*
X01244Y00773*
X01243Y00774*
X01242Y00776*
X01242Y00776*
X01242Y00776*
X01242Y00776*
X01242Y00777*
X01242Y00777*
X01242Y00778*
X01241Y00778*
X01241Y00779*
X01241Y00779*
X01241Y0078*
X0124Y00782*
X0124Y00783*
X0124Y00785*
Y00786*
X0124Y00786*
X0124Y00787*
X0124Y00787*
X0124Y00788*
X0124Y00789*
X01241Y0079*
X01241Y00792*
X01242Y00793*
X01242Y00793*
X01242Y00794*
X01243Y00795*
X01243Y00795*
X01243Y00795*
X01243Y00795*
X01243Y00796*
X01244Y00796*
X01244Y00796*
X01245Y00797*
X01245Y00797*
X01246Y00798*
X01246Y00798*
X01247Y00799*
X01248Y00799*
X01248Y00799*
X01249Y008*
X0125Y008*
X01251Y00801*
X01252Y00796*
X01252*
X01252Y00795*
X01252Y00795*
X01252Y00795*
X01251Y00795*
X01251Y00795*
X0125Y00795*
X01249Y00794*
X01248Y00793*
X01247Y00792*
X01246Y00792*
X01246Y00791*
X01246Y00791*
X01246Y00791*
X01245Y0079*
X01245Y00789*
X01245Y00788*
X01244Y00787*
X01244Y00785*
Y00785*
X01244Y00784*
Y00784*
X01244Y00784*
X01245Y00783*
X01245Y00781*
X01245Y0078*
X01246Y00779*
X01246Y00778*
Y00778*
X01247Y00778*
X01247Y00777*
X01247Y00777*
X01248Y00776*
X01249Y00775*
X0125Y00775*
X01251Y00774*
X01252Y00774*
X01252*
X01252Y00774*
X01253Y00773*
X01253Y00773*
X01253Y00773*
X01254Y00773*
X01254Y00773*
X01256Y00773*
X01257Y00773*
X01258Y00772*
X0126Y00772*
X0126*
X0126*
X0126*
X0126*
X01261Y00772*
X01261*
X01262Y00773*
X01262Y00773*
X01264Y00773*
X01265Y00773*
X01267Y00773*
X01268Y00774*
X01268*
X01268Y00774*
X01268Y00774*
X01269Y00774*
X01269Y00774*
X0127Y00775*
X01271Y00776*
X01272Y00776*
X01273Y00777*
X01274Y00778*
Y00778*
X01274Y00778*
X01274Y00779*
X01274Y00779*
X01274Y00779*
X01274Y00779*
X01274Y0078*
X01275Y00781*
X01275Y00782*
X01275Y00784*
X01275Y00785*
Y00785*
X01275Y00786*
Y00786*
X01275Y00786*
X01275Y00787*
X01275Y00788*
X01274Y0079*
X01274Y00791*
X01273Y00791*
X01273Y00792*
X01273Y00792*
X01273Y00792*
X01273Y00792*
X01272Y00793*
X01272Y00793*
X01272Y00793*
X01272Y00793*
X01271Y00794*
X01271Y00794*
X0127Y00794*
X01269Y00795*
X01269Y00795*
X01268Y00795*
X01267Y00796*
X01266Y00796*
X01266Y00796*
X01267Y00801*
X01267*
X01267Y00801*
G37*
G36*
X01072Y00713D02*
X01072Y00713D01*
X01073Y00712*
X01074Y00712*
X01074Y00712*
X01075Y00712*
X01076Y00712*
X01077Y00711*
X01078Y00711*
X01078Y0071*
X01079Y0071*
X0108Y00709*
X0108Y00709*
X0108Y00709*
X0108Y00709*
X0108Y00709*
X0108Y00708*
X01081Y00708*
X01081Y00707*
X01081Y00707*
X01082Y00706*
X01082Y00705*
X01082Y00705*
X01082Y00704*
X01083Y00703*
X01083Y00702*
X01083Y00701*
X01083Y007*
Y00699*
X01083Y00699*
X01083Y00699*
X01083Y00698*
X01083Y00697*
X01082Y00697*
X01082Y00695*
X01082Y00694*
X01081Y00694*
X01081Y00693*
X01081Y00692*
X0108Y00691*
X0108Y00691*
X01079Y00691*
X01079Y00691*
X01079Y0069*
X01079Y0069*
X01079Y0069*
X01078Y0069*
X01078Y00689*
X01077Y00689*
X01077Y00689*
X01076Y00688*
X01075Y00688*
X01074Y00688*
X01073Y00688*
X01072Y00687*
X01071Y00687*
X01071*
X01071*
X01071*
X01071Y00687*
X0107*
X0107Y00687*
X01069Y00688*
X01068Y00688*
X01067Y00688*
X01066Y00689*
X01065Y00689*
X01065*
X01065Y00689*
X01064Y0069*
X01064Y0069*
X01063Y00691*
X01063Y00691*
X01062Y00692*
X01062Y00693*
X01061Y00695*
Y00695*
X01061Y00695*
X01061Y00694*
X01061Y00694*
X01061Y00694*
X01061Y00693*
X0106Y00692*
X0106Y00692*
X01059Y00691*
X01058Y0069*
X01058Y0069*
X01058Y0069*
X01058Y0069*
X01057Y0069*
X01056Y00689*
X01055Y00689*
X01055Y00689*
X01054Y00689*
X01053*
X01053*
X01053*
X01053Y00689*
X01052Y00689*
X01052Y00689*
X01051Y00689*
X0105Y0069*
X01049Y0069*
X01048Y00691*
X01048Y00691*
X01047Y00691*
X01046Y00692*
X01046Y00692*
X01046Y00692*
X01046Y00692*
X01046Y00692*
X01046Y00693*
X01046Y00693*
X01045Y00694*
X01045Y00694*
X01045Y00695*
X01044Y00695*
X01044Y00696*
X01044Y00697*
X01044Y00698*
X01044Y00699*
X01044Y007*
Y007*
X01044Y00701*
X01044Y00701*
X01044Y00702*
X01044Y00702*
X01044Y00703*
X01044Y00704*
X01045Y00705*
X01045Y00706*
X01046Y00707*
X01046Y00707*
X01047Y00708*
X01047Y00708*
X01047Y00708*
X01047Y00708*
X01047Y00708*
X01047Y00709*
X01048Y00709*
X01049Y0071*
X0105Y0071*
X01051Y00711*
X01052Y00711*
X01053Y00711*
X01054Y00711*
X01054*
X01054*
X01054*
X01055Y00711*
X01055Y00711*
X01056Y00711*
X01057Y0071*
X01058Y0071*
X01058Y0071*
X01058Y0071*
X01059Y00709*
X01059Y00709*
X01059Y00709*
X0106Y00708*
X0106Y00707*
X01061Y00706*
X01061Y00705*
Y00705*
X01061Y00706*
X01062Y00706*
X01062Y00706*
X01062Y00707*
X01062Y00707*
X01063Y00708*
X01063Y00709*
X01064Y0071*
X01065Y00711*
X01065*
X01065Y00711*
X01066Y00711*
X01066Y00711*
X01067Y00712*
X01068Y00712*
X01069Y00712*
X0107Y00713*
X01071Y00713*
X01071*
X01071*
X01072*
X01072Y00713*
G37*
G36*
X0107Y00683D02*
X01071Y00683D01*
X01071Y00683*
X01072Y00683*
X01072Y00682*
X01073Y00682*
X01074Y00682*
X01075Y00681*
X01077Y0068*
X01077Y00679*
X01078Y00679*
X01079Y00678*
X0108Y00677*
X0108Y00677*
X0108Y00677*
X0108Y00677*
X0108Y00677*
X0108Y00676*
X01081Y00676*
X01081Y00675*
X01081Y00674*
X01082Y00674*
X01082Y00673*
X01082Y00672*
X01082Y00671*
X01083Y0067*
X01083Y00669*
X01083Y00668*
X01083Y00667*
Y00667*
X01083Y00666*
Y00666*
X01083Y00665*
X01083Y00664*
X01083Y00664*
X01082Y00662*
X01082Y0066*
X01081Y00659*
X01081Y00658*
X0108Y00657*
X0108Y00657*
X0108Y00657*
X0108Y00657*
X0108Y00656*
X0108Y00656*
X01079Y00656*
X01079Y00655*
X01078Y00655*
X01078Y00654*
X01077Y00654*
X01076Y00653*
X01075Y00652*
X01073Y00651*
X01073*
X01073Y00651*
X01073Y00651*
X01072Y00651*
X01072Y00651*
X01071Y0065*
X01071Y0065*
X0107Y0065*
X01069Y0065*
X01068Y0065*
X01067Y00649*
X01065Y00649*
X01063Y00649*
X01063*
X01062*
X01062*
X01062Y00649*
X01061*
X01061Y00649*
X0106Y00649*
X01059Y00649*
X01058Y0065*
X01056Y0065*
X01054Y00651*
X01052Y00651*
X01052Y00651*
X01052Y00651*
X01052Y00652*
X01052Y00652*
X01051Y00652*
X01051Y00652*
X0105Y00653*
X01049Y00654*
X01047Y00655*
X01046Y00656*
X01045Y00658*
X01045Y00658*
X01045Y00658*
X01045Y00658*
X01045Y00659*
X01045Y00659*
X01045Y00659*
X01044Y0066*
X01044Y00661*
X01044Y00661*
X01044Y00662*
X01043Y00664*
X01043Y00665*
X01043Y00667*
Y00668*
X01043Y00668*
X01043Y00669*
X01043Y00669*
X01043Y0067*
X01043Y00671*
X01044Y00672*
X01044Y00674*
X01045Y00675*
X01045Y00675*
X01046Y00676*
X01046Y00677*
X01046Y00677*
X01046Y00677*
X01046Y00677*
X01047Y00678*
X01047Y00678*
X01047Y00678*
X01048Y00679*
X01048Y00679*
X01049Y0068*
X01049Y0068*
X0105Y0068*
X01051Y00681*
X01052Y00681*
X01052Y00682*
X01053Y00682*
X01054Y00682*
X01055Y00677*
X01055*
X01055Y00677*
X01055Y00677*
X01055Y00677*
X01054Y00677*
X01054Y00677*
X01053Y00676*
X01052Y00676*
X01051Y00675*
X0105Y00674*
X01049Y00673*
X01049Y00673*
X01049Y00673*
X01049Y00672*
X01048Y00672*
X01048Y00671*
X01048Y0067*
X01047Y00668*
X01047Y00667*
Y00667*
X01047Y00666*
Y00666*
X01048Y00666*
X01048Y00664*
X01048Y00663*
X01048Y00662*
X01049Y00661*
X0105Y0066*
Y0066*
X0105Y0066*
X0105Y00659*
X0105Y00659*
X01051Y00658*
X01052Y00657*
X01053Y00657*
X01054Y00656*
X01055Y00655*
X01055*
X01055Y00655*
X01056Y00655*
X01056Y00655*
X01056Y00655*
X01057Y00655*
X01058Y00655*
X01059Y00655*
X0106Y00654*
X01061Y00654*
X01063Y00654*
X01063*
X01063*
X01063*
X01064*
X01064Y00654*
X01064*
X01065Y00654*
X01066Y00654*
X01067Y00655*
X01068Y00655*
X0107Y00655*
X01071Y00656*
X01071*
X01071Y00656*
X01072Y00656*
X01072Y00656*
X01073Y00656*
X01073Y00657*
X01074Y00657*
X01075Y00658*
X01076Y00659*
X01077Y0066*
Y0066*
X01077Y0066*
X01077Y0066*
X01077Y00661*
X01077Y00661*
X01077Y00661*
X01078Y00662*
X01078Y00663*
X01078Y00664*
X01078Y00665*
X01079Y00667*
Y00667*
X01078Y00667*
Y00668*
X01078Y00668*
X01078Y00669*
X01078Y0067*
X01077Y00672*
X01077Y00673*
X01077Y00673*
X01076Y00674*
X01076Y00674*
X01076Y00674*
X01076Y00674*
X01076Y00674*
X01075Y00675*
X01075Y00675*
X01075Y00675*
X01074Y00676*
X01074Y00676*
X01073Y00676*
X01073Y00677*
X01072Y00677*
X01071Y00677*
X0107Y00677*
X0107Y00678*
X01069Y00678*
X0107Y00683*
X0107*
X0107Y00683*
G37*
G36*
X00702Y01164D02*
X00702D01*
X00703Y01164*
X00704Y01164*
X00705Y01163*
X00706Y01163*
X00707Y01162*
X00708Y01162*
X00708Y01162*
X00708Y01161*
X00709Y01161*
X00709Y01161*
X00709Y01161*
X00709Y01161*
X00709Y0116*
X0071Y0116*
X00711Y01159*
X00711Y01157*
X00712Y01156*
X00712Y01155*
X00707Y01154*
Y01154*
X00707Y01154*
X00707Y01155*
X00707Y01155*
X00707Y01156*
X00707Y01156*
X00706Y01157*
X00706Y01158*
X00705Y01158*
X00705Y01158*
X00705Y01158*
X00705Y01159*
X00704Y01159*
X00703Y0116*
X00703Y0116*
X00702Y0116*
X00701Y0116*
X007*
X007Y0116*
X00699Y0116*
X00699Y0116*
X00698Y0116*
X00697Y01159*
X00697Y01159*
X00697Y01159*
X00696Y01159*
X00696Y01158*
X00695Y01158*
X00695Y01157*
X00694Y01156*
X00694Y01155*
X00693Y01154*
Y01154*
X00693Y01154*
X00693Y01154*
X00693Y01154*
X00693Y01153*
X00693Y01153*
X00693Y01152*
X00693Y01152*
X00692Y01151*
X00692Y01151*
X00692Y0115*
X00692Y01149*
X00692Y01148*
X00692Y01147*
X00692Y01146*
Y01145*
X00692Y01145*
X00692Y01146*
X00693Y01146*
X00693Y01147*
X00694Y01147*
X00694Y01148*
X00695Y01149*
X00696Y01149*
X00696*
X00696Y01149*
X00696Y01149*
X00697Y0115*
X00698Y0115*
X00698Y0115*
X00699Y0115*
X007Y0115*
X00701Y0115*
X00702*
X00702Y0115*
X00702Y0115*
X00703Y0115*
X00703Y0115*
X00704Y0115*
X00705Y0115*
X00706Y01149*
X00707Y01149*
X00707Y01149*
X00708Y01148*
X00709Y01148*
X00709Y01147*
X00709Y01147*
X00709Y01147*
X0071Y01147*
X0071Y01146*
X0071Y01146*
X0071Y01146*
X00711Y01145*
X00711Y01144*
X00711Y01144*
X00712Y01143*
X00712Y01142*
X00712Y01142*
X00712Y01141*
X00712Y0114*
X00713Y01139*
X00713Y01138*
Y01138*
Y01138*
Y01138*
Y01137*
X00713Y01137*
Y01137*
X00712Y01136*
X00712Y01135*
X00712Y01134*
X00712Y01132*
X00711Y01131*
Y01131*
X00711Y01131*
X00711Y01131*
X00711Y01131*
X0071Y0113*
X0071Y01129*
X00709Y01129*
X00709Y01128*
X00708Y01127*
X00707Y01126*
X00707*
X00707Y01126*
X00706Y01126*
X00706Y01126*
X00706Y01126*
X00705Y01126*
X00704Y01125*
X00703Y01125*
X00702Y01125*
X00701Y01125*
X007*
X007Y01125*
X007*
X00699Y01125*
X00698Y01125*
X00698Y01125*
X00697Y01125*
X00696Y01126*
X00696Y01126*
X00695Y01126*
X00694Y01127*
X00693Y01127*
X00692Y01128*
X00692Y01128*
X00691Y01129*
X00691Y01129*
X00691Y01129*
X00691Y0113*
X0069Y0113*
X0069Y0113*
X0069Y01131*
X00689Y01132*
X00689Y01133*
X00689Y01133*
X00688Y01135*
X00688Y01136*
X00688Y01137*
X00688Y01138*
X00687Y0114*
X00687Y01142*
X00687Y01143*
Y01143*
Y01144*
Y01144*
Y01144*
X00687Y01144*
Y01145*
X00687Y01146*
X00687Y01147*
X00688Y01148*
X00688Y0115*
X00688Y01151*
X00688Y01152*
X00689Y01154*
X00689Y01155*
X00689Y01156*
X0069Y01157*
X00691Y01159*
X00691Y0116*
X00691Y0116*
X00691Y0116*
X00692Y0116*
X00692Y0116*
X00692Y01161*
X00693Y01161*
X00693Y01161*
X00694Y01162*
X00695Y01162*
X00695Y01163*
X00696Y01163*
X00697Y01163*
X00698Y01164*
X00699Y01164*
X007Y01164*
X00701Y01164*
X00701*
X00702Y01164*
G37*
G36*
X00668Y01165D02*
X00669Y01164D01*
X00669Y01164*
X0067Y01164*
X00671Y01164*
X00672Y01164*
X00674Y01163*
X00675Y01163*
X00675Y01163*
X00676Y01162*
X00677Y01162*
X00677Y01162*
X00677Y01162*
X00677Y01161*
X00678Y01161*
X00678Y01161*
X00678Y0116*
X00679Y0116*
X00679Y0116*
X0068Y01159*
X0068Y01158*
X0068Y01158*
X00681Y01157*
X00681Y01156*
X00682Y01155*
X00682Y01154*
X00682Y01153*
X00677Y01152*
Y01152*
X00677Y01152*
X00677Y01153*
X00677Y01153*
X00677Y01153*
X00677Y01154*
X00676Y01155*
X00676Y01156*
X00675Y01157*
X00674Y01157*
X00673Y01158*
X00673Y01158*
X00673Y01159*
X00672Y01159*
X00672Y01159*
X00671Y0116*
X0067Y0116*
X00668Y0116*
X00667Y0116*
X00667*
X00666Y0116*
X00666*
X00666Y0116*
X00664Y0116*
X00663Y0116*
X00662Y01159*
X00661Y01159*
X0066Y01158*
X0066*
X0066Y01158*
X00659Y01158*
X00659Y01157*
X00658Y01157*
X00657Y01156*
X00657Y01155*
X00656Y01154*
X00655Y01152*
Y01152*
X00655Y01152*
X00655Y01152*
X00655Y01152*
X00655Y01151*
X00655Y01151*
X00655Y0115*
X00655Y01149*
X00654Y01148*
X00654Y01146*
X00654Y01145*
Y01145*
Y01145*
Y01144*
Y01144*
X00654Y01144*
Y01143*
X00654Y01143*
X00654Y01142*
X00655Y01141*
X00655Y01139*
X00655Y01138*
X00656Y01136*
Y01136*
X00656Y01136*
X00656Y01136*
X00656Y01136*
X00656Y01135*
X00657Y01134*
X00657Y01133*
X00658Y01133*
X00659Y01132*
X0066Y01131*
X0066*
X0066Y01131*
X0066Y01131*
X00661Y01131*
X00661Y01131*
X00661Y0113*
X00662Y0113*
X00663Y0113*
X00664Y01129*
X00665Y01129*
X00667Y01129*
X00667*
X00667Y01129*
X00668*
X00668Y01129*
X00669Y01129*
X0067Y0113*
X00672Y0113*
X00673Y01131*
X00673Y01131*
X00674Y01132*
X00674Y01132*
X00674Y01132*
X00674Y01132*
X00674Y01132*
X00675Y01132*
X00675Y01133*
X00675Y01133*
X00676Y01133*
X00676Y01134*
X00676Y01134*
X00677Y01135*
X00677Y01136*
X00677Y01136*
X00677Y01137*
X00678Y01138*
X00678Y01139*
X00683Y01138*
Y01138*
X00683Y01137*
X00683Y01137*
X00683Y01137*
X00683Y01136*
X00682Y01135*
X00682Y01135*
X00682Y01134*
X00681Y01133*
X0068Y01131*
X00679Y0113*
X00679Y01129*
X00678Y01129*
X00677Y01128*
X00677Y01128*
X00677Y01128*
X00677Y01128*
X00677Y01128*
X00676Y01127*
X00676Y01127*
X00675Y01127*
X00674Y01126*
X00674Y01126*
X00673Y01126*
X00672Y01126*
X00671Y01125*
X0067Y01125*
X00669Y01125*
X00668Y01125*
X00667Y01125*
X00667*
X00666Y01125*
X00666*
X00665Y01125*
X00664Y01125*
X00664Y01125*
X00662Y01125*
X0066Y01126*
X00659Y01126*
X00658Y01127*
X00657Y01127*
X00657Y01127*
X00657Y01127*
X00657Y01128*
X00656Y01128*
X00656Y01128*
X00656Y01128*
X00655Y01129*
X00655Y01129*
X00654Y0113*
X00654Y0113*
X00653Y01131*
X00652Y01133*
X00651Y01135*
Y01135*
X00651Y01135*
X00651Y01135*
X00651Y01135*
X00651Y01136*
X0065Y01136*
X0065Y01137*
X0065Y01138*
X0065Y01138*
X0065Y01139*
X00649Y01141*
X00649Y01143*
X00649Y01145*
Y01145*
Y01145*
Y01146*
X00649Y01146*
Y01147*
X00649Y01147*
X00649Y01148*
X00649Y01149*
X0065Y0115*
X0065Y01152*
X00651Y01154*
X00651Y01155*
X00651Y01155*
X00651Y01156*
X00652Y01156*
X00652Y01156*
X00652Y01157*
X00652Y01157*
X00653Y01158*
X00654Y01159*
X00655Y0116*
X00656Y01161*
X00658Y01162*
X00658Y01162*
X00658Y01162*
X00658Y01162*
X00659Y01163*
X00659Y01163*
X00659Y01163*
X0066Y01163*
X00661Y01163*
X00661Y01164*
X00662Y01164*
X00664Y01164*
X00665Y01164*
X00667Y01165*
X00668*
X00668Y01165*
G37*
G36*
X00658Y01367D02*
X00659Y01367D01*
X00659Y01367*
X0066Y01367*
X00661Y01367*
X00662Y01367*
X00664Y01366*
X00665Y01366*
X00666Y01365*
X00666Y01365*
X00667Y01364*
X00667Y01364*
X00667Y01364*
X00667Y01364*
X00668Y01364*
X00668Y01364*
X00668Y01363*
X00669Y01363*
X00669Y01362*
X0067Y01362*
X0067Y01361*
X00671Y0136*
X00671Y0136*
X00671Y01359*
X00672Y01358*
X00672Y01357*
X00673Y01356*
X00668Y01355*
Y01355*
X00668Y01355*
X00667Y01355*
X00667Y01356*
X00667Y01356*
X00667Y01356*
X00667Y01357*
X00666Y01358*
X00665Y01359*
X00665Y0136*
X00664Y01361*
X00664Y01361*
X00663Y01361*
X00663Y01362*
X00662Y01362*
X00661Y01362*
X0066Y01363*
X00659Y01363*
X00657Y01363*
X00657*
X00657Y01363*
X00656*
X00656Y01363*
X00655Y01363*
X00653Y01362*
X00652Y01362*
X00651Y01362*
X0065Y01361*
X0065*
X0065Y01361*
X00649Y0136*
X00649Y0136*
X00648Y01359*
X00647Y01358*
X00647Y01358*
X00646Y01356*
X00646Y01355*
Y01355*
X00646Y01355*
X00646Y01355*
X00645Y01354*
X00645Y01354*
X00645Y01354*
X00645Y01353*
X00645Y01352*
X00645Y01351*
X00645Y01349*
X00644Y01348*
Y01348*
Y01348*
Y01347*
Y01347*
X00645Y01347*
Y01346*
X00645Y01345*
X00645Y01345*
X00645Y01344*
X00645Y01342*
X00645Y01341*
X00646Y01339*
Y01339*
X00646Y01339*
X00646Y01339*
X00646Y01339*
X00646Y01338*
X00647Y01337*
X00648Y01336*
X00648Y01335*
X00649Y01334*
X0065Y01334*
X0065*
X0065Y01334*
X00651Y01334*
X00651Y01333*
X00651Y01333*
X00651Y01333*
X00652Y01333*
X00653Y01332*
X00654Y01332*
X00656Y01332*
X00657Y01332*
X00657*
X00658Y01332*
X00658*
X00658Y01332*
X00659Y01332*
X00661Y01333*
X00662Y01333*
X00663Y01334*
X00664Y01334*
X00664Y01334*
X00664Y01334*
X00664Y01334*
X00664Y01335*
X00665Y01335*
X00665Y01335*
X00665Y01335*
X00665Y01336*
X00666Y01336*
X00666Y01337*
X00666Y01337*
X00667Y01338*
X00667Y01338*
X00667Y01339*
X00668Y0134*
X00668Y01341*
X00668Y01342*
X00673Y0134*
Y0134*
X00673Y0134*
X00673Y0134*
X00673Y01339*
X00673Y01339*
X00673Y01338*
X00672Y01338*
X00672Y01337*
X00671Y01335*
X0067Y01334*
X0067Y01333*
X00669Y01332*
X00668Y01332*
X00667Y01331*
X00667Y01331*
X00667Y01331*
X00667Y01331*
X00667Y0133*
X00666Y0133*
X00666Y0133*
X00665Y0133*
X00665Y01329*
X00664Y01329*
X00663Y01329*
X00662Y01328*
X00661Y01328*
X0066Y01328*
X00659Y01328*
X00658Y01328*
X00657Y01328*
X00657*
X00656Y01328*
X00656*
X00655Y01328*
X00654Y01328*
X00654Y01328*
X00652Y01328*
X0065Y01329*
X00649Y01329*
X00648Y0133*
X00647Y0133*
X00647Y0133*
X00647Y0133*
X00647Y0133*
X00647Y01331*
X00646Y01331*
X00646Y01331*
X00645Y01332*
X00645Y01332*
X00645Y01332*
X00644Y01333*
X00643Y01334*
X00642Y01336*
X00641Y01337*
Y01337*
X00641Y01338*
X00641Y01338*
X00641Y01338*
X00641Y01339*
X00641Y01339*
X0064Y0134*
X0064Y01341*
X0064Y01341*
X0064Y01342*
X0064Y01344*
X00639Y01346*
X00639Y01348*
Y01348*
Y01348*
Y01348*
X00639Y01349*
Y01349*
X00639Y0135*
X00639Y01351*
X0064Y01351*
X0064Y01353*
X0064Y01355*
X00641Y01356*
X00642Y01358*
X00642Y01358*
X00642Y01358*
X00642Y01359*
X00642Y01359*
X00642Y01359*
X00642Y0136*
X00643Y01361*
X00644Y01362*
X00645Y01363*
X00647Y01364*
X00648Y01365*
X00648Y01365*
X00648Y01365*
X00648Y01365*
X00649Y01365*
X00649Y01366*
X0065Y01366*
X0065Y01366*
X00651Y01366*
X00651Y01366*
X00652Y01367*
X00654Y01367*
X00656Y01367*
X00657Y01367*
X00658*
X00658Y01367*
G37*
G36*
X00701Y01362D02*
X00686D01*
X00684Y01351*
X00684Y01351*
X00684Y01351*
X00684Y01351*
X00684Y01352*
X00685Y01352*
X00685Y01352*
X00686Y01352*
X00687Y01353*
X00688Y01353*
X0069Y01354*
X0069Y01354*
X00692*
X00692Y01354*
X00692Y01354*
X00693Y01354*
X00693Y01353*
X00694Y01353*
X00695Y01353*
X00696Y01353*
X00697Y01352*
X00697Y01352*
X00698Y01351*
X00699Y01351*
X007Y0135*
X007Y0135*
X007Y0135*
X007Y0135*
X007Y0135*
X007Y01349*
X00701Y01349*
X00701Y01348*
X00701Y01348*
X00702Y01347*
X00702Y01347*
X00702Y01346*
X00702Y01345*
X00703Y01344*
X00703Y01343*
X00703Y01342*
X00703Y01341*
Y01341*
Y01341*
Y01341*
X00703Y0134*
X00703Y0134*
X00703Y01339*
X00703Y01339*
X00703Y01338*
X00702Y01337*
X00702Y01335*
X00701Y01334*
X00701Y01334*
X00701Y01333*
X007Y01332*
X007Y01332*
X007Y01332*
X007Y01332*
X00699Y01332*
X00699Y01331*
X00698Y01331*
X00698Y0133*
X00697Y0133*
X00697Y01329*
X00696Y01329*
X00695Y01329*
X00694Y01328*
X00693Y01328*
X00692Y01328*
X00691Y01328*
X0069Y01328*
X00689*
X00689Y01328*
X00689Y01328*
X00688Y01328*
X00687Y01328*
X00687Y01328*
X00685Y01328*
X00684Y01329*
X00683Y01329*
X00683Y0133*
X00682Y0133*
X00681Y0133*
X00681Y01331*
X00681Y01331*
X00681Y01331*
X00681Y01331*
X00681Y01331*
X0068Y01332*
X0068Y01332*
X0068Y01333*
X00679Y01333*
X00679Y01334*
X00678Y01335*
X00678Y01337*
X00678Y01337*
X00678Y01338*
X00683Y01339*
Y01339*
Y01339*
X00683Y01338*
X00683Y01338*
X00683Y01337*
X00683Y01337*
X00683Y01336*
X00684Y01335*
X00684Y01334*
X00685Y01333*
X00685Y01333*
X00685Y01333*
X00686Y01333*
X00686Y01332*
X00687Y01332*
X00688Y01332*
X00689Y01332*
X0069Y01331*
X0069*
X0069Y01332*
X00691Y01332*
X00692Y01332*
X00693Y01332*
X00694Y01333*
X00695Y01333*
X00695Y01334*
X00696Y01334*
X00696Y01334*
X00696Y01334*
X00696Y01334*
X00696Y01334*
X00696Y01335*
X00697Y01336*
X00697Y01337*
X00698Y01338*
X00698Y01339*
X00698Y0134*
Y01341*
Y01341*
Y01341*
Y01341*
X00698Y01342*
Y01342*
X00698Y01342*
X00698Y01343*
X00697Y01344*
X00697Y01345*
X00697Y01346*
X00696Y01347*
Y01347*
X00696Y01347*
X00695Y01348*
X00695Y01348*
X00694Y01348*
X00693Y01349*
X00692Y01349*
X00691Y01349*
X0069Y0135*
X00689*
X00689Y0135*
X00688Y01349*
X00688Y01349*
X00687Y01349*
X00686Y01349*
X00686Y01349*
X00686Y01348*
X00685Y01348*
X00685Y01348*
X00685Y01348*
X00684Y01347*
X00684Y01347*
X00683Y01346*
X00683Y01346*
X00678Y01346*
X00682Y01366*
X00701*
Y01362*
G37*
G36*
X00727Y01751D02*
X00728Y01751D01*
X00728Y01751*
X00729Y01751*
X0073Y01751*
X00731Y0175*
X00733Y0175*
X00734Y0175*
X00734Y01749*
X00735Y01749*
X00736Y01748*
X00736Y01748*
X00736Y01748*
X00736Y01748*
X00737Y01748*
X00737Y01747*
X00737Y01747*
X00738Y01747*
X00738Y01746*
X00739Y01746*
X00739Y01745*
X0074Y01744*
X0074Y01744*
X0074Y01743*
X00741Y01742*
X00741Y01741*
X00741Y0174*
X00736Y01739*
Y01739*
X00736Y01739*
X00736Y01739*
X00736Y01739*
X00736Y0174*
X00736Y0174*
X00735Y01741*
X00735Y01742*
X00734Y01743*
X00733Y01744*
X00733Y01745*
X00732Y01745*
X00732Y01745*
X00732Y01746*
X00731Y01746*
X0073Y01746*
X00729Y01747*
X00728Y01747*
X00726Y01747*
X00726*
X00725Y01747*
X00725*
X00725Y01747*
X00724Y01747*
X00722Y01746*
X00721Y01746*
X0072Y01745*
X00719Y01745*
X00719*
X00719Y01745*
X00718Y01744*
X00718Y01744*
X00717Y01743*
X00716Y01742*
X00716Y01741*
X00715Y0174*
X00715Y01739*
Y01739*
X00714Y01739*
X00714Y01739*
X00714Y01738*
X00714Y01738*
X00714Y01738*
X00714Y01737*
X00714Y01736*
X00714Y01734*
X00713Y01733*
X00713Y01732*
Y01732*
Y01731*
Y01731*
Y01731*
X00713Y0173*
Y0173*
X00713Y01729*
X00714Y01729*
X00714Y01727*
X00714Y01726*
X00714Y01724*
X00715Y01723*
Y01723*
X00715Y01723*
X00715Y01723*
X00715Y01722*
X00715Y01722*
X00716Y01721*
X00716Y0172*
X00717Y01719*
X00718Y01718*
X00719Y01718*
X00719*
X00719Y01717*
X0072Y01717*
X0072Y01717*
X0072Y01717*
X0072Y01717*
X00721Y01717*
X00722Y01716*
X00723Y01716*
X00724Y01716*
X00726Y01716*
X00726*
X00726Y01716*
X00727*
X00727Y01716*
X00728Y01716*
X00729Y01716*
X00731Y01717*
X00732Y01717*
X00732Y01718*
X00733Y01718*
X00733Y01718*
X00733Y01718*
X00733Y01718*
X00733Y01719*
X00734Y01719*
X00734Y01719*
X00734Y0172*
X00735Y0172*
X00735Y01721*
X00735Y01721*
X00736Y01722*
X00736Y01722*
X00736Y01723*
X00737Y01724*
X00737Y01725*
X00737Y01726*
X00742Y01724*
Y01724*
X00742Y01724*
X00742Y01724*
X00742Y01723*
X00742Y01723*
X00741Y01722*
X00741Y01721*
X00741Y01721*
X0074Y01719*
X00739Y01718*
X00738Y01717*
X00738Y01716*
X00737Y01715*
X00736Y01715*
X00736Y01715*
X00736Y01715*
X00736Y01714*
X00736Y01714*
X00735Y01714*
X00735Y01714*
X00734Y01713*
X00734Y01713*
X00733Y01713*
X00732Y01712*
X00731Y01712*
X0073Y01712*
X00729Y01712*
X00728Y01712*
X00727Y01711*
X00726Y01711*
X00726*
X00725Y01711*
X00725*
X00724Y01712*
X00723Y01712*
X00723Y01712*
X00721Y01712*
X00719Y01712*
X00718Y01713*
X00717Y01713*
X00716Y01714*
X00716Y01714*
X00716Y01714*
X00716Y01714*
X00715Y01714*
X00715Y01715*
X00715Y01715*
X00714Y01715*
X00714Y01716*
X00713Y01716*
X00713Y01717*
X00712Y01718*
X00711Y0172*
X0071Y01721*
Y01721*
X0071Y01721*
X0071Y01722*
X0071Y01722*
X0071Y01723*
X0071Y01723*
X00709Y01724*
X00709Y01724*
X00709Y01725*
X00709Y01726*
X00708Y01728*
X00708Y0173*
X00708Y01732*
Y01732*
Y01732*
Y01732*
X00708Y01733*
Y01733*
X00708Y01734*
X00708Y01734*
X00708Y01735*
X00709Y01737*
X00709Y01739*
X0071Y0174*
X0071Y01742*
X0071Y01742*
X00711Y01742*
X00711Y01742*
X00711Y01743*
X00711Y01743*
X00711Y01744*
X00712Y01745*
X00713Y01746*
X00714Y01747*
X00715Y01748*
X00717Y01749*
X00717Y01749*
X00717Y01749*
X00717Y01749*
X00718Y01749*
X00718Y01749*
X00719Y0175*
X00719Y0175*
X0072Y0175*
X0072Y0175*
X00721Y0175*
X00723Y01751*
X00724Y01751*
X00726Y01751*
X00727*
X00727Y01751*
G37*
G36*
X00766Y01726D02*
X00771D01*
Y01721*
X00766*
Y01712*
X00762*
Y01721*
X00745*
Y01726*
X00762Y01751*
X00766*
Y01726*
G37*
G36*
X00609Y01869D02*
X0061Y01869D01*
X0061Y01869*
X00611Y01869*
X00612Y01869*
X00613Y01869*
X00615Y01868*
X00616Y01868*
X00616Y01867*
X00617Y01867*
X00618Y01866*
X00618Y01866*
X00618Y01866*
X00618Y01866*
X00619Y01866*
X00619Y01866*
X00619Y01865*
X0062Y01865*
X0062Y01864*
X0062Y01864*
X00621Y01863*
X00621Y01862*
X00622Y01862*
X00622Y01861*
X00623Y0186*
X00623Y01859*
X00623Y01858*
X00618Y01857*
Y01857*
X00618Y01857*
X00618Y01857*
X00618Y01858*
X00618Y01858*
X00618Y01858*
X00617Y01859*
X00617Y0186*
X00616Y01861*
X00615Y01862*
X00614Y01863*
X00614Y01863*
X00614Y01863*
X00613Y01864*
X00613Y01864*
X00612Y01864*
X00611Y01865*
X00609Y01865*
X00608Y01865*
X00608*
X00607Y01865*
X00607*
X00606Y01865*
X00605Y01865*
X00604Y01864*
X00603Y01864*
X00602Y01864*
X00601Y01863*
X00601*
X006Y01863*
X006Y01862*
X006Y01862*
X00599Y01861*
X00598Y0186*
X00598Y0186*
X00597Y01858*
X00596Y01857*
Y01857*
X00596Y01857*
X00596Y01857*
X00596Y01856*
X00596Y01856*
X00596Y01856*
X00596Y01855*
X00596Y01854*
X00595Y01852*
X00595Y01851*
X00595Y0185*
Y0185*
Y01849*
Y01849*
Y01849*
X00595Y01848*
Y01848*
X00595Y01847*
X00595Y01847*
X00596Y01845*
X00596Y01844*
X00596Y01843*
X00597Y01841*
Y01841*
X00597Y01841*
X00597Y01841*
X00597Y01841*
X00597Y0184*
X00598Y01839*
X00598Y01838*
X00599Y01837*
X006Y01836*
X00601Y01836*
X00601*
X00601Y01836*
X00601Y01835*
X00602Y01835*
X00602Y01835*
X00602Y01835*
X00603Y01835*
X00604Y01834*
X00605Y01834*
X00606Y01834*
X00608Y01834*
X00608*
X00608Y01834*
X00609*
X00609Y01834*
X0061Y01834*
X00611Y01834*
X00612Y01835*
X00614Y01836*
X00614Y01836*
X00615Y01836*
X00615Y01836*
X00615Y01836*
X00615Y01837*
X00615Y01837*
X00616Y01837*
X00616Y01837*
X00616Y01838*
X00616Y01838*
X00617Y01839*
X00617Y01839*
X00618Y0184*
X00618Y0184*
X00618Y01841*
X00618Y01842*
X00619Y01843*
X00619Y01844*
X00624Y01842*
Y01842*
X00624Y01842*
X00624Y01842*
X00624Y01841*
X00624Y01841*
X00623Y0184*
X00623Y0184*
X00623Y01839*
X00622Y01837*
X00621Y01836*
X0062Y01835*
X0062Y01834*
X00619Y01833*
X00618Y01833*
X00618Y01833*
X00618Y01833*
X00618Y01833*
X00618Y01832*
X00617Y01832*
X00617Y01832*
X00616Y01831*
X00615Y01831*
X00615Y01831*
X00614Y01831*
X00613Y0183*
X00612Y0183*
X00611Y0183*
X0061Y0183*
X00609Y0183*
X00608Y0183*
X00607*
X00607Y0183*
X00607*
X00606Y0183*
X00605Y0183*
X00604Y0183*
X00603Y0183*
X00601Y01831*
X006Y01831*
X00599Y01832*
X00598Y01832*
X00598Y01832*
X00598Y01832*
X00598Y01832*
X00597Y01833*
X00597Y01833*
X00597Y01833*
X00596Y01833*
X00596Y01834*
X00595Y01834*
X00595Y01835*
X00594Y01836*
X00593Y01838*
X00592Y01839*
Y01839*
X00592Y0184*
X00592Y0184*
X00592Y0184*
X00592Y01841*
X00591Y01841*
X00591Y01842*
X00591Y01842*
X00591Y01843*
X00591Y01844*
X0059Y01846*
X0059Y01848*
X0059Y0185*
Y0185*
Y0185*
Y0185*
X0059Y01851*
Y01851*
X0059Y01852*
X0059Y01853*
X0059Y01853*
X00591Y01855*
X00591Y01857*
X00592Y01858*
X00592Y0186*
X00592Y0186*
X00592Y0186*
X00593Y01861*
X00593Y01861*
X00593Y01861*
X00593Y01862*
X00594Y01863*
X00595Y01864*
X00596Y01865*
X00597Y01866*
X00599Y01867*
X00599Y01867*
X00599Y01867*
X00599Y01867*
X006Y01867*
X006Y01868*
X006Y01868*
X00601Y01868*
X00602Y01868*
X00602Y01868*
X00603Y01869*
X00605Y01869*
X00606Y01869*
X00608Y01869*
X00609*
X00609Y01869*
G37*
G36*
X00642Y01869D02*
X00642Y01869D01*
X00643Y01868*
X00644Y01868*
X00645Y01868*
X00646Y01867*
X00646*
X00646Y01867*
X00647Y01867*
X00647Y01867*
X00648Y01866*
X00648Y01866*
X00649Y01865*
X0065Y01865*
X0065Y01864*
X0065Y01864*
X0065Y01863*
X00651Y01863*
X00651Y01862*
X00651Y01862*
X00651Y01861*
X00652Y0186*
X00652Y01859*
Y01859*
Y01858*
X00652Y01858*
X00651Y01857*
X00651Y01857*
X00651Y01856*
X00651Y01855*
X0065Y01854*
X0065Y01854*
X0065Y01854*
X0065Y01854*
X00649Y01853*
X00649Y01853*
X00648Y01852*
X00647Y01852*
X00646Y01851*
X00646*
X00647Y01851*
X00647Y01851*
X00647Y01851*
X00647Y01851*
X00648Y0185*
X00649Y0185*
X0065Y01849*
X00651Y01849*
X00652Y01848*
X00652Y01848*
X00652Y01847*
X00652Y01847*
X00653Y01846*
X00653Y01845*
X00653Y01844*
X00653Y01843*
X00654Y01842*
Y01841*
Y01841*
Y01841*
X00653Y01841*
X00653Y0184*
X00653Y0184*
X00653Y01839*
X00653Y01839*
X00653Y01837*
X00652Y01837*
X00652Y01836*
X00652Y01835*
X00651Y01834*
X0065Y01834*
X0065Y01833*
X0065Y01833*
X0065Y01833*
X00649Y01833*
X00649Y01832*
X00649Y01832*
X00648Y01832*
X00648Y01832*
X00647Y01831*
X00647Y01831*
X00646Y01831*
X00645Y0183*
X00644Y0183*
X00644Y0183*
X00643Y0183*
X00642Y0183*
X00641Y0183*
X0064*
X0064Y0183*
X00639Y0183*
X00639Y0183*
X00638Y0183*
X00638Y0183*
X00636Y0183*
X00635Y01831*
X00634Y01831*
X00634Y01832*
X00633Y01832*
X00632Y01833*
X00632Y01833*
X00632Y01833*
X00632Y01833*
X00632Y01833*
X00631Y01833*
X00631Y01834*
X00631Y01834*
X0063Y01835*
X0063Y01835*
X0063Y01836*
X00629Y01837*
X00629Y01839*
X00629Y01839*
X00628Y0184*
X00633Y01841*
Y01841*
X00633Y01841*
X00633Y01841*
X00633Y0184*
X00633Y0184*
X00633Y0184*
X00634Y01839*
X00634Y01838*
X00635Y01837*
X00635Y01836*
X00636Y01835*
X00636Y01835*
X00636Y01835*
X00637Y01835*
X00637Y01834*
X00638Y01834*
X00639Y01834*
X0064Y01833*
X00641Y01833*
X00641*
X00641Y01833*
X00642Y01834*
X00643Y01834*
X00643Y01834*
X00644Y01834*
X00645Y01835*
X00646Y01836*
X00646Y01836*
X00647Y01836*
X00647Y01837*
X00647Y01837*
X00648Y01838*
X00648Y01839*
X00648Y0184*
X00649Y01841*
Y01841*
Y01842*
Y01842*
X00648Y01842*
X00648Y01843*
X00648Y01843*
X00648Y01844*
X00648Y01845*
X00647Y01846*
X00646Y01847*
X00646Y01847*
X00646Y01847*
X00646Y01847*
X00645Y01848*
X00644Y01848*
X00643Y01849*
X00642Y01849*
X00641Y01849*
X00641*
X0064Y01849*
X0064Y01849*
X00639Y01849*
X00638Y01849*
X00638Y01848*
X00638Y01853*
X00639*
X00639Y01853*
X00639*
X0064Y01853*
X00641Y01853*
X00642Y01853*
X00643Y01853*
X00643Y01854*
X00644Y01854*
X00644*
X00645Y01854*
X00645Y01854*
X00645Y01855*
X00646Y01855*
X00646Y01856*
X00646Y01857*
X00647Y01858*
X00647Y01858*
Y01859*
Y01859*
Y01859*
Y01859*
X00647Y0186*
X00647Y0186*
X00646Y01861*
X00646Y01862*
X00646Y01863*
X00645Y01863*
X00645Y01863*
X00645Y01863*
X00644Y01864*
X00644Y01864*
X00643Y01864*
X00642Y01865*
X00642Y01865*
X00641Y01865*
X0064*
X0064Y01865*
X00639Y01865*
X00638Y01864*
X00637Y01864*
X00637Y01864*
X00636Y01863*
X00636Y01863*
X00636Y01863*
X00635Y01862*
X00635Y01862*
X00635Y01861*
X00634Y0186*
X00634Y01859*
X00634Y01858*
X00629Y01859*
Y01859*
X00629Y01859*
X00629Y01859*
X00629Y0186*
X00629Y0186*
X00629Y0186*
X0063Y01862*
X0063Y01863*
X00631Y01864*
X00632Y01865*
X00633Y01866*
X00633Y01866*
X00633Y01866*
X00633Y01866*
X00633Y01867*
X00634Y01867*
X00634Y01867*
X00634Y01867*
X00635Y01868*
X00636Y01868*
X00637Y01868*
X00639Y01869*
X0064Y01869*
X00641*
X00642Y01869*
G37*
G36*
X00605Y02161D02*
X00606Y02161D01*
X00606Y0216*
X00607Y0216*
X00608Y0216*
X00609Y0216*
X00611Y02159*
X00612Y02159*
X00612Y02159*
X00613Y02158*
X00614Y02158*
X00614Y02158*
X00614Y02158*
X00614Y02157*
X00615Y02157*
X00615Y02157*
X00615Y02156*
X00616Y02156*
X00616Y02156*
X00617Y02155*
X00617Y02154*
X00617Y02154*
X00618Y02153*
X00618Y02152*
X00619Y02151*
X00619Y0215*
X00619Y02149*
X00614Y02148*
Y02148*
X00614Y02148*
X00614Y02149*
X00614Y02149*
X00614Y02149*
X00614Y0215*
X00613Y02151*
X00613Y02152*
X00612Y02153*
X00611Y02154*
X0061Y02154*
X0061Y02154*
X0061Y02155*
X00609Y02155*
X00609Y02155*
X00608Y02156*
X00607Y02156*
X00605Y02156*
X00604Y02156*
X00604*
X00603Y02156*
X00603*
X00603Y02156*
X00601Y02156*
X006Y02156*
X00599Y02155*
X00598Y02155*
X00597Y02154*
X00597*
X00597Y02154*
X00596Y02154*
X00596Y02153*
X00595Y02153*
X00594Y02152*
X00594Y02151*
X00593Y0215*
X00593Y02148*
Y02148*
X00592Y02148*
X00592Y02148*
X00592Y02148*
X00592Y02147*
X00592Y02147*
X00592Y02146*
X00592Y02145*
X00592Y02144*
X00591Y02142*
X00591Y02141*
Y02141*
Y02141*
Y02141*
Y0214*
X00591Y0214*
Y02139*
X00591Y02139*
X00592Y02138*
X00592Y02137*
X00592Y02135*
X00592Y02134*
X00593Y02132*
Y02132*
X00593Y02132*
X00593Y02132*
X00593Y02132*
X00593Y02131*
X00594Y0213*
X00594Y0213*
X00595Y02129*
X00596Y02128*
X00597Y02127*
X00597*
X00597Y02127*
X00597Y02127*
X00598Y02127*
X00598Y02127*
X00598Y02126*
X00599Y02126*
X006Y02126*
X00601Y02125*
X00602Y02125*
X00604Y02125*
X00604*
X00604Y02125*
X00605*
X00605Y02125*
X00606Y02126*
X00607Y02126*
X00609Y02126*
X0061Y02127*
X0061Y02127*
X00611Y02128*
X00611Y02128*
X00611Y02128*
X00611Y02128*
X00611Y02128*
X00612Y02128*
X00612Y02129*
X00612Y02129*
X00613Y02129*
X00613Y0213*
X00613Y02131*
X00614Y02131*
X00614Y02132*
X00614Y02132*
X00614Y02133*
X00615Y02134*
X00615Y02135*
X0062Y02134*
Y02134*
X0062Y02133*
X0062Y02133*
X0062Y02133*
X0062Y02132*
X00619Y02132*
X00619Y02131*
X00619Y0213*
X00618Y02129*
X00617Y02127*
X00616Y02126*
X00616Y02125*
X00615Y02125*
X00614Y02124*
X00614Y02124*
X00614Y02124*
X00614Y02124*
X00614Y02124*
X00613Y02123*
X00613Y02123*
X00612Y02123*
X00611Y02123*
X00611Y02122*
X0061Y02122*
X00609Y02122*
X00608Y02121*
X00607Y02121*
X00606Y02121*
X00605Y02121*
X00604Y02121*
X00604*
X00603Y02121*
X00603*
X00602Y02121*
X00601Y02121*
X00601Y02121*
X00599Y02121*
X00597Y02122*
X00596Y02123*
X00595Y02123*
X00594Y02123*
X00594Y02123*
X00594Y02123*
X00594Y02124*
X00593Y02124*
X00593Y02124*
X00593Y02124*
X00592Y02125*
X00592Y02125*
X00591Y02126*
X00591Y02126*
X0059Y02128*
X00589Y02129*
X00588Y02131*
Y02131*
X00588Y02131*
X00588Y02131*
X00588Y02132*
X00588Y02132*
X00588Y02133*
X00587Y02133*
X00587Y02134*
X00587Y02135*
X00587Y02135*
X00586Y02137*
X00586Y02139*
X00586Y02141*
Y02141*
Y02141*
Y02142*
X00586Y02142*
Y02143*
X00586Y02143*
X00586Y02144*
X00586Y02145*
X00587Y02146*
X00587Y02148*
X00588Y0215*
X00588Y02151*
X00588Y02152*
X00589Y02152*
X00589Y02152*
X00589Y02152*
X00589Y02153*
X00589Y02153*
X0059Y02154*
X00591Y02155*
X00592Y02156*
X00593Y02157*
X00595Y02158*
X00595Y02158*
X00595Y02158*
X00595Y02159*
X00596Y02159*
X00596Y02159*
X00596Y02159*
X00597Y02159*
X00598Y02159*
X00598Y0216*
X00599Y0216*
X00601Y0216*
X00602Y02161*
X00604Y02161*
X00605*
X00605Y02161*
G37*
G36*
X00638Y0216D02*
X00639Y0216D01*
X00639Y0216*
X0064Y0216*
X0064Y0216*
X00642Y02159*
X00643Y02159*
X00644Y02158*
X00645Y02158*
X00645Y02158*
X00646Y02157*
X00646Y02157*
X00646Y02157*
X00646Y02157*
X00646Y02156*
X00647Y02156*
X00647Y02156*
X00647Y02155*
X00648Y02155*
X00648Y02154*
X00649Y02153*
X00649Y02152*
X00649Y02151*
X00649Y0215*
X00649Y02149*
Y02149*
Y02149*
X00649Y02149*
X00649Y02148*
X00649Y02147*
X00649Y02147*
X00649Y02146*
X00648Y02145*
X00648Y02145*
X00648Y02145*
X00648Y02144*
X00647Y02143*
X00647Y02143*
X00646Y02142*
X00646Y02141*
X00645Y0214*
X00645Y0214*
X00645Y0214*
X00644Y02139*
X00644Y02139*
X00644Y02139*
X00643Y02138*
X00643Y02138*
X00642Y02137*
X00642Y02137*
X00641Y02136*
X0064Y02136*
X0064Y02135*
X00639Y02134*
X00638Y02133*
X00638Y02133*
X00638Y02133*
X00637Y02133*
X00637Y02133*
X00637Y02133*
X00636Y02132*
X00636Y02132*
X00635Y02131*
X00634Y0213*
X00633Y02129*
X00633Y02129*
X00632Y02129*
X00632Y02129*
X00632Y02128*
X00632Y02128*
X00632Y02128*
X00631Y02127*
X00631Y02127*
X0063Y02126*
X00649*
Y02122*
X00624*
Y02122*
Y02122*
Y02122*
X00624Y02123*
X00624Y02123*
X00624Y02124*
X00624Y02124*
X00624Y02125*
Y02125*
X00624Y02125*
X00624Y02125*
X00625Y02126*
X00625Y02126*
X00625Y02127*
X00626Y02128*
X00627Y02129*
X00627Y0213*
Y0213*
X00628Y0213*
X00628Y0213*
X00628Y02131*
X00629Y02132*
X0063Y02132*
X00631Y02133*
X00632Y02135*
X00634Y02136*
X00634Y02136*
X00634Y02136*
X00634Y02136*
X00635Y02137*
X00635Y02137*
X00636Y02137*
X00636Y02138*
X00637Y02139*
X00638Y0214*
X0064Y02141*
X0064Y02142*
X00641Y02143*
X00642Y02143*
X00642Y02144*
Y02144*
X00642Y02144*
X00642Y02144*
X00642Y02144*
X00643Y02145*
X00643Y02146*
X00644Y02147*
X00644Y02148*
X00644Y02149*
X00644Y0215*
Y0215*
Y0215*
X00644Y0215*
X00644Y02151*
X00644Y02151*
X00644Y02152*
X00643Y02153*
X00643Y02154*
X00642Y02154*
X00642Y02154*
X00642Y02155*
X00642Y02155*
X00641Y02155*
X0064Y02156*
X00639Y02156*
X00638Y02156*
X00637Y02156*
X00637*
X00636Y02156*
X00636Y02156*
X00635Y02156*
X00634Y02156*
X00633Y02155*
X00632Y02155*
X00632Y02154*
X00631Y02154*
X00631Y02154*
X00631Y02153*
X00631Y02153*
X0063Y02152*
X0063Y02151*
X0063Y0215*
X00629Y02149*
X00625Y02149*
Y02149*
X00625Y02149*
Y0215*
X00625Y0215*
X00625Y0215*
X00625Y02151*
X00625Y02151*
X00625Y02152*
X00626Y02153*
X00626Y02155*
X00627Y02155*
X00627Y02156*
X00628Y02157*
X00628Y02157*
X00628Y02157*
X00629Y02157*
X00629Y02158*
X00629Y02158*
X00629Y02158*
X0063Y02158*
X0063Y02158*
X00631Y02159*
X00631Y02159*
X00632Y02159*
X00633Y02159*
X00633Y0216*
X00634Y0216*
X00635Y0216*
X00636Y0216*
X00637Y0216*
X00638*
X00638Y0216*
G37*
G36*
X00609Y02294D02*
X0061Y02294D01*
X0061Y02294*
X00611Y02294*
X00612Y02294*
X00613Y02294*
X00615Y02293*
X00616Y02293*
X00616Y02293*
X00617Y02292*
X00618Y02292*
X00618Y02291*
X00618Y02291*
X00618Y02291*
X00619Y02291*
X00619Y02291*
X00619Y0229*
X0062Y0229*
X0062Y02289*
X0062Y02289*
X00621Y02288*
X00621Y02288*
X00622Y02287*
X00622Y02286*
X00623Y02285*
X00623Y02284*
X00623Y02283*
X00618Y02282*
Y02282*
X00618Y02282*
X00618Y02282*
X00618Y02283*
X00618Y02283*
X00618Y02284*
X00617Y02284*
X00617Y02285*
X00616Y02286*
X00615Y02287*
X00614Y02288*
X00614Y02288*
X00614Y02289*
X00613Y02289*
X00613Y02289*
X00612Y0229*
X00611Y0229*
X00609Y0229*
X00608Y0229*
X00608*
X00607Y0229*
X00607*
X00606Y0229*
X00605Y0229*
X00604Y0229*
X00603Y02289*
X00602Y02289*
X00601Y02288*
X00601*
X006Y02288*
X006Y02288*
X006Y02287*
X00599Y02286*
X00598Y02286*
X00598Y02285*
X00597Y02284*
X00596Y02282*
Y02282*
X00596Y02282*
X00596Y02282*
X00596Y02282*
X00596Y02281*
X00596Y02281*
X00596Y0228*
X00596Y02279*
X00595Y02278*
X00595Y02276*
X00595Y02275*
Y02275*
Y02275*
Y02274*
Y02274*
X00595Y02274*
Y02273*
X00595Y02273*
X00595Y02272*
X00596Y02271*
X00596Y02269*
X00596Y02268*
X00597Y02266*
Y02266*
X00597Y02266*
X00597Y02266*
X00597Y02266*
X00597Y02265*
X00598Y02264*
X00598Y02263*
X00599Y02262*
X006Y02262*
X00601Y02261*
X00601*
X00601Y02261*
X00601Y02261*
X00602Y02261*
X00602Y0226*
X00602Y0226*
X00603Y0226*
X00604Y0226*
X00605Y02259*
X00606Y02259*
X00608Y02259*
X00608*
X00608Y02259*
X00609*
X00609Y02259*
X0061Y02259*
X00611Y0226*
X00612Y0226*
X00614Y02261*
X00614Y02261*
X00615Y02262*
X00615Y02262*
X00615Y02262*
X00615Y02262*
X00615Y02262*
X00616Y02262*
X00616Y02263*
X00616Y02263*
X00616Y02263*
X00617Y02264*
X00617Y02264*
X00618Y02265*
X00618Y02266*
X00618Y02266*
X00618Y02267*
X00619Y02268*
X00619Y02269*
X00624Y02268*
Y02268*
X00624Y02267*
X00624Y02267*
X00624Y02267*
X00624Y02266*
X00623Y02265*
X00623Y02265*
X00623Y02264*
X00622Y02262*
X00621Y02261*
X0062Y0226*
X0062Y02259*
X00619Y02259*
X00618Y02258*
X00618Y02258*
X00618Y02258*
X00618Y02258*
X00618Y02258*
X00617Y02257*
X00617Y02257*
X00616Y02257*
X00615Y02256*
X00615Y02256*
X00614Y02256*
X00613Y02256*
X00612Y02255*
X00611Y02255*
X0061Y02255*
X00609Y02255*
X00608Y02255*
X00607*
X00607Y02255*
X00607*
X00606Y02255*
X00605Y02255*
X00604Y02255*
X00603Y02255*
X00601Y02256*
X006Y02256*
X00599Y02257*
X00598Y02257*
X00598Y02257*
X00598Y02257*
X00598Y02258*
X00597Y02258*
X00597Y02258*
X00597Y02258*
X00596Y02259*
X00596Y02259*
X00595Y0226*
X00595Y0226*
X00594Y02261*
X00593Y02263*
X00592Y02265*
Y02265*
X00592Y02265*
X00592Y02265*
X00592Y02265*
X00592Y02266*
X00591Y02266*
X00591Y02267*
X00591Y02268*
X00591Y02268*
X00591Y02269*
X0059Y02271*
X0059Y02273*
X0059Y02275*
Y02275*
Y02275*
Y02276*
X0059Y02276*
Y02276*
X0059Y02277*
X0059Y02278*
X0059Y02278*
X00591Y0228*
X00591Y02282*
X00592Y02284*
X00592Y02285*
X00592Y02285*
X00592Y02286*
X00593Y02286*
X00593Y02286*
X00593Y02286*
X00593Y02287*
X00594Y02288*
X00595Y02289*
X00596Y0229*
X00597Y02291*
X00599Y02292*
X00599Y02292*
X00599Y02292*
X00599Y02292*
X006Y02293*
X006Y02293*
X006Y02293*
X00601Y02293*
X00602Y02293*
X00602Y02294*
X00603Y02294*
X00605Y02294*
X00606Y02294*
X00608Y02294*
X00609*
X00609Y02294*
G37*
G36*
X00646Y02255D02*
X00641D01*
Y02285*
X00641Y02285*
X00641Y02285*
X00641Y02285*
X0064Y02284*
X0064Y02284*
X00639Y02283*
X00638Y02283*
X00637Y02282*
X00637*
X00637Y02282*
X00636Y02282*
X00636Y02282*
X00635Y02281*
X00634Y02281*
X00634Y0228*
X00633Y0228*
X00632Y0228*
Y02284*
X00632*
X00632Y02284*
X00632Y02284*
X00633Y02285*
X00633Y02285*
X00633Y02285*
X00634Y02286*
X00635Y02286*
X00637Y02287*
X00638Y02288*
X00639Y02289*
X00639Y02289*
X00639Y02289*
X00639Y02289*
X00639Y02289*
X0064Y0229*
X00641Y0229*
X00641Y02291*
X00642Y02292*
X00643Y02293*
X00643Y02294*
X00646*
Y02255*
G37*
%LNpcb1-2*%
%LPC*%
G36*
X00805Y00784D02*
X00804D01*
X00804Y00784*
X00804Y00784*
X00803Y00784*
X00802Y00783*
X00801Y00783*
X008Y00782*
X00799Y00782*
X00799Y00782*
X00799Y00781*
X00799Y00781*
X00798Y0078*
X00798Y00779*
X00797Y00778*
X00797Y00777*
X00797Y00776*
Y00776*
Y00775*
X00797Y00775*
X00797Y00774*
X00797Y00773*
X00798Y00773*
X00798Y00772*
X00798Y00771*
X00798Y00771*
X00798Y00771*
X00799Y0077*
X00799Y0077*
X00799Y00769*
X008Y00769*
X008Y00768*
X00801Y00768*
X00801Y00768*
X00801Y00768*
X00802Y00767*
X00802Y00767*
X00803Y00767*
X00803Y00767*
X00804Y00767*
X00805Y00767*
X00805*
X00805Y00767*
X00806Y00767*
X00807Y00767*
X00807Y00767*
X00808Y00768*
X00809Y00768*
X0081Y00768*
X0081Y00769*
Y00769*
X0081Y00769*
X0081Y00769*
X00811Y0077*
X00811Y00771*
X00812Y00772*
X00812Y00773*
X00812Y00774*
X00812Y00775*
Y00775*
Y00776*
Y00776*
X00812Y00776*
Y00776*
X00812Y00777*
X00812Y00778*
X00812Y00779*
X00811Y0078*
X00811Y00781*
X0081Y00782*
X0081Y00782*
X0081Y00782*
X00809Y00782*
X00809Y00783*
X00808Y00783*
X00807Y00784*
X00806Y00784*
X00805Y00784*
G37*
G36*
X01007Y00798D02*
Y00798D01*
X01007Y00798*
Y00797*
X01007Y00797*
X01007Y00797*
X01007Y00796*
X01006Y00795*
X01006Y00794*
X01006Y00793*
X01005Y00792*
X01005Y0079*
X01001Y00779*
X01014*
X0101Y0079*
Y0079*
X0101Y0079*
X01009Y0079*
X01009Y0079*
X01009Y00791*
X01009Y00791*
X01009Y00792*
X01009Y00792*
X01008Y00794*
X01008Y00795*
X01007Y00796*
X01007Y00798*
G37*
G36*
X00754Y00797D02*
X00745D01*
Y00768*
X00754*
X00755Y00768*
X00756Y00768*
X00757Y00768*
X00758Y00768*
X00759Y00768*
X00759Y00769*
X00759Y00769*
X0076Y00769*
X0076Y00769*
X00761Y00769*
X00761Y00769*
X00762Y0077*
X00762Y0077*
X00763Y00771*
X00763Y00771*
X00763Y00771*
X00763Y00771*
X00764Y00772*
X00764Y00772*
X00765Y00773*
X00765Y00774*
X00766Y00775*
Y00775*
X00766Y00775*
X00766Y00776*
X00766Y00776*
X00766Y00776*
X00766Y00777*
X00766Y00777*
X00766Y00777*
X00766Y00778*
X00767Y0078*
X00767Y00781*
X00767Y00783*
Y00783*
Y00783*
Y00783*
X00767Y00784*
Y00784*
X00767Y00785*
X00767Y00785*
X00766Y00786*
X00766Y00788*
X00766Y00789*
X00765Y00791*
X00765Y00791*
X00765Y00792*
Y00792*
X00765Y00792*
X00764Y00792*
X00764Y00793*
X00764Y00793*
X00763Y00794*
X00763Y00794*
X00762Y00795*
X00761Y00796*
X0076Y00796*
X0076Y00796*
X00759Y00796*
X00759Y00797*
X00758Y00797*
X00757Y00797*
X00756Y00797*
X00756Y00797*
X00755*
X00754Y00797*
G37*
G36*
X00719Y00797D02*
X00707D01*
Y00785*
X00718*
X00719Y00785*
X00719Y00785*
X0072Y00785*
X00721Y00785*
X00722Y00785*
X00723Y00785*
X00723Y00785*
X00723Y00786*
X00724Y00786*
X00724Y00786*
X00724Y00786*
X00725Y00787*
X00725Y00787*
X00726Y00788*
X00726Y00788*
X00726Y00788*
X00726Y00788*
X00726Y00789*
X00727Y00789*
X00727Y0079*
X00727Y0079*
X00727Y00791*
Y00791*
Y00791*
X00727Y00792*
X00727Y00792*
X00727Y00793*
X00726Y00793*
X00726Y00794*
X00726Y00795*
X00725Y00796*
X00725Y00796*
X00725Y00796*
X00724Y00796*
X00723Y00797*
X00723Y00797*
X00721Y00797*
X0072Y00797*
X00719Y00797*
G37*
G36*
X00679Y00798D02*
Y00798D01*
X00679Y00798*
Y00797*
X00679Y00797*
X00678Y00797*
X00678Y00796*
X00678Y00795*
X00678Y00794*
X00677Y00793*
X00677Y00792*
X00677Y0079*
X00672Y00779*
X00685*
X00681Y0079*
Y0079*
X00681Y0079*
X00681Y0079*
X00681Y0079*
X00681Y00791*
X00681Y00791*
X00681Y00792*
X0068Y00792*
X0068Y00794*
X0068Y00795*
X00679Y00796*
X00679Y00798*
G37*
G36*
X00602Y00797D02*
X00593D01*
Y00786*
X00602*
X00603Y00786*
X00604Y00786*
X00605Y00786*
X00605Y00786*
X00606Y00786*
X00606Y00786*
X00606Y00786*
X00607Y00786*
X00607Y00786*
X00608Y00787*
X00608Y00787*
X00609Y00787*
X00609Y00788*
X00609Y00788*
X00609Y00788*
X00609Y00788*
X00609Y00789*
X0061Y00789*
X0061Y0079*
X0061Y00791*
X0061Y00791*
Y00791*
Y00792*
X0061Y00792*
X0061Y00792*
X0061Y00793*
X0061Y00793*
X00609Y00794*
X00609Y00795*
X00609Y00795*
X00609Y00795*
X00609Y00795*
X00608Y00795*
X00608Y00796*
X00608Y00796*
X00607Y00796*
X00606Y00797*
X00606*
X00606Y00797*
X00606Y00797*
X00605Y00797*
X00604Y00797*
X00603Y00797*
X00602Y00797*
G37*
G36*
X00603Y00781D02*
X00593D01*
Y00768*
X00604*
X00605Y00768*
X00606Y00768*
X00606Y00768*
X00606*
X00606Y00768*
X00607Y00768*
X00607Y00768*
X00608Y00769*
X00609Y00769*
X00609Y00769*
X00609Y00769*
X00609Y00769*
X0061Y0077*
X0061Y0077*
X0061Y0077*
X00611Y00771*
X00611Y00771*
X00611Y00771*
X00611Y00771*
X00611Y00772*
X00611Y00772*
X00611Y00773*
X00612Y00773*
X00612Y00774*
X00612Y00774*
Y00775*
Y00775*
X00612Y00775*
X00611Y00776*
X00611Y00776*
X00611Y00777*
X00611Y00777*
X0061Y00778*
X0061Y00778*
X0061Y00778*
X0061Y00779*
X0061Y00779*
X00609Y00779*
X00609Y0078*
X00608Y0078*
X00607Y0078*
X00607Y0078*
X00607Y0078*
X00607Y00781*
X00606Y00781*
X00605Y00781*
X00604Y00781*
X00603Y00781*
G37*
G36*
X00567Y00797D02*
X00554D01*
Y00785*
X00566*
X00567Y00785*
X00567Y00785*
X00568Y00785*
X00569Y00785*
X0057Y00785*
X00571Y00785*
X00571Y00785*
X00571Y00786*
X00571Y00786*
X00572Y00786*
X00572Y00786*
X00573Y00787*
X00573Y00787*
X00574Y00788*
X00574Y00788*
X00574Y00788*
X00574Y00788*
X00574Y00789*
X00575Y00789*
X00575Y0079*
X00575Y0079*
X00575Y00791*
Y00791*
Y00791*
X00575Y00792*
X00575Y00792*
X00575Y00793*
X00574Y00793*
X00574Y00794*
X00574Y00795*
X00573Y00796*
X00573Y00796*
X00572Y00796*
X00572Y00796*
X00571Y00797*
X0057Y00797*
X00569Y00797*
X00568Y00797*
X00567Y00797*
G37*
G36*
X00401Y00797D02*
X0039D01*
Y00783*
X00401*
X00401Y00783*
X00402*
X00402Y00784*
X00403Y00784*
X00404Y00784*
X00405Y00784*
X00406Y00785*
X00407Y00785*
X00407Y00785*
X00407Y00785*
X00408Y00786*
X00408Y00786*
X00408Y00787*
X00409Y00787*
X00409Y00788*
X00409Y00789*
X00409Y0079*
Y0079*
Y0079*
Y00791*
X00409Y00791*
X00409Y00792*
X00409Y00792*
X00409Y00793*
X00409Y00794*
X00408Y00794*
X00408Y00795*
X00408Y00795*
X00408Y00795*
X00407Y00795*
X00407Y00796*
X00406Y00796*
X00406Y00796*
X00405Y00797*
X00405*
X00405Y00797*
X00404Y00797*
X00404Y00797*
X00403Y00797*
X00402Y00797*
X00401Y00797*
G37*
G36*
X00975Y00798D02*
X00974D01*
X00974Y00798*
X00973Y00798*
X00973Y00798*
X00972Y00797*
X00971Y00797*
X0097Y00796*
X0097Y00796*
X0097Y00796*
X00969Y00795*
Y00795*
X00969Y00795*
X00969Y00795*
X00969Y00795*
X00969Y00794*
X00968Y00794*
X00968Y00793*
X00968Y00792*
X00968Y00791*
X00968Y0079*
X00967Y00789*
X00967Y00788*
X00967Y00787*
X00967Y00785*
X00967Y00784*
X00967Y00782*
Y00782*
Y00782*
Y00781*
X00967Y00781*
Y0078*
X00967Y00779*
X00967Y00778*
X00967Y00777*
X00967Y00775*
X00968Y00774*
X00968Y00773*
X00968Y00772*
X00968Y00771*
X00969Y0077*
X00969Y0077*
Y0077*
X00969Y0077*
X00969Y00769*
X0097Y00769*
X00971Y00768*
X00971Y00768*
X00972Y00767*
X00973Y00767*
X00974Y00767*
X00975Y00767*
X00975*
X00975Y00767*
X00976Y00767*
X00976Y00767*
X00977Y00767*
X00978Y00768*
X00979Y00768*
X00979Y00769*
X0098Y00769*
X0098Y0077*
Y0077*
X0098Y0077*
X0098Y0077*
X0098Y0077*
X00981Y00771*
X00981Y00771*
X00981Y00772*
X00981Y00772*
X00981Y00773*
X00982Y00774*
X00982Y00775*
X00982Y00776*
X00982Y00778*
X00982Y00779*
X00982Y0078*
Y00782*
Y00782*
Y00782*
Y00783*
Y00783*
X00982Y00784*
Y00784*
X00982Y00785*
X00982Y00786*
X00982Y00787*
X00982Y00789*
X00982Y00791*
X00981Y00792*
X00981Y00792*
X00981Y00793*
X0098Y00794*
X0098Y00795*
Y00795*
X0098Y00795*
X0098Y00795*
X0098Y00795*
X00979Y00796*
X00979Y00796*
X00978Y00797*
X00977Y00797*
X00976Y00798*
X00976Y00798*
X00975Y00798*
X00975Y00798*
G37*
G36*
X00945D02*
X00944D01*
X00944Y00798*
X00943Y00798*
X00943Y00798*
X00942Y00797*
X00941Y00797*
X00941Y00796*
X0094Y00796*
X0094Y00796*
X00939Y00795*
Y00795*
X00939Y00795*
X00939Y00795*
X00939Y00795*
X00939Y00794*
X00939Y00794*
X00938Y00793*
X00938Y00792*
X00938Y00791*
X00938Y0079*
X00938Y00789*
X00937Y00788*
X00937Y00787*
X00937Y00785*
X00937Y00784*
X00937Y00782*
Y00782*
Y00782*
Y00781*
X00937Y00781*
Y0078*
X00937Y00779*
X00937Y00778*
X00937Y00777*
X00938Y00775*
X00938Y00774*
X00938Y00773*
X00938Y00772*
X00939Y00771*
X00939Y0077*
X00939Y0077*
Y0077*
X00939Y0077*
X0094Y00769*
X0094Y00769*
X00941Y00768*
X00942Y00768*
X00942Y00767*
X00944Y00767*
X00944Y00767*
X00945Y00767*
X00945*
X00945Y00767*
X00946Y00767*
X00947Y00767*
X00947Y00767*
X00948Y00768*
X00949Y00768*
X00949Y00769*
X0095Y00769*
X0095Y0077*
Y0077*
X0095Y0077*
X0095Y0077*
X0095Y0077*
X00951Y00771*
X00951Y00771*
X00951Y00772*
X00951Y00772*
X00951Y00773*
X00952Y00774*
X00952Y00775*
X00952Y00776*
X00952Y00778*
X00952Y00779*
X00952Y0078*
Y00782*
Y00782*
Y00782*
Y00783*
Y00783*
X00952Y00784*
Y00784*
X00952Y00785*
X00952Y00786*
X00952Y00787*
X00952Y00789*
X00952Y00791*
X00951Y00792*
X00951Y00792*
X00951Y00793*
X00951Y00794*
X0095Y00795*
Y00795*
X0095Y00795*
X0095Y00795*
X0095Y00795*
X00949Y00796*
X00949Y00796*
X00948Y00797*
X00947Y00797*
X00946Y00798*
X00946Y00798*
X00945Y00798*
X00945Y00798*
G37*
G36*
X00834D02*
X00834D01*
X00834Y00798*
X00833Y00798*
X00832Y00798*
X00831Y00797*
X00831Y00797*
X0083Y00796*
X0083Y00796*
X00829Y00796*
X00829Y00795*
Y00795*
X00829Y00795*
X00829Y00795*
X00829Y00795*
X00828Y00794*
X00828Y00794*
X00828Y00793*
X00828Y00792*
X00828Y00791*
X00827Y0079*
X00827Y00789*
X00827Y00788*
X00827Y00787*
X00827Y00785*
X00827Y00784*
X00827Y00782*
Y00782*
Y00782*
Y00781*
X00827Y00781*
Y0078*
X00827Y00779*
X00827Y00778*
X00827Y00777*
X00827Y00775*
X00827Y00774*
X00828Y00773*
X00828Y00772*
X00828Y00771*
X00828Y0077*
X00829Y0077*
Y0077*
X00829Y0077*
X00829Y00769*
X0083Y00769*
X0083Y00768*
X00831Y00768*
X00832Y00767*
X00833Y00767*
X00834Y00767*
X00834Y00767*
X00835*
X00835Y00767*
X00835Y00767*
X00836Y00767*
X00837Y00767*
X00838Y00768*
X00838Y00768*
X00839Y00769*
X00839Y00769*
X0084Y0077*
Y0077*
X0084Y0077*
X0084Y0077*
X0084Y0077*
X0084Y00771*
X0084Y00771*
X00841Y00772*
X00841Y00772*
X00841Y00773*
X00841Y00774*
X00841Y00775*
X00842Y00776*
X00842Y00778*
X00842Y00779*
X00842Y0078*
Y00782*
Y00782*
Y00782*
Y00783*
Y00783*
X00842Y00784*
Y00784*
X00842Y00785*
X00842Y00786*
X00842Y00787*
X00841Y00789*
X00841Y00791*
X00841Y00792*
X00841Y00792*
X0084Y00793*
X0084Y00794*
X0084Y00795*
Y00795*
X0084Y00795*
X0084Y00795*
X00839Y00795*
X00839Y00796*
X00838Y00796*
X00837Y00797*
X00836Y00797*
X00836Y00798*
X00835Y00798*
X00835Y00798*
X00834Y00798*
G37*
G36*
X00641D02*
X0064D01*
X0064Y00798*
X00639Y00798*
X00639Y00798*
X00638Y00798*
X00638Y00798*
X00636Y00797*
X00635Y00797*
X00635Y00796*
X00634Y00796*
X00633Y00795*
X00632Y00795*
X00631Y00794*
X00631Y00794*
X00631Y00794*
X00631Y00794*
X00631Y00794*
X00631Y00793*
X0063Y00793*
X0063Y00792*
X00629Y00791*
X00629Y00791*
X00629Y0079*
X00628Y00789*
X00628Y00787*
X00628Y00786*
X00628Y00785*
X00628Y00783*
X00628Y00782*
Y00782*
Y00782*
Y00781*
X00628Y00781*
X00628Y0078*
X00628Y00779*
X00628Y00779*
X00628Y00778*
X00628Y00776*
X00629Y00775*
X00629Y00774*
X0063Y00773*
X0063Y00773*
X00631Y00772*
X00631Y00771*
X00631Y00771*
X00631Y00771*
X00632Y00771*
X00632Y0077*
X00632Y0077*
X00633Y0077*
X00633Y00769*
X00634Y00769*
X00634Y00769*
X00635Y00768*
X00636Y00768*
X00637Y00768*
X00638Y00767*
X00639Y00767*
X0064Y00767*
X00641Y00767*
X00641*
X00641Y00767*
X00642*
X00642Y00767*
X00643Y00767*
X00643Y00767*
X00644Y00767*
X00645Y00768*
X00645Y00768*
X00646Y00768*
X00647Y00769*
X00648Y00769*
X00649Y0077*
X00649Y0077*
X0065Y00771*
X0065Y00771*
X0065Y00771*
X0065Y00771*
X00651Y00772*
X00651Y00772*
X00651Y00773*
X00652Y00773*
X00652Y00774*
X00652Y00775*
X00653Y00776*
X00653Y00776*
X00653Y00777*
X00654Y00779*
X00654Y0078*
X00654Y00781*
X00654Y00782*
Y00782*
Y00783*
Y00783*
Y00783*
X00654Y00784*
Y00784*
X00654Y00785*
X00654Y00785*
X00653Y00786*
X00653Y00788*
X00653Y00789*
X00652Y00791*
Y00791*
X00652Y00791*
X00652Y00791*
X00652Y00791*
X00652Y00792*
X00651Y00793*
X0065Y00793*
X0065Y00794*
X00649Y00795*
X00648Y00796*
X00648*
X00647Y00796*
X00647Y00796*
X00647Y00796*
X00647Y00796*
X00646Y00797*
X00646Y00797*
X00645Y00797*
X00643Y00798*
X00642Y00798*
X00641Y00798*
G37*
G36*
X00438D02*
X00437D01*
X00437Y00798*
X00437Y00798*
X00436Y00798*
X00435Y00798*
X00435Y00798*
X00433Y00797*
X00433Y00797*
X00432Y00796*
X00431Y00796*
X0043Y00795*
X00429Y00795*
X00429Y00794*
X00429Y00794*
X00429Y00794*
X00428Y00794*
X00428Y00794*
X00428Y00793*
X00427Y00793*
X00427Y00792*
X00427Y00791*
X00426Y00791*
X00426Y0079*
X00426Y00789*
X00425Y00787*
X00425Y00786*
X00425Y00785*
X00425Y00783*
X00425Y00782*
Y00782*
Y00782*
Y00781*
X00425Y00781*
X00425Y0078*
X00425Y00779*
X00425Y00779*
X00425Y00778*
X00426Y00776*
X00426Y00775*
X00426Y00774*
X00427Y00773*
X00427Y00773*
X00428Y00772*
X00429Y00771*
X00429Y00771*
X00429Y00771*
X00429Y00771*
X00429Y0077*
X0043Y0077*
X0043Y0077*
X00431Y00769*
X00431Y00769*
X00432Y00769*
X00432Y00768*
X00433Y00768*
X00434Y00768*
X00435Y00767*
X00436Y00767*
X00437Y00767*
X00438Y00767*
X00438*
X00438Y00767*
X00439*
X00439Y00767*
X0044Y00767*
X00441Y00767*
X00441Y00767*
X00442Y00768*
X00443Y00768*
X00444Y00768*
X00444Y00769*
X00445Y00769*
X00446Y0077*
X00447Y0077*
X00447Y00771*
X00447Y00771*
X00448Y00771*
X00448Y00771*
X00448Y00772*
X00448Y00772*
X00449Y00773*
X00449Y00773*
X00449Y00774*
X0045Y00775*
X0045Y00776*
X0045Y00776*
X00451Y00777*
X00451Y00779*
X00451Y0078*
X00451Y00781*
X00451Y00782*
Y00782*
Y00783*
Y00783*
Y00783*
X00451Y00784*
Y00784*
X00451Y00785*
X00451Y00785*
X00451Y00786*
X0045Y00788*
X0045Y00789*
X00449Y00791*
Y00791*
X00449Y00791*
X00449Y00791*
X00449Y00791*
X00449Y00792*
X00448Y00793*
X00448Y00793*
X00447Y00794*
X00446Y00795*
X00445Y00796*
X00445*
X00445Y00796*
X00445Y00796*
X00444Y00796*
X00444Y00796*
X00444Y00797*
X00443Y00797*
X00442Y00797*
X00441Y00798*
X00439Y00798*
X00438Y00798*
G37*
G36*
X01164Y0098D02*
X01152D01*
X01152Y0098*
X01151Y0098*
X0115Y0098*
X01149Y0098*
X01148Y0098*
X01147Y00979*
X01147Y00979*
X01147Y00979*
X01147Y00979*
X01146Y00979*
X01146Y00978*
X01145Y00978*
X01145Y00978*
X01144Y00977*
X01144Y00977*
X01144Y00977*
X01144Y00976*
X01144Y00976*
X01144Y00976*
X01143Y00975*
X01143Y00974*
X01143Y00974*
Y00974*
Y00974*
X01143Y00973*
X01143Y00973*
X01144Y00972*
X01144Y00971*
X01144Y00971*
X01145Y0097*
X01145Y00969*
X01145Y00969*
X01146Y00969*
X01146Y00969*
X01147Y00968*
X01148Y00968*
X01149Y00968*
X0115Y00967*
X01152Y00967*
X01164*
Y0098*
G37*
G36*
X0109Y00998D02*
X01089D01*
X01089Y00998*
X01089Y00998*
X01088Y00998*
X01087Y00997*
X01086Y00997*
X01086Y00997*
X01085Y00996*
X01085Y00996*
X01084Y00995*
Y00995*
X01084Y00995*
X01084Y00995*
X01084Y00995*
X01084Y00994*
X01083Y00994*
X01083Y00993*
X01083Y00992*
X01083Y00992*
X01083Y00991*
X01082Y0099*
X01082Y00989*
X01082Y00987*
X01082Y00986*
X01082Y00984*
Y00983*
Y00982*
Y00982*
Y00982*
Y00982*
X01082Y00981*
Y0098*
X01082Y00979*
X01082Y00978*
X01082Y00977*
X01082Y00975*
X01083Y00974*
X01083Y00973*
X01083Y00972*
X01083Y00971*
X01084Y00971*
X01084Y0097*
Y0097*
X01084Y0097*
X01084Y0097*
X01085Y00969*
X01085Y00969*
X01086Y00968*
X01086Y00968*
X01087Y00967*
X01088Y00967*
X01088Y00967*
X01089Y00967*
X0109Y00967*
X0109*
X0109Y00967*
X01091Y00967*
X01092Y00967*
X01092Y00967*
X01093Y00968*
X01094Y00968*
X01094Y00969*
X01095Y00969*
X01095Y0097*
Y0097*
X01095Y0097*
X01095Y0097*
X01095Y0097*
X01096Y00971*
X01096Y00971*
X01096Y00972*
X01096Y00973*
X01096Y00973*
X01097Y00974*
X01097Y00975*
X01097Y00976*
X01097Y00978*
X01097Y00979*
X01097Y00981*
X01097Y00983*
Y00983*
Y00983*
Y00983*
X01097Y00984*
Y00985*
X01097Y00986*
X01097Y00987*
X01097Y00988*
X01097Y0099*
X01097Y00991*
X01096Y00992*
X01096Y00993*
X01096Y00994*
X01096Y00994*
X01095Y00995*
Y00995*
X01095Y00995*
X01095Y00996*
X01094Y00996*
X01094Y00997*
X01093Y00997*
X01092Y00998*
X01091Y00998*
X0109Y00998*
X0109Y00998*
G37*
G36*
X01216Y00834D02*
X0121D01*
X0121Y00834*
X0121Y00834*
X01209Y00834*
X01209Y00834*
X01208Y00834*
X01208Y00833*
X01208Y00833*
X01208Y00833*
X01207Y00833*
X01207Y00833*
X01207Y00833*
X01207Y00833*
X01206Y00832*
X01206Y00832*
X01206Y00832*
X01206Y00832*
X01206Y00832*
X01206Y00832*
X01206Y00831*
X01206Y00831*
X01206Y00831*
X01206Y0083*
Y0083*
Y0083*
X01206Y0083*
X01206Y0083*
X01206Y0083*
X01206Y00829*
X01206Y00829*
X01206Y00828*
X01207Y00828*
X01207Y00828*
X01207Y00828*
X01207Y00828*
X01207Y00828*
X01208Y00827*
X01209Y00827*
X01209Y00827*
X0121Y00827*
X01216*
Y00834*
G37*
G36*
X01099Y01036D02*
X01087D01*
Y01019*
X01099Y01036*
G37*
G36*
X01128Y00857D02*
X01116Y0084D01*
X01128*
Y00857*
G37*
G36*
X00236Y01245D02*
X00236D01*
X00235Y01245*
X00235Y01245*
X00234Y01244*
X00233Y01244*
X00232Y01244*
X00231Y01243*
X00231Y01243*
X0023Y01242*
Y01242*
X0023Y01242*
X0023Y01242*
X0023Y01242*
X0023Y01241*
X00229Y0124*
X00229Y01239*
X00228Y01238*
X00228Y01237*
X00228Y01236*
Y01235*
Y01235*
Y01235*
X00228Y01235*
Y01235*
X00228Y01234*
X00228Y01233*
X00229Y01233*
X00229Y01232*
X0023Y01231*
X0023Y0123*
X0023Y0123*
X00231Y01229*
X00231Y01229*
X00232Y01229*
X00233Y01228*
X00234Y01228*
X00235Y01227*
X00236Y01227*
X00236*
X00236Y01227*
X00237Y01227*
X00238Y01228*
X00239Y01228*
X00239Y01228*
X0024Y01229*
X00241Y0123*
X00241Y0123*
X00241Y0123*
X00242Y01231*
X00242Y01231*
X00243Y01232*
X00243Y01233*
X00243Y01235*
X00243Y01236*
Y01236*
Y01236*
Y01236*
X00243Y01237*
Y01237*
X00243Y01237*
X00243Y01238*
X00243Y01239*
X00242Y0124*
X00242Y01241*
X00241Y01242*
Y01242*
X00241Y01243*
X00241Y01243*
X0024Y01243*
X0024Y01244*
X00239Y01244*
X00238Y01244*
X00237Y01245*
X00236Y01245*
G37*
G36*
X00204Y01244D02*
X00192D01*
Y01232*
X00203*
X00204Y01232*
X00204Y01232*
X00205Y01232*
X00206Y01232*
X00207Y01232*
X00208Y01232*
X00208Y01232*
X00208Y01232*
X00209Y01233*
X00209Y01233*
X0021Y01233*
X0021Y01233*
X00211Y01234*
X00211Y01235*
X00211Y01235*
X00211Y01235*
X00211Y01235*
X00211Y01236*
X00212Y01236*
X00212Y01237*
X00212Y01237*
X00212Y01238*
Y01238*
Y01238*
X00212Y01238*
X00212Y01239*
X00212Y0124*
X00211Y0124*
X00211Y01241*
X00211Y01242*
X0021Y01242*
X0021Y01243*
X0021Y01243*
X00209Y01243*
X00208Y01243*
X00208Y01244*
X00206Y01244*
X00205Y01244*
X00204Y01244*
G37*
G36*
X00391Y01756D02*
X00379D01*
Y01743*
X0039*
X00391Y01743*
X00392Y01743*
X00392Y01744*
X00393Y01744*
X00394Y01744*
X00395Y01744*
X00395Y01744*
X00395Y01744*
X00396Y01744*
X00396Y01745*
X00397Y01745*
X00397Y01745*
X00398Y01746*
X00398Y01746*
X00398Y01746*
X00398Y01747*
X00398Y01747*
X00398Y01747*
X00399Y01748*
X00399Y01748*
X00399Y01749*
X00399Y0175*
Y0175*
Y0175*
X00399Y0175*
X00399Y01751*
X00399Y01751*
X00398Y01752*
X00398Y01753*
X00398Y01754*
X00397Y01754*
X00397Y01754*
X00397Y01755*
X00396Y01755*
X00395Y01755*
X00395Y01756*
X00394Y01756*
X00392Y01756*
X00391Y01756*
G37*
G36*
X00423Y01757D02*
X00422D01*
X00422Y01757*
X00421Y01756*
X00421Y01756*
X0042Y01756*
X00419Y01755*
X00418Y01755*
X00418Y01755*
X00418Y01755*
X00418Y01754*
X00417Y01754*
X00417Y01753*
X00417Y01752*
X00417Y01752*
X00417Y01751*
Y01751*
Y01751*
X00417Y0175*
X00417Y0175*
X00417Y01749*
X00417Y01748*
X00417Y01748*
X00418Y01747*
X00418Y01746*
X00418Y01746*
X00419Y01746*
X00419Y01746*
X0042Y01745*
X0042Y01745*
X00421Y01745*
X00422Y01745*
X00423Y01745*
X00423*
X00423Y01745*
X00424Y01745*
X00424Y01745*
X00425Y01745*
X00426Y01745*
X00427Y01746*
X00427Y01746*
X00427Y01746*
X00428Y01747*
X00428Y01747*
X00428Y01747*
X00429Y01748*
X00429Y01749*
X00429Y0175*
X00429Y0175*
Y01751*
Y01751*
Y01751*
X00429Y01751*
X00429Y01752*
X00429Y01753*
X00428Y01753*
X00428Y01754*
X00427Y01755*
X00427Y01755*
X00427Y01755*
X00427Y01755*
X00426Y01756*
X00425Y01756*
X00425Y01756*
X00424Y01757*
X00423Y01757*
G37*
G36*
X00423Y01741D02*
X00422D01*
X00422Y01741*
X00422Y01741*
X00421Y0174*
X0042Y0174*
X00419Y0174*
X00418Y01739*
X00417Y01738*
X00417Y01738*
X00417Y01738*
X00417Y01738*
X00416Y01737*
X00416Y01736*
X00415Y01735*
X00415Y01734*
X00415Y01733*
Y01733*
Y01733*
X00415Y01732*
X00415Y01732*
X00415Y01731*
X00415Y0173*
X00416Y0173*
X00416Y01729*
X00416Y01729*
X00416Y01729*
X00416Y01728*
X00417Y01728*
X00417Y01728*
X00418Y01727*
X00418Y01727*
X00419Y01726*
X00419Y01726*
X00419Y01726*
X00419Y01726*
X0042Y01726*
X00421Y01725*
X00421Y01725*
X00422Y01725*
X00423Y01725*
X00423*
X00423Y01725*
X00424Y01725*
X00425Y01725*
X00426Y01726*
X00427Y01726*
X00428Y01727*
X00428Y01727*
X00429Y01727*
X00429Y01728*
X00429Y01728*
X0043Y01729*
X0043Y0173*
X0043Y01731*
X00431Y01732*
X00431Y01733*
Y01733*
Y01733*
Y01733*
X00431Y01733*
X00431Y01734*
X0043Y01735*
X0043Y01736*
X0043Y01737*
X00429Y01738*
X00428Y01738*
X00428Y01739*
X00428Y01739*
X00428Y01739*
X00427Y0174*
X00426Y0174*
X00425Y0174*
X00424Y01741*
X00423Y01741*
G37*
G36*
X00309Y02012D02*
X00297D01*
Y02001*
X00297Y02*
X00297Y01999*
X00297Y01998*
X00297Y01997*
X00297Y01997*
X00297Y01996*
X00297Y01996*
X00297Y01995*
X00298Y01995*
X00298Y01995*
X00298Y01994*
X00298Y01994*
X00299Y01993*
X003Y01993*
X003Y01993*
X003Y01993*
X003Y01992*
X00301Y01992*
X00301Y01992*
X00302Y01992*
X00302Y01992*
X00303Y01992*
X00303*
X00303*
X00303Y01992*
X00304Y01992*
X00305Y01992*
X00305Y01992*
X00306Y01993*
X00307Y01993*
X00307Y01994*
X00308Y01994*
X00308Y01994*
X00308Y01995*
X00308Y01995*
X00309Y01996*
X00309Y01997*
X00309Y01999*
X00309Y02*
Y02012*
G37*
G36*
X00428Y01194D02*
X00428D01*
X00427Y01194*
X00427Y01194*
X00426Y01194*
X00425Y01194*
X00424Y01193*
X00423Y01193*
X00423Y01192*
X00422Y01192*
X00422Y01192*
X00422Y01191*
X00421Y01191*
X00421Y0119*
X00421Y01189*
X0042Y01187*
X0042Y01186*
Y01186*
Y01186*
X0042Y01185*
X0042Y01185*
X00421Y01184*
X00421Y01183*
X00421Y01182*
X00421Y01181*
X00421Y01181*
X00422Y01181*
X00422Y01181*
X00422Y0118*
X00423Y0118*
X00423Y01179*
X00424Y01179*
X00424Y01178*
X00424Y01178*
X00425Y01178*
X00425Y01178*
X00425Y01178*
X00426Y01177*
X00427Y01177*
X00427Y01177*
X00428Y01177*
X00428*
X00429Y01177*
X00429Y01177*
X0043Y01177*
X00431Y01178*
X00432Y01178*
X00433Y01179*
X00433Y01179*
X00433Y01179*
Y01179*
X00433Y01179*
X00434Y0118*
X00434Y0118*
X00434Y01181*
X00435Y01182*
X00435Y01183*
X00435Y01184*
X00436Y01186*
Y01186*
Y01186*
Y01186*
X00435Y01187*
Y01187*
X00435Y01187*
X00435Y01188*
X00435Y01189*
X00435Y0119*
X00434Y01191*
X00433Y01192*
X00433Y01192*
X00433Y01193*
X00433Y01193*
X00432Y01193*
X00431Y01194*
X0043Y01194*
X00429Y01194*
X00428Y01194*
G37*
G36*
X00392Y01208D02*
X00391D01*
X00391Y01208*
X0039Y01208*
X0039Y01208*
X00389Y01208*
X00389Y01208*
X00388Y01208*
X00387Y01207*
X00386Y01207*
X00386Y01207*
X00385Y01206*
X00384Y01206*
X00383Y01205*
X00382Y01204*
X00382Y01204*
X00382Y01204*
X00382Y01204*
X00382Y01204*
X00382Y01203*
X00381Y01203*
X00381Y01202*
X00381Y01202*
X0038Y01201*
X0038Y012*
X0038Y01199*
X00379Y01198*
X00379Y01197*
X00379Y01196*
X00379Y01194*
X00379Y01193*
Y01193*
Y01193*
Y01192*
X00379Y01192*
X00379Y01191*
X00379Y0119*
X00379Y01189*
X00379Y01189*
X0038Y01187*
X0038Y01186*
X0038Y01185*
X00381Y01184*
X00381Y01183*
X00382Y01182*
X00382Y01181*
X00382Y01181*
X00383Y01181*
X00383Y01181*
X00383Y01181*
X00383Y0118*
X00384Y0118*
X00384Y0118*
X00385Y01179*
X00386Y01179*
X00386Y01179*
X00387Y01178*
X00388Y01178*
X00389Y01178*
X0039Y01178*
X00391Y01177*
X00392Y01177*
X00392*
X00393Y01177*
X00394Y01177*
X00394Y01178*
X00395Y01178*
X00396Y01178*
X00397Y01178*
X00397Y01178*
X00397Y01179*
X00396Y01179*
X00396Y01179*
X00395Y0118*
X00394Y0118*
X00393Y0118*
X00392Y01181*
X00393Y01184*
X00393*
X00394Y01184*
X00394Y01184*
X00394Y01184*
X00394Y01184*
X00395Y01184*
X00396Y01183*
X00397Y01183*
X00398Y01182*
X00399Y01181*
X00401Y01181*
X00401Y01181*
X00401Y01181*
X00401Y01181*
X00401Y01181*
X00402Y01182*
X00402Y01182*
X00402Y01183*
X00403Y01184*
X00403Y01184*
X00404Y01185*
X00404Y01186*
X00404Y01187*
X00405Y01189*
X00405Y0119*
X00405Y01191*
X00405Y01193*
Y01193*
Y01193*
Y01193*
Y01194*
X00405Y01194*
Y01195*
X00405Y01195*
X00405Y01196*
X00405Y01197*
X00404Y01198*
X00404Y012*
X00403Y01201*
Y01201*
X00403Y01201*
X00403Y01201*
X00403Y01202*
X00403Y01202*
X00402Y01203*
X00402Y01204*
X00401Y01205*
X004Y01206*
X00399Y01206*
X00399*
X00399Y01207*
X00398Y01207*
X00398Y01207*
X00398Y01207*
X00398Y01207*
X00397Y01207*
X00396Y01208*
X00395Y01208*
X00393Y01208*
X00392Y01208*
G37*
G36*
X00431Y017D02*
X00431D01*
X0043Y01699*
X0043Y01699*
X00429Y01699*
X00429Y01699*
X00428Y01699*
X00427Y01699*
X00426Y01699*
X00426Y01698*
X00425Y01698*
X00424Y01697*
X00423Y01697*
X00423Y01696*
X00422Y01696*
X00422Y01696*
X00422Y01695*
X00421Y01695*
X00421Y01695*
X00421Y01694*
X00421Y01694*
X0042Y01693*
X0042Y01693*
X0042Y01692*
X00419Y01691*
X00419Y0169*
X00419Y01689*
X00418Y01688*
X00418Y01687*
X00418Y01685*
X00418Y01684*
Y01684*
Y01684*
Y01683*
X00418Y01683*
X00418Y01682*
X00418Y01681*
X00418Y01681*
X00419Y0168*
X00419Y01678*
X00419Y01677*
X0042Y01676*
X0042Y01675*
X00421Y01674*
X00421Y01673*
X00422Y01673*
X00422Y01672*
X00422Y01672*
X00422Y01672*
X00422Y01672*
X00423Y01672*
X00423Y01671*
X00424Y01671*
X00424Y01671*
X00425Y0167*
X00426Y0167*
X00426Y01669*
X00427Y01669*
X00428Y01669*
X00429Y01669*
X0043Y01669*
X00431Y01669*
X00432*
X00432Y01669*
X00433Y01669*
X00434Y01669*
X00435Y01669*
X00436Y01669*
X00436Y0167*
X00436Y0167*
X00436Y0167*
X00436Y0167*
X00435Y0167*
X00434Y01671*
X00433Y01671*
X00432Y01671*
X00431Y01672*
X00433Y01675*
X00433*
X00433Y01675*
X00433Y01675*
X00433Y01675*
X00434Y01675*
X00434Y01675*
X00435Y01675*
X00436Y01674*
X00438Y01673*
X00439Y01673*
X0044Y01672*
X0044Y01672*
X0044Y01672*
X0044Y01672*
X00441Y01673*
X00441Y01673*
X00441Y01673*
X00442Y01674*
X00442Y01675*
X00443Y01676*
X00443Y01677*
X00443Y01678*
X00444Y01679*
X00444Y0168*
X00444Y01681*
X00444Y01683*
X00444Y01684*
Y01684*
Y01684*
Y01684*
Y01685*
X00444Y01685*
Y01686*
X00444Y01686*
X00444Y01687*
X00444Y01688*
X00444Y01689*
X00443Y01691*
X00443Y01692*
Y01692*
X00443Y01692*
X00443Y01692*
X00443Y01693*
X00442Y01693*
X00442Y01694*
X00441Y01695*
X0044Y01696*
X00439Y01697*
X00438Y01698*
X00438*
X00438Y01698*
X00438Y01698*
X00438Y01698*
X00437Y01698*
X00437Y01698*
X00436Y01699*
X00435Y01699*
X00434Y01699*
X00433Y01699*
X00431Y017*
G37*
G36*
X0055Y02218D02*
X00538Y02201D01*
X0055*
Y02218*
G37*
G36*
X00512Y02222D02*
X00511D01*
X00511Y02222*
X00511Y02222*
X0051Y02222*
X00509Y02222*
X00509Y02222*
X00508Y02221*
X00507Y02221*
X00506Y02221*
X00506Y02221*
X00505Y0222*
X00504Y0222*
X00503Y02219*
X00503Y02218*
X00502Y02218*
X00502Y02218*
X00502Y02218*
X00502Y02218*
X00502Y02217*
X00501Y02217*
X00501Y02216*
X00501Y02215*
X005Y02215*
X005Y02214*
X005Y02213*
X00499Y02212*
X00499Y02211*
X00499Y02209*
X00499Y02208*
X00499Y02207*
Y02207*
Y02206*
Y02206*
X00499Y02205*
X00499Y02205*
X00499Y02204*
X00499Y02203*
X00499Y02202*
X005Y02201*
X005Y022*
X005Y02199*
X00501Y02198*
X00501Y02197*
X00502Y02196*
X00502Y02195*
X00503Y02195*
X00503Y02195*
X00503Y02195*
X00503Y02195*
X00504Y02194*
X00504Y02194*
X00504Y02194*
X00505Y02193*
X00506Y02193*
X00506Y02192*
X00507Y02192*
X00508Y02192*
X00509Y02192*
X0051Y02191*
X00511Y02191*
X00512Y02191*
X00512*
X00513Y02191*
X00514Y02191*
X00514Y02191*
X00515Y02192*
X00516Y02192*
X00517Y02192*
X00517Y02192*
X00517Y02192*
X00516Y02193*
X00516Y02193*
X00515Y02193*
X00514Y02194*
X00513Y02194*
X00512Y02194*
X00513Y02198*
X00513*
X00514Y02198*
X00514Y02198*
X00514Y02198*
X00514Y02198*
X00515Y02198*
X00516Y02197*
X00517Y02197*
X00518Y02196*
X00519Y02195*
X00521Y02194*
X00521Y02194*
X00521Y02195*
X00521Y02195*
X00521Y02195*
X00522Y02196*
X00522Y02196*
X00522Y02197*
X00523Y02197*
X00523Y02198*
X00524Y02199*
X00524Y022*
X00524Y02201*
X00525Y02202*
X00525Y02204*
X00525Y02205*
X00525Y02207*
Y02207*
Y02207*
Y02207*
Y02207*
X00525Y02208*
Y02208*
X00525Y02209*
X00525Y02209*
X00525Y02211*
X00524Y02212*
X00524Y02213*
X00524Y02215*
Y02215*
X00523Y02215*
X00523Y02215*
X00523Y02215*
X00523Y02216*
X00522Y02217*
X00522Y02218*
X00521Y02219*
X0052Y02219*
X00519Y0222*
X00519*
X00519Y0222*
X00519Y0222*
X00518Y02221*
X00518Y02221*
X00518Y02221*
X00517Y02221*
X00516Y02222*
X00515Y02222*
X00513Y02222*
X00512Y02222*
G37*
G36*
X01022Y01137D02*
X01021D01*
X01021Y01136*
X0102Y01136*
X0102Y01136*
X01019Y01136*
X01019Y01136*
X01018Y01136*
X01017Y01136*
X01016Y01135*
X01015Y01135*
X01015Y01134*
X01014Y01134*
X01013Y01133*
X01012Y01133*
X01012Y01133*
X01012Y01132*
X01012Y01132*
X01012Y01132*
X01011Y01132*
X01011Y01131*
X01011Y0113*
X01011Y0113*
X0101Y01129*
X0101Y01128*
X0101Y01127*
X01009Y01126*
X01009Y01125*
X01009Y01124*
X01009Y01122*
X01009Y01121*
Y01121*
Y01121*
Y0112*
X01009Y0112*
X01009Y01119*
X01009Y01118*
X01009Y01118*
X01009Y01117*
X0101Y01115*
X0101Y01114*
X0101Y01113*
X01011Y01112*
X01011Y01111*
X01012Y0111*
X01012Y0111*
X01012Y01109*
X01012Y01109*
X01013Y01109*
X01013Y01109*
X01013Y01109*
X01014Y01108*
X01014Y01108*
X01015Y01108*
X01016Y01107*
X01016Y01107*
X01017Y01106*
X01018Y01106*
X01019Y01106*
X0102Y01106*
X01021Y01106*
X01022Y01106*
X01022*
X01023Y01106*
X01023Y01106*
X01024Y01106*
X01025Y01106*
X01026Y01106*
X01027Y01107*
X01027Y01107*
X01027Y01107*
X01026Y01107*
X01025Y01107*
X01025Y01108*
X01024Y01108*
X01023Y01108*
X01022Y01109*
X01023Y01112*
X01023*
X01023Y01112*
X01024Y01112*
X01024Y01112*
X01024Y01112*
X01025Y01112*
X01026Y01112*
X01027Y01111*
X01028Y0111*
X01029Y0111*
X0103Y01109*
X01031Y01109*
X01031Y01109*
X01031Y01109*
X01031Y0111*
X01032Y0111*
X01032Y0111*
X01032Y01111*
X01033Y01112*
X01033Y01113*
X01034Y01114*
X01034Y01115*
X01034Y01116*
X01035Y01117*
X01035Y01118*
X01035Y0112*
X01035Y01121*
Y01121*
Y01121*
Y01121*
Y01122*
X01035Y01122*
Y01123*
X01035Y01123*
X01035Y01124*
X01035Y01125*
X01034Y01126*
X01034Y01128*
X01033Y01129*
Y01129*
X01033Y01129*
X01033Y0113*
X01033Y0113*
X01033Y0113*
X01032Y01131*
X01032Y01132*
X01031Y01133*
X0103Y01134*
X01029Y01135*
X01029*
X01029Y01135*
X01028Y01135*
X01028Y01135*
X01028Y01135*
X01028Y01135*
X01027Y01136*
X01026Y01136*
X01025Y01136*
X01023Y01136*
X01022Y01137*
G37*
G36*
X01041Y01491D02*
X01041D01*
X01041Y01491*
X0104Y01491*
X01039Y01491*
X01039Y01491*
X01038Y0149*
X01037Y0149*
X01037Y0149*
X01036Y0149*
X01035Y01489*
X01034Y01489*
X01034Y01488*
X01033Y01488*
X01032Y01487*
X01032Y01487*
X01032Y01487*
X01032Y01487*
X01032Y01486*
X01031Y01486*
X01031Y01485*
X01031Y01485*
X0103Y01484*
X0103Y01483*
X0103Y01482*
X01029Y01481*
X01029Y0148*
X01029Y01479*
X01029Y01478*
X01028Y01477*
X01028Y01475*
Y01475*
Y01475*
Y01475*
X01028Y01474*
X01028Y01474*
X01029Y01473*
X01029Y01472*
X01029Y01471*
X01029Y01469*
X0103Y01468*
X0103Y01467*
X0103Y01466*
X01031Y01466*
X01031Y01465*
X01032Y01464*
X01032Y01464*
X01032Y01464*
X01032Y01463*
X01033Y01463*
X01033Y01463*
X01034Y01463*
X01034Y01462*
X01035Y01462*
X01035Y01461*
X01036Y01461*
X01037Y01461*
X01038Y0146*
X01039Y0146*
X01039Y0146*
X0104Y0146*
X01041Y0146*
X01042*
X01042Y0146*
X01043Y0146*
X01044Y0146*
X01045Y0146*
X01046Y01461*
X01047Y01461*
X01047Y01461*
X01046Y01461*
X01046Y01461*
X01045Y01462*
X01044Y01462*
X01044Y01462*
X01043Y01463*
X01042Y01463*
X01043Y01467*
X01043*
X01043Y01467*
X01043Y01467*
X01044Y01467*
X01044Y01466*
X01044Y01466*
X01045Y01466*
X01047Y01465*
X01048Y01465*
X01049Y01464*
X0105Y01463*
X0105Y01463*
X0105Y01463*
X01051Y01464*
X01051Y01464*
X01051Y01464*
X01052Y01465*
X01052Y01465*
X01052Y01466*
X01053Y01467*
X01053Y01468*
X01054Y01469*
X01054Y0147*
X01054Y01471*
X01054Y01472*
X01055Y01474*
X01055Y01475*
Y01475*
Y01476*
Y01476*
Y01476*
X01055Y01477*
Y01477*
X01055Y01478*
X01054Y01478*
X01054Y01479*
X01054Y01481*
X01054Y01482*
X01053Y01484*
Y01484*
X01053Y01484*
X01053Y01484*
X01053Y01484*
X01052Y01485*
X01052Y01486*
X01051Y01486*
X0105Y01487*
X01049Y01488*
X01048Y01489*
X01048*
X01048Y01489*
X01048Y01489*
X01048Y01489*
X01048Y01489*
X01047Y0149*
X01046Y0149*
X01045Y0149*
X01044Y01491*
X01043Y01491*
X01041Y01491*
G37*
G36*
Y022D02*
X01041D01*
X01041Y02199*
X0104Y02199*
X01039Y02199*
X01039Y02199*
X01038Y02199*
X01037Y02199*
X01037Y02199*
X01036Y02198*
X01035Y02198*
X01034Y02197*
X01034Y02197*
X01033Y02196*
X01032Y02196*
X01032Y02196*
X01032Y02195*
X01032Y02195*
X01032Y02195*
X01031Y02194*
X01031Y02194*
X01031Y02193*
X0103Y02193*
X0103Y02192*
X0103Y02191*
X01029Y0219*
X01029Y02189*
X01029Y02188*
X01029Y02187*
X01028Y02185*
X01028Y02184*
Y02184*
Y02184*
Y02183*
X01028Y02183*
X01028Y02182*
X01029Y02181*
X01029Y02181*
X01029Y0218*
X01029Y02178*
X0103Y02177*
X0103Y02176*
X0103Y02175*
X01031Y02174*
X01031Y02173*
X01032Y02173*
X01032Y02172*
X01032Y02172*
X01032Y02172*
X01033Y02172*
X01033Y02172*
X01034Y02171*
X01034Y02171*
X01035Y02171*
X01035Y0217*
X01036Y0217*
X01037Y02169*
X01038Y02169*
X01039Y02169*
X01039Y02169*
X0104Y02169*
X01041Y02169*
X01042*
X01042Y02169*
X01043Y02169*
X01044Y02169*
X01045Y02169*
X01046Y02169*
X01047Y0217*
X01047Y0217*
X01046Y0217*
X01046Y0217*
X01045Y0217*
X01044Y02171*
X01044Y02171*
X01043Y02171*
X01042Y02172*
X01043Y02175*
X01043*
X01043Y02175*
X01043Y02175*
X01044Y02175*
X01044Y02175*
X01044Y02175*
X01045Y02175*
X01047Y02174*
X01048Y02173*
X01049Y02173*
X0105Y02172*
X0105Y02172*
X0105Y02172*
X01051Y02172*
X01051Y02173*
X01051Y02173*
X01052Y02173*
X01052Y02174*
X01052Y02175*
X01053Y02176*
X01053Y02177*
X01054Y02178*
X01054Y02179*
X01054Y0218*
X01054Y02181*
X01055Y02183*
X01055Y02184*
Y02184*
Y02184*
Y02184*
Y02185*
X01055Y02185*
Y02186*
X01055Y02186*
X01054Y02187*
X01054Y02188*
X01054Y02189*
X01054Y02191*
X01053Y02192*
Y02192*
X01053Y02192*
X01053Y02192*
X01053Y02193*
X01052Y02193*
X01052Y02194*
X01051Y02195*
X0105Y02196*
X01049Y02197*
X01048Y02198*
X01048*
X01048Y02198*
X01048Y02198*
X01048Y02198*
X01048Y02198*
X01047Y02198*
X01046Y02199*
X01045Y02199*
X01044Y02199*
X01043Y02199*
X01041Y022*
G37*
G36*
X01183Y00478D02*
X01183D01*
X01182Y00478*
X01182Y00478*
X01181Y00478*
X0118Y00478*
X01179Y00477*
X01179Y00477*
X01178Y00476*
X01178Y00476*
X01178Y00475*
Y00475*
X01177Y00475*
X01177Y00475*
X01177Y00475*
X01177Y00474*
X01177Y00474*
X01177Y00473*
X01176Y00472*
X01176Y00472*
X01176Y00471*
X01176Y0047*
X01176Y00468*
X01175Y00467*
X01175Y00466*
X01175Y00464*
X01175Y00462*
Y00462*
Y00462*
Y00462*
X01175Y00461*
Y0046*
X01175Y00459*
X01175Y00458*
X01175Y00457*
X01176Y00455*
X01176Y00454*
X01176Y00453*
X01176Y00452*
X01177Y00451*
X01177Y0045*
X01177Y0045*
Y0045*
X01178Y0045*
X01178Y00449*
X01178Y00449*
X01179Y00448*
X0118Y00448*
X01181Y00447*
X01182Y00447*
X01182Y00447*
X01183Y00447*
X01183*
X01183Y00447*
X01184Y00447*
X01185Y00447*
X01186Y00447*
X01187Y00448*
X01187Y00448*
X01187Y00449*
X01188Y00449*
X01188Y0045*
Y0045*
X01188Y0045*
X01189Y0045*
X01189Y0045*
X01189Y00451*
X01189Y00451*
X01189Y00452*
X0119Y00453*
X0119Y00453*
X0119Y00454*
X0119Y00455*
X0119Y00456*
X0119Y00458*
X01191Y00459*
X01191Y00461*
Y00462*
Y00462*
Y00463*
Y00463*
Y00463*
X01191Y00464*
Y00465*
X01191Y00466*
X0119Y00467*
X0119Y00468*
X0119Y0047*
X0119Y00471*
X0119Y00472*
X01189Y00473*
X01189Y00474*
X01189Y00474*
X01188Y00475*
Y00475*
X01188Y00475*
X01188Y00475*
X01188Y00476*
X01188Y00476*
X01187Y00477*
X01186Y00477*
X01185Y00478*
X01185Y00478*
X01184Y00478*
X01183Y00478*
X01183Y00478*
G37*
G36*
X01253Y00826D02*
X01253D01*
X01253*
X01253*
X01253Y00825*
X01252*
X01252Y00825*
X01251Y00825*
X0125Y00825*
X01249Y00825*
X01248Y00824*
X01247Y00823*
X01247*
X01247Y00823*
X01246Y00823*
X01246Y00823*
X01246Y00822*
X01245Y00821*
X01245Y0082*
X01244Y00819*
X01244Y00819*
Y00818*
X01244Y00818*
X01244Y00817*
X01245Y00816*
X01245Y00815*
X01245Y00814*
X01246Y00814*
X01247Y00813*
X01247Y00813*
X01247*
X01247Y00813*
X01247Y00812*
X01247Y00812*
X01248Y00812*
X01249Y00812*
X0125Y00811*
X01251Y00811*
X01252Y0081*
X01254Y0081*
X01254*
X01254*
X01254*
X01254Y0081*
X01255*
X01255Y0081*
X01256Y00811*
X01257Y00811*
X01258Y00811*
X01259Y00812*
X0126Y00813*
X0126Y00813*
X0126Y00813*
X0126Y00813*
X01261Y00814*
X01261Y00815*
X01261Y00816*
X01262Y00817*
X01262Y00818*
Y00818*
X01262Y00819*
X01262Y00819*
X01262Y0082*
X01261Y00821*
X01261Y00822*
X0126Y00823*
X0126Y00823*
X01259Y00823*
X01259Y00824*
X01259Y00824*
X01258Y00824*
X01257Y00825*
X01256Y00825*
X01255Y00825*
X01253Y00826*
G37*
G36*
X01054Y00706D02*
X01054D01*
X01054*
X01053*
X01053Y00706*
X01052Y00706*
X01051Y00706*
X01051Y00705*
X0105Y00705*
X01049Y00704*
X01049Y00704*
X01049Y00704*
X01049Y00704*
X01048Y00703*
X01048Y00703*
X01048Y00702*
X01048Y00701*
X01047Y007*
Y007*
X01048Y00699*
X01048Y00698*
X01048Y00698*
X01048Y00697*
X01049Y00696*
X01049Y00695*
X01049Y00695*
X0105Y00695*
X0105Y00695*
X0105Y00695*
X01051Y00694*
X01052Y00694*
X01053Y00694*
X01053Y00694*
X01053*
X01054*
X01054Y00694*
X01054Y00694*
X01055Y00694*
X01056Y00694*
X01056Y00694*
X01057Y00695*
X01058Y00695*
X01058Y00696*
X01058Y00696*
X01058Y00696*
X01059Y00697*
X01059Y00697*
X01059Y00698*
X0106Y00699*
X0106Y007*
Y007*
X0106Y007*
X01059Y00701*
X01059Y00702*
X01059Y00702*
X01059Y00703*
X01058Y00704*
X01058Y00704*
X01058Y00705*
X01058Y00705*
X01057Y00705*
X01057Y00705*
X01056Y00706*
X01055Y00706*
X01055Y00706*
X01054Y00706*
G37*
G36*
X01071Y00708D02*
X01071D01*
X01071*
X01071*
X01071Y00708*
X0107Y00708*
X01069Y00708*
X01068Y00707*
X01068Y00707*
X01067Y00706*
X01066Y00706*
X01066Y00705*
X01065Y00705*
X01065Y00705*
X01065Y00704*
X01064Y00703*
X01064Y00702*
X01064Y00701*
X01063Y007*
Y007*
X01063Y00699*
X01064Y00699*
X01064Y00698*
X01064Y00697*
X01064Y00696*
X01065Y00695*
X01066Y00694*
X01066Y00694*
X01066Y00694*
X01067Y00694*
X01067Y00693*
X01068Y00693*
X01069Y00693*
X0107Y00692*
X01071Y00692*
X01071*
X01071*
X01072Y00692*
X01072Y00692*
X01073Y00692*
X01074Y00693*
X01074Y00693*
X01075Y00693*
X01075Y00693*
X01075Y00693*
X01076Y00693*
X01076Y00694*
X01077Y00694*
X01077Y00695*
X01078Y00695*
X01078Y00696*
X01078Y00696*
X01078Y00696*
X01078Y00697*
X01078Y00697*
X01079Y00698*
X01079Y00698*
X01079Y00699*
X01079Y007*
Y007*
X01079Y00701*
X01079Y00701*
X01079Y00702*
X01078Y00703*
X01078Y00704*
X01078Y00705*
X01077Y00706*
X01077Y00706*
X01076Y00706*
X01076Y00706*
X01075Y00707*
X01075Y00707*
X01074Y00707*
X01072Y00708*
X01071Y00708*
G37*
G36*
X007Y01146D02*
X007D01*
X007Y01146*
X00699Y01146*
X00698Y01146*
X00698Y01146*
X00697Y01145*
X00696Y01145*
X00695Y01144*
X00695Y01144*
X00695Y01144*
X00694Y01143*
X00694Y01142*
X00693Y01141*
X00693Y0114*
X00693Y01139*
X00693Y01138*
Y01138*
Y01138*
X00693Y01137*
X00693Y01136*
X00693Y01136*
X00693Y01135*
X00693Y01134*
X00694Y01133*
X00694Y01133*
X00694Y01133*
X00694Y01132*
X00694Y01132*
X00695Y01131*
X00695Y01131*
X00696Y0113*
X00697Y0113*
X00697Y0113*
X00697Y0113*
X00697Y01129*
X00698Y01129*
X00698Y01129*
X00699Y01129*
X007Y01129*
X007Y01129*
X00701*
X00701Y01129*
X00702Y01129*
X00702Y01129*
X00703Y01129*
X00704Y0113*
X00705Y0113*
X00705Y01131*
X00706Y01131*
Y01131*
X00706Y01131*
X00706Y01132*
X00706Y01132*
X00707Y01133*
X00707Y01134*
X00707Y01135*
X00708Y01136*
X00708Y01138*
Y01138*
Y01138*
Y01138*
X00708Y01138*
Y01139*
X00708Y01139*
X00707Y0114*
X00707Y01141*
X00707Y01142*
X00706Y01143*
X00706Y01144*
X00705Y01144*
X00705Y01144*
X00705Y01145*
X00704Y01145*
X00703Y01146*
X00703Y01146*
X00701Y01146*
X007Y01146*
G37*
G36*
X00762Y01743D02*
X00749Y01726D01*
X00762*
Y01743*
G37*
%LNpcb1-3*%
%LPD*%
G54D10*
X01191Y00805D02*
D01*
X01191Y00805*
X01191Y00805*
X01191Y00806*
X01191Y00806*
X01191Y00806*
X01191Y00807*
X01191Y00807*
X01191Y00807*
X0119Y00808*
X0119Y00808*
X0119Y00808*
X0119Y00808*
X0119Y00808*
X01189Y00809*
X01189Y00809*
X01189Y00809*
X01188Y00809*
X01188Y00809*
X01188Y00809*
X01187Y00809*
X01187Y0081*
X01187Y0081*
X01186*
X01186Y0081*
X01186Y00809*
X01185Y00809*
X01185Y00809*
X01185Y00809*
X01184Y00809*
X01184Y00809*
X01184Y00809*
X01183Y00808*
X01183Y00808*
X01183Y00808*
X01183Y00808*
X01183Y00808*
X01182Y00807*
X01182Y00807*
X01182Y00807*
X01182Y00806*
X01182Y00806*
X01182Y00806*
X01182Y00805*
X01182Y00805*
X01182Y00805*
X01182Y00804*
X01182Y00804*
X01182Y00804*
X01182Y00803*
X01182Y00803*
X01182Y00803*
X01182Y00802*
X01182Y00802*
X01183Y00802*
X01183Y00801*
X01183Y00801*
X01183Y00801*
X01183Y00801*
X01184Y00801*
X01184Y008*
X01184Y008*
X01185Y008*
X01185Y008*
X01185Y008*
X01186Y008*
X01186Y008*
X01186Y008*
X01187*
X01187Y008*
X01187Y008*
X01188Y008*
X01188Y008*
X01188Y008*
X01189Y008*
X01189Y008*
X01189Y00801*
X0119Y00801*
X0119Y00801*
X0119Y00801*
X0119Y00801*
X0119Y00802*
X01191Y00802*
X01191Y00802*
X01191Y00803*
X01191Y00803*
X01191Y00803*
X01191Y00804*
X01191Y00804*
X01191Y00804*
X01191Y00805*
G54D11*
X01003Y02015D02*
D01*
X01004Y02015*
X01004Y02015*
X01004Y02015*
X01005Y02015*
X01005Y02015*
X01005Y02016*
X01005Y02016*
X01006Y02016*
X01006Y02016*
X01006Y02016*
X01006Y02016*
X01006Y02017*
X01007Y02017*
X01007Y02017*
X01007Y02017*
X01007Y02017*
X01007Y02018*
X01007Y02018*
X01007Y02018*
X01007Y02019*
X01007Y02019*
X01007Y02019*
Y02019*
X01007Y0202*
X01007Y0202*
X01007Y0202*
X01007Y0202*
X01007Y02021*
X01007Y02021*
X01007Y02021*
X01007Y02021*
X01007Y02022*
X01006Y02022*
X01006Y02022*
X01006Y02022*
X01006Y02022*
X01006Y02023*
X01005Y02023*
X01005Y02023*
X01005Y02023*
X01005Y02023*
X01004Y02023*
X01004Y02023*
X01004Y02023*
X01003*
D01*
X01003Y02023*
X01003Y02023*
X01003Y02023*
X01002Y02023*
X01002Y02023*
X01002Y02023*
X01002Y02023*
X01001Y02023*
X01001Y02022*
X01001Y02022*
X01001Y02022*
X01001Y02022*
X01Y02022*
X01Y02021*
X01Y02021*
X01Y02021*
X01Y02021*
X01Y0202*
X01Y0202*
X01Y0202*
X01Y0202*
X01Y02019*
Y02019*
X01Y02019*
X01Y02018*
X01Y02018*
X01Y02018*
X01Y02018*
X01Y02017*
X01Y02017*
X01Y02017*
X01Y02017*
X01001Y02017*
X01001Y02016*
X01001Y02016*
X01001Y02016*
X01001Y02016*
X01002Y02016*
X01002Y02016*
X01002Y02015*
X01002Y02015*
X01003Y02015*
X01003Y02015*
X01003Y02015*
X01003Y02015*
Y01543D02*
D01*
X01004Y01543*
X01004Y01543*
X01004Y01543*
X01005Y01543*
X01005Y01543*
X01005Y01543*
X01005Y01543*
X01006Y01543*
X01006Y01544*
X01006Y01544*
X01006Y01544*
X01006Y01544*
X01007Y01544*
X01007Y01545*
X01007Y01545*
X01007Y01545*
X01007Y01545*
X01007Y01546*
X01007Y01546*
X01007Y01546*
X01007Y01546*
X01007Y01547*
Y01547*
X01007Y01547*
X01007Y01547*
X01007Y01548*
X01007Y01548*
X01007Y01548*
X01007Y01548*
X01007Y01549*
X01007Y01549*
X01007Y01549*
X01006Y01549*
X01006Y0155*
X01006Y0155*
X01006Y0155*
X01006Y0155*
X01005Y0155*
X01005Y0155*
X01005Y0155*
X01005Y01551*
X01004Y01551*
X01004Y01551*
X01004Y01551*
X01003*
D01*
X01003Y01551*
X01003Y01551*
X01003Y01551*
X01002Y01551*
X01002Y0155*
X01002Y0155*
X01002Y0155*
X01001Y0155*
X01001Y0155*
X01001Y0155*
X01001Y0155*
X01001Y01549*
X01Y01549*
X01Y01549*
X01Y01549*
X01Y01548*
X01Y01548*
X01Y01548*
X01Y01548*
X01Y01547*
X01Y01547*
X01Y01547*
Y01547*
X01Y01546*
X01Y01546*
X01Y01546*
X01Y01546*
X01Y01545*
X01Y01545*
X01Y01545*
X01Y01545*
X01Y01544*
X01001Y01544*
X01001Y01544*
X01001Y01544*
X01001Y01544*
X01001Y01543*
X01002Y01543*
X01002Y01543*
X01002Y01543*
X01002Y01543*
X01003Y01543*
X01003Y01543*
X01003Y01543*
X01003Y01543*
Y0107D02*
D01*
X01004Y0107*
X01004Y0107*
X01004Y0107*
X01005Y01071*
X01005Y01071*
X01005Y01071*
X01005Y01071*
X01006Y01071*
X01006Y01071*
X01006Y01071*
X01006Y01071*
X01006Y01072*
X01007Y01072*
X01007Y01072*
X01007Y01072*
X01007Y01073*
X01007Y01073*
X01007Y01073*
X01007Y01073*
X01007Y01074*
X01007Y01074*
X01007Y01074*
Y01074*
X01007Y01075*
X01007Y01075*
X01007Y01075*
X01007Y01076*
X01007Y01076*
X01007Y01076*
X01007Y01076*
X01007Y01077*
X01007Y01077*
X01006Y01077*
X01006Y01077*
X01006Y01077*
X01006Y01077*
X01006Y01078*
X01005Y01078*
X01005Y01078*
X01005Y01078*
X01005Y01078*
X01004Y01078*
X01004Y01078*
X01004Y01078*
X01003*
D01*
X01003Y01078*
X01003Y01078*
X01003Y01078*
X01002Y01078*
X01002Y01078*
X01002Y01078*
X01002Y01078*
X01001Y01078*
X01001Y01077*
X01001Y01077*
X01001Y01077*
X01001Y01077*
X01Y01077*
X01Y01077*
X01Y01076*
X01Y01076*
X01Y01076*
X01Y01076*
X01Y01075*
X01Y01075*
X01Y01075*
X01Y01074*
Y01074*
X01Y01074*
X01Y01074*
X01Y01073*
X01Y01073*
X01Y01073*
X01Y01073*
X01Y01072*
X01Y01072*
X01Y01072*
X01001Y01072*
X01001Y01071*
X01001Y01071*
X01001Y01071*
X01001Y01071*
X01002Y01071*
X01002Y01071*
X01002Y01071*
X01002Y01071*
X01003Y0107*
X01003Y0107*
X01003Y0107*
X01003Y0107*
X00446Y02148D02*
D01*
X00446Y02148*
X00446Y02149*
X00446Y02149*
X00446Y02149*
X00446Y02149*
X00446Y0215*
X00446Y0215*
X00446Y0215*
X00446Y0215*
X00445Y02151*
X00445Y02151*
X00445Y02151*
X00445Y02151*
X00445Y02151*
X00444Y02152*
X00444Y02152*
X00444Y02152*
X00444Y02152*
X00443Y02152*
X00443Y02152*
X00443Y02152*
X00443Y02152*
X00442*
X00442Y02152*
X00442Y02152*
X00441Y02152*
X00441Y02152*
X00441Y02152*
X00441Y02152*
X0044Y02152*
X0044Y02151*
X0044Y02151*
X0044Y02151*
X0044Y02151*
X00439Y02151*
X00439Y0215*
X00439Y0215*
X00439Y0215*
X00439Y0215*
X00439Y02149*
X00439Y02149*
X00439Y02149*
X00439Y02149*
X00438Y02148*
X00438Y02148*
D01*
X00438Y02148*
X00439Y02148*
X00439Y02147*
X00439Y02147*
X00439Y02147*
X00439Y02147*
X00439Y02146*
X00439Y02146*
X00439Y02146*
X00439Y02146*
X0044Y02145*
X0044Y02145*
X0044Y02145*
X0044Y02145*
X0044Y02145*
X00441Y02145*
X00441Y02144*
X00441Y02144*
X00441Y02144*
X00442Y02144*
X00442Y02144*
X00442Y02144*
X00443*
X00443Y02144*
X00443Y02144*
X00443Y02144*
X00444Y02144*
X00444Y02144*
X00444Y02145*
X00444Y02145*
X00445Y02145*
X00445Y02145*
X00445Y02145*
X00445Y02145*
X00445Y02146*
X00446Y02146*
X00446Y02146*
X00446Y02146*
X00446Y02147*
X00446Y02147*
X00446Y02147*
X00446Y02147*
X00446Y02148*
X00446Y02148*
Y02148*
X00444Y01645D02*
D01*
X00444Y01645*
X00444Y01646*
X00444Y01646*
X00444Y01646*
X00444Y01647*
X00444Y01647*
X00444Y01647*
X00444Y01647*
X00444Y01647*
X00443Y01648*
X00443Y01648*
X00443Y01648*
X00443Y01648*
X00443Y01648*
X00442Y01649*
X00442Y01649*
X00442Y01649*
X00442Y01649*
X00441Y01649*
X00441Y01649*
X00441Y01649*
X00441Y01649*
X0044*
X0044Y01649*
X0044Y01649*
X00439Y01649*
X00439Y01649*
X00439Y01649*
X00439Y01649*
X00438Y01649*
X00438Y01648*
X00438Y01648*
X00438Y01648*
X00438Y01648*
X00437Y01648*
X00437Y01647*
X00437Y01647*
X00437Y01647*
X00437Y01647*
X00437Y01647*
X00437Y01646*
X00437Y01646*
X00437Y01646*
X00437Y01645*
X00437Y01645*
D01*
X00437Y01645*
X00437Y01645*
X00437Y01644*
X00437Y01644*
X00437Y01644*
X00437Y01644*
X00437Y01643*
X00437Y01643*
X00437Y01643*
X00437Y01643*
X00438Y01642*
X00438Y01642*
X00438Y01642*
X00438Y01642*
X00438Y01642*
X00439Y01642*
X00439Y01642*
X00439Y01641*
X00439Y01641*
X0044Y01641*
X0044Y01641*
X0044Y01641*
X00441*
X00441Y01641*
X00441Y01641*
X00441Y01641*
X00442Y01641*
X00442Y01642*
X00442Y01642*
X00442Y01642*
X00443Y01642*
X00443Y01642*
X00443Y01642*
X00443Y01642*
X00443Y01643*
X00444Y01643*
X00444Y01643*
X00444Y01643*
X00444Y01644*
X00444Y01644*
X00444Y01644*
X00444Y01644*
X00444Y01645*
X00444Y01645*
Y01645*
Y01154D02*
D01*
X00444Y01154*
X00444Y01155*
X00444Y01155*
X00444Y01155*
X00444Y01155*
X00444Y01156*
X00444Y01156*
X00444Y01156*
X00444Y01156*
X00443Y01157*
X00443Y01157*
X00443Y01157*
X00443Y01157*
X00443Y01157*
X00442Y01157*
X00442Y01158*
X00442Y01158*
X00442Y01158*
X00441Y01158*
X00441Y01158*
X00441Y01158*
X00441Y01158*
X0044*
X0044Y01158*
X0044Y01158*
X00439Y01158*
X00439Y01158*
X00439Y01158*
X00439Y01158*
X00438Y01157*
X00438Y01157*
X00438Y01157*
X00438Y01157*
X00438Y01157*
X00437Y01157*
X00437Y01156*
X00437Y01156*
X00437Y01156*
X00437Y01156*
X00437Y01155*
X00437Y01155*
X00437Y01155*
X00437Y01155*
X00437Y01154*
X00437Y01154*
D01*
X00437Y01154*
X00437Y01153*
X00437Y01153*
X00437Y01153*
X00437Y01153*
X00437Y01152*
X00437Y01152*
X00437Y01152*
X00437Y01152*
X00437Y01151*
X00438Y01151*
X00438Y01151*
X00438Y01151*
X00438Y01151*
X00438Y01151*
X00439Y0115*
X00439Y0115*
X00439Y0115*
X00439Y0115*
X0044Y0115*
X0044Y0115*
X0044Y0115*
X00441*
X00441Y0115*
X00441Y0115*
X00441Y0115*
X00442Y0115*
X00442Y0115*
X00442Y0115*
X00442Y01151*
X00443Y01151*
X00443Y01151*
X00443Y01151*
X00443Y01151*
X00443Y01151*
X00444Y01152*
X00444Y01152*
X00444Y01152*
X00444Y01152*
X00444Y01153*
X00444Y01153*
X00444Y01153*
X00444Y01153*
X00444Y01154*
Y01154*
X01203Y00881D02*
X01219D01*
X01203Y00854D02*
X01219D01*
X01259Y0105D02*
Y01968D01*
X01181Y0105D02*
X01259D01*
X01181D02*
Y0202D01*
X0122*
X00157Y0105D02*
Y01968D01*
X00078Y0105D02*
X00157D01*
X00078D02*
Y0202D01*
X00118*
X00285Y00348D02*
Y00438D01*
X00403*
Y00348D02*
Y00438D01*
X00285Y00348D02*
X00403D01*
X00283Y00277D02*
Y00334D01*
X00629Y00348D02*
Y00438D01*
X00748*
Y00348D02*
Y00438D01*
X00629Y00348D02*
X00748D01*
X00627Y00277D02*
Y00334D01*
X00954Y00348D02*
Y00438D01*
X01072*
Y00348D02*
Y00438D01*
X00954Y00348D02*
X01072D01*
X00952Y00277D02*
Y00334D01*
X0061Y02167D02*
Y02222D01*
Y02255D02*
Y02311D01*
Y01763D02*
Y01818D01*
Y01665D02*
Y0172D01*
X0062Y01261D02*
Y01316D01*
Y01183D02*
Y01238D01*
X00307Y01216D02*
X00322D01*
X00307Y01244D02*
X00322D01*
X00222Y01901D02*
Y01917D01*
X0025Y01901D02*
Y01917D01*
X00307Y01708D02*
X00322D01*
X00307Y01736D02*
X00322D01*
G54D12*
X00708Y01809D02*
Y02167D01*
X00984Y01811D02*
Y02167D01*
X00708Y01336D02*
Y01694D01*
X00984Y01338D02*
Y01694D01*
X00708Y00864D02*
Y01222D01*
X00984Y00866D02*
Y01222D01*
X00295Y01853D02*
X00653D01*
X00295Y02128D02*
X00651D01*
X00293Y0135D02*
X00651D01*
X00293Y01625D02*
X00649D01*
X00293Y00859D02*
X00651D01*
X00293Y01134D02*
X00649D01*
G54D13*
X01042Y00041D02*
Y00021D01*
X01052Y00011*
X01092*
X01102Y00021*
Y00041*
X01092Y00051*
X01052*
X01042Y00041*
Y00071D02*
X01092D01*
X01102Y00081*
Y00101*
X01092Y00111*
X01042*
Y00131D02*
Y00171D01*
Y00151*
X01102*
X01052Y00231D02*
X01042Y00221D01*
Y00201*
X01052Y00191*
X01092*
X01102Y00201*
Y00221*
X01092Y00231*
X00703Y00041D02*
Y00021D01*
X00713Y00011*
X00753*
X00763Y00021*
Y00041*
X00753Y00051*
X00713*
X00703Y00041*
Y00071D02*
X00753D01*
X00763Y00081*
Y00101*
X00753Y00111*
X00703*
Y00131D02*
Y00171D01*
Y00151*
X00763*
X00703Y00191D02*
X00763D01*
Y00221*
X00753Y00231*
X00743*
X00733Y00221*
Y00191*
Y00221*
X00723Y00231*
X00713*
X00703Y00221*
Y00191*
X00361Y00045D02*
Y00025D01*
X00371Y00015*
X00411*
X00421Y00025*
Y00045*
X00411Y00055*
X00371*
X00361Y00045*
Y00075D02*
X00411D01*
X00421Y00085*
Y00105*
X00411Y00115*
X00361*
Y00135D02*
Y00175D01*
Y00155*
X00421*
Y00195D02*
X00381D01*
X00361Y00215*
X00381Y00235*
X00421*
X00391*
Y00195*
X00361Y01282D02*
X00401Y01242D01*
X00361D02*
X00401Y01282D01*
X00361Y01262D02*
X00401D01*
X00381Y01242D02*
Y01282D01*
X00361Y01774D02*
X00401Y01734D01*
X00361D02*
X00401Y01774D01*
X00361Y01754D02*
X00401D01*
X00381Y01734D02*
Y01774D01*
X00488Y017D02*
X00448Y0174D01*
X00488D02*
X00448Y017D01*
X00488Y0172D02*
X00448D01*
X00468Y0174D02*
Y017D01*
X00483Y00511D02*
X00473Y00521D01*
X00453*
X00443Y00511*
Y00471*
X00453Y00461*
X00473*
X00483Y00471*
X00503Y00461D02*
X00523D01*
X00513*
Y00521*
X00503Y00511*
X00593Y00461D02*
X00553D01*
X00593Y00501*
Y00511*
X00583Y00521*
X00563*
X00553Y00511*
X00817D02*
X00807Y00521D01*
X00787*
X00777Y00511*
Y00471*
X00787Y00461*
X00807*
X00817Y00471*
X00837Y00461D02*
X00857D01*
X00847*
Y00521*
X00837Y00511*
X00887Y00461D02*
X00907D01*
X00897*
Y00521*
X00887Y00511*
X01279Y0D02*
Y02362D01*
X00059Y0D02*
X01279D01*
X00059D02*
Y02362D01*
X01279*
M02*