%FSTAX23Y23*%
%MOIN*%
%SFA1B1*%

%IPPOS*%
%ADD11C,0.007870*%
%ADD13C,0.010000*%
%LNpcb1-1*%
%LPD*%
G36*
X00102Y02168D02*
X00103D01*
X00104Y02168*
X00105Y02168*
X00106Y02168*
X00108Y02168*
X00109Y02167*
X00109*
X00109Y02167*
X00109Y02167*
X00109Y02167*
X0011Y02167*
X00111Y02166*
X00112Y02166*
X00113Y02165*
X00113Y02164*
X00114Y02163*
X00114Y02163*
X00115Y02163*
X00115Y02162*
X00115Y02162*
X00116Y02161*
X00116Y0216*
X00117Y02158*
X00117Y02157*
X00113Y02156*
Y02156*
X00112Y02156*
X00112Y02156*
X00112Y02156*
X00112Y02157*
X00112Y02158*
X00112Y02158*
X00111Y02159*
X00111Y0216*
X0011Y0216*
X0011Y02161*
X0011Y02161*
X0011Y02161*
X00109Y02161*
X00109Y02162*
X00108Y02162*
X00108Y02163*
X00107Y02163*
X00107Y02163*
X00106Y02163*
X00106Y02163*
X00105Y02164*
X00104Y02164*
X00103Y02164*
X00102Y02164*
X00101Y02164*
X00101*
X00101Y02164*
X001*
X00099Y02164*
X00098Y02164*
X00097Y02164*
X00096Y02163*
X00095Y02163*
X00095Y02163*
X00095Y02163*
X00095Y02163*
X00094Y02162*
X00093Y02162*
X00093Y02161*
X00092Y02161*
X00091Y0216*
X00091Y0216*
X00091Y0216*
X00091Y0216*
X0009Y02159*
X0009Y02159*
X0009Y02158*
X00089Y02157*
X00089Y02156*
Y02156*
X00089Y02156*
X00089Y02156*
X00089Y02156*
X00089Y02156*
X00088Y02155*
X00088Y02155*
X00088Y02154*
X00088Y02153*
X00088Y02152*
X00087Y0215*
X00087Y02149*
Y02149*
Y02149*
Y02148*
X00087Y02148*
Y02147*
X00088Y02147*
X00088Y02146*
X00088Y02146*
X00088Y02144*
X00088Y02143*
X00089Y02141*
X00089Y0214*
Y0214*
X00089Y0214*
X00089Y0214*
X00089Y0214*
X0009Y02139*
X0009Y02138*
X00091Y02137*
X00092Y02136*
X00093Y02136*
X00094Y02135*
X00094*
X00094Y02135*
X00095Y02135*
X00095Y02135*
X00095Y02135*
X00096Y02134*
X00096Y02134*
X00098Y02134*
X00099Y02134*
X001Y02133*
X00101Y02133*
X00102*
X00102Y02133*
X00103*
X00104Y02133*
X00105Y02134*
X00106Y02134*
X00107Y02134*
X00108Y02135*
X00108*
X00108Y02135*
X00108Y02135*
X00108Y02135*
X00109Y02135*
X0011Y02135*
X0011Y02136*
X00111Y02136*
X00112Y02137*
X00113Y02137*
Y02144*
X00101*
Y02149*
X00118*
Y02135*
X00118Y02135*
X00118Y02135*
X00117Y02134*
X00117Y02134*
X00117Y02134*
X00116Y02134*
X00116Y02133*
X00115Y02133*
X00114Y02132*
X00113Y02132*
X00111Y02131*
X0011Y0213*
X0011*
X0011Y0213*
X0011Y0213*
X00109Y0213*
X00109Y0213*
X00108Y0213*
X00108Y0213*
X00107Y0213*
X00106Y02129*
X00105Y02129*
X00103Y02129*
X00102Y02129*
X00101*
X00101Y02129*
X001*
X001Y02129*
X00099Y02129*
X00098Y02129*
X00097Y02129*
X00095Y0213*
X00093Y0213*
X00092Y02131*
X00092Y02131*
X00091Y02131*
X00091Y02131*
X00091Y02131*
X00091Y02132*
X0009Y02132*
X0009Y02132*
X00089Y02133*
X00088Y02134*
X00087Y02135*
X00086Y02137*
X00085Y02138*
Y02138*
X00084Y02138*
X00084Y02139*
X00084Y02139*
X00084Y02139*
X00084Y0214*
X00084Y0214*
X00083Y02141*
X00083Y02142*
X00083Y02143*
X00083Y02144*
X00083Y02144*
X00082Y02146*
X00082Y02148*
Y02148*
Y02149*
Y02149*
X00082Y02149*
Y0215*
X00082Y0215*
X00082Y02151*
X00082Y02152*
X00083Y02153*
X00083Y02153*
X00083Y02155*
X00084Y02157*
X00085Y02159*
X00085Y02159*
X00085Y02159*
X00085Y02159*
X00085Y0216*
X00085Y0216*
X00085Y02161*
X00086Y02162*
X00087Y02163*
X00088Y02164*
X0009Y02165*
X0009Y02166*
X00091Y02166*
X00091Y02166*
X00091Y02166*
X00092Y02166*
X00092Y02167*
X00092Y02167*
X00093Y02167*
X00094Y02167*
X00094Y02167*
X00095Y02168*
X00096Y02168*
X00097Y02168*
X00097Y02168*
X00099Y02168*
X001Y02168*
X00102*
X00102Y02168*
G37*
G36*
X00155Y02129D02*
X0015D01*
X0013Y0216*
Y02129*
X00125*
Y02168*
X0013*
X00151Y02138*
Y02168*
X00155*
Y02129*
G37*
G36*
X0018Y02168D02*
X00181Y02168D01*
X00182Y02168*
X00183Y02167*
X00184Y02167*
X00184*
X00184Y02167*
X00184*
X00185Y02167*
X00185Y02167*
X00186Y02167*
X00187Y02166*
X00188Y02166*
X00189Y02165*
X0019Y02165*
X0019Y02164*
X0019Y02164*
X0019Y02164*
X0019Y02164*
X00191Y02164*
X00191Y02163*
X00192Y02162*
X00193Y02161*
X00194Y02159*
X00194Y02158*
Y02158*
X00194Y02158*
X00194Y02158*
X00194Y02157*
X00195Y02157*
X00195Y02156*
X00195Y02156*
X00195Y02155*
X00195Y02155*
X00195Y02154*
X00196Y02152*
X00196Y02151*
X00196Y02149*
Y02149*
Y02149*
Y02148*
Y02148*
X00196Y02148*
Y02147*
X00196Y02146*
X00195Y02145*
X00195Y02144*
X00195Y02142*
X00195Y02141*
Y02141*
X00195Y02141*
X00195Y02141*
X00195Y0214*
X00194Y0214*
X00194Y02139*
X00194Y02138*
X00193Y02137*
X00193Y02136*
X00192Y02135*
X00192Y02135*
X00192Y02135*
X00191Y02135*
X00191Y02134*
X00191Y02134*
X0019Y02133*
X00189Y02132*
X00189Y02132*
X00188Y02132*
X00188Y02132*
X00188Y02132*
X00187Y02131*
X00187Y02131*
X00186Y02131*
X00185Y0213*
X00184Y0213*
X00184*
X00184Y0213*
X00184Y0213*
X00183Y0213*
X00182Y0213*
X00181Y0213*
X0018Y0213*
X00179Y02129*
X00178Y02129*
X00164*
Y02168*
X00179*
X0018Y02168*
G37*
G36*
X01197Y02103D02*
X01192D01*
X01171Y02133*
Y02103*
X01167*
Y02141*
X01172*
X01192Y02111*
Y02141*
X01197*
Y02103*
G37*
G36*
X01252D02*
X01246D01*
X01236Y02131*
Y02131*
X01236Y02131*
X01236Y02131*
X01236Y02131*
X01236Y02132*
X01236Y02132*
X01235Y02133*
X01235Y02134*
X01235Y02135*
X01234Y02137*
Y02137*
X01234Y02137*
X01234Y02137*
X01234Y02136*
X01234Y02136*
X01233Y02135*
X01233Y02134*
X01233Y02133*
X01232Y02132*
X01232Y02131*
X01222Y02103*
X01216*
X01231Y02141*
X01237*
X01252Y02103*
G37*
G36*
X01211D02*
X01206D01*
Y02141*
X01211*
Y02103*
G37*
G36*
X00975Y00681D02*
X00976Y00681D01*
X00977Y00681*
X00978Y0068*
X00979Y0068*
X0098Y0068*
X00981Y00679*
X00981Y00679*
X00982Y00678*
X00983Y00678*
X00983Y00678*
X00983Y00677*
X00984Y00677*
X00984Y00677*
X00984Y00677*
X00984Y00677*
X00985Y00676*
X00985Y00674*
X00986Y00673*
X00986Y00672*
X00987Y00671*
X00987Y00669*
X00987Y00668*
X00988Y00667*
X00988Y00665*
X00988Y00664*
X00988Y00663*
X00988Y00662*
Y00661*
X00988Y00661*
Y00661*
Y0066*
Y0066*
Y0066*
X00988Y00659*
X00988Y00657*
X00988Y00655*
X00987Y00654*
X00987Y00653*
X00987Y00651*
X00987Y0065*
X00986Y00649*
X00986Y00649*
X00986Y00648*
X00985Y00647*
X00985Y00647*
X00985Y00646*
X00985Y00646*
X00984Y00646*
X00984Y00646*
X00984Y00645*
X00983Y00645*
X00982Y00644*
X00981Y00644*
X0098Y00643*
X0098Y00643*
X00979Y00642*
X00978Y00642*
X00977Y00642*
X00977Y00642*
X00976Y00642*
X00976Y00642*
X00975*
X00975Y00642*
X00975*
X00973Y00642*
X00972Y00642*
X00971Y00642*
X0097Y00643*
X0097Y00643*
X00969Y00643*
X00969Y00643*
X00969Y00643*
X00969Y00643*
X00969*
X00968Y00644*
X00967Y00645*
X00966Y00646*
X00965Y00646*
X00965Y00647*
X00965Y00648*
X00964Y00648*
X00964Y00648*
X00964Y00648*
Y00648*
X00964Y00649*
X00963Y0065*
X00963Y00652*
X00963Y00653*
X00963Y00654*
Y00654*
X00963Y00654*
Y00654*
Y00655*
Y00655*
Y00655*
X00963Y00656*
X00963Y00657*
X00963Y00658*
X00963Y00659*
X00963Y00659*
X00964Y0066*
X00964Y00661*
X00964Y00661*
X00965Y00662*
X00965Y00662*
X00965Y00663*
X00965Y00663*
X00966Y00663*
X00966Y00664*
X00966Y00664*
X00966Y00664*
X00967Y00664*
X00967Y00665*
X00968Y00665*
X00969Y00666*
X00969Y00666*
X0097Y00666*
X00971Y00667*
X00972Y00667*
X00972Y00667*
X00973Y00667*
X00973Y00667*
X00974Y00667*
X00974*
X00975Y00667*
X00976Y00667*
X00977Y00667*
X00978Y00667*
X00978Y00666*
X00979Y00666*
X00979Y00666*
X00979Y00666*
X00979*
X0098Y00665*
X00981Y00665*
X00982Y00664*
X00982Y00664*
X00983Y00663*
X00983Y00663*
X00983Y00662*
X00983Y00662*
Y00663*
X00983Y00664*
X00983Y00665*
X00983Y00666*
X00983Y00667*
X00983Y00667*
X00983Y00668*
X00983Y00669*
X00983Y00669*
X00982Y0067*
X00982Y0067*
X00982Y0067*
X00982Y00671*
X00982Y00671*
X00982Y00671*
Y00671*
X00982Y00672*
X00981Y00673*
X0098Y00674*
X0098Y00675*
X00979Y00675*
X00979Y00676*
X00979Y00676*
X00979Y00676*
X00978Y00676*
X00977Y00677*
X00977Y00677*
X00976Y00677*
X00975Y00677*
X00975Y00677*
X00975*
X00974Y00677*
X00973Y00677*
X00972Y00676*
X00971Y00676*
X00971Y00676*
X0097Y00675*
X0097Y00675*
X0097Y00675*
X00969Y00675*
X00969Y00674*
X00969Y00673*
X00968Y00673*
X00968Y00672*
X00968Y00671*
X00968Y00671*
X00968Y00671*
Y00671*
X00963Y00671*
X00964Y00673*
X00964Y00674*
X00965Y00676*
X00965Y00677*
X00966Y00677*
X00966Y00678*
X00966Y00678*
X00967Y00678*
X00967Y00678*
X00967Y00678*
X00967Y00678*
X00967Y00679*
X00968Y00679*
X00969Y0068*
X0097Y0068*
X00972Y00681*
X00973Y00681*
X00973Y00681*
X00973*
X00974Y00681*
X00974*
X00975Y00681*
G37*
G36*
X01025Y00642D02*
X01019D01*
Y00659*
X01013*
X01012Y00659*
X01012*
X01011Y00659*
X01011Y00659*
X01011*
X01011Y00659*
X01011*
X0101Y00659*
X0101Y00659*
X01009Y00659*
X01009Y00658*
X01009Y00658*
X01009Y00658*
X01008Y00658*
X01008Y00658*
X01008Y00657*
X01007Y00657*
X01006Y00656*
X01006Y00656*
X01006Y00656*
X01006Y00656*
X01005Y00655*
X01005Y00654*
X01004Y00653*
X01003Y00652*
X01003Y00652*
X01003Y00651*
X01002Y00651*
X01002Y00651*
X01002Y0065*
Y0065*
X00997Y00642*
X00991*
X00997Y00653*
X00998Y00654*
X00999Y00655*
X01Y00656*
X01Y00657*
X01001Y00657*
X01001Y00658*
X01002Y00658*
X01002Y00658*
X01002Y00658*
X01003Y00659*
X01004Y00659*
X01004Y00659*
X01004Y0066*
X01005Y0066*
X01005Y0066*
X01004Y0066*
X01003Y0066*
X01002Y0066*
X01001Y00661*
X01Y00661*
X01Y00661*
X00999Y00662*
X00999Y00662*
X00998Y00662*
X00998Y00662*
X00997Y00663*
X00997Y00663*
X00997Y00663*
X00997Y00663*
X00997Y00663*
X00997Y00663*
X00996Y00664*
X00996Y00664*
X00995Y00666*
X00995Y00667*
X00994Y00668*
X00994Y00669*
X00994Y00669*
Y0067*
X00994Y0067*
Y0067*
Y0067*
Y0067*
X00994Y00671*
X00994Y00673*
X00994Y00674*
X00995Y00674*
X00995Y00675*
X00995Y00676*
X00995Y00676*
X00996Y00676*
Y00676*
X00996Y00677*
X00997Y00678*
X00998Y00678*
X00998Y00679*
X00999Y00679*
X00999Y0068*
X01Y0068*
X01Y0068*
X01*
X01Y0068*
X01001Y0068*
X01002Y0068*
X01003Y0068*
X01005Y00681*
X01006Y00681*
X01006*
X01007Y00681*
X01025*
Y00642*
G37*
G36*
X00652Y00661D02*
X00648Y0066D01*
X00647Y00661*
X00647Y00661*
X00646Y00662*
X00646Y00662*
X00645Y00662*
X00645Y00662*
X00645Y00663*
X00645Y00663*
X00644Y00663*
X00643Y00663*
X00643Y00663*
X00642Y00664*
X00641Y00664*
X00641Y00664*
X0064*
X00639Y00664*
X00638Y00663*
X00637Y00663*
X00636Y00663*
X00636Y00662*
X00635Y00662*
X00635Y00661*
X00635Y00661*
Y00661*
X00634Y0066*
X00633Y00659*
X00633Y00658*
X00633Y00657*
X00632Y00656*
X00632Y00656*
Y00656*
X00632Y00655*
Y00655*
Y00655*
Y00655*
Y00654*
X00632Y00653*
X00633Y00652*
X00633Y00651*
X00634Y0065*
X00634Y00649*
X00634Y00649*
X00635Y00648*
X00635Y00648*
X00635Y00648*
X00635Y00648*
X00635Y00648*
X00636Y00647*
X00637Y00647*
X00638Y00646*
X00639Y00646*
X00639Y00646*
X0064Y00646*
X0064Y00646*
X00641*
X00642Y00646*
X00643Y00646*
X00643Y00646*
X00644Y00646*
X00645Y00647*
X00645Y00647*
X00645Y00647*
X00645Y00647*
X00646Y00648*
X00647Y00649*
X00647Y0065*
X00647Y00651*
X00648Y00652*
X00648Y00652*
X00648Y00652*
X00648Y00653*
Y00653*
Y00653*
X00653Y00652*
X00653Y00652*
X00653Y00651*
X00652Y00649*
X00651Y00648*
X00651Y00647*
X00651Y00647*
X00651Y00646*
X0065Y00646*
X0065Y00645*
X0065Y00645*
X00649Y00645*
X00649Y00645*
X00649Y00645*
X00649Y00645*
X00648Y00644*
X00648Y00644*
X00647Y00643*
X00646Y00643*
X00645Y00642*
X00644Y00642*
X00643Y00642*
X00642Y00642*
X00642Y00642*
X00641Y00642*
X00641Y00642*
X00641*
X00639Y00642*
X00638Y00642*
X00637Y00642*
X00636Y00642*
X00635Y00643*
X00635Y00643*
X00634Y00644*
X00633Y00644*
X00632Y00644*
X00632Y00645*
X00631Y00645*
X00631Y00646*
X00631Y00646*
X00631Y00646*
X0063Y00646*
X0063Y00646*
X0063Y00647*
X00629Y00648*
X00629Y00649*
X00629Y00649*
X00628Y00651*
X00628Y00652*
X00628Y00653*
X00628Y00654*
X00627Y00654*
X00627Y00654*
X00627Y00655*
Y00655*
Y00655*
Y00655*
X00627Y00656*
X00628Y00657*
X00628Y00658*
X00628Y00659*
X00628Y0066*
X00628Y00661*
X00629Y00661*
X00629Y00662*
X00629Y00662*
X0063Y00663*
X0063Y00663*
X0063Y00664*
X00631Y00664*
X00631Y00664*
X00631Y00664*
X00631Y00664*
X00632Y00665*
X00632Y00666*
X00633Y00666*
X00634Y00666*
X00634Y00667*
X00635Y00667*
X00636Y00667*
X00637Y00668*
X00638Y00668*
X00638Y00668*
X00639Y00668*
X00639Y00668*
X0064*
X00641Y00668*
X00642Y00667*
X00643Y00667*
X00644Y00667*
X00645Y00666*
X00646Y00666*
X00646Y00666*
X00646Y00666*
X00646Y00666*
X00647Y00665*
X00647Y00665*
X00645Y00676*
X00629*
Y0068*
X00648*
X00652Y00661*
G37*
G36*
X0069Y00642D02*
X00684D01*
Y00659*
X00678*
X00677Y00659*
X00677*
X00676Y00659*
X00676Y00659*
X00676*
X00676Y00659*
X00676*
X00675Y00659*
X00675Y00659*
X00674Y00659*
X00674Y00658*
X00674Y00658*
X00674Y00658*
X00673Y00658*
X00673Y00658*
X00673Y00657*
X00672Y00657*
X00671Y00656*
X00671Y00656*
X00671Y00656*
X00671Y00656*
X0067Y00655*
X0067Y00654*
X00669Y00653*
X00668Y00652*
X00668Y00652*
X00668Y00651*
X00667Y00651*
X00667Y00651*
X00667Y0065*
Y0065*
X00662Y00642*
X00656*
X00662Y00653*
X00663Y00654*
X00664Y00655*
X00665Y00656*
X00665Y00657*
X00666Y00657*
X00666Y00658*
X00667Y00658*
X00667Y00658*
X00667Y00658*
X00668Y00659*
X00669Y00659*
X00669Y00659*
X00669Y0066*
X0067Y0066*
X0067Y0066*
X00669Y0066*
X00668Y0066*
X00667Y0066*
X00666Y00661*
X00665Y00661*
X00665Y00661*
X00664Y00662*
X00664Y00662*
X00663Y00662*
X00663Y00662*
X00662Y00663*
X00662Y00663*
X00662Y00663*
X00662Y00663*
X00662Y00663*
X00662Y00663*
X00661Y00664*
X00661Y00664*
X0066Y00666*
X0066Y00667*
X00659Y00668*
X00659Y00669*
X00659Y00669*
Y0067*
X00659Y0067*
Y0067*
Y0067*
Y0067*
X00659Y00671*
X00659Y00673*
X00659Y00674*
X0066Y00674*
X0066Y00675*
X0066Y00676*
X0066Y00676*
X00661Y00676*
Y00676*
X00661Y00677*
X00662Y00678*
X00663Y00678*
X00663Y00679*
X00664Y00679*
X00664Y0068*
X00665Y0068*
X00665Y0068*
X00665*
X00665Y0068*
X00666Y0068*
X00667Y0068*
X00668Y0068*
X0067Y00681*
X00671Y00681*
X00671*
X00672Y00681*
X0069*
Y00642*
G37*
G36*
X00355Y00641D02*
X00349D01*
Y00658*
X00343*
X00342Y00658*
X00342*
X00341Y00658*
X00341Y00658*
X00341*
X00341Y00658*
X00341*
X0034Y00658*
X0034Y00658*
X00339Y00658*
X00339Y00657*
X00339Y00657*
X00339Y00657*
X00338Y00657*
X00338Y00657*
X00338Y00656*
X00337Y00656*
X00336Y00655*
X00336Y00655*
X00336Y00655*
X00336Y00655*
X00335Y00654*
X00335Y00653*
X00334Y00652*
X00333Y00651*
X00333Y00651*
X00333Y0065*
X00332Y0065*
X00332Y0065*
X00332Y00649*
Y00649*
X00327Y00641*
X00321*
X00327Y00652*
X00328Y00653*
X00329Y00654*
X0033Y00655*
X0033Y00656*
X00331Y00656*
X00331Y00657*
X00332Y00657*
X00332Y00657*
X00332Y00657*
X00333Y00658*
X00334Y00658*
X00334Y00658*
X00334Y00659*
X00335Y00659*
X00335Y00659*
X00334Y00659*
X00333Y00659*
X00332Y00659*
X00331Y0066*
X0033Y0066*
X0033Y0066*
X00329Y00661*
X00329Y00661*
X00328Y00661*
X00328Y00661*
X00327Y00662*
X00327Y00662*
X00327Y00662*
X00327Y00662*
X00327Y00662*
X00327Y00662*
X00326Y00663*
X00326Y00663*
X00325Y00665*
X00325Y00666*
X00324Y00667*
X00324Y00668*
X00324Y00668*
Y00669*
X00324Y00669*
Y00669*
Y00669*
Y00669*
X00324Y0067*
X00324Y00672*
X00324Y00673*
X00325Y00673*
X00325Y00674*
X00325Y00675*
X00325Y00675*
X00326Y00675*
Y00675*
X00326Y00676*
X00327Y00677*
X00328Y00677*
X00328Y00678*
X00329Y00678*
X00329Y00679*
X0033Y00679*
X0033Y00679*
X0033*
X0033Y00679*
X00331Y00679*
X00332Y00679*
X00333Y0068*
X00335Y0068*
X00336Y0068*
X00336*
X00337Y0068*
X00355*
Y00641*
G37*
G36*
X00319Y00655D02*
Y00651D01*
X00303*
Y00641*
X00298*
Y00651*
X00293*
Y00655*
X00298*
Y0068*
X00302*
X00319Y00655*
G37*
G36*
X0101Y01368D02*
X01011Y01367D01*
X01012Y01367*
X01013Y01367*
X01014Y01366*
X01014Y01366*
X01015Y01366*
X01015Y01366*
X01015Y01365*
X01015Y01365*
X01016Y01365*
X01016Y01365*
X01017Y01364*
X01017Y01363*
X01018Y01362*
X01019Y01361*
X01019Y01359*
X01019Y01359*
X01019Y01359*
X01019Y01358*
X01019Y01358*
X01019Y01358*
Y01358*
X01015Y01357*
X01015Y01358*
X01014Y01359*
X01014Y0136*
X01013Y01361*
X01013Y01361*
X01013Y01362*
X01012Y01362*
X01012Y01362*
X01012Y01363*
X01011Y01363*
X0101Y01363*
X01009Y01364*
X01009Y01364*
X01008Y01364*
X01008*
X01007Y01364*
X01006Y01364*
X01005Y01363*
X01005Y01363*
X01004Y01363*
X01004Y01362*
X01003Y01362*
X01003Y01362*
X01003Y01362*
X01002Y01361*
X01002Y0136*
X01002Y01359*
X01002Y01359*
X01002Y01358*
Y01358*
Y01358*
Y01358*
Y01357*
X01002Y01357*
X01002Y01356*
X01002Y01355*
X01003Y01354*
X01003Y01354*
X01004Y01353*
X01004Y01353*
X01004Y01353*
X01004*
X01005Y01353*
X01006Y01352*
X01007Y01352*
X01008Y01352*
X01008Y01352*
X01009Y01352*
X0101*
X0101Y01352*
X0101*
X01011Y01347*
X0101Y01348*
X01009Y01348*
X01009Y01348*
X01008Y01348*
X01008Y01348*
X01007*
X01006Y01348*
X01005Y01348*
X01004Y01347*
X01003Y01347*
X01003Y01346*
X01002Y01346*
X01002Y01346*
X01002Y01346*
X01001Y01345*
X01001Y01344*
X01Y01343*
X01Y01342*
X01Y01342*
X01Y01341*
X01Y01341*
Y01341*
Y0134*
Y0134*
X01Y01339*
X01Y01338*
X01001Y01337*
X01001Y01336*
X01001Y01336*
X01002Y01335*
X01002Y01335*
X01002Y01335*
X01003Y01334*
X01004Y01333*
X01005Y01333*
X01006Y01333*
X01007Y01333*
X01007Y01332*
X01007Y01332*
X01008*
X01009Y01332*
X0101Y01333*
X01011Y01333*
X01011Y01333*
X01012Y01334*
X01012Y01334*
X01012Y01334*
X01013Y01334*
X01013Y01335*
X01014Y01336*
X01014Y01337*
X01015Y01338*
X01015Y01339*
X01015Y01339*
X01015Y01339*
X01015Y0134*
X01015Y0134*
X01015Y0134*
Y0134*
X0102Y01339*
X0102Y01338*
X0102Y01338*
X01019Y01336*
X01019Y01335*
X01018Y01334*
X01018Y01334*
X01018Y01333*
X01017Y01333*
X01017Y01332*
X01017Y01332*
X01017Y01332*
X01016Y01332*
X01016Y01332*
X01016Y01332*
X01016Y01331*
X01015Y01331*
X01014Y0133*
X01013Y0133*
X01012Y01329*
X01011Y01329*
X0101Y01329*
X0101Y01329*
X01009Y01329*
X01009Y01329*
X01008Y01329*
X01008*
X01007Y01329*
X01006Y01329*
X01005Y01329*
X01004Y01329*
X01003Y01329*
X01002Y0133*
X01002Y0133*
X01001Y0133*
X01Y01331*
X01Y01331*
X01Y01331*
X00999Y01331*
X00999Y01332*
X00999Y01332*
X00999Y01332*
X00999Y01332*
X00998Y01333*
X00997Y01333*
X00997Y01334*
X00996Y01335*
X00996Y01336*
X00996Y01336*
X00995Y01338*
X00995Y01338*
X00995Y01339*
X00995Y01339*
X00995Y0134*
X00995Y0134*
Y0134*
Y0134*
Y01341*
X00995Y01342*
X00995Y01343*
X00995Y01344*
X00996Y01345*
X00996Y01346*
X00996Y01346*
X00997Y01347*
X00997Y01347*
X00997Y01348*
X00998Y01348*
X00999Y01349*
X01Y01349*
X01001Y0135*
X01001Y0135*
X01002Y0135*
X01002Y0135*
X01002Y0135*
X01002*
X01001Y01351*
X01Y01351*
X01Y01352*
X00999Y01352*
X00999Y01353*
X00998Y01353*
X00998Y01353*
X00998Y01353*
X00998Y01354*
X00997Y01355*
X00997Y01356*
X00997Y01356*
X00997Y01357*
X00997Y01357*
Y01358*
Y01358*
X00997Y01359*
X00997Y0136*
X00997Y01361*
X00997Y01361*
X00998Y01362*
X00998Y01362*
X00998Y01363*
X00998Y01363*
X00999Y01364*
X00999Y01364*
X01Y01365*
X01001Y01365*
X01001Y01366*
X01002Y01366*
X01002Y01366*
X01002Y01366*
X01002*
X01003Y01367*
X01004Y01367*
X01005Y01367*
X01006Y01368*
X01007Y01368*
X01007Y01368*
X01009*
X0101Y01368*
G37*
G36*
X01057Y01329D02*
X01052D01*
Y01346*
X01045*
X01044Y01346*
X01044*
X01044Y01346*
X01043Y01346*
X01043*
X01043Y01346*
X01043*
X01042Y01346*
X01042Y01346*
X01041Y01345*
X01041Y01345*
X01041Y01345*
X01041Y01345*
X01041Y01345*
X0104Y01345*
X0104Y01344*
X01039Y01343*
X01039Y01343*
X01038Y01343*
X01038Y01343*
X01038Y01342*
X01037Y01342*
X01037Y01341*
X01036Y0134*
X01036Y01339*
X01035Y01338*
X01035Y01338*
X01035Y01338*
X01034Y01337*
X01034Y01337*
Y01337*
X01029Y01329*
X01023*
X0103Y0134*
X0103Y01341*
X01031Y01342*
X01032Y01343*
X01032Y01343*
X01033Y01344*
X01033Y01344*
X01034Y01345*
X01034Y01345*
X01034Y01345*
X01035Y01345*
X01036Y01346*
X01036Y01346*
X01037Y01347*
X01037Y01347*
X01037Y01347*
X01036Y01347*
X01035Y01347*
X01034Y01347*
X01033Y01348*
X01033Y01348*
X01032Y01348*
X01031Y01348*
X01031Y01349*
X0103Y01349*
X0103Y01349*
X01029Y0135*
X01029Y0135*
X01029Y0135*
X01029Y0135*
X01029Y0135*
X01029Y0135*
X01028Y01351*
X01028Y01351*
X01027Y01352*
X01027Y01354*
X01026Y01355*
X01026Y01356*
X01026Y01356*
Y01356*
X01026Y01357*
Y01357*
Y01357*
Y01357*
X01026Y01358*
X01026Y01359*
X01027Y0136*
X01027Y01361*
X01027Y01362*
X01027Y01362*
X01028Y01363*
X01028Y01363*
Y01363*
X01028Y01364*
X01029Y01365*
X0103Y01365*
X0103Y01366*
X01031Y01366*
X01031Y01366*
X01032Y01367*
X01032Y01367*
X01032*
X01032Y01367*
X01033Y01367*
X01034Y01367*
X01036Y01367*
X01037Y01368*
X01038Y01368*
X01038*
X01039Y01368*
X01057*
Y01329*
G37*
G36*
X01006Y01715D02*
X01007Y01715D01*
X01008Y01715*
X01009Y01715*
X0101Y01715*
X01011Y01714*
X01011Y01714*
X01012Y01714*
X01012Y01714*
X01013Y01713*
X01013Y01713*
X01014Y01713*
X01014Y01713*
X01014Y01712*
X01014Y01712*
X01014Y01712*
X01015Y01712*
X01015Y01711*
X01016Y01711*
X01016Y0171*
X01017Y01709*
X01017Y01707*
X01017Y01707*
X01018Y01706*
X01018Y01705*
X01018Y01705*
X01018Y01705*
Y01704*
X01018Y01704*
Y01704*
X01013Y01704*
X01013Y01705*
X01013Y01706*
X01012Y01707*
X01012Y01708*
X01012Y01708*
X01011Y01709*
X01011Y01709*
X01011Y01709*
X0101Y0171*
X01009Y0171*
X01008Y01711*
X01008Y01711*
X01007Y01711*
X01006Y01711*
X01006Y01711*
X01006*
X01004Y01711*
X01003Y01711*
X01002Y01711*
X01002Y0171*
X01001Y0171*
X01001Y0171*
X01Y0171*
X01Y01709*
X01Y01709*
X00999Y01708*
X00999Y01707*
X00999Y01706*
X00998Y01706*
X00998Y01705*
X00998Y01705*
Y01705*
Y01705*
X00998Y01704*
X00999Y01703*
X00999Y01702*
X00999Y01701*
X01Y017*
X01Y01699*
X01Y01699*
X01Y01699*
X01001Y01699*
Y01699*
X01001Y01698*
X01002Y01698*
X01002Y01697*
X01003Y01696*
X01004Y01695*
X01006Y01694*
X01006Y01693*
X01007Y01693*
X01008Y01692*
X01008Y01692*
X01008Y01691*
X01009Y01691*
X01009Y01691*
X01009Y01691*
X0101Y0169*
X01012Y01689*
X01013Y01688*
X01014Y01687*
X01014Y01686*
X01015Y01686*
X01015Y01685*
X01015Y01685*
Y01685*
X01016Y01684*
X01017Y01683*
X01017Y01682*
X01018Y01682*
X01018Y01681*
X01018Y0168*
X01018Y0168*
X01018Y0168*
Y0168*
X01018Y01679*
X01019Y01679*
X01019Y01678*
X01019Y01678*
X01019Y01677*
Y01677*
Y01677*
Y01677*
X00993*
Y01681*
X01012*
X01012Y01682*
X01011Y01683*
X01011Y01683*
X01011Y01683*
X0101Y01684*
X0101Y01684*
X0101Y01684*
X0101Y01684*
X0101Y01684*
X01009Y01685*
X01008Y01686*
X01007Y01687*
X01006Y01687*
X01006Y01688*
X01005Y01688*
X01005Y01688*
X01005Y01688*
X01005Y01689*
X01005Y01689*
X01004Y01689*
X01003Y0169*
X01002Y01691*
X01002Y01691*
X01001Y01692*
X01Y01693*
X01Y01693*
X00999Y01694*
X00999Y01694*
X00999Y01694*
X00998Y01695*
X00998Y01695*
X00998Y01695*
X00998Y01695*
X00997Y01696*
X00996Y01697*
X00996Y01698*
X00995Y01699*
X00995Y01699*
X00995Y017*
X00994Y017*
X00994Y017*
X00994Y01701*
X00994Y01702*
X00994Y01702*
X00994Y01703*
X00993Y01704*
X00993Y01704*
Y01704*
Y01705*
X00993Y01705*
X00994Y01706*
X00994Y01707*
X00994Y01708*
X00994Y01709*
X00995Y0171*
X00995Y01711*
X00996Y01711*
X00996Y01711*
X00996Y01712*
X00996Y01712*
X00997Y01712*
X00997Y01712*
X00997Y01712*
X00997Y01713*
X00998Y01713*
X00999Y01714*
X00999Y01714*
X01001Y01714*
X01002Y01715*
X01003Y01715*
X01004Y01715*
X01004Y01715*
X01005Y01715*
X01005Y01715*
X01005*
X01006Y01715*
G37*
G36*
X01055Y01677D02*
X0105D01*
Y01694*
X01043*
X01043Y01694*
X01042*
X01042Y01694*
X01042Y01694*
X01041*
X01041Y01694*
X01041*
X0104Y01693*
X0104Y01693*
X0104Y01693*
X01039Y01693*
X01039Y01693*
X01039Y01693*
X01039Y01693*
X01038Y01692*
X01038Y01692*
X01037Y01691*
X01037Y01691*
X01036Y0169*
X01036Y0169*
X01036Y0169*
X01036Y01689*
X01035Y01688*
X01034Y01687*
X01034Y01687*
X01033Y01686*
X01033Y01685*
X01033Y01685*
X01033Y01685*
X01033Y01685*
Y01685*
X01027Y01677*
X01021*
X01028Y01687*
X01029Y01688*
X01029Y01689*
X0103Y0169*
X01031Y01691*
X01031Y01691*
X01032Y01692*
X01032Y01692*
X01032Y01692*
X01032Y01693*
X01033Y01693*
X01034Y01694*
X01034Y01694*
X01035Y01694*
X01035Y01694*
X01035Y01694*
X01034Y01694*
X01033Y01695*
X01032Y01695*
X01031Y01695*
X01031Y01695*
X0103Y01696*
X01029Y01696*
X01029Y01696*
X01028Y01697*
X01028Y01697*
X01028Y01697*
X01027Y01697*
X01027Y01697*
X01027Y01698*
X01027Y01698*
X01027Y01698*
X01026Y01698*
X01026Y01699*
X01025Y017*
X01025Y01701*
X01025Y01702*
X01024Y01703*
X01024Y01704*
Y01704*
X01024Y01704*
Y01704*
Y01705*
Y01705*
X01024Y01706*
X01024Y01707*
X01025Y01708*
X01025Y01709*
X01025Y01709*
X01026Y0171*
X01026Y0171*
X01026Y0171*
Y0171*
X01026Y01711*
X01027Y01712*
X01028Y01713*
X01029Y01713*
X01029Y01714*
X0103Y01714*
X0103Y01714*
X0103Y01714*
X0103*
X01031Y01714*
X01031Y01714*
X01032Y01715*
X01034Y01715*
X01035Y01715*
X01036Y01715*
X01037*
X01037Y01715*
X01055*
Y01677*
G37*
G36*
X01016Y02104D02*
X01016Y02104D01*
X01017Y02103*
X01018Y02102*
X01019Y02101*
X01019Y02101*
X01019Y02101*
X01019Y021*
X01019Y021*
X0102Y021*
X01021Y02099*
X01022Y02098*
X01023Y02098*
X01024Y02097*
X01025Y02096*
X01025Y02096*
X01026Y02096*
X01026Y02096*
X01026Y02096*
X01026Y02096*
X01026*
Y02091*
X01026Y02092*
X01025Y02092*
X01024Y02092*
X01023Y02093*
X01022Y02093*
X01022Y02093*
X01022Y02094*
X01022Y02094*
X01021*
X0102Y02094*
X0102Y02095*
X01019Y02095*
X01018Y02096*
X01018Y02096*
X01017Y02097*
X01017Y02097*
X01017Y02097*
Y02067*
X01012*
Y02105*
X01015*
X01016Y02104*
G37*
G36*
X01067Y02067D02*
X01062D01*
Y02084*
X01055*
X01054Y02084*
X01054*
X01054Y02084*
X01053Y02084*
X01053*
X01053Y02084*
X01053*
X01052Y02083*
X01052Y02083*
X01051Y02083*
X01051Y02083*
X01051Y02083*
X01051Y02083*
X01051Y02083*
X0105Y02082*
X0105Y02082*
X01049Y02081*
X01049Y02081*
X01048Y0208*
X01048Y0208*
X01048Y0208*
X01047Y02079*
X01047Y02078*
X01046Y02078*
X01046Y02077*
X01045Y02076*
X01045Y02075*
X01045Y02075*
X01044Y02075*
X01044Y02075*
Y02075*
X01039Y02067*
X01033*
X0104Y02077*
X0104Y02078*
X01041Y02079*
X01042Y0208*
X01042Y02081*
X01043Y02082*
X01043Y02082*
X01044Y02082*
X01044Y02082*
X01044Y02083*
X01045Y02083*
X01046Y02084*
X01046Y02084*
X01047Y02084*
X01047Y02084*
X01047Y02084*
X01046Y02084*
X01045Y02085*
X01044Y02085*
X01043Y02085*
X01043Y02085*
X01042Y02086*
X01041Y02086*
X01041Y02086*
X0104Y02087*
X0104Y02087*
X01039Y02087*
X01039Y02087*
X01039Y02088*
X01039Y02088*
X01039Y02088*
X01039Y02088*
X01038Y02088*
X01038Y02089*
X01037Y0209*
X01037Y02091*
X01036Y02092*
X01036Y02093*
X01036Y02094*
Y02094*
X01036Y02094*
Y02095*
Y02095*
Y02095*
X01036Y02096*
X01036Y02097*
X01037Y02098*
X01037Y02099*
X01037Y021*
X01037Y021*
X01038Y021*
X01038Y021*
Y02101*
X01038Y02101*
X01039Y02102*
X0104Y02103*
X0104Y02103*
X01041Y02104*
X01041Y02104*
X01042Y02104*
X01042Y02104*
X01042*
X01042Y02104*
X01043Y02105*
X01044Y02105*
X01046Y02105*
X01047Y02105*
X01048Y02105*
X01048*
X01049Y02105*
X01067*
Y02067*
G37*
G36*
X01141Y00532D02*
X01142Y00531D01*
X01143Y00531*
X01144Y00531*
X01145Y00531*
X01145Y00531*
X01146Y0053*
X01147Y0053*
X01148Y0053*
X01148Y00529*
X01149Y00529*
X01149Y00529*
X01149Y00529*
X0115Y00529*
X0115Y00528*
X0115Y00528*
X01151Y00528*
X01151Y00527*
X01152Y00526*
X01152Y00526*
X01153Y00524*
X01154Y00522*
X01155Y00522*
X01155Y00521*
X01155Y0052*
X01155Y0052*
X01155Y00519*
X01155Y00519*
X01156Y00519*
Y00519*
X0115Y00518*
X0115Y00518*
X0115Y00519*
X0115Y0052*
X01149Y00521*
X01149Y00521*
X01149Y00522*
X01148Y00523*
X01148Y00523*
X01148Y00524*
X01147Y00524*
X01147Y00524*
X01147Y00524*
X01147Y00525*
X01146Y00525*
X01146Y00525*
X01146Y00525*
X01146Y00525*
X01145Y00526*
X01144Y00526*
X01143Y00527*
X01142Y00527*
X01141Y00527*
X0114Y00527*
X0114*
X0114Y00527*
X01139*
X01138Y00527*
X01137Y00527*
X01136Y00527*
X01135Y00526*
X01134Y00526*
X01133Y00526*
X01133Y00526*
X01133Y00526*
X01133Y00526*
X01133Y00526*
X01133*
X01132Y00525*
X01131Y00524*
X0113Y00523*
X01129Y00522*
X01129Y00521*
X01128Y00521*
X01128Y0052*
X01128Y0052*
X01128Y0052*
Y0052*
X01128Y00519*
X01127Y00517*
X01127Y00516*
X01127Y00514*
X01127Y00514*
X01127Y00513*
Y00513*
X01127Y00512*
Y00512*
Y00512*
Y00512*
Y00512*
X01127Y0051*
X01127Y00509*
X01127Y00508*
X01127Y00506*
X01128Y00505*
X01128Y00505*
X01128Y00505*
X01128Y00504*
X01128Y00504*
X01128Y00504*
Y00504*
X01128Y00503*
X01129Y00502*
X0113Y00501*
X0113Y005*
X01131Y00499*
X01132Y00499*
X01132Y00499*
X01132Y00498*
X01132*
X01133Y00498*
X01135Y00497*
X01136Y00497*
X01137Y00497*
X01138Y00496*
X01138Y00496*
X01139*
X01139Y00496*
X0114*
X01141Y00496*
X01142Y00497*
X01143Y00497*
X01144Y00497*
X01145Y00498*
X01145Y00498*
X01146Y00498*
X01146Y00498*
X01147Y00499*
X01148Y005*
X01148Y00501*
X01149Y00502*
X01149Y00503*
X01149Y00503*
X0115Y00504*
X0115Y00504*
X0115Y00504*
X0115Y00504*
Y00504*
X01155Y00503*
X01155Y00502*
X01154Y00501*
X01154Y005*
X01153Y005*
X01153Y00499*
X01152Y00498*
X01152Y00498*
X01152Y00497*
X01151Y00497*
X01151Y00496*
X0115Y00496*
X0115Y00495*
X0115Y00495*
X0115Y00495*
X01149Y00495*
X01149Y00495*
X01149Y00494*
X01148Y00494*
X01147Y00493*
X01146Y00493*
X01145Y00493*
X01143Y00492*
X01142Y00492*
X01142Y00492*
X01141Y00492*
X01141Y00492*
X0114Y00492*
X0114*
X01138Y00492*
X01136Y00492*
X01134Y00493*
X01134Y00493*
X01133Y00493*
X01132Y00493*
X01132Y00494*
X01131Y00494*
X01131Y00494*
X01131Y00494*
X01131Y00494*
X0113Y00494*
X0113Y00494*
X01129Y00495*
X01128Y00496*
X01126Y00497*
X01125Y00499*
X01125Y005*
X01124Y005*
X01124Y005*
X01124Y00501*
X01124Y00501*
X01124Y00501*
X01124Y00501*
X01123Y00503*
X01122Y00505*
X01122Y00506*
X01122Y00508*
X01122Y00509*
X01122Y00509*
X01122Y0051*
Y00511*
X01122Y00511*
Y00511*
Y00511*
Y00512*
X01122Y00514*
X01122Y00515*
X01122Y00517*
X01122Y00518*
X01123Y00519*
X01123Y00519*
X01123Y0052*
X01123Y00521*
X01123Y00521*
X01123Y00521*
X01123Y00522*
X01124Y00522*
Y00522*
X01124Y00524*
X01125Y00525*
X01126Y00526*
X01127Y00527*
X01127Y00527*
X01128Y00528*
X01128Y00528*
X01129Y00528*
X01129Y00529*
X01129Y00529*
X01129Y00529*
X01129Y00529*
X01129Y00529*
X0113Y0053*
X01131Y0053*
X01133Y00531*
X01134Y00531*
X01136Y00531*
X01137Y00531*
X01137Y00532*
X01138Y00532*
X01139*
X01139Y00532*
X0114*
X01141Y00532*
G37*
G36*
X01171Y00529D02*
X01171Y00527D01*
X01171Y00525*
X01171Y00524*
X01171Y00524*
X01172Y00523*
X01172Y00522*
X01172Y00522*
X01172Y00521*
X01172Y00521*
X01172Y00521*
X01172Y00521*
Y0052*
X01173Y00518*
X01174Y00516*
X01174Y00514*
X01175Y00513*
X01175Y00512*
X01176Y00511*
X01176Y0051*
X01176Y0051*
X01177Y00509*
X01177Y00508*
X01177Y00508*
X01178Y00507*
X01178Y00507*
X01178Y00507*
X01178Y00506*
X01179Y00505*
X0118Y00504*
X0118Y00503*
X01181Y00502*
X01182Y00501*
X01182Y005*
X01183Y005*
X01183Y00499*
X01184Y00498*
X01184Y00498*
X01184Y00498*
X01185Y00497*
X01185Y00497*
X01185Y00497*
X01185Y00497*
Y00493*
X0116*
Y00498*
X01179*
X01178Y00499*
X01176Y00501*
X01175Y00503*
X01174Y00504*
X01174Y00505*
X01173Y00506*
X01173Y00506*
X01173Y00507*
X01173Y00507*
X01172Y00507*
X01172Y00508*
X01172Y00508*
X01171Y0051*
X0117Y00512*
X01169Y00514*
X01169Y00515*
X01169Y00516*
X01168Y00517*
X01168Y00518*
X01168Y00518*
X01168Y00519*
X01167Y0052*
X01167Y0052*
X01167Y0052*
Y0052*
X01167Y00522*
X01167Y00524*
X01166Y00525*
X01166Y00525*
X01166Y00526*
X01166Y00527*
X01166Y00528*
X01166Y00529*
X01166Y00529*
X01166Y0053*
Y0053*
X01166Y00531*
Y00531*
Y00531*
Y00531*
X0117*
X01171Y00529*
G37*
%LNpcb1-2*%
%LPC*%
G36*
X00178Y02163D02*
X00169D01*
Y02134*
X00178*
X00179Y02134*
X00179Y02134*
X0018Y02134*
X00181Y02134*
X00182Y02134*
X00183Y02135*
X00183Y02135*
X00184Y02135*
X00184Y02135*
X00184Y02135*
X00185Y02135*
X00186Y02136*
X00186Y02136*
X00187Y02137*
X00187Y02137*
X00187Y02137*
X00187Y02137*
X00188Y02138*
X00188Y02139*
X00189Y02139*
X00189Y0214*
X00189Y02141*
Y02142*
X0019Y02142*
X0019Y02142*
X0019Y02142*
X0019Y02142*
X0019Y02143*
X0019Y02143*
X0019Y02144*
X0019Y02145*
X0019Y02146*
X0019Y02147*
X00191Y02149*
Y02149*
Y02149*
Y02149*
X0019Y0215*
Y0215*
X0019Y02151*
X0019Y02152*
X0019Y02152*
X0019Y02154*
X0019Y02155*
X00189Y02157*
X00189Y02158*
X00189Y02158*
Y02158*
X00188Y02158*
X00188Y02158*
X00188Y02159*
X00188Y02159*
X00187Y0216*
X00186Y02161*
X00186Y02161*
X00185Y02162*
X00184Y02162*
X00184Y02163*
X00183Y02163*
X00183Y02163*
X00182Y02163*
X00181Y02163*
X0018Y02163*
X00179Y02163*
X00179*
X00178Y02163*
G37*
G36*
X00975Y00663D02*
X00975D01*
X00974Y00663*
X00973Y00663*
X00972Y00662*
X00971Y00662*
X0097Y00662*
X0097Y00661*
X0097Y00661*
X0097Y00661*
X00969Y0066*
X00968Y00659*
X00968Y00658*
X00968Y00657*
X00968Y00656*
X00968Y00656*
Y00655*
X00967Y00655*
Y00655*
Y00655*
Y00655*
X00968Y00653*
X00968Y00652*
X00968Y00651*
X00969Y0065*
X00969Y00649*
X00969Y00648*
X0097Y00648*
X0097Y00648*
Y00648*
X0097Y00648*
X0097Y00647*
X00971Y00647*
X00972Y00646*
X00973Y00646*
X00974Y00646*
X00974Y00646*
X00975Y00646*
X00975*
X00976Y00646*
X00976Y00646*
X00977Y00646*
X00978Y00646*
X00978Y00646*
X00978Y00647*
X00979Y00647*
X00979Y00647*
X00979Y00647*
X0098Y00648*
X0098Y00648*
X00981Y00649*
X00981Y00649*
X00981Y0065*
X00982Y0065*
X00982Y0065*
X00982Y00651*
X00982Y00652*
X00982Y00653*
X00983Y00653*
X00983Y00654*
X00983Y00654*
Y00655*
Y00655*
X00983Y00656*
X00982Y00657*
X00982Y00658*
X00982Y00659*
X00981Y0066*
X00981Y0066*
X00981Y00661*
X0098Y00661*
X0098Y00662*
X00979Y00662*
X00978Y00663*
X00977Y00663*
X00976Y00663*
X00976Y00663*
X00975Y00663*
G37*
G36*
X01019Y00677D02*
X01007D01*
X01006Y00676*
X01005Y00676*
X01003Y00676*
X01003Y00676*
X01002Y00675*
X01001Y00675*
X01001Y00675*
X01001Y00675*
X01Y00674*
X01Y00673*
X01Y00673*
X00999Y00672*
X00999Y00671*
X00999Y00671*
X00999Y0067*
Y0067*
Y0067*
X00999Y0067*
X00999Y00669*
X00999Y00668*
X01Y00668*
X01Y00667*
X01Y00667*
X01Y00667*
X01Y00667*
X01001Y00666*
X01001Y00666*
X01002Y00665*
X01002Y00665*
X01002Y00665*
X01003Y00665*
X01003Y00665*
X01003Y00664*
X01004Y00664*
X01005Y00664*
X01006Y00664*
X01007Y00664*
X01007Y00664*
X01008Y00664*
X01019*
Y00677*
G37*
G36*
X00684D02*
X00672D01*
X00671Y00676*
X0067Y00676*
X00668Y00676*
X00668Y00676*
X00667Y00675*
X00666Y00675*
X00666Y00675*
X00666Y00675*
X00665Y00674*
X00665Y00673*
X00665Y00673*
X00664Y00672*
X00664Y00671*
X00664Y00671*
X00664Y0067*
Y0067*
Y0067*
X00664Y0067*
X00664Y00669*
X00664Y00668*
X00665Y00668*
X00665Y00667*
X00665Y00667*
X00665Y00667*
X00665Y00667*
X00666Y00666*
X00666Y00666*
X00667Y00665*
X00667Y00665*
X00667Y00665*
X00668Y00665*
X00668Y00665*
X00668Y00664*
X00669Y00664*
X0067Y00664*
X00671Y00664*
X00672Y00664*
X00672Y00664*
X00673Y00664*
X00684*
Y00677*
G37*
G36*
X00349Y00676D02*
X00337D01*
X00336Y00675*
X00335Y00675*
X00333Y00675*
X00333Y00675*
X00332Y00674*
X00331Y00674*
X00331Y00674*
X00331Y00674*
X0033Y00673*
X0033Y00672*
X0033Y00672*
X00329Y00671*
X00329Y0067*
X00329Y0067*
X00329Y00669*
Y00669*
Y00669*
X00329Y00669*
X00329Y00668*
X00329Y00667*
X0033Y00667*
X0033Y00666*
X0033Y00666*
X0033Y00666*
X0033Y00666*
X00331Y00665*
X00331Y00665*
X00332Y00664*
X00332Y00664*
X00332Y00664*
X00333Y00664*
X00333Y00664*
X00333Y00663*
X00334Y00663*
X00335Y00663*
X00336Y00663*
X00337Y00663*
X00337Y00663*
X00338Y00663*
X00349*
Y00676*
G37*
G36*
X00303Y00672D02*
Y00655D01*
X00315*
X00303Y00672*
G37*
G36*
X01052Y01363D02*
X0104D01*
X01038Y01363*
X01037Y01363*
X01036Y01363*
X01035Y01362*
X01034Y01362*
X01034Y01362*
X01033Y01362*
X01033Y01362*
X01033Y01361*
X01032Y0136*
X01032Y01359*
X01031Y01359*
X01031Y01358*
X01031Y01358*
X01031Y01357*
Y01357*
Y01357*
X01031Y01356*
X01031Y01356*
X01032Y01355*
X01032Y01355*
X01032Y01354*
X01032Y01354*
X01032Y01354*
X01032Y01354*
X01033Y01353*
X01033Y01353*
X01034Y01352*
X01034Y01352*
X01035Y01352*
X01035Y01351*
X01035Y01351*
X01035Y01351*
X01036Y01351*
X01037Y01351*
X01038Y01351*
X01039Y01351*
X0104Y01351*
X0104Y01351*
X01052*
Y01363*
G37*
G36*
X0105Y01711D02*
X01038D01*
X01036Y01711*
X01035Y01711*
X01034Y0171*
X01033Y0171*
X01032Y0171*
X01032Y01709*
X01032Y01709*
X01031Y01709*
X01031Y01708*
X0103Y01708*
X0103Y01707*
X0103Y01706*
X0103Y01705*
X01029Y01705*
X01029Y01705*
Y01705*
Y01705*
X01029Y01704*
X0103Y01703*
X0103Y01703*
X0103Y01702*
X0103Y01702*
X0103Y01701*
X0103Y01701*
X0103Y01701*
X01031Y01701*
X01031Y017*
X01032Y017*
X01032Y01699*
X01033Y01699*
X01033Y01699*
X01033Y01699*
X01033Y01699*
X01034Y01699*
X01035Y01698*
X01036Y01698*
X01037Y01698*
X01038Y01698*
X01038Y01698*
X0105*
Y01711*
G37*
G36*
X01062Y02101D02*
X0105D01*
X01048Y02101*
X01047Y02101*
X01046Y021*
X01045Y021*
X01044Y021*
X01044Y02099*
X01043Y02099*
X01043Y02099*
X01043Y02098*
X01042Y02098*
X01042Y02097*
X01041Y02096*
X01041Y02096*
X01041Y02095*
X01041Y02095*
Y02095*
Y02095*
X01041Y02094*
X01041Y02093*
X01042Y02093*
X01042Y02092*
X01042Y02092*
X01042Y02092*
X01042Y02091*
X01042Y02091*
X01043Y02091*
X01043Y0209*
X01044Y0209*
X01044Y02089*
X01045Y02089*
X01045Y02089*
X01045Y02089*
X01045Y02089*
X01046Y02089*
X01047Y02089*
X01048Y02088*
X01049Y02088*
X0105Y02088*
X0105Y02088*
X01062*
Y02101*
G37*
%LNpcb1-3*%
%LPD*%
G54D11*
X00136Y00393D02*
X00335D01*
X00471D02*
X0067D01*
X00806D02*
X01004D01*
X01092Y00645D02*
X0123D01*
X01068Y00535D02*
X0123D01*
X01047Y01251D02*
Y01267D01*
X01019Y01251D02*
Y01267D01*
X01035Y0162D02*
X01051D01*
X01035Y01647D02*
X01051D01*
X01029Y0199D02*
Y02005D01*
X01057Y0199D02*
Y02005D01*
G54D13*
X01112Y01516D02*
X01072Y01476D01*
X01112D02*
X01072Y01516D01*
X01112Y01496D02*
X01072D01*
X01092Y01476D02*
Y01516D01*
X01006Y01168D02*
X00966Y01128D01*
X01006D02*
X00966Y01168D01*
X01006Y01148D02*
X00966D01*
X00986Y01128D02*
Y01168D01*
X01004Y01955D02*
X00964Y01915D01*
X01004D02*
X00964Y01955D01*
X01004Y01935D02*
X00964D01*
X00984Y01915D02*
Y01955D01*
X01279Y0D02*
Y02362D01*
X00059Y0D02*
X01279D01*
X00059D02*
Y02362D01*
X01279*
M02*