%FSTAX23Y23*%
%MOIN*%
%SFA1B1*%

%IPPOS*%
%AMD20*
4,1,8,-0.001800,-0.011800,0.001800,-0.011800,0.005900,-0.007700,0.005900,0.007700,0.001800,0.011800,-0.001800,0.011800,-0.005900,0.007700,-0.005900,-0.007700,-0.001800,-0.011800,0.0*
1,1,0.008260,-0.001800,-0.007700*
1,1,0.008260,0.001800,-0.007700*
1,1,0.008260,0.001800,0.007700*
1,1,0.008260,-0.001800,0.007700*
%
%ADD13C,0.010000*%
%ADD14R,0.025590X0.025200*%
%ADD15R,0.033470X0.039370*%
%ADD16R,0.017720X0.057090*%
%ADD17R,0.027560X0.035430*%
%ADD18R,0.051580X0.021650*%
%ADD19R,0.011810X0.027560*%
G04~CAMADD=20~8~0.0~0.0~118.1~236.2~41.3~0.0~15~0.0~0.0~0.0~0.0~0~0.0~0.0~0.0~0.0~0~0.0~0.0~0.0~180.0~118.0~237.0*
%ADD20D20*%
%ADD21O,0.011810X0.023620*%
%ADD22R,0.066930X0.043310*%
%ADD23R,0.051180X0.027560*%
%ADD24R,0.033470X0.043310*%
%ADD25R,0.043310X0.066930*%
%ADD26R,0.027560X0.051180*%
%ADD27R,0.043310X0.033470*%
%ADD28R,0.024410X0.071650*%
%ADD29R,0.025200X0.025590*%
%ADD30R,0.035430X0.027560*%
%ADD58C,0.047240*%
%ADD59R,0.047240X0.047240*%
%LNpcb1-1*%
%LPD*%
G54D13*
X01279Y0D02*
Y02362D01*
X00059Y0D02*
X01279D01*
X00059D02*
Y02362D01*
X01279*
G54D14*
X01194Y0099D03*
X0123D03*
X01197Y00683D03*
X01162D03*
G54D15*
X01178Y00926D03*
X01237D03*
G54D16*
X00306Y00481D03*
Y00306D03*
X00331D03*
X00357D03*
X00382D03*
Y00481D03*
X00357D03*
X00331D03*
X0065Y00306D03*
X00676D03*
X00701D03*
X00727D03*
Y00481D03*
X00701D03*
X00676D03*
X0065D03*
X00975Y00306D03*
X01D03*
X01026D03*
X01052D03*
Y00481D03*
X01026D03*
X01D03*
X00975D03*
G54D17*
X01182Y00868D03*
X01241D03*
X00344Y0123D03*
X00285D03*
X00344Y01722D03*
X00285D03*
G54D18*
X01141Y00759D03*
G54D19*
X01161Y00728D03*
X01141D03*
X01122D03*
Y00791D03*
X01141D03*
X01161D03*
G54D20*
X00285Y01791D03*
X00296Y01653D03*
Y01161D03*
G54D21*
X00313Y01791D03*
X00324Y01653D03*
Y01161D03*
G54D22*
X00759Y02165D03*
X00846D03*
X00933D03*
X00759Y01811D03*
X00846D03*
X00933D03*
X00759Y01692D03*
X00846D03*
X00933D03*
X00759Y01338D03*
X00846D03*
X00933D03*
X00759Y0122D03*
X00846D03*
X00933D03*
X00759Y00866D03*
X00846D03*
X00933D03*
G54D23*
X00846Y02076D03*
Y01604D03*
Y01131D03*
G54D24*
X00778Y01911D03*
X00823D03*
X00869D03*
X00914D03*
X00778Y02021D03*
X00823D03*
X00869D03*
X00914D03*
X00778Y01438D03*
X00823D03*
X00869D03*
X00914D03*
X00778Y01549D03*
X00823D03*
X00869D03*
X00914D03*
X00778Y00966D03*
X00823D03*
X00869D03*
X00914D03*
X00778Y01076D03*
X00823D03*
X00869D03*
X00914D03*
G54D25*
X00297Y01904D03*
Y01991D03*
Y02077D03*
X00651Y01904D03*
Y01991D03*
Y02077D03*
X00295Y01401D03*
Y01488D03*
Y01574D03*
X00649Y01401D03*
Y01488D03*
Y01574D03*
X00295Y0091D03*
Y00997D03*
Y01083D03*
X00649Y0091D03*
Y00997D03*
Y01083D03*
G54D26*
X00385Y01991D03*
X00383Y01488D03*
Y00997D03*
G54D27*
X00551Y01923D03*
Y01968D03*
Y02013D03*
Y02059D03*
X0044Y01923D03*
Y01968D03*
Y02013D03*
Y02059D03*
X00549Y0142D03*
Y01465D03*
Y0151D03*
Y01556D03*
X00438Y0142D03*
Y01465D03*
Y0151D03*
Y01556D03*
X00549Y00929D03*
Y00974D03*
Y01019D03*
Y01064D03*
X00438Y00929D03*
Y00974D03*
Y01019D03*
Y01064D03*
G54D28*
X00673Y02194D03*
X00547D03*
X00673Y02283D03*
X00547D03*
X00673Y01791D03*
X00547D03*
X00673Y01692D03*
X00547D03*
X00683Y01289D03*
X00557D03*
X00683Y0121D03*
X00557D03*
G54D29*
X01082Y0073D03*
Y00765D03*
X0122Y00769D03*
Y00805D03*
X01122Y00368D03*
Y00403D03*
X00787Y00375D03*
Y00411D03*
X00452Y00375D03*
Y00411D03*
G54D30*
X00236Y01879D03*
Y01938D03*
G54D58*
X0122Y01102D03*
Y01181D03*
Y01259D03*
Y01338D03*
Y01417D03*
Y01496D03*
Y01574D03*
Y01653D03*
Y01732D03*
Y01811D03*
Y01889D03*
X00118Y01102D03*
Y01181D03*
Y01259D03*
Y01338D03*
Y01417D03*
Y01496D03*
Y01574D03*
Y01653D03*
Y01732D03*
Y01811D03*
Y01889D03*
G54D59*
X0122Y01968D03*
X00118D03*
M02*